<?xml version="1.0" standalone="no"?>
<!DOCTYPE svg PUBLIC "-//W3C//DTD SVG 1.1//EN" "http://www.w3.org/Graphics/SVG/1.1/DTD/svg11.dtd" >
<svg>
<metadata>
Created by FontForge 20090622 at Sun Oct 23 14:26:43 2016
 By deploy user
Copyright (c) Ruben Tarumian. 1995-1999
</metadata>
<defs>
<font id="ArialAMU" horiz-adv-x="1155" >
  <font-face 
    font-family="Arial AMU"
    font-weight="400"
    font-stretch="normal"
    units-per-em="2048"
    panose-1="2 11 6 4 2 2 2 2 2 4"
    ascent="1638"
    descent="-410"
    x-height="1062"
    cap-height="1466"
    bbox="-1209 -431 2778 1854"
    underline-thickness="150"
    underline-position="-142"
    unicode-range="U+0020-U+2022"
  />
<missing-glyph horiz-adv-x="1854" 
d="M115 0v1854h1624v-1854h-1624zM1624 115v1624h-1394v-1624h1394z" />
    <glyph glyph-name=".notdef" horiz-adv-x="1854" 
d="M115 0v1854h1624v-1854h-1624zM1624 115v1624h-1394v-1624h1394z" />
    <glyph glyph-name=".null" horiz-adv-x="0" 
 />
    <glyph glyph-name=".null" horiz-adv-x="0" 
 />
    <glyph glyph-name="nonmarkingreturn" horiz-adv-x="586" 
 />
    <glyph glyph-name="space" unicode=" " horiz-adv-x="586" 
 />
    <glyph glyph-name="exclam" unicode="!" horiz-adv-x="586" 
d="M222 364l-53 777v325h214v-325l-50 -777h-111zM177 0v205h198v-205h-198z" />
    <glyph glyph-name="quotedbl" unicode="&#x22;" horiz-adv-x="738" 
d="M138 947l-48 279v240h197v-240l-43 -279h-106zM456 947l-47 279v240h197v-240l-46 -279h-104z" />
    <glyph glyph-name="numbersign" unicode="#" horiz-adv-x="1133" 
d="M99 -25l83 426h-162v149h191l71 363h-262v149h291l84 429h144l-84 -429h302l84 429h145l-84 -429h166v-149h-194l-72 -363h266v-149h-295l-84 -426h-144l83 426h-302l-83 -426h-144zM355 550h302l72 363h-303z" />
    <glyph glyph-name="dollar" unicode="$" horiz-adv-x="1162" 
d="M490 -211v180q-204 25 -306 123q-114 109 -114 315l174 34q23 -162 90 -240q59 -69 156 -80v573q-154 30 -260 124q-130 115 -130 288q0 171 86 272q97 113 304 137v86h101v-86q166 -17 261 -111q92 -91 115 -250l-179 -28q-14 103 -62 161t-135 76v-519
q212 -50 314 -160q96 -104 96 -267q0 -189 -112 -315q-116 -131 -298 -131v-182h-101zM490 1365q-99 -15 -158 -82t-59 -163q0 -94 48 -153q52 -64 169 -100v498zM591 121q102 12 167.5 90.5t65.5 193.5q0 100 -46 156q-51 62 -187 108v-548z" />
    <glyph glyph-name="percent" unicode="%" horiz-adv-x="1788" 
d="M114 1114q0 164 74 266q80 111 222 111q137 0 219 -97q87 -103 87 -291q0 -179 -84.5 -283t-219.5 -104q-133 0 -212 97q-86 106 -86 301zM415 1367q-69 0 -106 -56q-44 -67 -44 -215q0 -134 42 -198q38 -58 108 -58t107 56q43 66 43 214q0 133 -42 198q-38 59 -108 59z
M416 -54l770 1545h140l-767 -1545h-143zM1024 344q0 165 74 267q80 110 223 110q137 0 219 -97q87 -103 87 -291q0 -181 -84 -284t-221 -103q-133 0 -212 97q-86 106 -86 301zM1326 597q-70 0 -107 -56q-44 -67 -44 -215q0 -133 42 -197q39 -59 108 -59q71 0 108 56
q43 66 43 214q0 133 -42 198q-38 59 -108 59z" />
    <glyph glyph-name="ampersand" unicode="&#x26;" horiz-adv-x="1351" 
d="M934 173q-85 -99 -186 -149q-49 -23 -104.5 -36t-113.5 -13q-216 0 -343 152q-103 124 -103 277q0 134 84 244.5t252 193.5q-96 114 -127.5 185.5t-31.5 136.5q0 131 99.5 229t250.5 98q143 0 235 -92t92 -221q0 -209 -266 -357l252 -335q42 83 68 204l179 -40
q-47 -194 -125 -316q98 -134 220 -225l-116 -143q-103 69 -216 207zM583 937q112 69 145 120.5t33 115.5q0 75 -45.5 122.5t-113.5 47.5q-70 0 -116.5 -46.5t-46.5 -115.5q0 -34 16 -72q10 -19 22.5 -39t28.5 -40zM826 315l-317 409q-139 -87 -188.5 -161t-49.5 -148
q0 -89 68 -185t193 -96q78 0 160.5 50.5t133.5 130.5z" />
    <glyph glyph-name="quotesingle" unicode="'" horiz-adv-x="415" 
d="M131 947l-45 274v245h197v-245l-46 -274h-106z" />
    <glyph glyph-name="parenleft" unicode="(" horiz-adv-x="631" 
d="M612 -393h-136q-180 252 -263 487q-78 222 -78 452q0 257 72 461t254 473h141q-110 -194 -170 -355q-54 -146 -75 -291q-17 -120 -17 -288q0 -242 54 -434q58 -206 218 -505z" />
    <glyph glyph-name="parenright" unicode=")" horiz-adv-x="631" 
d="M482 532q0 -234 -77 -452q-82 -233 -264 -487h-135q159 296 217 505q54 193 54 434q0 172 -16 287q-21 147 -74 291q-58 156 -172 356h141q182 -268 254 -472t72 -462z" />
    <glyph glyph-name="asterisk" unicode="*" horiz-adv-x="844" 
d="M61 1197l45 142q74 -27 131 -52t90 -45l-13 143.5t-6 105.5h139q0 -91 -22 -248q47 24 106 49.5t121 46.5l44 -142q-118 -41 -239 -56q57 -52 165 -189l-115 -85q-26 37 -59 91l-73 124q-70 -140 -124 -215l-114 85q112 144 160 189q-132 25 -236 56z" />
    <glyph glyph-name="plus" unicode="+" horiz-adv-x="1188" 
d="M492 237v402h-383v168h383v399h164v-399h383v-168h-383v-402h-164z" />
    <glyph glyph-name="comma" unicode="," horiz-adv-x="586" 
d="M175 0v205h197v-205q0 -100 -37 -172q-41 -80 -124 -118l-48 77q56 25 83 73.5t27 139.5h-98z" />
    <glyph glyph-name="hyphen" unicode="-" horiz-adv-x="695" 
d="M82 440v181h492v-181h-492z" />
    <glyph glyph-name="period" unicode="." horiz-adv-x="635" 
d="M179 0v205h196v-205h-196z" />
    <glyph glyph-name="slash" unicode="/" horiz-adv-x="586" 
d="M0 -25l408 1516h138l-407 -1516h-139z" />
    <glyph glyph-name="zero" unicode="0" 
d="M82 723q0 380 124 578q119 189 334 189q208 0 329 -188q130 -202 130 -579q0 -369 -119 -558.5t-340 -189.5q-224 0 -341 192t-117 556zM259 723q0 -335 79 -478q67 -122 202 -122q128 0 198 123q84 148 84 477q0 319 -78 475q-72 143 -205 143q-134 0 -204 -142
q-76 -155 -76 -476z" />
    <glyph glyph-name="one" unicode="1" horiz-adv-x="1133" 
d="M732 0h-172v1147q-59 -58 -128 -103q-63 -41 -138 -72l-80 132q122 55 240 159q122 107 167 203h111v-1466z" />
    <glyph glyph-name="two" unicode="2" horiz-adv-x="1133" 
d="M990 173v-173h-930q0 122 81 247q86 133 279 295q221 188 308 308q82 113 82 219q0 111 -71 190q-76 84 -194 84q-123 0 -199 -87t-76 -227l-178 19q18 209 136.5 326.5t320.5 117.5q196 0 320 -126q119 -121 119 -301q0 -97 -22 -158q-28 -79 -115 -180
q-92 -107 -279 -272q-142 -124 -196 -181q-42 -45 -76 -101h690z" />
    <glyph glyph-name="three" unicode="3" horiz-adv-x="1133" 
d="M83 387l172 24q29 -149 99 -220q67 -68 177 -68q123 0 206.5 84.5t83.5 221.5q0 123 -77 204t-199 81q-52 0 -122 -20l20 158l27 -2q117 0 198 64q89 71 89 191q0 102 -61 168q-64 70 -169 70q-116 0 -185 -74t-69 -209l-173 32q0 180 117.5 289.5t305.5 109.5
q184 0 301 -118q111 -112 111 -272q0 -97 -48 -177q-51 -85 -146 -130q123 -29 193 -125.5t70 -235.5q0 -195 -133 -327t-341 -132q-184 0 -306 113t-141 300z" />
    <glyph glyph-name="four" unicode="4" horiz-adv-x="1133" 
d="M655 0v351h-611v165l642 950h142v-950h190v-165h-190v-351h-173zM655 516v661l-441 -661h441z" />
    <glyph glyph-name="five" unicode="5" horiz-adv-x="1133" 
d="M82 384l181 16q20 -135 91 -206t180 -71q127 0 210 96q87 100 87 262q0 152 -81 242t-219 90q-81 0 -147.5 -38t-108.5 -104l-163 22l137 773h699v-172h-561l-76 -414q128 92 266 92q186 0 312 -133.5t126 -341.5q0 -222 -133 -370q-137 -152 -348 -152q-191 0 -313 110
t-139 299z" />
    <glyph glyph-name="six" unicode="6" horiz-adv-x="1133" 
d="M978 1107l-172 -14q-28 131 -88 190.5t-150 59.5q-150 0 -233 -139q-89 -150 -89 -448q59 96 148.5 145.5t193.5 49.5q174 0 294.5 -134t120.5 -341q0 -209 -120 -352q-125 -149 -320 -149q-220 0 -347 164q-142 184 -142 547q0 399 135 606q130 199 370 199
q164 0 270.5 -104.5t128.5 -279.5zM273 475q0 -156 81.5 -254t205.5 -98q113 0 188 90q79 95 79 252q0 149 -76.5 238t-197.5 89q-119 0 -199.5 -87.5t-80.5 -229.5z" />
    <glyph glyph-name="seven" unicode="7" horiz-adv-x="1133" 
d="M93 1293v173h911v-140q-131 -145 -245 -342q-130 -224 -205 -461q-86 -272 -86 -523h-178q0 292 146 674.5t346 618.5h-689z" />
    <glyph glyph-name="eight" unicode="8" horiz-adv-x="1133" 
d="M348 795q-105 39 -158.5 118t-53.5 191q0 165 104 273q111 115 300 115q187 0 301 -116q108 -110 108 -277q0 -104 -50 -181q-53 -81 -157 -123q128 -43 196.5 -140.5t68.5 -235.5q0 -190 -126 -315q-130 -129 -338 -129q-204 0 -333.5 127.5t-129.5 321.5
q0 143 68.5 239t199.5 132zM313 1110q0 -104 64 -175t167 -71q98 0 163 69t65 167q0 101 -63 171q-66 73 -167 73q-96 0 -162.5 -69.5t-66.5 -164.5zM257 423q0 -116 82 -206q86 -94 206 -94q124 0 204.5 82.5t80.5 211.5q0 128 -82 214t-208 86q-121 0 -202 -83t-81 -211z
" />
    <glyph glyph-name="nine" unicode="9" horiz-adv-x="1133" 
d="M108 339l166 16q19 -119 77.5 -175.5t155.5 -56.5q151 0 241 150q87 145 87 381l-1 36q-52 -87 -141.5 -140t-194.5 -53q-177 0 -295 136q-121 139 -121 354q0 210 125.5 357.5t316.5 147.5q226 0 346 -159q137 -181 137 -570q0 -403 -133 -600q-127 -188 -371 -188
q-164 0 -268.5 94.5t-126.5 269.5zM815 996q0 143 -79 245t-191 102q-123 0 -204.5 -101.5t-81.5 -260.5q0 -140 79.5 -232.5t201.5 -92.5q121 0 198 93t77 247z" />
    <glyph glyph-name="colon" unicode=":" horiz-adv-x="635" 
d="M178 857v205h196v-205h-196zM178 0v205h196v-205h-196z" />
    <glyph glyph-name="semicolon" unicode=";" horiz-adv-x="635" 
d="M175 857v205h197v-205h-197zM175 0v205h197v-205q0 -111 -38.5 -181.5t-122.5 -108.5l-48 77q56 24 81 74q14 26 21.5 60t7.5 79h-98z" />
    <glyph glyph-name="less" unicode="&#x3c;" horiz-adv-x="1188" 
d="M108 641v168l932 410v-179l-740 -316l740 -319v-179z" />
    <glyph glyph-name="equal" unicode="=" horiz-adv-x="1188" 
d="M1039 862h-930v168h930v-168zM1039 417h-930v168h930v-168z" />
    <glyph glyph-name="greater" unicode="&#x3e;" horiz-adv-x="1188" 
d="M1040 641l-932 -415v179l738 319l-738 316v179l932 -410v-168z" />
    <glyph glyph-name="question" unicode="?" horiz-adv-x="1133" 
d="M453 361q0 24 -1 39q-4 58 -4 64q0 80 37 150q51 96 188 226q85 78 114.5 128t29.5 111q0 106 -79 185t-193 79q-112 0 -182 -71q-75 -76 -99 -226l-178 22q23 203 141 313t315 110q202 0 329 -116q124 -113 124 -284q0 -98 -43 -176q-46 -84 -170 -198
q-111 -104 -141 -180q-22 -56 -22 -176h-166zM443 0v205h196v-205h-196z" />
    <glyph glyph-name="at" unicode="@" horiz-adv-x="2084" 
d="M1115 163q-64 -77 -140 -121.5t-155 -44.5q-145 0 -245 125q-103 128 -103 324q0 240 152.5 439t346.5 199q85 0 159.5 -46t129.5 -138l33 162h172l-155 -753q-8 -43 -8 -68q0 -41 16 -59.5t47 -18.5q127 0 249 177.5t122 375.5q0 264 -192 445q-197 186 -495 186
q-339 0 -565 -234q-235 -243 -235 -628q0 -364 218 -566t608 -202q238 0 420 87q165 79 256 215h174q-52 -112 -158 -208q-121 -110 -281 -171q-186 -71 -408 -71q-449 0 -710 240t-261 660q0 443 257 729q265 295 694 295q347 0 579 -210q241 -219 241 -570
q0 -273 -178 -495t-400 -222q-87 0 -132 34q-53 40 -53 133zM650 434q0 -131 61 -212q58 -77 144 -77q87 0 171 72q96 82 145 228q35 105 35 202q0 127 -56 205q-60 83 -167 83q-134 0 -233.5 -157.5t-99.5 -343.5z" />
    <glyph glyph-name="A" unicode="A" horiz-adv-x="1351" 
d="M1314 0h-212l-164 444h-589l-154 -444h-198l541 1466h200zM880 602l-147 406q-29 80 -56.5 165.5t-42.5 138.5q-27 -143 -76 -280l-155 -430h477z" />
    <glyph glyph-name="B" unicode="B" horiz-adv-x="1448" 
d="M144 0v1466h528q229 0 353 -108q114 -100 114 -267q0 -96 -48 -175q-51 -85 -149 -136q125 -39 195 -132.5t70 -222.5q0 -199 -128 -309q-136 -116 -398 -116h-537zM330 850h324q169 0 244 72q57 55 57 146q0 101 -57 154q-77 71 -267 71h-301v-443zM330 173h351
q168 0 250.5 61.5t82.5 190.5q0 127 -76 186q-85 66 -282 66h-326v-504z" />
    <glyph glyph-name="C" unicode="C" horiz-adv-x="1460" 
d="M1156 514l186 -49q-57 -236 -208 -363t-375 -127q-323 0 -499 224q-162 206 -162 545q0 336 191 544q186 203 473 203q211 0 354.5 -110t201.5 -317l-183 -45q-49 157 -140.5 231.5t-236.5 74.5q-224 0 -352 -177q-116 -161 -116 -403q0 -272 126.5 -438t327.5 -166
q158 0 263 92q111 97 149 281z" />
    <glyph glyph-name="D" unicode="D" horiz-adv-x="1460" 
d="M152 0v1466h532q317 0 478 -195q153 -186 153 -530q0 -377 -182 -571q-159 -170 -425 -170h-556zM338 173h348q223 0 330 141t107 430q0 291 -127 429q-111 120 -314 120h-344v-1120z" />
    <glyph glyph-name="E" unicode="E" horiz-adv-x="1351" 
d="M156 0v1466h1017v-173h-831v-449h778v-172h-778v-499h864v-173h-1050z" />
    <glyph glyph-name="F" unicode="F" horiz-adv-x="1241" 
d="M161 0v1466h950v-173h-763v-454h660v-173h-660v-666h-187z" />
    <glyph glyph-name="G" unicode="G" horiz-adv-x="1569" 
d="M810 575v173h596v-544q-274 -229 -582 -229q-329 0 -526 210q-193 206 -193 541q0 338 172 542q188 223 532 223q231 0 373 -104q148 -108 203 -331l-168 -48q-90 317 -407 317q-263 0 -397 -179q-116 -155 -116 -408q0 -284 141 -439q136 -149 375 -149q115 0 235 47
q110 43 176 105v273h-414z" />
    <glyph glyph-name="H" unicode="H" horiz-adv-x="1460" 
d="M155 0v1466h186v-602h731v602h187v-1466h-187v691h-731v-691h-186z" />
    <glyph glyph-name="I" unicode="I" horiz-adv-x="586" 
d="M183 0v1466h187v-1466h-187z" />
    <glyph glyph-name="J" unicode="J" horiz-adv-x="1055" 
d="M57 416l168 24q0 -148 54 -220t155 -72q102 0 151 60q59 73 59 248v1010h186v-999q0 -256 -113 -381q-101 -111 -282 -111q-176 0 -275 110q-103 115 -103 331z" />
    <glyph glyph-name="K" unicode="K" horiz-adv-x="1351" 
d="M144 0v1466h186v-727l699 727h253l-591 -594l617 -872h-246l-501 742l-231 -234v-508h-186z" />
    <glyph glyph-name="L" unicode="L" horiz-adv-x="1133" 
d="M144 0v1466h186v-1293h693v-173h-879z" />
    <glyph glyph-name="M" unicode="M" horiz-adv-x="1690" 
d="M146 0v1466h280l333 -1038l68 -217q8 30 30.5 101l43.5 134l337 1020h251v-1466h-180v1227l-409 -1227h-168l-407 1248v-1248h-179z" />
    <glyph glyph-name="N" unicode="N" horiz-adv-x="1460" 
d="M150 0v1466h191l739 -1151v1151h179v-1466h-191l-740 1152v-1152h-178z" />
    <glyph glyph-name="O" unicode="O" horiz-adv-x="1569" 
d="M95 714q0 360 185 569t489 209q306 19 489 -204t183 -557q0 -328 -195 -542t-478 -214q-289 0 -481 219.5t-192 519.5zM287 711q0 -259 134 -414.5t346 -155.5q216 0 349 155.5t133 435.5q0 265 -133.5 429t-345.5 164q-213 0 -348 -150t-135 -464z" />
    <glyph glyph-name="P" unicode="P" horiz-adv-x="1351" 
d="M152 0v1466h531q264 0 403.5 -108.5t139.5 -315.5q0 -197 -126 -315q-139 -131 -401 -131h-361v-596h-186zM338 769h364q174 0 253 66.5t79 200.5q0 124 -76 187q-84 70 -260 70h-360v-524z" />
    <glyph glyph-name="Q" unicode="Q" horiz-adv-x="1569" 
d="M1218 157q130 -93 239 -136l-54 -135q-151 57 -303 180q-158 -91 -345 -91q-300 0 -485.5 212.5t-185.5 545.5q0 330 177 539q186 220 497 220q293 0 480 -204q192 -210 192 -554q0 -181 -51.5 -324.5t-160.5 -252.5zM808 405q162 -47 266 -140q164 155 164 469
q0 262 -132.5 426.5t-346.5 164.5q-213 0 -343 -146q-140 -158 -140 -446q0 -280 134 -438q130 -154 349 -154q99 0 189 39q-87 58 -185 84z" />
    <glyph glyph-name="R" unicode="R" horiz-adv-x="1460" 
d="M155 0v1466h624q256 0 383 -110q118 -102 118 -290q0 -160 -96 -262q-102 -108 -301 -137q73 -36 120 -76q41 -35 78 -86q12 -16 69 -106l245 -399h-234l-187 305q-77 127 -131.5 198.5t-97.5 101.5q-38 26 -67 34q-41 12 -121 12h-216v-651h-186zM341 819h400
q176 0 264 68q83 64 83 179q0 113 -77 175.5t-225 62.5h-445v-485z" />
    <glyph glyph-name="S" unicode="S" horiz-adv-x="1351" 
d="M88 471l176 16q17 -161 124 -249.5t292 -88.5q156 0 252.5 71t96.5 178q0 100 -71 155q-90 70 -342 122.5t-368 160.5q-106 99 -106 251q0 173 129 285q137 119 366 119q245 0 387 -119.5t142 -318.5l-178 -14q-15 140 -96 209q-85 72 -247 72q-160 0 -244 -62
q-79 -58 -79 -158q0 -87 59 -135q75 -62 276 -100q305 -58 436 -175q116 -103 116 -276q0 -177 -144 -305q-150 -134 -377 -134q-278 0 -439 135t-161 361z" />
    <glyph glyph-name="T" unicode="T" horiz-adv-x="1241" 
d="M510 0v1293h-464v173h1116v-173h-466v-1293h-186z" />
    <glyph glyph-name="U" unicode="U" horiz-adv-x="1460" 
d="M1075 1466h186v-867q0 -298 -117 -450q-134 -174 -433 -174q-296 0 -430 160q-126 150 -126 464v867h186v-896q0 -213 86.5 -316.5t267.5 -103.5q204 0 292 96t88 324v896z" />
    <glyph glyph-name="V" unicode="V" horiz-adv-x="1351" 
d="M554 0l-545 1466h201l366 -1065l40 -124q17 -54 34 -116q33 124 76 240l380 1065h190l-551 -1466h-191z" />
    <glyph glyph-name="W" unicode="W" horiz-adv-x="1896" 
d="M397 0l-373 1466h191l214 -961q17 -75 32 -150q12 -60 28 -150q52 231 63 271l268 990h224l202 -742q73 -268 110 -519q12 66 29.5 145.5t40.5 173.5l220 942h188l-386 -1466h-180l-296 1117l-45 172q-13 -63 -15 -71q-13 -55 -26 -101l-298 -1117h-191z" />
    <glyph glyph-name="X" unicode="X" horiz-adv-x="1351" 
d="M9 0l544 764l-480 702h222l255 -376q74 -109 113 -180q46 78 112 167l283 389h202l-494 -691l533 -775h-231l-354 523l-61 98l-67 -110l-354 -511h-223z" />
    <glyph glyph-name="Y" unicode="Y" horiz-adv-x="1351" 
d="M548 0v621l-542 845h226l278 -442q73 -118 143 -248q60 109 153 259l273 431h217l-562 -845v-621h-186z" />
    <glyph glyph-name="Z" unicode="Z" horiz-adv-x="1241" 
d="M39 0v180l721 939q81 105 146 174h-785v173h1008v-173l-790 -1017l-86 -103h899v-173h-1113z" />
    <glyph glyph-name="bracketleft" unicode="[" horiz-adv-x="586" 
d="M133 -407v1873h382v-149h-209v-1575h209v-149h-382z" />
    <glyph glyph-name="backslash" unicode="\" horiz-adv-x="586" 
d="M408 -25l-408 1516h139l407 -1516h-138z" />
    <glyph glyph-name="bracketright" unicode="]" horiz-adv-x="586" 
d="M419 -407h-382v149h209v1575h-209v149h382v-1873z" />
    <glyph glyph-name="asciicircum" unicode="^" horiz-adv-x="963" 
d="M229 690h-177l339 801h139l341 -801h-174l-237 597z" />
    <glyph glyph-name="underscore" unicode="_" horiz-adv-x="1133" 
d="M-30 -407v130h1146v-130h-1146z" />
    <glyph glyph-name="grave" unicode="`" horiz-adv-x="558" 
d="M510 1180l-148 -56l-270 450l182 52z" />
    <glyph glyph-name="a" unicode="a" 
d="M795 131q-94 -83 -182 -119t-193 -36q-163 0 -256 83t-93 221q0 69 23 127q35 88 113 139q101 66 265 66q51 0 152 20.5t156 41.5l1 47q0 114 -65 167q-60 49 -180 49q-117 0 -177 -43.5t-89 -158.5l-169 24q31 166 143.5 246.5t316.5 80.5q218 0 308 -89q86 -85 86 -282
v-270q0 -256 10.5 -319t44.5 -126h-181q-25 54 -34 131zM780 533q-49 -21 -142 -44.5t-140 -23.5q-136 -12 -196 -68q-47 -44 -47 -112q0 -75 53 -121.5t153 -46.5q126 0 211 66q108 84 108 254v96z" />
    <glyph glyph-name="b" unicode="b" 
d="M289 0h-160v1466h172v-523q110 143 280 143q198 0 315 -149.5t117 -389.5q0 -264 -129 -422q-122 -149 -312 -149q-180 0 -283 157v-133zM287 539q0 -225 89 -331q70 -84 182 -84q121 0 196 101q82 110 82 307q0 198 -77 305q-73 101 -194 101q-126 0 -200 -101
q-78 -106 -78 -298z" />
    <glyph glyph-name="c" unicode="c" horiz-adv-x="1024" 
d="M795 389l170 -23q-27 -181 -140.5 -285.5t-284.5 -104.5q-212 0 -335 141q-128 147 -128 410q0 252 130.5 405.5t333.5 153.5q166 0 271.5 -86t135.5 -250l-168 -27q-22 103 -82.5 159t-149.5 56q-136 0 -211 -94q-83 -104 -83 -312q0 -205 77 -309q73 -99 208 -99
q103 0 168 63q70 68 88 202z" />
    <glyph glyph-name="d" unicode="d" 
d="M791 0v134q-96 -158 -285 -158q-182 0 -308 152q-131 159 -131 402q0 239 121 397.5t310 158.5q90 0 161 -38t121 -108v526h171v-1466h-160zM245 530q0 -194 81 -304q75 -102 196 -102q119 0 192 95q80 104 80 296q0 208 -80 319q-74 103 -199 103q-121 0 -192 -97
q-78 -106 -78 -310z" />
    <glyph glyph-name="e" unicode="e" 
d="M828 342l178 -23q-43 -164 -157 -253.5t-291 -89.5q-225 0 -354 142q-132 145 -132 404q0 263 129.5 413.5t346.5 150.5q209 0 334 -144q130 -149 130 -409l-1 -48h-760q0 -168 89 -267q85 -94 219 -94q97 0 162.5 51.5t106.5 166.5zM260 633h569q-14 160 -91 236
q-70 69 -188 69q-121 0 -203 -81q-87 -86 -87 -224z" />
    <glyph glyph-name="f" unicode="f" horiz-adv-x="615" 
d="M171 0v922h-153v140h153v113q0 141 62 222q72 94 220 94q72 0 161 -18l-26 -157q-58 10 -101 10q-80 0 -110 -32q-34 -36 -34 -134v-98h198v-140h-198v-922h-172z" />
    <glyph glyph-name="g" unicode="g" 
d="M98 -88l168 -26q11 -91 69.5 -132t164.5 -41q157 0 219 87q67 94 67 339q-113 -139 -282 -139q-203 0 -325 157q-116 149 -116 380q0 233 118 387q124 162 324 162q180 0 298 -152v128h159v-918q0 -233 -62 -366q-55 -118 -165 -168q-90 -41 -234 -41q-187 0 -291 83
q-112 89 -112 260zM241 550q0 -200 78 -304q73 -97 201 -97q124 0 199 95q82 104 82 300q0 188 -82 294q-77 99 -202 99q-120 0 -195 -96q-81 -104 -81 -291z" />
    <glyph glyph-name="h" unicode="h" 
d="M130 0v1466h172v-526q122 146 306 146q171 0 258 -94q94 -101 94 -319v-673h-173v673q0 132 -54 195t-161 63q-121 0 -190 -77q-80 -89 -80 -273v-581h-172z" />
    <glyph glyph-name="i" unicode="i" horiz-adv-x="477" 
d="M131 1259v207h172v-207h-172zM131 0v1062h172v-1062h-172z" />
    <glyph glyph-name="j" unicode="j" horiz-adv-x="477" 
d="M129 1257v209h172v-209h-172zM-90 -412l32 153q54 -14 82 -14q57 0 78 34q27 44 27 185v1116h172v-1120q0 -214 -62 -297q-57 -76 -194 -76q-71 0 -135 19z" />
    <glyph glyph-name="k" unicode="k" horiz-adv-x="1023" 
d="M131 0v1466h172v-836l409 432h224l-390 -394l429 -668h-213l-337 543l-122 -122v-421h-172z" />
    <glyph glyph-name="l" unicode="l" horiz-adv-x="477" 
d="M126 0v1466h173v-1466h-173z" />
    <glyph glyph-name="m" unicode="m" horiz-adv-x="1756" 
d="M130 0v1062h154v-149q50 80 127 125q82 48 182 48q111 0 183 -47t105 -139q122 186 315 186q151 0 233 -90.5t82 -266.5v-729h-172v669q0 140 -42.5 200.5t-138.5 60.5q-113 0 -178 -73q-72 -81 -72 -240v-617h-173v690q0 114 -41 174q-45 66 -139 66q-75 0 -135.5 -39.5
t-89.5 -117.5q-14 -40 -21 -93.5t-7 -128.5v-551h-172z" />
    <glyph glyph-name="n" unicode="n" 
d="M130 0v1062h155v-151q113 175 325 175q169 0 256 -102q92 -108 92 -331v-653h-173v646q0 146 -52 215t-160 69q-123 0 -189 -70q-82 -87 -82 -280v-580h-172z" />
    <glyph glyph-name="o" unicode="o" 
d="M65 531q0 262 133 411q129 144 345 144q213 0 343 -142q134 -147 134 -398q0 -287 -134 -434q-124 -136 -343 -136q-218 0 -345 141q-133 147 -133 414zM243 531q0 -197 84 -305q80 -102 216 -102q135 0 215 102q85 109 85 311q0 191 -85 298q-81 102 -215 102
q-135 0 -214 -99q-86 -107 -86 -307z" />
    <glyph glyph-name="p" unicode="p" 
d="M130 -407v1469h154v-138q56 82 127 122t172 40q190 0 311 -155t121 -392q0 -235 -130.5 -399t-314.5 -164q-83 0 -152 36t-117 98v-517h-171zM286 525q0 -195 79 -302q73 -99 194 -99q122 0 197 101q82 111 82 315q0 194 -79 303q-74 102 -193 102q-116 0 -194 -106
q-86 -116 -86 -314z" />
    <glyph glyph-name="q" unicode="q" 
d="M780 -407v520q-41 -59 -114 -98t-153 -39q-187 0 -312 149q-132 158 -132 416q0 235 122 390t308 155q189 0 298 -166v142h155v-1469h-172zM247 534q0 -195 81 -306q76 -104 199 -104q116 0 189 96q81 106 81 298q0 202 -83 318q-77 108 -198 108q-119 0 -190 -98
q-79 -109 -79 -312z" />
    <glyph glyph-name="r" unicode="r" horiz-adv-x="695" 
d="M128 0v1062h155v-161q41 91 98 138t123 47q86 0 178 -58l-60 -167q-63 39 -127 39q-195 0 -195 -344v-556h-172z" />
    <glyph glyph-name="s" unicode="s" horiz-adv-x="1024" 
d="M60 317l171 28q15 -107 81 -164t183 -57q115 0 175 47.5t60 121.5q0 56 -43 90q-52 41 -185 67q-228 45 -324 126q-89 75 -89 204t93 213q103 93 283 93q179 0 279.5 -72t124.5 -226l-169 -24q-12 82 -67.5 128t-155.5 46q-110 0 -168 -40q-53 -37 -53 -97q0 -53 46 -86
q66 -47 259 -89q166 -37 250 -105q96 -79 96 -209q0 -138 -106 -233q-115 -103 -305 -103q-195 0 -300.5 84t-135.5 257z" />
    <glyph glyph-name="t" unicode="t" horiz-adv-x="615" 
d="M507 161l25 -159q-77 -16 -131 -16q-132 0 -188 66q-52 62 -52 199v671h-126v140h126v263l172 108v-371h174v-140h-174v-621q0 -81 15 -109q20 -38 83 -38q31 0 76 7z" />
    <glyph glyph-name="u" unicode="u" 
d="M802 0v156q-119 -180 -324 -180q-154 0 -244 84q-104 97 -104 294v708h171v-649q0 -141 51 -211.5t161 -70.5q106 0 178 64q92 82 92 248v619h172v-1062h-153z" />
    <glyph glyph-name="v" unicode="v" horiz-adv-x="1024" 
d="M413 0l-388 1062h182l219 -636q16 -47 41 -130l25 -84q11 40 26.5 90t37.5 112l226 648h178l-386 -1062h-161z" />
    <glyph glyph-name="w" unicode="w" horiz-adv-x="1460" 
d="M318 0l-312 1062h178l163 -613l60 -228q6 31 53 219l162 622h178l152 -616l51 -203l59 205l174 614h168l-318 -1062h-180l-162 636l-39 181l-207 -817h-180z" />
    <glyph glyph-name="x" unicode="x" horiz-adv-x="1024" 
d="M14 0l373 552l-345 510h216l157 -249l71 -119l78 117l171 251h207l-353 -500l380 -562h-213l-209 330l-55 89l-268 -419h-210z" />
    <glyph glyph-name="y" unicode="y" horiz-adv-x="1024" 
d="M122 -409l-19 169q59 -16 99 -16q79 0 119 40q45 45 82 170l16 44l-387 1064h186l212 -615q36 -104 74 -246q30 128 71 242l218 619h173l-453 -1252q-38 -103 -97 -163q-77 -78 -183 -78q-49 0 -111 22z" />
    <glyph glyph-name="z" unicode="z" horiz-adv-x="1024" 
d="M38 0v146l649 776q-55 0 -108 -2.5t-87 -3.5h-415v146h833v-119l-552 -674l-106 -123q47 0 84 2q128 7 133 7h472v-155h-903z" />
    <glyph glyph-name="braceleft" unicode="{" horiz-adv-x="697" 
d="M55 612q109 0 153.5 82t44.5 304q0 162 7 223q15 127 65 190q64 80 193 80h93v-157h-30q-101 0 -131 -34q-34 -39 -34 -171q0 -266 -11 -331q-17 -105 -57.5 -163t-132.5 -105q105 -45 153 -141t48 -309q0 -248 23.5 -301t141.5 -53h30v-157h-54q-148 0 -219 68
q-59 57 -76 175q-9 64 -9 237q0 230 -41 315t-157 85v163z" />
    <glyph glyph-name="bar" unicode="|" horiz-adv-x="551" 
d="M180 -431v1922h151v-1922h-151z" />
    <glyph glyph-name="braceright" unicode="}" horiz-adv-x="697" 
d="M601 449q-110 0 -153 -79q-46 -84 -46 -307q0 -170 -6 -223q-14 -125 -66 -190q-64 -80 -193 -80h-92v157h30q101 0 131 34q34 39 34 171q0 266 11 331q17 105 57.5 163t132.5 105q-105 45 -153 139.5t-48 310.5q0 246 -24 300t-141 54h-30v157h54q148 0 219 -68
q59 -56 75 -175q9 -65 9 -237q0 -228 41.5 -314t157.5 -86v-163z" />
    <glyph glyph-name="asciitilde" unicode="~" horiz-adv-x="1188" 
d="M84 557v205q101 120 266 120q76 0 171 -34l161.5 -66.5t135.5 -33.5q60 0 126.5 38t121.5 99v-212q-59 -59 -122.5 -86.5t-143.5 -27.5q-72 0 -154 33l-164.5 67t-147.5 34q-62 0 -115 -27.5t-135 -108.5z" />
    <glyph glyph-name="c144" horiz-adv-x="40" 
d="M-192 1580h-1017v84h1017v-84z" />
    <glyph glyph-name="quoteleft" unicode="&#x2018;" horiz-adv-x="40" 
d="M-1184 1551v155q102 120 267 120q76 0 171 -34l162 -66.5t135 -33.5q60 0 125.5 37.5t121.5 99.5v-162q-59 -59 -122 -86.5t-144 -27.5q-72 0 -153.5 33l-164 67t-147.5 34q-63 0 -115.5 -27t-135.5 -109z" />
    <glyph glyph-name="quotedblleft" unicode="&#x201c;" horiz-adv-x="1592" 
d="M1450 0h-186v363q0 133 -85 228q-91 102 -237 102h-31q48 -62 78.5 -142.5t30.5 -165.5v-385h-186v363q0 133 -85 228q-91 102 -237 102h-403v173h393q116 0 183 44q79 52 79 162q0 102 -66 161.5t-166 59.5h-423v173h857q177 0 296 -101q130 -110 130 -293
q0 -94 -53 -169t-132 -106q86 -26 161 -143q82 -127 82 -269v-385zM1194 1072q0 102 -65.5 161.5t-166.5 59.5h-65q32 -46 48.5 -100.5t16.5 -120.5q0 -59 -22.5 -112.5t-61.5 -93.5h54q116 0 183 44q79 52 79 162z" />
    <glyph glyph-name="quotedblright" unicode="&#x201d;" horiz-adv-x="2911" 
d="M1859 1466v-912q0 -184 114 -300q106 -108 252 -108q155 0 258 106q110 113 110 302v167h185v-180q0 -238 -167 -404q-163 -162 -386 -162q-208 0 -374 157q-179 169 -179 409v752h-436v-748q0 -233 -164.5 -401.5t-387.5 -168.5q-221 0 -381 156q-173 169 -173 434v901
h185v-907q0 -196 116 -310q104 -102 253 -102q144 0 251 108q114 115 114 284v927h810z" />
    <glyph glyph-name="bullet" unicode="&#x2022;" horiz-adv-x="2284" 
d="M955 1311v-1311h-153v156q-119 -180 -324 -180q-154 0 -244 84q-104 97 -104 294v708h171v-649q0 -141 51 -211.5t161 -70.5q106 0 178 64q92 82 92 248v1023h679v-1053q0 -140 51 -211t160 -71q106 0 178 64q93 83 93 248v619h172v-1062h-154v156q-117 -180 -323 -180
q-155 0 -245 84q-104 97 -104 294v957h-335z" />
    <glyph glyph-name="endash" unicode="&#x2013;" horiz-adv-x="2861" 
d="M1194 1293v-1120h252v-173h-438v520q-50 -87 -169 -134q-98 -39 -196 -39q-236 0 -396 173t-160 419v123h187v-146q0 -154 96 -270q105 -127 271 -127q159 0 263 117t104 300v530h804v-912q0 -184 114 -300q106 -108 252 -108q155 0 258 106q110 113 110 302v167h185
v-180q0 -238 -167 -404q-163 -162 -386 -162q-208 0 -374 157q-179 169 -179 409v752h-431z" />
    <glyph glyph-name="emdash" horiz-adv-x="2284" 
d="M955 1311v-1563h171v-155h-343v538q-114 -155 -305 -155q-154 0 -244 84q-104 97 -104 294v708h171v-649q0 -141 51 -211.5t161 -70.5q106 0 178 64q92 82 92 248v1023h675v-1053q0 -141 51 -211.5t160 -70.5q107 0 179 64q92 82 92 248v619h172v-1062h-154v156
q-117 -180 -323 -180q-155 0 -245 84q-104 97 -104 294v957h-331z" />
    <glyph glyph-name="nonbreakingspace" unicode="&#xa0;" horiz-adv-x="586" 
 />
    <glyph glyph-name="exclamdown" unicode="&#xa1;" horiz-adv-x="1861" 
d="M1844 526q0 -187 -124 -326q0 -92 -37 -172t-106.5 -150t-149.5 -107t-171 -37q-140 -126 -330 -126q-187 0 -326 124q-92 0 -172 37t-150 106.5t-107 149.5t-37 171q-126 140 -126 330q0 187 124 326q0 92 37 172t106.5 150t149.5 107t171 37q140 126 330 126
q187 0 326 -124q92 0 172 -37t150 -106.5t107 -149.5t37 -171q126 -140 126 -330zM1593 831q0 150 -106 256q-53 53 -119 80q48 -102 48 -212q0 -154 -89.5 -284t-235.5 -181q65 -26 137 -26q151 0 258 106.5t107 260.5zM1289 949q0 147 -99 254q-105 115 -264 115
q-71 0 -139 -27l11 -4q98 -37 172 -112q145 -146 145 -347q0 -111 -48 -210q55 25 96 59q126 110 126 272zM1718 526q0 71 -27 139l-4 -11q-37 -97 -111 -171q-146 -146 -347 -146q-112 0 -211 48q25 -55 59 -96q110 -126 273 -126q147 0 254 98q114 105 114 265zM988 828
q0 153 -106 259t-258 106q-151 0 -259 -106q-52 -52 -80 -120q102 49 214 49q158 0 285 -91t178 -235q26 65 26 138zM1567 84q-101 -50 -214 -50q-152 0 -280.5 90.5t-182.5 236.5q-26 -65 -26 -137q0 -152 107 -258.5t260 -106.5q150 0 256 106q53 53 80 119zM834 667
q-25 55 -59 96q-110 128 -274 128q-146 0 -253 -99q-114 -108 -114 -266q0 -71 27 -139l4 11q38 98 111 171q146 146 347 146q112 0 211 -48zM1065 -239l-11 4q-97 37 -172 112q-145 146 -145 347q0 111 48 210q-55 -25 -96 -59q-127 -109 -127 -273q0 -146 98 -253
q106 -115 266 -115q70 0 139 27zM761 562q-65 26 -137 26q-152 0 -258.5 -107t-106.5 -260q0 -150 106 -256q53 -53 119 -80q-50 101 -50 214q0 152 89.5 280.5t237.5 182.5z" />
    <glyph glyph-name="cent" unicode="&#xa2;" horiz-adv-x="1341" 
d="M955 155h337v-155h-490v155q-58 -87 -135 -131q-84 -48 -192 -48q-162 0 -252 95q-93 98 -93 285v1110h171v-1071q0 -120 48 -188q54 -76 161 -76q134 0 206 90q67 83 67 223v618h172v-907z" />
    <glyph glyph-name="cent" unicode="&#x587;" horiz-adv-x="1341" 
d="M955 155h337v-155h-490v155q-58 -87 -135 -131q-84 -48 -192 -48q-162 0 -252 95q-93 98 -93 285v1110h171v-1071q0 -120 48 -188q54 -76 161 -76q134 0 206 90q67 83 67 223v618h172v-907z" />
    <glyph glyph-name="sterling" unicode="&#xa3;" horiz-adv-x="635" 
d="M178 857v205h196v-205h-196zM178 0v205h196v-205h-196z" />
    <glyph glyph-name="sterling" unicode="&#x589;" horiz-adv-x="635" 
d="M178 857v205h196v-205h-196zM178 0v205h196v-205h-196z" />
    <glyph glyph-name="currency" unicode="&#xa4;" horiz-adv-x="631" 
d="M482 532q0 -234 -77 -452q-82 -233 -264 -487h-135q159 296 217 505q54 193 54 434q0 172 -16 287q-21 147 -74 291q-58 156 -172 356h141q182 -268 254 -472t72 -462z" />
    <glyph glyph-name="yen" unicode="&#xa5;" horiz-adv-x="631" 
d="M612 -393h-136q-180 252 -263 487q-78 222 -78 452q0 257 72 461t254 473h141q-110 -194 -170 -355q-54 -146 -75 -291q-17 -120 -17 -288q0 -242 54 -434q58 -206 218 -505z" />
    <glyph glyph-name="brokenbar" unicode="&#xa6;" horiz-adv-x="1133" 
d="M759 528l-250 456h142l306 -456l-306 -456h-141zM388 528l-254 456h145l302 -456l-302 -456h-145z" />
    <glyph glyph-name="section" unicode="&#xa7;" horiz-adv-x="1133" 
d="M326 528l249 -456h-140l-306 456l306 456h142zM698 528l253 -456h-146l-300 456l300 456h146z" />
    <glyph glyph-name="dieresis" unicode="&#xa8;" horiz-adv-x="1061" 
d="M91 440v181h836v-181h-836z" />
    <glyph glyph-name="dieresis" unicode="&#x2014;" horiz-adv-x="1061" 
d="M91 440v181h836v-181h-836z" />
    <glyph glyph-name="copyright" unicode="&#xa9;" horiz-adv-x="635" 
d="M179 0v205h196v-205h-196z" />
    <glyph glyph-name="ordfeminine" unicode="&#xaa;" horiz-adv-x="558" 
d="M510 1060l-148 -56l-270 450l182 52z" />
    <glyph glyph-name="ordfeminine" unicode="&#x55d;" horiz-adv-x="558" 
d="M510 1060l-148 -56l-270 450l182 52z" />
    <glyph glyph-name="guillemotleft" unicode="&#xab;" horiz-adv-x="635" 
d="M175 0v205h197v-205q0 -100 -37 -172q-41 -80 -124 -118l-48 77q56 25 83 73.5t27 139.5h-98z" />
    <glyph glyph-name="logicalnot" unicode="&#xac;" horiz-adv-x="695" 
d="M82 440v181h492v-181h-492z" />
    <glyph glyph-name="minus" unicode="&#xad;" horiz-adv-x="744" 
d="M685 444q-72 -39 -154.5 -56.5t-179.5 -17.5q-81 0 -176 41q-84 37 -137 85l98 190q18 -37 104 -84q97 -53 180 -53q75 0 133 10t102 33z" />
    <glyph glyph-name="minus" unicode="&#x2010;" horiz-adv-x="744" 
d="M685 444q-72 -39 -154.5 -56.5t-179.5 -17.5q-81 0 -176 41q-84 37 -137 85l98 190q18 -37 104 -84q97 -53 180 -53q75 0 133 10t102 33z" />
    <glyph glyph-name="registered" unicode="&#xae;" horiz-adv-x="2006" 
d="M229 0v205h197v-205h-197zM885 0v205h197v-205h-197zM1540 0v205h198v-205h-198z" />
    <glyph glyph-name="registered" unicode="&#x2026;" horiz-adv-x="2006" 
d="M229 0v205h197v-205h-197zM885 0v205h197v-205h-197zM1540 0v205h198v-205h-198z" />
    <glyph glyph-name="macron" unicode="&#xaf;" horiz-adv-x="518" 
d="M479 1377q0 -91 -76 -152q-35 -28 -156 -87q-98 -48 -124 -91q-5 -7 -7 -21.5t-2 -27.5q0 -24 0.5 -30t2.5 -10l-108 -25q-5 20 -7 33q-7 40 -7 73q0 24 2.5 40t9.5 33q28 66 102 114q26 17 134 68q78 37 106 71q13 16 18.5 33.5t5.5 34.5q0 19 -1.5 26t-4.5 11l102 18
q4 -22 5 -36q5 -42 5 -75z" />
    <glyph glyph-name="macron" unicode="&#x55c;" horiz-adv-x="518" 
d="M479 1377q0 -91 -76 -152q-35 -28 -156 -87q-98 -48 -124 -91q-5 -7 -7 -21.5t-2 -27.5q0 -24 0.5 -30t2.5 -10l-108 -25q-5 20 -7 33q-7 40 -7 73q0 24 2.5 40t9.5 33q28 66 102 114q26 17 134 68q78 37 106 71q13 16 18.5 33.5t5.5 34.5q0 19 -1.5 26t-4.5 11l102 18
q4 -22 5 -36q5 -42 5 -75z" />
    <glyph glyph-name="degree" unicode="&#xb0;" horiz-adv-x="397" 
d="M376 1464l-237 -402l-142 45l190 387z" />
    <glyph glyph-name="degree" unicode="&#x55b;" horiz-adv-x="397" 
d="M376 1464l-237 -402l-142 45l190 387z" />
    <glyph glyph-name="plusminus" unicode="&#xb1;" horiz-adv-x="581" 
d="M544 1290q0 -115 -75 -177q-61 -51 -145 -51v122q43 0 67.5 19t24.5 63q0 34 -24 58q-31 31 -93 31q-60 0 -108 -41q-55 -47 -55 -122q0 -60 20 -108q15 -36 50 -80l-103 -72q-40 46 -64 101q-32 72 -32 149q0 134 94 221q87 80 204 80q121 0 188 -74q51 -57 51 -119z
" />
    <glyph glyph-name="plusminus" unicode="&#x55e;" horiz-adv-x="581" 
d="M544 1290q0 -115 -75 -177q-61 -51 -145 -51v122q43 0 67.5 19t24.5 63q0 34 -24 58q-31 31 -93 31q-60 0 -108 -41q-55 -47 -55 -122q0 -60 20 -108q15 -36 50 -80l-103 -72q-40 46 -64 101q-32 72 -32 149q0 134 94 221q87 80 204 80q121 0 188 -74q51 -57 51 -119z
" />
    <glyph glyph-name="twosuperior" unicode="&#xb2;" horiz-adv-x="1448" 
d="M1009 362q40 82 40 179v925h187v-919q0 -80 -20.5 -153.5t-60.5 -140.5q56 -40 99 -65q53 -30 108 -50l-66 -171q-65 19 -135 61q-56 33 -122 84q-74 -65 -165.5 -101t-189.5 -36q-220 0 -382 157q-172 166 -172 415v919h185v-925q0 -172 110 -285q106 -109 259 -109
q116 0 210 72q-52 36 -92 56q-49 24 -101 35l57 177q66 -13 132 -48q51 -27 119 -77z" />
    <glyph glyph-name="twosuperior" unicode="&#x531;" horiz-adv-x="1448" 
d="M1009 362q40 82 40 179v925h187v-919q0 -80 -20.5 -153.5t-60.5 -140.5q56 -40 99 -65q53 -30 108 -50l-66 -171q-65 19 -135 61q-56 33 -122 84q-74 -65 -165.5 -101t-189.5 -36q-220 0 -382 157q-172 166 -172 415v919h185v-925q0 -172 110 -285q106 -109 259 -109
q116 0 210 72q-52 36 -92 56q-49 24 -101 35l57 177q66 -13 132 -48q51 -27 119 -77z" />
    <glyph glyph-name="threesuperior" unicode="&#xb3;" horiz-adv-x="1756" 
d="M1511 1062v-1062h-155v149q-49 -80 -128.5 -126.5t-180.5 -46.5q-111 0 -182.5 46.5t-105.5 139.5q-120 -186 -315 -186q-155 0 -233 86q-81 89 -81 271v729h171v-699q0 -119 49 -177q46 -54 133 -54q112 0 177 73q72 81 72 240v617h173v-690q0 -123 42 -181.5t139 -58.5
q107 0 175 76q77 87 77 253v601h173z" />
    <glyph glyph-name="threesuperior" unicode="&#x561;" horiz-adv-x="1756" 
d="M1511 1062v-1062h-155v149q-49 -80 -128.5 -126.5t-180.5 -46.5q-111 0 -182.5 46.5t-105.5 139.5q-120 -186 -315 -186q-155 0 -233 86q-81 89 -81 271v729h171v-699q0 -119 49 -177q46 -54 133 -54q112 0 177 73q72 81 72 240v617h173v-690q0 -123 42 -181.5t139 -58.5
q107 0 175 76q77 87 77 253v601h173z" />
    <glyph glyph-name="acute" unicode="&#xb4;" horiz-adv-x="1405" 
d="M1291 352h-976v-352h-185v895q0 257 159.5 426.5t390.5 169.5q236 0 396 -173t160 -419v-123h-187v146q0 154 -96 270q-105 127 -271 127q-159 0 -263 -117.5t-104 -299.5v-377h976v-173z" />
    <glyph glyph-name="acute" unicode="&#x532;" horiz-adv-x="1405" 
d="M1291 352h-976v-352h-185v895q0 257 159.5 426.5t390.5 169.5q236 0 396 -173t160 -419v-123h-187v146q0 154 -96 270q-105 127 -271 127q-159 0 -263 -117.5t-104 -299.5v-377h976v-173z" />
    <glyph glyph-name="mu" unicode="&#xb5;" 
d="M1049 0h-748v-407h-171v1469h153v-154q57 83 128 126q85 52 196 52q162 0 253 -92q95 -96 95 -279v-393h-172v336q0 138 -54 205.5t-155 67.5q-121 0 -195 -79q-78 -83 -78 -231v-466h748v-155z" />
    <glyph glyph-name="mu" unicode="&#x562;" 
d="M1049 0h-748v-407h-171v1469h153v-154q57 83 128 126q85 52 196 52q162 0 253 -92q95 -96 95 -279v-393h-172v336q0 138 -54 205.5t-155 67.5q-121 0 -195 -79q-78 -83 -78 -231v-466h748v-155z" />
    <glyph glyph-name="paragraph" unicode="&#xb6;" horiz-adv-x="1476" 
d="M1452 352h-238v-352h-186v352h-368q-252 0 -402 154t-150 420q0 224 159 392q164 173 393 173q231 0 399 -178q155 -164 155 -358v-430h238v-173zM1028 525v407q0 141 -97 257q-109 130 -271 130q-148 0 -254 -107q-112 -113 -112 -286q0 -184 102.5 -292.5t280.5 -108.5
h351z" />
    <glyph glyph-name="paragraph" unicode="&#x533;" horiz-adv-x="1476" 
d="M1452 352h-238v-352h-186v352h-368q-252 0 -402 154t-150 420q0 224 159 392q164 173 393 173q231 0 399 -178q155 -164 155 -358v-430h238v-173zM1028 525v407q0 141 -97 257q-109 130 -271 130q-148 0 -254 -107q-112 -113 -112 -286q0 -184 102.5 -292.5t280.5 -108.5
h351z" />
    <glyph glyph-name="periodcentered" unicode="&#xb7;" horiz-adv-x="1280" 
d="M1151 0h-196v-407h-175v519q-46 -63 -116.5 -99.5t-151.5 -36.5q-177 0 -301 140q-142 160 -142 442q0 231 113 376q118 152 319 152q98 0 176 -47q71 -43 120 -121v144h158v-907h196v-155zM797 516q0 181 -63 290q-46 80 -125 116q-48 22 -87 22q-139 0 -210 -117
q-64 -106 -64 -289q0 -177 65 -288q74 -126 215 -126q114 0 188 97q81 107 81 295z" />
    <glyph glyph-name="periodcentered" unicode="&#x2219;" horiz-adv-x="1280" 
d="M1151 0h-196v-407h-175v519q-46 -63 -116.5 -99.5t-151.5 -36.5q-177 0 -301 140q-142 160 -142 442q0 231 113 376q118 152 319 152q98 0 176 -47q71 -43 120 -121v144h158v-907h196v-155zM797 516q0 181 -63 290q-46 80 -125 116q-48 22 -87 22q-139 0 -210 -117
q-64 -106 -64 -289q0 -177 65 -288q74 -126 215 -126q114 0 188 97q81 107 81 295z" />
    <glyph glyph-name="periodcentered" unicode="&#x563;" horiz-adv-x="1280" 
d="M1151 0h-196v-407h-175v519q-46 -63 -116.5 -99.5t-151.5 -36.5q-177 0 -301 140q-142 160 -142 442q0 231 113 376q118 152 319 152q98 0 176 -47q71 -43 120 -121v144h158v-907h196v-155zM797 516q0 181 -63 290q-46 80 -125 116q-48 22 -87 22q-139 0 -210 -117
q-64 -106 -64 -289q0 -177 65 -288q74 -126 215 -126q114 0 188 97q81 107 81 295z" />
    <glyph glyph-name="cedilla" unicode="&#xb8;" horiz-adv-x="1465" 
d="M1438 352h-246v-352h-186v912q0 183 -115 300q-106 108 -252 108q-154 0 -257 -106q-110 -114 -110 -302v-136h-186v149q0 238 167 404q163 162 386 162q208 0 374 -157q179 -169 179 -409v-400h246v-173z" />
    <glyph glyph-name="cedilla" unicode="&#x534;" horiz-adv-x="1465" 
d="M1438 352h-246v-352h-186v912q0 183 -115 300q-106 108 -252 108q-154 0 -257 -106q-110 -114 -110 -302v-136h-186v149q0 238 167 404q163 162 386 162q208 0 374 -157q179 -169 179 -409v-400h246v-173z" />
    <glyph glyph-name="onesuperior" unicode="&#xb9;" horiz-adv-x="1190" 
d="M1150 0h-193v-407h-174v1065q0 133 -50 201q-53 72 -159 72q-112 0 -183 -66q-90 -83 -90 -254v-611h-171v1062h153v-156q55 84 127 128q84 52 197 52q167 0 259 -100q89 -97 89 -266v-553h195v-167z" />
    <glyph glyph-name="onesuperior" unicode="&#x564;" horiz-adv-x="1190" 
d="M1150 0h-193v-407h-174v1065q0 133 -50 201q-53 72 -159 72q-112 0 -183 -66q-90 -83 -90 -254v-611h-171v1062h153v-156q55 84 127 128q84 52 197 52q167 0 259 -100q89 -97 89 -266v-553h195v-167z" />
    <glyph glyph-name="ordmasculine" unicode="&#xba;" horiz-adv-x="1405" 
d="M1301 945h-986v-406q0 -165 104.5 -278.5t264.5 -113.5q145 0 252 109q113 115 113 283v155h187v-143q0 -247 -173 -416q-164 -160 -379 -160q-224 0 -386 162q-168 168 -168 418v911h185v-347h986v-174z" />
    <glyph glyph-name="ordmasculine" unicode="&#x535;" horiz-adv-x="1405" 
d="M1301 945h-986v-406q0 -165 104.5 -278.5t264.5 -113.5q145 0 252 109q113 115 113 283v155h187v-143q0 -247 -173 -416q-164 -160 -379 -160q-224 0 -386 162q-168 168 -168 418v911h185v-347h986v-174z" />
    <glyph glyph-name="guillemotright" unicode="&#xbb;" 
d="M1044 903h-743v-508q0 -120 48 -188q54 -76 161 -76q134 0 206 90q67 83 67 223v177h172v-621h-153v155q-58 -87 -135 -131q-84 -48 -192 -48q-162 0 -252 95q-93 98 -93 285v1110h171v-404h743v-159z" />
    <glyph glyph-name="guillemotright" unicode="&#x565;" 
d="M1044 903h-743v-508q0 -120 48 -188q54 -76 161 -76q134 0 206 90q67 83 67 223v177h172v-621h-153v155q-58 -87 -135 -131q-84 -48 -192 -48q-162 0 -252 95q-93 98 -93 285v1110h171v-404h743v-159z" />
    <glyph glyph-name="onequarter" unicode="&#xbc;" horiz-adv-x="1437" 
d="M1108 925q0 167 -115.5 280.5t-273.5 113.5q-159 0 -271.5 -116.5t-112.5 -290.5l-2 -48q-59 -15 -88 -21q-88 -20 -89 -15q-6 44 -6 89q0 233 168.5 403.5t400.5 170.5t403.5 -167.5t171.5 -394.5q0 -253 -145 -480q-134 -211 -306 -276h451v-173h-1144v303h185v-137
q308 0 535 211q238 221 238 548z" />
    <glyph glyph-name="onequarter" unicode="&#x536;" horiz-adv-x="1437" 
d="M1108 925q0 167 -115.5 280.5t-273.5 113.5q-159 0 -271.5 -116.5t-112.5 -290.5l-2 -48q-59 -15 -88 -21q-88 -20 -89 -15q-6 44 -6 89q0 233 168.5 403.5t400.5 170.5t403.5 -167.5t171.5 -394.5q0 -253 -145 -480q-134 -211 -306 -276h451v-173h-1144v303h185v-137
q308 0 535 211q238 221 238 548z" />
    <glyph glyph-name="onehalf" unicode="&#xbd;" horiz-adv-x="1280" 
d="M247 534q0 -195 81 -306q76 -104 199 -104q116 0 189 96q81 106 81 298q0 202 -83 318q-77 108 -198 108q-119 0 -190 -98q-79 -109 -79 -312zM782 -407v520q-40 -59 -114 -98t-155 -39q-187 0 -312 149q-132 158 -132 416q0 235 122 390t308 155q192 0 301 -166v142h155
v-1314h194v-155h-367z" />
    <glyph glyph-name="onehalf" unicode="&#x566;" horiz-adv-x="1280" 
d="M247 534q0 -195 81 -306q76 -104 199 -104q116 0 189 96q81 106 81 298q0 202 -83 318q-77 108 -198 108q-119 0 -190 -98q-79 -109 -79 -312zM782 -407v520q-40 -59 -114 -98t-155 -39q-187 0 -312 149q-132 158 -132 416q0 235 122 390t308 155q192 0 301 -166v142h155
v-1314h194v-155h-367z" />
    <glyph glyph-name="threequarters" unicode="&#xbe;" horiz-adv-x="1217" 
d="M130 -1v1467h185v-347h801v-174h-801v-771h697v-174z" />
    <glyph glyph-name="threequarters" unicode="&#x537;" horiz-adv-x="1217" 
d="M130 -1v1467h185v-347h801v-174h-801v-771h697v-174z" />
    <glyph glyph-name="questiondown" unicode="&#xbf;" horiz-adv-x="957" 
d="M905 907h-590v-752h467v-155h-652v1466h185v-404h590v-155z" />
    <glyph glyph-name="questiondown" unicode="&#x567;" horiz-adv-x="957" 
d="M905 907h-590v-752h467v-155h-652v1466h185v-404h590v-155z" />
    <glyph glyph-name="Agrave" unicode="&#xc0;" horiz-adv-x="1405" 
d="M1291 0h-1161v895q0 257 159.5 426.5t390.5 169.5q236 0 396 -173t160 -419v-123h-187v146q0 154 -96 270q-105 127 -271 127q-159 0 -263 -117.5t-104 -299.5v-729h976v-173z" />
    <glyph glyph-name="Agrave" unicode="&#x538;" horiz-adv-x="1405" 
d="M1291 0h-1161v895q0 257 159.5 426.5t390.5 169.5q236 0 396 -173t160 -419v-123h-187v146q0 154 -96 270q-105 127 -271 127q-159 0 -263 -117.5t-104 -299.5v-729h976v-173z" />
    <glyph glyph-name="Aacute" unicode="&#xc1;" 
d="M1049 -407h-919v1469h153v-156q119 180 324 180q154 0 244 -84q104 -97 104 -294v-708h-172v649q0 140 -51 211t-160 71q-106 0 -178 -64q-93 -83 -93 -248v-871h748v-155z" />
    <glyph glyph-name="Aacute" unicode="&#x568;" 
d="M1049 -407h-919v1469h153v-156q119 180 324 180q154 0 244 -84q104 -97 104 -294v-708h-172v649q0 140 -51 211t-160 71q-106 0 -178 -64q-93 -83 -93 -248v-871h748v-155z" />
    <glyph glyph-name="Acircumflex" unicode="&#xc2;" horiz-adv-x="1654" 
d="M1644 693h-224v-303q0 -178 -114.5 -297.5t-296.5 -119.5q-161 0 -284 101q-151 124 -151 344q0 196 118 322t299 126h245v34q0 176 -130 296q-133 123 -331 123q-199 0 -329.5 -129.5t-130.5 -317.5v-872h-185v895q0 243 176 415q185 181 472 181q270 0 460 -177
q182 -170 182 -389v-59h224v-173zM1235 396v297h-225q-106 0 -173 -66q-78 -76 -78 -220q0 -119 75 -192q71 -69 179 -69q88 0 150 60q72 69 72 190z" />
    <glyph glyph-name="Acircumflex" unicode="&#x539;" horiz-adv-x="1654" 
d="M1644 693h-224v-303q0 -178 -114.5 -297.5t-296.5 -119.5q-161 0 -284 101q-151 124 -151 344q0 196 118 322t299 126h245v34q0 176 -130 296q-133 123 -331 123q-199 0 -329.5 -129.5t-130.5 -317.5v-872h-185v895q0 243 176 415q185 181 472 181q270 0 460 -177
q182 -170 182 -389v-59h224v-173zM1235 396v297h-225q-106 0 -173 -66q-78 -76 -78 -220q0 -119 75 -192q71 -69 179 -69q88 0 150 60q72 69 72 190z" />
    <glyph glyph-name="Atilde" unicode="&#xc3;" horiz-adv-x="1383" 
d="M1331 501h-155v-183q0 -136 -91 -236q-96 -106 -243 -106q-156 0 -256 99q-96 95 -96 234q0 154 98.5 250.5t251.5 96.5h164q0 8 -2 25.5t-4 25.5q-18 98 -96 160q-83 65 -205 65q-151 0 -273.5 -110.5t-122.5 -249.5v-979h-171v1469h153v-173q82 101 202 151
q110 46 243 46q171 0 293 -88t146 -235q5 -27 8.5 -51t3.5 -56h152v-155zM1004 501h-156q-86 0 -134 -51t-48 -141q0 -70 42 -119q50 -58 139 -58q67 0 112 53t45 139v177z" />
    <glyph glyph-name="Atilde" unicode="&#x569;" horiz-adv-x="1383" 
d="M1331 501h-155v-183q0 -136 -91 -236q-96 -106 -243 -106q-156 0 -256 99q-96 95 -96 234q0 154 98.5 250.5t251.5 96.5h164q0 8 -2 25.5t-4 25.5q-18 98 -96 160q-83 65 -205 65q-151 0 -273.5 -110.5t-122.5 -249.5v-979h-171v1469h153v-173q82 101 202 151
q110 46 243 46q171 0 293 -88t146 -235q5 -27 8.5 -51t3.5 -56h152v-155zM1004 501h-156q-86 0 -134 -51t-48 -141q0 -70 42 -119q50 -58 139 -58q67 0 112 53t45 139v177z" />
    <glyph glyph-name="Adieresis" unicode="&#xc4;" horiz-adv-x="1475" 
d="M1452 945h-238v-433q0 -193 -155 -358q-167 -178 -399 -178q-230 0 -393 172q-159 168 -159 393q0 265 150.5 421.5t401.5 156.5h368v348h186v-348h238v-174zM1028 535v410h-351q-177 0 -280 -110t-103 -294q0 -172 111 -285q106 -108 255 -108q162 0 270 129
q98 117 98 258z" />
    <glyph glyph-name="Adieresis" unicode="&#x53a;" horiz-adv-x="1475" 
d="M1452 945h-238v-433q0 -193 -155 -358q-167 -178 -399 -178q-230 0 -393 172q-159 168 -159 393q0 265 150.5 421.5t401.5 156.5h368v348h186v-348h238v-174zM1028 535v410h-351q-177 0 -280 -110t-103 -294q0 -172 111 -285q106 -108 255 -108q162 0 270 129
q98 117 98 258z" />
    <glyph glyph-name="Aring" unicode="&#xc5;" horiz-adv-x="1212" 
d="M1182 907h-174v-388q0 -238 -133.5 -390.5t-336.5 -152.5q-197 0 -329.5 163.5t-132.5 407.5q0 220 124 364q130 151 341 151h295v404h172v-404h174v-155zM836 523v384h-292q-148 0 -221.5 -95t-73.5 -266q0 -166 77 -285q84 -130 216 -130q134 0 217 119q77 111 77 273z
" />
    <glyph glyph-name="Aring" unicode="&#x56a;" horiz-adv-x="1212" 
d="M1182 907h-174v-388q0 -238 -133.5 -390.5t-336.5 -152.5q-197 0 -329.5 163.5t-132.5 407.5q0 220 124 364q130 151 341 151h295v404h172v-404h174v-155zM836 523v384h-292q-148 0 -221.5 -95t-73.5 -266q0 -166 77 -285q84 -130 216 -130q134 0 217 119q77 111 77 273z
" />
    <glyph glyph-name="AE" unicode="&#xc6;" horiz-adv-x="1351" 
d="M315 0h-185v1466h185v-544q50 87 169 134q98 39 196 39q236 0 396 -173t160 -419v-123h-187v146q0 154 -96 270q-105 127 -271 127q-159 0 -263 -117.5t-104 -299.5v-506z" />
    <glyph glyph-name="AE" unicode="&#x53b;" horiz-adv-x="1351" 
d="M315 0h-185v1466h185v-544q50 87 169 134q98 39 196 39q236 0 396 -173t160 -419v-123h-187v146q0 154 -96 270q-105 127 -271 127q-159 0 -263 -117.5t-104 -299.5v-506z" />
    <glyph glyph-name="Ccedilla" unicode="&#xc7;" 
d="M301 1466v-533q116 153 306 153q154 0 244 -84q104 -97 104 -294v-708h-172v649q0 140 -51 211t-160 71q-106 0 -178 -64q-93 -83 -93 -248v-1026h-171v1873h171z" />
    <glyph glyph-name="Ccedilla" unicode="&#x56b;" 
d="M301 1466v-533q116 153 306 153q154 0 244 -84q104 -97 104 -294v-708h-172v649q0 140 -51 211t-160 71q-106 0 -178 -64q-93 -83 -93 -248v-1026h-171v1873h171z" />
    <glyph glyph-name="Egrave" unicode="&#xc8;" horiz-adv-x="1133" 
d="M144 0v1466h186v-1293h693v-173h-879z" />
    <glyph glyph-name="Egrave" unicode="&#x53c;" horiz-adv-x="1133" 
d="M144 0v1466h186v-1293h693v-173h-879z" />
    <glyph glyph-name="Eacute" unicode="&#xc9;" horiz-adv-x="653" 
d="M576 -407h-446v1469h171v-1314h275v-155z" />
    <glyph glyph-name="Eacute" unicode="&#x56c;" horiz-adv-x="653" 
d="M576 -407h-446v1469h171v-1314h275v-155z" />
    <glyph glyph-name="Ecircumflex" unicode="&#xca;" horiz-adv-x="1660" 
d="M1492 484q0 -203 -93 -341q-114 -169 -336 -169q-221 0 -343 153q-111 139 -111 357v208h-294v-692h-185v1466h185v-601h479v-366q0 -175 66 -263.5t206 -88.5q120 0 182 99q59 93 59 258v361h185v-381z" />
    <glyph glyph-name="Ecircumflex" unicode="&#x53d;" horiz-adv-x="1660" 
d="M1492 484q0 -203 -93 -341q-114 -169 -336 -169q-221 0 -343 153q-111 139 -111 357v208h-294v-692h-185v1466h185v-601h479v-366q0 -175 66 -263.5t206 -88.5q120 0 182 99q59 93 59 258v361h185v-381z" />
    <glyph glyph-name="Edieresis" unicode="&#xcb;" horiz-adv-x="1756" 
d="M1511 0h-155v149q-46 -76 -123 -122q-86 -51 -189 -51q-179 0 -256 127q-58 96 -58 261l5 349q0 102 -40 158q-43 60 -123 60q-118 0 -192 -80q-79 -85 -79 -234v-1024h-171v1873h171v-535q64 87 158 126q69 29 141 29q128 0 214 -87q94 -95 94 -259l-6 -319
q0 -137 23 -193q39 -96 159 -96q127 0 195 102q59 89 59 225v603h173v-1062z" />
    <glyph glyph-name="Edieresis" unicode="&#x56d;" horiz-adv-x="1756" 
d="M1511 0h-155v149q-46 -76 -123 -122q-86 -51 -189 -51q-179 0 -256 127q-58 96 -58 261l5 349q0 102 -40 158q-43 60 -123 60q-118 0 -192 -80q-79 -85 -79 -234v-1024h-171v1873h171v-535q64 87 158 126q69 29 141 29q128 0 214 -87q94 -95 94 -259l-6 -319
q0 -137 23 -193q39 -96 159 -96q127 0 195 102q59 89 59 225v603h173v-1062z" />
    <glyph glyph-name="Igrave" unicode="&#xcc;" horiz-adv-x="1573" 
d="M619 1138q-123 -95 -192 -229q-73 -142 -73 -306q0 -176 111 -307q125 -148 330 -148q191 0 314 141q113 130 113 303q0 261 -195 413q-171 133 -408 133zM793 1266q78 0 162.5 -26t152.5 -68q138 -87 216 -231q84 -155 84 -347q0 -258 -155 -431q-170 -189 -460 -189
q-287 0 -462 193q-162 179 -162 438q0 164 59.5 311.5t167.5 240.5q-47 0 -139.5 1t-126.5 1v307h185v-134q86 0 132.5 -2t121.5 -12q117 85 257 130.5t290 45.5q86 0 174.5 -18.5t175.5 -53.5l-59 -186q-85 34 -163.5 53t-151.5 19q-38 0 -64.5 -3t-87 -11.5t-73.5 -10.5
q-42 -7 -74 -17z" />
    <glyph glyph-name="Igrave" unicode="&#x53e;" horiz-adv-x="1573" 
d="M619 1138q-123 -95 -192 -229q-73 -142 -73 -306q0 -176 111 -307q125 -148 330 -148q191 0 314 141q113 130 113 303q0 261 -195 413q-171 133 -408 133zM793 1266q78 0 162.5 -26t152.5 -68q138 -87 216 -231q84 -155 84 -347q0 -258 -155 -431q-170 -189 -460 -189
q-287 0 -462 193q-162 179 -162 438q0 164 59.5 311.5t167.5 240.5q-47 0 -139.5 1t-126.5 1v307h185v-134q86 0 132.5 -2t121.5 -12q117 85 257 130.5t290 45.5q86 0 174.5 -18.5t175.5 -53.5l-59 -186q-85 34 -163.5 53t-151.5 19q-38 0 -64.5 -3t-87 -11.5t-73.5 -10.5
q-42 -7 -74 -17z" />
    <glyph glyph-name="Iacute" unicode="&#xcd;" 
d="M1101 907h-208q63 -59 101 -158t38 -208q0 -231 -136 -396q-139 -169 -341 -169q-206 0 -342 161t-136 400q0 213 122 363t285 150l-235 163l220 317l121 -90l-124 -182l283 -196h352v-155zM853 539q0 93 -43 187q-51 113 -152 186l-89 -1q-140 0 -227.5 -104.5
t-87.5 -272.5t84.5 -285t216.5 -117q134 0 219 125q79 116 79 282z" />
    <glyph glyph-name="Iacute" unicode="&#x56e;" 
d="M1101 907h-208q63 -59 101 -158t38 -208q0 -231 -136 -396q-139 -169 -341 -169q-206 0 -342 161t-136 400q0 213 122 363t285 150l-235 163l220 317l121 -90l-124 -182l283 -196h352v-155zM853 539q0 93 -43 187q-51 113 -152 186l-89 -1q-140 0 -227.5 -104.5
t-87.5 -272.5t84.5 -285t216.5 -117q134 0 219 125q79 116 79 282z" />
    <glyph glyph-name="Icircumflex" unicode="&#xce;" horiz-adv-x="1405" 
d="M1049 1062h186v-1062h-186v520q-50 -87 -169 -134q-98 -39 -196 -39q-235 0 -395 173t-160 419v527h186v-550q0 -154 96 -270q105 -127 272 -127q159 0 262.5 117.5t103.5 299.5v126z" />
    <glyph glyph-name="Icircumflex" unicode="&#x53f;" horiz-adv-x="1405" 
d="M1049 1062h186v-1062h-186v520q-50 -87 -169 -134q-98 -39 -196 -39q-235 0 -395 173t-160 419v527h186v-550q0 -154 96 -270q105 -127 272 -127q159 0 262.5 117.5t103.5 299.5v126z" />
    <glyph glyph-name="Idieresis" unicode="&#xcf;" 
d="M783 -407v538q-114 -155 -305 -155q-154 0 -244 84q-104 97 -104 294v1112h171v-1053q0 -141 51 -211.5t161 -70.5q106 0 178 64q92 82 92 248v619h172v-1469h-172z" />
    <glyph glyph-name="Idieresis" unicode="&#x56f;" 
d="M783 -407v538q-114 -155 -305 -155q-154 0 -244 84q-104 97 -104 294v1112h171v-1053q0 -141 51 -211.5t161 -70.5q106 0 178 64q92 82 92 248v619h172v-1469h-172z" />
    <glyph glyph-name="Eth" unicode="&#xd0;" horiz-adv-x="1174" 
d="M1020 0h-186v363q0 133 -85 228q-91 102 -237 102h-403v173h393q116 0 183 44q79 52 79 162q0 102 -66 161.5t-166 59.5h-423v173h427q177 0 296 -101q130 -110 130 -293q0 -94 -53 -169t-132 -106q86 -26 161 -143q82 -127 82 -269v-385z" />
    <glyph glyph-name="Eth" unicode="&#x540;" horiz-adv-x="1174" 
d="M1020 0h-186v363q0 133 -85 228q-91 102 -237 102h-403v173h393q116 0 183 44q79 52 79 162q0 102 -66 161.5t-166 59.5h-423v173h427q177 0 296 -101q130 -110 130 -293q0 -94 -53 -169t-132 -106q86 -26 161 -143q82 -127 82 -269v-385z" />
    <glyph glyph-name="Ntilde" unicode="&#xd1;" 
d="M301 1466v-533q116 153 306 153q154 0 244 -84q104 -97 104 -294v-708h-172v649q0 140 -51 211t-160 71q-106 0 -178 -64q-93 -83 -93 -248v-619h-171v1466h171z" />
    <glyph glyph-name="Ntilde" unicode="&#x570;" 
d="M301 1466v-533q116 153 306 153q154 0 244 -84q104 -97 104 -294v-708h-172v649q0 140 -51 211t-160 71q-106 0 -178 -64q-93 -83 -93 -248v-619h-171v1466h171z" />
    <glyph glyph-name="Ograve" unicode="&#xd2;" horiz-adv-x="1437" 
d="M751 279q-76 49 -157 79.5t-144 30.5q-51 0 -97 -28q-58 -35 -58 -91q0 -57 54 -94q45 -31 93 -31q59 0 141 34q90 37 168 100zM883 408q90 106 141 231q57 139 57 284q0 159 -115.5 277.5t-272.5 118.5q-168 0 -279 -124q-106 -119 -106 -283q0 -13 0.5 -26t3.5 -26
l-182 -34q-3 8 -5 38.5t-2 51.5q0 232 168.5 403.5t398.5 171.5q227 0 402 -168t175 -396q0 -171 -69 -336q-62 -149 -177 -283q66 -52 138 -116l97 -86l-120 -146l-135 123q-61 54 -111 94q-110 -94 -235.5 -149t-220.5 -55q-130 0 -227.5 86.5t-97.5 205.5q0 124 103 211
t240 87q97 0 217 -45q110 -42 214 -110z" />
    <glyph glyph-name="Ograve" unicode="&#x541;" horiz-adv-x="1437" 
d="M751 279q-76 49 -157 79.5t-144 30.5q-51 0 -97 -28q-58 -35 -58 -91q0 -57 54 -94q45 -31 93 -31q59 0 141 34q90 37 168 100zM883 408q90 106 141 231q57 139 57 284q0 159 -115.5 277.5t-272.5 118.5q-168 0 -279 -124q-106 -119 -106 -283q0 -13 0.5 -26t3.5 -26
l-182 -34q-3 8 -5 38.5t-2 51.5q0 232 168.5 403.5t398.5 171.5q227 0 402 -168t175 -396q0 -171 -69 -336q-62 -149 -177 -283q66 -52 138 -116l97 -86l-120 -146l-135 123q-61 54 -111 94q-110 -94 -235.5 -149t-220.5 -55q-130 0 -227.5 86.5t-97.5 205.5q0 124 103 211
t240 87q97 0 217 -45q110 -42 214 -110z" />
    <glyph glyph-name="Oacute" unicode="&#xd3;" 
d="M769 430v89q0 116 -74.5 210.5t-189.5 137.5q-57 -59 -101 -116q-64 -83 -99 -160q-45 -99 -45 -187q0 -92 45 -170q60 -103 171 -103q136 0 214.5 81.5t78.5 217.5zM622 958q126 -51 217 -177q101 -140 101 -302v-479h-153v156q-52 -80 -116 -120q-96 -61 -245 -61
q-159 0 -254 127q-84 112 -84 261q0 160 88 323q105 194 323 364l-234 163l220 317l121 -90l-124 -182l269 -196z" />
    <glyph glyph-name="Oacute" unicode="&#x571;" 
d="M769 430v89q0 116 -74.5 210.5t-189.5 137.5q-57 -59 -101 -116q-64 -83 -99 -160q-45 -99 -45 -187q0 -92 45 -170q60 -103 171 -103q136 0 214.5 81.5t78.5 217.5zM622 958q126 -51 217 -177q101 -140 101 -302v-479h-153v156q-52 -80 -116 -120q-96 -61 -245 -61
q-159 0 -254 127q-84 112 -84 261q0 160 88 323q105 194 323 364l-234 163l220 317l121 -90l-124 -182l269 -196z" />
    <glyph glyph-name="Ocircumflex" unicode="&#xd4;" horiz-adv-x="1465" 
d="M1444 0h-438v912q0 183 -115 300q-106 108 -252 108q-154 0 -257 -106q-110 -114 -110 -302v-136h-186v149q0 238 167 404q163 162 386 162q208 0 374 -157q179 -169 179 -409v-752h252v-173z" />
    <glyph glyph-name="Ocircumflex" unicode="&#x542;" horiz-adv-x="1465" 
d="M1444 0h-438v912q0 183 -115 300q-106 108 -252 108q-154 0 -257 -106q-110 -114 -110 -302v-136h-186v149q0 238 167 404q163 162 386 162q208 0 374 -157q179 -169 179 -409v-752h252v-173z" />
    <glyph glyph-name="Otilde" unicode="&#xd5;" horiz-adv-x="1190" 
d="M1153 -407h-370v1065q0 133 -50 201q-53 72 -159 72q-112 0 -183 -66q-90 -83 -90 -254v-611h-171v1062h153v-156q55 84 127 128q84 52 197 52q167 0 259 -100q89 -97 89 -266v-960h198v-167z" />
    <glyph glyph-name="Otilde" unicode="&#x572;" horiz-adv-x="1190" 
d="M1153 -407h-370v1065q0 133 -50 201q-53 72 -159 72q-112 0 -183 -66q-90 -83 -90 -254v-611h-171v1062h153v-156q55 84 127 128q84 52 197 52q167 0 259 -100q89 -97 89 -266v-960h198v-167z" />
    <glyph glyph-name="Odieresis" unicode="&#xd6;" horiz-adv-x="1405" 
d="M520 1045q-97 -116 -151 -271t-54 -324v-277h734v241q0 271 -151 436q-138 150 -378 195zM315 1062h-185v173h214q62 0 121 -6q127 114 279 175.5t303 61.5h189v-173h-210q-96 0 -182 -26.5t-165 -78.5q264 -80 413 -281q144 -194 144 -450v-457h-1106v467q0 171 50 326
q47 145 135 269z" />
    <glyph glyph-name="Odieresis" unicode="&#x543;" horiz-adv-x="1405" 
d="M520 1045q-97 -116 -151 -271t-54 -324v-277h734v241q0 271 -151 436q-138 150 -378 195zM315 1062h-185v173h214q62 0 121 -6q127 114 279 175.5t303 61.5h189v-173h-210q-96 0 -182 -26.5t-165 -78.5q264 -80 413 -281q144 -194 144 -450v-457h-1106v467q0 171 50 326
q47 145 135 269z" />
    <glyph glyph-name="multiply" unicode="&#xd7;" 
d="M955 0h-153v157q-45 -79 -123 -125q-97 -57 -242 -57q-140 0 -237 111.5t-97 279.5q0 120 15 215q24 149 92 326h-140v155h211q89 187 245 295.5t329 108.5h79v-155h-95q-101 0 -210 -68q-118 -74 -175 -187q191 0 337 -133q164 -150 164 -394v-529zM783 422v147
q0 159 -124 255q-114 88 -281 88l-34 -93q-31 -86 -46 -167q-23 -120 -23 -248q0 -110 56 -188q61 -85 159 -85q130 0 211.5 78.5t81.5 212.5z" />
    <glyph glyph-name="multiply" unicode="&#x573;" 
d="M955 0h-153v157q-45 -79 -123 -125q-97 -57 -242 -57q-140 0 -237 111.5t-97 279.5q0 120 15 215q24 149 92 326h-140v155h211q89 187 245 295.5t329 108.5h79v-155h-95q-101 0 -210 -68q-118 -74 -175 -187q191 0 337 -133q164 -150 164 -394v-529zM783 422v147
q0 159 -124 255q-114 88 -281 88l-34 -93q-31 -86 -46 -167q-23 -120 -23 -248q0 -110 56 -188q61 -85 159 -85q130 0 211.5 78.5t81.5 212.5z" />
    <glyph glyph-name="Oslash" unicode="&#xd8;" horiz-adv-x="1518" 
d="M1487 1466v-173h-251v-748q0 -233 -164.5 -401.5t-387.5 -168.5q-221 0 -381 156q-173 169 -173 434v901h185v-907q0 -196 116 -310q104 -102 253 -102q144 0 251 108q114 115 114 284v927h438z" />
    <glyph glyph-name="Oslash" unicode="&#x544;" horiz-adv-x="1518" 
d="M1487 1466v-173h-251v-748q0 -233 -164.5 -401.5t-387.5 -168.5q-221 0 -381 156q-173 169 -173 434v901h185v-907q0 -196 116 -310q104 -102 253 -102q144 0 251 108q114 115 114 284v927h438z" />
    <glyph glyph-name="Ugrave" unicode="&#xd9;" horiz-adv-x="1190" 
d="M783 1466h368v-155h-196v-1311h-153v156q-119 -180 -324 -180q-154 0 -244 84q-104 97 -104 294v708h171v-649q0 -141 51 -211.5t161 -70.5q106 0 178 64q92 82 92 248v1023z" />
    <glyph glyph-name="Ugrave" unicode="&#x574;" horiz-adv-x="1190" 
d="M783 1466h368v-155h-196v-1311h-153v156q-119 -180 -324 -180q-154 0 -244 84q-104 97 -104 294v708h171v-649q0 -141 51 -211.5t161 -70.5q106 0 178 64q92 82 92 248v1023z" />
    <glyph glyph-name="Uacute" unicode="&#xda;" horiz-adv-x="1405" 
d="M1254 441q0 -195 -153 -327q-161 -139 -417 -139q-245 0 -401 135.5t-156 333.5h185q0 -120 101 -205q108 -91 275 -91q164 0 272 81.5t108 199.5q0 112 -80 181q-96 83 -289 83h-591v173h595q131 0 209.5 59t78.5 162q0 85 -68 152q-80 79 -211 79q-130 0 -213 -80
q-77 -74 -77 -176h-185q0 173 137 299q141 130 342 130q195 0 330 -123q130 -118 130 -272q0 -105 -40 -183q-44 -86 -129 -119q117 -34 186 -143q61 -97 61 -210z" />
    <glyph glyph-name="Uacute" unicode="&#x545;" horiz-adv-x="1405" 
d="M1254 441q0 -195 -153 -327q-161 -139 -417 -139q-245 0 -401 135.5t-156 333.5h185q0 -120 101 -205q108 -91 275 -91q164 0 272 81.5t108 199.5q0 112 -80 181q-96 83 -289 83h-591v173h595q131 0 209.5 59t78.5 162q0 85 -68 152q-80 79 -211 79q-130 0 -213 -80
q-77 -74 -77 -176h-185q0 173 137 299q141 130 342 130q195 0 330 -123q130 -118 130 -272q0 -105 -40 -183q-44 -86 -129 -119q117 -34 186 -143q61 -97 61 -210z" />
    <glyph glyph-name="Ucircumflex" unicode="&#xdb;" horiz-adv-x="585" 
d="M334 -144q0 -137 -64.5 -203.5t-183.5 -66.5q-21 0 -63 5q-7 0 -18 2v165h47q57 0 83.5 26.5t26.5 98.5v1179h172v-1206z" />
    <glyph glyph-name="Ucircumflex" unicode="&#x575;" horiz-adv-x="585" 
d="M334 -144q0 -137 -64.5 -203.5t-183.5 -66.5q-21 0 -63 5q-7 0 -18 2v165h47q57 0 83.5 26.5t26.5 98.5v1179h172v-1206z" />
    <glyph glyph-name="Udieresis" unicode="&#xdc;" horiz-adv-x="1433" 
d="M8 1466h372v-912q0 -183 115 -300q106 -108 252 -108q155 0 258 106q110 113 110 302v167h185v-180q0 -238 -167 -404q-163 -162 -386 -162q-208 0 -374 157q-179 169 -179 409v752h-186v173z" />
    <glyph glyph-name="Udieresis" unicode="&#x546;" horiz-adv-x="1433" 
d="M8 1466h372v-912q0 -183 115 -300q106 -108 252 -108q155 0 258 106q110 113 110 302v167h185v-180q0 -238 -167 -404q-163 -162 -386 -162q-208 0 -374 157q-179 169 -179 409v752h-186v173z" />
    <glyph glyph-name="Yacute" unicode="&#xdd;" 
d="M301 413q0 -141 51 -211.5t161 -70.5q106 0 178 64q92 82 92 248v619h172v-1062h-153v156q-119 -180 -324 -180q-154 0 -244 84q-104 97 -104 294v957h-168v155h339v-1053z" />
    <glyph glyph-name="Yacute" unicode="&#x576;" 
d="M301 413q0 -141 51 -211.5t161 -70.5q106 0 178 64q92 82 92 248v619h172v-1062h-153v156q-119 -180 -324 -180q-154 0 -244 84q-104 97 -104 294v957h-168v155h339v-1053z" />
    <glyph glyph-name="Thorn" unicode="&#xde;" horiz-adv-x="1405" 
d="M641 1216l-247 103l71 173l723 -311l-72 -174l-156 69q-49 22 -128 22q-117 0 -225 -44q-129 -52 -204 -151q-89 -117 -89 -285q0 -200 107 -333q111 -138 286 -138q168 0 279 124q106 119 106 283q0 13 -0.5 26t-3.5 26l182 34q3 -8 5 -38.5t2 -51.5
q0 -232 -168.5 -403.5t-399.5 -171.5q-241 0 -408 174q-171 178 -171 444q0 234 138 410q145 184 373 213z" />
    <glyph glyph-name="Thorn" unicode="&#x547;" horiz-adv-x="1405" 
d="M641 1216l-247 103l71 173l723 -311l-72 -174l-156 69q-49 22 -128 22q-117 0 -225 -44q-129 -52 -204 -151q-89 -117 -89 -285q0 -200 107 -333q111 -138 286 -138q168 0 279 124q106 119 106 283q0 13 -0.5 26t-3.5 26l182 34q3 -8 5 -38.5t2 -51.5
q0 -232 -168.5 -403.5t-399.5 -171.5q-241 0 -408 174q-171 178 -171 444q0 234 138 410q145 184 373 213z" />
    <glyph glyph-name="germandbls" unicode="&#xdf;" horiz-adv-x="960" 
d="M804 689q0 -95 -44 -189q-37 -79 -110 -166q-45 -53 -144 -154q-95 -96 -152 -159q-75 -82 -117 -143q-46 -66 -38 -91q7 -20 13 -27q11 -12 33 -12h541v-155h-587q-73 0 -126.5 42t-53.5 110q0 73 60 166q46 71 144 177l172 182q92 99 119 133q60 74 88 135
q34 75 34 159q0 88 -54 153q-62 75 -167 75q-67 0 -121 -36q-46 -30 -59 -67l-135 60q23 69 103 126q101 72 234 72q148 0 253 -101q114 -110 114 -290z" />
    <glyph glyph-name="germandbls" unicode="&#x577;" horiz-adv-x="960" 
d="M804 689q0 -95 -44 -189q-37 -79 -110 -166q-45 -53 -144 -154q-95 -96 -152 -159q-75 -82 -117 -143q-46 -66 -38 -91q7 -20 13 -27q11 -12 33 -12h541v-155h-587q-73 0 -126.5 42t-53.5 110q0 73 60 166q46 71 144 177l172 182q92 99 119 133q60 74 88 135
q34 75 34 159q0 88 -54 153q-62 75 -167 75q-67 0 -121 -36q-46 -30 -59 -67l-135 60q23 69 103 126q101 72 234 72q148 0 253 -101q114 -110 114 -290z" />
    <glyph glyph-name="agrave" unicode="&#xe0;" horiz-adv-x="1405" 
d="M1236 0h-187v927q0 169 -113 283q-108 109 -252 109q-148 0 -252 -102q-117 -115 -117 -310v-907h-185v901q0 266 172 434q160 156 382 156q223 0 387.5 -168.5t164.5 -401.5v-921z" />
    <glyph glyph-name="agrave" unicode="&#x548;" horiz-adv-x="1405" 
d="M1236 0h-187v927q0 169 -113 283q-108 109 -252 109q-148 0 -252 -102q-117 -115 -117 -310v-907h-185v901q0 266 172 434q160 156 382 156q223 0 387.5 -168.5t164.5 -401.5v-921z" />
    <glyph glyph-name="aacute" unicode="&#xe1;" 
d="M283 1062v-156q119 180 324 180q154 0 244 -84q104 -97 104 -294v-708h-172v649q0 140 -51 211t-160 71q-106 0 -178 -64q-93 -83 -93 -248v-619h-171v1062h153z" />
    <glyph glyph-name="aacute" unicode="&#x578;" 
d="M283 1062v-156q119 180 324 180q154 0 244 -84q104 -97 104 -294v-708h-172v649q0 140 -51 211t-160 71q-106 0 -178 -64q-93 -83 -93 -248v-619h-171v1062h153z" />
    <glyph glyph-name="acircumflex" unicode="&#xe2;" horiz-adv-x="1405" 
d="M785 252l228 -105l-71 -173l-723 311l72 174l155 -69q49 -22 128 -22q117 0 225 44q129 52 204 151q89 117 89 285q0 198 -107 332q-111 139 -285 139q-168 0 -279 -124q-106 -119 -106 -283q0 -13 0.5 -26t3.5 -26l-183 -34q-3 9 -4.5 43t-1.5 47q0 232 168.5 403.5
t398.5 171.5q240 0 410 -177.5t170 -440.5q0 -233 -131 -404q-136 -178 -361 -217z" />
    <glyph glyph-name="acircumflex" unicode="&#x549;" horiz-adv-x="1405" 
d="M785 252l228 -105l-71 -173l-723 311l72 174l155 -69q49 -22 128 -22q117 0 225 44q129 52 204 151q89 117 89 285q0 198 -107 332q-111 139 -285 139q-168 0 -279 -124q-106 -119 -106 -283q0 -13 0.5 -26t3.5 -26l-183 -34q-3 9 -4.5 43t-1.5 47q0 232 168.5 403.5
t398.5 171.5q240 0 410 -177.5t170 -440.5q0 -233 -131 -404q-136 -178 -361 -217z" />
    <glyph glyph-name="atilde" unicode="&#xe3;" horiz-adv-x="770" 
d="M257 -215q2 -19 11.5 -28t30.5 -9h354v-155h-400q-87 0 -140 48q-46 42 -46 95q0 112 50 246q40 107 112 233q31 54 115 184l-58 43q-54 40 -82 100.5t-28 129.5q0 56 19 113t54 104l173 230l120 -93l-155 -207q-45 -60 -45 -116q0 -44 24 -81.5t70 -71.5l147 -112
q-93 -132 -139 -203q-84 -129 -130 -227q-58 -123 -58 -200q0 -16 1 -23z" />
    <glyph glyph-name="atilde" unicode="&#x579;" horiz-adv-x="770" 
d="M257 -215q2 -19 11.5 -28t30.5 -9h354v-155h-400q-87 0 -140 48q-46 42 -46 95q0 112 50 246q40 107 112 233q31 54 115 184l-58 43q-54 40 -82 100.5t-28 129.5q0 56 19 113t54 104l173 230l120 -93l-155 -207q-45 -60 -45 -116q0 -44 24 -81.5t70 -71.5l147 -112
q-93 -132 -139 -203q-84 -129 -130 -227q-58 -123 -58 -200q0 -16 1 -23z" />
    <glyph glyph-name="adieresis" unicode="&#xe4;" horiz-adv-x="1566" 
d="M1381 0h-186v892q0 182 -108.5 304.5t-254.5 122.5v-858h-185v858q-143 0 -249 -114q-114 -123 -114 -315v-114h-185v136q0 252 180.5 415.5t452.5 163.5q288 0 468.5 -159.5t180.5 -416.5v-915z" />
    <glyph glyph-name="adieresis" unicode="&#x54a;" horiz-adv-x="1566" 
d="M1381 0h-186v892q0 182 -108.5 304.5t-254.5 122.5v-858h-185v858q-143 0 -249 -114q-114 -123 -114 -315v-114h-185v136q0 252 180.5 415.5t452.5 163.5q288 0 468.5 -159.5t180.5 -416.5v-915z" />
    <glyph glyph-name="aring" unicode="&#xe5;" horiz-adv-x="1756" 
d="M1511 1062v-1469h-173v529q-110 -146 -290 -146q-103 0 -175 43q-77 46 -116 142q-65 -102 -153 -148q-72 -37 -160 -37q-160 0 -237 90.5t-77 263.5v732h171v-698q0 -108 37 -164q44 -67 140 -67q130 0 197 87q57 74 57 195v647h173v-736q0 -83 46.5 -138.5t125.5 -55.5
q119 0 185 76q76 88 76 275v579h173z" />
    <glyph glyph-name="aring" unicode="&#x57a;" horiz-adv-x="1756" 
d="M1511 1062v-1469h-173v529q-110 -146 -290 -146q-103 0 -175 43q-77 46 -116 142q-65 -102 -153 -148q-72 -37 -160 -37q-160 0 -237 90.5t-77 263.5v732h171v-698q0 -108 37 -164q44 -67 140 -67q130 0 197 87q57 74 57 195v647h173v-736q0 -83 46.5 -138.5t125.5 -55.5
q119 0 185 76q76 88 76 275v579h173z" />
    <glyph glyph-name="ae" unicode="&#xe6;" horiz-adv-x="1437" 
d="M1096 924q0 156 -113 274q-116 121 -275 121q-161 0 -272.5 -116.5t-111.5 -290.5q0 -16 3 -39t9 -48q12 2 42 4q60 5 89 5q186 0 321 -101.5t153 -246.5q69 74 112 191t43 247zM440 660q-53 0 -112.5 -8t-114.5 -24q-38 66 -56.5 139t-18.5 157q0 228 170.5 397.5
t399.5 169.5t402 -171t173 -391q0 -237 -143 -460q-133 -208 -313 -296h456v-173h-1145v303h186v-137q38 -9 78 -9q115 0 239 57q114 53 161 114q0 152 -108 245q-101 87 -254 87z" />
    <glyph glyph-name="ae" unicode="&#x54b;" horiz-adv-x="1437" 
d="M1096 924q0 156 -113 274q-116 121 -275 121q-161 0 -272.5 -116.5t-111.5 -290.5q0 -16 3 -39t9 -48q12 2 42 4q60 5 89 5q186 0 321 -101.5t153 -246.5q69 74 112 191t43 247zM440 660q-53 0 -112.5 -8t-114.5 -24q-38 66 -56.5 139t-18.5 157q0 228 170.5 397.5
t399.5 169.5t402 -171t173 -391q0 -237 -143 -460q-133 -208 -313 -296h456v-173h-1145v303h186v-137q38 -9 78 -9q115 0 239 57q114 53 161 114q0 152 -108 245q-101 87 -254 87z" />
    <glyph glyph-name="ccedilla" unicode="&#xe7;" horiz-adv-x="979" 
d="M855 699q0 -129 -84 -272q-65 -110 -187 -238l-193 -189q-77 -76 -109.5 -123t-32.5 -87q0 -20 15 -31t36 -11h534v-155h-590q-80 0 -131 51q-44 44 -44 99q0 56 38 129q33 64 89 128q47 54 81 116q51 93 51 171q0 46 -18 85t-62 91q-56 66 -76 97q-43 66 -59 136
q-8 37 -8 68q0 133 113 229q106 90 233 90q165 0 272 -81q132 -100 132 -303zM678 768q-23 91 -94 130q-52 29 -127 29q-68 0 -122 -44q-60 -49 -60 -118q0 -15 3 -30q10 -55 73 -127q69 -80 91 -149q7 -22 10.5 -46.5t3.5 -51.5q0 -48 -13 -96t-40 -91q76 84 105 119
q76 93 121 182q59 116 59 214q0 42 -10 79z" />
    <glyph glyph-name="ccedilla" unicode="&#x57b;" horiz-adv-x="979" 
d="M855 699q0 -129 -84 -272q-65 -110 -187 -238l-193 -189q-77 -76 -109.5 -123t-32.5 -87q0 -20 15 -31t36 -11h534v-155h-590q-80 0 -131 51q-44 44 -44 99q0 56 38 129q33 64 89 128q47 54 81 116q51 93 51 171q0 46 -18 85t-62 91q-56 66 -76 97q-43 66 -59 136
q-8 37 -8 68q0 133 113 229q106 90 233 90q165 0 272 -81q132 -100 132 -303zM678 768q-23 91 -94 130q-52 29 -127 29q-68 0 -122 -44q-60 -49 -60 -118q0 -15 3 -30q10 -55 73 -127q69 -80 91 -149q7 -22 10.5 -46.5t3.5 -51.5q0 -48 -13 -96t-40 -91q76 84 105 119
q76 93 121 182q59 116 59 214q0 42 -10 79z" />
    <glyph glyph-name="egrave" unicode="&#xe8;" horiz-adv-x="1521" 
d="M1236 0h-187v927q0 169 -113 283q-108 109 -252 109q-148 0 -252 -102q-117 -115 -117 -310v-907h-185v901q0 266 172 434q160 156 382 156q223 0 387.5 -168.5t164.5 -401.5v-396h259v-173h-259v-352z" />
    <glyph glyph-name="egrave" unicode="&#x54c;" horiz-adv-x="1521" 
d="M1236 0h-187v927q0 169 -113 283q-108 109 -252 109q-148 0 -252 -102q-117 -115 -117 -310v-907h-185v901q0 266 172 434q160 156 382 156q223 0 387.5 -168.5t164.5 -401.5v-396h259v-173h-259v-352z" />
    <glyph glyph-name="eacute" unicode="&#xe9;" 
d="M572 931q-106 0 -178 -64q-93 -83 -93 -248v-619h-171v1062h153v-156q119 180 324 180q149 0 267 -109q127 -117 127 -285q0 -178 -50.5 -296.5t-175.5 -240.5h282v-155h-488v125q129 108 185.5 231t56.5 307q0 118 -68 193t-171 75z" />
    <glyph glyph-name="eacute" unicode="&#x57c;" 
d="M572 931q-106 0 -178 -64q-93 -83 -93 -248v-619h-171v1062h153v-156q119 180 324 180q149 0 267 -109q127 -117 127 -285q0 -178 -50.5 -296.5t-175.5 -240.5h282v-155h-488v125q129 108 185.5 231t56.5 307q0 118 -68 193t-171 75z" />
    <glyph glyph-name="ecircumflex" unicode="&#xea;" horiz-adv-x="1405" 
d="M1236 545q0 -233 -150 -379q-179 -191 -402 -191q-221 0 -381 156q-173 169 -173 434v901h185v-907q0 -196 116 -310q104 -102 253 -102q144 0 251 108q114 115 114 284v927h187v-921z" />
    <glyph glyph-name="ecircumflex" unicode="&#x54d;" horiz-adv-x="1405" 
d="M1236 545q0 -233 -150 -379q-179 -191 -402 -191q-221 0 -381 156q-173 169 -173 434v901h185v-907q0 -196 116 -310q104 -102 253 -102q144 0 251 108q114 115 114 284v927h187v-921z" />
    <glyph glyph-name="edieresis" unicode="&#xeb;" 
d="M802 0v156q-119 -180 -324 -180q-154 0 -244 84q-104 97 -104 294v708h171v-649q0 -141 51 -211.5t161 -70.5q106 0 178 64q92 82 92 248v619h172v-1062h-153z" />
    <glyph glyph-name="edieresis" unicode="&#x57d;" 
d="M802 0v156q-119 -180 -324 -180q-154 0 -244 84q-104 97 -104 294v708h171v-649q0 -141 51 -211.5t161 -70.5q106 0 178 64q92 82 92 248v619h172v-1062h-153z" />
    <glyph glyph-name="igrave" unicode="&#xec;" horiz-adv-x="1468" 
d="M1008 520q-50 -87 -169 -134q-98 -39 -196 -39q-236 0 -396 173t-160 419v123h187v-146q0 -154 96 -270q105 -127 271 -127q159 0 263 117t104 300v530h186v-1293h252v-173h-438v520z" />
    <glyph glyph-name="igrave" unicode="&#x54e;" horiz-adv-x="1468" 
d="M1008 520q-50 -87 -169 -134q-98 -39 -196 -39q-236 0 -396 173t-160 419v123h187v-146q0 -154 96 -270q105 -127 271 -127q159 0 263 117t104 300v530h186v-1293h252v-173h-438v520z" />
    <glyph glyph-name="iacute" unicode="&#xed;" horiz-adv-x="1190" 
d="M1126 -407h-343v538q-114 -155 -305 -155q-154 0 -244 84q-104 97 -104 294v708h171v-649q0 -141 51 -211.5t161 -70.5q106 0 178 64q92 82 92 248v1023h172v-1718h171v-155z" />
    <glyph glyph-name="iacute" unicode="&#x57e;" horiz-adv-x="1190" 
d="M1126 -407h-343v538q-114 -155 -305 -155q-154 0 -244 84q-104 97 -104 294v708h171v-649q0 -141 51 -211.5t161 -70.5q106 0 178 64q92 82 92 248v1023h172v-1718h171v-155z" />
    <glyph glyph-name="icircumflex" unicode="&#xee;" horiz-adv-x="1351" 
d="M88 471l176 16q17 -161 124 -249.5t292 -88.5q156 0 252.5 71t96.5 178q0 100 -71 155q-90 70 -342 122.5t-368 160.5q-106 99 -106 251q0 173 129 285q137 119 366 119q245 0 387 -119.5t142 -318.5l-178 -14q-15 140 -96 209q-85 72 -247 72q-160 0 -244 -62
q-79 -58 -79 -158q0 -87 59 -135q75 -62 276 -100q305 -58 436 -175q116 -103 116 -276q0 -177 -144 -305q-150 -134 -377 -134q-278 0 -439 135t-161 361z" />
    <glyph glyph-name="icircumflex" unicode="&#x54f;" horiz-adv-x="1351" 
d="M88 471l176 16q17 -161 124 -249.5t292 -88.5q156 0 252.5 71t96.5 178q0 100 -71 155q-90 70 -342 122.5t-368 160.5q-106 99 -106 251q0 173 129 285q137 119 366 119q245 0 387 -119.5t142 -318.5l-178 -14q-15 140 -96 209q-85 72 -247 72q-160 0 -244 -62
q-79 -58 -79 -158q0 -87 59 -135q75 -62 276 -100q305 -58 436 -175q116 -103 116 -276q0 -177 -144 -305q-150 -134 -377 -134q-278 0 -439 135t-161 361z" />
    <glyph glyph-name="idieresis" unicode="&#xef;" horiz-adv-x="1756" 
d="M1511 0h-173v694q0 103 -43 162q-48 67 -143 67q-100 0 -173.5 -78.5t-73.5 -188.5v-656h-173v125q-51 -68 -113 -104q-78 -45 -180 -45q-156 0 -232.5 92t-76.5 266v728h171v-706q0 -103 42 -160q47 -64 145 -64q107 0 173 75q71 81 71 229v626h173v-136q40 73 129 122
q81 44 150 44q155 0 241 -97t86 -268v-727z" />
    <glyph glyph-name="idieresis" unicode="&#x57f;" horiz-adv-x="1756" 
d="M1511 0h-173v694q0 103 -43 162q-48 67 -143 67q-100 0 -173.5 -78.5t-73.5 -188.5v-656h-173v125q-51 -68 -113 -104q-78 -45 -180 -45q-156 0 -232.5 92t-76.5 266v728h171v-706q0 -103 42 -160q47 -64 145 -64q107 0 173 75q71 81 71 229v626h173v-136q40 73 129 122
q81 44 150 44q155 0 241 -97t86 -268v-727z" />
    <glyph glyph-name="eth" unicode="&#xf0;" horiz-adv-x="1362" 
d="M315 0h-185v895q0 257 159.5 426.5t390.5 169.5q236 0 396 -173t160 -419v-123h-187v146q0 154 -96 270q-105 127 -271 127q-159 0 -263 -117.5t-104 -299.5v-902z" />
    <glyph glyph-name="eth" unicode="&#x550;" horiz-adv-x="1362" 
d="M315 0h-185v895q0 257 159.5 426.5t390.5 169.5q236 0 396 -173t160 -419v-123h-187v146q0 154 -96 270q-105 127 -271 127q-159 0 -263 -117.5t-104 -299.5v-902z" />
    <glyph glyph-name="ntilde" unicode="&#xf1;" 
d="M283 1062v-156q119 180 324 180q154 0 244 -84q104 -97 104 -294v-708h-172v649q0 140 -51 211t-160 71q-106 0 -178 -64q-93 -83 -93 -248v-1026h-171v1469h153z" />
    <glyph glyph-name="ntilde" unicode="&#x580;" 
d="M283 1062v-156q119 180 324 180q154 0 244 -84q104 -97 104 -294v-708h-172v649q0 140 -51 211t-160 71q-106 0 -178 -64q-93 -83 -93 -248v-1026h-171v1469h153z" />
    <glyph glyph-name="ograve" unicode="&#xf2;" horiz-adv-x="1384" 
d="M712 866q131 0 210 72q69 63 69 149q0 85 -68 152q-80 79 -211 79q-128 0 -213 -75q-77 -68 -77 -155q0 -88 73 -151q82 -71 217 -71zM237 1098q0 154 137 271q143 122 342 122q195 0 330 -123q130 -118 130 -272q0 -105 -40 -181q-44 -83 -129 -121q117 -34 186 -143
q61 -97 61 -210q0 -195 -153 -327q-161 -139 -417 -139q-245 0 -401 135.5t-156 333.5h185q0 -120 101 -205q108 -91 275 -91q164 0 272 81.5t108 199.5q0 113 -79 181q-96 83 -290 83h-591v173h235q-39 23 -72.5 95.5t-33.5 136.5z" />
    <glyph glyph-name="ograve" unicode="&#x551;" horiz-adv-x="1384" 
d="M712 866q131 0 210 72q69 63 69 149q0 85 -68 152q-80 79 -211 79q-128 0 -213 -75q-77 -68 -77 -155q0 -88 73 -151q82 -71 217 -71zM237 1098q0 154 137 271q143 122 342 122q195 0 330 -123q130 -118 130 -272q0 -105 -40 -181q-44 -83 -129 -121q117 -34 186 -143
q61 -97 61 -210q0 -195 -153 -327q-161 -139 -417 -139q-245 0 -401 135.5t-156 333.5h185q0 -120 101 -205q108 -91 275 -91q164 0 272 81.5t108 199.5q0 113 -79 181q-96 83 -290 83h-591v173h235q-39 23 -72.5 95.5t-33.5 136.5z" />
    <glyph glyph-name="oacute" unicode="&#xf3;" 
d="M98 -88l168 -26q11 -90 73 -133q58 -40 161 -40q157 0 219 87q67 94 67 339q-113 -139 -282 -139q-203 0 -325 157q-116 149 -116 380q0 233 118 387q124 162 324 162q180 0 298 -152v128h159v-918q0 -233 -62 -366q-55 -118 -165 -168q-90 -41 -234 -41q-187 0 -291 83
q-112 89 -112 260zM241 550q0 -200 78 -304q73 -97 201 -97q124 0 199 95q82 104 82 300q0 188 -82 294q-77 99 -202 99q-120 0 -195 -96q-81 -104 -81 -291z" />
    <glyph glyph-name="oacute" unicode="&#x581;" 
d="M98 -88l168 -26q11 -90 73 -133q58 -40 161 -40q157 0 219 87q67 94 67 339q-113 -139 -282 -139q-203 0 -325 157q-116 149 -116 380q0 233 118 387q124 162 324 162q180 0 298 -152v128h159v-918q0 -233 -62 -366q-55 -118 -165 -168q-90 -41 -234 -41q-187 0 -291 83
q-112 89 -112 260zM241 550q0 -200 78 -304q73 -97 201 -97q124 0 199 95q82 104 82 300q0 188 -82 294q-77 99 -202 99q-120 0 -195 -96q-81 -104 -81 -291z" />
    <glyph glyph-name="ocircumflex" unicode="&#xf4;" horiz-adv-x="724" 
d="M695 945h-380v-945h-185v1466h185v-347h380v-174z" />
    <glyph glyph-name="ocircumflex" unicode="&#x552;" horiz-adv-x="724" 
d="M695 945h-380v-945h-185v1466h185v-347h380v-174z" />
    <glyph glyph-name="otilde" unicode="&#xf5;" horiz-adv-x="778" 
d="M667 0h-537v1062h171v-907h366v-155z" />
    <glyph glyph-name="otilde" unicode="&#x582;" horiz-adv-x="778" 
d="M667 0h-537v1062h171v-907h366v-155z" />
    <glyph glyph-name="odieresis" unicode="&#xf6;" horiz-adv-x="1536" 
d="M678 1290v176h185v-176q261 0 421 -160q154 -154 154 -390q0 -233 -147 -386q-158 -165 -428 -165v-189h-185v189q-250 0 -413 153t-163 398q0 244 161 397t415 153zM863 1124v-768q179 0 281 102t102 282q0 175 -97 277q-102 107 -286 107zM678 1123q-173 0 -278 -103
t-105 -280q0 -174 102.5 -278.5t280.5 -104.5v766z" />
    <glyph glyph-name="odieresis" unicode="&#x553;" horiz-adv-x="1536" 
d="M678 1290v176h185v-176q261 0 421 -160q154 -154 154 -390q0 -233 -147 -386q-158 -165 -428 -165v-189h-185v189q-250 0 -413 153t-163 398q0 244 161 397t415 153zM863 1124v-768q179 0 281 102t102 282q0 175 -97 277q-102 107 -286 107zM678 1123q-173 0 -278 -103
t-105 -280q0 -174 102.5 -278.5t280.5 -104.5v766z" />
    <glyph glyph-name="divide" unicode="&#xf7;" horiz-adv-x="1756" 
d="M1511 0h-173v694q0 103 -43 162q-48 67 -143 67q-102 0 -174.5 -69t-72.5 -178v-1083h-173v532q-51 -68 -113 -104q-78 -45 -180 -45q-156 0 -232.5 92t-76.5 266v728h171v-706q0 -103 42 -160q47 -64 145 -64q107 0 173 75q71 81 71 229v1030h173v-500q47 70 134 102
q66 24 145 24q155 0 241 -97t86 -268v-727z" />
    <glyph glyph-name="divide" unicode="&#x583;" horiz-adv-x="1756" 
d="M1511 0h-173v694q0 103 -43 162q-48 67 -143 67q-102 0 -174.5 -69t-72.5 -178v-1083h-173v532q-51 -68 -113 -104q-78 -45 -180 -45q-156 0 -232.5 92t-76.5 266v728h171v-706q0 -103 42 -160q47 -64 145 -64q107 0 173 75q71 81 71 229v1030h173v-500q47 70 134 102
q66 24 145 24q155 0 241 -97t86 -268v-727z" />
    <glyph glyph-name="oslash" unicode="&#xf8;" horiz-adv-x="1401" 
d="M1231 126h-859v-132h-185v132h-129v173h129v694q0 200 137 341q147 151 380 151q234 0 378 -152q134 -141 134 -341q0 -204 -135 -342q-145 -148 -384 -148q-113 0 -189.5 32.5t-135.5 98.5v-334h859v-173zM1030 994q0 137 -87 226q-91 93 -240 93q-150 0 -240.5 -91.5
t-90.5 -227.5t90.5 -227.5t240.5 -91.5q149 0 240 93q87 89 87 226z" />
    <glyph glyph-name="oslash" unicode="&#x554;" horiz-adv-x="1401" 
d="M1231 126h-859v-132h-185v132h-129v173h129v694q0 200 137 341q147 151 380 151q234 0 378 -152q134 -141 134 -341q0 -204 -135 -342q-145 -148 -384 -148q-113 0 -189.5 32.5t-135.5 98.5v-334h859v-173zM1030 994q0 137 -87 226q-91 93 -240 93q-150 0 -240.5 -91.5
t-90.5 -227.5t90.5 -227.5t240.5 -91.5q149 0 240 93q87 89 87 226z" />
    <glyph glyph-name="ugrave" unicode="&#xf9;" 
d="M286 595q0 -190 82 -282q70 -79 191 -79q127 0 197 81q82 95 82 295q0 166 -79 254q-73 81 -193 81q-123 0 -194 -73q-86 -88 -86 -277zM130 -287h-138v155h138v1194h154v-138q56 82 127 122t172 40q196 0 311 -120q121 -127 121 -357q0 -231 -131 -380
q-126 -143 -314 -143q-83 0 -152 36t-117 98v-352h695v-155h-695v-120h-171v120z" />
    <glyph glyph-name="ugrave" unicode="&#x584;" 
d="M286 595q0 -190 82 -282q70 -79 191 -79q127 0 197 81q82 95 82 295q0 166 -79 254q-73 81 -193 81q-123 0 -194 -73q-86 -88 -86 -277zM130 -287h-138v155h138v1194h154v-138q56 82 127 122t172 40q196 0 311 -120q121 -127 121 -357q0 -231 -131 -380
q-126 -143 -314 -143q-83 0 -152 36t-117 98v-352h695v-155h-695v-120h-171v120z" />
    <glyph glyph-name="uacute" unicode="&#xfa;" horiz-adv-x="1569" 
d="M95 714q0 359 187 570q184 207 487 207q290 0 481 -213t191 -547q0 -328 -197 -544q-193 -212 -476 -212q-289 0 -484 223q-189 216 -189 516zM287 711q0 -259 135 -413q132 -151 345 -151q217 0 346 149q136 157 136 436q0 265 -133 426t-346 161q-214 0 -339 -137
q-144 -157 -144 -471z" />
    <glyph glyph-name="uacute" unicode="&#x555;" horiz-adv-x="1569" 
d="M95 714q0 359 187 570q184 207 487 207q290 0 481 -213t191 -547q0 -328 -197 -544q-193 -212 -476 -212q-289 0 -484 223q-189 216 -189 516zM287 711q0 -259 135 -413q132 -151 345 -151q217 0 346 149q136 157 136 436q0 265 -133 426t-346 161q-214 0 -339 -137
q-144 -157 -144 -471z" />
    <glyph glyph-name="ucircumflex" unicode="&#xfb;" 
d="M65 531q0 262 133 411q129 144 345 144q213 0 343 -142q134 -147 134 -398q0 -287 -134 -434q-124 -136 -343 -136q-218 0 -345 141q-133 147 -133 414zM243 531q0 -197 84 -305q80 -102 216 -102q135 0 215 102q85 109 85 311q0 191 -85 298q-81 102 -215 102
q-135 0 -214 -99q-86 -107 -86 -307z" />
    <glyph glyph-name="ucircumflex" unicode="&#x585;" 
d="M65 531q0 262 133 411q129 144 345 144q213 0 343 -142q134 -147 134 -398q0 -287 -134 -434q-124 -136 -343 -136q-218 0 -345 141q-133 147 -133 414zM243 531q0 -197 84 -305q80 -102 216 -102q135 0 215 102q85 109 85 311q0 191 -85 298q-81 102 -215 102
q-135 0 -214 -99q-86 -107 -86 -307z" />
    <glyph glyph-name="udieresis" unicode="&#xfc;" horiz-adv-x="1641" 
d="M1466 525q0 -258 -191 -407q-184 -144 -484 -144q-313 0 -498 145t-185 398v89h186v-82q0 -144 116 -258q121 -119 283 -119v742q-196 0 -298 66q-110 71 -110 216q0 155 109 227q103 68 310 68h174v-404q269 0 428.5 -145.5t159.5 -391.5zM693 1058v232q-131 0 -180 -29
q-44 -26 -44 -91q0 -60 49 -86t175 -26zM1280 521q0 176 -108 270.5t-294 94.5v-739q175 0 285 96q117 102 117 278z" />
    <glyph glyph-name="udieresis" unicode="&#x556;" horiz-adv-x="1641" 
d="M1466 525q0 -258 -191 -407q-184 -144 -484 -144q-313 0 -498 145t-185 398v89h186v-82q0 -144 116 -258q121 -119 283 -119v742q-196 0 -298 66q-110 71 -110 216q0 155 109 227q103 68 310 68h174v-404q269 0 428.5 -145.5t159.5 -391.5zM693 1058v232q-131 0 -180 -29
q-44 -26 -44 -91q0 -60 49 -86t175 -26zM1280 521q0 176 -108 270.5t-294 94.5v-739q175 0 285 96q117 102 117 278z" />
    <glyph glyph-name="yacute" unicode="&#xfd;" horiz-adv-x="1557" 
d="M1439 534q0 -244 -156 -398q-161 -159 -431 -159v-384h-172v384q-252 0 -418 158t-166 395v89h172v-82q0 -167 120 -286t292 -119v775q-186 0 -294 72.5t-108 200.5q0 138 108.5 212t302.5 74h163v-404q259 0 419 -136q168 -143 168 -392zM680 1062v249
q-117 0 -173.5 -28.5t-56.5 -96.5q0 -62 59.5 -93t170.5 -31zM1266 531q0 173 -111.5 274.5t-302.5 101.5v-775q180 0 297 110t117 289z" />
    <glyph glyph-name="yacute" unicode="&#x586;" horiz-adv-x="1557" 
d="M1439 534q0 -244 -156 -398q-161 -159 -431 -159v-384h-172v384q-252 0 -418 158t-166 395v89h172v-82q0 -167 120 -286t292 -119v775q-186 0 -294 72.5t-108 200.5q0 138 108.5 212t302.5 74h163v-404q259 0 419 -136q168 -143 168 -392zM680 1062v249
q-117 0 -173.5 -28.5t-56.5 -96.5q0 -62 59.5 -93t170.5 -31zM1266 531q0 173 -111.5 274.5t-302.5 101.5v-775q180 0 297 110t117 289z" />
    <glyph glyph-name="thorn" unicode="&#xfe;" horiz-adv-x="635" 
d="M175 1261v205h197v-205q0 -100 -37 -172q-41 -80 -124 -118l-48 77q56 25 83 73.5t27 139.5h-98z" />
    <glyph glyph-name="thorn" unicode="&#x55a;" horiz-adv-x="635" 
d="M175 1261v205h197v-205q0 -100 -37 -172q-41 -80 -124 -118l-48 77q56 25 83 73.5t27 139.5h-98z" />
    <glyph glyph-name="ydieresis" unicode="&#xff;" horiz-adv-x="635" 
d="M175 1261v205h197v-205q0 -100 -37 -172q-41 -80 -124 -118l-48 77q56 25 83 73.5t27 139.5h-98z" />
    <glyph glyph-name="c274" unicode="&#x112;" horiz-adv-x="1448" 
 />
    </font>
</defs>
</svg>
