<?xml version="1.0" standalone="no"?>
<!DOCTYPE svg PUBLIC "-//W3C//DTD SVG 1.1//EN" "http://www.w3.org/Graphics/SVG/1.1/DTD/svg11.dtd" >
<svg>
<metadata>
Created by FontForge 20090622 at Sun Oct 23 14:30:36 2016
 By deploy user
Copyright (c) Ruben Tarumian. 1995-1999
</metadata>
<defs>
<font id="ArialAMU-Bold" horiz-adv-x="1155" >
  <font-face 
    font-family="Arial AMU"
    font-weight="700"
    font-stretch="normal"
    units-per-em="2048"
    panose-1="2 11 7 4 2 2 2 2 2 4"
    ascent="1638"
    descent="-410"
    x-height="1062"
    cap-height="1466"
    bbox="-1201 -431 2774 1854"
    underline-thickness="215"
    underline-position="-110"
    unicode-range="U+0020-U+2022"
  />
<missing-glyph horiz-adv-x="1854" 
d="M115 0v1854h1624v-1854h-1624zM1624 115v1624h-1394v-1624h1394z" />
    <glyph glyph-name=".notdef" horiz-adv-x="1854" 
d="M115 0v1854h1624v-1854h-1624zM1624 115v1624h-1394v-1624h1394z" />
    <glyph glyph-name=".null" horiz-adv-x="0" 
 />
    <glyph glyph-name=".null" horiz-adv-x="0" 
 />
    <glyph glyph-name="nonmarkingreturn" horiz-adv-x="586" 
 />
    <glyph glyph-name="space" unicode=" " horiz-adv-x="586" 
 />
    <glyph glyph-name="exclam" unicode="!" horiz-adv-x="586" 
d="M468 1122l-69 -744h-152l-70 744v344h291v-344zM458 0h-270v281h270v-281z" />
    <glyph glyph-name="quotedbl" unicode="&#x22;" horiz-adv-x="738" 
d="M834 1218l-44 -273h-199l-51 273v248h294v-248zM401 1218l-44 -273h-199l-50 273v248h293v-248z" />
    <glyph glyph-name="numbersign" unicode="#" horiz-adv-x="1133" 
d="M178 365h-131v220h173l58 295h-231v221h274l76 390h215l-76 -390h212l74 390h223l-77 -390h132v-221h-175l-58 -295h233v-220h-276l-76 -390h-214l74 390h-213l-76 -390h-217zM494 880l-57 -295h213l56 295h-212z" />
    <glyph glyph-name="dollar" unicode="$" horiz-adv-x="1162" 
d="M509 217v419q-188 56 -275.5 169.5t-87.5 275.5q0 164 99.5 275t263.5 129v99h140v-99q152 -18 243 -109q88 -88 115 -239l-243 -33q-22 117 -115 160v-391q231 -65 314 -168.5t83 -265.5q0 -90 -26 -166t-80 -139q-103 -122 -291 -152v-187h-140v182q-164 21 -269 129.5
t-133 304.5l251 28q7 -40 21 -73.5t36 -64.5q42 -57 94 -84zM509 1267q-56 -20 -89.5 -68t-33.5 -106q0 -27 7 -51.5t23 -47.5q30 -44 93 -73v346zM649 203q70 13 116 69t46 131q0 65 -37.5 113.5t-124.5 76.5v-390z" />
    <glyph glyph-name="percent" unicode="%" horiz-adv-x="1778" 
d="M85 1104q0 197 83.5 292t225.5 95q146 0 229.5 -94t83.5 -293q0 -196 -83.5 -291.5t-225.5 -95.5q-146 0 -229.5 94.5t-83.5 292.5zM296 1106q0 -143 31 -192q24 -36 67 -36q41 0 67 36q31 50 31 192t-31 191q-25 37 -67 37q-41 0 -67 -36q-31 -47 -31 -192zM599 -56
h-200l750 1547h194zM1035 329q0 197 83 292t227 95q145 0 228 -95t83 -292t-82.5 -292.5t-225.5 -95.5q-148 0 -230.5 95.5t-82.5 292.5zM1245 330q0 -141 32 -191q23 -37 66 -37t66 36q32 49 32 192t-31 192q-23 36 -67 36q-43 0 -66 -36q-32 -49 -32 -192z" />
    <glyph glyph-name="ampersand" unicode="&#x26;" horiz-adv-x="1351" 
d="M1287 179l-143 -217q-106 60 -204 168q-74 -78 -159.5 -117t-203.5 -39q-232 0 -350 154q-45 59 -68.5 128t-23.5 146q0 140 72 253t213 196q-61 86 -95 169q-15 39 -24 79.5t-9 73.5q0 131 90.5 224.5t257.5 93.5q162 0 252.5 -96.5t90.5 -237.5q0 -46 -10 -87t-34 -82
q-46 -81 -183 -181l174 -269q31 66 53 167l215 -58q-32 -138 -55 -198q-13 -35 -25 -58.5t-27 -45.5q40 -43 106 -97.5t90 -68.5zM638 976l66 58q70 64 70 129q0 54 -34 92t-94 38q-55 0 -88 -34q-16 -16 -24.5 -35.5t-8.5 -41.5q0 -52 55 -126zM545 671q-81 -48 -124 -118
q-20 -36 -30 -69.5t-10 -71.5q0 -90 50.5 -148t135.5 -58q57 0 108 26q25 13 54.5 35t58.5 51z" />
    <glyph glyph-name="quotesingle" unicode="'" horiz-adv-x="415" 
d="M382 1218l-44 -273h-199l-51 273v248h294v-248z" />
    <glyph glyph-name="parenleft" unicode="(" horiz-adv-x="631" 
d="M594 -407h-185q-149 234 -226 467q-80 242 -80 471q0 256 83 498q75 220 221 437h184q-129 -301 -179.5 -509t-50.5 -432q0 -227 49 -431q54 -225 184 -501z" />
    <glyph glyph-name="parenright" unicode=")" horiz-adv-x="631" 
d="M488 531q0 -229 -78.5 -466t-228.5 -472h-185q128 271 183 500q50 209 50 432q0 227 -49.5 433t-180.5 508h184q147 -218 222 -436q83 -242 83 -499z" />
    <glyph glyph-name="asterisk" unicode="*" horiz-adv-x="844" 
d="M761 1151q-101 -23 -246 -49l79 -94q83 -98 90 -108l-146 -101l-130 223q-27 -51 -60.5 -108.5l-73.5 -121.5l-145 117q38 45 79 88q90 92 102 105q-25 3 -117.5 26.5t-127.5 37.5l57 176q125 -52 225 -117q-23 155 -23 266h170q0 -38 -6 -102t-20 -166q4 2 97 45t145 64
z" />
    <glyph glyph-name="plus" unicode="+" horiz-adv-x="1188" 
d="M1066 592h-370v-381h-246v381h-368v263h368v381h246v-381h370v-263z" />
    <glyph glyph-name="comma" unicode="," horiz-adv-x="586" 
d="M414 30q0 -122 -52 -209q-60 -100 -187 -148l-53 116q81 27 117 75t36 136h-131v281h270v-251z" />
    <glyph glyph-name="hyphen" unicode="-" horiz-adv-x="695" 
d="M564 391h-473v281h473v-281z" />
    <glyph glyph-name="period" unicode="." horiz-adv-x="635" 
d="M411 0h-270v281h270v-281z" />
    <glyph glyph-name="slash" unicode="/" horiz-adv-x="586" 
d="M596 1491l-352 -1516h-199l349 1516h202z" />
    <glyph glyph-name="zero" unicode="0" horiz-adv-x="1133" 
d="M996 723q0 -748 -456 -748q-213 0 -327 165q-130 188 -130 586q0 379 114.5 572.5t342.5 193.5q223 0 339.5 -194t116.5 -575zM714 723q0 317 -50 440q-39 96 -124 96q-81 0 -122 -97q-53 -127 -53 -439q0 -305 54 -425q40 -90 121 -90q79 0 120 92q54 122 54 423z" />
    <glyph glyph-name="one" unicode="1" horiz-adv-x="1133" 
d="M812 0h-270v1059q-65 -64 -134 -97q-22 -11 -132 -50l-82 189q120 41 228 132q129 108 171 233h219v-1466z" />
    <glyph glyph-name="two" unicode="2" horiz-adv-x="1133" 
d="M1023 0h-945q15 153 90 278q84 139 305 354q196 191 246 272q34 55 34 140q0 92 -47.5 143.5t-135.5 51.5q-89 0 -137 -50q-55 -57 -55 -179l-269 28q22 221 150 332q118 102 318 102q203 0 326 -116q120 -113 120 -292v-29t1 -28q0 -104 -46 -187q-66 -120 -273 -319
q-120 -114 -159 -158q-35 -39 -58 -82h535v-261z" />
    <glyph glyph-name="three" unicode="3" horiz-adv-x="1133" 
d="M1028 440q0 -193 -135 -329t-337 -136q-189 0 -315 113t-148 301l261 33q12 -101 65.5 -157.5t134.5 -56.5q86 0 142 66t56 178q0 103 -53.5 166.5t-134.5 63.5q-52 0 -124 -21l29 229q109 0 167 50t58 139q0 73 -41.5 117.5t-112.5 44.5q-72 0 -119.5 -49.5
t-58.5 -146.5l-249 44q38 194 146 288.5t288 94.5q177 0 297.5 -111t120.5 -265q0 -192 -203 -308q122 -27 194 -120t72 -228z" />
    <glyph glyph-name="four" unicode="4" horiz-adv-x="1133" 
d="M1077 295h-175v-295h-261v295h-576v246l611 925h226v-924h175v-247zM641 542v495l-323 -495h323z" />
    <glyph glyph-name="five" unicode="5" horiz-adv-x="1133" 
d="M1044 492q0 -216 -134 -364q-138 -153 -348 -153q-193 0 -316.5 106.5t-148.5 295.5l269 29q11 -93 66 -149.5t132 -56.5q89 0 143 70q59 76 59 217q0 131 -56 200.5t-153 69.5q-115 0 -209 -107l-218 33l138 783h713v-263h-509l-42 -269q91 47 184 47q182 0 304 -134
q126 -138 126 -355z" />
    <glyph glyph-name="six" unicode="6" horiz-adv-x="1133" 
d="M1043 472q0 -224 -125.5 -360.5t-327.5 -136.5q-225 0 -350 171q-137 188 -137 567q0 386 142 588q134 190 372 190q158 0 263.5 -101.5t136.5 -282.5l-261 -30q-9 84 -49.5 133.5t-105.5 49.5q-96 0 -151 -87q-68 -108 -68 -345q101 124 251 124q171 0 290.5 -135
t119.5 -345zM779 469q0 136 -51.5 206t-137.5 70q-81 0 -131 -62q-54 -67 -54 -189q0 -130 60 -210q57 -76 139 -76q81 0 125 58q50 66 50 203z" />
    <glyph glyph-name="seven" unicode="7" horiz-adv-x="1133" 
d="M1006 1262q-114 -117 -223 -329q-112 -217 -178 -454q-72 -258 -72 -479h-260q0 299 115.5 625.5t308.5 579.5h-613v261h922v-204z" />
    <glyph glyph-name="eight" unicode="8" horiz-adv-x="1133" 
d="M1015 441q0 -204 -124.5 -335.5t-330.5 -131.5q-210 0 -340.5 126.5t-130.5 328.5q0 126 55 222q60 106 180 160q-99 43 -151 130q-48 80 -48 183q0 167 107 265q113 103 315 103q197 0 310 -100t113 -268q0 -104 -50 -186.5t-144 -126.5q114 -47 176.5 -144.5
t62.5 -225.5zM716 1105q0 78 -44 121t-122 43q-80 0 -125 -43t-45 -122q0 -84 45 -136t122 -52q75 0 122 52.5t47 136.5zM748 453q0 102 -55 170t-142 68q-91 0 -146 -74q-50 -67 -50 -161q0 -114 56 -185t144 -71q85 0 139 68t54 185z" />
    <glyph glyph-name="nine" unicode="9" horiz-adv-x="1133" 
d="M1021 732q0 -386 -142 -579q-131 -179 -373 -179q-165 0 -266.5 91t-131.5 274l262 30q17 -163 156 -163q98 0 150 77q67 100 67 335q-101 -123 -254 -123q-169 0 -286 132q-121 137 -121 349q0 222 125 359t326 137q225 0 350 -170q138 -188 138 -570zM719 953
q0 130 -57.5 208t-141.5 78q-79 0 -123 -59q-50 -67 -50 -204q0 -135 52 -207q49 -68 136 -68q81 0 130 62q54 68 54 190z" />
    <glyph glyph-name="colon" unicode=":" horiz-adv-x="635" 
d="M463 781h-270v281h270v-281zM463 0h-270v281h270v-281z" />
    <glyph glyph-name="semicolon" unicode=";" horiz-adv-x="635" 
d="M455 781h-270v281h270v-281zM455 -10q0 -109 -52 -184q-58 -84 -187 -133l-53 116q80 27 116.5 76t36.5 135h-131v281h270v-291z" />
    <glyph glyph-name="less" unicode="&#x3c;" horiz-adv-x="1188" 
d="M1056 167l-965 437v242l965 435v-285l-673 -268l673 -278v-283z" />
    <glyph glyph-name="equal" unicode="=" horiz-adv-x="1188" 
d="M1066 816h-984v258h984v-258zM1066 372h-984v259h984v-259z" />
    <glyph glyph-name="greater" unicode="&#x3e;" horiz-adv-x="1188" 
d="M1057 604l-966 -438v283l674 276l-674 273v281l966 -435v-240z" />
    <glyph glyph-name="question" unicode="?" horiz-adv-x="1133" 
d="M1112 1060q0 -97 -48 -173q-56 -88 -218 -229q-84 -72 -104.5 -117t-20.5 -163h-245q0 154 34 242q41 107 162 209q117 98 151 141q26 33 26 72v26q0 84 -61 140q-65 59 -172 59q-104 0 -172.5 -60.5t-94.5 -186.5l-247 32q0 181 139 303q144 126 364 126q224 0 369 -126
q138 -120 138 -295zM746 0h-270v281h270v-281z" />
    <glyph glyph-name="at" unicode="@" horiz-adv-x="2084" 
d="M1958 19q-101 -216 -321 -333t-528 -117q-496 0 -760 264q-242 242 -242 650q0 434 258 714q272 295 726 295q382 0 605 -223q212 -212 212 -548q0 -291 -184 -504q-188 -217 -452 -217q-78 0 -118.5 27t-55.5 87q-113 -114 -261 -114q-161 0 -263 112q-106 116 -106 307
q0 264 149 461q154 204 371 204q170 0 252 -136l24 111h254l-145 -717q-13 -69 -13 -100q0 -26 8.5 -32t28.5 -6q60 0 137 67q84 73 138 185q63 130 63 275q0 253 -169 411q-177 166 -479 166q-396 0 -612 -253q-194 -227 -194 -586q0 -344 225 -534q216 -182 587 -182
q457 0 661 266h204zM1188 670q0 109 -48.5 171.5t-129.5 62.5q-122 0 -208 -139.5t-86 -334.5q0 -121 48 -186q45 -61 124 -61q123 0 211.5 147t88.5 340z" />
    <glyph glyph-name="A" unicode="A" horiz-adv-x="1351" 
d="M1355 0h-310l-122 333h-525l-97 -333h-301l529 1466h262zM831 580l-174 544l-171 -544h345z" />
    <glyph glyph-name="B" unicode="B" horiz-adv-x="1448" 
d="M1294 425q0 -186 -114 -298q-129 -127 -375 -127h-661v1466h630q190 0 311 -85q140 -98 140 -284q0 -102 -52.5 -188t-145.5 -130q127 -39 197 -131t70 -223zM948 1055q0 86 -51 125q-55 42 -181 42h-288v-339h282q115 0 174 39q64 42 64 133zM1000 439q0 100 -63 148
q-68 52 -222 52h-287v-392h321q115 0 178 42q73 49 73 150z" />
    <glyph glyph-name="C" unicode="C" horiz-adv-x="1460" 
d="M1319 448q-125 -473 -585 -473q-283 0 -460 199q-181 204 -181 546q0 361 181 568q177 203 478 203q216 0 350 -94q150 -105 213 -335l-281 -70q-25 114 -103 180t-194 66q-163 0 -253 -116q-98 -126 -98 -380q0 -265 94 -394q88 -120 252 -120q115 0 192 73
q83 78 120 238z" />
    <glyph glyph-name="D" unicode="D" horiz-adv-x="1460" 
d="M1360 719q0 -343 -172 -529q-176 -190 -511 -190h-535v1466h567q292 0 462 -175q189 -195 189 -572zM1067 732q0 197 -59 310q-52 100 -154 142q-83 34 -214 34h-214v-971h251q192 0 283 98q107 115 107 387z" />
    <glyph glyph-name="E" unicode="E" horiz-adv-x="1351" 
d="M1213 0h-1070v1466h1044v-268h-760v-285h707v-267h-707v-379h786v-267z" />
    <glyph glyph-name="F" unicode="F" horiz-adv-x="1241" 
d="M1139 1198h-710v-307h616v-268h-616v-623h-284v1466h994v-268z" />
    <glyph glyph-name="G" unicode="G" horiz-adv-x="1569" 
d="M1410 202q-92 -93 -257 -158q-175 -69 -345 -69q-324 0 -531 222q-202 216 -202 541q0 330 174 532q191 221 544 221q249 0 408 -125q145 -113 191 -306l-282 -55q-30 109 -111.5 171t-205.5 62q-192 0 -305 -122q-120 -129 -120 -366q0 -251 119 -390q113 -132 303 -132
q87 0 175 34t158 91v186h-325v247h612v-584z" />
    <glyph glyph-name="H" unicode="H" horiz-adv-x="1540" 
d="M1269 0h-284v641h-557v-641h-284v1466h284v-557h557v557h284v-1466z" />
    <glyph glyph-name="I" unicode="I" horiz-adv-x="586" 
d="M419 0h-285v1466h285v-1466z" />
    <glyph glyph-name="J" unicode="J" horiz-adv-x="1055" 
d="M934 538q0 -285 -126 -428q-119 -135 -340 -135q-208 0 -321 122.5t-113 355.5l267 32q0 -146 48 -206q41 -51 128 -51q98 0 134 55q40 61 40 236v947h283v-928z" />
    <glyph glyph-name="K" unicode="K" horiz-adv-x="1351" 
d="M1358 0h-358l-396 648l-173 -205v-443h-284v1466h284v-601l526 601h373l-521 -581z" />
    <glyph glyph-name="L" unicode="L" horiz-adv-x="1133" 
d="M1023 0h-879v1466h278v-1180h601v-286z" />
    <glyph glyph-name="M" unicode="M" horiz-adv-x="1690" 
d="M1499 0h-264v1154l-280 -1154h-273l-279 1154v-1154h-264v1466h425l256 -1000l252 1000h427v-1466z" />
    <glyph glyph-name="N" unicode="N" horiz-adv-x="1460" 
d="M1262 0h-285l-567 956v-956h-264v1466h276l576 -979v979h264v-1466z" />
    <glyph glyph-name="O" unicode="O" horiz-adv-x="1569" 
d="M1460 731q0 -350 -187 -553t-503 -203q-317 0 -504 198q-190 201 -190 551q0 371 190 573q183 194 500 194q316 0 503 -200q191 -204 191 -560zM1166 738q0 244 -109 375q-104 125 -288 125q-182 0 -287 -124q-113 -133 -113 -380q0 -241 114 -377q108 -129 286 -129
t284 126q113 135 113 384z" />
    <glyph glyph-name="P" unicode="P" horiz-adv-x="1351" 
d="M1221 1015q0 -229 -136 -349q-129 -113 -357 -113h-301v-553h-284v1466h571q240 0 368 -105q139 -114 139 -346zM928 1011q0 207 -248 207h-253v-416h271q104 0 167 55t63 154z" />
    <glyph glyph-name="Q" unicode="Q" horiz-adv-x="1569" 
d="M1503 62l-104 -209q-108 34 -180 76q-79 46 -135 109q-138 -63 -306 -63q-325 0 -509 198t-184 560q0 356 183.5 557t501.5 201q315 0 497.5 -199.5t182.5 -558.5q0 -175 -36 -295q-40 -135 -138 -252q102 -77 227 -124zM1157 733q0 247 -106 379q-102 126 -283 126
q-178 0 -281 -125q-109 -132 -109 -380q0 -247 107 -383q102 -129 274 -129q60 0 117 21q-83 56 -176 92l80 169q139 -49 267 -150q54 66 82 161t28 219z" />
    <glyph glyph-name="R" unicode="R" horiz-adv-x="1460" 
d="M1409 0h-340l-205 319q-107 168 -149 214.5t-86.5 62.5t-142.5 16h-58v-612h-284v1466h665q211 0 344 -105q142 -112 142 -306q0 -167 -91 -271q-96 -109 -280 -137q98 -60 144 -111q57 -63 169 -250zM1002 1036q0 87 -74.5 134.5t-210.5 47.5h-289v-372h297
q143 0 208 42q69 45 69 148z" />
    <glyph glyph-name="S" unicode="S" horiz-adv-x="1351" 
d="M1215 432q0 -197 -144 -323q-156 -136 -426 -136q-254 0 -413.5 139.5t-159.5 364.5l275 32q17 -138 93 -204.5t220 -66.5q131 0 203 57q65 51 65 131q0 75 -59 118q-70 51 -264 92q-252 54 -374 173q-111 109 -111 267q0 186 138 299q142 116 381 116
q249 0 384.5 -113.5t153.5 -330.5l-284 -13q0 111 -88 162q-67 39 -174 39t-174 -45q-62 -42 -62 -103q0 -57 53 -91.5t203 -68.5q330 -75 457 -202q107 -106 107 -293z" />
    <glyph glyph-name="T" unicode="T" horiz-adv-x="1241" 
d="M1161 1178h-417v-1178h-284v1178h-418v288h1119v-288z" />
    <glyph glyph-name="U" unicode="U" horiz-adv-x="1460" 
d="M1263 676q0 -224 -35 -354q-45 -169 -160 -252q-130 -95 -368 -95q-237 0 -368 98q-114 85 -158 252q-33 125 -33 339v802h284v-814q0 -233 59.5 -328.5t216.5 -95.5q165 0 225 98q53 87 53 309v831h284v-790z" />
    <glyph glyph-name="V" unicode="V" horiz-adv-x="1351" 
d="M1309 1466l-504 -1466h-303l-503 1466h308l356 -1085l345 1085h301z" />
    <glyph glyph-name="W" unicode="W" horiz-adv-x="1896" 
d="M1854 1466l-342 -1466h-301l-281 1096l-279 -1096h-308l-336 1466h291l212 -1007l257 1007h338l247 -1024l216 1024h286z" />
    <glyph glyph-name="X" unicode="X" horiz-adv-x="1351" 
d="M1308 0h-342l-312 507l-313 -507h-341l481 765l-436 701h332l283 -471l276 471h329l-437 -712z" />
    <glyph glyph-name="Y" unicode="Y" horiz-adv-x="1351" 
d="M1313 1466l-517 -851v-615h-283v617l-516 849h333l331 -580l325 580h327z" />
    <glyph glyph-name="Z" unicode="Z" horiz-adv-x="1241" 
d="M1164 0h-1143v267l730 931h-646v268h1030v-230l-762 -969h791v-267z" />
    <glyph glyph-name="bracketleft" unicode="[" horiz-adv-x="586" 
d="M503 -413h-478v1879h478v-221h-222v-1437h222v-221z" />
    <glyph glyph-name="backslash" unicode="\" horiz-adv-x="586" 
d="M548 -25h-202l-349 1516h199z" />
    <glyph glyph-name="bracketright" unicode="]" horiz-adv-x="586" 
d="M515 -413h-479v221h222v1439h-222v219h479v-1879z" />
    <glyph glyph-name="asciicircum" unicode="^" horiz-adv-x="963" 
d="M949 692h-272l-190 489l-189 -489h-275l361 799h214z" />
    <glyph glyph-name="underscore" unicode="_" horiz-adv-x="1133" 
d="M1103 -405h-1121v182h1121v-182z" />
    <glyph glyph-name="grave" unicode="`" horiz-adv-x="558" 
d="M522 1200l-170 -166l-259 453l202 163z" />
    <glyph glyph-name="a" unicode="a" 
d="M1066 0h-267q-15 50 -22 76.5t-14 39.5q-69 -69 -147.5 -104.5t-168.5 -35.5q-153 0 -246 87.5t-93 226.5t79 213q84 79 293 121q188 36 262 69v28q0 83 -36 115q-40 35 -147 35q-72 0 -112 -29t-66 -104l-245 46q42 156 141 227q105 75 301 75q239 0 346 -131
q83 -102 83 -278l-3 -328q0 -139 11.5 -203.5t50.5 -145.5zM742 454v56q-46 -16 -169.5 -43t-164.5 -64q-30 -27 -30 -84q0 -59 42 -102t108 -43q88 0 146 63q68 74 68 217z" />
    <glyph glyph-name="b" unicode="b" 
d="M1096 542q0 -264 -118 -418q-114 -148 -298 -148q-86 0 -161 44.5t-139 135.5v-156h-250v1466h269v-528q65 77 126 111q66 37 151 37q191 0 303 -139q117 -145 117 -405zM820 528q0 176 -56.5 259.5t-159.5 83.5q-98 0 -151 -77q-56 -82 -56 -240q0 -189 58 -276
q53 -80 159 -80q95 0 148 78q58 85 58 252z" />
    <glyph glyph-name="c" unicode="c" horiz-adv-x="1024" 
d="M1005 360q-41 -193 -146 -286q-111 -98 -307 -98q-222 0 -346 146t-124 408q0 264 123 410t352 146q181 0 282.5 -81t152.5 -257l-266 -50q-14 86 -49 124q-39 43 -116 43q-103 0 -151 -70q-51 -75 -51 -245q0 -186 49 -265.5t156 -79.5q77 0 116.5 44.5t59.5 157.5z" />
    <glyph glyph-name="d" unicode="d" 
d="M1076 0h-250v156q-61 -89 -136 -134.5t-164 -45.5q-180 0 -291 146q-116 152 -116 413q0 265 111 410q108 141 300 141q84 0 149 -36q60 -33 127 -112v528h270v-1466zM807 527q0 179 -52 261.5t-154 82.5q-96 0 -149 -77q-57 -83 -57 -240q0 -198 53 -281q48 -75 155 -75
q95 0 149.5 83t54.5 246z" />
    <glyph glyph-name="e" unicode="e" 
d="M1063 450h-676q0 -120 62.5 -192t158.5 -72q65 0 107 36t65 116l268 -47q-52 -153 -163.5 -234t-279.5 -81q-235 0 -365 146t-130 401q0 259 132 413q129 150 336 150q231 0 355 -155q130 -163 130 -481zM795 622q0 117 -56.5 183t-144.5 66q-89 0 -145.5 -66.5
t-56.5 -182.5h403z" />
    <glyph glyph-name="f" unicode="f" horiz-adv-x="615" 
d="M693 1455l-36 -196q-35 8 -63.5 12t-60.5 4q-59 0 -82 -25q-28 -30 -28 -113v-75h202v-221h-202v-841h-269v841h-150v221h150v80q0 196 69.5 272.5t244.5 76.5q114 0 225 -36z" />
    <glyph glyph-name="g" unicode="g" 
d="M1075 109q0 -281 -127 -414q-120 -126 -357 -126t-361 92q-115 85 -115 235l1 34l308 -39q-2 -8 -2 -22q0 -85 159 -85q116 0 166 45q58 53 58 188v155q-121 -172 -305 -172q-185 0 -302 147t-117 390q0 260 122 408q116 141 308 141q188 0 312 -173v149h252v-953z
M810 546q0 159 -62.5 242t-167.5 83q-101 0 -159 -76q-64 -83 -64 -242q0 -160 62 -246q58 -80 156 -80q103 0 166 79q69 86 69 240z" />
    <glyph glyph-name="h" unicode="h" 
d="M1059 0h-270v622q0 127 -40 188t-127 61q-101 0 -159 -73q-64 -81 -64 -237v-561h-269v1466h269v-534q127 154 317 154q167 0 257 -96q86 -92 86 -250v-740z" />
    <glyph glyph-name="i" unicode="i" horiz-adv-x="477" 
d="M411 1206h-270v260h270v-260zM411 0h-270v1062h270v-1062z" />
    <glyph glyph-name="j" unicode="j" horiz-adv-x="477" 
d="M405 1206h-270v260h270v-260zM405 33q0 -243 -68 -350q-72 -114 -240 -114q-46 0 -86.5 6t-100.5 24l47 240l34 -6t33 -3q61 0 84 40q27 47 27 179v1013h270v-1029z" />
    <glyph glyph-name="k" unicode="k" horiz-adv-x="1023" 
d="M1055 0h-291l-256 477l-116 -137v-340h-270v1466h270v-778l306 374h332l-348 -388z" />
    <glyph glyph-name="l" unicode="l" horiz-adv-x="477" 
d="M392 0h-270v1466h270v-1466z" />
    <glyph glyph-name="m" unicode="m" horiz-adv-x="1756" 
d="M1591 0h-270v677q0 96 -36.5 145t-106.5 49q-85 0 -132 -70q-50 -75 -50 -221v-580h-269v652q0 114 -28 163q-32 56 -113 56q-91 0 -139 -70.5t-48 -214.5v-586h-269v1062h248v-145q68 86 136 126q73 43 163 43q196 0 288 -169q68 86 133 126q71 43 159 43q154 0 244 -88
t90 -249v-749z" />
    <glyph glyph-name="n" unicode="n" 
d="M1059 0h-270v622q0 127 -40 188t-127 61q-104 0 -161 -73q-62 -79 -62 -237v-561h-269v1062h250v-156q132 180 336 180q167 0 257 -96q86 -92 86 -250v-740z" />
    <glyph glyph-name="o" unicode="o" 
d="M1102 534q0 -242 -138 -398q-142 -160 -368 -160q-229 0 -369 146q-148 154 -148 424q0 215 143 374q150 166 372 166q228 0 368 -154t140 -398zM825 533q0 155 -60.5 239.5t-169.5 84.5q-107 0 -172 -83q-68 -87 -68 -243q0 -154 65.5 -240t174.5 -86q107 0 168.5 85
t61.5 243z" />
    <glyph glyph-name="p" unicode="p" 
d="M1095 537q0 -258 -119 -412q-115 -149 -298 -149q-81 0 -140 33t-139 122v-538h-269v1469h251v-156q52 85 122 130q77 50 177 50q182 0 296 -143q119 -149 119 -406zM821 535q0 162 -57 245.5t-157 83.5t-154 -77q-57 -81 -57 -238q0 -174 56.5 -262t159.5 -88
q98 0 151 77q58 84 58 259z" />
    <glyph glyph-name="q" unicode="q" 
d="M1058 -407h-270v537q-54 -74 -114 -111q-70 -43 -158 -43q-185 0 -287.5 154t-102.5 413q0 254 108.5 398.5t295.5 144.5q97 0 161 -44q56 -39 118 -137v157h249v-1469zM797 544q0 322 -195 322q-99 0 -150 -82t-51 -256q0 -171 47.5 -250.5t143.5 -79.5q94 0 149.5 88.5
t55.5 257.5z" />
    <glyph glyph-name="r" unicode="r" horiz-adv-x="695" 
d="M742 1033l-103 -229q-21 14 -43 22t-45 8q-50 0 -86 -48q-29 -39 -44 -102q-9 -42 -15.5 -138t-6.5 -218v-328h-269v1062h250v-151q40 80 89 125q55 50 115 50q46 0 89 -15t69 -38z" />
    <glyph glyph-name="s" unicode="s" horiz-adv-x="1024" 
d="M979 332q0 -155 -106 -250q-118 -106 -338 -106q-200 0 -318 86q-113 82 -152 241l271 43q18 -85 58 -123q47 -44 141 -44q88 0 130.5 27t42.5 88q0 37 -17 56q-24 27 -92 44q-156 36 -247 71q-77 30 -128 66q-62 44 -91.5 98t-29.5 131q0 148 93 232q104 94 317 94
q199 0 299 -70q91 -63 133 -211l-255 -49q-16 66 -50 94q-40 34 -123 34q-88 0 -126 -21t-38 -67q0 -30 27 -51q16 -12 129 -46q152 -46 212 -68q123 -45 174 -90q84 -76 84 -209z" />
    <glyph glyph-name="t" unicode="t" horiz-adv-x="615" 
d="M612 18q-95 -42 -214 -42q-127 0 -195.5 102.5t-68.5 296.5v463h-123v224h123v211l271 164v-375h184v-224h-184v-428q0 -124 14.5 -162.5t60.5 -38.5q36 0 108 27z" />
    <glyph glyph-name="u" unicode="u" 
d="M1059 0h-251v156q-132 -180 -336 -180q-166 0 -256 96q-86 92 -86 250v740h269v-622q0 -127 40 -188t127 -61q104 0 161 73q62 80 62 237v561h270v-1062z" />
    <glyph glyph-name="v" unicode="v" horiz-adv-x="1024" 
d="M993 1062l-367 -1062h-243l-372 1062h283l153 -542l56 -181l28 91q7 22 10 33l19 57l155 542h278z" />
    <glyph glyph-name="w" unicode="w" horiz-adv-x="1460" 
d="M1423 1062l-308 -1062h-260l-156 683l-135 -683h-262l-303 1062h262l172 -686l137 686h260l151 -686l176 686h266z" />
    <glyph glyph-name="x" unicode="x" horiz-adv-x="1024" 
d="M1075 0h-331l-207 329l-210 -329h-315l367 547l-352 515h329l181 -292l190 292h317l-346 -503z" />
    <glyph glyph-name="y" unicode="y" horiz-adv-x="1024" 
d="M1062 1062l-360 -1022l-65 -185q-48 -140 -128 -207q-95 -79 -254 -79q-38 0 -76.5 4t-75.5 13l-24 220q68 -13 114 -13q87 0 138 56q44 48 70 148l-388 1065h287l244 -754l238 754h280z" />
    <glyph glyph-name="z" unicode="z" horiz-adv-x="1024" 
d="M991 0h-910v219l382 457l82.5 96.5t56.5 62.5l-124 -4l-360 -2v233h843v-199l-390 -468l-137 -155l139 7h418v-247z" />
    <glyph glyph-name="braceleft" unicode="{" horiz-adv-x="697" 
d="M657 -431h-51q-175 0 -263.5 50.5t-115.5 166.5q-17 74 -17 231q0 201 -20 270q-13 47 -59 83q-23 19 -54.5 29.5t-76.5 10.5v240q33 0 59 5.5t47 16.5q53 28 75 84q29 76 29 250q0 193 18 270q23 107 105 158q91 57 273 57h51v-239q-109 0 -142 -16q-54 -26 -54 -122
q-4 -67 -6.5 -125t-2.5 -114q0 -120 -34 -193q-38 -83 -138 -152q90 -53 127 -121q46 -85 46 -243l7 -212q0 -93 38 -119t159 -26v-240z" />
    <glyph glyph-name="bar" unicode="|" horiz-adv-x="551" 
d="M383 -431h-214v1922h214v-1922z" />
    <glyph glyph-name="braceright" unicode="}" horiz-adv-x="697" 
d="M655 410q-43 0 -75.5 -10.5t-55.5 -29.5q-45 -36 -59 -82q-21 -72 -21 -271q0 -161 -16 -231q-27 -115 -116 -166t-263 -51h-51v240q120 0 156 25q41 28 41 120l7 212q0 159 45 243q36 67 127 121q-99 69 -137 151q-34 73 -34 194q0 74 -3.5 133.5t-5.5 105.5
q0 96 -53 122q-32 16 -143 16v239h51q181 0 272 -57q82 -51 106 -158q17 -72 17 -270q0 -174 29 -249q22 -57 76 -85q20 -10 45.5 -16t60.5 -6v-240z" />
    <glyph glyph-name="asciitilde" unicode="~" horiz-adv-x="1188" 
d="M1084 654q-48 -53 -121 -90q-83 -42 -166 -42q-92 0 -187 35l-148 65q-82 36 -136 36q-133 0 -262 -139v259q122 138 284 138q90 0 193 -35q39 -13 161 -65q85 -36 120 -36q59 0 124 33q73 37 138 111v-270z" />
    <glyph glyph-name="c144" horiz-adv-x="40" 
d="M-184 1560h-1017v134h1017v-134z" />
    <glyph glyph-name="quoteleft" unicode="&#x2018;" horiz-adv-x="40" 
d="M-202 1637q-59 -59 -122 -86.5t-144 -27.5q-72 0 -153.5 33l-164 67t-147.5 34q-63 0 -115.5 -27t-135.5 -109v205q102 120 267 120q76 0 171 -34l162 -66.5t135 -33.5q60 0 125.5 37.5t121.5 99.5v-212z" />
    <glyph glyph-name="quotedblleft" unicode="&#x201c;" horiz-adv-x="1592" 
d="M1452 0h-279v438q0 86 -53 141t-143 55q21 -43 32 -88t11 -98v-448h-279v438q0 90 -59.5 143.5t-163.5 53.5h-409v257h401q67 0 116 42q54 46 54 120q0 68 -42 112t-102 44h-427v256h863q179 0 299 -105q131 -114 131 -307q0 -80 -39.5 -152.5t-105.5 -116.5
q87 -38 141 -128.5t54 -208.5v-448zM1112 1054q0 68 -42 112t-102 44h-25q13 -36 20 -74t7 -82q0 -42 -11.5 -83t-34.5 -79h18q67 0 116 42q54 46 54 120z" />
    <glyph glyph-name="quotedblright" unicode="&#x201d;" horiz-adv-x="2911" 
d="M2774 556q0 -245 -169 -415q-165 -166 -392 -166q-210 0 -380 162q-182 174 -182 419v654h-392v-650q0 -239 -168 -412t-396 -173q-226 0 -389 159q-176 171 -176 444v888h290v-923q0 -147 87 -235q78 -78 188 -78q106 0 187 82q85 86 85 213v941h974v-928
q0 -139 85 -227q79 -82 187 -82q115 0 191 81q80 85 80 228v247h290v-229z" />
    <glyph glyph-name="bullet" unicode="&#x2022;" horiz-adv-x="2284" 
d="M2171 0h-251v156q-68 -93 -142.5 -136.5t-174.5 -43.5q-165 0 -247 96q-76 89 -76 250v896h-260v-1218h-250v156q-68 -93 -142.5 -136.5t-174.5 -43.5q-165 0 -247 96q-76 89 -76 250v740h269v-622q0 -133 29 -187q33 -62 119 -62q102 0 153 74.5t51 235.5v965h798v-1026
q0 -133 29 -187q33 -62 119 -62q102 0 153 74.5t51 235.5v561h270v-1062z" />
    <glyph glyph-name="endash" unicode="&#x2013;" horiz-adv-x="2861" 
d="M2728 556q0 -245 -169 -415q-165 -166 -392 -166q-210 0 -380 162q-182 174 -182 419v654h-388v-954h229v-256h-521v433q-60 -59 -140 -90q-67 -26 -130 -26q-241 0 -404.5 176.5t-163.5 427.5v176h292v-227q0 -116 71 -202q79 -96 203 -96q118 0 195 89t77 227v578h970
v-928q0 -139 85 -227q79 -82 187 -82q115 0 191 81q80 85 80 228v247h290v-229z" />
    <glyph glyph-name="emdash" horiz-adv-x="2284" 
d="M2171 0h-251v156q-68 -93 -142.5 -136.5t-174.5 -43.5q-165 0 -247 96q-76 89 -76 250v896h-260v-1377h149v-248h-418v537q-65 -79 -135.5 -116.5t-162.5 -37.5q-165 0 -247 96q-76 89 -76 250v740h269v-622q0 -133 29 -187q33 -62 119 -62q99 0 151.5 75.5t52.5 234.5
v965h798v-1026q0 -133 29 -187q33 -62 119 -62q102 0 153 74.5t51 235.5v561h270v-1062z" />
    <glyph glyph-name="nonbreakingspace" unicode="&#xa0;" horiz-adv-x="586" 
 />
    <glyph glyph-name="exclamdown" unicode="&#xa1;" horiz-adv-x="1861" 
d="M1827 500q0 -187 -119 -327q0 -90 -37.5 -169.5t-106.5 -149.5t-147.5 -108.5t-164.5 -38.5q-137 -125 -327 -125q-184 0 -323 122q-89 0 -167.5 38.5t-148 109t-104.5 144.5q-38 81 -38 172q-123 141 -123 332q0 188 120 329q0 90 39 173q35 75 106 147q68 68 142 105
q81 40 168 40q140 124 329 124q183 0 322 -121q88 0 170 -40q76 -37 145 -107t106.5 -148.5t37.5 -168.5q121 -140 121 -333zM1447 559q-97 -98 -233 -98q-34 0 -71 8q201 102 258 321q-59 -220 -257 -321q32 -7 70 -7q136 0 233 97zM1410 1001q-5 18 -9.5 37t-8.5 40
q10 -34 18 -77zM1543 795q0 139 -96 237q-29 30 -55 46q25 -77 25 -160q0 -140 -74 -263t-200 -186q15 -4 34 -6t37 -2q137 0 233 98.5t96 235.5zM1253 919q0 90 -46 170q-96 163 -282 163q-34 0 -72 -8q77 -43 129 -95q145 -149 145 -354q0 -41 -6 -77.5t-19 -79.5
q151 102 151 281zM1663 500q0 42 -8 72q-35 -73 -91 -129q-146 -149 -351 -149q-76 0 -153 25q104 -153 274 -153q131 0 227 91q102 96 102 243zM955 724q9 42 9 81q0 130 -97 227q-48 48 -106 72.5t-129 24.5h-8q-40 0 -77.5 -10t-74.5 -32q-74 -44 -116 -112q75 26 158 26
q140 0 260 -75.5t181 -201.5zM1493 26q-75 -26 -158 -26q-140 0 -259.5 75t-182.5 201q-7 -32 -7 -68q0 -129 81 -222q98 -114 247 -114q136 0 233 97q30 30 46 57zM789 681q-98 153 -275 153q-136 0 -232 -98.5t-96 -235.5q0 -18 1.5 -36.5t5.5 -36.5q36 75 93 132
q145 148 348 148q79 0 155 -26zM997 -243q-75 40 -130 95q-146 147 -146 354q0 79 24 156q-149 -100 -149 -280q0 -96 52 -179q99 -154 277 -154q34 0 72 8zM705 532q-32 7 -70 7q-137 0 -233 -98.5t-96 -238.5q0 -134 96 -233q31 -33 55 -46q-25 72 -25 160
q0 144 74.5 264.5t198.5 184.5z" />
    <glyph glyph-name="cent" unicode="&#xa2;" horiz-adv-x="1341" 
d="M1327 0h-519v156q-132 -180 -336 -180q-166 0 -256 96q-86 92 -86 250v1144h269v-1026q0 -127 40 -188t127 -61q103 0 161 76q62 82 62 239v556h270v-814h268v-248z" />
    <glyph glyph-name="cent" unicode="&#x587;" horiz-adv-x="1341" 
d="M1327 0h-519v156q-132 -180 -336 -180q-166 0 -256 96q-86 92 -86 250v1144h269v-1026q0 -127 40 -188t127 -61q103 0 161 76q62 82 62 239v556h270v-814h268v-248z" />
    <glyph glyph-name="sterling" unicode="&#xa3;" horiz-adv-x="635" 
d="M463 781h-270v281h270v-281zM463 0h-270v281h270v-281z" />
    <glyph glyph-name="sterling" unicode="&#x589;" horiz-adv-x="635" 
d="M463 781h-270v281h270v-281zM463 0h-270v281h270v-281z" />
    <glyph glyph-name="currency" unicode="&#xa4;" horiz-adv-x="631" 
d="M488 531q0 -229 -78.5 -466t-228.5 -472h-185q128 271 183 500q50 209 50 432q0 227 -49.5 433t-180.5 508h184q147 -218 222 -436q83 -242 83 -499z" />
    <glyph glyph-name="yen" unicode="&#xa5;" horiz-adv-x="631" 
d="M594 -407h-185q-149 234 -226 467q-80 242 -80 471q0 256 83 498q75 220 221 437h184q-129 -301 -179.5 -509t-50.5 -432q0 -227 49 -431q54 -225 184 -501z" />
    <glyph glyph-name="brokenbar" unicode="&#xa6;" horiz-adv-x="1133" 
d="M994 522l-304 -452h-212l250 452l-250 461h212zM617 522l-303 -452h-212l249 452l-249 461h212z" />
    <glyph glyph-name="section" unicode="&#xa7;" horiz-adv-x="1133" 
d="M984 70h-212l-304 462l304 451h212l-249 -451zM608 70h-212l-304 462l304 451h212l-250 -451z" />
    <glyph glyph-name="dieresis" unicode="&#xa8;" horiz-adv-x="1061" 
d="M926 426h-834v210h834v-210z" />
    <glyph glyph-name="dieresis" unicode="&#x2014;" horiz-adv-x="1061" 
d="M926 426h-834v210h834v-210z" />
    <glyph glyph-name="copyright" unicode="&#xa9;" horiz-adv-x="635" 
d="M411 0h-270v281h270v-281z" />
    <glyph glyph-name="ordfeminine" unicode="&#xaa;" horiz-adv-x="558" 
d="M522 1200l-170 -166l-259 453l202 163z" />
    <glyph glyph-name="ordfeminine" unicode="&#x55d;" horiz-adv-x="558" 
d="M522 1200l-170 -166l-259 453l202 163z" />
    <glyph glyph-name="guillemotleft" unicode="&#xab;" horiz-adv-x="635" 
d="M404 30q0 -122 -52 -209q-60 -100 -187 -148l-53 116q81 27 117 75t36 136h-131v281h270v-251z" />
    <glyph glyph-name="logicalnot" unicode="&#xac;" horiz-adv-x="695" 
d="M564 391h-473v281h473v-281z" />
    <glyph glyph-name="minus" unicode="&#xad;" horiz-adv-x="744" 
d="M675 413q-52 -31 -135 -51.5t-170 -20.5q-114 0 -200 35q-100 40 -150 125l149 234q38 -78 123 -119q76 -37 168 -37q99 0 160 42z" />
    <glyph glyph-name="minus" unicode="&#x2010;" horiz-adv-x="744" 
d="M675 413q-52 -31 -135 -51.5t-170 -20.5q-114 0 -200 35q-100 40 -150 125l149 234q38 -78 123 -119q76 -37 168 -37q99 0 160 42z" />
    <glyph glyph-name="registered" unicode="&#xae;" horiz-adv-x="2006" 
d="M1774 0h-271v281h271v-281zM1118 0h-269v281h269v-281zM463 0h-270v281h270v-281z" />
    <glyph glyph-name="registered" unicode="&#x2026;" horiz-adv-x="2006" 
d="M1774 0h-271v281h271v-281zM1118 0h-269v281h269v-281zM463 0h-270v281h270v-281z" />
    <glyph glyph-name="macron" unicode="&#xaf;" horiz-adv-x="518" 
d="M489 1490q0 -85 -61 -141q-33 -30 -127 -77q-85 -42 -109 -74q-8 -11 -8 -30q0 -18 6 -48l-166 -37q-10 22 -17 60t-7 78q0 26 3 47t11 39q24 53 83 93q26 18 109 58q65 32 87 58q12 12 12 47q0 8 -1 19.5t-4 23.5l172 32q7 -26 12 -69.5t5 -78.5z" />
    <glyph glyph-name="macron" unicode="&#x55c;" horiz-adv-x="518" 
d="M489 1490q0 -85 -61 -141q-33 -30 -127 -77q-85 -42 -109 -74q-8 -11 -8 -30q0 -18 6 -48l-166 -37q-10 22 -17 60t-7 78q0 26 3 47t11 39q24 53 83 93q26 18 109 58q65 32 87 58q12 12 12 47q0 8 -1 19.5t-4 23.5l172 32q7 -26 12 -69.5t5 -78.5z" />
    <glyph glyph-name="degree" unicode="&#xb0;" horiz-adv-x="397" 
d="M376 1554l-211 -395l-168 59l167 373z" />
    <glyph glyph-name="degree" unicode="&#x55b;" horiz-adv-x="397" 
d="M376 1554l-211 -395l-168 59l167 373z" />
    <glyph glyph-name="plusminus" unicode="&#xb1;" horiz-adv-x="581" 
d="M544 1390q0 -113 -71 -175q-65 -56 -166 -56v146q48 0 69 19q17 15 17 43t-20 46q-25 22 -77 22t-92 -34q-46 -39 -46 -103q0 -83 72 -182l-120 -82q-50 61 -74 115q-29 65 -29 138q0 133 93 219q85 79 201 79q123 0 191 -75q52 -57 52 -120z" />
    <glyph glyph-name="plusminus" unicode="&#x55e;" horiz-adv-x="581" 
d="M544 1390q0 -113 -71 -175q-65 -56 -166 -56v146q48 0 69 19q17 15 17 43t-20 46q-25 22 -77 22t-92 -34q-46 -39 -46 -103q0 -83 72 -182l-120 -82q-50 61 -74 115q-29 65 -29 138q0 133 93 219q85 79 201 79q123 0 191 -75q52 -57 52 -120z" />
    <glyph glyph-name="twosuperior" unicode="&#xb2;" horiz-adv-x="1448" 
d="M1366 87l-208 -224l-195 192q-55 -34 -131.5 -56.5t-150.5 -22.5q-216 0 -379 162q-172 171 -172 423v905h285v-942q0 -128 78 -210.5t188 -82.5q108 0 189 84.5t81 208.5v942h284v-910q0 -78 -18.5 -147t-48.5 -127z" />
    <glyph glyph-name="twosuperior" unicode="&#x531;" horiz-adv-x="1448" 
d="M1366 87l-208 -224l-195 192q-55 -34 -131.5 -56.5t-150.5 -22.5q-216 0 -379 162q-172 171 -172 423v905h285v-942q0 -128 78 -210.5t188 -82.5q108 0 189 84.5t81 208.5v942h284v-910q0 -78 -18.5 -147t-48.5 -127z" />
    <glyph glyph-name="threesuperior" unicode="&#xb3;" horiz-adv-x="1756" 
d="M1568 0h-249v145q-69 -88 -130 -126q-69 -43 -157 -43q-198 0 -288 169q-70 -89 -127 -126q-66 -43 -153 -43q-154 0 -244 88t-90 249v749h269v-677q0 -96 36.5 -145t106.5 -49q84 0 127 71.5t43 219.5v580h270v-652q0 -114 28 -163q32 -56 113 -56q90 0 132.5 69.5
t42.5 215.5v586h270v-1062z" />
    <glyph glyph-name="threesuperior" unicode="&#x561;" horiz-adv-x="1756" 
d="M1568 0h-249v145q-69 -88 -130 -126q-69 -43 -157 -43q-198 0 -288 169q-70 -89 -127 -126q-66 -43 -153 -43q-154 0 -244 88t-90 249v749h269v-677q0 -96 36.5 -145t106.5 -49q84 0 127 71.5t43 219.5v580h270v-652q0 -114 28 -163q32 -56 113 -56q90 0 132.5 69.5
t42.5 215.5v586h270v-1062z" />
    <glyph glyph-name="acute" unicode="&#xb4;" horiz-adv-x="1405" 
d="M1291 322h-875v-322h-286v882q0 262 161.5 435.5t391.5 173.5q237 0 399 -178q159 -175 159 -427v-147h-287v198q0 115 -71 203q-78 96 -199 96q-116 0 -192 -90t-76 -227v-341h875v-256z" />
    <glyph glyph-name="acute" unicode="&#x532;" horiz-adv-x="1405" 
d="M1291 322h-875v-322h-286v882q0 262 161.5 435.5t391.5 173.5q237 0 399 -178q159 -175 159 -427v-147h-287v198q0 115 -71 203q-78 96 -199 96q-116 0 -192 -90t-76 -227v-341h875v-256z" />
    <glyph glyph-name="mu" unicode="&#xb5;" 
d="M1056 0h-657v-407h-269v1469h250v-156q68 93 140 135q77 45 177 45q165 0 247 -96q76 -89 76 -250v-271h-269v153q0 133 -29 187q-33 62 -119 62q-102 0 -153 -74.5t-51 -235.5v-313h657v-248z" />
    <glyph glyph-name="mu" unicode="&#x562;" 
d="M1056 0h-657v-407h-269v1469h250v-156q68 93 140 135q77 45 177 45q165 0 247 -96q76 -89 76 -250v-271h-269v153q0 133 -29 187q-33 62 -119 62q-102 0 -153 -74.5t-51 -235.5v-313h657v-248z" />
    <glyph glyph-name="paragraph" unicode="&#xb6;" horiz-adv-x="1476" 
d="M1452 322h-216v-322h-291v322h-275q-256 0 -409 158t-153 430q0 231 161 403q166 178 401 178q237 0 408 -184q158 -170 158 -370v-359h216v-256zM945 578v368q0 106 -73 193q-81 97 -202 97q-114 0 -188 -79q-83 -88 -83 -247q0 -143 76 -235q80 -97 211 -97h259z" />
    <glyph glyph-name="paragraph" unicode="&#x533;" horiz-adv-x="1476" 
d="M1452 322h-216v-322h-291v322h-275q-256 0 -409 158t-153 430q0 231 161 403q166 178 401 178q237 0 408 -184q158 -170 158 -370v-359h216v-256zM945 578v368q0 106 -73 193q-81 97 -202 97q-114 0 -188 -79q-83 -88 -83 -247q0 -143 76 -235q80 -97 211 -97h259z" />
    <glyph glyph-name="periodcentered" unicode="&#xb7;" horiz-adv-x="1280" 
d="M1209 0h-170v-407h-270v537q-53 -73 -119 -111q-74 -43 -163 -43q-186 0 -293 154.5t-107 412.5q0 252 113 397.5t301 145.5q99 0 166 -44q62 -41 123 -137v157h249v-814h170v-248zM778 544q0 159 -53 240.5t-152 81.5q-100 0 -153 -80q-57 -86 -57 -258q0 -168 52 -249
t149 -81q94 0 152 86q62 93 62 260z" />
    <glyph glyph-name="periodcentered" unicode="&#x2219;" horiz-adv-x="1280" 
d="M1209 0h-170v-407h-270v537q-53 -73 -119 -111q-74 -43 -163 -43q-186 0 -293 154.5t-107 412.5q0 252 113 397.5t301 145.5q99 0 166 -44q62 -41 123 -137v157h249v-814h170v-248zM778 544q0 159 -53 240.5t-152 81.5q-100 0 -153 -80q-57 -86 -57 -258q0 -168 52 -249
t149 -81q94 0 152 86q62 93 62 260z" />
    <glyph glyph-name="periodcentered" unicode="&#x563;" horiz-adv-x="1280" 
d="M1209 0h-170v-407h-270v537q-53 -73 -119 -111q-74 -43 -163 -43q-186 0 -293 154.5t-107 412.5q0 252 113 397.5t301 145.5q99 0 166 -44q62 -41 123 -137v157h249v-814h170v-248zM778 544q0 159 -53 240.5t-152 81.5q-100 0 -153 -80q-57 -86 -57 -258q0 -168 52 -249
t149 -81q94 0 152 86q62 93 62 260z" />
    <glyph glyph-name="cedilla" unicode="&#xb8;" horiz-adv-x="1465" 
d="M1438 322h-224v-322h-291v928q0 139 -85 227q-79 82 -187 82q-115 0 -192 -81q-82 -87 -82 -228v-189h-291v171q0 245 170 415q166 166 395 166q211 0 381 -162q182 -174 182 -419v-332h224v-256z" />
    <glyph glyph-name="cedilla" unicode="&#x534;" horiz-adv-x="1465" 
d="M1438 322h-224v-322h-291v928q0 139 -85 227q-79 82 -187 82q-115 0 -192 -81q-82 -87 -82 -228v-189h-291v171q0 245 170 415q166 166 395 166q211 0 381 -162q182 -174 182 -419v-332h224v-256z" />
    <glyph glyph-name="onesuperior" unicode="&#xb9;" horiz-adv-x="1190" 
d="M1189 0h-169v-407h-269v1029q0 133 -29 187q-33 62 -119 62q-102 0 -153 -74.5t-51 -235.5v-561h-269v1062h250v-156q68 93 140 135q77 45 177 45q165 0 247 -96q76 -89 76 -250v-492h169v-248z" />
    <glyph glyph-name="onesuperior" unicode="&#x564;" horiz-adv-x="1190" 
d="M1189 0h-169v-407h-269v1029q0 133 -29 187q-33 62 -119 62q-102 0 -153 -74.5t-51 -235.5v-561h-269v1062h250v-156q68 93 140 135q77 45 177 45q165 0 247 -96q76 -89 76 -250v-492h169v-248z" />
    <glyph glyph-name="ordmasculine" unicode="&#xba;" horiz-adv-x="1405" 
d="M1301 892h-884v-337q0 -125 75.5 -210t193.5 -85q106 0 185 82q83 87 83 213v175h288v-164q0 -254 -174 -427q-165 -164 -382 -164q-225 0 -387 166q-169 173 -169 428v897h287v-317h884v-257z" />
    <glyph glyph-name="ordmasculine" unicode="&#x535;" horiz-adv-x="1405" 
d="M1301 892h-884v-337q0 -125 75.5 -210t193.5 -85q106 0 185 82q83 87 83 213v175h288v-164q0 -254 -174 -427q-165 -164 -382 -164q-225 0 -387 166q-169 173 -169 428v897h287v-317h884v-257z" />
    <glyph glyph-name="guillemotright" unicode="&#xbb;" 
d="M1056 814h-657v-374q0 -133 29 -187q33 -62 119 -62q101 0 152.5 77t51.5 238v87h269v-593h-250v156q-68 -93 -142.5 -136.5t-174.5 -43.5q-165 0 -247 96q-76 89 -76 250v1144h269v-404h657v-248z" />
    <glyph glyph-name="guillemotright" unicode="&#x565;" 
d="M1056 814h-657v-374q0 -133 29 -187q33 -62 119 -62q101 0 152.5 77t51.5 238v87h269v-593h-250v156q-68 -93 -142.5 -136.5t-174.5 -43.5q-165 0 -247 96q-76 89 -76 250v1144h269v-404h657v-248z" />
    <glyph glyph-name="onequarter" unicode="&#xbc;" horiz-adv-x="1437" 
d="M1007 950q0 134 -84 212q-80 74 -204 74q-121 0 -199 -73q-84 -79 -84 -215q0 -11 3 -33t5 -33l-288 -48q-4 19 -5 37t-1 43v28q0 250 168 403q160 146 401 146q242 0 404 -143q171 -151 171 -395q0 -162 -62.5 -325.5t-158.5 -267.5q-22 -24 -55 -54q-44 -40 -67 -50
h343v-256h-1144v365h286v-118q202 0 342 123q117 103 178 279q51 147 51 301z" />
    <glyph glyph-name="onequarter" unicode="&#x536;" horiz-adv-x="1437" 
d="M1007 950q0 134 -84 212q-80 74 -204 74q-121 0 -199 -73q-84 -79 -84 -215q0 -11 3 -33t5 -33l-288 -48q-4 19 -5 37t-1 43v28q0 250 168 403q160 146 401 146q242 0 404 -143q171 -151 171 -395q0 -162 -62.5 -325.5t-158.5 -267.5q-22 -24 -55 -54q-44 -40 -67 -50
h343v-256h-1144v365h286v-118q202 0 342 123q117 103 178 279q51 147 51 301z" />
    <glyph glyph-name="onehalf" unicode="&#xbd;" horiz-adv-x="1280" 
d="M1209 -407h-440v537q-53 -73 -119 -111q-74 -43 -163 -43q-186 0 -293 154.5t-107 412.5q0 252 113 397.5t301 145.5q99 0 166 -44q62 -41 123 -137v157h249v-1221h170v-248zM778 544q0 159 -53 240.5t-152 81.5q-100 0 -153 -80q-57 -86 -57 -258q0 -168 52 -249
t149 -81q94 0 152 86q62 93 62 260z" />
    <glyph glyph-name="onehalf" unicode="&#x566;" horiz-adv-x="1280" 
d="M1209 -407h-440v537q-53 -73 -119 -111q-74 -43 -163 -43q-186 0 -293 154.5t-107 412.5q0 252 113 397.5t301 145.5q99 0 166 -44q62 -41 123 -137v157h249v-1221h170v-248zM778 544q0 159 -53 240.5t-152 81.5q-100 0 -153 -80q-57 -86 -57 -258q0 -168 52 -249
t149 -81q94 0 152 86q62 93 62 260z" />
    <glyph glyph-name="threequarters" unicode="&#xbe;" horiz-adv-x="1217" 
d="M1116 892h-705v-635h613v-257l-894 -1v1467h281v-317h705v-257z" />
    <glyph glyph-name="threequarters" unicode="&#x537;" horiz-adv-x="1217" 
d="M1116 892h-705v-635h613v-257l-894 -1v1467h281v-317h705v-257z" />
    <glyph glyph-name="questiondown" unicode="&#xbf;" horiz-adv-x="957" 
d="M915 814h-516v-566h393v-248h-662v1466h269v-404h516v-248z" />
    <glyph glyph-name="questiondown" unicode="&#x567;" horiz-adv-x="957" 
d="M915 814h-516v-566h393v-248h-662v1466h269v-404h516v-248z" />
    <glyph glyph-name="Agrave" unicode="&#xc0;" horiz-adv-x="1405" 
d="M1291 0h-1161v882q0 262 161.5 435.5t391.5 173.5q237 0 399 -178q159 -175 159 -427v-177h-287v228q0 115 -71 203q-78 96 -199 96q-116 0 -192 -90t-76 -227v-663h875v-256z" />
    <glyph glyph-name="Agrave" unicode="&#x538;" horiz-adv-x="1405" 
d="M1291 0h-1161v882q0 262 161.5 435.5t391.5 173.5q237 0 399 -178q159 -175 159 -427v-177h-287v228q0 115 -71 203q-78 96 -199 96q-116 0 -192 -90t-76 -227v-663h875v-256z" />
    <glyph glyph-name="Aacute" unicode="&#xc1;" 
d="M1056 -407h-926v1469h250v-156q68 93 140 135q77 45 177 45q165 0 247 -96q76 -89 76 -250v-740h-269v622q0 133 -29 187q-33 62 -119 62q-102 0 -153 -74.5t-51 -235.5v-720h657v-248z" />
    <glyph glyph-name="Aacute" unicode="&#x568;" 
d="M1056 -407h-926v1469h250v-156q68 93 140 135q77 45 177 45q165 0 247 -96q76 -89 76 -250v-740h-269v622q0 133 -29 187q-33 62 -119 62q-102 0 -153 -74.5t-51 -235.5v-720h657v-248z" />
    <glyph glyph-name="Acircumflex" unicode="&#xc2;" horiz-adv-x="1654" 
d="M1644 635h-206v-176q0 -213 -125.5 -349.5t-322.5 -136.5q-167 0 -297 110q-155 132 -155 362q0 184 115 310q125 137 329 137h164v7q0 144 -97 238q-101 98 -266 98q-156 0 -258 -99t-102 -246v-892h-293v883q0 247 177 423q188 187 479 187q281 0 472 -183
q180 -172 180 -396v-20h206v-257zM1144 434v201h-144q-67 0 -118 -58t-51 -143q0 -97 42.5 -150.5t119.5 -53.5q74 0 114 60q37 55 37 144z" />
    <glyph glyph-name="Acircumflex" unicode="&#x539;" horiz-adv-x="1654" 
d="M1644 635h-206v-176q0 -213 -125.5 -349.5t-322.5 -136.5q-167 0 -297 110q-155 132 -155 362q0 184 115 310q125 137 329 137h164v7q0 144 -97 238q-101 98 -266 98q-156 0 -258 -99t-102 -246v-892h-293v883q0 247 177 423q188 187 479 187q281 0 472 -183
q180 -172 180 -396v-20h206v-257zM1144 434v201h-144q-67 0 -118 -58t-51 -143q0 -97 42.5 -150.5t119.5 -53.5q74 0 114 60q37 55 37 144z" />
    <glyph glyph-name="Atilde" unicode="&#xc3;" horiz-adv-x="1383" 
d="M1350 408h-116v-90q0 -126 -116.5 -234t-265.5 -108t-243 85q-100 91 -100 248q0 169 100 261q93 86 241 86h116q0 8 -2 25.5t-4 25.5q-17 92 -88 130q-64 34 -192 34q-120 0 -195 -73q-86 -83 -86 -237v-968h-269v1469h250v-156q66 91 165.5 135.5t239.5 44.5
q171 0 293.5 -88t146.5 -235q5 -28 8 -54.5t3 -52.5h114v-248zM966 324v84h-109q-114 0 -114 -99q0 -61 30 -89t87 -28q47 0 76.5 33t29.5 99z" />
    <glyph glyph-name="Atilde" unicode="&#x569;" horiz-adv-x="1383" 
d="M1350 408h-116v-90q0 -126 -116.5 -234t-265.5 -108t-243 85q-100 91 -100 248q0 169 100 261q93 86 241 86h116q0 8 -2 25.5t-4 25.5q-17 92 -88 130q-64 34 -192 34q-120 0 -195 -73q-86 -83 -86 -237v-968h-269v1469h250v-156q66 91 165.5 135.5t239.5 44.5
q171 0 293.5 -88t146.5 -235q5 -28 8 -54.5t3 -52.5h114v-248zM966 324v84h-109q-114 0 -114 -99q0 -61 30 -89t87 -28q47 0 76.5 33t29.5 99z" />
    <glyph glyph-name="Adieresis" unicode="&#xc4;" horiz-adv-x="1475" 
d="M1452 892h-216v-362q0 -200 -157 -370q-170 -184 -409 -184q-234 0 -400 177q-162 173 -162 403q0 272 153.5 432.5t408.5 160.5h275v318h291v-318h216v-257zM945 521v371h-258q-130 0 -211 -99q-77 -95 -77 -237q0 -131 82 -228t189 -97q121 0 202 97q73 87 73 193z" />
    <glyph glyph-name="Adieresis" unicode="&#x53a;" horiz-adv-x="1475" 
d="M1452 892h-216v-362q0 -200 -157 -370q-170 -184 -409 -184q-234 0 -400 177q-162 173 -162 403q0 272 153.5 432.5t408.5 160.5h275v318h291v-318h216v-257zM945 521v371h-258q-130 0 -211 -99q-77 -95 -77 -237q0 -131 82 -228t189 -97q121 0 202 97q73 87 73 193z" />
    <glyph glyph-name="Aring" unicode="&#xc5;" horiz-adv-x="1212" 
d="M1212 814h-173v-295q0 -283 -139 -422q-124 -124 -343 -124q-240 0 -357 148q-112 141 -112 413q0 227 108 371q118 157 326 157h247v404h270v-404h173v-248zM769 523v291h-148q-153 0 -205.5 -55.5t-52.5 -220.5q0 -166 47 -251q53 -95 166 -95q103 0 150 88
q43 81 43 243z" />
    <glyph glyph-name="Aring" unicode="&#x56a;" horiz-adv-x="1212" 
d="M1212 814h-173v-295q0 -283 -139 -422q-124 -124 -343 -124q-240 0 -357 148q-112 141 -112 413q0 227 108 371q118 157 326 157h247v404h270v-404h173v-248zM769 523v291h-148q-153 0 -205.5 -55.5t-52.5 -220.5q0 -166 47 -251q53 -95 166 -95q103 0 150 88
q43 81 43 243z" />
    <glyph glyph-name="AE" unicode="&#xc6;" horiz-adv-x="1351" 
d="M1236 347h-287v227q0 117 -69 203q-77 96 -198 96q-116 0 -191.5 -89.5t-75.5 -227.5v-556h-285v1466h285v-415q60 38 132.5 57t132.5 19q236 0 396 -176.5t160 -427.5v-176z" />
    <glyph glyph-name="AE" unicode="&#x53b;" horiz-adv-x="1351" 
d="M1236 347h-287v227q0 117 -69 203q-77 96 -198 96q-116 0 -191.5 -89.5t-75.5 -227.5v-556h-285v1466h285v-415q60 38 132.5 57t132.5 19q236 0 396 -176.5t160 -427.5v-176z" />
    <glyph glyph-name="Ccedilla" unicode="&#xc7;" 
d="M1020 0h-269v622q0 133 -29 187q-33 62 -119 62q-99 0 -150 -73q-54 -78 -54 -237v-968h-269v1873h269v-534q65 79 133 115q73 39 165 39q165 0 247 -96q76 -89 76 -250v-740z" />
    <glyph glyph-name="Ccedilla" unicode="&#x56b;" 
d="M1020 0h-269v622q0 133 -29 187q-33 62 -119 62q-99 0 -150 -73q-54 -78 -54 -237v-968h-269v1873h269v-534q65 79 133 115q73 39 165 39q165 0 247 -96q76 -89 76 -250v-740z" />
    <glyph glyph-name="Egrave" unicode="&#xc8;" horiz-adv-x="1133" 
d="M1023 0h-879v1466h278v-1210h601v-256z" />
    <glyph glyph-name="Egrave" unicode="&#x53c;" horiz-adv-x="1133" 
d="M1023 0h-879v1466h278v-1210h601v-256z" />
    <glyph glyph-name="Eacute" unicode="&#xc9;" horiz-adv-x="653" 
d="M644 -407h-514v1469h269v-1221h245v-248z" />
    <glyph glyph-name="Eacute" unicode="&#x56c;" horiz-adv-x="653" 
d="M644 -407h-514v1469h269v-1221h245v-248z" />
    <glyph glyph-name="Ecircumflex" unicode="&#xca;" horiz-adv-x="1728" 
d="M1572 504q0 -208 -108 -355q-129 -175 -363 -175q-232 0 -368 159q-126 147 -126 371v132h-190v-638h-287v1468h287v-574h481v-404q0 -124 53 -191t153 -67q85 0 131 73t46 190v399h291v-388z" />
    <glyph glyph-name="Ecircumflex" unicode="&#x53d;" horiz-adv-x="1728" 
d="M1572 504q0 -208 -108 -355q-129 -175 -363 -175q-232 0 -368 159q-126 147 -126 371v132h-190v-638h-287v1468h287v-574h481v-404q0 -124 53 -191t153 -67q85 0 131 73t46 190v399h291v-388z" />
    <glyph glyph-name="Edieresis" unicode="&#xcb;" horiz-adv-x="1756" 
d="M1552 0h-250v156q-73 -99 -126 -135q-66 -45 -162 -45q-164 0 -241 96q-70 87 -70 250l9 300q0 115 -6 152q-16 97 -113 97q-98 0 -146 -74.5t-48 -235.5v-968h-269v1873h269v-554q56 88 125.5 131t162.5 43q162 0 233 -96q62 -84 62 -250l-10 -300q0 -137 23 -187
q29 -62 113 -62q95 0 137 80q38 73 38 230v561h269v-1062z" />
    <glyph glyph-name="Edieresis" unicode="&#x56d;" horiz-adv-x="1756" 
d="M1552 0h-250v156q-73 -99 -126 -135q-66 -45 -162 -45q-164 0 -241 96q-70 87 -70 250l9 300q0 115 -6 152q-16 97 -113 97q-98 0 -146 -74.5t-48 -235.5v-968h-269v1873h269v-554q56 88 125.5 131t162.5 43q162 0 233 -96q62 -84 62 -250l-10 -300q0 -137 23 -187
q29 -62 113 -62q95 0 137 80q38 73 38 230v561h269v-1062z" />
    <glyph glyph-name="Igrave" unicode="&#xcc;" horiz-adv-x="1573" 
d="M1466 1405l-89 -262q-2 1 -125 55q-57 25 -112.5 38t-103.5 21.5t-82 8.5q-25 0 -51 -7l-42 -14q47 -8 116 -29q92 -28 139 -58q142 -90 212.5 -224.5t70.5 -325.5q0 -265 -154 -441q-169 -193 -460 -193q-285 0 -459 197q-161 183 -161 447q0 124 45 255t118 219h-198
v374h285v-117q28 0 83 -2.5t70 -2.5q111 71 220 108q124 42 250 42q104 0 209.5 -21.5t218.5 -67.5zM1111 606q0 204 -149 334q-128 112 -314 131q-90 -76 -143 -199.5t-53 -255.5q0 -160 84 -267q92 -117 251 -117q150 0 237 103t87 271z" />
    <glyph glyph-name="Igrave" unicode="&#x53e;" horiz-adv-x="1573" 
d="M1466 1405l-89 -262q-2 1 -125 55q-57 25 -112.5 38t-103.5 21.5t-82 8.5q-25 0 -51 -7l-42 -14q47 -8 116 -29q92 -28 139 -58q142 -90 212.5 -224.5t70.5 -325.5q0 -265 -154 -441q-169 -193 -460 -193q-285 0 -459 197q-161 183 -161 447q0 124 45 255t118 219h-198
v374h285v-117q28 0 83 -2.5t70 -2.5q111 71 220 108q124 42 250 42q104 0 209.5 -21.5t218.5 -67.5zM1111 606q0 204 -149 334q-128 112 -314 131q-90 -76 -143 -199.5t-53 -255.5q0 -160 84 -267q92 -117 251 -117q150 0 237 103t87 271z" />
    <glyph glyph-name="Iacute" unicode="&#xcd;" 
d="M1081 814h-136q58 -50 81 -128q18 -61 18 -152q0 -242 -131 -398q-134 -160 -346 -160q-218 0 -350 146q-138 153 -138 424q0 186 82.5 319t230.5 182l-164 135l241 348l202 -159l-103 -155l185 -154h328v-248zM767 533q0 142 -75 241q-49 65 -112 96q-105 0 -165 -89
t-60 -250q0 -155 56 -240.5t155 -85.5q201 0 201 328z" />
    <glyph glyph-name="Iacute" unicode="&#x56e;" 
d="M1081 814h-136q58 -50 81 -128q18 -61 18 -152q0 -242 -131 -398q-134 -160 -346 -160q-218 0 -350 146q-138 153 -138 424q0 186 82.5 319t230.5 182l-164 135l241 348l202 -159l-103 -155l185 -154h328v-248zM767 533q0 142 -75 241q-49 65 -112 96q-105 0 -165 -89
t-60 -250q0 -155 56 -240.5t155 -85.5q201 0 201 328z" />
    <glyph glyph-name="Icircumflex" unicode="&#xce;" horiz-adv-x="1405" 
d="M1235 0h-286v433q-50 -62 -133 -92q-66 -24 -132 -24q-235 0 -395 177t-160 427v545h286v-566q0 -118 70 -217q79 -111 198 -111q116 0 191 89t75 227v209h286v-1097z" />
    <glyph glyph-name="Icircumflex" unicode="&#x53f;" horiz-adv-x="1405" 
d="M1235 0h-286v433q-50 -62 -133 -92q-66 -24 -132 -24q-235 0 -395 177t-160 427v545h286v-566q0 -118 70 -217q79 -111 198 -111q116 0 191 89t75 227v209h286v-1097z" />
    <glyph glyph-name="Idieresis" unicode="&#xcf;" 
d="M1020 -407h-269v537q-65 -79 -135.5 -116.5t-162.5 -37.5q-165 0 -247 96q-76 89 -76 250v1144h269v-1026q0 -133 29 -187q33 -62 119 -62q99 0 151.5 75.5t52.5 234.5v561h269v-1469z" />
    <glyph glyph-name="Idieresis" unicode="&#x56f;" 
d="M1020 -407h-269v537q-65 -79 -135.5 -116.5t-162.5 -37.5q-165 0 -247 96q-76 89 -76 250v1144h269v-1026q0 -133 29 -187q33 -62 119 -62q99 0 151.5 75.5t52.5 234.5v561h269v-1469z" />
    <glyph glyph-name="Eth" unicode="&#xd0;" horiz-adv-x="1174" 
d="M1020 0h-279v438q0 90 -59.5 143.5t-163.5 53.5h-409v257h401q67 0 116 42q54 46 54 120q0 68 -42 112t-102 44h-427v256h431q179 0 299 -105q131 -114 131 -307q0 -80 -39.5 -152.5t-105.5 -116.5q87 -38 141 -128.5t54 -208.5v-448z" />
    <glyph glyph-name="Eth" unicode="&#x540;" horiz-adv-x="1174" 
d="M1020 0h-279v438q0 90 -59.5 143.5t-163.5 53.5h-409v257h401q67 0 116 42q54 46 54 120q0 68 -42 112t-102 44h-427v256h431q179 0 299 -105q131 -114 131 -307q0 -80 -39.5 -152.5t-105.5 -116.5q87 -38 141 -128.5t54 -208.5v-448z" />
    <glyph glyph-name="Ntilde" unicode="&#xd1;" 
d="M1020 0h-269v622q0 133 -29 187q-33 62 -119 62q-99 0 -150 -73q-54 -78 -54 -237v-561h-269v1466h269v-534q65 79 133 115q73 39 165 39q165 0 247 -96q76 -89 76 -250v-740z" />
    <glyph glyph-name="Ntilde" unicode="&#x570;" 
d="M1020 0h-269v622q0 133 -29 187q-33 62 -119 62q-99 0 -150 -73q-54 -78 -54 -237v-561h-269v1466h269v-534q65 79 133 115q73 39 165 39q165 0 247 -96q76 -89 76 -250v-740z" />
    <glyph glyph-name="Ograve" unicode="&#xd2;" horiz-adv-x="1437" 
d="M1253 176l-170 -216l-115 103q-11 10 -109 92q-94 -98 -212 -146q-97 -40 -191 -40q-140 0 -243.5 97t-103.5 229q0 137 108 234t255 97q87 0 187.5 -30t187.5 -82q64 64 95 180q27 100 27 223q0 141 -83 232t-201 91q-127 0 -204 -90t-77 -243q0 -11 2.5 -28t15.5 -68
l-274 -53q-12 36 -18 70q-9 48 -9 82q0 235 166.5 408t395.5 173q225 0 397.5 -170.5t172.5 -400.5q0 -152 -58 -304.5t-149 -254.5l102 -89zM653 296q-39 28 -95.5 52.5t-87.5 24.5q-60 0 -92.5 -21t-32.5 -63q0 -36 42 -59q36 -20 76 -20q42 0 100 25.5t90 60.5z" />
    <glyph glyph-name="Ograve" unicode="&#x541;" horiz-adv-x="1437" 
d="M1253 176l-170 -216l-115 103q-11 10 -109 92q-94 -98 -212 -146q-97 -40 -191 -40q-140 0 -243.5 97t-103.5 229q0 137 108 234t255 97q87 0 187.5 -30t187.5 -82q64 64 95 180q27 100 27 223q0 141 -83 232t-201 91q-127 0 -204 -90t-77 -243q0 -11 2.5 -28t15.5 -68
l-274 -53q-12 36 -18 70q-9 48 -9 82q0 235 166.5 408t395.5 173q225 0 397.5 -170.5t172.5 -400.5q0 -152 -58 -304.5t-149 -254.5l102 -89zM653 296q-39 28 -95.5 52.5t-87.5 24.5q-60 0 -92.5 -21t-32.5 -63q0 -36 42 -59q36 -20 76 -20q42 0 100 25.5t90 60.5z" />
    <glyph glyph-name="Oacute" unicode="&#xd3;" 
d="M713 453v68q0 111 -82 199q-56 60 -133 96q-58 -41 -103.5 -132t-45.5 -171q0 -169 37 -235q45 -80 173 -80q70 0 114 80q40 73 40 175zM667 963q81 -47 147 -110q79 -75 121 -160q49 -98 49 -209v-484h-250v150q-65 -77 -100 -105q-85 -68 -184 -68q-191 0 -290 126
q-87 111 -87 294q0 196 102 370q95 162 272 295l-180 126l244 342l212 -156l-123 -168l195 -144z" />
    <glyph glyph-name="Oacute" unicode="&#x571;" 
d="M713 453v68q0 111 -82 199q-56 60 -133 96q-58 -41 -103.5 -132t-45.5 -171q0 -169 37 -235q45 -80 173 -80q70 0 114 80q40 73 40 175zM667 963q81 -47 147 -110q79 -75 121 -160q49 -98 49 -209v-484h-250v150q-65 -77 -100 -105q-85 -68 -184 -68q-191 0 -290 126
q-87 111 -87 294q0 196 102 370q95 162 272 295l-180 126l244 342l212 -156l-123 -168l195 -144z" />
    <glyph glyph-name="Ocircumflex" unicode="&#xd4;" horiz-adv-x="1465" 
d="M1444 0h-520v928q0 139 -85 227q-79 82 -188 82q-115 0 -192 -81q-82 -87 -82 -228v-219h-291v201q0 245 170 415q166 166 395 166q212 0 382 -162q182 -173 182 -419v-654h229v-256z" />
    <glyph glyph-name="Ocircumflex" unicode="&#x542;" horiz-adv-x="1465" 
d="M1444 0h-520v928q0 139 -85 227q-79 82 -188 82q-115 0 -192 -81q-82 -87 -82 -228v-219h-291v201q0 245 170 415q166 166 395 166q212 0 382 -162q182 -173 182 -419v-654h229v-256z" />
    <glyph glyph-name="Otilde" unicode="&#xd5;" horiz-adv-x="1190" 
d="M1189 -407h-438v1029q0 133 -29 187q-33 62 -119 62q-102 0 -153 -74.5t-51 -235.5v-561h-269v1062h250v-156q68 93 140 135q77 45 177 45q165 0 247 -96q76 -89 76 -250v-899h169v-248z" />
    <glyph glyph-name="Otilde" unicode="&#x572;" horiz-adv-x="1190" 
d="M1189 -407h-438v1029q0 133 -29 187q-33 62 -119 62q-102 0 -153 -74.5t-51 -235.5v-561h-269v1062h250v-156q68 93 140 135q77 45 177 45q165 0 247 -96q76 -89 76 -250v-899h169v-248z" />
    <glyph glyph-name="Odieresis" unicode="&#xd6;" horiz-adv-x="1405" 
d="M1236 0h-1106v490q0 138 37.5 274t106.5 235h-144v256h250h38.5t49.5 -4q120 104 260 159.5t280 55.5h228v-256h-247q-41 0 -109 -22t-87 -43q207 -83 325 -257.5t118 -406.5v-481zM949 256v186q0 208 -120 343q-106 119 -288 163q-65 -84 -93 -179q-33 -113 -33 -294
v-219h534z" />
    <glyph glyph-name="Odieresis" unicode="&#x543;" horiz-adv-x="1405" 
d="M1236 0h-1106v490q0 138 37.5 274t106.5 235h-144v256h250h38.5t49.5 -4q120 104 260 159.5t280 55.5h228v-256h-247q-41 0 -109 -22t-87 -43q207 -83 325 -257.5t118 -406.5v-481zM949 256v186q0 208 -120 343q-106 119 -288 163q-65 -84 -93 -179q-33 -113 -33 -294
v-219h534z" />
    <glyph glyph-name="multiply" unicode="&#xd7;" 
d="M1013 -2h-250v150q-72 -89 -129 -125q-75 -48 -178 -48q-157 0 -255 116t-98 297q0 115 6 176q12 119 51 249h-90v249h201q106 191 245 292q155 112 349 112h127v-249h-143q-93 0 -172.5 -44.5t-121.5 -125.5q177 0 311 -133q147 -146 147 -373v-543zM745 438v89
q0 156 -81 223q-75 62 -234 62q-31 -88 -41 -140q-18 -91 -18 -225q0 -106 37 -176q42 -80 120 -80q102 0 159.5 61.5t57.5 185.5z" />
    <glyph glyph-name="multiply" unicode="&#x573;" 
d="M1013 -2h-250v150q-72 -89 -129 -125q-75 -48 -178 -48q-157 0 -255 116t-98 297q0 115 6 176q12 119 51 249h-90v249h201q106 191 245 292q155 112 349 112h127v-249h-143q-93 0 -172.5 -44.5t-121.5 -125.5q177 0 311 -133q147 -146 147 -373v-543zM745 438v89
q0 156 -81 223q-75 62 -234 62q-31 -88 -41 -140q-18 -91 -18 -225q0 -106 37 -176q42 -80 120 -80q102 0 159.5 61.5t57.5 185.5z" />
    <glyph glyph-name="Oslash" unicode="&#xd8;" horiz-adv-x="1518" 
d="M1487 1210h-228v-650q0 -239 -168 -412t-396 -173q-226 0 -389 159q-176 171 -176 444v888h290v-923q0 -147 87 -235q78 -78 188 -78q106 0 187 82q85 86 85 213v941h520v-256z" />
    <glyph glyph-name="Oslash" unicode="&#x544;" horiz-adv-x="1518" 
d="M1487 1210h-228v-650q0 -239 -168 -412t-396 -173q-226 0 -389 159q-176 171 -176 444v888h290v-923q0 -147 87 -235q78 -78 188 -78q106 0 187 82q85 86 85 213v941h520v-256z" />
    <glyph glyph-name="Ugrave" unicode="&#xd9;" horiz-adv-x="1190" 
d="M1194 1218h-174v-1218h-250v156q-68 -93 -142.5 -136.5t-174.5 -43.5q-165 0 -247 96q-76 89 -76 250v740h269v-622q0 -133 29 -187q33 -62 119 -62q102 0 153 74.5t51 235.5v965h443v-248z" />
    <glyph glyph-name="Ugrave" unicode="&#x574;" horiz-adv-x="1190" 
d="M1194 1218h-174v-1218h-250v156q-68 -93 -142.5 -136.5t-174.5 -43.5q-165 0 -247 96q-76 89 -76 250v740h269v-622q0 -133 29 -187q33 -62 119 -62q102 0 153 74.5t51 235.5v965h443v-248z" />
    <glyph glyph-name="Uacute" unicode="&#xda;" horiz-adv-x="1405" 
d="M1273 466q0 -203 -156 -343q-164 -148 -423 -148q-253 0 -411 142t-158 366h286q0 -110 80.5 -180.5t205.5 -70.5q127 0 206 58q84 62 84 165q0 78 -65 126q-74 54 -216 54h-598v257h602q86 0 146.5 47.5t60.5 117.5q0 79 -53 128t-145 49q-91 0 -147 -48.5t-56 -123.5
h-287q0 179 142 304t351 125q204 0 344 -128q137 -125 137 -298q0 -79 -36 -152.5t-92 -112.5q106 -46 157 -146q41 -81 41 -188z" />
    <glyph glyph-name="Uacute" unicode="&#x545;" horiz-adv-x="1405" 
d="M1273 466q0 -203 -156 -343q-164 -148 -423 -148q-253 0 -411 142t-158 366h286q0 -110 80.5 -180.5t205.5 -70.5q127 0 206 58q84 62 84 165q0 78 -65 126q-74 54 -216 54h-598v257h602q86 0 146.5 47.5t60.5 117.5q0 79 -53 128t-145 49q-91 0 -147 -48.5t-56 -123.5
h-287q0 179 142 304t351 125q204 0 344 -128q137 -125 137 -298q0 -79 -36 -152.5t-92 -112.5q106 -46 157 -146q41 -81 41 -188z" />
    <glyph glyph-name="Ucircumflex" unicode="&#xdb;" horiz-adv-x="585" 
d="M399 0q0 -235 -50 -325q-59 -106 -222 -106q-45 0 -86.5 6.5t-100.5 23.5l47 240l33.5 -6t33.5 -3q40 0 58 38t18 181v1013h269v-1062z" />
    <glyph glyph-name="Ucircumflex" unicode="&#x575;" horiz-adv-x="585" 
d="M399 0q0 -235 -50 -325q-59 -106 -222 -106q-45 0 -86.5 6.5t-100.5 23.5l47 240l33.5 -6t33.5 -3q40 0 58 38t18 181v1013h269v-1062z" />
    <glyph glyph-name="Udieresis" unicode="&#xdc;" horiz-adv-x="1433" 
d="M1300 556q0 -245 -169 -415q-165 -166 -393 -166q-211 0 -380 162q-181 173 -181 419v654h-169v256h459v-928q0 -138 85 -227q79 -82 186 -82q115 0 191 81q81 86 81 228v247h290v-229z" />
    <glyph glyph-name="Udieresis" unicode="&#x546;" horiz-adv-x="1433" 
d="M1300 556q0 -245 -169 -415q-165 -166 -393 -166q-211 0 -380 162q-181 173 -181 419v654h-169v256h459v-928q0 -138 85 -227q79 -82 186 -82q115 0 191 81q81 86 81 228v247h290v-229z" />
    <glyph glyph-name="Yacute" unicode="&#xdd;" 
d="M1020 0h-250v156q-68 -93 -142.5 -136.5t-174.5 -43.5q-165 0 -247 96q-76 89 -76 250v896h-136v248h405v-1026q0 -133 29 -187q33 -62 119 -62q102 0 153 74.5t51 235.5v561h269v-1062z" />
    <glyph glyph-name="Yacute" unicode="&#x576;" 
d="M1020 0h-250v156q-68 -93 -142.5 -136.5t-174.5 -43.5q-165 0 -247 96q-76 89 -76 250v896h-136v248h405v-1026q0 -133 29 -187q33 -62 119 -62q102 0 153 74.5t51 235.5v561h269v-1062z" />
    <glyph glyph-name="Thorn" unicode="&#xde;" horiz-adv-x="1405" 
d="M1277 558q0 -236 -168.5 -409.5t-400.5 -173.5q-240 0 -407 175q-171 179 -171 447q0 174 78 326q90 176 255 251q17 8 34 10.5t33 2.5l-183 82l102 243l758 -330l-103 -244l-194 87q-19 8 -44.5 13t-53.5 5q-148 0 -259 -93q-138 -116 -138 -331q0 -174 79.5 -283
t212.5 -109q132 0 206 82q78 86 78 252q0 17 -3 40.5t-15 57.5l278 52q14 -44 20 -86t6 -67z" />
    <glyph glyph-name="Thorn" unicode="&#x547;" horiz-adv-x="1405" 
d="M1277 558q0 -236 -168.5 -409.5t-400.5 -173.5q-240 0 -407 175q-171 179 -171 447q0 174 78 326q90 176 255 251q17 8 34 10.5t33 2.5l-183 82l102 243l758 -330l-103 -244l-194 87q-19 8 -44.5 13t-53.5 5q-148 0 -259 -93q-138 -116 -138 -331q0 -174 79.5 -283
t212.5 -109q132 0 206 82q78 86 78 252q0 17 -3 40.5t-15 57.5l278 52q14 -44 20 -86t6 -67z" />
    <glyph glyph-name="germandbls" unicode="&#xdf;" horiz-adv-x="960" 
d="M850 675q0 -98 -46 -197q-38 -82 -115 -175q-52 -63 -149 -162l-112 -115q-62 -66 -87 -101q-34 -48 -34 -78q0 -7 5.5 -11t23.5 -4h523v-239h-647q-86 0 -144 56q-53 51 -53 113q0 86 66 189q59 92 198 238q92 97 145 163q74 92 113 169q45 88 45 162q0 65 -25 106
q-35 58 -114 58q-66 0 -105.5 -35t-69.5 -113l-214 103q53 125 146 198q111 86 265 86q164 0 270 -103q115 -112 115 -308z" />
    <glyph glyph-name="germandbls" unicode="&#x577;" horiz-adv-x="960" 
d="M850 675q0 -98 -46 -197q-38 -82 -115 -175q-52 -63 -149 -162l-112 -115q-62 -66 -87 -101q-34 -48 -34 -78q0 -7 5.5 -11t23.5 -4h523v-239h-647q-86 0 -144 56q-53 51 -53 113q0 86 66 189q59 92 198 238q92 97 145 163q74 92 113 169q45 88 45 162q0 65 -25 106
q-35 58 -114 58q-66 0 -105.5 -35t-69.5 -113l-214 103q53 125 146 198q111 86 265 86q164 0 270 -103q115 -112 115 -308z" />
    <glyph glyph-name="agrave" unicode="&#xe0;" horiz-adv-x="1405" 
d="M1236 0h-287v941q0 127 -82 213q-78 82 -183 82q-108 0 -184 -78q-85 -87 -85 -235v-923h-285v888q0 273 172 444q160 159 382 159q223 0 387.5 -172.5t164.5 -412.5v-906z" />
    <glyph glyph-name="agrave" unicode="&#x548;" horiz-adv-x="1405" 
d="M1236 0h-287v941q0 127 -82 213q-78 82 -183 82q-108 0 -184 -78q-85 -87 -85 -235v-923h-285v888q0 273 172 444q160 159 382 159q223 0 387.5 -172.5t164.5 -412.5v-906z" />
    <glyph glyph-name="aacute" unicode="&#xe1;" 
d="M1020 0h-269v622q0 133 -29 187q-33 62 -119 62q-102 0 -153 -74.5t-51 -235.5v-561h-269v1062h250v-156q68 93 140 135q77 45 177 45q165 0 247 -96q76 -89 76 -250v-740z" />
    <glyph glyph-name="aacute" unicode="&#x578;" 
d="M1020 0h-269v622q0 133 -29 187q-33 62 -119 62q-102 0 -153 -74.5t-51 -235.5v-561h-269v1062h250v-156q68 93 140 135q77 45 177 45q165 0 247 -96q76 -89 76 -250v-740z" />
    <glyph glyph-name="acircumflex" unicode="&#xe2;" horiz-adv-x="1405" 
d="M1247 867q0 -184 -78 -333q-88 -168 -255 -244q-17 -8 -34 -10.5t-33 -2.5l183 -82l-103 -243l-757 330l103 244l194 -87q53 -24 118 -24q147 0 253 102q124 119 124 328q0 174 -78 281q-81 111 -214 111q-132 0 -206 -82q-78 -87 -78 -252q0 -16 3 -40t14 -58l-277 -52
q-14 44 -20 86t-6 67q0 236 168.5 409.5t399.5 173.5q241 0 408 -175q171 -179 171 -447z" />
    <glyph glyph-name="acircumflex" unicode="&#x549;" horiz-adv-x="1405" 
d="M1247 867q0 -184 -78 -333q-88 -168 -255 -244q-17 -8 -34 -10.5t-33 -2.5l183 -82l-103 -243l-757 330l103 244l194 -87q53 -24 118 -24q147 0 253 102q124 119 124 328q0 174 -78 281q-81 111 -214 111q-132 0 -206 -82q-78 -87 -78 -252q0 -16 3 -40t14 -58l-277 -52
q-14 44 -20 86t-6 67q0 236 168.5 409.5t399.5 173.5q241 0 408 -175q171 -179 171 -447z" />
    <glyph glyph-name="atilde" unicode="&#xe3;" horiz-adv-x="770" 
d="M717 -407h-409q-111 0 -177 61q-57 53 -57 118q0 146 85 327q72 153 174 276l-44 33q-63 47 -96.5 113t-33.5 137q0 55 19.5 109t59.5 103l202 249l197 -142l-187 -230q-31 -38 -31 -76q0 -30 18.5 -56t52.5 -50l187 -132q-93 -121 -153 -209q-81 -117 -123 -201
q-51 -101 -51 -158q0 -8 9.5 -22t23.5 -14h334v-236z" />
    <glyph glyph-name="atilde" unicode="&#x579;" horiz-adv-x="770" 
d="M717 -407h-409q-111 0 -177 61q-57 53 -57 118q0 146 85 327q72 153 174 276l-44 33q-63 47 -96.5 113t-33.5 137q0 55 19.5 109t59.5 103l202 249l197 -142l-187 -230q-31 -38 -31 -76q0 -30 18.5 -56t52.5 -50l187 -132q-93 -121 -153 -209q-81 -117 -123 -201
q-51 -101 -51 -158q0 -8 9.5 -22t23.5 -14h334v-236z" />
    <glyph glyph-name="adieresis" unicode="&#xe4;" horiz-adv-x="1566" 
d="M1381 0h-289v909q0 116 -60 204.5t-148 113.5v-806h-289v807q-87 -25 -145 -108q-62 -89 -62 -212v-199h-289v189q0 256 180.5 424.5t453.5 168.5q288 0 468 -164t180 -427v-900z" />
    <glyph glyph-name="adieresis" unicode="&#x54a;" horiz-adv-x="1566" 
d="M1381 0h-289v909q0 116 -60 204.5t-148 113.5v-806h-289v807q-87 -25 -145 -108q-62 -89 -62 -212v-199h-289v189q0 256 180.5 424.5t453.5 168.5q288 0 468 -164t180 -427v-900z" />
    <glyph glyph-name="aring" unicode="&#xe5;" horiz-adv-x="1756" 
d="M1568 -407h-270v526q-66 -76 -117 -107q-60 -36 -141 -36q-101 0 -175.5 42t-120.5 127q-71 -90 -124 -126q-64 -43 -149 -43q-155 0 -246 87q-95 91 -95 250v749h269v-677q0 -95 40 -144.5t111 -49.5q83 0 122.5 70.5t39.5 220.5v580h270v-652q0 -112 33.5 -165.5
t115.5 -53.5q89 0 128 68.5t39 216.5v586h270v-1469z" />
    <glyph glyph-name="aring" unicode="&#x57a;" horiz-adv-x="1756" 
d="M1568 -407h-270v526q-66 -76 -117 -107q-60 -36 -141 -36q-101 0 -175.5 42t-120.5 127q-71 -90 -124 -126q-64 -43 -149 -43q-155 0 -246 87q-95 91 -95 250v749h269v-677q0 -95 40 -144.5t111 -49.5q83 0 122.5 70.5t39.5 220.5v580h270v-652q0 -112 33.5 -165.5
t115.5 -53.5q89 0 128 68.5t39 216.5v586h270v-1469z" />
    <glyph glyph-name="ae" unicode="&#xe6;" horiz-adv-x="1437" 
d="M1283 0h-1145v405h286v-160q101 0 190 51q51 29 117 92q0 113 -82 191q-78 74 -181 74q-46 0 -98.5 -8.5t-131.5 -30.5q-56 98 -78 170t-22 155q0 244 170 401q164 151 400 151q238 0 403 -150q172 -156 172 -398q0 -169 -56 -316q-60 -158 -176 -265q-40 -38 -68 -59
q-47 -36 -86 -47h386v-256zM996 919q0 131 -84 224t-204 93q-123 0 -201 -71q-83 -75 -83 -207q2 -16 3 -34t4 -25q28 11 79 11q151 0 253 -72q116 -82 136 -241q44 52 72 152q25 89 25 170z" />
    <glyph glyph-name="ae" unicode="&#x54b;" horiz-adv-x="1437" 
d="M1283 0h-1145v405h286v-160q101 0 190 51q51 29 117 92q0 113 -82 191q-78 74 -181 74q-46 0 -98.5 -8.5t-131.5 -30.5q-56 98 -78 170t-22 155q0 244 170 401q164 151 400 151q238 0 403 -150q172 -156 172 -398q0 -169 -56 -316q-60 -158 -176 -265q-40 -38 -68 -59
q-47 -36 -86 -47h386v-256zM996 919q0 131 -84 224t-204 93q-123 0 -201 -71q-83 -75 -83 -207q2 -16 3 -34t4 -25q28 11 79 11q151 0 253 -72q116 -82 136 -241q44 52 72 152q25 89 25 170z" />
    <glyph glyph-name="ccedilla" unicode="&#xe7;" horiz-adv-x="979" 
d="M875 -407h-597q-111 0 -172 59q-52 50 -52 122q0 67 38 137q29 54 95 128q83 94 94 110q39 55 39 111q0 34 -13 73l-110 155q-54 79 -76 142q-10 27 -15 57.5t-5 57.5q0 147 129 249q116 92 249 92q174 0 279 -84q130 -104 130 -326q0 -110 -53 -217q-42 -86 -129 -186
q-31 -36 -156 -165l-149 -153q-59 -66 -59 -102q0 -7 12 -14t19 -7h502v-239zM624 673q-12 82 -43 124q-39 52 -113 52q-53 0 -96 -34.5t-43 -85.5q0 -14 1 -21t7 -21q18 -45 51 -93l57 -81q24 -38 34 -62q14 -35 14 -75q0 -31 -9 -73q54 54 98.5 152.5t44.5 181.5
q0 18 -3 36z" />
    <glyph glyph-name="ccedilla" unicode="&#x57b;" horiz-adv-x="979" 
d="M875 -407h-597q-111 0 -172 59q-52 50 -52 122q0 67 38 137q29 54 95 128q83 94 94 110q39 55 39 111q0 34 -13 73l-110 155q-54 79 -76 142q-10 27 -15 57.5t-5 57.5q0 147 129 249q116 92 249 92q174 0 279 -84q130 -104 130 -326q0 -110 -53 -217q-42 -86 -129 -186
q-31 -36 -156 -165l-149 -153q-59 -66 -59 -102q0 -7 12 -14t19 -7h502v-239zM624 673q-12 82 -43 124q-39 52 -113 52q-53 0 -96 -34.5t-43 -85.5q0 -14 1 -21t7 -21q18 -45 51 -93l57 -81q24 -38 34 -62q14 -35 14 -75q0 -31 -9 -73q54 54 98.5 152.5t44.5 181.5
q0 18 -3 36z" />
    <glyph glyph-name="egrave" unicode="&#xe8;" horiz-adv-x="1521" 
d="M1495 322h-236v-322h-292v941q0 127 -84 213q-80 82 -188 82q-110 0 -188 -78q-87 -87 -87 -235v-923h-290v888q0 272 176 444q163 159 389 159q228 0 396 -173t168 -412v-328h236v-256z" />
    <glyph glyph-name="egrave" unicode="&#x54c;" horiz-adv-x="1521" 
d="M1495 322h-236v-322h-292v941q0 127 -84 213q-80 82 -188 82q-110 0 -188 -78q-87 -87 -87 -235v-923h-290v888q0 272 176 444q163 159 389 159q228 0 396 -173t168 -412v-328h236v-256z" />
    <glyph glyph-name="eacute" unicode="&#xe9;" 
d="M1076 0h-526v125q121 101 173 229q47 115 47 268q0 127 -40 188t-127 61q-99 0 -150 -73q-54 -78 -54 -237v-561h-269v1062h250v-156q68 93 140 135q77 45 177 45q166 0 257 -98q86 -92 86 -248q0 -158 -46 -272t-152 -220h234v-248z" />
    <glyph glyph-name="eacute" unicode="&#x57c;" 
d="M1076 0h-526v125q121 101 173 229q47 115 47 268q0 127 -40 188t-127 61q-99 0 -150 -73q-54 -78 -54 -237v-561h-269v1062h250v-156q68 93 140 135q77 45 177 45q166 0 257 -98q86 -92 86 -248q0 -158 -46 -272t-152 -220h234v-248z" />
    <glyph glyph-name="ecircumflex" unicode="&#xea;" horiz-adv-x="1405" 
d="M1236 560q0 -239 -165 -412t-387 -173q-221 0 -381 159q-173 172 -173 444v888h285v-923q0 -149 84 -235q76 -78 185 -78q105 0 183 82q82 86 82 213v941h287v-906z" />
    <glyph glyph-name="ecircumflex" unicode="&#x54d;" horiz-adv-x="1405" 
d="M1236 560q0 -239 -165 -412t-387 -173q-221 0 -381 159q-173 172 -173 444v888h285v-923q0 -149 84 -235q76 -78 185 -78q105 0 183 82q82 86 82 213v941h287v-906z" />
    <glyph glyph-name="edieresis" unicode="&#xeb;" 
d="M1020 0h-250v156q-68 -93 -142.5 -136.5t-174.5 -43.5q-165 0 -247 96q-76 89 -76 250v740h269v-622q0 -133 29 -187q33 -62 119 -62q102 0 153 74.5t51 235.5v561h269v-1062z" />
    <glyph glyph-name="edieresis" unicode="&#x57d;" 
d="M1020 0h-250v156q-68 -93 -142.5 -136.5t-174.5 -43.5q-165 0 -247 96q-76 89 -76 250v740h269v-622q0 -133 29 -187q33 -62 119 -62q102 0 153 74.5t51 235.5v561h269v-1062z" />
    <glyph glyph-name="igrave" unicode="&#xec;" horiz-adv-x="1468" 
d="M1446 0h-521v433q-60 -59 -140 -90q-67 -26 -130 -26q-241 0 -404.5 176.5t-163.5 427.5v176h292v-227q0 -116 71 -202q79 -96 203 -96q118 0 195 89t77 227v578h292v-1210h229v-256z" />
    <glyph glyph-name="igrave" unicode="&#x54e;" horiz-adv-x="1468" 
d="M1446 0h-521v433q-60 -59 -140 -90q-67 -26 -130 -26q-241 0 -404.5 176.5t-163.5 427.5v176h292v-227q0 -116 71 -202q79 -96 203 -96q118 0 195 89t77 227v578h292v-1210h229v-256z" />
    <glyph glyph-name="iacute" unicode="&#xed;" horiz-adv-x="1190" 
d="M1188 -407h-437v537q-65 -79 -135.5 -116.5t-162.5 -37.5q-165 0 -247 96q-76 89 -76 250v740h269v-622q0 -133 29 -187q33 -62 119 -62q99 0 151.5 75.5t52.5 234.5v965h269v-1625h168v-248z" />
    <glyph glyph-name="iacute" unicode="&#x57e;" horiz-adv-x="1190" 
d="M1188 -407h-437v537q-65 -79 -135.5 -116.5t-162.5 -37.5q-165 0 -247 96q-76 89 -76 250v740h269v-622q0 -133 29 -187q33 -62 119 -62q99 0 151.5 75.5t52.5 234.5v965h269v-1625h168v-248z" />
    <glyph glyph-name="icircumflex" unicode="&#xee;" horiz-adv-x="1351" 
d="M1215 432q0 -197 -144 -323q-156 -136 -426 -136q-254 0 -413.5 139.5t-159.5 364.5l275 32q17 -138 93 -204.5t220 -66.5q131 0 203 57q65 51 65 131q0 75 -59 118q-70 51 -264 92q-252 54 -374 173q-111 109 -111 267q0 186 138 299q142 116 381 116
q249 0 384.5 -113.5t153.5 -330.5l-284 -13q0 111 -88 162q-67 39 -174 39t-174 -45q-62 -42 -62 -103q0 -57 53 -91.5t203 -68.5q330 -75 457 -202q107 -106 107 -293z" />
    <glyph glyph-name="icircumflex" unicode="&#x54f;" horiz-adv-x="1351" 
d="M1215 432q0 -197 -144 -323q-156 -136 -426 -136q-254 0 -413.5 139.5t-159.5 364.5l275 32q17 -138 93 -204.5t220 -66.5q131 0 203 57q65 51 65 131q0 75 -59 118q-70 51 -264 92q-252 54 -374 173q-111 109 -111 267q0 186 138 299q142 116 381 116
q249 0 384.5 -113.5t153.5 -330.5l-284 -13q0 111 -88 162q-67 39 -174 39t-174 -45q-62 -42 -62 -103q0 -57 53 -91.5t203 -68.5q330 -75 457 -202q107 -106 107 -293z" />
    <glyph glyph-name="idieresis" unicode="&#xef;" horiz-adv-x="1756" 
d="M1568 0h-270v652q0 114 -28 163q-32 56 -113 56q-90 0 -132.5 -69.5t-42.5 -215.5v-586h-270v107q-50 -63 -96 -92q-62 -39 -145 -39q-155 0 -246 87q-95 91 -95 250v749h269v-677q0 -95 40 -144.5t111 -49.5q83 0 122.5 70.5t39.5 220.5v580h270l1 -110q60 69 123 101.5
t142 32.5q166 0 241 -76q79 -80 79 -260v-750z" />
    <glyph glyph-name="idieresis" unicode="&#x57f;" horiz-adv-x="1756" 
d="M1568 0h-270v652q0 114 -28 163q-32 56 -113 56q-90 0 -132.5 -69.5t-42.5 -215.5v-586h-270v107q-50 -63 -96 -92q-62 -39 -145 -39q-155 0 -246 87q-95 91 -95 250v749h269v-677q0 -95 40 -144.5t111 -49.5q83 0 122.5 70.5t39.5 220.5v580h270l1 -110q60 69 123 101.5
t142 32.5q166 0 241 -76q79 -80 79 -260v-750z" />
    <glyph glyph-name="eth" unicode="&#xf0;" horiz-adv-x="1362" 
d="M1236 739h-287v198q0 117 -69 203q-77 96 -198 96q-116 0 -191.5 -89.5t-75.5 -227.5v-919h-285v882q0 263 160 436t390 173q236 0 396 -176.5t160 -428.5v-147z" />
    <glyph glyph-name="eth" unicode="&#x550;" horiz-adv-x="1362" 
d="M1236 739h-287v198q0 117 -69 203q-77 96 -198 96q-116 0 -191.5 -89.5t-75.5 -227.5v-919h-285v882q0 263 160 436t390 173q236 0 396 -176.5t160 -428.5v-147z" />
    <glyph glyph-name="ntilde" unicode="&#xf1;" 
d="M1020 0h-269v622q0 133 -29 187q-33 62 -119 62q-102 0 -153 -74.5t-51 -235.5v-968h-269v1469h250v-156q68 93 140 135q77 45 177 45q165 0 247 -96q76 -89 76 -250v-740z" />
    <glyph glyph-name="ntilde" unicode="&#x580;" 
d="M1020 0h-269v622q0 133 -29 187q-33 62 -119 62q-102 0 -153 -74.5t-51 -235.5v-968h-269v1469h250v-156q68 93 140 135q77 45 177 45q165 0 247 -96q76 -89 76 -250v-740z" />
    <glyph glyph-name="ograve" unicode="&#xf2;" horiz-adv-x="1384" 
d="M1273 446q0 -201 -161 -334q-165 -137 -428 -137q-249 0 -406 147q-153 143 -153 361h286q0 -107 69 -176q75 -75 207 -75q135 0 217.5 56t82.5 147q0 89 -69 142q-76 58 -222 58h-588v257h190q-35 33 -54.5 83.5t-19.5 91.5q0 173 138 297q142 127 350 127
q206 0 350 -128q141 -125 141 -298q0 -105 -41.5 -184.5t-97.5 -104.5q91 -33 146 -111q63 -89 63 -219zM917 1057q0 82 -56.5 129.5t-151.5 47.5q-91 0 -145 -48t-54 -128q0 -69 54 -117.5t145 -48.5q101 0 157 51q51 46 51 114z" />
    <glyph glyph-name="ograve" unicode="&#x551;" horiz-adv-x="1384" 
d="M1273 446q0 -201 -161 -334q-165 -137 -428 -137q-249 0 -406 147q-153 143 -153 361h286q0 -107 69 -176q75 -75 207 -75q135 0 217.5 56t82.5 147q0 89 -69 142q-76 58 -222 58h-588v257h190q-35 33 -54.5 83.5t-19.5 91.5q0 173 138 297q142 127 350 127
q206 0 350 -128q141 -125 141 -298q0 -105 -41.5 -184.5t-97.5 -104.5q91 -33 146 -111q63 -89 63 -219zM917 1057q0 82 -56.5 129.5t-151.5 47.5q-91 0 -145 -48t-54 -128q0 -69 54 -117.5t145 -48.5q101 0 157 51q51 46 51 114z" />
    <glyph glyph-name="oacute" unicode="&#xf3;" 
d="M1037 109q0 -283 -118 -414q-113 -126 -347 -126t-351 92q-106 84 -106 235l1 34l308 -39q-3 -15 -3 -28q0 -40 33.5 -59.5t107.5 -19.5q114 0 157 45q48 50 48 188v155q-63 -89 -129.5 -130.5t-156.5 -41.5q-182 0 -291 146t-109 391q0 262 113 408q109 141 298 141
q91 0 160 -42t132 -131v149h253v-953zM772 546q0 161 -54.5 243t-156.5 82q-99 0 -150 -76q-54 -80 -54 -242t52 -244t147 -82q99 0 157.5 81.5t58.5 237.5z" />
    <glyph glyph-name="oacute" unicode="&#x581;" 
d="M1037 109q0 -283 -118 -414q-113 -126 -347 -126t-351 92q-106 84 -106 235l1 34l308 -39q-3 -15 -3 -28q0 -40 33.5 -59.5t107.5 -19.5q114 0 157 45q48 50 48 188v155q-63 -89 -129.5 -130.5t-156.5 -41.5q-182 0 -291 146t-109 391q0 262 113 408q109 141 298 141
q91 0 160 -42t132 -131v149h253v-953zM772 546q0 161 -54.5 243t-156.5 82q-99 0 -150 -76q-54 -80 -54 -242t52 -244t147 -82q99 0 157.5 81.5t58.5 237.5z" />
    <glyph glyph-name="ocircumflex" unicode="&#xf4;" horiz-adv-x="724" 
d="M695 892h-307v-892h-258v1466h258v-317h307v-257z" />
    <glyph glyph-name="ocircumflex" unicode="&#x552;" horiz-adv-x="724" 
d="M695 892h-307v-892h-258v1466h258v-317h307v-257z" />
    <glyph glyph-name="otilde" unicode="&#xf5;" horiz-adv-x="778" 
d="M696 0h-566v1062h269v-814h297v-248z" />
    <glyph glyph-name="otilde" unicode="&#x582;" horiz-adv-x="778" 
d="M696 0h-566v1062h269v-814h297v-248z" />
    <glyph glyph-name="odieresis" unicode="&#xf6;" horiz-adv-x="1536" 
d="M1457 739q0 -221 -142 -381q-149 -169 -399 -200v-158h-291v157q-233 26 -385 185q-157 164 -157 397q0 232 152.5 392.5t389.5 189.5v145h291v-146q242 -30 393 -195q148 -162 148 -386zM1161 739q0 124 -55 209q-64 99 -190 120v-658q124 15 188 113q57 87 57 216z
M625 412v656q-126 -24 -189 -119q-56 -84 -56 -211q0 -121 61 -211q68 -99 184 -115z" />
    <glyph glyph-name="odieresis" unicode="&#x553;" horiz-adv-x="1536" 
d="M1457 739q0 -221 -142 -381q-149 -169 -399 -200v-158h-291v157q-233 26 -385 185q-157 164 -157 397q0 232 152.5 392.5t389.5 189.5v145h291v-146q242 -30 393 -195q148 -162 148 -386zM1161 739q0 124 -55 209q-64 99 -190 120v-658q124 15 188 113q57 87 57 216z
M625 412v656q-126 -24 -189 -119q-56 -84 -56 -211q0 -121 61 -211q68 -99 184 -115z" />
    <glyph glyph-name="divide" unicode="&#xf7;" horiz-adv-x="1756" 
d="M1568 0h-270v652q0 114 -28 163q-32 56 -113 56q-90 0 -132.5 -69.5t-42.5 -215.5v-993h-270v514q-50 -63 -96 -92q-62 -39 -145 -39q-155 0 -246 87q-95 91 -95 250v749h269v-677q0 -95 40 -144.5t111 -49.5q83 0 122.5 70.5t39.5 220.5v984h270l1 -514q60 69 123 101.5
t142 32.5q168 0 241 -107q79 -116 79 -399v-580z" />
    <glyph glyph-name="divide" unicode="&#x583;" horiz-adv-x="1756" 
d="M1568 0h-270v652q0 114 -28 163q-32 56 -113 56q-90 0 -132.5 -69.5t-42.5 -215.5v-993h-270v514q-50 -63 -96 -92q-62 -39 -145 -39q-155 0 -246 87q-95 91 -95 250v749h269v-677q0 -95 40 -144.5t111 -49.5q83 0 122.5 70.5t39.5 220.5v984h270l1 -514q60 69 123 101.5
t142 32.5q168 0 241 -107q79 -116 79 -399v-580z" />
    <glyph glyph-name="oslash" unicode="&#xf8;" horiz-adv-x="1401" 
d="M1231 105h-770v-111h-287v111h-116v256h116v620q0 208 139 351q148 153 385 153q238 0 384 -155q136 -144 136 -350t-136 -327q-140 -125 -391 -125q-70 0 -137.5 29t-92.5 64v-260h770v-256zM930 1002q0 99 -62 162q-65 66 -171 66t-171 -65t-65 -163t65.5 -167.5
t170.5 -69.5t169 68.5t64 168.5z" />
    <glyph glyph-name="oslash" unicode="&#x554;" horiz-adv-x="1401" 
d="M1231 105h-770v-111h-287v111h-116v256h116v620q0 208 139 351q148 153 385 153q238 0 384 -155q136 -144 136 -350t-136 -327q-140 -125 -391 -125q-70 0 -137.5 29t-92.5 64v-260h770v-256zM930 1002q0 99 -62 162q-65 66 -171 66t-171 -65t-65 -163t65.5 -167.5
t170.5 -69.5t169 68.5t64 168.5z" />
    <glyph glyph-name="ugrave" unicode="&#xf9;" 
d="M1086 587q0 -252 -114 -377q-104 -114 -294 -114q-78 0 -152.5 43t-126.5 112v-307h657v-248h-657v-103h-269v103h-106v248h106v1118h251v-156q52 85 122 130q77 50 177 50q186 0 291 -118q115 -129 115 -381zM811 585q0 145 -52.5 212t-151.5 67q-102 0 -152 -54
q-59 -63 -59 -211q0 -143 56 -211.5t160 -68.5q98 0 146 58q53 64 53 208z" />
    <glyph glyph-name="ugrave" unicode="&#x584;" 
d="M1086 587q0 -252 -114 -377q-104 -114 -294 -114q-78 0 -152.5 43t-126.5 112v-307h657v-248h-657v-103h-269v103h-106v248h106v1118h251v-156q52 85 122 130q77 50 177 50q186 0 291 -118q115 -129 115 -381zM811 585q0 145 -52.5 212t-151.5 67q-102 0 -152 -54
q-59 -63 -59 -211q0 -143 56 -211.5t160 -68.5q98 0 146 58q53 64 53 208z" />
    <glyph glyph-name="uacute" unicode="&#xfa;" horiz-adv-x="1569" 
d="M1460 731q0 -350 -187 -553t-503 -203q-317 0 -504 198q-190 201 -190 551q0 371 190 573q183 194 500 194q316 0 503 -200q191 -204 191 -560zM1166 738q0 244 -109 375q-104 125 -288 125q-182 0 -287 -124q-113 -133 -113 -380q0 -241 114 -377q108 -129 286 -129
t284 126q113 135 113 384z" />
    <glyph glyph-name="uacute" unicode="&#x555;" horiz-adv-x="1569" 
d="M1460 731q0 -350 -187 -553t-503 -203q-317 0 -504 198q-190 201 -190 551q0 371 190 573q183 194 500 194q316 0 503 -200q191 -204 191 -560zM1166 738q0 244 -109 375q-104 125 -288 125q-182 0 -287 -124q-113 -133 -113 -380q0 -241 114 -377q108 -129 286 -129
t284 126q113 135 113 384z" />
    <glyph glyph-name="ucircumflex" unicode="&#xfb;" 
d="M1064 534q0 -244 -129 -398q-134 -160 -358 -160q-227 0 -360 146q-138 151 -138 424q0 217 134 374q142 166 362 166q225 0 359 -155q130 -151 130 -397zM786 533q0 158 -52 241t-158 83q-105 0 -163 -83.5t-58 -242.5q0 -156 57 -241t164 -85q210 0 210 328z" />
    <glyph glyph-name="ucircumflex" unicode="&#x585;" 
d="M1064 534q0 -244 -129 -398q-134 -160 -358 -160q-227 0 -360 146q-138 151 -138 424q0 217 134 374q142 166 362 166q225 0 359 -155q130 -151 130 -397zM786 533q0 158 -52 241t-158 83q-105 0 -163 -83.5t-58 -242.5q0 -156 57 -241t164 -85q210 0 210 328z" />
    <glyph glyph-name="udieresis" unicode="&#xfc;" horiz-adv-x="1728" 
d="M1485 542q0 -262 -195 -418q-188 -150 -489 -150q-315 0 -504 152t-189 408v146h291v-139q0 -106 59 -193q70 -103 192 -121v575q-179 0 -289.5 90t-110.5 240q0 162 128 250q123 84 343 84h220v-411q249 0 396.5 -138.5t147.5 -374.5zM650 1053v184q-61 0 -96 -15
q-50 -22 -50 -75q0 -49 49 -74q40 -20 97 -20zM1193 538q0 114 -70 180q-66 62 -182 76v-569q110 0 183 97q69 91 69 216z" />
    <glyph glyph-name="udieresis" unicode="&#x556;" horiz-adv-x="1728" 
d="M1485 542q0 -262 -195 -418q-188 -150 -489 -150q-315 0 -504 152t-189 408v146h291v-139q0 -106 59 -193q70 -103 192 -121v575q-179 0 -289.5 90t-110.5 240q0 162 128 250q123 84 343 84h220v-411q249 0 396.5 -138.5t147.5 -374.5zM650 1053v184q-61 0 -96 -15
q-50 -22 -50 -75q0 -49 49 -74q40 -20 97 -20zM1193 538q0 114 -70 180q-66 62 -182 76v-569q110 0 183 97q69 91 69 216z" />
    <glyph glyph-name="yacute" unicode="&#xfd;" horiz-adv-x="1557" 
d="M1468 534q0 -248 -141 -398q-149 -159 -416 -159v-384h-270v384q-249 0 -404 158q-151 154 -151 395v89h268v-82q0 -173 62 -255q68 -90 225 -90v655q-188 0 -292 80q-109 84 -109 243q0 146 108.5 221t302.5 75h260v-404q256 0 404 -136q153 -140 153 -392zM641 1062
v179q-80 0 -106.5 -17t-26.5 -68q0 -56 27.5 -75t105.5 -19zM1199 531q0 167 -75 244q-70 72 -213 72v-655q152 0 220 79t68 260z" />
    <glyph glyph-name="yacute" unicode="&#x586;" horiz-adv-x="1557" 
d="M1468 534q0 -248 -141 -398q-149 -159 -416 -159v-384h-270v384q-249 0 -404 158q-151 154 -151 395v89h268v-82q0 -173 62 -255q68 -90 225 -90v655q-188 0 -292 80q-109 84 -109 243q0 146 108.5 221t302.5 75h260v-404q256 0 404 -136q153 -140 153 -392zM641 1062
v179q-80 0 -106.5 -17t-26.5 -68q0 -56 27.5 -75t105.5 -19zM1199 531q0 167 -75 244q-70 72 -213 72v-655q152 0 220 79t68 260z" />
    <glyph glyph-name="thorn" unicode="&#xfe;" horiz-adv-x="635" 
d="M309 1270q0 -127 -41 -205q-48 -86 -163 -117v96q63 9 90 84q6 24 9 54l4 71h-103v217h204v-200z" />
    <glyph glyph-name="thorn" unicode="&#x55a;" horiz-adv-x="635" 
d="M309 1270q0 -127 -41 -205q-48 -86 -163 -117v96q63 9 90 84q6 24 9 54l4 71h-103v217h204v-200z" />
    <glyph glyph-name="ydieresis" unicode="&#xff;" horiz-adv-x="635" 
d="M309 1270q0 -127 -41 -205q-48 -86 -163 -117v96q63 9 90 84q6 24 9 54l4 71h-103v217h204v-200z" />
    </font>
</defs>
</svg>
