<?xml version="1.0" standalone="no"?>
<!DOCTYPE svg PUBLIC "-//W3C//DTD SVG 1.1//EN" "http://www.w3.org/Graphics/SVG/1.1/DTD/svg11.dtd" >
<svg>
<metadata>
Created by FontForge 20090622 at Sun Oct 23 15:00:15 2016
 By deploy user
&#194;&#169; 2014, Copyright by Botio Nikoltchev. All rights reserved.
</metadata>
<defs>
<font id="RopaSansSCPro-Italic" horiz-adv-x="560" >
  <font-face 
    font-family="Ropa Sans SC Pro"
    font-weight="400"
    font-style="italic"
    font-stretch="normal"
    units-per-em="1000"
    panose-1="2 11 5 4 2 1 1 1 1 2"
    ascent="800"
    descent="-200"
    x-height="511"
    cap-height="655"
    bbox="-81 -337 1231 885"
    underline-thickness="50"
    underline-position="-50"
    slope="-7"
    unicode-range="U+000D-U+FEFF"
  />
<missing-glyph horiz-adv-x="485" 
d="M30 0v655h425v-655h-425zM95 65h295v525h-295v-525z" />
    <glyph glyph-name="f_f" unicode="ff" horiz-adv-x="816" 
d="M385 438h-212l-18 -142h158l-8 -72h-158l-27 -224h-81l62 511h293zM793 438h-212l-18 -142h158l-8 -72h-158l-27 -224h-81l62 511h293z" />
    <glyph glyph-name="f_f_i" unicode="ffi" horiz-adv-x="1047" 
d="M385 438h-212l-18 -142h158l-8 -72h-158l-27 -224h-81l62 511h293zM793 438h-212l-18 -142h158l-8 -72h-158l-27 -224h-81l62 511h293zM917 511h81l-62 -511h-81z" />
    <glyph glyph-name="f_f_j" unicode="ffj" horiz-adv-x="1051" 
d="M385 438h-212l-18 -142h158l-8 -72h-158l-27 -224h-81l62 511h293zM793 438h-212l-18 -142h158l-8 -72h-158l-27 -224h-81l62 511h293zM1002 511l-49 -393q-9 -70 -39.5 -100t-89.5 -30q-38 0 -75 11l7 68q30 -10 60 -10q27 0 39.5 12t16.5 44l49 398h81z" />
    <glyph glyph-name="f_f_l" unicode="ffl" horiz-adv-x="1214" 
d="M385 438h-212l-18 -142h158l-8 -72h-158l-27 -224h-81l62 511h293zM793 438h-212l-18 -142h158l-8 -72h-158l-27 -224h-81l62 511h293zM917 511h81l-54 -439h212l-8 -72h-293z" />
    <glyph glyph-name="f_i" unicode="fi" horiz-adv-x="639" 
d="M385 438h-212l-18 -142h158l-8 -72h-158l-27 -224h-81l62 511h293zM509 511h81l-62 -511h-81z" />
    <glyph glyph-name="f_j" unicode="fj" horiz-adv-x="643" 
d="M385 438h-212l-18 -142h158l-8 -72h-158l-27 -224h-81l62 511h293zM594 511l-49 -393q-9 -70 -39.5 -100t-89.5 -30q-38 0 -75 11l7 68q30 -10 60 -10q27 0 39.5 12t16.5 44l49 398h81z" />
    <glyph glyph-name="f_l" unicode="fl" horiz-adv-x="806" 
d="M385 438h-212l-18 -142h158l-8 -72h-158l-27 -224h-81l62 511h293zM509 511h81l-54 -439h212l-8 -72h-293z" />
    <glyph glyph-name=".notdef" horiz-adv-x="485" 
d="M30 0v655h425v-655h-425zM95 65h295v525h-295v-525z" />
    <glyph glyph-name=".null" horiz-adv-x="0" 
 />
    <glyph glyph-name=".null" horiz-adv-x="0" 
 />
    <glyph glyph-name="uni000D" unicode="&#xd;" horiz-adv-x="180" 
 />
    <glyph glyph-name="space" unicode=" " horiz-adv-x="180" 
 />
    <glyph glyph-name="exclam" unicode="!" horiz-adv-x="211" 
d="M134 200h-81l62 495h95zM76 108q27 0 41.5 -13.5t11.5 -35.5l-4 -29q-6 -42 -59 -42q-27 0 -41 13.5t-11 34.5l3 23q3 26 16.5 37.5t42.5 11.5z" />
    <glyph glyph-name="quotedbl" unicode="&#x22;" horiz-adv-x="315" 
d="M150 429h-85l35 254h85zM290 429h-85l35 254h85z" />
    <glyph glyph-name="numbersign" unicode="#" horiz-adv-x="556" 
d="M473 488h80l-10 -70h-80l-31 -223h80l-10 -70h-80l-17 -125h-85l17 125h-156l-17 -125h-85l17 125h-80l10 70h80l31 223h-80l10 70h80l18 125h85l-18 -125h156l18 125h85zM222 418l-31 -223h156l31 223h-156z" />
    <glyph glyph-name="dollar" unicode="$" horiz-adv-x="441" 
d="M326 695l-12 -85q60 -8 103 -25l-13 -76q-63 20 -112 30q-9 1 -30 1q-100 0 -113 -77l-1 -6q-13 -83 64 -109l60 -21q144 -51 124 -185l-1 -7q-9 -66 -47.5 -101.5t-120.5 -43.5l-12 -84h-75l12 83q-64 6 -121 30l11 78q63 -26 118 -35q8 -1 22 -1q65 0 93.5 18.5
t33.5 58.5l2 15q9 67 -76 97l-56 20q-76 27 -102 75t-14 123l1 6q11 66 52.5 100t123.5 38l11 83h75z" />
    <glyph glyph-name="percent" unicode="%" horiz-adv-x="860" 
d="M245 625q78 0 114.5 -43t25.5 -121l-4 -30q-21 -156 -174 -156q-78 0 -116 47t-25 124l5 30q13 77 54.5 113t119.5 36zM276 0h-91l421 613h91zM237 550q-36 0 -56 -19.5t-26 -62.5l-4 -30q-12 -88 64 -88q36 0 55.5 19.5t25.5 63.5l4 30q11 87 -63 87zM676 338
q78 0 114.5 -43t25.5 -121l-4 -30q-21 -156 -174 -156q-78 0 -116 47t-25 124l5 30q13 77 54.5 113t119.5 36zM668 263q-36 0 -56 -19.5t-26 -62.5l-4 -30q-12 -88 64 -88q36 0 55.5 19.5t25.5 63.5l4 30q11 87 -63 87z" />
    <glyph glyph-name="ampersand" unicode="&#x26;" horiz-adv-x="540" 
d="M294 667q50 0 126 -16l-12 -74q-66 20 -120 20q-102 0 -110 -92l-2 -22q-5 -51 26.5 -83.5t91.5 -32.5h91l10 73h82l-10 -73h74l-10 -69h-74l-38 -275q-123 -35 -198 -35q-112 0 -163 53.5t-35 139.5l3 17q9 52 50 89.5t111 52.5q-52 21 -76.5 64.5t-17.5 95.5l3 22
q9 66 60.5 105.5t137.5 39.5zM375 298h-97q-74 0 -117 -30t-51 -82l-2 -14q-7 -50 26.5 -80.5t103.5 -30.5q52 0 106 14z" />
    <glyph glyph-name="quotesingle" unicode="'" horiz-adv-x="175" 
d="M150 429h-85l35 254h85z" />
    <glyph glyph-name="parenleft" unicode="(" horiz-adv-x="231" 
d="M308 749l-10 -72q-53 8 -71 -3t-24 -55l-79 -549q-8 -56 4.5 -73t68.5 -19l-10 -72q-105 0 -133 36.5t-12 147.5l72 500q16 111 53 141.5t141 17.5z" />
    <glyph glyph-name="parenright" unicode=")" horiz-adv-x="231" 
d="M45 677l10 72q105 0 133 -36.5t12 -147.5l-71 -500q-16 -111 -53 -141.5t-141 -17.5l10 72q53 -8 71 3t24 55l78 549q8 56 -4.5 73t-68.5 19z" />
    <glyph glyph-name="asterisk" unicode="*" horiz-adv-x="410" 
d="M266 583l103 44l23 -66l-111 -25l74 -84l-57 -41l-57 96l-57 -97l-56 42l74 85l-110 24l23 66l102 -43l-10 111h69z" />
    <glyph glyph-name="plus" unicode="+" horiz-adv-x="390" 
d="M240 336h140l-10 -71h-140l-22 -152h-76l22 152h-140l10 71h140l21 152h76z" />
    <glyph glyph-name="comma" unicode="," horiz-adv-x="220" 
d="M79 108q27 0 42.5 -15.5t11.5 -41.5l-3 -25q-3 -20 -14 -45l-64 -142h-60l57 152q-16 4 -24 18.5t-6 32.5l4 28q6 38 56 38z" />
    <glyph glyph-name="hyphen" unicode="-" horiz-adv-x="350" 
d="M281 263h-220l10 65h220z" />
    <glyph glyph-name="period" unicode="." horiz-adv-x="221" 
d="M81 108q27 0 41.5 -13.5t11.5 -35.5l-4 -29q-6 -42 -59 -42q-27 0 -41 13.5t-11 34.5l3 23q3 26 16.5 37.5t42.5 11.5z" />
    <glyph glyph-name="slash" unicode="/" horiz-adv-x="275" 
d="M35 0h-85l300 683h85z" />
    <glyph glyph-name="zero" unicode="0" horiz-adv-x="500" 
d="M290 613q90 0 133.5 -52.5t28.5 -155.5l-30 -215q-28 -202 -208 -202q-92 0 -134 54t-28 154l30 215q28 202 208 202zM283 541q-98 0 -115 -122l-32 -231q-9 -63 13.5 -95.5t71.5 -32.5q98 0 115 122l32 231q17 128 -85 128z" />
    <glyph glyph-name="one" unicode="1" horiz-adv-x="312" 
d="M197 0h-85l72 519h-2l-141 -57l-6 73l171 66h75z" />
    <glyph glyph-name="two" unicode="2" horiz-adv-x="387" 
d="M204 613q87 0 129 -41.5t31 -116.5l-3 -22q-6 -44 -30 -85.5t-80 -99.5l-171 -177h226l-9 -71h-327l9 62l235 256q52 56 61 114l3 20q7 48 -14.5 69.5t-73.5 21.5q-56 0 -132 -32l10 77q75 25 136 25z" />
    <glyph glyph-name="three" unicode="3" horiz-adv-x="387" 
d="M202 613q79 0 121 -44t32 -114l-1 -7q-15 -104 -107 -137q42 -17 64 -56.5t17 -88.5l-1 -10q-8 -78 -59.5 -123t-141.5 -45q-66 0 -136 26l9 71q70 -29 127 -29q100 0 114 94l3 22q7 51 -16.5 78t-74.5 27h-89l10 66h89q93 0 108 105l1 7q7 45 -14 69t-65 24t-128 -21
l10 69q77 17 128 17z" />
    <glyph glyph-name="four" unicode="4" horiz-adv-x="423" 
d="M339 199h61l-9 -70h-61l-18 -129h-83l18 129h-272l8 59l316 413h97zM75 199h182l2 14l41 291z" />
    <glyph glyph-name="five" unicode="5" horiz-adv-x="441" 
d="M392 532h-223l-33 -198q65 48 132 48q148 0 125 -183l-3 -24q-26 -187 -213 -187q-78 0 -156 28l10 74q88 -30 149 -30q109 0 125 115l4 27q16 109 -63 109q-69 0 -137 -65h-65l50 358h308z" />
    <glyph glyph-name="six" unicode="6" horiz-adv-x="475" 
d="M295 612q61 0 133 -20l-10 -74q-83 24 -127 24q-59 0 -90 -38.5t-45 -138.5l-6 -43q71 67 139 67q73 0 108 -47t22 -135l-5 -34q-13 -93 -60 -139t-136 -46q-97 0 -140.5 59t-26.5 177l20 140q19 134 73 191t151 57zM268 315q-60 0 -128 -65l-8 -58q-9 -63 14.5 -97.5
t72.5 -34.5t74.5 25.5t34.5 82.5l7 42q8 49 -11 77t-56 28z" />
    <glyph glyph-name="seven" unicode="7" horiz-adv-x="378" 
d="M401 539l-300 -539h-89l297 525v2h-271l10 73h361z" />
    <glyph glyph-name="eight" unicode="8" horiz-adv-x="460" 
d="M268 613q79 0 123.5 -47t31.5 -122l-1 -6q-15 -85 -84 -119q88 -41 75 -149l-2 -16q-10 -79 -62.5 -122.5t-145.5 -43.5q-95 0 -144.5 49t-38.5 130l2 15q14 109 121 146q-34 20 -49.5 57.5t-7.5 80.5l1 6q24 141 181 141zM263 547q-78 0 -92 -85l-1 -6q-7 -55 11.5 -79
t65.5 -24q44 0 64 18t29 69l1 6q16 101 -78 101zM229 287q-51 0 -82.5 -28t-38.5 -78l-1 -7q-8 -53 19 -84t81 -31q103 0 117 96l3 20q8 52 -18.5 82t-79.5 30z" />
    <glyph glyph-name="nine" unicode="9" horiz-adv-x="475" 
d="M266 612q91 0 135 -54t31 -150l-28 -206q-16 -114 -68.5 -164t-153.5 -50q-67 0 -131 23l10 75q23 -10 62.5 -18t60.5 -8q59 0 91 32t43 110l11 76q-81 -67 -146 -67q-68 0 -101 49t-21 144l4 31q12 90 60.5 133.5t140.5 43.5zM259 540q-50 0 -75.5 -24t-33.5 -76l-6 -39
q-9 -56 10.5 -86t56.5 -30q48 0 128 65l11 73q8 56 -16.5 86.5t-74.5 30.5z" />
    <glyph glyph-name="colon" unicode=":" horiz-adv-x="221" 
d="M79 108q27 0 41.5 -13.5t11.5 -35.5l-4 -29q-6 -42 -59 -42q-27 0 -41 13.5t-11 34.5l3 23q3 26 16.5 37.5t42.5 11.5zM131 478q27 0 41.5 -13.5t11.5 -35.5l-4 -29q-6 -42 -59 -42q-27 0 -41 13.5t-11 34.5l3 23q3 26 16.5 37.5t42.5 11.5z" />
    <glyph glyph-name="semicolon" unicode=";" horiz-adv-x="221" 
d="M79 108q27 0 42.5 -15.5t11.5 -41.5l-3 -25q-3 -20 -14 -45l-64 -142h-60l57 152q-16 4 -24 18.5t-6 32.5l4 28q6 38 56 38zM131 478q27 0 41.5 -13.5t11.5 -35.5l-4 -29q-6 -42 -59 -42q-27 0 -41 13.5t-11 34.5l3 23q3 26 16.5 37.5t42.5 11.5z" />
    <glyph glyph-name="less" unicode="&#x3c;" horiz-adv-x="390" 
d="M392 411l-292 -114l260 -115l-12 -83l-337 160l10 75l383 160z" />
    <glyph glyph-name="equal" unicode="=" horiz-adv-x="390" 
d="M381 351h-354l10 70h354zM357 180h-354l10 70h354z" />
    <glyph glyph-name="greater" unicode="&#x3e;" horiz-adv-x="390" 
d="M381 334l-10 -75l-383 -160l12 83l292 115l-260 114l12 83z" />
    <glyph glyph-name="question" unicode="?" horiz-adv-x="395" 
d="M211 695q96 0 135 -41.5t29 -111.5l-2 -15q-6 -45 -30 -83t-78 -87l-40 -36q-17 -15 -26.5 -34.5t-15.5 -59.5l-4 -27h-76l4 28q7 47 21.5 78.5t43.5 58.5l59 57q33 31 44.5 54t15.5 59l1 10q4 39 -17 60.5t-78 21.5q-60 0 -127 -28l10 73q74 23 131 23zM125 108
q27 0 41.5 -13.5t11.5 -35.5l-4 -29q-6 -42 -59 -42q-27 0 -41 13.5t-11 34.5l3 23q3 26 16.5 37.5t42.5 11.5z" />
    <glyph glyph-name="at" unicode="@" horiz-adv-x="930" 
d="M457 695q415 0 415 -377v-50q0 -112 -57.5 -182.5t-155.5 -70.5q-56 0 -89 25.5t-37 70.5l32 107l-2 2l-3 -1q-68 -203 -184 -203q-58 0 -88 46t-19 130l16 120q11 85 55.5 130t106.5 45q68 0 120 -62l7 50h80l-41 -310q-5 -38 5 -56.5t42 -18.5q53 0 90 50.5t37 127.5
v50q0 148 -83 224.5t-247 76.5q-147 0 -228.5 -86t-81.5 -245v-100q0 -146 78 -221.5t232 -75.5h135v-76h-135q-395 0 -395 373v100q0 187 99 297t296 110zM458 414q-34 0 -57.5 -26.5t-30.5 -80.5l-14 -104q-8 -62 3 -86.5t41 -24.5q52 0 90.5 61t57.5 141l8 64
q-42 56 -98 56z" />
    <glyph glyph-name="A" unicode="A" horiz-adv-x="532" 
d="M483 0h-91q-6 47 -22 152h-239q-34 -87 -64 -152h-90l280 655h105zM299 576l-136 -348h195q-26 166 -59 348z" />
    <glyph glyph-name="B" unicode="B" horiz-adv-x="528" 
d="M38 -3l82 665q108 5 164 5q106 0 160 -45.5t48 -118.5l-1 -11q-11 -117 -118 -152q54 -15 83.5 -58.5t21.5 -103.5l-2 -15q-24 -175 -244 -175q-76 0 -194 9zM168 367h103q59 0 93 30t40 83l1 9q6 53 -25.5 79t-106.5 26q-33 0 -77 -3zM159 298l-28 -230q60 -6 99 -6
q78 0 116 27.5t47 83.5l2 13q8 53 -25 82.5t-107 29.5h-104z" />
    <glyph glyph-name="C" unicode="C" horiz-adv-x="476" 
d="M303 667q74 0 149 -24l-11 -80q-77 30 -140 30q-111 0 -125 -124l-33 -275q-8 -69 15.5 -98.5t82.5 -29.5q65 0 150 38l-8 -80q-74 -36 -155 -36q-195 0 -169 219l31 256q25 204 213 204z" />
    <glyph glyph-name="D" unicode="D" horiz-adv-x="573" 
d="M39 -3l82 665q70 5 170 5q124 0 183.5 -72.5t43.5 -199.5l-21 -166q-31 -241 -281 -241q-86 0 -177 9zM197 593l-65 -525q55 -7 92 -7q77 0 127.5 43.5t60.5 122.5l22 175q12 95 -27.5 144t-121.5 49q-36 0 -88 -2z" />
    <glyph glyph-name="E" unicode="E" horiz-adv-x="485" 
d="M119 655h345l-10 -77h-260l-25 -207h240l-10 -76h-240l-27 -218h260l-8 -77h-345z" />
    <glyph glyph-name="F" unicode="F" horiz-adv-x="464" 
d="M454 578h-260l-25 -207h196l-10 -76h-196l-35 -295h-85l80 655h345z" />
    <glyph glyph-name="G" unicode="G" horiz-adv-x="555" 
d="M253 -12q-107 0 -157 57t-37 163l31 257q12 103 66 152.5t160 49.5q88 0 181 -29l-10 -78q-92 34 -175 34q-63 0 -96 -29t-41 -94l-34 -278q-16 -130 115 -130q63 0 118 22l26 213h-126l11 80h210l-41 -333q-108 -57 -201 -57z" />
    <glyph glyph-name="H" unicode="H" horiz-adv-x="580" 
d="M420 300h-260l-36 -300h-85l80 655h85l-35 -279h260l35 279h85l-80 -655h-85z" />
    <glyph glyph-name="I" unicode="I" horiz-adv-x="235" 
d="M119 655h85l-80 -655h-85z" />
    <glyph glyph-name="J" unicode="J" horiz-adv-x="287" 
d="M256 655l-64 -518q-10 -81 -43.5 -115t-98.5 -34q-45 0 -92 14l9 73q40 -14 76 -14q30 0 44.5 16t19.5 57l64 521h85z" />
    <glyph glyph-name="K" unicode="K" horiz-adv-x="525" 
d="M119 655h85l-37 -303q168 171 272 303h104l-288 -317l234 -338h-108q-124 200 -217 325l-40 -325h-85z" />
    <glyph glyph-name="L" unicode="L" horiz-adv-x="450" 
d="M119 655h85l-72 -580h260l-8 -75h-345z" />
    <glyph glyph-name="M" unicode="M" horiz-adv-x="699" 
d="M593 0h-84l59 535l-197 -467h-104l-80 465l-69 -533h-84l86 655h121q58 -291 84 -509q107 235 209 509h133z" />
    <glyph glyph-name="N" unicode="N" horiz-adv-x="582" 
d="M190 556l-67 -556h-84l80 655h125q88 -284 155 -555l68 555h84l-80 -655h-125z" />
    <glyph glyph-name="O" unicode="O" horiz-adv-x="576" 
d="M327 667q105 0 158 -58.5t40 -161.5l-31 -249q-26 -210 -238 -210q-108 0 -159.5 57.5t-38.5 162.5l31 249q14 108 71 159t167 51zM321 592q-132 0 -147 -127l-32 -268q-8 -66 23 -100t96 -34q131 0 147 128l33 267q17 134 -120 134z" />
    <glyph glyph-name="P" unicode="P" horiz-adv-x="510" 
d="M282 667q117 0 174 -54t43 -148l-2 -14q-13 -89 -73.5 -136.5t-164.5 -47.5q-34 0 -102 13l-33 -280h-85l81 662q87 5 162 5zM279 596q-41 0 -83 -2l-31 -247q54 -10 92 -10q69 0 106.5 29t48.5 90l2 11q11 60 -24 94.5t-111 34.5z" />
    <glyph glyph-name="Q" unicode="Q" horiz-adv-x="576" 
d="M327 667q106 0 158.5 -59t39.5 -161l-31 -249q-17 -130 -101 -179l96 -25l-8 -79h-19l-186 74q-7 -1 -20 -1q-109 0 -160 58t-38 162l31 249q14 108 71 159t167 51zM321 592q-132 0 -147 -127l-32 -268q-8 -66 22.5 -100t96.5 -34q131 0 147 128l33 267q16 134 -120 134z
" />
    <glyph glyph-name="R" unicode="R" horiz-adv-x="540" 
d="M289 667q110 0 166 -53.5t44 -136.5l-3 -20q-8 -56 -46.5 -99t-97.5 -62l137 -296h-97q-80 199 -127 285q-51 0 -106 8l-35 -293h-85l81 662q93 5 169 5zM282 596q-32 0 -86 -2l-29 -236q53 -6 88 -6q138 0 157 113l1 6q10 60 -23.5 92.5t-107.5 32.5z" />
    <glyph glyph-name="S" unicode="S" horiz-adv-x="456" 
d="M220 388l83 -34q130 -54 108 -196l-2 -13q-24 -157 -200 -157q-94 0 -180 42l10 85q69 -35 127 -49q20 -2 43 -2q52 0 79 21.5t35 66.5l2 11q8 46 -7.5 73t-59.5 45l-89 36q-65 26 -92.5 81.5t-10.5 128.5l2 9q29 131 201 131q69 0 151 -22l-11 -81q-56 16 -109 26
q-15 1 -35 1q-100 0 -112 -75l-2 -12q-13 -83 69 -116z" />
    <glyph glyph-name="T" unicode="T" horiz-adv-x="525" 
d="M74 655h465l-10 -77h-190l-70 -578h-85l70 578h-190z" />
    <glyph glyph-name="U" unicode="U" horiz-adv-x="576" 
d="M545 655l-56 -454q-14 -109 -69.5 -161t-158.5 -52q-109 0 -160 56.5t-38 159.5l56 451h85l-57 -458q-8 -63 23.5 -97.5t96.5 -34.5q61 0 94.5 31t41.5 98l57 461h85z" />
    <glyph glyph-name="V" unicode="V" horiz-adv-x="526" 
d="M283 0h-112l-114 655h85q58 -321 89 -573q129 286 231 573h95z" />
    <glyph glyph-name="W" unicode="W" horiz-adv-x="848" 
d="M638 0h-114l-68 558l-203 -558h-114l-70 655h87q33 -278 51 -562q104 262 200 562h114q44 -305 66 -562q94 250 187 562h93z" />
    <glyph glyph-name="X" unicode="X" horiz-adv-x="519" 
d="M319 335l151 -335h-100q-50 130 -114 268l-180 -268h-99l233 341l-141 314h96l105 -250q98 135 169 250h100z" />
    <glyph glyph-name="Y" unicode="Y" horiz-adv-x="491" 
d="M279 225l-27 -225h-85l27 225l-137 430h93q55 -184 94 -340q91 156 179 340h99z" />
    <glyph glyph-name="Z" unicode="Z" horiz-adv-x="480" 
d="M11 67l354 511h-285l10 77h389l-9 -67q-170 -224 -355 -511h292l-8 -77h-395z" />
    <glyph glyph-name="bracketleft" unicode="[" horiz-adv-x="260" 
d="M330 677h-120l-99 -699h120l-10 -70h-205l119 839h205z" />
    <glyph glyph-name="backslash" unicode="\" horiz-adv-x="320" 
d="M300 0h-85l-205 683h85z" />
    <glyph glyph-name="bracketright" unicode="]" horiz-adv-x="260" 
d="M136 -92h-204l10 70h119l99 699h-120l10 70h205z" />
    <glyph glyph-name="asciicircum" unicode="^" horiz-adv-x="495" 
d="M446 403h-80l-72 201l-127 -201h-86l184 280h75z" />
    <glyph glyph-name="underscore" unicode="_" horiz-adv-x="610" 
d="M478 -185h-480l10 65h480z" />
    <glyph glyph-name="grave" unicode="`" horiz-adv-x="229" 
d="M121 683l78 -119h-73l-96 119h91z" />
    <glyph glyph-name="a" unicode="a" horiz-adv-x="453" 
d="M404 0h-85l-18 113h-192q-34 -85 -47 -113h-85l226 511h99zM243 441l-106 -259h153q-31 176 -47 259z" />
    <glyph glyph-name="b" unicode="b" horiz-adv-x="462" 
d="M246 523q86 0 129.5 -35.5t38.5 -95.5l-1 -11q-8 -87 -103 -115q49 -11 76 -46.5t22 -83.5l-1 -9q-7 -63 -59 -101t-148 -38q-79 0 -163 6l65 523q9 0 38 2t58 3t48 1zM236 454q-19 0 -61 -3l-20 -159h79q44 0 69.5 21.5t30.5 57.5l1 8q5 37 -19.5 56t-79.5 19zM147 228
l-21 -167q53 -4 80 -4q108 0 120 75l2 12q6 38 -19.5 61t-77.5 23h-84z" />
    <glyph glyph-name="c" unicode="c" horiz-adv-x="422" 
d="M257 523q56 0 126 -24l-10 -74q-67 27 -118 27q-40 0 -65.5 -25t-31.5 -74l-24 -199q-6 -50 15 -72t74 -22q45 0 116 30l-8 -75q-64 -27 -123 -27q-85 0 -125 46.5t-29 135.5l23 179q12 90 56 132t124 42z" />
    <glyph glyph-name="d" unicode="d" horiz-adv-x="502" 
d="M248 523q99 0 150 -61.5t38 -167.5l-13 -104q-26 -202 -232 -202q-67 0 -154 7l65 522q117 6 146 6zM245 454q-30 0 -70 -2l-49 -391q42 -3 75 -3q125 0 141 133l14 111q9 76 -20.5 114t-90.5 38z" />
    <glyph glyph-name="e" unicode="e" horiz-adv-x="433" 
d="M101 511h293l-9 -73h-212l-18 -142h195l-8 -72h-195l-19 -151h212l-8 -73h-293z" />
    <glyph glyph-name="f" unicode="f" horiz-adv-x="408" 
d="M385 438h-212l-18 -142h158l-8 -72h-158l-27 -224h-81l62 511h293z" />
    <glyph glyph-name="g" unicode="g" horiz-adv-x="489" 
d="M270 523q69 0 148 -25l-10 -73q-82 28 -140 28q-102 0 -113 -96l-20 -182q-13 -116 87 -116q44 0 91 16l19 153h-98l9 71h176l-34 -269q-89 -42 -166 -42q-87 0 -130 54.5t-31 159.5l17 147q10 88 57 131t138 43z" />
    <glyph glyph-name="h" unicode="h" horiz-adv-x="512" 
d="M401 0h-81l27 227h-200l-27 -227h-81l62 511h81l-26 -212h200l26 212h81z" />
    <glyph glyph-name="i" unicode="i" horiz-adv-x="231" 
d="M101 511h81l-62 -511h-81z" />
    <glyph glyph-name="j" unicode="j" horiz-adv-x="260" 
d="M211 511l-49 -393q-9 -70 -39.5 -100t-89.5 -30q-38 0 -75 11l7 68q30 -10 60 -10q27 0 39.5 12t16.5 44l49 398h81z" />
    <glyph glyph-name="k" unicode="k" horiz-adv-x="459" 
d="M236 263l186 -263h-98q-97 150 -173 255l-31 -255h-81l62 511h81l-29 -236l214 236h97z" />
    <glyph glyph-name="l" unicode="l" horiz-adv-x="398" 
d="M101 511h81l-54 -439h212l-8 -72h-293z" />
    <glyph glyph-name="m" unicode="m" horiz-adv-x="610" 
d="M504 0h-79l43 385l-149 -330h-91l-65 330l-50 -385h-79l66 511h111q38 -179 68 -383q86 184 164 383h119z" />
    <glyph glyph-name="n" unicode="n" horiz-adv-x="513" 
d="M402 0h-111l-126 410l-48 -410h-78l62 511h114q79 -237 122 -408l49 408h78z" />
    <glyph glyph-name="o" unicode="o" horiz-adv-x="506" 
d="M269 523q90 0 136 -51.5t35 -137.5l-23 -184q-10 -83 -56.5 -122.5t-133.5 -39.5q-92 0 -138 52t-35 136l24 183q11 84 57.5 124t133.5 40zM268 452q-97 0 -110 -98l-24 -191q-6 -49 19 -76.5t74 -27.5q98 0 110 93l24 195q6 50 -19 77.5t-74 27.5z" />
    <glyph glyph-name="p" unicode="p" horiz-adv-x="446" 
d="M243 523q92 0 141.5 -45t39.5 -114l-2 -14q-11 -74 -59 -113.5t-130 -39.5q-42 0 -89 10l-24 -207h-81l63 517q99 6 141 6zM235 455q-18 0 -60 -3l-22 -182q38 -6 71 -6q105 0 117 95l1 8q5 43 -21.5 65.5t-85.5 22.5z" />
    <glyph glyph-name="q" unicode="q" horiz-adv-x="506" 
d="M269 523q90 0 136 -51.5t35 -137.5l-23 -184q-12 -95 -71 -133l70 -16l-7 -71h-21l-150 58h-11q-92 0 -138 52t-35 136l24 183q11 84 57.5 124t133.5 40zM268 452q-97 0 -110 -98l-24 -191q-6 -49 19 -76.5t74 -27.5q98 0 110 93l24 195q6 50 -19 77.5t-74 27.5z" />
    <glyph glyph-name="r" unicode="r" horiz-adv-x="469" 
d="M246 523q92 0 139.5 -46.5t36.5 -115.5l-2 -13q-8 -46 -37 -79.5t-73 -45.5l109 -223h-90q-62 144 -99 213q-45 0 -84 6l-26 -219h-81l63 517q17 1 46.5 2.5t53.5 2.5t44 1zM240 456q-25 0 -65 -4l-21 -169q38 -5 66 -5q109 0 122 78l1 6q8 45 -19 69.5t-84 24.5z" />
    <glyph glyph-name="s" unicode="s" horiz-adv-x="395" 
d="M222 523q56 0 124 -19l-10 -75q-29 10 -79 21q-24 2 -38 2q-41 0 -60.5 -14t-24.5 -45l-1 -7q-9 -58 53 -80l59 -23q119 -47 99 -156l-2 -11q-23 -128 -167 -128q-70 0 -152 34l11 79q57 -26 102 -37q22 -3 40 -3q76 0 87 66l1 6q9 58 -50 80l-59 22q-123 47 -104 158
l2 12q19 118 169 118z" />
    <glyph glyph-name="t" unicode="t" horiz-adv-x="450" 
d="M437 438h-154l-53 -438h-81l53 438h-155l9 73h390z" />
    <glyph glyph-name="u" unicode="u" horiz-adv-x="508" 
d="M459 511l-44 -355q-21 -168 -190 -168q-88 0 -132 48.5t-34 131.5l42 343h81l-44 -354q-6 -45 18 -71t70 -26q96 0 108 93l44 358h81z" />
    <glyph glyph-name="v" unicode="v" horiz-adv-x="448" 
d="M239 0h-101l-99 511h83q47 -247 71 -437q100 222 179 437h89z" />
    <glyph glyph-name="w" unicode="w" horiz-adv-x="714" 
d="M532 0h-105l-55 426l-156 -426h-105l-60 511h84q30 -265 39 -427q79 205 156 427h104q30 -221 50 -426q78 215 144 426h87z" />
    <glyph glyph-name="x" unicode="x" horiz-adv-x="434" 
d="M260 262l125 -262h-87q-48 115 -91 202l-139 -202h-91l188 262l-117 249h83l85 -191q77 104 132 191h91z" />
    <glyph glyph-name="y" unicode="y" horiz-adv-x="425" 
d="M238 174l-20 -174h-82l20 174l-117 337h89q49 -152 77 -263q69 119 141 263h93z" />
    <glyph glyph-name="z" unicode="z" horiz-adv-x="418" 
d="M399 511l-7 -64q-123 -149 -282 -374h235l-8 -73h-333l6 62l280 376h-228l9 73h328z" />
    <glyph glyph-name="braceleft" unicode="{" horiz-adv-x="256" 
d="M333 749l-10 -72q-55 8 -71.5 -3.5t-25.5 -70.5l-23 -154q-14 -96 -75 -115q29 -11 39 -37.5t3 -77.5l-22 -152q-8 -56 5.5 -72.5t68.5 -16.5l-10 -70q-106 0 -134 34.5t-12 145.5l19 131q7 45 -5 62.5t-48 17.5h-25l9 70h25q37 0 53.5 17t23.5 63l20 135
q17 116 53.5 147t141.5 18z" />
    <glyph glyph-name="bar" unicode="|" horiz-adv-x="225" 
d="M99 -112h-85l128 910h85z" />
    <glyph glyph-name="braceright" unicode="}" horiz-adv-x="256" 
d="M45 677l10 70q106 0 134.5 -35t11.5 -145l-18 -118q-7 -45 5 -62.5t48 -17.5h25l-9 -70h-25q-37 0 -54 -17t-23 -63l-19 -148q-15 -115 -52 -146.5t-143 -18.5l10 72q55 -8 72 3.5t25 70.5l22 167q13 96 75 115q-29 11 -39 37.5t-3 77.5l21 139q8 56 -5.5 72.5
t-68.5 16.5z" />
    <glyph glyph-name="asciitilde" unicode="~" horiz-adv-x="390" 
d="M381 349l-10 -70q-46 -28 -104 -28q-36 0 -77 14t-75 14q-16 0 -41.5 -6.5t-43.5 -12.5l-17 -6l10 70q46 28 104 28q36 0 78 -14t74 -14q16 0 41.5 6t43.5 12z" />
    <glyph glyph-name="uni00A0" unicode="&#xa0;" horiz-adv-x="180" 
 />
    <glyph glyph-name="exclamdown" unicode="&#xa1;" horiz-adv-x="211" 
d="M125 403q-27 0 -41.5 13.5t-11.5 35.5l4 29q6 42 59 42q27 0 41 -13.5t11 -34.5l-3 -23q-3 -26 -16.5 -37.5t-42.5 -11.5zM67 311h81l-62 -495h-95z" />
    <glyph glyph-name="cent" unicode="&#xa2;" horiz-adv-x="390" 
d="M145 328l-21 -154q-15 -111 69 -111q61 0 118 33l-9 -77q-46 -21 -83 -27l-11 -80h-75l11 79q-61 11 -89 58t-17 124l21 148q23 163 156 178l11 77h75l-11 -79q29 -4 67 -15l-12 -76q-59 22 -103 22q-82 0 -97 -100z" />
    <glyph glyph-name="sterling" unicode="&#xa3;" horiz-adv-x="397" 
d="M277 613q58 0 114 -20l-10 -72q-56 22 -102 22q-39 0 -59 -18t-26 -60l-12 -90h95l-10 -70h-95l-14 -101q-7 -55 -19.5 -82.5t-39.5 -47.5h263l-10 -74h-347l8 60q47 48 56 116l18 129h-70l10 70h70l12 85q11 80 51.5 116.5t116.5 36.5z" />
    <glyph glyph-name="currency" unicode="&#xa4;" horiz-adv-x="470" 
d="M475 467l-69 -60q12 -37 5 -84l-3 -20q-7 -49 -34 -90l56 -64l-63 -56l-54 63q-43 -24 -102 -24q-57 0 -94 22l-68 -61l-49 56l71 61q-17 41 -10 93l3 20q7 51 31 87l-50 57l64 56l46 -55q47 26 107 26q62 0 101 -28l64 57zM252 421q-47 0 -73.5 -27t-32.5 -71l-3 -20
q-14 -99 78 -99q91 0 105 99l3 20q14 98 -77 98z" />
    <glyph glyph-name="yen" unicode="&#xa5;" horiz-adv-x="455" 
d="M287 259h72l-9 -70h-95l-6 -41h95l-10 -70h-94l-10 -78h-85l10 78h-95l10 70h94l6 41h-94l10 70h71l-118 342h91q48 -144 91 -321q108 178 183 321h100z" />
    <glyph glyph-name="brokenbar" unicode="&#xa6;" horiz-adv-x="225" 
d="M172 408h-85l55 393h85zM98 -115h-85l56 393h85z" />
    <glyph glyph-name="section" unicode="&#xa7;" horiz-adv-x="418" 
d="M254 695q52 0 122 -20l-12 -77q-53 20 -81 26q-20 2 -36 2q-65 0 -72 -61l-1 -9q-6 -56 39 -76l98 -44q99 -45 87 -146l-2 -16q-5 -45 -38.5 -76.5t-86.5 -42.5q68 -45 58 -136l-2 -17q-14 -120 -167 -120q-52 0 -122 20l12 77q53 -20 81 -26q20 -2 36 -2q74 0 81 61l1 9
q6 56 -39 76l-98 44q-99 44 -87 146l2 16q7 45 40 76.5t84 42.5q-71 45 -57 136l2 17q14 120 158 120zM268 368l-28 12q-51 2 -88 -20t-43 -65l-1 -6q-8 -55 47 -80l28 -13q50 -2 87 20.5t44 65.5l1 6q8 56 -47 80z" />
    <glyph glyph-name="dieresis" unicode="&#xa8;" horiz-adv-x="346" 
d="M143 650l-3 -29q-6 -44 -61 -44q-25 0 -37.5 11.5t-10.5 32.5l3 29q4 45 59 45q27 0 40 -11.5t10 -33.5zM315 650l-3 -29q-6 -44 -61 -44q-26 0 -38 11.5t-10 32.5l3 29q4 45 59 45q27 0 40 -11.5t10 -33.5z" />
    <glyph glyph-name="copyright" unicode="&#xa9;" horiz-adv-x="646" 
d="M356 616q128 0 188 -62t47 -164l-27 -197q-14 -104 -79.5 -156t-190.5 -52q-130 0 -190 62.5t-46 163.5l27 197q14 106 80.5 157t190.5 51zM354 550q-177 0 -196 -134l-29 -212q-10 -71 34 -112t134 -41q87 0 136.5 34.5t58.5 99.5l29 212q10 71 -33.5 112t-133.5 41z
M355 480q39 0 78 -12l-11 -68q-39 14 -68 14q-58 0 -68 -76l-7 -55q-11 -86 43 -86q40 0 79 15l-7 -66q-46 -17 -81 -17q-66 0 -96 41t-19 117l8 56q10 73 46 105t103 32z" />
    <glyph glyph-name="ordfeminine" unicode="&#xaa;" horiz-adv-x="469" 
d="M242 667q65 0 120 -59l7 47h80l-59 -429h-81l8 58l41 125l-2 2l-3 -1q-67 -196 -183 -196q-60 0 -90 48.5t-17 130.5l18 105q13 83 55 126t106 43zM256 591q-38 0 -60 -22.5t-31 -78.5l-15 -86q-19 -114 44 -114q37 0 70 35.5t51.5 81t28.5 95.5l6 38q-18 23 -44 37
t-50 14zM359 0h-339l10 73h339z" />
    <glyph glyph-name="guillemotleft" unicode="&#xab;" horiz-adv-x="488" 
d="M164 268l69 -170h-88l-76 170l124 170h88zM334 268l69 -170h-88l-76 170l124 170h88z" />
    <glyph glyph-name="logicalnot" unicode="&#xac;" horiz-adv-x="390" 
d="M350 113h-76l22 152h-285l10 70h361z" />
    <glyph glyph-name="uni00AD" unicode="&#xad;" horiz-adv-x="350" 
d="M281 263h-220l10 65h220z" />
    <glyph glyph-name="registered" unicode="&#xae;" horiz-adv-x="528" 
d="M304 695q204 0 181 -194l-4 -33q-12 -87 -59.5 -128t-149.5 -41q-100 0 -144 52.5t-31 140.5l5 34q12 88 56.5 128.5t145.5 40.5zM303 651q-76 0 -110 -27.5t-42 -90.5l-7 -52q-9 -64 23.5 -101t107.5 -37q76 0 112 27.5t45 90.5l7 53q9 64 -25.5 100.5t-110.5 36.5z
M305 617q45 0 67 -22.5t16 -57.5l-1 -6q-6 -41 -54 -58l44 -91h-49q-17 47 -38 84q-18 0 -34 3l-12 -87h-43l33 230q45 5 71 5zM302 579q-15 0 -31 -2l-9 -72q20 -2 34 -2q40 0 47 32l1 5q3 17 -7.5 28t-34.5 11z" />
    <glyph glyph-name="macron" unicode="&#xaf;" horiz-adv-x="269" 
d="M37 640h202l-7 -70h-202z" />
    <glyph glyph-name="degree" unicode="&#xb0;" horiz-adv-x="390" 
d="M240 695q80 0 119.5 -48t28.5 -129l-2 -21q-13 -83 -52.5 -120.5t-118.5 -37.5q-80 0 -120.5 48t-29.5 129l3 21q12 82 52.5 120t119.5 38zM238 626q-41 0 -63 -22t-28 -71l-3 -21q-7 -45 10.5 -74.5t61.5 -29.5q43 0 64 24t27 69l3 21q7 50 -12.5 77t-59.5 27z" />
    <glyph glyph-name="plusminus" unicode="&#xb1;" horiz-adv-x="390" 
d="M240 336h140l-10 -71h-140l-22 -152h-76l22 152h-140l10 71h140l21 152h76zM332 0h-356l9 70h356z" />
    <glyph glyph-name="twosuperior" unicode="&#xb2;" horiz-adv-x="400" 
d="M249 760q74 0 104.5 -30.5t23.5 -84.5l-1 -8q-8 -65 -85 -136l-114 -106h165l-9 -64h-256l8 56l172 174q39 39 43 74l1 9q3 26 -12.5 39t-53.5 13q-51 0 -100 -21l9 66q59 19 105 19z" />
    <glyph glyph-name="threesuperior" unicode="&#xb3;" horiz-adv-x="400" 
d="M239 760q65 0 95 -31t23 -83l-1 -7q-8 -65 -74 -90q33 -13 49.5 -41t11.5 -61l-1 -7q-16 -117 -155 -117q-51 0 -103 18l8 60q52 -18 98 -18q65 0 73 59l1 8q8 69 -67 69h-58l9 58h58q37 0 55 13.5t22 46.5l1 7q8 58 -59 58q-39 0 -91 -13l9 59q58 12 96 12z" />
    <glyph glyph-name="acute" unicode="&#xb4;" horiz-adv-x="225" 
d="M30 564l74 119h91l-92 -119h-73z" />
    <glyph glyph-name="mu" unicode="&#xb5;" horiz-adv-x="610" 
d="M504 0h-79l43 385l-149 -330h-91l-65 330l-50 -385h-79l66 511h111q38 -179 68 -383q86 184 164 383h119z" />
    <glyph glyph-name="paragraph" unicode="&#xb6;" horiz-adv-x="546" 
d="M213 -185h-86l70 497h-42q-60 0 -91.5 37t-22.5 100l17 121q17 113 139 113h138zM404 -185h-86l122 868h86zM238 610h-41q-28 0 -41.5 -14t-18.5 -52l-11 -82q-5 -40 6 -57t38 -17h37z" />
    <glyph glyph-name="periodcentered" unicode="&#xb7;" horiz-adv-x="221" 
d="M79 309q27 0 41.5 -13.5t11.5 -35.5l-4 -29q-6 -42 -59 -42q-27 0 -41 13.5t-11 34.5l3 23q3 26 16.5 37.5t42.5 11.5z" />
    <glyph glyph-name="cedilla" unicode="&#xb8;" horiz-adv-x="216" 
d="M127 -41h2q28 0 44 -20t12 -51l-1 -9q-10 -76 -95 -76q-28 0 -59 9l7 55q23 -10 45 -10q31 0 35 23l1 7q2 16 -6.5 24.5t-27.5 8.5h-26l3 20l41 88h55z" />
    <glyph glyph-name="onesuperior" unicode="&#xb9;" horiz-adv-x="400" 
d="M272 395h79l-9 -64h-252l9 64h92l41 284l-105 -42l-6 67l135 48h66z" />
    <glyph glyph-name="ordmasculine" unicode="&#xba;" horiz-adv-x="492" 
d="M450 482l-13 -88q-13 -91 -58 -135t-132 -44q-91 0 -133 50t-29 135l14 89q14 89 58.5 133.5t133.5 44.5q90 0 130.5 -49.5t28.5 -135.5zM351 388l16 103q7 50 -14.5 77.5t-65.5 27.5q-87 0 -102 -102l-16 -102q-8 -50 14.5 -78t66.5 -28q89 0 101 102zM45 73h342
l-10 -73h-342z" />
    <glyph glyph-name="guillemotright" unicode="&#xbb;" horiz-adv-x="488" 
d="M257 268l-124 -170h-88l117 170l-69 170h88zM427 268l-124 -170h-88l117 170l-69 170h88z" />
    <glyph glyph-name="onequarter" unicode="&#xbc;" horiz-adv-x="1004" 
d="M252 245h79l-9 -64h-252l9 64h92l41 284l-105 -42l-6 67l135 48h66zM355 0h-83l389 601h83zM708 152h105l1 7l18 127h76l-19 -134h56l-8 -62h-56l-13 -90h-77l13 90h-171l-15 42l145 289h76z" />
    <glyph glyph-name="onehalf" unicode="&#xbd;" horiz-adv-x="1022" 
d="M252 245h79l-9 -64h-252l9 64h92l41 284l-105 -42l-6 67l135 48h66zM359 0h-83l389 601h83zM825 429q74 0 104.5 -30.5t23.5 -84.5l-1 -8q-8 -65 -85 -136l-114 -106h165l-9 -64h-256l8 56l172 174q39 39 43 74l1 9q3 26 -12.5 39t-53.5 13q-51 0 -100 -21l9 66
q59 19 105 19z" />
    <glyph glyph-name="threequarters" unicode="&#xbe;" horiz-adv-x="1000" 
d="M193 610q65 0 95 -31t23 -83l-1 -7q-8 -65 -74 -90q33 -13 49.5 -41t11.5 -61l-1 -7q-16 -117 -155 -117q-51 0 -103 18l8 60q52 -18 98 -18q65 0 73 59l1 8q8 69 -67 69h-58l9 58h58q37 0 55 13.5t22 46.5l1 7q8 58 -59 58q-39 0 -91 -13l9 59q58 12 96 12zM355 0h-83
l389 601h83zM708 152h105l1 7l18 127h76l-19 -134h56l-8 -62h-56l-13 -90h-77l13 90h-171l-15 42l145 289h76z" />
    <glyph glyph-name="questiondown" unicode="&#xbf;" horiz-adv-x="395" 
d="M259 390q-27 0 -41.5 13.5t-11.5 35.5l4 29q6 42 59 42q27 0 41 -13.5t11 -34.5l-3 -23q-3 -26 -16.5 -37.5t-42.5 -11.5zM173 -197q-96 0 -135 41.5t-29 111.5l2 15q6 45 30 83t78 87l40 36q17 15 26.5 34.5t15.5 59.5l4 27h76l-4 -28q-7 -47 -21.5 -78.5t-43.5 -58.5
l-59 -57q-33 -31 -44.5 -54t-15.5 -59l-1 -10q-4 -39 17 -60.5t78 -21.5q60 0 127 28l-10 -73q-74 -23 -131 -23z" />
    <glyph glyph-name="Agrave" unicode="&#xc0;" horiz-adv-x="532" 
d="M483 0h-91q-6 47 -22 152h-239q-34 -87 -64 -152h-90l280 655h105zM299 576l-136 -348h195q-26 166 -59 348zM294 829l54 -119h-70l-73 119h89z" />
    <glyph glyph-name="Aacute" unicode="&#xc1;" horiz-adv-x="532" 
d="M483 0h-91q-6 47 -22 152h-239q-34 -87 -64 -152h-90l280 655h105zM299 576l-136 -348h195q-26 166 -59 348zM275 710l78 119h89l-97 -119h-70z" />
    <glyph glyph-name="Acircumflex" unicode="&#xc2;" horiz-adv-x="532" 
d="M483 0h-91q-6 47 -22 152h-239q-34 -87 -64 -152h-90l280 655h105zM299 576l-136 -348h195q-26 166 -59 348zM462 779l-7 -68l-135 49l-145 -49l7 68l147 61z" />
    <glyph glyph-name="Atilde" unicode="&#xc3;" horiz-adv-x="532" 
d="M483 0h-91q-6 47 -22 152h-239q-34 -87 -64 -152h-90l280 655h105zM299 576l-136 -348h195q-26 166 -59 348zM464 810l-6 -70q-38 -30 -84 -30q-22 0 -60.5 12.5t-58.5 12.5q-15 0 -35 -6.5t-33 -12.5l-13 -6l7 70q37 30 83 30q29 0 66 -12.5t54 -12.5q15 0 35 6.5
t33 12.5z" />
    <glyph glyph-name="Adieresis" unicode="&#xc4;" horiz-adv-x="532" 
d="M483 0h-91q-6 47 -22 152h-239q-34 -87 -64 -152h-90l280 655h105zM299 576l-136 -348h195q-26 166 -59 348zM286 781l-4 -29q-3 -42 -54 -42q-26 0 -42 13t-13 34l4 28q6 43 55 43q57 0 54 -47zM458 781l-4 -29q-3 -42 -54 -42q-27 0 -42.5 13t-12.5 34l4 28q6 43 55 43
q27 0 41 -12.5t13 -34.5z" />
    <glyph glyph-name="Aring" unicode="&#xc5;" horiz-adv-x="532" 
d="M330 798q47 0 77 -24.5t30 -64.5q0 -74 -67 -97l113 -612h-91q-17 123 -22 152h-239l-64 -152h-90l267 626q-33 25 -33 68q0 48 31.5 76t87.5 28zM328 747q-30 0 -42.5 -11.5t-12.5 -37.5q0 -42 49 -43q30 0 42 12.5t12 39.5q0 40 -48 40zM299 576l-136 -348h195
q-26 166 -59 348z" />
    <glyph glyph-name="AE" unicode="&#xc6;" horiz-adv-x="761" 
d="M730 578h-260l-25 -207h240l-10 -76h-240l-27 -218h260l-8 -77h-345l18 152h-195l-92 -152h-92l388 655h398zM343 228l44 364q-85 -160 -204 -364h160z" />
    <glyph glyph-name="Ccedilla" unicode="&#xc7;" horiz-adv-x="476" 
d="M303 667q74 0 149 -24l-11 -80q-77 30 -140 30q-111 0 -125 -124l-33 -275q-8 -69 15.5 -98.5t82.5 -29.5q65 0 150 38l-8 -80q-46 -23 -112 -33l-14 -32h2q28 0 44 -20t12 -51l-1 -9q-10 -76 -95 -76q-28 0 -59 9l7 55q23 -10 45 -10q31 0 35 23l1 7q2 16 -6.5 24.5
t-27.5 8.5h-26l3 20l23 48q-180 8 -155 219l31 256q25 204 213 204z" />
    <glyph glyph-name="Egrave" unicode="&#xc8;" horiz-adv-x="485" 
d="M119 655h345l-10 -77h-260l-25 -207h240l-10 -76h-240l-27 -218h260l-8 -77h-345zM277 829l54 -119h-70l-73 119h89z" />
    <glyph glyph-name="Eacute" unicode="&#xc9;" horiz-adv-x="485" 
d="M119 655h345l-10 -77h-260l-25 -207h240l-10 -76h-240l-27 -218h260l-8 -77h-345zM258 710l78 119h89l-97 -119h-70z" />
    <glyph glyph-name="Ecircumflex" unicode="&#xca;" horiz-adv-x="485" 
d="M119 655h345l-10 -77h-260l-25 -207h240l-10 -76h-240l-27 -218h260l-8 -77h-345zM445 779l-7 -68l-135 49l-145 -49l7 68l147 61z" />
    <glyph glyph-name="Edieresis" unicode="&#xcb;" horiz-adv-x="485" 
d="M119 655h345l-10 -77h-260l-25 -207h240l-10 -76h-240l-27 -218h260l-8 -77h-345zM269 781l-4 -29q-3 -42 -54 -42q-26 0 -42 13t-13 34l4 28q6 43 55 43q57 0 54 -47zM441 781l-4 -29q-3 -42 -54 -42q-27 0 -42.5 13t-12.5 34l4 28q6 43 55 43q27 0 41 -12.5t13 -34.5z
" />
    <glyph glyph-name="Igrave" unicode="&#xcc;" horiz-adv-x="235" 
d="M119 655h85l-80 -655h-85zM147 829l54 -119h-70l-73 119h89z" />
    <glyph glyph-name="Iacute" unicode="&#xcd;" horiz-adv-x="235" 
d="M119 655h85l-80 -655h-85zM128 710l78 119h89l-97 -119h-70z" />
    <glyph glyph-name="Icircumflex" unicode="&#xce;" horiz-adv-x="235" 
d="M119 655h85l-80 -655h-85zM315 779l-7 -68l-135 49l-145 -49l7 68l147 61z" />
    <glyph glyph-name="Idieresis" unicode="&#xcf;" horiz-adv-x="235" 
d="M119 655h85l-80 -655h-85zM139 781l-4 -29q-3 -42 -54 -42q-26 0 -42 13t-13 34l4 28q6 43 55 43q57 0 54 -47zM311 781l-4 -29q-3 -42 -54 -42q-27 0 -42.5 13t-12.5 34l4 28q6 43 55 43q27 0 41 -12.5t13 -34.5z" />
    <glyph glyph-name="Eth" unicode="&#xd0;" horiz-adv-x="576" 
d="M294 667q124 0 183.5 -72.5t43.5 -199.5l-21 -166q-31 -241 -281 -241q-85 0 -177 9l37 306h-70l10 70h69l36 289q70 5 170 5zM288 595q-36 0 -88 -2l-28 -220h137l-10 -70h-135l-29 -235q55 -7 92 -7q77 0 127.5 43.5t60.5 122.5l22 175q12 95 -27.5 144t-121.5 49z" />
    <glyph glyph-name="Ntilde" unicode="&#xd1;" horiz-adv-x="582" 
d="M190 556l-67 -556h-84l80 655h125q88 -284 155 -555l68 555h84l-80 -655h-125zM501 810l-6 -70q-38 -30 -84 -30q-22 0 -60.5 12.5t-58.5 12.5q-15 0 -35 -6.5t-33 -12.5l-13 -6l7 70q37 30 83 30q29 0 66 -12.5t54 -12.5q15 0 35 6.5t32 12.5z" />
    <glyph glyph-name="Ograve" unicode="&#xd2;" horiz-adv-x="576" 
d="M327 667q105 0 158 -58.5t40 -161.5l-31 -249q-26 -210 -238 -210q-108 0 -159.5 57.5t-38.5 162.5l31 249q14 108 71 159t167 51zM321 592q-132 0 -147 -127l-32 -268q-8 -66 23 -100t96 -34q131 0 147 128l33 267q17 134 -120 134zM309 829l54 -119h-70l-73 119h89z
" />
    <glyph glyph-name="Oacute" unicode="&#xd3;" horiz-adv-x="576" 
d="M327 667q105 0 158 -58.5t40 -161.5l-31 -249q-26 -210 -238 -210q-108 0 -159.5 57.5t-38.5 162.5l31 249q14 108 71 159t167 51zM321 592q-132 0 -147 -127l-32 -268q-8 -66 23 -100t96 -34q131 0 147 128l33 267q17 134 -120 134zM290 710l78 119h89l-97 -119h-70z
" />
    <glyph glyph-name="Ocircumflex" unicode="&#xd4;" horiz-adv-x="576" 
d="M327 667q105 0 158 -58.5t40 -161.5l-31 -249q-26 -210 -238 -210q-108 0 -159.5 57.5t-38.5 162.5l31 249q14 108 71 159t167 51zM321 592q-132 0 -147 -127l-32 -268q-8 -66 23 -100t96 -34q131 0 147 128l33 267q17 134 -120 134zM477 779l-7 -68l-135 49l-145 -49
l7 68l147 61z" />
    <glyph glyph-name="Otilde" unicode="&#xd5;" horiz-adv-x="576" 
d="M327 667q105 0 158 -58.5t40 -161.5l-31 -249q-26 -210 -238 -210q-108 0 -159.5 57.5t-38.5 162.5l31 249q14 108 71 159t167 51zM321 592q-132 0 -147 -127l-32 -268q-8 -66 23 -100t96 -34q131 0 147 128l33 267q17 134 -120 134zM479 810l-6 -70q-38 -30 -84 -30
q-22 0 -60.5 12.5t-58.5 12.5q-15 0 -35 -6.5t-33 -12.5l-13 -6l7 70q37 30 83 30q29 0 66 -12.5t54 -12.5q15 0 35 6.5t32 12.5z" />
    <glyph glyph-name="Odieresis" unicode="&#xd6;" horiz-adv-x="576" 
d="M327 667q105 0 158 -58.5t40 -161.5l-31 -249q-26 -210 -238 -210q-108 0 -159.5 57.5t-38.5 162.5l31 249q14 108 71 159t167 51zM321 592q-132 0 -147 -127l-32 -268q-8 -66 23 -100t96 -34q131 0 147 128l33 267q17 134 -120 134zM301 781l-4 -29q-3 -42 -54 -42
q-26 0 -42 13t-13 34l4 28q6 43 55 43q57 0 54 -47zM473 781l-4 -29q-3 -42 -54 -42q-27 0 -42.5 13t-12.5 34l4 28q6 43 55 43q27 0 41 -12.5t13 -34.5z" />
    <glyph glyph-name="multiply" unicode="&#xd7;" horiz-adv-x="390" 
d="M369 408l-121 -106l93 -108l-62 -53l-93 107l-119 -105l-43 50l119 105l-91 108l60 54l93 -108l121 106z" />
    <glyph glyph-name="Oslash" unicode="&#xd8;" horiz-adv-x="576" 
d="M602 705l-94 -130q26 -53 17 -128l-31 -249q-26 -210 -238 -210q-79 0 -130 32l-52 -70h-89l90 125q-28 53 -17 133l31 249q14 108 71 159t167 51q82 0 133 -37l53 75h89zM321 592q-132 0 -147 -127l-32 -268q-3 -23 -2 -38l277 401q-30 32 -96 32zM442 487l-273 -395
q30 -29 92 -29q131 0 147 128l33 267q1 10 1 29z" />
    <glyph glyph-name="Ugrave" unicode="&#xd9;" horiz-adv-x="576" 
d="M545 655l-56 -454q-14 -109 -69.5 -161t-158.5 -52q-109 0 -160 56.5t-38 159.5l56 451h85l-57 -458q-8 -63 23.5 -97.5t96.5 -34.5q61 0 94.5 31t41.5 98l57 461h85zM315 829l54 -119h-70l-73 119h89z" />
    <glyph glyph-name="Uacute" unicode="&#xda;" horiz-adv-x="576" 
d="M545 655l-56 -454q-14 -109 -69.5 -161t-158.5 -52q-109 0 -160 56.5t-38 159.5l56 451h85l-57 -458q-8 -63 23.5 -97.5t96.5 -34.5q61 0 94.5 31t41.5 98l57 461h85zM296 710l78 119h89l-97 -119h-70z" />
    <glyph glyph-name="Ucircumflex" unicode="&#xdb;" horiz-adv-x="576" 
d="M545 655l-56 -454q-14 -109 -69.5 -161t-158.5 -52q-109 0 -160 56.5t-38 159.5l56 451h85l-57 -458q-8 -63 23.5 -97.5t96.5 -34.5q61 0 94.5 31t41.5 98l57 461h85zM483 779l-7 -68l-135 49l-145 -49l7 68l147 61z" />
    <glyph glyph-name="Udieresis" unicode="&#xdc;" horiz-adv-x="576" 
d="M545 655l-56 -454q-14 -109 -69.5 -161t-158.5 -52q-109 0 -160 56.5t-38 159.5l56 451h85l-57 -458q-8 -63 23.5 -97.5t96.5 -34.5q61 0 94.5 31t41.5 98l57 461h85zM307 781l-4 -29q-3 -42 -54 -42q-26 0 -42 13t-13 34l4 28q6 43 55 43q57 0 54 -47zM479 781l-4 -29
q-3 -42 -54 -42q-27 0 -42.5 13t-12.5 34l4 28q6 43 55 43q27 0 41 -12.5t13 -34.5z" />
    <glyph glyph-name="Yacute" unicode="&#xdd;" horiz-adv-x="491" 
d="M279 225l-27 -225h-85l27 225l-137 430h93q55 -184 94 -340q91 156 179 340h99zM251 710l78 119h89l-97 -119h-70z" />
    <glyph glyph-name="Thorn" unicode="&#xde;" horiz-adv-x="502" 
d="M216 655l-17 -120q58 2 81 2q117 0 170 -53t40 -149l-2 -15q-31 -183 -242 -183q-40 0 -101 11l-21 -148h-85l92 655h85zM272 466q-41 0 -83 -2l-35 -247q55 -9 91 -9q138 0 159 124l2 12q9 58 -24.5 90t-109.5 32z" />
    <glyph glyph-name="germandbls" unicode="&#xdf;" horiz-adv-x="770" 
d="M222 523q56 0 124 -19l-10 -75q-29 10 -79 21q-24 2 -38 2q-41 0 -60.5 -14t-24.5 -45l-1 -7q-9 -58 53 -80l59 -23q119 -47 99 -156l-2 -11q-23 -128 -167 -128q-70 0 -152 34l11 79q57 -26 102 -37q22 -3 40 -3q76 0 87 66l1 6q9 58 -50 80l-59 22q-123 47 -104 158
l2 12q19 118 169 118zM597 523q56 0 124 -19l-10 -75q-29 10 -79 21q-24 2 -38 2q-41 0 -60.5 -14t-24.5 -45l-1 -7q-9 -58 53 -80l59 -23q118 -47 99 -156l-2 -11q-23 -128 -167 -128q-70 0 -152 34l11 79q57 -26 102 -37q22 -3 40 -3q77 0 87 66l1 6q9 58 -50 80l-59 22
q-123 47 -104 158l2 12q19 118 169 118z" />
    <glyph glyph-name="agrave" unicode="&#xe0;" horiz-adv-x="453" 
d="M404 0h-85l-18 113h-192q-34 -85 -47 -113h-85l226 511h99zM243 441l-106 -259h153q-31 176 -47 259zM213 683l78 -119h-73l-96 119h91z" />
    <glyph glyph-name="aacute" unicode="&#xe1;" horiz-adv-x="453" 
d="M404 0h-85l-18 113h-192q-34 -85 -47 -113h-85l226 511h99zM243 441l-106 -259h153q-31 176 -47 259zM221 564l74 119h91l-92 -119h-73z" />
    <glyph glyph-name="acircumflex" unicode="&#xe2;" horiz-adv-x="453" 
d="M404 0h-85l-18 113h-192q-34 -85 -47 -113h-85l226 511h99zM243 441l-106 -259h153q-31 176 -47 259zM385 632l-7 -62l-114 45l-124 -45l7 65l125 53z" />
    <glyph glyph-name="atilde" unicode="&#xe3;" horiz-adv-x="453" 
d="M404 0h-85l-18 113h-192q-34 -85 -47 -113h-85l226 511h99zM243 441l-106 -259h153q-31 176 -47 259zM387 663l-9 -66q-30 -25 -71 -25q-19 0 -51 9.5t-49 9.5q-12 0 -29.5 -5.5t-28.5 -10.5l-11 -5l7 69q31 22 72 22q23 0 54 -9.5t46 -9.5q13 0 30.5 5t28.5 11z" />
    <glyph glyph-name="adieresis" unicode="&#xe4;" horiz-adv-x="453" 
d="M404 0h-85l-18 113h-192q-34 -85 -47 -113h-85l226 511h99zM243 441l-106 -259h153q-31 176 -47 259zM228 650l-3 -29q-6 -44 -61 -44q-25 0 -37.5 11.5t-10.5 32.5l3 29q5 45 59 45q27 0 40 -11.5t10 -33.5zM400 650l-3 -29q-6 -44 -61 -44q-26 0 -38 11.5t-10 32.5
l3 29q5 45 59 45q27 0 40 -11.5t10 -33.5z" />
    <glyph glyph-name="aring" unicode="&#xe5;" horiz-adv-x="453" 
d="M259 660q39 0 65 -21t27 -54q2 -56 -48 -79l101 -506h-85l-18 113h-192q-34 -85 -47 -113h-85l224 507q-40 21 -41 65q-1 40 25 64t74 24zM257 611q-22 0 -31 -8.5t-8 -27.5q0 -14 9.5 -22.5t26.5 -8.5q21 0 29.5 9t8.5 29q-2 29 -35 29zM243 441l-106 -259h153
q-31 176 -47 259z" />
    <glyph glyph-name="ae" unicode="&#xe6;" horiz-adv-x="653" 
d="M605 438h-212l-18 -142h195l-8 -72h-195l-19 -151h212l-8 -73h-293l13 113h-141l-63 -113h-91l298 511h339zM281 182l33 270l-145 -270h112z" />
    <glyph glyph-name="ccedilla" unicode="&#xe7;" horiz-adv-x="422" 
d="M257 523q56 0 126 -24l-10 -74q-67 27 -118 27q-40 0 -65.5 -25t-31.5 -74l-24 -199q-6 -50 15 -72t74 -22q45 0 116 30l-8 -75q-63 -26 -118 -27l-12 -29h2q28 0 44 -20t12 -51l-1 -9q-10 -76 -95 -76q-28 0 -59 9l7 55q23 -10 45 -10q31 0 35 23l1 7q2 16 -6.5 24.5
t-27.5 8.5h-26l3 20l24 53q-61 11 -88 56t-17 121l23 179q12 90 56 132t124 42z" />
    <glyph glyph-name="egrave" unicode="&#xe8;" horiz-adv-x="433" 
d="M101 511h293l-9 -73h-212l-18 -142h195l-8 -72h-195l-19 -151h212l-8 -73h-293zM207 683l78 -119h-73l-96 119h91z" />
    <glyph glyph-name="eacute" unicode="&#xe9;" horiz-adv-x="433" 
d="M101 511h293l-9 -73h-212l-18 -142h195l-8 -72h-195l-19 -151h212l-8 -73h-293zM215 564l74 119h91l-92 -119h-73z" />
    <glyph glyph-name="ecircumflex" unicode="&#xea;" horiz-adv-x="433" 
d="M101 511h293l-9 -73h-212l-18 -142h195l-8 -72h-195l-19 -151h212l-8 -73h-293zM379 632l-7 -62l-114 45l-124 -45l7 65l125 53z" />
    <glyph glyph-name="edieresis" unicode="&#xeb;" horiz-adv-x="433" 
d="M101 511h293l-9 -73h-212l-18 -142h195l-8 -72h-195l-19 -151h212l-8 -73h-293zM222 650l-3 -29q-6 -44 -61 -44q-25 0 -37.5 11.5t-10.5 32.5l3 29q5 45 59 45q27 0 40 -11.5t10 -33.5zM394 650l-3 -29q-6 -44 -61 -44q-26 0 -38 11.5t-10 32.5l3 29q5 45 59 45
q27 0 40 -11.5t10 -33.5z" />
    <glyph glyph-name="igrave" unicode="&#xec;" horiz-adv-x="231" 
d="M101 511h81l-62 -511h-81zM104 683l78 -119h-73l-96 119h91z" />
    <glyph glyph-name="iacute" unicode="&#xed;" horiz-adv-x="231" 
d="M101 511h81l-62 -511h-81zM112 564l74 119h91l-92 -119h-73z" />
    <glyph glyph-name="icircumflex" unicode="&#xee;" horiz-adv-x="231" 
d="M101 511h81l-62 -511h-81zM276 632l-7 -62l-114 45l-124 -45l7 65l125 53z" />
    <glyph glyph-name="idieresis" unicode="&#xef;" horiz-adv-x="231" 
d="M101 511h81l-62 -511h-81zM119 650l-3 -29q-6 -44 -61 -44q-25 0 -37.5 11.5t-10.5 32.5l3 29q4 45 59 45q27 0 40 -11.5t10 -33.5zM291 650l-3 -29q-6 -44 -61 -44q-26 0 -38 11.5t-10 32.5l3 29q4 45 59 45q27 0 40 -11.5t10 -33.5z" />
    <glyph glyph-name="eth" unicode="&#xf0;" horiz-adv-x="507" 
d="M253 523q99 0 150 -61.5t38 -167.5l-13 -104q-26 -202 -232 -202q-66 0 -154 7l28 229h-60l7 72h62l28 223q78 4 146 4zM250 454q-50 0 -70 -1l-20 -157h105l-8 -72h-106l-20 -163q42 -3 75 -3q125 0 141 133l14 111q9 76 -20.5 114t-90.5 38z" />
    <glyph glyph-name="ntilde" unicode="&#xf1;" horiz-adv-x="513" 
d="M402 0h-111l-126 410l-48 -410h-78l62 511h114q79 -237 122 -408l49 408h78zM416 663l-9 -66q-30 -25 -71 -25q-19 0 -51 9.5t-49 9.5q-12 0 -29.5 -5.5t-28.5 -10.5l-11 -5l7 69q31 22 72 22q24 0 55 -9.5t45 -9.5q13 0 30.5 5t28.5 11z" />
    <glyph glyph-name="ograve" unicode="&#xf2;" horiz-adv-x="506" 
d="M269 523q90 0 136 -51.5t35 -137.5l-23 -184q-10 -83 -56.5 -122.5t-133.5 -39.5q-92 0 -138 52t-35 136l24 183q11 84 57.5 124t133.5 40zM268 452q-97 0 -110 -98l-24 -191q-6 -49 19 -76.5t74 -27.5q98 0 110 93l24 195q6 50 -19 77.5t-74 27.5zM236 683l78 -119h-73
l-96 119h91z" />
    <glyph glyph-name="oacute" unicode="&#xf3;" horiz-adv-x="506" 
d="M269 523q90 0 136 -51.5t35 -137.5l-23 -184q-10 -83 -56.5 -122.5t-133.5 -39.5q-92 0 -138 52t-35 136l24 183q11 84 57.5 124t133.5 40zM268 452q-97 0 -110 -98l-24 -191q-6 -49 19 -76.5t74 -27.5q98 0 110 93l24 195q6 50 -19 77.5t-74 27.5zM244 564l74 119h91
l-92 -119h-73z" />
    <glyph glyph-name="ocircumflex" unicode="&#xf4;" horiz-adv-x="506" 
d="M269 523q90 0 136 -51.5t35 -137.5l-23 -184q-10 -83 -56.5 -122.5t-133.5 -39.5q-92 0 -138 52t-35 136l24 183q11 84 57.5 124t133.5 40zM268 452q-97 0 -110 -98l-24 -191q-6 -49 19 -76.5t74 -27.5q98 0 110 93l24 195q6 50 -19 77.5t-74 27.5zM408 632l-7 -62
l-114 45l-124 -45l7 65l125 53z" />
    <glyph glyph-name="otilde" unicode="&#xf5;" horiz-adv-x="506" 
d="M269 523q90 0 136 -51.5t35 -137.5l-23 -184q-10 -83 -56.5 -122.5t-133.5 -39.5q-92 0 -138 52t-35 136l24 183q11 84 57.5 124t133.5 40zM268 452q-97 0 -110 -98l-24 -191q-6 -49 19 -76.5t74 -27.5q98 0 110 93l24 195q6 50 -19 77.5t-74 27.5zM410 663l-9 -66
q-30 -25 -71 -25q-19 0 -51 9.5t-49 9.5q-12 0 -29.5 -5.5t-28.5 -10.5l-11 -5l7 69q31 22 72 22q24 0 55 -9.5t45 -9.5q13 0 30.5 5t28.5 11z" />
    <glyph glyph-name="odieresis" unicode="&#xf6;" horiz-adv-x="506" 
d="M269 523q90 0 136 -51.5t35 -137.5l-23 -184q-10 -83 -56.5 -122.5t-133.5 -39.5q-92 0 -138 52t-35 136l24 183q11 84 57.5 124t133.5 40zM268 452q-97 0 -110 -98l-24 -191q-6 -49 19 -76.5t74 -27.5q98 0 110 93l24 195q6 50 -19 77.5t-74 27.5zM251 650l-3 -29
q-6 -44 -61 -44q-25 0 -37.5 11.5t-10.5 32.5l3 29q4 45 59 45q27 0 40 -11.5t10 -33.5zM423 650l-3 -29q-6 -44 -61 -44q-26 0 -38 11.5t-10 32.5l3 29q4 45 59 45q27 0 40 -11.5t10 -33.5z" />
    <glyph glyph-name="divide" unicode="&#xf7;" horiz-adv-x="390" 
d="M223 489q50 0 43 -44l-2 -17q-7 -43 -55 -43q-24 0 -34.5 11.5t-7.5 31.5l2 17q7 44 54 44zM369 265h-354l10 70h354zM185 215q24 0 35.5 -11.5t7.5 -32.5l-3 -17q-7 -43 -55 -43q-24 0 -34.5 11.5t-7.5 31.5l3 17q8 44 54 44z" />
    <glyph glyph-name="oslash" unicode="&#xf8;" horiz-adv-x="506" 
d="M503 550l-79 -107q23 -47 16 -109l-23 -184q-10 -83 -56.5 -122.5t-133.5 -39.5q-64 0 -106 25l-39 -52h-81l72 101q-28 48 -19 114l24 183q11 84 57.5 124t133.5 40q66 0 110 -30l42 57h82zM268 452q-97 0 -110 -98l-24 -191q-2 -20 -1 -29l208 291q-27 27 -73 27z
M362 361l-201 -282q25 -20 66 -20q98 0 110 93l22 178q3 25 3 31z" />
    <glyph glyph-name="ugrave" unicode="&#xf9;" horiz-adv-x="508" 
d="M459 511l-44 -355q-21 -168 -190 -168q-88 0 -132 48.5t-34 131.5l42 343h81l-44 -354q-6 -45 18 -71t70 -26q96 0 108 93l44 358h81zM238 683l78 -119h-73l-96 119h91z" />
    <glyph glyph-name="uacute" unicode="&#xfa;" horiz-adv-x="508" 
d="M459 511l-44 -355q-21 -168 -190 -168q-88 0 -132 48.5t-34 131.5l42 343h81l-44 -354q-6 -45 18 -71t70 -26q96 0 108 93l44 358h81zM246 564l74 119h91l-92 -119h-73z" />
    <glyph glyph-name="ucircumflex" unicode="&#xfb;" horiz-adv-x="508" 
d="M459 511l-44 -355q-21 -168 -190 -168q-88 0 -132 48.5t-34 131.5l42 343h81l-44 -354q-6 -45 18 -71t70 -26q96 0 108 93l44 358h81zM410 632l-7 -62l-114 45l-124 -45l7 65l125 53z" />
    <glyph glyph-name="udieresis" unicode="&#xfc;" horiz-adv-x="508" 
d="M459 511l-44 -355q-21 -168 -190 -168q-88 0 -132 48.5t-34 131.5l42 343h81l-44 -354q-6 -45 18 -71t70 -26q96 0 108 93l44 358h81zM253 650l-3 -29q-6 -44 -61 -44q-25 0 -37.5 11.5t-10.5 32.5l3 29q4 45 59 45q27 0 40 -11.5t10 -33.5zM425 650l-3 -29
q-6 -44 -61 -44q-26 0 -38 11.5t-10 32.5l3 29q4 45 59 45q27 0 40 -11.5t10 -33.5z" />
    <glyph glyph-name="yacute" unicode="&#xfd;" horiz-adv-x="425" 
d="M238 174l-20 -174h-82l20 174l-117 337h89q49 -152 77 -263q69 119 141 263h93zM207 564l74 119h91l-92 -119h-73z" />
    <glyph glyph-name="thorn" unicode="&#xfe;" horiz-adv-x="441" 
d="M182 510l-13 -96q23 1 61 1q92 0 141.5 -45t39.5 -114l-2 -14q-11 -74 -59 -113.5t-130 -39.5q-42 0 -89 10l-11 -100h-81l62 511h81zM222 347q-32 0 -60 -2l-22 -183q38 -6 71 -6q105 0 117 95l1 8q5 43 -21.5 65.5t-85.5 22.5z" />
    <glyph glyph-name="ydieresis" unicode="&#xff;" horiz-adv-x="425" 
d="M238 174l-20 -174h-82l20 174l-117 337h89q49 -152 77 -263q69 119 141 263h93zM214 650l-3 -29q-6 -44 -61 -44q-25 0 -37.5 11.5t-10.5 32.5l3 29q5 45 59 45q27 0 40 -11.5t10 -33.5zM386 650l-3 -29q-6 -44 -61 -44q-26 0 -38 11.5t-10 32.5l3 29q5 45 59 45
q27 0 40 -11.5t10 -33.5z" />
    <glyph glyph-name="Amacron" unicode="&#x100;" horiz-adv-x="532" 
d="M483 0h-91q-6 47 -22 152h-239q-34 -87 -64 -152h-90l280 655h105zM299 576l-136 -348h195q-26 166 -59 348zM206 785h235l-10 -75h-235z" />
    <glyph glyph-name="amacron" unicode="&#x101;" horiz-adv-x="453" 
d="M404 0h-85l-18 113h-192q-34 -85 -47 -113h-85l226 511h99zM243 441l-106 -259h153q-31 176 -47 259zM165 640h202l-7 -70h-202z" />
    <glyph glyph-name="Abreve" unicode="&#x102;" horiz-adv-x="532" 
d="M483 0h-91q-6 47 -22 152h-239q-34 -87 -64 -152h-90l280 655h105zM299 576l-136 -348h195q-26 166 -59 348zM463 830l-9 -78q-71 -47 -144 -47q-34 0 -68 11.5t-51 23.5l-17 12l9 78q7 -6 20 -15t48.5 -23.5t66.5 -14.5t67 13.5t57 26.5z" />
    <glyph glyph-name="abreve" unicode="&#x103;" horiz-adv-x="453" 
d="M404 0h-85l-18 113h-192q-34 -85 -47 -113h-85l226 511h99zM243 441l-106 -259h153q-31 176 -47 259zM387 678l-10 -75q-57 -43 -124 -43q-30 0 -58.5 11t-42.5 21l-13 11l10 75q6 -6 16.5 -14t40 -22t56.5 -14t58 12.5t49 25.5z" />
    <glyph glyph-name="Aogonek" unicode="&#x104;" horiz-adv-x="532" 
d="M483 0h-23q-59 -29 -68 -87l-1 -10q-6 -37 37 -37q15 0 33 3l-8 -61q-23 -5 -49 -5q-49 0 -71 22t-17 59l2 13q4 29 24 57t50 47q-6 54 -22 151h-239l-64 -152h-90l280 655h105zM299 576l-136 -348h195q-26 166 -59 348z" />
    <glyph glyph-name="aogonek" unicode="&#x105;" horiz-adv-x="453" 
d="M404 0h-18q-59 -29 -68 -87l-1 -10q-6 -37 37 -37q15 0 33 3l-8 -61q-22 -5 -49 -5q-49 0 -71 22t-17 59l2 13q4 29 24.5 58t50.5 47l-18 111h-192l-47 -113h-85l226 511h99zM243 441l-106 -259h153z" />
    <glyph glyph-name="Cacute" unicode="&#x106;" horiz-adv-x="476" 
d="M303 667q74 0 149 -24l-11 -80q-77 30 -140 30q-111 0 -125 -124l-33 -275q-8 -69 15.5 -98.5t82.5 -29.5q65 0 150 38l-8 -80q-74 -36 -155 -36q-195 0 -169 219l31 256q25 204 213 204zM270 710l78 119h89l-97 -119h-70z" />
    <glyph glyph-name="cacute" unicode="&#x107;" horiz-adv-x="422" 
d="M257 523q56 0 126 -24l-10 -74q-67 27 -118 27q-40 0 -65.5 -25t-31.5 -74l-24 -199q-6 -50 15 -72t74 -22q45 0 116 30l-8 -75q-64 -27 -123 -27q-85 0 -125 46.5t-29 135.5l23 179q12 90 56 132t124 42zM226 564l74 119h91l-92 -119h-73z" />
    <glyph glyph-name="Ccircumflex" unicode="&#x108;" horiz-adv-x="476" 
d="M303 667q74 0 149 -24l-11 -80q-77 30 -140 30q-111 0 -125 -124l-33 -275q-8 -69 15.5 -98.5t82.5 -29.5q65 0 150 38l-8 -80q-74 -36 -155 -36q-195 0 -169 219l31 256q25 204 213 204zM457 779l-7 -68l-135 49l-145 -49l7 68l147 61z" />
    <glyph glyph-name="ccircumflex" unicode="&#x109;" horiz-adv-x="422" 
d="M257 523q56 0 126 -24l-10 -74q-67 27 -118 27q-40 0 -65.5 -25t-31.5 -74l-24 -199q-6 -50 15 -72t74 -22q45 0 116 30l-8 -75q-64 -27 -123 -27q-85 0 -125 46.5t-29 135.5l23 179q12 90 56 132t124 42zM390 632l-7 -62l-114 45l-124 -45l7 65l125 53z" />
    <glyph glyph-name="Cdotaccent" unicode="&#x10a;" horiz-adv-x="476" 
d="M303 667q74 0 149 -24l-11 -80q-77 30 -140 30q-111 0 -125 -124l-33 -275q-8 -69 15.5 -98.5t82.5 -29.5q65 0 150 38l-8 -80q-74 -36 -155 -36q-195 0 -169 219l31 256q25 204 213 204zM368 780l-4 -29q-3 -42 -56 -42q-27 0 -42.5 13.5t-12.5 34.5l4 29q6 43 56 43
q27 0 42 -13t13 -36z" />
    <glyph glyph-name="cdotaccent" unicode="&#x10b;" horiz-adv-x="422" 
d="M257 523q56 0 126 -24l-10 -74q-67 27 -118 27q-40 0 -65.5 -25t-31.5 -74l-24 -199q-6 -50 15 -72t74 -22q45 0 116 30l-8 -75q-64 -27 -123 -27q-85 0 -125 46.5t-29 135.5l23 179q12 90 56 132t124 42zM320 649l-3 -29q-6 -45 -63 -45q-26 0 -38 11.5t-10 33.5l3 29
q5 46 60 46q27 0 40.5 -12t10.5 -34z" />
    <glyph glyph-name="Ccaron" unicode="&#x10c;" horiz-adv-x="476" 
d="M303 667q74 0 149 -24l-11 -80q-77 30 -140 30q-111 0 -125 -124l-33 -275q-8 -69 15.5 -98.5t82.5 -29.5q65 0 150 38l-8 -80q-74 -36 -155 -36q-195 0 -169 219l31 256q25 204 213 204zM450 773l-146 -61l-134 61l8 68l135 -49l145 49z" />
    <glyph glyph-name="ccaron" unicode="&#x10d;" horiz-adv-x="422" 
d="M257 523q56 0 126 -24l-10 -74q-67 27 -118 27q-40 0 -65.5 -25t-31.5 -74l-24 -199q-6 -50 15 -72t74 -22q45 0 116 30l-8 -75q-64 -27 -123 -27q-85 0 -125 46.5t-29 135.5l23 179q12 90 56 132t124 42zM383 624l-125 -54l-113 54l7 64l114 -45l124 45z" />
    <glyph glyph-name="Dcaron" unicode="&#x10e;" horiz-adv-x="573" 
d="M39 -3l82 665q70 5 170 5q124 0 183.5 -72.5t43.5 -199.5l-21 -166q-31 -241 -281 -241q-86 0 -177 9zM197 593l-65 -525q55 -7 92 -7q77 0 127.5 43.5t60.5 122.5l22 175q12 95 -27.5 144t-121.5 49q-36 0 -88 -2zM451 773l-146 -61l-134 61l8 68l135 -49l145 49z" />
    <glyph glyph-name="dcaron" unicode="&#x10f;" horiz-adv-x="502" 
d="M248 523q99 0 150 -61.5t38 -167.5l-13 -104q-26 -202 -232 -202q-67 0 -154 7l65 522q117 6 146 6zM245 454q-30 0 -70 -2l-49 -391q42 -3 75 -3q125 0 141 133l14 111q9 76 -20.5 114t-90.5 38zM389 624l-125 -54l-113 54l7 64l114 -45l124 45z" />
    <glyph glyph-name="Dcroat" unicode="&#x110;" horiz-adv-x="576" 
d="M294 667q124 0 183.5 -72.5t43.5 -199.5l-21 -166q-31 -241 -281 -241q-85 0 -177 9l37 306h-70l10 70h69l36 289q70 5 170 5zM288 595q-36 0 -88 -2l-28 -220h137l-10 -70h-135l-29 -235q55 -7 92 -7q77 0 127.5 43.5t60.5 122.5l22 175q12 95 -27.5 144t-121.5 49z" />
    <glyph glyph-name="dcroat" unicode="&#x111;" horiz-adv-x="507" 
d="M253 523q99 0 150 -61.5t38 -167.5l-13 -104q-26 -202 -232 -202q-66 0 -154 7l28 229h-60l7 72h62l28 223q78 4 146 4zM250 454q-50 0 -70 -1l-20 -157h105l-8 -72h-106l-20 -163q42 -3 75 -3q125 0 141 133l14 111q9 76 -20.5 114t-90.5 38z" />
    <glyph glyph-name="Emacron" unicode="&#x112;" horiz-adv-x="485" 
d="M119 655h345l-10 -77h-260l-25 -207h240l-10 -76h-240l-27 -218h260l-8 -77h-345zM189 785h235l-10 -75h-235z" />
    <glyph glyph-name="emacron" unicode="&#x113;" horiz-adv-x="433" 
d="M101 511h293l-9 -73h-212l-18 -142h195l-8 -72h-195l-19 -151h212l-8 -73h-293zM159 640h202l-7 -70h-202z" />
    <glyph glyph-name="Ebreve" unicode="&#x114;" horiz-adv-x="485" 
d="M119 655h345l-10 -77h-260l-25 -207h240l-10 -76h-240l-27 -218h260l-8 -77h-345zM446 830l-9 -78q-71 -47 -144 -47q-34 0 -68 11.5t-51 23.5l-17 12l9 78q7 -6 20 -15t48.5 -23.5t66.5 -14.5t67 13.5t57 26.5z" />
    <glyph glyph-name="ebreve" unicode="&#x115;" horiz-adv-x="433" 
d="M101 511h293l-9 -73h-212l-18 -142h195l-8 -72h-195l-19 -151h212l-8 -73h-293zM381 678l-10 -75q-57 -43 -124 -43q-30 0 -58.5 11t-42.5 21l-13 11l10 75q6 -6 16.5 -14t40 -22t56.5 -14t58 12.5t49 25.5z" />
    <glyph glyph-name="Edotaccent" unicode="&#x116;" horiz-adv-x="485" 
d="M119 655h345l-10 -77h-260l-25 -207h240l-10 -76h-240l-27 -218h260l-8 -77h-345zM356 780l-4 -29q-3 -42 -56 -42q-27 0 -42.5 13.5t-12.5 34.5l4 29q6 43 56 43q27 0 42 -13t13 -36z" />
    <glyph glyph-name="edotaccent" unicode="&#x117;" horiz-adv-x="433" 
d="M101 511h293l-9 -73h-212l-18 -142h195l-8 -72h-195l-19 -151h212l-8 -73h-293zM309 649l-3 -29q-6 -45 -63 -45q-26 0 -38 11.5t-10 33.5l3 29q5 46 60 46q27 0 40.5 -12t10.5 -34z" />
    <glyph glyph-name="Eogonek" unicode="&#x118;" horiz-adv-x="485" 
d="M454 578h-260l-25 -207h240l-10 -76h-240l-27 -218h260l-8 -77h-65q-59 -29 -68 -87l-1 -10q-6 -37 37 -37q15 0 33 3l-8 -61q-22 -5 -49 -5q-49 0 -71 22t-17 59l2 13q4 28 23.5 56t48.5 47h-210l80 655h345z" />
    <glyph glyph-name="eogonek" unicode="&#x119;" horiz-adv-x="433" 
d="M385 438h-212l-18 -142h195l-8 -72h-195l-19 -151h212l-8 -73h-49q-59 -29 -68 -87l-1 -10q-6 -37 37 -37q15 0 33 3l-8 -61q-23 -5 -49 -5q-49 0 -71 22t-17 59l2 13q4 28 23.5 56t48.5 47h-174l62 511h293z" />
    <glyph glyph-name="Ecaron" unicode="&#x11a;" horiz-adv-x="485" 
d="M119 655h345l-10 -77h-260l-25 -207h240l-10 -76h-240l-27 -218h260l-8 -77h-345zM438 773l-146 -61l-134 61l8 68l135 -49l145 49z" />
    <glyph glyph-name="ecaron" unicode="&#x11b;" horiz-adv-x="433" 
d="M101 511h293l-9 -73h-212l-18 -142h195l-8 -72h-195l-19 -151h212l-8 -73h-293zM372 624l-125 -54l-113 54l7 64l114 -45l124 45z" />
    <glyph glyph-name="Gcircumflex" unicode="&#x11c;" horiz-adv-x="555" 
d="M253 -12q-107 0 -157 57t-37 163l31 257q12 103 66 152.5t160 49.5q88 0 181 -29l-10 -78q-92 34 -175 34q-63 0 -96 -29t-41 -94l-34 -278q-16 -130 115 -130q63 0 118 22l26 213h-126l11 80h210l-41 -333q-108 -57 -201 -57zM469 779l-7 -68l-135 49l-145 -49l7 68
l147 61z" />
    <glyph glyph-name="gcircumflex" unicode="&#x11d;" horiz-adv-x="489" 
d="M270 523q69 0 148 -25l-10 -73q-82 28 -140 28q-102 0 -113 -96l-20 -182q-13 -116 87 -116q44 0 91 16l19 153h-98l9 71h176l-34 -269q-89 -42 -166 -42q-87 0 -130 54.5t-31 159.5l17 147q10 88 57 131t138 43zM398 632l-7 -62l-114 45l-124 -45l7 65l125 53z" />
    <glyph glyph-name="Gbreve" unicode="&#x11e;" horiz-adv-x="555" 
d="M253 -12q-107 0 -157 57t-37 163l31 257q12 103 66 152.5t160 49.5q88 0 181 -29l-10 -78q-92 34 -175 34q-63 0 -96 -29t-41 -94l-34 -278q-16 -130 115 -130q63 0 118 22l26 213h-126l11 80h210l-41 -333q-108 -57 -201 -57zM470 830l-9 -78q-71 -47 -144 -47
q-34 0 -68 11.5t-51 23.5l-17 12l9 78q7 -6 20 -15t48.5 -23.5t66.5 -14.5t67 13.5t57 26.5z" />
    <glyph glyph-name="gbreve" unicode="&#x11f;" horiz-adv-x="489" 
d="M270 523q69 0 148 -25l-10 -73q-82 28 -140 28q-102 0 -113 -96l-20 -182q-13 -116 87 -116q44 0 91 16l19 153h-98l9 71h176l-34 -269q-89 -42 -166 -42q-87 0 -130 54.5t-31 159.5l17 147q10 88 57 131t138 43zM400 678l-10 -75q-57 -43 -124 -43q-30 0 -58.5 11
t-41.5 21l-14 11l10 75q6 -6 16.5 -14t40 -22t56.5 -14t58 12.5t49 25.5z" />
    <glyph glyph-name="Gdotaccent" unicode="&#x120;" horiz-adv-x="555" 
d="M253 -12q-107 0 -157 57t-37 163l31 257q12 103 66 152.5t160 49.5q88 0 181 -29l-10 -78q-92 34 -175 34q-63 0 -96 -29t-41 -94l-34 -278q-16 -130 115 -130q63 0 118 22l26 213h-126l11 80h210l-41 -333q-108 -57 -201 -57zM380 780l-4 -29q-3 -42 -56 -42
q-27 0 -42.5 13.5t-12.5 34.5l4 29q6 43 56 43q27 0 42 -13t13 -36z" />
    <glyph glyph-name="gdotaccent" unicode="&#x121;" horiz-adv-x="489" 
d="M270 523q69 0 148 -25l-10 -73q-82 28 -140 28q-102 0 -113 -96l-20 -182q-13 -116 87 -116q44 0 91 16l19 153h-98l9 71h176l-34 -269q-89 -42 -166 -42q-87 0 -130 54.5t-31 159.5l17 147q10 88 57 131t138 43zM328 649l-3 -29q-6 -45 -63 -45q-26 0 -38 11.5t-10 33.5
l3 29q5 46 60 46q27 0 40.5 -12t10.5 -34z" />
    <glyph glyph-name="Gcommaaccent" unicode="&#x122;" horiz-adv-x="555" 
d="M253 -12q-107 0 -157 57t-37 163l31 257q12 103 66 152.5t160 49.5q88 0 181 -29l-10 -78q-92 34 -175 34q-63 0 -96 -29t-41 -94l-34 -278q-16 -130 115 -130q63 0 118 22l26 213h-126l11 80h210l-41 -333q-108 -57 -201 -57zM308 -102l-3 -20q-4 -21 -15 -45l-28 -59
h-52l26 71q-29 10 -24 42l3 20q6 37 46 37q26 0 38.5 -12t8.5 -34z" />
    <glyph glyph-name="gcommaaccent" unicode="&#x123;" horiz-adv-x="489" 
d="M270 523q69 0 148 -25l-10 -73q-82 28 -140 28q-102 0 -113 -96l-20 -182q-13 -116 87 -116q44 0 91 16l19 153h-98l9 71h176l-34 -269q-89 -42 -166 -42q-87 0 -130 54.5t-31 159.5l17 147q10 88 57 131t138 43zM273 -102l-3 -20q-4 -21 -15 -45l-28 -59h-52l26 71
q-29 10 -24 42l3 20q6 37 46 37q26 0 38.5 -12t8.5 -34z" />
    <glyph glyph-name="Hcircumflex" unicode="&#x124;" horiz-adv-x="580" 
d="M420 300h-260l-36 -300h-85l80 655h85l-35 -279h260l35 279h85l-80 -655h-85zM483 779l-7 -68l-135 49l-145 -49l7 68l147 61z" />
    <glyph glyph-name="hcircumflex" unicode="&#x125;" horiz-adv-x="512" 
d="M401 0h-81l27 227h-200l-27 -227h-81l62 511h81l-26 -212h200l26 212h81zM410 632l-7 -62l-114 45l-124 -45l7 65l125 53z" />
    <glyph glyph-name="Hbar" unicode="&#x126;" horiz-adv-x="590" 
d="M122 587l10 68h85l-10 -68h260l10 68h85l-10 -68h50l-10 -71h-50l-72 -516h-85l42 300h-260l-42 -300h-85l72 516h-50l10 71h50zM457 516h-260l-20 -140h260z" />
    <glyph glyph-name="hbar" unicode="&#x127;" horiz-adv-x="522" 
d="M466 461h40l-9 -68h-40l-55 -393h-82l31 227h-199l-31 -227h-81l55 393h-40l9 68h40l7 50h81l-7 -50h199l7 50h82zM176 393l-13 -94h199l13 94h-199z" />
    <glyph glyph-name="Itilde" unicode="&#x128;" horiz-adv-x="235" 
d="M119 655h85l-80 -655h-85zM317 810l-6 -70q-38 -30 -84 -30q-22 0 -60.5 12.5t-58.5 12.5q-15 0 -35 -6.5t-33 -12.5l-13 -6l7 70q37 30 83 30q29 0 66 -12.5t54 -12.5q15 0 35 6.5t32 12.5z" />
    <glyph glyph-name="itilde" unicode="&#x129;" horiz-adv-x="231" 
d="M101 511h81l-62 -511h-81zM278 663l-9 -66q-30 -25 -71 -25q-19 0 -51 9.5t-49 9.5q-12 0 -29.5 -5.5t-28.5 -10.5l-11 -5l7 69q31 22 72 22q24 0 55 -9.5t45 -9.5q13 0 30.5 5t28.5 11z" />
    <glyph glyph-name="Imacron" unicode="&#x12a;" horiz-adv-x="235" 
d="M119 655h85l-80 -655h-85zM59 785h235l-10 -75h-235z" />
    <glyph glyph-name="imacron" unicode="&#x12b;" horiz-adv-x="231" 
d="M101 511h81l-62 -511h-81zM56 640h202l-7 -70h-202z" />
    <glyph glyph-name="Ibreve" unicode="&#x12c;" horiz-adv-x="235" 
d="M119 655h85l-80 -655h-85zM316 830l-9 -78q-71 -47 -144 -47q-34 0 -68 11.5t-51 23.5l-17 12l9 78q7 -6 20 -15t48.5 -23.5t66.5 -14.5t67 13.5t57 26.5z" />
    <glyph glyph-name="ibreve" unicode="&#x12d;" horiz-adv-x="231" 
d="M101 511h81l-62 -511h-81zM278 678l-10 -75q-57 -43 -124 -43q-30 0 -58.5 11t-41.5 21l-14 11l10 75q6 -6 16.5 -14t40 -22t56.5 -14t58 12.5t49 25.5z" />
    <glyph glyph-name="Iogonek" unicode="&#x12e;" horiz-adv-x="235" 
d="M124 0h-21q-59 -29 -68 -87l-1 -10q-6 -37 37 -37q15 0 33 3l-8 -61q-23 -5 -49 -5q-49 0 -71 22t-17 59l2 13q4 30 25 59t53 47l80 652h85z" />
    <glyph glyph-name="iogonek" unicode="&#x12f;" horiz-adv-x="232" 
d="M121 0h-16q-59 -29 -68 -87l-1 -10q-6 -37 37 -37q15 0 33 3l-8 -61q-23 -5 -49 -5q-49 0 -71 22t-17 59l2 13q4 29 25 58t52 48l62 508h81z" />
    <glyph glyph-name="Idotaccent" unicode="&#x130;" horiz-adv-x="231" 
d="M101 511h81l-62 -511h-81zM206 649l-3 -29q-6 -45 -63 -45q-26 0 -38 11.5t-10 33.5l3 29q5 46 60 46q27 0 40.5 -12t10.5 -34z" />
    <glyph glyph-name="dotlessi" unicode="&#x131;" horiz-adv-x="231" 
d="M101 511h81l-62 -511h-81z" />
    <glyph glyph-name="IJ" unicode="&#x132;" horiz-adv-x="522" 
d="M119 655h85l-80 -655h-85zM491 655l-64 -518q-10 -81 -43.5 -115t-98.5 -34q-45 0 -92 14l9 73q40 -14 76 -14q30 0 44.5 16t19.5 57l64 521h85z" />
    <glyph glyph-name="ij" unicode="&#x133;" horiz-adv-x="491" 
d="M101 511h81l-62 -511h-81zM442 511l-49 -393q-9 -70 -39.5 -100t-89.5 -30q-38 0 -75 11l7 68q30 -10 60 -10q27 0 39.5 12t16.5 44l49 398h81z" />
    <glyph glyph-name="Jcircumflex" unicode="&#x134;" horiz-adv-x="287" 
d="M256 655l-64 -518q-10 -81 -43.5 -115t-98.5 -34q-45 0 -92 14l9 73q40 -14 76 -14q30 0 44.5 16t19.5 57l64 521h85zM366 779l-7 -68l-135 49l-145 -49l7 68l147 61z" />
    <glyph glyph-name="jcircumflex" unicode="&#x135;" horiz-adv-x="260" 
d="M211 511l-49 -393q-9 -70 -39.5 -100t-89.5 -30q-38 0 -75 11l7 68q30 -10 60 -10q27 0 39.5 12t16.5 44l49 398h81zM302 632l-7 -62l-114 45l-124 -45l7 65l125 53z" />
    <glyph glyph-name="Kcommaaccent" unicode="&#x136;" horiz-adv-x="525" 
d="M119 655h85l-37 -303q168 171 272 303h104l-288 -317l234 -338h-108q-124 200 -217 325l-40 -325h-85zM287 -102l-3 -20q-4 -21 -15 -45l-28 -59h-52l26 71q-29 10 -24 42l3 20q6 37 46 37q26 0 38.5 -12t8.5 -34z" />
    <glyph glyph-name="kcommaaccent" unicode="&#x137;" horiz-adv-x="459" 
d="M236 263l186 -263h-98q-97 150 -173 255l-31 -255h-81l62 511h81l-29 -236l214 236h97zM272 -102l-3 -20q-4 -21 -15 -45l-28 -59h-52l26 71q-29 10 -24 42l3 20q6 37 46 37q26 0 38.5 -12t8.5 -34z" />
    <glyph glyph-name="kgreenlandic" unicode="&#x138;" horiz-adv-x="459" 
d="M236 263l186 -263h-98q-97 150 -173 255l-31 -255h-81l62 511h81l-29 -236l214 236h97z" />
    <glyph glyph-name="Lacute" unicode="&#x139;" horiz-adv-x="450" 
d="M119 655h85l-72 -580h260l-8 -75h-345zM132 710l78 119h89l-97 -119h-70z" />
    <glyph glyph-name="lacute" unicode="&#x13a;" horiz-adv-x="398" 
d="M101 511h81l-54 -439h212l-8 -72h-293zM114 564l74 119h91l-92 -119h-73z" />
    <glyph glyph-name="Lcommaaccent" unicode="&#x13b;" horiz-adv-x="450" 
d="M119 655h85l-72 -580h260l-8 -75h-345zM270 -102l-3 -20q-4 -21 -15 -45l-28 -59h-52l26 71q-29 10 -24 42l3 20q6 37 46 37q26 0 38.5 -12t8.5 -34z" />
    <glyph glyph-name="lcommaaccent" unicode="&#x13c;" horiz-adv-x="398" 
d="M101 511h81l-54 -439h212l-8 -72h-293zM228 -102l-3 -20q-4 -21 -15 -45l-28 -59h-52l26 71q-29 10 -24 42l3 20q6 37 46 37q26 0 38.5 -12t8.5 -34z" />
    <glyph glyph-name="Lcaron" unicode="&#x13d;" horiz-adv-x="450" 
d="M119 655h85l-72 -580h260l-8 -75h-345zM358 621l-3 -20q-4 -21 -15 -45l-28 -59h-52l26 71q-29 10 -24 42l3 20q6 37 46 37q26 0 38.5 -12t8.5 -34z" />
    <glyph glyph-name="lcaron" unicode="&#x13e;" horiz-adv-x="398" 
d="M101 511h81l-54 -439h212l-8 -72h-293zM346 476l-3 -20q-4 -21 -15 -45l-28 -59h-52l26 71q-29 10 -24 42l3 20q6 37 46 37q26 0 38.5 -12t8.5 -34z" />
    <glyph glyph-name="Ldot" unicode="&#x13f;" horiz-adv-x="450" 
d="M119 655h85l-72 -580h260l-8 -75h-345zM380 369l-4 -29q-3 -42 -56 -42q-27 0 -42.5 13.5t-12.5 34.5l4 29q6 43 56 43q27 0 42 -13t13 -36z" />
    <glyph glyph-name="ldot" unicode="&#x140;" horiz-adv-x="398" 
d="M101 511h81l-54 -439h212l-8 -72h-293zM354 302l-3 -29q-6 -45 -63 -45q-26 0 -38 11.5t-10 33.5l3 29q5 46 60 46q27 0 40.5 -12t10.5 -34z" />
    <glyph glyph-name="Lslash" unicode="&#x141;" horiz-adv-x="453" 
d="M91 363l41 292h85l-38 -268l135 37l-11 -76l-135 -37l-33 -236h260l-10 -75h-345l40 287l-73 -19l11 76z" />
    <glyph glyph-name="lslash" unicode="&#x142;" horiz-adv-x="398" 
d="M77 288l31 223h81l-28 -201l103 26l-10 -69l-103 -26l-23 -169h212l-10 -72h-293l30 219l-64 -16l10 69z" />
    <glyph glyph-name="Nacute" unicode="&#x143;" horiz-adv-x="582" 
d="M190 556l-67 -556h-84l80 655h125q88 -284 155 -555l68 555h84l-80 -655h-125zM312 710l78 119h89l-97 -119h-70z" />
    <glyph glyph-name="nacute" unicode="&#x144;" horiz-adv-x="513" 
d="M402 0h-111l-126 410l-48 -410h-78l62 511h114q79 -237 122 -408l49 408h78zM250 564l74 119h91l-92 -119h-73z" />
    <glyph glyph-name="Ncommaaccent" unicode="&#x145;" horiz-adv-x="582" 
d="M190 556l-67 -556h-84l80 655h125q88 -284 155 -555l68 555h84l-80 -655h-125zM304 -102l-3 -20q-4 -21 -15 -45l-28 -59h-52l26 71q-29 10 -24 42l3 20q6 37 46 37q26 0 38.5 -12t8.5 -34z" />
    <glyph glyph-name="ncommaaccent" unicode="&#x146;" horiz-adv-x="513" 
d="M402 0h-111l-126 410l-48 -410h-78l62 511h114q79 -237 122 -408l49 408h78zM275 -102l-3 -20q-4 -21 -15 -45l-28 -59h-52l26 71q-29 10 -24 42l3 20q6 37 46 37q26 0 38.5 -12t8.5 -34z" />
    <glyph glyph-name="Ncaron" unicode="&#x147;" horiz-adv-x="582" 
d="M190 556l-67 -556h-84l80 655h125q88 -284 155 -555l68 555h84l-80 -655h-125zM492 773l-146 -61l-134 61l8 68l135 -49l145 49z" />
    <glyph glyph-name="ncaron" unicode="&#x148;" horiz-adv-x="513" 
d="M402 0h-111l-126 410l-48 -410h-78l62 511h114q79 -237 122 -408l49 408h78zM407 624l-125 -54l-113 54l7 64l114 -45l124 45z" />
    <glyph glyph-name="napostrophe" unicode="&#x149;" horiz-adv-x="513" 
d="M402 0h-111l-126 410l-48 -410h-78l62 511h114q79 -237 122 -408l49 408h78z" />
    <glyph glyph-name="Eng" unicode="&#x14a;" horiz-adv-x="582" 
d="M551 655l-80 -662q-10 -81 -43 -115t-99 -34q-45 0 -92 14l9 73q40 -14 76 -14q30 0 44.5 16t19.5 57l1 10h-41l-156 556l-67 -556h-84l80 655h125q88 -284 155 -555l68 555h84z" />
    <glyph glyph-name="eng" unicode="&#x14b;" horiz-adv-x="513" 
d="M464 511l-62 -511q-8 -69 -39.5 -100t-90.5 -31q-38 0 -75 11l7 68q30 -10 60 -10q27 0 39.5 12t16.5 44l1 6h-30l-126 410l-48 -410h-78l62 511h114q79 -234 119 -398l52 398h78z" />
    <glyph glyph-name="Omacron" unicode="&#x14c;" horiz-adv-x="576" 
d="M327 667q105 0 158 -58.5t40 -161.5l-31 -249q-26 -210 -238 -210q-108 0 -159.5 57.5t-38.5 162.5l31 249q14 108 71 159t167 51zM321 592q-132 0 -147 -127l-32 -268q-8 -66 23 -100t96 -34q131 0 147 128l33 267q17 134 -120 134zM221 785h235l-10 -75h-235z" />
    <glyph glyph-name="omacron" unicode="&#x14d;" horiz-adv-x="506" 
d="M269 523q90 0 136 -51.5t35 -137.5l-23 -184q-10 -83 -56.5 -122.5t-133.5 -39.5q-92 0 -138 52t-35 136l24 183q11 84 57.5 124t133.5 40zM268 452q-97 0 -110 -98l-24 -191q-6 -49 19 -76.5t74 -27.5q98 0 110 93l24 195q6 50 -19 77.5t-74 27.5zM188 640h202l-7 -70
h-202z" />
    <glyph glyph-name="Obreve" unicode="&#x14e;" horiz-adv-x="576" 
d="M327 667q105 0 158 -58.5t40 -161.5l-31 -249q-26 -210 -238 -210q-108 0 -159.5 57.5t-38.5 162.5l31 249q14 108 71 159t167 51zM321 592q-132 0 -147 -127l-32 -268q-8 -66 23 -100t96 -34q131 0 147 128l33 267q17 134 -120 134zM478 830l-9 -78q-71 -47 -144 -47
q-34 0 -68 11.5t-51 23.5l-17 12l9 78q7 -6 20 -15t48.5 -23.5t66.5 -14.5t67 13.5t57 26.5z" />
    <glyph glyph-name="obreve" unicode="&#x14f;" horiz-adv-x="506" 
d="M269 523q90 0 136 -51.5t35 -137.5l-23 -184q-10 -83 -56.5 -122.5t-133.5 -39.5q-92 0 -138 52t-35 136l24 183q11 84 57.5 124t133.5 40zM268 452q-97 0 -110 -98l-24 -191q-6 -49 19 -76.5t74 -27.5q98 0 110 93l24 195q6 50 -19 77.5t-74 27.5zM410 678l-10 -75
q-57 -43 -124 -43q-30 0 -58.5 11t-41.5 21l-14 11l10 75q6 -6 16.5 -14t40 -22t56.5 -14t58 12.5t49 25.5z" />
    <glyph glyph-name="Ohungarumlaut" unicode="&#x150;" horiz-adv-x="576" 
d="M327 667q105 0 158 -58.5t40 -161.5l-31 -249q-26 -210 -238 -210q-108 0 -159.5 57.5t-38.5 162.5l31 249q14 108 71 159t167 51zM321 592q-132 0 -147 -127l-32 -268q-8 -66 23 -100t96 -34q131 0 147 128l33 267q17 134 -120 134zM273 710h-75l72 119h80zM413 710h-75
l72 119h80z" />
    <glyph glyph-name="ohungarumlaut" unicode="&#x151;" horiz-adv-x="506" 
d="M269 523q90 0 136 -51.5t35 -137.5l-23 -184q-10 -83 -56.5 -122.5t-133.5 -39.5q-92 0 -138 52t-35 136l24 183q11 84 57.5 124t133.5 40zM268 452q-97 0 -110 -98l-24 -191q-6 -49 19 -76.5t74 -27.5q98 0 110 93l24 195q6 50 -19 77.5t-74 27.5zM244 564h-71l72 119
h77zM371 564h-71l72 119h78z" />
    <glyph glyph-name="OE" unicode="&#x152;" horiz-adv-x="772" 
d="M320 667q44 0 92 -12h339l-10 -77h-260l-25 -207h240l-10 -76h-240l-27 -218h260l-8 -77h-345q-38 -12 -82 -12q-107 0 -153.5 60t-31.5 163l35 249q30 207 226 207zM320 593q-122 0 -140 -123l-37 -268q-9 -64 21 -101t92 -37q46 0 79 15l61 500q-38 14 -76 14z" />
    <glyph glyph-name="oe" unicode="&#x153;" horiz-adv-x="693" 
d="M269 523q54 0 107 -12h278l-9 -73h-212l-18 -142h195l-8 -72h-195l-19 -151h212l-8 -73h-269q-43 -12 -96 -12q-92 0 -138 52t-35 136l24 183q11 84 57.5 124t133.5 40zM268 452q-97 0 -110 -98l-24 -191q-6 -49 19 -76.5t74 -27.5t80 7l46 376q-44 10 -85 10z" />
    <glyph glyph-name="Racute" unicode="&#x154;" horiz-adv-x="540" 
d="M289 667q110 0 166 -53.5t44 -136.5l-3 -20q-8 -56 -46.5 -99t-97.5 -62l137 -296h-97q-80 199 -127 285q-51 0 -106 8l-35 -293h-85l81 662q93 5 169 5zM282 596q-32 0 -86 -2l-29 -236q53 -6 88 -6q138 0 157 113l1 6q10 60 -23.5 92.5t-107.5 32.5zM259 710l78 119h89
l-97 -119h-70z" />
    <glyph glyph-name="racute" unicode="&#x155;" horiz-adv-x="469" 
d="M246 523q92 0 139.5 -46.5t36.5 -115.5l-2 -13q-8 -46 -37 -79.5t-73 -45.5l109 -223h-90q-62 144 -99 213q-45 0 -84 6l-26 -219h-81l63 517q17 1 46.5 2.5t53.5 2.5t44 1zM240 456q-25 0 -65 -4l-21 -169q38 -5 66 -5q109 0 122 78l1 6q8 45 -19 69.5t-84 24.5z
M220 564l74 119h91l-92 -119h-73z" />
    <glyph glyph-name="Rcommaaccent" unicode="&#x156;" horiz-adv-x="540" 
d="M289 667q110 0 166 -53.5t44 -136.5l-3 -20q-8 -56 -46.5 -99t-97.5 -62l137 -296h-97q-80 199 -127 285q-51 0 -106 8l-35 -293h-85l81 662q93 5 169 5zM282 596q-32 0 -86 -2l-29 -236q53 -6 88 -6q138 0 157 113l1 6q10 60 -23.5 92.5t-107.5 32.5zM298 -102l-3 -20
q-4 -21 -15 -45l-28 -59h-52l26 71q-29 10 -24 42l3 20q6 37 46 37q26 0 38.5 -12t8.5 -34z" />
    <glyph glyph-name="rcommaaccent" unicode="&#x157;" horiz-adv-x="469" 
d="M246 523q92 0 139.5 -46.5t36.5 -115.5l-2 -13q-8 -46 -37 -79.5t-73 -45.5l109 -223h-90q-62 144 -99 213q-45 0 -84 6l-26 -219h-81l63 517q17 1 46.5 2.5t53.5 2.5t44 1zM240 456q-25 0 -65 -4l-21 -169q38 -5 66 -5q109 0 122 78l1 6q8 45 -19 69.5t-84 24.5z
M263 -102l-3 -20q-4 -21 -15 -45l-28 -59h-52l26 71q-29 10 -24 42l3 20q6 37 46 37q26 0 38.5 -12t8.5 -34z" />
    <glyph glyph-name="Rcaron" unicode="&#x158;" horiz-adv-x="540" 
d="M289 667q110 0 166 -53.5t44 -136.5l-3 -20q-8 -56 -46.5 -99t-97.5 -62l137 -296h-97q-80 199 -127 285q-51 0 -106 8l-35 -293h-85l81 662q93 5 169 5zM282 596q-32 0 -86 -2l-29 -236q53 -6 88 -6q138 0 157 113l1 6q10 60 -23.5 92.5t-107.5 32.5zM439 773l-146 -61
l-134 61l8 68l135 -49l145 49z" />
    <glyph glyph-name="rcaron" unicode="&#x159;" horiz-adv-x="469" 
d="M246 523q92 0 139.5 -46.5t36.5 -115.5l-2 -13q-8 -46 -37 -79.5t-73 -45.5l109 -223h-90q-62 144 -99 213q-45 0 -84 6l-26 -219h-81l63 517q17 1 46.5 2.5t53.5 2.5t44 1zM240 456q-25 0 -65 -4l-21 -169q38 -5 66 -5q109 0 122 78l1 6q8 45 -19 69.5t-84 24.5z
M377 624l-125 -54l-113 54l7 64l114 -45l124 45z" />
    <glyph glyph-name="Sacute" unicode="&#x15a;" horiz-adv-x="456" 
d="M220 388l83 -34q130 -54 108 -196l-2 -13q-24 -157 -200 -157q-94 0 -180 42l10 85q69 -35 127 -49q20 -2 43 -2q52 0 79 21.5t35 66.5l2 11q8 46 -7.5 73t-59.5 45l-89 36q-65 26 -92.5 81.5t-10.5 128.5l2 9q29 131 201 131q69 0 151 -22l-11 -81q-56 16 -109 26
q-15 1 -35 1q-100 0 -112 -75l-2 -12q-13 -83 69 -116zM226 710l78 119h89l-97 -119h-70z" />
    <glyph glyph-name="sacute" unicode="&#x15b;" horiz-adv-x="395" 
d="M222 523q56 0 124 -19l-10 -75q-29 10 -79 21q-24 2 -38 2q-41 0 -60.5 -14t-24.5 -45l-1 -7q-9 -58 53 -80l59 -23q119 -47 99 -156l-2 -11q-23 -128 -167 -128q-70 0 -152 34l11 79q57 -26 102 -37q22 -3 40 -3q76 0 87 66l1 6q9 58 -50 80l-59 22q-123 47 -104 158
l2 12q19 118 169 118zM187 564l74 119h91l-92 -119h-73z" />
    <glyph glyph-name="Scircumflex" unicode="&#x15c;" horiz-adv-x="456" 
d="M220 388l83 -34q130 -54 108 -196l-2 -13q-24 -157 -200 -157q-94 0 -180 42l10 85q69 -35 127 -49q20 -2 43 -2q52 0 79 21.5t35 66.5l2 11q8 46 -7.5 73t-59.5 45l-89 36q-65 26 -92.5 81.5t-10.5 128.5l2 9q29 131 201 131q69 0 151 -22l-11 -81q-56 16 -109 26
q-15 1 -35 1q-100 0 -112 -75l-2 -12q-13 -83 69 -116zM413 779l-7 -68l-135 49l-145 -49l7 68l147 61z" />
    <glyph glyph-name="scircumflex" unicode="&#x15d;" horiz-adv-x="395" 
d="M222 523q56 0 124 -19l-10 -75q-29 10 -79 21q-24 2 -38 2q-41 0 -60.5 -14t-24.5 -45l-1 -7q-9 -58 53 -80l59 -23q119 -47 99 -156l-2 -11q-23 -128 -167 -128q-70 0 -152 34l11 79q57 -26 102 -37q22 -3 40 -3q76 0 87 66l1 6q9 58 -50 80l-59 22q-123 47 -104 158
l2 12q19 118 169 118zM351 632l-7 -62l-114 45l-124 -45l7 65l125 53z" />
    <glyph glyph-name="Scedilla" unicode="&#x15e;" horiz-adv-x="456" 
d="M269 667q69 0 151 -22l-11 -81q-56 16 -109 26q-15 1 -35 1q-100 0 -112 -75l-2 -12q-13 -83 69 -116l83 -34q130 -54 108 -196l-2 -13q-23 -147 -179 -156l-13 -30h2q28 0 44 -20t12 -51l-1 -9q-10 -76 -95 -76q-28 0 -59 9l7 55q23 -10 45 -10q31 0 35 23l1 7
q2 16 -6.5 24.5t-27.5 8.5h-26l3 20l23 50q-84 10 -145 40l10 85q69 -35 127 -49q20 -2 43 -2q52 0 79 21.5t35 66.5l2 11q8 46 -7.5 73t-59.5 45l-89 36q-65 26 -92.5 81.5t-10.5 128.5l2 9q29 131 201 131z" />
    <glyph glyph-name="scedilla" unicode="&#x15f;" horiz-adv-x="392" 
d="M184 306l59 -23q119 -47 99 -156l-2 -11q-21 -120 -147 -127l-13 -30h2q28 0 44 -20t12 -51l-1 -9q-9 -76 -95 -76q-28 0 -59 9l7 55q23 -10 45 -10q31 0 35 23l1 7q2 16 -6.5 24.5t-27.5 8.5h-26l3 20l23 51q-64 9 -116 31l11 79q57 -26 102 -37q22 -3 40 -3q76 0 87 66
l1 6q9 58 -50 80l-59 22q-123 47 -104 158l2 12q19 118 169 118q56 0 124 -19l-10 -75q-29 10 -79 21q-24 2 -38 2q-41 0 -60.5 -14t-24.5 -45l-1 -7q-9 -58 53 -80z" />
    <glyph glyph-name="Scaron" unicode="&#x160;" horiz-adv-x="456" 
d="M220 388l83 -34q130 -54 108 -196l-2 -13q-24 -157 -200 -157q-94 0 -180 42l10 85q69 -35 127 -49q20 -2 43 -2q52 0 79 21.5t35 66.5l2 11q8 46 -7.5 73t-59.5 45l-89 36q-65 26 -92.5 81.5t-10.5 128.5l2 9q29 131 201 131q69 0 151 -22l-11 -81q-56 16 -109 26
q-15 1 -35 1q-100 0 -112 -75l-2 -12q-13 -83 69 -116zM406 773l-146 -61l-134 61l8 68l135 -49l145 49z" />
    <glyph glyph-name="scaron" unicode="&#x161;" horiz-adv-x="395" 
d="M222 523q56 0 124 -19l-10 -75q-29 10 -79 21q-24 2 -38 2q-41 0 -60.5 -14t-24.5 -45l-1 -7q-9 -58 53 -80l59 -23q119 -47 99 -156l-2 -11q-23 -128 -167 -128q-70 0 -152 34l11 79q57 -26 102 -37q22 -3 40 -3q76 0 87 66l1 6q9 58 -50 80l-59 22q-123 47 -104 158
l2 12q19 118 169 118zM344 624l-125 -54l-113 54l7 64l114 -45l124 45z" />
    <glyph glyph-name="Tcedilla" unicode="&#x162;" horiz-adv-x="525" 
d="M529 578h-190l-70 -578h-38l-18 -41h2q28 0 44 -20t12 -51l-1 -9q-10 -76 -95 -76q-28 0 -59 9l7 55q23 -10 45 -10q31 0 35 23l1 7q2 16 -6.5 24.5t-27.5 8.5h-26l3 20l40 86l67 552h-190l10 77h465z" />
    <glyph glyph-name="tcedilla" unicode="&#x163;" horiz-adv-x="450" 
d="M437 438h-154l-53 -438h-33l-18 -41h2q28 0 44 -20t12 -51l-1 -9q-10 -76 -95 -76q-28 0 -59 9l7 55q23 -10 45 -10q31 0 35 23l1 7q2 16 -6.5 24.5t-27.5 8.5h-26l3 20l39 83l50 415h-155l9 73h390z" />
    <glyph glyph-name="Tcaron" unicode="&#x164;" horiz-adv-x="525" 
d="M74 655h465l-10 -77h-190l-70 -578h-85l70 578h-190zM455 773l-146 -61l-134 61l8 68l135 -49l145 49z" />
    <glyph glyph-name="tcaron" unicode="&#x165;" horiz-adv-x="450" 
d="M437 438h-154l-53 -438h-81l53 438h-155l9 73h390zM375 624l-125 -54l-113 54l7 64l114 -45l124 45z" />
    <glyph glyph-name="Tbar" unicode="&#x166;" horiz-adv-x="525" 
d="M74 655h465l-10 -77h-190l-25 -207h100l-10 -76h-100l-36 -295h-85l36 295h-100l10 76h100l25 207h-190z" />
    <glyph glyph-name="tbar" unicode="&#x167;" horiz-adv-x="451" 
d="M57 511h390l-10 -73h-154l-20 -142h81l-10 -69h-81l-31 -227h-81l31 227h-82l10 69h82l20 142h-155z" />
    <glyph glyph-name="Utilde" unicode="&#x168;" horiz-adv-x="576" 
d="M545 655l-56 -454q-14 -109 -69.5 -161t-158.5 -52q-109 0 -160 56.5t-38 159.5l56 451h85l-57 -458q-8 -63 23.5 -97.5t96.5 -34.5q61 0 94.5 31t41.5 98l57 461h85zM485 810l-6 -70q-38 -30 -84 -30q-22 0 -60.5 12.5t-58.5 12.5q-15 0 -35 -6.5t-33 -12.5l-13 -6l7 70
q37 30 83 30q29 0 66 -12.5t54 -12.5q15 0 35 6.5t32 12.5z" />
    <glyph glyph-name="utilde" unicode="&#x169;" horiz-adv-x="508" 
d="M459 511l-44 -355q-21 -168 -190 -168q-88 0 -132 48.5t-34 131.5l42 343h81l-44 -354q-6 -45 18 -71t70 -26q96 0 108 93l44 358h81zM412 663l-9 -66q-30 -25 -71 -25q-19 0 -51 9.5t-49 9.5q-12 0 -29.5 -5.5t-28.5 -10.5l-11 -5l7 69q31 22 72 22q24 0 55 -9.5
t45 -9.5q13 0 30.5 5t28.5 11z" />
    <glyph glyph-name="Umacron" unicode="&#x16a;" horiz-adv-x="576" 
d="M545 655l-56 -454q-14 -109 -69.5 -161t-158.5 -52q-109 0 -160 56.5t-38 159.5l56 451h85l-57 -458q-8 -63 23.5 -97.5t96.5 -34.5q61 0 94.5 31t41.5 98l57 461h85zM227 785h235l-10 -75h-235z" />
    <glyph glyph-name="umacron" unicode="&#x16b;" horiz-adv-x="508" 
d="M459 511l-44 -355q-21 -168 -190 -168q-88 0 -132 48.5t-34 131.5l42 343h81l-44 -354q-6 -45 18 -71t70 -26q96 0 108 93l44 358h81zM190 640h202l-7 -70h-202z" />
    <glyph glyph-name="Ubreve" unicode="&#x16c;" horiz-adv-x="576" 
d="M545 655l-56 -454q-14 -109 -69.5 -161t-158.5 -52q-109 0 -160 56.5t-38 159.5l56 451h85l-57 -458q-8 -63 23.5 -97.5t96.5 -34.5q61 0 94.5 31t41.5 98l57 461h85zM484 830l-9 -78q-71 -47 -144 -47q-34 0 -68 11.5t-51 23.5l-17 12l9 78q7 -6 20 -15t48.5 -23.5
t66.5 -14.5t67 13.5t57 26.5z" />
    <glyph glyph-name="ubreve" unicode="&#x16d;" horiz-adv-x="508" 
d="M459 511l-44 -355q-21 -168 -190 -168q-88 0 -132 48.5t-34 131.5l42 343h81l-44 -354q-6 -45 18 -71t70 -26q96 0 108 93l44 358h81zM412 678l-10 -75q-57 -43 -124 -43q-30 0 -58.5 11t-41.5 21l-14 11l10 75q6 -6 16.5 -14t40 -22t56.5 -14t58 12.5t49 25.5z" />
    <glyph glyph-name="Uring" unicode="&#x16e;" horiz-adv-x="576" 
d="M545 655l-56 -454q-14 -109 -69.5 -161t-158.5 -52q-109 0 -160 56.5t-38 159.5l56 451h85l-57 -458q-8 -63 23.5 -97.5t96.5 -34.5q61 0 94.5 31t41.5 98l57 461h85zM348 885q48 0 77.5 -22t30.5 -63q1 -57 -31 -86t-91 -29q-48 0 -78.5 23t-31.5 65q-1 56 32 84t92 28z
M344 830q-54 0 -54 -50q4 -40 47 -40q29 0 42.5 14t11.5 39q0 37 -47 37z" />
    <glyph glyph-name="uring" unicode="&#x16f;" horiz-adv-x="508" 
d="M459 511l-44 -355q-21 -168 -190 -168q-88 0 -132 48.5t-34 131.5l42 343h81l-44 -354q-6 -45 18 -71t70 -26q96 0 108 93l44 358h81zM290 704q39 0 65 -21t27 -54q1 -39 -25.5 -64t-74.5 -25q-38 0 -64 21t-27 55q-1 40 25 64t74 24zM288 655q-22 0 -31 -8.5t-8 -27.5
q0 -14 9.5 -22.5t26.5 -8.5q21 0 29.5 9t8.5 29q-2 29 -35 29z" />
    <glyph glyph-name="Uhungarumlaut" unicode="&#x170;" horiz-adv-x="576" 
d="M545 655l-56 -454q-14 -109 -69.5 -161t-158.5 -52q-109 0 -160 56.5t-38 159.5l56 451h85l-57 -458q-8 -63 23.5 -97.5t96.5 -34.5q61 0 94.5 31t41.5 98l57 461h85zM279 710h-75l72 119h80zM419 710h-75l72 119h80z" />
    <glyph glyph-name="uhungarumlaut" unicode="&#x171;" horiz-adv-x="508" 
d="M459 511l-44 -355q-21 -168 -190 -168q-88 0 -132 48.5t-34 131.5l42 343h81l-44 -354q-6 -45 18 -71t70 -26q96 0 108 93l44 358h81zM246 564h-71l72 119h77zM373 564h-71l72 119h78z" />
    <glyph glyph-name="Uogonek" unicode="&#x172;" horiz-adv-x="576" 
d="M545 655l-56 -454q-22 -178 -161 -206q-50 -31 -58 -82l-1 -10q-6 -37 37 -37q15 0 33 3l-8 -61q-23 -5 -49 -5q-49 0 -71 22t-17 59l2 13q6 51 56 91q-105 2 -153.5 58.5t-35.5 157.5l56 451h85l-57 -458q-8 -63 23.5 -97.5t96.5 -34.5q61 0 94.5 31t41.5 98l57 461h85z
" />
    <glyph glyph-name="uogonek" unicode="&#x173;" horiz-adv-x="508" 
d="M459 511l-44 -355q-17 -134 -128 -161q-51 -31 -59 -82l-1 -10q-6 -37 37 -37q15 0 33 3l-8 -61q-22 -5 -49 -5q-49 0 -71 22t-17 59l2 13q7 52 56 92q-81 4 -121 52t-30 127l42 343h81l-44 -354q-6 -45 18 -71t70 -26q96 0 108 93l44 358h81z" />
    <glyph glyph-name="Wcircumflex" unicode="&#x174;" horiz-adv-x="848" 
d="M638 0h-114l-68 558l-203 -558h-114l-70 655h87q33 -278 51 -562q104 262 200 562h114q44 -305 66 -562q94 250 187 562h93zM619 779l-7 -68l-135 49l-145 -49l7 68l147 61z" />
    <glyph glyph-name="wcircumflex" unicode="&#x175;" horiz-adv-x="714" 
d="M532 0h-105l-55 426l-156 -426h-105l-60 511h84q30 -265 39 -427q79 205 156 427h104q30 -221 50 -426q78 215 144 426h87zM511 632l-7 -62l-114 45l-124 -45l7 65l125 53z" />
    <glyph glyph-name="Ycircumflex" unicode="&#x176;" horiz-adv-x="491" 
d="M279 225l-27 -225h-85l27 225l-137 430h93q55 -184 94 -340q91 156 179 340h99zM438 779l-7 -68l-135 49l-145 -49l7 68l147 61z" />
    <glyph glyph-name="ycircumflex" unicode="&#x177;" horiz-adv-x="425" 
d="M238 174l-20 -174h-82l20 174l-117 337h89q49 -152 77 -263q69 119 141 263h93zM371 632l-7 -62l-114 45l-124 -45l7 65l125 53z" />
    <glyph glyph-name="Ydieresis" unicode="&#x178;" horiz-adv-x="491" 
d="M279 225l-27 -225h-85l27 225l-137 430h93q55 -184 94 -340q91 156 179 340h99zM262 781l-4 -29q-3 -42 -54 -42q-26 0 -42 13t-13 34l4 28q6 43 55 43q57 0 54 -47zM434 781l-4 -29q-3 -42 -54 -42q-27 0 -42.5 13t-12.5 34l4 28q6 43 55 43q27 0 41 -12.5t13 -34.5z
" />
    <glyph glyph-name="Zacute" unicode="&#x179;" horiz-adv-x="480" 
d="M11 67l354 511h-285l10 77h389l-9 -67q-170 -224 -355 -511h292l-8 -77h-395zM253 710l78 119h89l-97 -119h-70z" />
    <glyph glyph-name="zacute" unicode="&#x17a;" horiz-adv-x="418" 
d="M399 511l-7 -64q-123 -149 -282 -374h235l-8 -73h-333l6 62l280 376h-228l9 73h328zM167 564l74 119h91l-92 -119h-73z" />
    <glyph glyph-name="Zdotaccent" unicode="&#x17b;" horiz-adv-x="480" 
d="M11 67l354 511h-285l10 77h389l-9 -67q-170 -224 -355 -511h292l-8 -77h-395zM351 780l-4 -29q-3 -42 -56 -42q-27 0 -42.5 13.5t-12.5 34.5l4 29q6 43 56 43q27 0 42 -13t13 -36z" />
    <glyph glyph-name="zdotaccent" unicode="&#x17c;" horiz-adv-x="418" 
d="M399 511l-7 -64q-123 -149 -282 -374h235l-8 -73h-333l6 62l280 376h-228l9 73h328zM261 649l-3 -29q-6 -45 -63 -45q-26 0 -38 11.5t-10 33.5l3 29q5 46 60 46q27 0 40.5 -12t10.5 -34z" />
    <glyph glyph-name="Zcaron" unicode="&#x17d;" horiz-adv-x="480" 
d="M11 67l354 511h-285l10 77h389l-9 -67q-170 -224 -355 -511h292l-8 -77h-395zM433 773l-146 -61l-134 61l8 68l135 -49l145 49z" />
    <glyph glyph-name="zcaron" unicode="&#x17e;" horiz-adv-x="418" 
d="M399 511l-7 -64q-123 -149 -282 -374h235l-8 -73h-333l6 62l280 376h-228l9 73h328zM324 624l-125 -54l-113 54l7 64l114 -45l124 45z" />
    <glyph glyph-name="longs" unicode="&#x17f;" horiz-adv-x="395" 
d="M222 523q56 0 124 -19l-10 -75q-29 10 -79 21q-24 2 -38 2q-41 0 -60.5 -14t-24.5 -45l-1 -7q-9 -58 53 -80l59 -23q119 -47 99 -156l-2 -11q-23 -128 -167 -128q-70 0 -152 34l11 79q57 -26 102 -37q22 -3 40 -3q76 0 87 66l1 6q9 58 -50 80l-59 22q-123 47 -104 158
l2 12q19 118 169 118z" />
    <glyph glyph-name="florin" unicode="&#x192;" horiz-adv-x="313" 
d="M275 613q39 0 77 -11l-9 -70q-43 12 -74 12q-30 0 -47 -18.5t-23 -63.5l-8 -56h90l-10 -70h-90l-72 -521h-86l73 521h-74l7 50l76 14l8 57q22 156 162 156z" />
    <glyph glyph-name="AEacute" unicode="&#x1fc;" horiz-adv-x="761" 
d="M730 578h-260l-25 -207h240l-10 -76h-240l-27 -218h260l-8 -77h-345l18 152h-195l-92 -152h-92l388 655h398zM343 228l44 364q-85 -160 -204 -364h160zM526 710l78 119h89l-97 -119h-70z" />
    <glyph glyph-name="aeacute" unicode="&#x1fd;" horiz-adv-x="653" 
d="M605 438h-212l-18 -142h195l-8 -72h-195l-19 -151h212l-8 -73h-293l13 113h-141l-63 -113h-91l298 511h339zM281 182l33 270l-145 -270h112zM451 564l74 119h91l-92 -119h-73z" />
    <glyph glyph-name="Oslashacute" unicode="&#x1fe;" horiz-adv-x="576" 
d="M602 705l-94 -130q26 -53 17 -128l-31 -249q-26 -210 -238 -210q-79 0 -130 32l-52 -70h-89l90 125q-28 53 -17 133l31 249q14 108 71 159t167 51q82 0 133 -37l53 75h89zM321 592q-132 0 -147 -127l-32 -268q-3 -23 -2 -38l277 401q-30 32 -96 32zM442 487l-273 -395
q30 -29 92 -29q131 0 147 128l33 267q1 10 1 29zM290 710l78 119h89l-97 -119h-70z" />
    <glyph glyph-name="oslashacute" unicode="&#x1ff;" horiz-adv-x="506" 
d="M503 550l-79 -107q23 -47 16 -109l-23 -184q-10 -83 -56.5 -122.5t-133.5 -39.5q-64 0 -106 25l-39 -52h-81l72 101q-28 48 -19 114l24 183q11 84 57.5 124t133.5 40q66 0 110 -30l42 57h82zM268 452q-97 0 -110 -98l-24 -191q-2 -20 -1 -29l208 291q-27 27 -73 27z
M362 361l-201 -282q25 -20 66 -20q98 0 110 93l22 178q3 25 3 31zM225 564l74 119h91l-92 -119h-73z" />
    <glyph glyph-name="Scommaaccent" unicode="&#x218;" horiz-adv-x="456" 
d="M220 388l83 -34q130 -54 108 -196l-2 -13q-24 -157 -200 -157q-94 0 -180 42l10 85q69 -35 127 -49q20 -2 43 -2q52 0 79 21.5t35 66.5l2 11q8 46 -7.5 73t-59.5 45l-89 36q-65 26 -92.5 81.5t-10.5 128.5l2 9q29 131 201 131q69 0 151 -22l-11 -81q-56 16 -109 26
q-15 1 -35 1q-100 0 -112 -75l-2 -12q-13 -83 69 -116zM265 -102l-3 -20q-4 -21 -15 -45l-28 -59h-52l26 71q-29 10 -24 42l3 20q6 37 46 37q26 0 38.5 -12t8.5 -34z" />
    <glyph glyph-name="scommaaccent" unicode="&#x219;" horiz-adv-x="395" 
d="M222 523q56 0 124 -19l-10 -75q-29 10 -79 21q-24 2 -38 2q-41 0 -60.5 -14t-24.5 -45l-1 -7q-9 -58 53 -80l59 -23q119 -47 99 -156l-2 -11q-23 -128 -167 -128q-70 0 -152 34l11 79q57 -26 102 -37q22 -3 40 -3q76 0 87 66l1 6q9 58 -50 80l-59 22q-123 47 -104 158
l2 12q19 118 169 118zM219 -102l-3 -20q-4 -21 -15 -45l-28 -59h-52l26 71q-29 10 -24 42l3 20q6 37 46 37q26 0 38.5 -12t8.5 -34z" />
    <glyph glyph-name="uni021A" unicode="&#x21a;" horiz-adv-x="525" 
d="M74 655h465l-10 -77h-190l-70 -578h-85l70 578h-190zM264 -102l-3 -20q-4 -21 -15 -45l-28 -59h-52l26 71q-29 10 -24 42l3 20q6 37 46 37q26 0 38.5 -12t8.5 -34z" />
    <glyph glyph-name="uni021B" unicode="&#x21b;" horiz-adv-x="450" 
d="M437 438h-154l-53 -438h-81l53 438h-155l9 73h390zM231 -102l-3 -20q-4 -21 -15 -45l-28 -59h-52l26 71q-29 10 -24 42l3 20q6 37 46 37q26 0 38.5 -12t8.5 -34z" />
    <glyph glyph-name="dotlessj" unicode="&#x237;" horiz-adv-x="260" 
d="M211 511l-49 -393q-9 -70 -39.5 -100t-89.5 -30q-38 0 -75 11l7 68q30 -10 60 -10q27 0 39.5 12t16.5 44l49 398h81z" />
    <glyph glyph-name="uni02BC" unicode="&#x2bc;" horiz-adv-x="159" 
d="M128 649l-3 -20q-4 -21 -15 -45l-28 -59h-52l26 71q-29 10 -24 42l3 20q6 37 46 37q26 0 38.5 -12t8.5 -34z" />
    <glyph glyph-name="circumflex" unicode="&#x2c6;" horiz-adv-x="305" 
d="M275 632l-7 -62l-114 45l-124 -45l7 65l125 53z" />
    <glyph glyph-name="caron" unicode="&#x2c7;" horiz-adv-x="305" 
d="M268 624l-125 -54l-113 54l7 64l114 -45l124 45z" />
    <glyph glyph-name="uni02C9" unicode="&#x2c9;" horiz-adv-x="285" 
d="M40 681h215l-10 -75h-215z" />
    <glyph glyph-name="breve" unicode="&#x2d8;" horiz-adv-x="308" 
d="M278 678l-10 -75q-57 -43 -124 -43q-30 0 -58.5 11t-41.5 21l-14 11l10 75q6 -6 16.5 -14t40 -22t56.5 -14t58 12.5t49 25.5z" />
    <glyph glyph-name="dotaccent" unicode="&#x2d9;" horiz-adv-x="176" 
d="M145 649l-3 -29q-6 -45 -63 -45q-26 0 -38 11.5t-10 33.5l3 29q5 46 60 46q27 0 40.5 -12t10.5 -34z" />
    <glyph glyph-name="ring" unicode="&#x2da;" horiz-adv-x="251" 
d="M127 704q39 0 65 -21t27 -54q1 -39 -25.5 -64t-74.5 -25q-38 0 -64 21t-27 55q-1 40 25 64t74 24zM125 655q-22 0 -31 -8.5t-8 -27.5q0 -14 9.5 -22.5t26.5 -8.5q21 0 29.5 9t8.5 29q-2 29 -35 29z" />
    <glyph glyph-name="ogonek" unicode="&#x2db;" horiz-adv-x="222" 
d="M176 -131l-8 -61q-23 -5 -49 -5q-49 0 -71 22t-17 59l2 13q5 41 41.5 78.5t85.5 46.5l32 -15q-35 -12 -57.5 -38t-27.5 -56l-1 -10q-6 -37 37 -37q15 0 33 3z" />
    <glyph glyph-name="tilde" unicode="&#x2dc;" horiz-adv-x="309" 
d="M279 663l-9 -66q-30 -25 -71 -25q-19 0 -51 9.5t-49 9.5q-12 0 -29.5 -5.5t-28.5 -10.5l-11 -5l7 69q31 22 72 22q23 0 54 -9.5t46 -9.5q13 0 30.5 5t28.5 11z" />
    <glyph glyph-name="hungarumlaut" unicode="&#x2dd;" horiz-adv-x="329" 
d="M98 564h-71l72 119h77zM225 564h-71l72 119h78z" />
    <glyph glyph-name="uni0312" unicode="&#x312;" horiz-adv-x="0" 
d="M31 604l3 20q4 21 15 45l28 59h52l-26 -71q29 -10 24 -42l-3 -20q-6 -37 -46 -37q-26 0 -38.5 12t-8.5 34z" />
    <glyph glyph-name="uni0313" unicode="&#x313;" horiz-adv-x="0" 
d="M128 649l-3 -20q-4 -21 -15 -45l-28 -59h-52l26 71q-29 10 -24 42l3 20q6 37 46 37q26 0 38.5 -12t8.5 -34z" />
    <glyph glyph-name="uni0326" unicode="&#x326;" horiz-adv-x="159" 
d="M128 -102l-3 -20q-4 -21 -15 -45l-28 -59h-52l26 71q-29 10 -24 42l3 20q6 37 46 37q26 0 38.5 -12t8.5 -34z" />
    <glyph glyph-name="uni037E" unicode="&#x37e;" horiz-adv-x="221" 
d="M133 478q27 0 41.5 -13.5t11.5 -35.5l-4 -29q-6 -42 -59 -42q-27 0 -41 13.5t-11 34.5l3 23q3 26 16.5 37.5t42.5 11.5zM79 108q27 0 42.5 -15.5t11.5 -41.5l-3 -25q-3 -20 -14 -45l-64 -142h-60l57 152q-16 4 -24 18.5t-6 32.5l4 28q6 38 56 38z" />
    <glyph glyph-name="tonos" unicode="&#x384;" horiz-adv-x="195" 
d="M30 544l50 139h85l-69 -139h-66z" />
    <glyph glyph-name="dieresistonos" unicode="&#x385;" horiz-adv-x="346" 
d="M145 731l46 123h85l-65 -123h-66zM143 650l-3 -29q-6 -44 -61 -44q-25 0 -37.5 11.5t-10.5 32.5l3 29q4 45 59 45q27 0 40 -11.5t10 -33.5zM315 650l-3 -29q-6 -44 -61 -44q-26 0 -38 11.5t-10 32.5l3 29q4 45 59 45q27 0 40 -11.5t10 -33.5z" />
    <glyph glyph-name="Alphatonos" unicode="&#x386;" horiz-adv-x="532" 
d="M483 0h-91q-6 47 -22 152h-239q-34 -87 -64 -152h-90l280 655h105zM299 576l-136 -348h195q-26 166 -59 348zM155 516h-66l26 139h85z" />
    <glyph glyph-name="anoteleia" unicode="&#x387;" horiz-adv-x="221" 
d="M81 309q27 0 41.5 -13.5t11.5 -35.5l-4 -29q-6 -42 -59 -42q-27 0 -41 13.5t-11 34.5l3 23q3 26 16.5 37.5t42.5 11.5z" />
    <glyph glyph-name="Epsilontonos" unicode="&#x388;" horiz-adv-x="485" 
d="M119 655h345l-10 -77h-260l-25 -207h240l-10 -76h-240l-27 -218h260l-8 -77h-345zM44 516h-66l26 139h85z" />
    <glyph glyph-name="Etatonos" unicode="&#x389;" horiz-adv-x="580" 
d="M420 300h-260l-36 -300h-85l80 655h85l-35 -279h260l35 279h85l-80 -655h-85zM44 516h-66l26 139h85z" />
    <glyph glyph-name="Iotatonos" unicode="&#x38a;" horiz-adv-x="235" 
d="M119 655h85l-80 -655h-85zM44 516h-66l26 139h85z" />
    <glyph glyph-name="Omicrontonos" unicode="&#x38c;" horiz-adv-x="576" 
d="M327 667q105 0 158 -58.5t40 -161.5l-31 -249q-26 -210 -238 -210q-108 0 -159.5 57.5t-38.5 162.5l31 249q14 108 71 159t167 51zM321 592q-132 0 -147 -127l-32 -268q-8 -66 23 -100t96 -34q131 0 147 128l33 267q17 134 -120 134zM54 516h-66l26 139h85z" />
    <glyph glyph-name="Upsilontonos" unicode="&#x38e;" horiz-adv-x="491" 
d="M-1 516h-66l26 139h85zM279 225l-27 -225h-85l27 225l-137 430h93q55 -184 94 -340q91 156 179 340h99z" />
    <glyph glyph-name="Omegatonos" unicode="&#x38f;" horiz-adv-x="576" 
d="M323 667q110 0 162.5 -59.5t39.5 -163.5l-26 -208q-7 -56 -22.5 -91t-48.5 -65h65l-7 -80h-200l6 77h9q44 0 74 34t37 95l29 249q7 66 -26 101.5t-97 35.5q-131 0 -145 -127l-26 -249q-7 -66 15.5 -102.5t64.5 -36.5h9l-6 -77h-200l8 80h66q-55 54 -41 166l26 211
q13 109 67 159.5t167 50.5zM54 516h-66l26 139h85z" />
    <glyph glyph-name="iotadieresistonos" unicode="&#x390;" horiz-adv-x="231" 
d="M101 511h81l-62 -511h-81zM121 731l46 123h85l-65 -123h-66zM119 650l-3 -29q-6 -44 -61 -44q-25 0 -37.5 11.5t-10.5 32.5l3 29q4 45 59 45q27 0 40 -11.5t10 -33.5zM291 650l-3 -29q-6 -44 -61 -44q-26 0 -38 11.5t-10 32.5l3 29q4 45 59 45q27 0 40 -11.5t10 -33.5z
" />
    <glyph glyph-name="Alpha" unicode="&#x391;" horiz-adv-x="532" 
d="M483 0h-91q-6 47 -22 152h-239q-34 -87 -64 -152h-90l280 655h105zM299 576l-136 -348h195q-26 166 -59 348z" />
    <glyph glyph-name="Beta" unicode="&#x392;" horiz-adv-x="528" 
d="M38 -3l82 665q108 5 164 5q106 0 160 -45.5t48 -118.5l-1 -11q-11 -117 -118 -152q54 -15 83.5 -58.5t21.5 -103.5l-2 -15q-24 -175 -244 -175q-76 0 -194 9zM168 367h103q59 0 93 30t40 83l1 9q6 53 -25.5 79t-106.5 26q-33 0 -77 -3zM159 298l-28 -230q60 -6 99 -6
q78 0 116 27.5t47 83.5l2 13q8 53 -25 82.5t-107 29.5h-104z" />
    <glyph glyph-name="Gamma" unicode="&#x393;" horiz-adv-x="445" 
d="M449 578h-255l-70 -578h-85l80 655h340z" />
    <glyph glyph-name="uni0394" unicode="&#x394;" horiz-adv-x="522" 
d="M474 57l-5 -57h-474l8 57l246 598h101zM289 577q-86 -250 -196 -501h287q-29 232 -91 501z" />
    <glyph glyph-name="Epsilon" unicode="&#x395;" horiz-adv-x="485" 
d="M119 655h345l-10 -77h-260l-25 -207h240l-10 -76h-240l-27 -218h260l-8 -77h-345z" />
    <glyph glyph-name="Zeta" unicode="&#x396;" horiz-adv-x="480" 
d="M11 67l354 511h-285l10 77h389l-9 -67q-170 -224 -355 -511h292l-8 -77h-395z" />
    <glyph glyph-name="Eta" unicode="&#x397;" horiz-adv-x="580" 
d="M420 300h-260l-36 -300h-85l80 655h85l-35 -279h260l35 279h85l-80 -655h-85z" />
    <glyph glyph-name="Theta" unicode="&#x398;" horiz-adv-x="576" 
d="M327 667q105 0 158 -58.5t40 -161.5l-31 -249q-26 -210 -238 -210q-108 0 -159.5 57.5t-38.5 162.5l31 249q14 108 71 159t167 51zM321 592q-132 0 -147 -127l-32 -268q-8 -66 23 -100t96 -34q131 0 147 128l33 267q17 134 -120 134zM370 293h-166l10 80h166z" />
    <glyph glyph-name="Iota" unicode="&#x399;" horiz-adv-x="235" 
d="M119 655h85l-80 -655h-85z" />
    <glyph glyph-name="Kappa" unicode="&#x39a;" horiz-adv-x="525" 
d="M119 655h85l-37 -303q168 171 272 303h104l-288 -317l234 -338h-108q-124 200 -217 325l-40 -325h-85z" />
    <glyph glyph-name="Lambda" unicode="&#x39b;" horiz-adv-x="527" 
d="M478 0h-89q-51 368 -90 577q-126 -333 -232 -577h-90l278 655h105z" />
    <glyph glyph-name="Mu" unicode="&#x39c;" horiz-adv-x="699" 
d="M593 0h-84l59 535l-197 -467h-104l-80 465l-69 -533h-84l86 655h121q58 -291 84 -509q107 235 209 509h133z" />
    <glyph glyph-name="Nu" unicode="&#x39d;" horiz-adv-x="582" 
d="M190 556l-67 -556h-84l80 655h125q88 -284 155 -555l68 555h84l-80 -655h-125z" />
    <glyph glyph-name="Xi" unicode="&#x39e;" horiz-adv-x="475" 
d="M463 573h-385l11 82h385zM361 292h-250l10 82h250zM394 0h-385l9 82h385z" />
    <glyph glyph-name="Omicron" unicode="&#x39f;" horiz-adv-x="576" 
d="M327 667q105 0 158 -58.5t40 -161.5l-31 -249q-26 -210 -238 -210q-108 0 -159.5 57.5t-38.5 162.5l31 249q14 108 71 159t167 51zM321 592q-132 0 -147 -127l-32 -268q-8 -66 23 -100t96 -34q131 0 147 128l33 267q17 134 -120 134z" />
    <glyph glyph-name="Pi" unicode="&#x3a0;" horiz-adv-x="580" 
d="M469 0h-85l70 578h-260l-70 -578h-85l80 655h430z" />
    <glyph glyph-name="Rho" unicode="&#x3a1;" horiz-adv-x="510" 
d="M282 667q117 0 174 -54t43 -148l-2 -14q-13 -89 -73.5 -136.5t-164.5 -47.5q-34 0 -102 13l-33 -280h-85l81 662q87 5 162 5zM279 596q-41 0 -83 -2l-31 -247q54 -10 92 -10q69 0 106.5 29t48.5 90l2 11q11 60 -24 94.5t-111 34.5z" />
    <glyph glyph-name="Sigma" unicode="&#x3a3;" horiz-adv-x="454" 
d="M458 578h-293l114 -224l-5 -46l-170 -231h292l-8 -77h-389l7 67l201 268l-137 253l9 67h389z" />
    <glyph glyph-name="Tau" unicode="&#x3a4;" horiz-adv-x="525" 
d="M74 655h465l-10 -77h-190l-70 -578h-85l70 578h-190z" />
    <glyph glyph-name="Upsilon" unicode="&#x3a5;" horiz-adv-x="491" 
d="M279 225l-27 -225h-85l27 225l-137 430h93q55 -184 94 -340q91 156 179 340h99z" />
    <glyph glyph-name="Phi" unicode="&#x3a6;" horiz-adv-x="738" 
d="M457 695l-10 -84q29 6 57 6q109 0 154 -49t31 -161l-18 -145q-13 -104 -66.5 -149t-167.5 -45q-24 0 -56 5l-10 -85h-85l10 85q-30 -5 -52 -5q-108 0 -152.5 51t-30.5 159l18 145q13 103 64.5 148.5t158.5 45.5q18 0 60 -6l10 84h85zM297 547q-65 0 -94.5 -26.5
t-37.5 -89.5l-20 -167q-8 -66 18 -96t90 -30q28 0 51 4l49 400q-30 5 -56 5zM495 546q-19 0 -57 -4l-48 -400q36 -4 56 -4q69 0 100.5 25.5t38.5 89.5l20 167q8 68 -17.5 97t-92.5 29z" />
    <glyph glyph-name="Chi" unicode="&#x3a7;" horiz-adv-x="519" 
d="M319 335l151 -335h-100q-50 130 -114 268l-180 -268h-99l233 341l-141 314h96l105 -250q98 135 169 250h100z" />
    <glyph glyph-name="Psi" unicode="&#x3a8;" horiz-adv-x="710" 
d="M689 655l-39 -313q-11 -92 -55 -134t-125 -42h-88l-20 -166h-85l20 166h-62q-88 0 -131.5 50t-32.5 138l38 301h85l-39 -311q-7 -50 15.5 -76.5t63.5 -26.5h71l52 414h85l-52 -414h78q43 0 66.5 21.5t29.5 69.5l40 323h85z" />
    <glyph glyph-name="uni03A9" unicode="&#x3a9;" horiz-adv-x="576" 
d="M323 667q110 0 162.5 -59.5t39.5 -163.5l-26 -208q-7 -56 -22.5 -91t-48.5 -65h65l-7 -80h-200l6 77h9q44 0 74 34t37 95l29 249q7 66 -26 101.5t-97 35.5q-131 0 -145 -127l-26 -249q-7 -66 15.5 -102.5t64.5 -36.5h9l-6 -77h-200l8 80h66q-55 54 -41 166l26 211
q13 109 67 159.5t167 50.5z" />
    <glyph glyph-name="Iotadieresis" unicode="&#x3aa;" horiz-adv-x="235" 
d="M119 655h85l-80 -655h-85zM139 781l-4 -29q-3 -42 -54 -42q-26 0 -42 13t-13 34l4 28q6 43 55 43q57 0 54 -47zM311 781l-4 -29q-3 -42 -54 -42q-27 0 -42.5 13t-12.5 34l4 28q6 43 55 43q27 0 41 -12.5t13 -34.5z" />
    <glyph glyph-name="Upsilondieresis" unicode="&#x3ab;" horiz-adv-x="491" 
d="M265 781l-4 -29q-3 -42 -54 -42q-26 0 -42 13t-13 34l4 28q6 43 55 43q57 0 54 -47zM437 781l-4 -29q-3 -42 -54 -42q-27 0 -42.5 13t-12.5 34l4 28q6 43 55 43q27 0 41 -12.5t13 -34.5zM279 225l-27 -225h-85l27 225l-137 430h93q55 -184 94 -340q91 156 179 340h99z
" />
    <glyph glyph-name="alphatonos" unicode="&#x3ac;" horiz-adv-x="453" 
d="M404 0h-85l-18 113h-192q-34 -85 -47 -113h-85l226 511h99zM243 441l-106 -259h153q-31 176 -47 259z" />
    <glyph glyph-name="epsilontonos" unicode="&#x3ad;" horiz-adv-x="433" 
d="M101 511h293l-9 -73h-212l-18 -142h195l-8 -72h-195l-19 -151h212l-8 -73h-293z" />
    <glyph glyph-name="etatonos" unicode="&#x3ae;" horiz-adv-x="512" 
d="M401 0h-81l27 227h-200l-27 -227h-81l62 511h81l-26 -212h200l26 212h81z" />
    <glyph glyph-name="iotatonos" unicode="&#x3af;" horiz-adv-x="231" 
d="M101 511h81l-62 -511h-81z" />
    <glyph glyph-name="upsilondieresistonos" unicode="&#x3b0;" horiz-adv-x="425" 
d="M221 731l46 123h85l-65 -123h-66zM219 650l-3 -29q-6 -44 -61 -44q-25 0 -37.5 11.5t-10.5 32.5l3 29q4 45 59 45q27 0 40 -11.5t10 -33.5zM391 650l-3 -29q-6 -44 -61 -44q-26 0 -38 11.5t-10 32.5l3 29q4 45 59 45q27 0 40 -11.5t10 -33.5zM238 174l-20 -174h-82
l20 174l-117 337h89q49 -152 77 -263q69 119 141 263h93z" />
    <glyph glyph-name="alpha" unicode="&#x3b1;" horiz-adv-x="453" 
d="M404 0h-85l-18 113h-192q-34 -85 -47 -113h-85l226 511h99zM243 441l-106 -259h153q-31 176 -47 259z" />
    <glyph glyph-name="beta" unicode="&#x3b2;" horiz-adv-x="462" 
d="M246 523q86 0 129.5 -35.5t38.5 -95.5l-1 -11q-8 -87 -103 -115q49 -11 76 -46.5t22 -83.5l-1 -9q-7 -63 -59 -101t-148 -38q-79 0 -163 6l65 523q9 0 38 2t58 3t48 1zM236 454q-19 0 -61 -3l-20 -159h79q44 0 69.5 21.5t30.5 57.5l1 8q5 37 -19.5 56t-79.5 19zM147 228
l-21 -167q53 -4 80 -4q108 0 120 75l2 12q6 38 -19.5 61t-77.5 23h-84z" />
    <glyph glyph-name="gamma" unicode="&#x3b3;" horiz-adv-x="387" 
d="M374 438h-201l-53 -438h-81l62 511h282z" />
    <glyph glyph-name="delta" unicode="&#x3b4;" horiz-adv-x="453" 
d="M396 50l-6 -50h-399l6 48l207 463h96zM243 441l-153 -370h218q-27 175 -65 370z" />
    <glyph glyph-name="epsilon" unicode="&#x3b5;" horiz-adv-x="433" 
d="M101 511h293l-9 -73h-212l-18 -142h195l-8 -72h-195l-19 -151h212l-8 -73h-293z" />
    <glyph glyph-name="zeta" unicode="&#x3b6;" horiz-adv-x="418" 
d="M399 511l-7 -64q-123 -149 -282 -374h235l-8 -73h-333l6 62l280 376h-228l9 73h328z" />
    <glyph glyph-name="eta" unicode="&#x3b7;" horiz-adv-x="512" 
d="M401 0h-81l27 227h-200l-27 -227h-81l62 511h81l-26 -212h200l26 212h81z" />
    <glyph glyph-name="theta" unicode="&#x3b8;" horiz-adv-x="506" 
d="M269 523q90 0 136 -51.5t35 -137.5l-23 -184q-10 -83 -56.5 -122.5t-133.5 -39.5q-92 0 -138 52t-35 136l24 183q11 84 57.5 124t133.5 40zM268 452q-97 0 -110 -98l-24 -191q-6 -49 19 -76.5t74 -27.5q98 0 110 93l24 195q6 50 -19 77.5t-74 27.5zM307 225h-126l8 69
h126z" />
    <glyph glyph-name="iota" unicode="&#x3b9;" horiz-adv-x="231" 
d="M101 511h81l-62 -511h-81z" />
    <glyph glyph-name="kappa" unicode="&#x3ba;" horiz-adv-x="459" 
d="M236 263l186 -263h-98q-97 150 -173 255l-31 -255h-81l62 511h81l-29 -236l214 236h97z" />
    <glyph glyph-name="lambda" unicode="&#x3bb;" horiz-adv-x="453" 
d="M404 0h-85q-26 178 -76 441l-181 -441h-85l226 511h99z" />
    <glyph glyph-name="uni03BC" unicode="&#x3bc;" horiz-adv-x="610" 
d="M504 0h-79l43 385l-149 -330h-91l-65 330l-50 -385h-79l66 511h111q38 -179 68 -383q86 184 164 383h119z" />
    <glyph glyph-name="nu" unicode="&#x3bd;" horiz-adv-x="513" 
d="M402 0h-111l-126 410l-48 -410h-78l62 511h114q79 -237 122 -408l49 408h78z" />
    <glyph glyph-name="xi" unicode="&#x3be;" horiz-adv-x="415" 
d="M386 433h-325l10 78h325zM306 221h-215l9 78h215zM334 0h-325l8 78h325z" />
    <glyph glyph-name="omicron" unicode="&#x3bf;" horiz-adv-x="506" 
d="M269 523q90 0 136 -51.5t35 -137.5l-23 -184q-10 -83 -56.5 -122.5t-133.5 -39.5q-92 0 -138 52t-35 136l24 183q11 84 57.5 124t133.5 40zM268 452q-97 0 -110 -98l-24 -191q-6 -49 19 -76.5t74 -27.5q98 0 110 93l24 195q6 50 -19 77.5t-74 27.5z" />
    <glyph glyph-name="pi" unicode="&#x3c0;" horiz-adv-x="512" 
d="M401 0h-82l53 438h-199l-53 -438h-81l62 511h362z" />
    <glyph glyph-name="rho" unicode="&#x3c1;" horiz-adv-x="446" 
d="M243 523q92 0 141.5 -45t39.5 -114l-2 -14q-11 -74 -59 -113.5t-130 -39.5q-42 0 -89 10l-24 -207h-81l63 517q99 6 141 6zM235 455q-18 0 -60 -3l-22 -182q38 -6 71 -6q105 0 117 95l1 8q5 43 -21.5 65.5t-85.5 22.5z" />
    <glyph glyph-name="sigma1" unicode="&#x3c2;" horiz-adv-x="393" 
d="M380 438h-233l90 -169l-4 -33l-131 -163h233l-8 -73h-328l6 62l159 195l-110 192l7 62h328z" />
    <glyph glyph-name="sigma" unicode="&#x3c3;" horiz-adv-x="393" 
d="M380 438h-233l90 -169l-4 -33l-131 -163h233l-8 -73h-328l6 62l159 195l-110 192l7 62h328z" />
    <glyph glyph-name="tau" unicode="&#x3c4;" horiz-adv-x="450" 
d="M437 438h-154l-53 -438h-81l53 438h-155l9 73h390z" />
    <glyph glyph-name="upsilon" unicode="&#x3c5;" horiz-adv-x="425" 
d="M238 174l-20 -174h-82l20 174l-117 337h89q49 -152 77 -263q69 119 141 263h93z" />
    <glyph glyph-name="phi" unicode="&#x3c6;" horiz-adv-x="639" 
d="M385 545l-8 -64q20 4 40 4q94 0 133.5 -52t23.5 -160l-6 -42q-13 -92 -59 -136t-130 -44q-21 0 -54 7l-8 -67h-81l8 66q-36 -6 -50 -6q-166 0 -140 210l4 35q13 104 57.5 146.5t135.5 42.5q21 0 45 -4l8 64h81zM253 417q-53 0 -79 -25t-34 -88l-7 -58q-8 -72 12.5 -100.5
t77.5 -28.5q10 0 28 2l37 296q-26 2 -35 2zM400 417q-16 0 -31 -3l-37 -294q15 -3 31 -3q61 0 88.5 26t35.5 95l7 58q9 67 -13.5 94t-80.5 27z" />
    <glyph glyph-name="chi" unicode="&#x3c7;" horiz-adv-x="434" 
d="M260 262l125 -262h-87q-48 115 -91 202l-139 -202h-91l188 262l-117 249h83l85 -191q77 104 132 191h91z" />
    <glyph glyph-name="psi" unicode="&#x3c8;" horiz-adv-x="616" 
d="M577 511l-30 -242q-9 -72 -46 -105.5t-110 -33.5h-63l-15 -130h-81l15 130h-51q-70 0 -106 41t-27 113l28 227h81l-29 -235q-4 -35 13 -56t48 -21h51l39 312h81l-39 -312h63q59 0 66 62l31 250h81z" />
    <glyph glyph-name="omega" unicode="&#x3c9;" horiz-adv-x="506" 
d="M269 523q90 0 135.5 -51.5t35.5 -137.5l-17 -144q-5 -44 -18.5 -68.5t-47.5 -46.5h60l-8 -75h-168l8 72h12q31 0 52 25.5t26 67.5l22 182q6 49 -18.5 77.5t-73.5 28.5q-98 0 -111 -99l-23 -180q-6 -47 11.5 -74.5t48.5 -27.5h7l-8 -72h-168l8 75h69q-55 46 -45 126
l20 158q11 83 57 123.5t134 40.5z" />
    <glyph glyph-name="iotadieresis" unicode="&#x3ca;" horiz-adv-x="231" 
d="M101 511h81l-62 -511h-81zM119 650l-3 -29q-6 -44 -61 -44q-25 0 -37.5 11.5t-10.5 32.5l3 29q4 45 59 45q27 0 40 -11.5t10 -33.5zM291 650l-3 -29q-6 -44 -61 -44q-26 0 -38 11.5t-10 32.5l3 29q4 45 59 45q27 0 40 -11.5t10 -33.5z" />
    <glyph glyph-name="upsilondieresis" unicode="&#x3cb;" horiz-adv-x="425" 
d="M219 650l-3 -29q-6 -44 -61 -44q-25 0 -37.5 11.5t-10.5 32.5l3 29q4 45 59 45q27 0 40 -11.5t10 -33.5zM391 650l-3 -29q-6 -44 -61 -44q-26 0 -38 11.5t-10 32.5l3 29q4 45 59 45q27 0 40 -11.5t10 -33.5zM238 174l-20 -174h-82l20 174l-117 337h89q49 -152 77 -263
q69 119 141 263h93z" />
    <glyph glyph-name="omicrontonos" unicode="&#x3cc;" horiz-adv-x="506" 
d="M269 523q90 0 136 -51.5t35 -137.5l-23 -184q-10 -83 -56.5 -122.5t-133.5 -39.5q-92 0 -138 52t-35 136l24 183q11 84 57.5 124t133.5 40zM268 452q-97 0 -110 -98l-24 -191q-6 -49 19 -76.5t74 -27.5q98 0 110 93l24 195q6 50 -19 77.5t-74 27.5z" />
    <glyph glyph-name="upsilontonos" unicode="&#x3cd;" horiz-adv-x="425" 
d="M238 174l-20 -174h-82l20 174l-117 337h89q49 -152 77 -263q69 119 141 263h93z" />
    <glyph glyph-name="omegatonos" unicode="&#x3ce;" horiz-adv-x="506" 
d="M269 523q90 0 135.5 -51.5t35.5 -137.5l-17 -144q-5 -44 -18.5 -68.5t-47.5 -46.5h60l-8 -75h-168l8 72h12q31 0 52 25.5t26 67.5l22 182q6 49 -18.5 77.5t-73.5 28.5q-98 0 -111 -99l-23 -180q-6 -47 11.5 -74.5t48.5 -27.5h7l-8 -72h-168l8 75h69q-55 46 -45 126
l20 158q11 83 57 123.5t134 40.5z" />
    <glyph glyph-name="uni0401" unicode="&#x401;" horiz-adv-x="485" 
d="M119 655h345l-10 -77h-260l-25 -207h240l-10 -76h-240l-27 -218h260l-8 -77h-345zM269 781l-4 -29q-3 -42 -54 -42q-26 0 -42 13t-13 34l4 28q6 43 55 43q57 0 54 -47zM441 781l-4 -29q-3 -42 -54 -42q-27 0 -42.5 13t-12.5 34l4 28q6 43 55 43q27 0 41 -12.5t13 -34.5z
" />
    <glyph glyph-name="uni0402" unicode="&#x402;" horiz-adv-x="696" 
d="M529 578h-190l-22 -175q74 24 132 24q101 0 150 -58t35 -164l-10 -75q-10 -76 -43.5 -109t-102.5 -33q-35 0 -88 14l9 73q42 -14 77 -14q30 0 44.5 15t18.5 52l11 87q9 70 -22 105.5t-94 35.5q-60 0 -125 -24l-40 -332h-86l71 578h-190l10 77h465z" />
    <glyph glyph-name="uni0403" unicode="&#x403;" horiz-adv-x="445" 
d="M449 578h-255l-70 -578h-85l80 655h340zM249 710l78 119h89l-97 -119h-70z" />
    <glyph glyph-name="uni0404" unicode="&#x404;" horiz-adv-x="481" 
d="M303 667q74 0 149 -24l-11 -80q-77 30 -140 30q-111 0 -125 -124l-12 -98h231l-10 -76h-230l-12 -101q-8 -69 15.5 -98.5t82.5 -29.5q65 0 150 38l-8 -80q-74 -36 -155 -36q-195 0 -169 219l31 256q25 204 213 204z" />
    <glyph glyph-name="uni0405" unicode="&#x405;" horiz-adv-x="456" 
d="M220 388l83 -34q130 -54 108 -196l-2 -13q-24 -157 -200 -157q-94 0 -180 42l10 85q69 -35 127 -49q20 -2 43 -2q52 0 79 21.5t35 66.5l2 11q8 46 -7.5 73t-59.5 45l-89 36q-65 26 -92.5 81.5t-10.5 128.5l2 9q29 131 201 131q69 0 151 -22l-11 -81q-56 16 -109 26
q-15 1 -35 1q-100 0 -112 -75l-2 -12q-13 -83 69 -116z" />
    <glyph glyph-name="uni0406" unicode="&#x406;" horiz-adv-x="235" 
d="M119 655h85l-80 -655h-85z" />
    <glyph glyph-name="uni0407" unicode="&#x407;" horiz-adv-x="235" 
d="M119 655h85l-80 -655h-85zM139 781l-4 -29q-3 -42 -54 -42q-26 0 -42 13t-13 34l4 28q6 43 55 43q57 0 54 -47zM311 781l-4 -29q-3 -42 -54 -42q-27 0 -42.5 13t-12.5 34l4 28q6 43 55 43q27 0 41 -12.5t13 -34.5z" />
    <glyph glyph-name="uni0408" unicode="&#x408;" horiz-adv-x="287" 
d="M256 655l-64 -518q-10 -81 -43.5 -115t-98.5 -34q-45 0 -92 14l9 73q40 -14 76 -14q30 0 44.5 16t19.5 57l64 521h85z" />
    <glyph glyph-name="uni0409" unicode="&#x409;" horiz-adv-x="845" 
d="M337 667q59 0 189 -29l-31 -260q72 10 104 10q103 0 156.5 -56.5t40.5 -144.5l-3 -20q-27 -179 -248 -179q-73 0 -183 12l72 581q-50 15 -104 15q-122 0 -140 -138l-39 -293q-13 -97 -48 -137t-104 -40q-23 0 -45 6l7 72q17 -5 40 -5q26 0 41 20.5t23 76.5l40 299
q14 109 70.5 159.5t161.5 50.5zM576 317q-36 0 -90 -8l-29 -242q51 -9 90 -9q75 0 113 29.5t48 90.5l2 12q10 61 -24.5 94t-109.5 33z" />
    <glyph glyph-name="uni040A" unicode="&#x40a;" horiz-adv-x="865" 
d="M549 655l-34 -277q72 10 104 10q103 0 156.5 -56.5t40.5 -144.5l-3 -20q-27 -179 -248 -179q-73 0 -183 12l38 300h-260l-36 -300h-85l80 655h85l-35 -279h260l35 279h85zM596 317q-36 0 -90 -8l-29 -242q51 -9 90 -9q75 0 113 29.5t48 90.5l2 12q10 61 -24.5 94
t-109.5 33z" />
    <glyph glyph-name="uni040B" unicode="&#x40b;" horiz-adv-x="689" 
d="M529 578h-190l-21 -176q79 25 134 25q97 0 143 -57.5t33 -164.5l-25 -205h-85l26 215q18 141 -109 141q-61 0 -126 -25l-40 -331h-85l70 578h-190l10 77h465z" />
    <glyph glyph-name="uni040C" unicode="&#x40c;" horiz-adv-x="531" 
d="M304 339l186 -339h-103q-75 163 -151 295h-76l-36 -295h-85l80 655h85l-35 -284h66q75 92 211 284h98zM272 710l78 119h89l-97 -119h-70z" />
    <glyph glyph-name="uni040E" unicode="&#x40e;" horiz-adv-x="482" 
d="M64 0l127 225l-137 430h94q67 -231 93 -348q103 176 183 348h95l-370 -655h-85zM439 830l-9 -78q-71 -47 -144 -47q-34 0 -68 11.5t-51 23.5l-17 12l9 78q7 -6 20 -15t48.5 -23.5t66.5 -14.5t67 13.5t57 26.5z" />
    <glyph glyph-name="uni040F" unicode="&#x40f;" horiz-adv-x="580" 
d="M469 0h-182l-17 -130h-85l17 130h-163l80 655h85l-72 -578h260l72 578h85z" />
    <glyph glyph-name="uni0410" unicode="&#x410;" horiz-adv-x="532" 
d="M483 0h-91q-6 47 -22 152h-239q-34 -87 -64 -152h-90l280 655h105zM299 576l-136 -348h195q-26 166 -59 348z" />
    <glyph glyph-name="uni0411" unicode="&#x411;" horiz-adv-x="523" 
d="M451 578h-255l-24 -200q72 10 104 10q103 0 156.5 -56.5t40.5 -144.5l-3 -20q-27 -179 -248 -179q-73 0 -183 12l82 655h340zM253 317q-36 0 -90 -8l-29 -242q51 -9 90 -9q74 0 112.5 29.5t48.5 90.5l2 12q10 61 -24.5 94t-109.5 33z" />
    <glyph glyph-name="uni0412" unicode="&#x412;" horiz-adv-x="528" 
d="M38 -3l82 665q108 5 164 5q106 0 160 -45.5t48 -118.5l-1 -11q-11 -117 -118 -152q54 -15 83.5 -58.5t21.5 -103.5l-2 -15q-24 -175 -244 -175q-76 0 -194 9zM168 367h103q59 0 93 30t40 83l1 9q6 53 -25.5 79t-106.5 26q-33 0 -77 -3zM159 298l-28 -230q60 -6 99 -6
q78 0 116 27.5t47 83.5l2 13q8 53 -25 82.5t-107 29.5h-104z" />
    <glyph glyph-name="uni0413" unicode="&#x413;" horiz-adv-x="445" 
d="M449 578h-255l-70 -578h-85l80 655h340z" />
    <glyph glyph-name="uni0414" unicode="&#x414;" horiz-adv-x="573" 
d="M39 -3l82 665q70 5 170 5q124 0 183.5 -72.5t43.5 -199.5l-21 -166q-31 -241 -281 -241q-86 0 -177 9zM197 593l-65 -525q55 -7 92 -7q77 0 127.5 43.5t60.5 122.5l22 175q12 95 -27.5 144t-121.5 49q-36 0 -88 -2z" />
    <glyph glyph-name="uni0415" unicode="&#x415;" horiz-adv-x="485" 
d="M119 655h345l-10 -77h-260l-25 -207h240l-10 -76h-240l-27 -218h260l-8 -77h-345z" />
    <glyph glyph-name="uni0416" unicode="&#x416;" horiz-adv-x="797" 
d="M607 337l129 -337h-98q-48 150 -108 295h-89l-36 -295h-85l36 295h-91l-181 -295h-95l213 339l-124 316h89q50 -122 105 -284h93l35 284h85l-35 -284h87q110 169 176 284h94z" />
    <glyph glyph-name="uni0417" unicode="&#x417;" horiz-adv-x="473" 
d="M231 667q109 0 159.5 -46t39.5 -128l-3 -22q-6 -45 -38.5 -82.5t-81.5 -51.5q53 -16 80 -58.5t22 -103.5l-2 -22q-6 -72 -62 -118.5t-153 -46.5q-84 0 -180 42l12 78q97 -44 172 -44q58 0 88 25t38 78l2 19q6 55 -27 84t-104 29h-79l9 70h79q62 0 97.5 29t42.5 80l2 15
q6 47 -24 73.5t-96 26.5q-70 0 -142 -24l7 78q92 20 142 20z" />
    <glyph glyph-name="uni0418" unicode="&#x418;" horiz-adv-x="580" 
d="M469 0h-85l61 496l-321 -496h-85l80 655h85l-61 -495q170 245 316 495h90z" />
    <glyph glyph-name="uni0419" unicode="&#x419;" horiz-adv-x="580" 
d="M469 0h-85l61 496l-321 -496h-85l80 655h85l-61 -495q170 245 316 495h90zM494 830l-9 -78q-71 -47 -144 -47q-34 0 -68 11.5t-51 23.5l-17 12l9 78q7 -6 20 -15t48.5 -23.5t66.5 -14.5t67 13.5t57 26.5z" />
    <glyph glyph-name="uni041A" unicode="&#x41a;" horiz-adv-x="531" 
d="M304 339l186 -339h-103q-75 163 -151 295h-76l-36 -295h-85l80 655h85l-35 -284h66q75 92 211 284h98z" />
    <glyph glyph-name="uni041B" unicode="&#x41b;" horiz-adv-x="559" 
d="M337 667q72 0 188 -28l-77 -639h-85l71 581q-50 15 -104 15q-122 0 -140 -138l-39 -293q-13 -97 -48 -137t-104 -40q-23 0 -45 6l7 72q17 -5 40 -5q26 0 41 20.5t23 76.5l40 299q14 109 70.5 159.5t161.5 50.5z" />
    <glyph glyph-name="uni041C" unicode="&#x41c;" horiz-adv-x="699" 
d="M593 0h-84l59 535l-197 -467h-104l-80 465l-69 -533h-84l86 655h121q58 -291 84 -509q107 235 209 509h133z" />
    <glyph glyph-name="uni041D" unicode="&#x41d;" horiz-adv-x="580" 
d="M420 300h-260l-36 -300h-85l80 655h85l-35 -279h260l35 279h85l-80 -655h-85z" />
    <glyph glyph-name="uni041E" unicode="&#x41e;" horiz-adv-x="576" 
d="M327 667q105 0 158 -58.5t40 -161.5l-31 -249q-26 -210 -238 -210q-108 0 -159.5 57.5t-38.5 162.5l31 249q14 108 71 159t167 51zM321 592q-132 0 -147 -127l-32 -268q-8 -66 23 -100t96 -34q131 0 147 128l33 267q17 134 -120 134z" />
    <glyph glyph-name="uni041F" unicode="&#x41f;" horiz-adv-x="580" 
d="M469 0h-85l70 578h-260l-70 -578h-85l80 655h430z" />
    <glyph glyph-name="uni0420" unicode="&#x420;" horiz-adv-x="510" 
d="M282 667q117 0 174 -54t43 -148l-2 -14q-13 -89 -73.5 -136.5t-164.5 -47.5q-34 0 -102 13l-33 -280h-85l81 662q87 5 162 5zM279 596q-41 0 -83 -2l-31 -247q54 -10 92 -10q69 0 106.5 29t48.5 90l2 11q11 60 -24 94.5t-111 34.5z" />
    <glyph glyph-name="uni0421" unicode="&#x421;" horiz-adv-x="476" 
d="M303 667q74 0 149 -24l-11 -80q-77 30 -140 30q-111 0 -125 -124l-33 -275q-8 -69 15.5 -98.5t82.5 -29.5q65 0 150 38l-8 -80q-74 -36 -155 -36q-195 0 -169 219l31 256q25 204 213 204z" />
    <glyph glyph-name="uni0422" unicode="&#x422;" horiz-adv-x="525" 
d="M74 655h465l-10 -77h-190l-70 -578h-85l70 578h-190z" />
    <glyph glyph-name="uni0423" unicode="&#x423;" horiz-adv-x="482" 
d="M64 0l127 225l-137 430h94q67 -231 93 -348q103 176 183 348h95l-370 -655h-85z" />
    <glyph glyph-name="uni0424" unicode="&#x424;" horiz-adv-x="767" 
d="M471 695l-8 -59q24 3 48 3q115 0 163 -59.5t31 -197.5l-15 -125q-16 -135 -72 -188.5t-172 -53.5q-18 0 -58 4l-7 -61h-85l7 60q-16 -2 -47 -2q-114 0 -158.5 59.5t-28.5 197.5l15 125q16 133 70 187t169 54q17 0 55 -4l8 60h85zM315 569q-70 0 -101.5 -33.5
t-43.5 -126.5l-18 -147q-12 -95 16 -135.5t97 -40.5q15 0 47 2l58 477q-25 4 -55 4zM503 568q-25 0 -48 -3l-58 -476q29 -3 58 -3q73 0 104 32.5t44 127.5l19 147q12 95 -17.5 135t-101.5 40z" />
    <glyph glyph-name="uni0425" unicode="&#x425;" horiz-adv-x="519" 
d="M319 335l151 -335h-100q-50 130 -114 268l-180 -268h-99l233 341l-141 314h96l105 -250q98 135 169 250h100z" />
    <glyph glyph-name="uni0426" unicode="&#x426;" horiz-adv-x="580" 
d="M477 77h60l-25 -207h-85l17 130h-405l80 655h85l-72 -578h260l72 578h85z" />
    <glyph glyph-name="uni0427" unicode="&#x427;" horiz-adv-x="566" 
d="M455 0h-85l30 248q-77 -20 -127 -20q-104 0 -154 54t-37 157l27 216h85l-27 -218q-17 -138 124 -138q61 0 118 19l41 337h85z" />
    <glyph glyph-name="uni0428" unicode="&#x428;" horiz-adv-x="755" 
d="M644 0h-605l80 655h85l-72 -578h175l72 578h85l-72 -578h175l72 578h85z" />
    <glyph glyph-name="uni0429" unicode="&#x429;" horiz-adv-x="755" 
d="M652 77h60l-25 -207h-85l17 130h-580l80 655h85l-72 -578h175l72 578h85l-72 -578h175l72 578h85z" />
    <glyph glyph-name="uni042A" unicode="&#x42a;" horiz-adv-x="645" 
d="M329 655l-34 -277q72 10 104 10q103 0 156.5 -56.5t40.5 -144.5l-3 -20q-27 -179 -248 -179q-73 0 -183 12l72 575h-180l11 80h264zM376 317q-36 0 -90 -8l-29 -242q51 -9 90 -9q75 0 113 29.5t48 90.5l2 12q10 61 -24.5 94t-109.5 33z" />
    <glyph glyph-name="uni042B" unicode="&#x42b;" horiz-adv-x="716" 
d="M206 655l-34 -277q72 10 104 10q103 0 156.5 -56.5t40.5 -144.5l-3 -20q-27 -179 -248 -179q-73 0 -183 12l82 655h85zM605 0h-85l80 655h85zM253 317q-36 0 -90 -8l-29 -242q51 -9 90 -9q74 0 112.5 29.5t48.5 90.5l2 12q10 61 -24.5 94t-109.5 33z" />
    <glyph glyph-name="uni042C" unicode="&#x42c;" horiz-adv-x="522" 
d="M206 655l-34 -277q72 10 104 10q103 0 156.5 -56.5t40.5 -144.5l-3 -20q-27 -179 -248 -179q-73 0 -183 12l82 655h85zM253 317q-36 0 -90 -8l-29 -242q51 -9 90 -9q74 0 112.5 29.5t48.5 90.5l2 12q10 61 -24.5 94t-109.5 33z" />
    <glyph glyph-name="uni042D" unicode="&#x42d;" horiz-adv-x="487" 
d="M249 667q213 0 186 -214l-36 -280q-13 -98 -59 -141.5t-138 -43.5q-85 0 -171 42l12 75q82 -44 162 -44q96 0 109 108l15 126h-237l10 76h236l12 100q8 66 -17.5 95t-87.5 29q-68 0 -145 -30l8 80q76 22 141 22z" />
    <glyph glyph-name="uni042E" unicode="&#x42e;" horiz-adv-x="771" 
d="M535 667q99 0 148.5 -58t36.5 -162l-31 -249q-25 -210 -220 -210q-103 0 -150.5 58t-34.5 162l11 90h-136l-35 -298h-85l80 655h85l-35 -281h135l11 83q14 108 67 159t153 51zM531 594q-115 0 -131 -129l-32 -268q-8 -65 19.5 -99.5t85.5 -34.5t90 31t40 97l33 267
q8 67 -20 101.5t-85 34.5z" />
    <glyph glyph-name="uni042F" unicode="&#x42f;" horiz-adv-x="534" 
d="M317 667q76 0 186 -10l-80 -657h-85l33 285q-48 -8 -91 -8q-15 0 -41 2q-87 -144 -153 -279h-97l175 301q-52 25 -76.5 71t-18.5 106l1 10q8 83 69.5 131t177.5 48zM307 596q-134 0 -152 -109l-1 -6q-10 -59 26.5 -97t108.5 -38q43 0 91 10l30 234q-56 6 -103 6z" />
    <glyph glyph-name="uni0430" unicode="&#x430;" horiz-adv-x="453" 
d="M404 0h-85l-18 113h-192q-34 -85 -47 -113h-85l226 511h99zM243 441l-106 -259h153q-31 176 -47 259z" />
    <glyph glyph-name="uni0431" unicode="&#x431;" horiz-adv-x="456" 
d="M374 438h-200l-17 -134q58 7 87 7q83 0 128 -48t32 -125l-2 -11q-13 -72 -60.5 -105.5t-143.5 -33.5q-84 0 -159 9l62 514h282zM222 241q-39 0 -74 -5l-21 -175q43 -5 73 -5q58 0 86.5 19t36.5 61l1 5q9 45 -18 72.5t-84 27.5z" />
    <glyph glyph-name="uni0432" unicode="&#x432;" horiz-adv-x="462" 
d="M246 523q86 0 129.5 -35.5t38.5 -95.5l-1 -11q-8 -87 -103 -115q49 -11 76 -46.5t22 -83.5l-1 -9q-7 -63 -59 -101t-148 -38q-79 0 -163 6l65 523q9 0 38 2t58 3t48 1zM236 454q-19 0 -61 -3l-20 -159h79q44 0 69.5 21.5t30.5 57.5l1 8q5 37 -19.5 56t-79.5 19zM147 228
l-21 -167q53 -4 80 -4q108 0 120 75l2 12q6 38 -19.5 61t-77.5 23h-84z" />
    <glyph glyph-name="uni0433" unicode="&#x433;" horiz-adv-x="387" 
d="M374 438h-201l-53 -438h-81l62 511h282z" />
    <glyph glyph-name="uni0434" unicode="&#x434;" horiz-adv-x="502" 
d="M248 523q99 0 150 -61.5t38 -167.5l-13 -104q-26 -202 -232 -202q-67 0 -154 7l65 522q117 6 146 6zM245 454q-30 0 -70 -2l-49 -391q42 -3 75 -3q125 0 141 133l14 111q9 76 -20.5 114t-90.5 38z" />
    <glyph glyph-name="uni0435" unicode="&#x435;" horiz-adv-x="433" 
d="M101 511h293l-9 -73h-212l-18 -142h195l-8 -72h-195l-19 -151h212l-8 -73h-293z" />
    <glyph glyph-name="uni0436" unicode="&#x436;" horiz-adv-x="679" 
d="M512 271l106 -271h-91q-42 117 -90 230h-65l-28 -230h-81l28 230h-64q-57 -99 -145 -230h-93l171 270l-95 241h83q48 -112 83 -210h68l26 210h81l-26 -210h64q46 68 134 210h88z" />
    <glyph glyph-name="uni0437" unicode="&#x437;" horiz-adv-x="418" 
d="M188 523q93 0 140 -41.5t35 -103.5l-2 -11q-6 -36 -32.5 -64t-69.5 -40q43 -13 67 -49t19 -80l-1 -10q-14 -136 -184 -136q-69 0 -147 28l10 72q73 -32 137 -32q94 0 104 75l1 7q7 46 -18 68.5t-85 22.5h-67l7 68h72q92 0 105 72l2 11q6 33 -19 54t-81 21q-52 0 -114 -16
l6 71q72 13 115 13z" />
    <glyph glyph-name="uni0438" unicode="&#x438;" horiz-adv-x="512" 
d="M401 0h-82l44 367l-245 -367h-79l62 511h81l-46 -371q136 193 248 371h79z" />
    <glyph glyph-name="uni0439" unicode="&#x439;" horiz-adv-x="512" 
d="M401 0h-82l44 367l-245 -367h-79l62 511h81l-46 -371q136 193 248 371h79zM418 678l-10 -75q-57 -43 -124 -43q-30 0 -58.5 11t-41.5 21l-14 11l10 75q6 -6 16.5 -14t40 -22t56.5 -14t58 12.5t49 25.5z" />
    <glyph glyph-name="uni043A" unicode="&#x43a;" horiz-adv-x="467" 
d="M268 263l158 -263h-94q-57 108 -127 225h-58l-27 -225h-81l62 511h81l-26 -217h50q78 93 169 217h92z" />
    <glyph glyph-name="uni043B" unicode="&#x43b;" horiz-adv-x="479" 
d="M270 523q75 0 159 -22l-61 -501h-82l54 445q-37 10 -75 10q-95 0 -109 -100l-29 -219q-10 -78 -40.5 -113t-84.5 -35q-24 0 -45 7l7 68q22 -5 36 -5q35 0 45 72l30 219q23 174 195 174z" />
    <glyph glyph-name="uni043C" unicode="&#x43c;" horiz-adv-x="610" 
d="M504 0h-79l43 385l-149 -330h-91l-65 330l-50 -385h-79l66 511h111q38 -179 68 -383q86 184 164 383h119z" />
    <glyph glyph-name="uni043D" unicode="&#x43d;" horiz-adv-x="512" 
d="M401 0h-81l27 227h-200l-27 -227h-81l62 511h81l-26 -212h200l26 212h81z" />
    <glyph glyph-name="uni043E" unicode="&#x43e;" horiz-adv-x="506" 
d="M269 523q90 0 136 -51.5t35 -137.5l-23 -184q-10 -83 -56.5 -122.5t-133.5 -39.5q-92 0 -138 52t-35 136l24 183q11 84 57.5 124t133.5 40zM268 452q-97 0 -110 -98l-24 -191q-6 -49 19 -76.5t74 -27.5q98 0 110 93l24 195q6 50 -19 77.5t-74 27.5z" />
    <glyph glyph-name="uni043F" unicode="&#x43f;" horiz-adv-x="512" 
d="M401 0h-82l53 438h-199l-53 -438h-81l62 511h362z" />
    <glyph glyph-name="uni0440" unicode="&#x440;" horiz-adv-x="446" 
d="M243 523q92 0 141.5 -45t39.5 -114l-2 -14q-11 -74 -59 -113.5t-130 -39.5q-42 0 -89 10l-24 -207h-81l63 517q99 6 141 6zM235 455q-18 0 -60 -3l-22 -182q38 -6 71 -6q105 0 117 95l1 8q5 43 -21.5 65.5t-85.5 22.5z" />
    <glyph glyph-name="uni0441" unicode="&#x441;" horiz-adv-x="422" 
d="M257 523q56 0 126 -24l-10 -74q-67 27 -118 27q-40 0 -65.5 -25t-31.5 -74l-24 -199q-6 -50 15 -72t74 -22q45 0 116 30l-8 -75q-64 -27 -123 -27q-85 0 -125 46.5t-29 135.5l23 179q12 90 56 132t124 42z" />
    <glyph glyph-name="uni0442" unicode="&#x442;" horiz-adv-x="450" 
d="M437 438h-154l-53 -438h-81l53 438h-155l9 73h390z" />
    <glyph glyph-name="uni0443" unicode="&#x443;" horiz-adv-x="426" 
d="M137 0h-82l101 173l-115 338h88q44 -132 77 -253q69 106 143 253h93z" />
    <glyph glyph-name="uni0444" unicode="&#x444;" horiz-adv-x="656" 
d="M398 548l-6 -47q20 4 41 4q93 0 131.5 -50.5t24.5 -161.5l-13 -106q-22 -180 -191 -180q-21 0 -54 7l-6 -50h-81l6 49q-27 -6 -49 -6q-82 0 -117 50t-22 160l12 99q13 104 57.5 146.5t135.5 42.5q8 0 44 -4l6 47h81zM269 437q-54 0 -80 -25t-33 -88l-15 -122
q-9 -72 12 -100.5t78 -28.5q18 0 27 2l45 360q-24 2 -34 2zM416 437l-33 -3l-44 -358q15 -3 32 -3q61 0 88.5 26t35.5 95l15 122q8 67 -14 94t-80 27z" />
    <glyph glyph-name="uni0445" unicode="&#x445;" horiz-adv-x="434" 
d="M260 262l125 -262h-87q-48 115 -91 202l-139 -202h-91l188 262l-117 249h83l85 -191q77 104 132 191h91z" />
    <glyph glyph-name="uni0446" unicode="&#x446;" horiz-adv-x="517" 
d="M409 73h50l-25 -203h-80l17 130h-332l62 511h81l-54 -438h199l54 438h82z" />
    <glyph glyph-name="uni0447" unicode="&#x447;" horiz-adv-x="493" 
d="M382 0h-81l22 185q-52 -13 -94 -13q-86 0 -129.5 45t-33.5 125l20 169h81l-20 -171q-12 -101 93 -101q51 0 91 13l32 259h81z" />
    <glyph glyph-name="uni0448" unicode="&#x448;" horiz-adv-x="657" 
d="M546 0h-507l62 511h81l-54 -438h132l54 438h81l-54 -438h132l54 438h81z" />
    <glyph glyph-name="uni0449" unicode="&#x449;" horiz-adv-x="662" 
d="M554 73h51l-25 -203h-80l17 130h-478l62 511h81l-54 -438h132l54 438h81l-54 -438h132l54 438h81z" />
    <glyph glyph-name="uni044A" unicode="&#x44a;" horiz-adv-x="551" 
d="M277 511l-26 -207q58 7 87 7q83 0 128 -48t32 -125l-2 -11q-13 -71 -60.5 -105t-143.5 -34q-84 0 -159 9l54 439h-150l9 75h231zM316 241q-39 0 -74 -5l-21 -175q43 -5 73 -5q59 0 87.5 19t35.5 61l1 6q8 45 -18.5 72t-83.5 27z" />
    <glyph glyph-name="uni044B" unicode="&#x44b;" horiz-adv-x="631" 
d="M183 511l-26 -207q58 7 87 7q83 0 128 -48t32 -125l-2 -11q-13 -71 -60.5 -105t-143.5 -34q-84 0 -159 9l63 514h81zM520 0h-81l62 511h81zM222 241q-39 0 -74 -5l-21 -175q43 -5 73 -5q59 0 87.5 19t35.5 61l1 6q8 45 -18.5 72t-83.5 27z" />
    <glyph glyph-name="uni044C" unicode="&#x44c;" horiz-adv-x="457" 
d="M183 511l-26 -207q58 7 87 7q83 0 128 -48t32 -125l-2 -11q-13 -71 -60.5 -105t-143.5 -34q-84 0 -159 9l63 514h81zM222 241q-39 0 -74 -5l-21 -175q43 -5 73 -5q59 0 87.5 19t35.5 61l1 6q8 45 -18.5 72t-83.5 27z" />
    <glyph glyph-name="uni044D" unicode="&#x44d;" horiz-adv-x="435" 
d="M214 523q176 0 154 -180l-26 -205q-11 -81 -51 -115.5t-125 -34.5q-70 0 -138 28l10 68q70 -29 131 -29q81 0 92 86l10 84h-191l8 69h192l7 52q14 109 -84 109q-49 0 -118 -21l6 71q76 18 123 18z" />
    <glyph glyph-name="uni044E" unicode="&#x44e;" horiz-adv-x="671" 
d="M446 523q83 0 126 -50t33 -132l-23 -186q-10 -86 -55 -126.5t-126 -40.5q-85 0 -128 50.5t-33 135.5l6 52h-99l-27 -226h-81l62 511h81l-27 -213h100l8 60q10 83 54 124t129 41zM443 455q-85 0 -97 -87l-24 -207q-6 -50 16 -77.5t64 -27.5q87 0 98 89l25 209
q6 47 -17.5 74t-64.5 27z" />
    <glyph glyph-name="uni044F" unicode="&#x44f;" horiz-adv-x="475" 
d="M260 523q51 -1 166 -11l-62 -512h-80l26 217q-37 -5 -96 -5q-80 -118 -130 -212h-95l145 229q-47 20 -69 59.5t-14 86.5l2 13q21 138 207 135zM254 458q-108 0 -119 -76l-2 -13q-6 -40 22 -66.5t83 -26.5q32 0 80 6l22 169q-55 7 -86 7z" />
    <glyph glyph-name="uni0451" unicode="&#x451;" horiz-adv-x="433" 
d="M101 511h293l-9 -73h-212l-18 -142h195l-8 -72h-195l-19 -151h212l-8 -73h-293zM222 650l-3 -29q-6 -44 -61 -44q-25 0 -37.5 11.5t-10.5 32.5l3 29q5 45 59 45q27 0 40 -11.5t10 -33.5zM394 650l-3 -29q-6 -44 -61 -44q-26 0 -38 11.5t-10 32.5l3 29q5 45 59 45
q27 0 40 -11.5t10 -33.5z" />
    <glyph glyph-name="uni0452" unicode="&#x452;" horiz-adv-x="589" 
d="M437 438h-154l-15 -120q60 20 111 20q81 0 120 -46.5t26 -138.5l-5 -35q-10 -70 -38.5 -100t-87.5 -30q-37 0 -77 11l7 68q30 -10 61 -10q26 0 38 12t16 44l7 48q8 54 -15 81.5t-70 27.5q-48 0 -101 -20l-30 -250h-81l53 438h-155l9 73h390z" />
    <glyph glyph-name="uni0453" unicode="&#x453;" horiz-adv-x="387" 
d="M374 438h-201l-53 -438h-81l62 511h282zM200 564l74 119h91l-92 -119h-73z" />
    <glyph glyph-name="uni0454" unicode="&#x454;" horiz-adv-x="427" 
d="M257 523q56 0 126 -24l-10 -74q-67 27 -118 27q-40 0 -65.5 -25t-31.5 -74l-7 -59h183l-8 -69h-184l-8 -71q-6 -50 15 -72t74 -22q45 0 116 30l-8 -75q-64 -27 -123 -27q-85 0 -125 46.5t-29 135.5l23 179q12 90 56 132t124 42z" />
    <glyph glyph-name="uni0455" unicode="&#x455;" horiz-adv-x="395" 
d="M222 523q56 0 124 -19l-10 -75q-29 10 -79 21q-24 2 -38 2q-41 0 -60.5 -14t-24.5 -45l-1 -7q-9 -58 53 -80l59 -23q119 -47 99 -156l-2 -11q-23 -128 -167 -128q-70 0 -152 34l11 79q57 -26 102 -37q22 -3 40 -3q76 0 87 66l1 6q9 58 -50 80l-59 22q-123 47 -104 158
l2 12q19 118 169 118z" />
    <glyph glyph-name="uni0456" unicode="&#x456;" horiz-adv-x="231" 
d="M101 511h81l-62 -511h-81z" />
    <glyph glyph-name="uni0457" unicode="&#x457;" horiz-adv-x="231" 
d="M101 511h81l-62 -511h-81zM119 650l-3 -29q-6 -44 -61 -44q-25 0 -37.5 11.5t-10.5 32.5l3 29q4 45 59 45q27 0 40 -11.5t10 -33.5zM291 650l-3 -29q-6 -44 -61 -44q-26 0 -38 11.5t-10 32.5l3 29q4 45 59 45q27 0 40 -11.5t10 -33.5z" />
    <glyph glyph-name="uni0458" unicode="&#x458;" horiz-adv-x="260" 
d="M211 511l-49 -393q-9 -70 -39.5 -100t-89.5 -30q-38 0 -75 11l7 68q30 -10 60 -10q27 0 39.5 12t16.5 44l49 398h81z" />
    <glyph glyph-name="uni0459" unicode="&#x459;" horiz-adv-x="705" 
d="M270 523q75 0 159 -22l-24 -197q58 7 87 7q83 0 128 -48t32 -125l-2 -11q-13 -71 -60.5 -105t-143.5 -34q-84 0 -159 9l53 448q-37 10 -75 10q-46 0 -74.5 -26t-34.5 -74l-29 -219q-10 -76 -40.5 -112t-84.5 -36q-24 0 -45 7l7 68q22 -5 36 -5q35 0 45 72l30 219
q12 88 60 131t135 43zM470 241q-38 0 -73 -5l-22 -175q42 -5 73 -5q59 0 87.5 19t35.5 61l1 6q8 45 -18.5 72t-83.5 27z" />
    <glyph glyph-name="uni045A" unicode="&#x45a;" horiz-adv-x="738" 
d="M464 511l-26 -207q58 7 87 7q83 0 128 -48t32 -125l-2 -11q-13 -71 -60.5 -105t-143.5 -34q-83 0 -158 9l27 230h-201l-27 -227h-81l62 511h81l-26 -212h201l26 212h81zM503 241q-39 0 -74 -5l-21 -175q42 -5 73 -5q59 0 87.5 19t35.5 61l1 6q8 45 -18.5 72t-83.5 27z
" />
    <glyph glyph-name="uni045B" unicode="&#x45b;" horiz-adv-x="588" 
d="M437 438h-154l-15 -120q60 20 111 20q80 0 118.5 -46.5t27.5 -138.5l-18 -153h-81l20 161q13 109 -85 109q-48 0 -101 -20l-30 -250h-81l53 438h-155l9 73h390z" />
    <glyph glyph-name="uni045C" unicode="&#x45c;" horiz-adv-x="467" 
d="M268 263l158 -263h-94q-57 108 -127 225h-58l-27 -225h-81l62 511h81l-26 -217h50q78 93 169 217h92zM228 564l74 119h91l-92 -119h-73z" />
    <glyph glyph-name="uni045E" unicode="&#x45e;" horiz-adv-x="426" 
d="M137 0h-82l101 173l-115 338h88q44 -132 77 -253q69 106 143 253h93zM367 678l-10 -75q-57 -43 -124 -43q-30 0 -58.5 11t-42.5 21l-13 11l10 75q6 -6 16.5 -14t40 -22t56.5 -14t58 12.5t49 25.5z" />
    <glyph glyph-name="uni045F" unicode="&#x45f;" horiz-adv-x="512" 
d="M401 0h-141l-17 -130h-80l17 130h-141l62 511h81l-54 -438h199l54 438h82z" />
    <glyph glyph-name="uni0462" unicode="&#x462;" horiz-adv-x="665" 
d="M529 578h-190l-24 -200q72 10 104 10q103 0 156.5 -56.5t40.5 -144.5l-3 -20q-27 -179 -248 -179q-73 0 -183 12l72 578h-190l10 77h465zM396 317q-36 0 -90 -8l-29 -242q51 -9 90 -9q75 0 113 29.5t48 90.5l2 12q10 61 -24.5 94t-109.5 33z" />
    <glyph glyph-name="uni0463" unicode="&#x463;" horiz-adv-x="567" 
d="M437 438h-153l-17 -134q58 7 87 7q83 0 128 -48t32 -125l-2 -11q-13 -71 -60.5 -105t-143.5 -34q-84 0 -159 9l53 441h-155l9 73h390zM332 241q-39 0 -74 -5l-21 -175q43 -5 73 -5q58 0 86.5 19t36.5 61l1 5q9 45 -18 72.5t-84 27.5z" />
    <glyph glyph-name="uni0472" unicode="&#x472;" horiz-adv-x="576" 
d="M327 667q106 0 158.5 -59t39.5 -161l-31 -249q-26 -210 -238 -210q-109 0 -160 58t-38 162l31 249q14 108 71 159t167 51zM321 592q-132 0 -147 -127l-12 -94h268l11 87q16 134 -120 134zM153 295l-11 -98q-7 -66 23.5 -100t95.5 -34q131 0 147 128l13 104h-268z" />
    <glyph glyph-name="uni0473" unicode="&#x473;" horiz-adv-x="506" 
d="M269 523q90 0 136 -51.5t35 -137.5l-23 -184q-10 -83 -56.5 -122.5t-133.5 -39.5q-92 0 -138 52t-35 136l24 183q11 84 57.5 124t133.5 40zM268 452q-97 0 -110 -98l-8 -60h204l7 53q6 50 -19 77.5t-74 27.5zM142 225l-8 -62q-6 -49 19 -76.5t74 -27.5q98 0 110 93l9 73
h-204z" />
    <glyph glyph-name="uni0474" unicode="&#x474;" 
d="M565 667q35 0 64 -9l-9 -69q-30 7 -52 7t-36.5 -15t-35.5 -65l-213 -516h-112l-114 655h86q46 -252 89 -573q98 215 176 434q34 93 64.5 122t92.5 29z" />
    <glyph glyph-name="uni0475" unicode="&#x475;" horiz-adv-x="463" 
d="M464 523q28 0 55 -9l-9 -67q-26 8 -44 8t-29.5 -11t-27.5 -48l-170 -396h-102l-98 511h84q47 -247 71 -438q70 154 131 321q27 76 57 102.5t82 26.5z" />
    <glyph glyph-name="uni0490" unicode="&#x490;" horiz-adv-x="440" 
d="M449 578h-255l-70 -578h-85l80 655h255l16 130h85z" />
    <glyph glyph-name="uni0491" unicode="&#x491;" horiz-adv-x="387" 
d="M374 438h-201l-53 -438h-81l62 511h202l16 130h80z" />
    <glyph glyph-name="uni0492" unicode="&#x492;" horiz-adv-x="446" 
d="M455 578h-255l-25 -207h130l-10 -76h-130l-35 -295h-85l35 295h-70l10 76h70l35 284h340z" />
    <glyph glyph-name="uni0493" unicode="&#x493;" horiz-adv-x="392" 
d="M379 438h-201l-17 -142h102l-8 -69h-102l-28 -227h-81l28 227h-61l8 69h61l26 215h282z" />
    <glyph glyph-name="uni0496" unicode="&#x496;" horiz-adv-x="797" 
d="M607 337l99 -260h45l-25 -207h-85l17 130h-25q-50 167 -103 295h-89l-36 -295h-85l36 295h-91l-181 -295h-95l213 339l-124 316h89q50 -122 105 -284h93l35 284h85l-35 -284h87q110 169 176 284h94z" />
    <glyph glyph-name="uni0497" unicode="&#x497;" horiz-adv-x="679" 
d="M512 271l77 -198h45l-25 -203h-80l17 130h-19q-42 117 -90 230h-65l-28 -230h-81l28 230h-64q-57 -99 -145 -230h-93l171 270l-95 241h83q48 -112 83 -210h68l26 210h81l-26 -210h64q46 68 134 210h88z" />
    <glyph glyph-name="uni0498" unicode="&#x498;" horiz-adv-x="473" 
d="M231 667q109 0 159.5 -46t39.5 -128l-3 -22q-6 -45 -38.5 -82.5t-81.5 -51.5q53 -16 80 -58.5t22 -103.5l-2 -22q-6 -70 -59 -115.5t-144 -49.5l-12 -29h2q28 0 44 -20t12 -51l-1 -9q-9 -76 -95 -76q-28 0 -59 9l7 55q23 -10 45 -10q31 0 35 23l1 7q2 16 -6.5 24.5
t-27.5 8.5h-26l3 20l23 51q-70 10 -137 39l12 78q97 -44 172 -44q58 0 88 25t38 78l2 19q6 55 -27 84t-104 29h-79l9 70h79q62 0 97.5 29t42.5 80l2 15q6 47 -24 73.5t-96 26.5q-70 0 -142 -24l7 78q92 20 142 20z" />
    <glyph glyph-name="uni0499" unicode="&#x499;" horiz-adv-x="418" 
d="M188 523q93 0 140 -41.5t35 -103.5l-2 -11q-6 -36 -32.5 -64t-69.5 -40q43 -13 67 -49t19 -80l-1 -10q-7 -66 -48.5 -100t-125.5 -36l-12 -29h2q28 0 44 -20t12 -51l-1 -9q-9 -76 -95 -76q-28 0 -59 9l7 55q23 -10 45 -10q31 0 35 23l1 7q2 16 -6.5 24.5t-27.5 8.5h-26
l3 20l24 52q-60 9 -103 24l10 72q73 -32 137 -32q94 0 104 75l1 7q7 46 -18 68.5t-85 22.5h-67l7 68h72q92 0 105 72l2 11q6 33 -19 54t-81 21q-52 0 -114 -16l6 71q72 13 115 13z" />
    <glyph glyph-name="uni049A" unicode="&#x49a;" horiz-adv-x="531" 
d="M304 339l144 -262h47l-25 -207h-85l17 130h-25q-74 179 -141 295h-76l-36 -295h-85l80 655h85l-35 -284h66q75 92 211 284h98z" />
    <glyph glyph-name="uni049B" unicode="&#x49b;" horiz-adv-x="477" 
d="M268 263l114 -190h56l-25 -203h-80l17 130h-19q-58 112 -126 225h-58l-27 -225h-81l62 511h81l-26 -217h50q61 73 169 217h92z" />
    <glyph glyph-name="uni049C" unicode="&#x49c;" horiz-adv-x="558" 
d="M331 339l186 -339h-103q-81 174 -151 295h-6l-24 -195h-65l24 195h-32l-36 -295h-85l80 655h85l-35 -284h32l16 129h65l-16 -124h1q71 88 206 279h98z" />
    <glyph glyph-name="uni049D" unicode="&#x49d;" horiz-adv-x="494" 
d="M311 266l140 -266h-98q-63 142 -107 223h-21l-17 -141h-55l17 141h-23l-27 -223h-81l62 511h81l-26 -215h23l13 101h55l-13 -101h12q68 84 155 215h93z" />
    <glyph glyph-name="uni04A0" unicode="&#x4a0;" horiz-adv-x="657" 
d="M430 339l186 -339h-103q-75 163 -151 295h-76l-36 -295h-85l70 575h-181l11 80h265l-35 -284h66q75 92 211 284h98z" />
    <glyph glyph-name="uni04A1" unicode="&#x4a1;" horiz-adv-x="562" 
d="M363 263l158 -263h-94q-57 108 -127 225h-58l-27 -225h-81l53 436h-150l9 75h231l-26 -217h50q61 73 169 217h92z" />
    <glyph glyph-name="uni04A2" unicode="&#x4a2;" horiz-adv-x="580" 
d="M477 77h60l-25 -207h-85l17 130h-60l36 300h-260l-36 -300h-85l80 655h85l-35 -279h260l35 279h85z" />
    <glyph glyph-name="uni04A3" unicode="&#x4a3;" horiz-adv-x="517" 
d="M409 73h50l-25 -203h-80l17 130h-52l27 227h-199l-27 -227h-81l62 511h81l-26 -212h199l26 212h82z" />
    <glyph glyph-name="uni04AA" unicode="&#x4aa;" horiz-adv-x="476" 
d="M303 667q74 0 149 -24l-11 -80q-77 30 -140 30q-111 0 -125 -124l-33 -275q-8 -69 15.5 -98.5t82.5 -29.5q65 0 150 38l-8 -80q-22 -12 -53 -20q-32 -13 -52.5 -38t-24.5 -53l-1 -10q-6 -37 37 -37q15 0 33 3l-8 -61q-23 -5 -49 -5q-49 0 -71 22t-17 59l2 13q6 51 56 91
h-7q-195 0 -169 219l31 256q25 204 213 204z" />
    <glyph glyph-name="uni04AB" unicode="&#x4ab;" horiz-adv-x="422" 
d="M257 523q56 0 126 -24l-10 -74q-67 27 -118 27q-40 0 -65.5 -25t-31.5 -74l-24 -199q-6 -50 15 -72t74 -22q45 0 116 30l-8 -75l-28 -11q-32 -12 -53 -37.5t-25 -53.5l-1 -10q-6 -37 37 -37q15 0 33 3l-8 -61q-22 -5 -49 -5q-49 0 -71 22t-17 59l2 13q6 51 56 91h-4
q-171 5 -149 182l23 179q12 90 56 132t124 42z" />
    <glyph glyph-name="uni04AE" unicode="&#x4ae;" horiz-adv-x="491" 
d="M279 225l-27 -225h-85l27 225l-137 430h93q55 -184 94 -340q91 156 179 340h99z" />
    <glyph glyph-name="uni04AF" unicode="&#x4af;" horiz-adv-x="425" 
d="M238 174l-20 -174h-82l20 174l-117 337h89q49 -152 77 -263q69 119 141 263h93z" />
    <glyph glyph-name="uni04B0" unicode="&#x4b0;" horiz-adv-x="491" 
d="M293 251h89l-10 -76h-99l-21 -175h-85l21 175h-101l10 76h88l-128 404h93q55 -184 94 -340q91 156 179 340h99z" />
    <glyph glyph-name="uni04B1" unicode="&#x4b1;" horiz-adv-x="425" 
d="M256 205h70l-9 -73h-84l-15 -132h-82l15 132h-78l9 73h63l-106 306h89q49 -152 77 -263q69 119 141 263h93z" />
    <glyph glyph-name="uni04B2" unicode="&#x4b2;" horiz-adv-x="519" 
d="M319 335l116 -258h62l-25 -207h-85l17 130h-34q-50 130 -114 268l-180 -268h-99l233 341l-141 314h96l105 -250q98 135 169 250h100z" />
    <glyph glyph-name="uni04B3" unicode="&#x4b3;" horiz-adv-x="434" 
d="M260 262l90 -189h55l-25 -203h-80l17 130h-19q-48 115 -91 202l-139 -202h-91l188 262l-117 249h83q64 -141 85 -191q77 104 132 191h91z" />
    <glyph glyph-name="uni04B8" unicode="&#x4b8;" horiz-adv-x="566" 
d="M455 0h-85l30 248q-50 -14 -93 -18l-16 -130h-65l16 129q-89 8 -130.5 61.5t-29.5 148.5l27 216h85l-27 -218q-15 -115 84 -135l24 198h65l-25 -201q49 3 94 19l41 337h85z" />
    <glyph glyph-name="uni04B9" unicode="&#x4b9;" horiz-adv-x="493" 
d="M382 0h-81l22 185q-34 -9 -68 -12l-12 -99h-57l12 99q-71 8 -106 52.5t-26 116.5l20 169h81l-20 -171q-11 -83 59 -98l24 192h57l-24 -195q33 1 68 13l32 259h81z" />
    <glyph glyph-name="uni04BA" unicode="&#x4ba;" horiz-adv-x="544" 
d="M204 655l-31 -253q73 25 134 25q97 0 143 -57.5t33 -164.5l-25 -205h-85l26 215q18 141 -109 141q-61 0 -126 -25l-40 -331h-85l80 655h85z" />
    <glyph glyph-name="uni04BB" unicode="&#x4bb;" horiz-adv-x="478" 
d="M182 511l-24 -193q60 20 111 20q80 0 118.5 -46.5t27.5 -138.5l-18 -153h-81l20 161q13 109 -85 109q-48 0 -101 -20l-30 -250h-81l62 511h81z" />
    <glyph glyph-name="uni04C0" unicode="&#x4c0;" horiz-adv-x="235" 
d="M119 655h85l-80 -655h-85z" />
    <glyph glyph-name="uni04CB" unicode="&#x4cb;" horiz-adv-x="566" 
d="M464 77h60l-25 -207h-85l17 130h-61l30 248q-77 -20 -127 -20q-104 0 -154 54t-37 157l27 216h85l-27 -218q-17 -138 124 -138q61 0 118 19l41 337h85z" />
    <glyph glyph-name="uni04CC" unicode="&#x4cc;" horiz-adv-x="498" 
d="M391 73h50l-25 -203h-80l17 130h-52l22 185q-52 -13 -94 -13q-86 0 -129.5 45t-33.5 125l20 169h81l-20 -171q-12 -101 93 -101q51 0 91 13l32 259h81z" />
    <glyph glyph-name="uni04CF" unicode="&#x4cf;" horiz-adv-x="231" 
d="M101 511h81l-62 -511h-81z" />
    <glyph glyph-name="uni04D8" unicode="&#x4d8;" horiz-adv-x="566" 
d="M303 667q128 0 176.5 -53t34.5 -170l-30 -241q-26 -215 -234 -215q-106 0 -155.5 55.5t-36.5 159.5l21 168h341l10 84q10 80 -20 110.5t-116 30.5q-69 0 -153 -20l7 74q97 17 155 17zM154 295l-12 -101q-8 -64 21 -97.5t90 -33.5q128 0 145 131l12 101h-256z" />
    <glyph glyph-name="uni04D9" unicode="&#x4d9;" horiz-adv-x="500" 
d="M250 523q111 0 153 -44.5t30 -135.5l-25 -193q-11 -83 -55 -122.5t-133 -39.5q-91 0 -134.5 51.5t-32.5 136.5l15 120h277l6 50q7 62 -17.5 85.5t-94.5 23.5q-51 0 -120 -21l6 71q74 18 125 18zM140 223l-7 -60q-6 -52 17.5 -78t69.5 -26q96 0 108 93l8 71h-196z" />
    <glyph glyph-name="uni04E2" unicode="&#x4e2;" horiz-adv-x="580" 
d="M469 0h-85l61 496l-321 -496h-85l80 655h85l-61 -495q170 245 316 495h90zM237 785h235l-10 -75h-235z" />
    <glyph glyph-name="uni04E3" unicode="&#x4e3;" horiz-adv-x="512" 
d="M401 0h-82l44 367l-245 -367h-79l62 511h81l-46 -371q136 193 248 371h79zM196 640h202l-7 -70h-202z" />
    <glyph glyph-name="uni04E8" unicode="&#x4e8;" horiz-adv-x="576" 
d="M327 667q106 0 158.5 -59t39.5 -161l-31 -249q-26 -210 -238 -210q-109 0 -160 58t-38 162l31 249q14 108 71 159t167 51zM321 592q-132 0 -147 -127l-12 -94h268l11 87q16 134 -120 134zM153 295l-11 -98q-7 -66 23.5 -100t95.5 -34q131 0 147 128l13 104h-268z" />
    <glyph glyph-name="uni04E9" unicode="&#x4e9;" horiz-adv-x="506" 
d="M269 523q90 0 136 -51.5t35 -137.5l-23 -184q-10 -83 -56.5 -122.5t-133.5 -39.5q-92 0 -138 52t-35 136l24 183q11 84 57.5 124t133.5 40zM268 452q-97 0 -110 -98l-8 -60h204l7 53q6 50 -19 77.5t-74 27.5zM142 225l-8 -62q-6 -49 19 -76.5t74 -27.5q98 0 110 93l9 73
h-204z" />
    <glyph glyph-name="uni04EE" unicode="&#x4ee;" horiz-adv-x="482" 
d="M64 0l127 225l-137 430h94q67 -231 93 -348q103 176 183 348h95l-370 -655h-85zM182 785h235l-10 -75h-235z" />
    <glyph glyph-name="uni04EF" unicode="&#x4ef;" horiz-adv-x="426" 
d="M137 0h-82l101 173l-115 338h88q44 -132 77 -253q69 106 143 253h93zM145 640h202l-7 -70h-202z" />
    <glyph glyph-name="Wgrave" unicode="&#x1e80;" horiz-adv-x="848" 
d="M638 0h-114l-68 558l-203 -558h-114l-70 655h87q33 -278 51 -562q104 262 200 562h114q44 -305 66 -562q94 250 187 562h93zM451 829l54 -119h-70l-73 119h89z" />
    <glyph glyph-name="wgrave" unicode="&#x1e81;" horiz-adv-x="714" 
d="M532 0h-105l-55 426l-156 -426h-105l-60 511h84q30 -265 39 -427q79 205 156 427h104q30 -221 50 -426q78 215 144 426h87zM339 683l78 -119h-73l-96 119h91z" />
    <glyph glyph-name="Wacute" unicode="&#x1e82;" horiz-adv-x="848" 
d="M638 0h-114l-68 558l-203 -558h-114l-70 655h87q33 -278 51 -562q104 262 200 562h114q44 -305 66 -562q94 250 187 562h93zM432 710l78 119h89l-97 -119h-70z" />
    <glyph glyph-name="wacute" unicode="&#x1e83;" horiz-adv-x="714" 
d="M532 0h-105l-55 426l-156 -426h-105l-60 511h84q30 -265 39 -427q79 205 156 427h104q30 -221 50 -426q78 215 144 426h87zM347 564l74 119h91l-92 -119h-73z" />
    <glyph glyph-name="Wdieresis" unicode="&#x1e84;" horiz-adv-x="848" 
d="M638 0h-114l-68 558l-203 -558h-114l-70 655h87q33 -278 51 -562q104 262 200 562h114q44 -305 66 -562q94 250 187 562h93zM443 781l-4 -29q-3 -42 -54 -42q-26 0 -42 13t-13 34l4 28q6 43 55 43q57 0 54 -47zM615 781l-4 -29q-3 -42 -54 -42q-27 0 -42.5 13t-12.5 34
l4 28q6 43 55 43q27 0 41 -12.5t13 -34.5z" />
    <glyph glyph-name="wdieresis" unicode="&#x1e85;" horiz-adv-x="714" 
d="M532 0h-105l-55 426l-156 -426h-105l-60 511h84q30 -265 39 -427q79 205 156 427h104q30 -221 50 -426q78 215 144 426h87zM354 650l-3 -29q-6 -44 -61 -44q-25 0 -37.5 11.5t-10.5 32.5l3 29q5 45 59 45q27 0 40 -11.5t10 -33.5zM526 650l-3 -29q-6 -44 -61 -44
q-26 0 -38 11.5t-10 32.5l3 29q5 45 59 45q27 0 40 -11.5t10 -33.5z" />
    <glyph glyph-name="Ygrave" unicode="&#x1ef2;" horiz-adv-x="491" 
d="M279 225l-27 -225h-85l27 225l-137 430h93q55 -184 94 -340q91 156 179 340h99zM270 829l54 -119h-70l-73 119h89z" />
    <glyph glyph-name="ygrave" unicode="&#x1ef3;" horiz-adv-x="425" 
d="M238 174l-20 -174h-82l20 174l-117 337h89q49 -152 77 -263q69 119 141 263h93zM199 683l78 -119h-73l-96 119h91z" />
    <glyph glyph-name="uni2007" unicode="&#x2007;" horiz-adv-x="510" 
 />
    <glyph glyph-name="uni2008" unicode="&#x2008;" horiz-adv-x="223" 
 />
    <glyph glyph-name="uni200B" unicode="&#x200b;" horiz-adv-x="0" 
 />
    <glyph glyph-name="endash" unicode="&#x2013;" horiz-adv-x="610" 
d="M541 263h-480l10 65h480z" />
    <glyph glyph-name="emdash" unicode="&#x2014;" horiz-adv-x="710" 
d="M641 263h-580l10 65h580z" />
    <glyph glyph-name="afii00208" unicode="&#x2015;" horiz-adv-x="610" 
d="M541 263h-480l10 65h480z" />
    <glyph glyph-name="quoteleft" unicode="&#x2018;" horiz-adv-x="217" 
d="M210 695l-37 -99q33 -10 28 -48l-4 -27q-5 -39 -57 -39q-26 0 -39.5 13.5t-10.5 35.5l4 30q4 26 14 46l43 88h59z" />
    <glyph glyph-name="quoteright" unicode="&#x2019;" horiz-adv-x="217" 
d="M164 695q26 0 39.5 -13.5t10.5 -35.5l-4 -30q-4 -26 -14 -46l-43 -88h-59l37 99q-33 10 -28 48l4 27q5 39 57 39z" />
    <glyph glyph-name="quotesinglbase" unicode="&#x201a;" horiz-adv-x="217" 
d="M80 105q26 0 39.5 -13.5t10.5 -35.5l-4 -30q-4 -26 -14 -46l-43 -88h-59l37 99q-33 10 -28 48l4 27q5 39 57 39z" />
    <glyph glyph-name="quotedblleft" unicode="&#x201c;" horiz-adv-x="362" 
d="M210 695l-37 -99q33 -10 28 -48l-4 -27q-5 -39 -57 -39q-26 0 -39.5 13.5t-10.5 35.5l4 30q4 26 14 46l43 88h59zM352 695l-37 -99q33 -10 28 -48l-4 -27q-5 -39 -57 -39q-26 0 -39.5 13.5t-10.5 35.5l4 30q4 26 14 46l43 88h59z" />
    <glyph glyph-name="quotedblright" unicode="&#x201d;" horiz-adv-x="362" 
d="M165 695q26 0 39.5 -13.5t10.5 -35.5l-4 -30q-4 -26 -14 -46l-43 -88h-59l37 99q-33 10 -28 48l4 27q5 39 57 39zM307 695q26 0 39.5 -13.5t10.5 -35.5l-4 -30q-4 -26 -14 -46l-43 -88h-59l37 99q-33 10 -28 48l4 27q5 39 57 39z" />
    <glyph glyph-name="quotedblbase" unicode="&#x201e;" horiz-adv-x="362" 
d="M81 105q26 0 39.5 -13.5t10.5 -35.5l-4 -30q-4 -26 -14 -46l-43 -88h-59l37 99q-33 10 -28 48l4 27q5 39 57 39zM223 105q26 0 39.5 -13.5t10.5 -35.5l-4 -30q-4 -26 -14 -46l-43 -88h-59l37 99q-33 10 -28 48l4 27q5 39 57 39z" />
    <glyph glyph-name="dagger" unicode="&#x2020;" horiz-adv-x="419" 
d="M280 488h152l-11 -80h-152l-57 -408h-85l57 408h-152l11 80h152l24 167h85z" />
    <glyph glyph-name="daggerdbl" unicode="&#x2021;" horiz-adv-x="439" 
d="M290 488h152l-11 -80h-152l-20 -140h152l-11 -80h-152l-26 -188h-85l26 188h-152l11 80h152l20 140h-152l11 80h152l24 167h85z" />
    <glyph glyph-name="bullet" unicode="&#x2022;" horiz-adv-x="235" 
d="M118 335q31 0 48 -15.5t13 -40.5l-5 -30q-5 -27 -19.5 -38t-45.5 -11q-30 0 -47 15t-13 41l5 29q7 50 64 50z" />
    <glyph glyph-name="ellipsis" unicode="&#x2026;" horiz-adv-x="553" 
d="M245 108q27 0 41.5 -13.5t11.5 -35.5l-4 -29q-6 -42 -59 -42q-27 0 -41 13.5t-11 34.5l3 23q3 26 16.5 37.5t42.5 11.5zM79 108q27 0 41.5 -13.5t11.5 -35.5l-4 -29q-6 -42 -59 -42q-27 0 -41 13.5t-11 34.5l3 23q3 26 16.5 37.5t42.5 11.5zM411 108q27 0 41.5 -13.5
t11.5 -35.5l-4 -29q-6 -42 -59 -42q-27 0 -41 13.5t-11 34.5l3 23q3 26 16.5 37.5t42.5 11.5z" />
    <glyph glyph-name="perthousand" unicode="&#x2030;" horiz-adv-x="1240" 
d="M245 625q78 0 114.5 -43t25.5 -121l-4 -30q-21 -156 -174 -156q-78 0 -116 47t-25 124l5 30q13 77 54.5 113t119.5 36zM276 0h-91l421 613h91zM237 550q-36 0 -56 -19.5t-26 -62.5l-4 -30q-12 -88 64 -88q36 0 55.5 19.5t25.5 63.5l4 30q11 87 -63 87zM676 338
q78 0 114.5 -43t25.5 -121l-4 -30q-21 -156 -174 -156q-78 0 -116 47t-25 124l5 30q13 77 54.5 113t119.5 36zM1055 338q78 0 114.5 -43t25.5 -121l-4 -30q-21 -156 -174 -156q-78 0 -116 47t-25 124l5 30q13 77 54.5 113t119.5 36zM668 263q-36 0 -56 -19.5t-26 -62.5
l-4 -30q-12 -88 64 -88q36 0 55.5 19.5t25.5 63.5l4 30q11 87 -63 87zM1047 263q-36 0 -56 -19.5t-26 -62.5l-4 -30q-12 -88 64 -88q36 0 55.5 19.5t25.5 63.5l4 30q11 87 -63 87z" />
    <glyph glyph-name="guilsinglleft" unicode="&#x2039;" horiz-adv-x="318" 
d="M164 268l69 -170h-88l-76 170l124 170h88z" />
    <glyph glyph-name="guilsinglright" unicode="&#x203a;" horiz-adv-x="318" 
d="M257 268l-124 -170h-88l117 170l-69 170h88z" />
    <glyph glyph-name="fraction" unicode="&#x2044;" horiz-adv-x="380" 
d="M39 0h-83l389 601h83z" />
    <glyph glyph-name="uni2070" unicode="&#x2070;" horiz-adv-x="400" 
d="M257 760q70 0 105 -40t25 -111l-21 -147q-10 -70 -47.5 -104.5t-108.5 -34.5q-72 0 -105.5 41.5t-23.5 109.5l21 147q10 73 48 106t107 33zM250 694q-30 0 -46.5 -16t-21.5 -54l-22 -157q-5 -37 10.5 -57.5t46.5 -20.5t47 15.5t21 54.5l22 157q10 78 -57 78z" />
    <glyph glyph-name="uni2074" unicode="&#x2074;" horiz-adv-x="400" 
d="M151 483h105l1 7l18 127h76l-19 -134h56l-8 -62h-56l-13 -90h-77l13 90h-171l-15 42l145 289h76z" />
    <glyph glyph-name="uni2075" unicode="&#x2075;" horiz-adv-x="400" 
d="M355 690h-159l-22 -123q42 33 91 33q51 0 78 -34.5t19 -97.5l-2 -15q-9 -67 -46.5 -98.5t-111.5 -31.5q-60 0 -124 22l9 65q60 -22 118 -22q68 0 78 73l1 7q10 68 -54 68q-41 0 -82 -38h-56l36 256h236z" />
    <glyph glyph-name="uni2076" unicode="&#x2076;" horiz-adv-x="400" 
d="M276 759q37 0 99 -14l-8 -64q-52 15 -100 15q-39 0 -58.5 -22t-27.5 -73l-7 -46q51 48 100 48q54 0 80 -37t15 -97l-4 -22q-12 -63 -46.5 -93.5t-100.5 -30.5q-71 0 -107 42t-26 116l17 120q11 82 52 120t122 38zM248 537q-38 0 -82 -43l-5 -36q-5 -32 10.5 -51.5
t45.5 -19.5q61 0 69 57l4 28q4 28 -7.5 46.5t-34.5 18.5z" />
    <glyph glyph-name="uni2077" unicode="&#x2077;" horiz-adv-x="400" 
d="M397 699l-221 -368h-81l216 356h-197l9 64h281z" />
    <glyph glyph-name="uni2078" unicode="&#x2078;" horiz-adv-x="400" 
d="M256 760q61 0 95.5 -34t26.5 -85l-1 -6q-11 -58 -62 -80q68 -34 58 -110l-2 -10q-19 -112 -158 -112q-71 0 -111.5 34t-31.5 95l2 10q16 74 87 96q-24 14 -34 40t-5 56l1 6q8 46 44 73t91 27zM251 703q-50 0 -60 -52l-1 -5q-6 -29 8 -46t46 -17q31 0 43.5 11.5t19.5 45.5
l1 5q4 26 -11.5 42t-45.5 16zM224 527q-66 0 -77 -66l-1 -6q-6 -34 12.5 -54t60.5 -20q30 0 51.5 17t25.5 45l1 7q5 35 -14.5 56t-58.5 21z" />
    <glyph glyph-name="uni2079" unicode="&#x2079;" horiz-adv-x="400" 
d="M256 759q68 0 104.5 -41t26.5 -108l-19 -136q-11 -77 -50.5 -114t-115.5 -37q-57 0 -110 16l8 64q55 -17 106 -17q39 0 57.5 17t24.5 62l8 60q-53 -46 -95 -46q-54 0 -80.5 35.5t-17.5 99.5l3 21q18 124 150 124zM253 695q-60 0 -68 -62l-3 -25q-4 -29 8 -46t33 -17
q28 0 82 41l5 38q4 32 -11.5 51.5t-45.5 19.5z" />
    <glyph glyph-name="uni207A" unicode="&#x207a;" horiz-adv-x="400" 
d="M273 572h102l-9 -65h-102l-14 -101h-71l14 101h-102l9 65h102l14 101h71z" />
    <glyph glyph-name="uni207B" unicode="&#x207b;" horiz-adv-x="400" 
d="M365 507h-273l9 64h273z" />
    <glyph glyph-name="uni207C" unicode="&#x207c;" horiz-adv-x="400" 
d="M374 563h-274l9 65h274zM358 450h-274l9 64h274z" />
    <glyph glyph-name="uni207D" unicode="&#x207d;" horiz-adv-x="400" 
d="M341 835l-9 -65q-34 4 -45.5 -8.5t-17.5 -49.5l-44 -322q-5 -36 3 -48.5t42 -14.5l-9 -65q-72 0 -99 29.5t-18 95.5l48 338q9 68 42.5 93.5t106.5 16.5z" />
    <glyph glyph-name="uni207E" unicode="&#x207e;" horiz-adv-x="400" 
d="M199 770l9 65q72 0 99 -29.5t18 -95.5l-48 -338q-9 -68 -42.5 -93.5t-106.5 -16.5l9 65q34 -4 45.5 8.5t17.5 49.5l44 322q5 36 -3 48.5t-42 14.5z" />
    <glyph glyph-name="uni2080" unicode="&#x2080;" horiz-adv-x="400" 
d="M192 279q70 0 105 -40t25 -111l-21 -147q-10 -70 -47.5 -104.5t-108.5 -34.5q-72 0 -105.5 41.5t-23.5 109.5l21 147q10 73 48 106t107 33zM185 213q-31 0 -47 -16t-21 -54l-22 -157q-5 -37 10.5 -57.5t46.5 -20.5t47 15.5t21 54.5l22 157q10 78 -57 78z" />
    <glyph glyph-name="uni2081" unicode="&#x2081;" horiz-adv-x="400" 
d="M204 -86h79l-9 -64h-252l9 64h92l41 284l-105 -42l-6 67l135 48h66z" />
    <glyph glyph-name="uni2082" unicode="&#x2082;" horiz-adv-x="400" 
d="M183 279q74 0 104.5 -30.5t23.5 -84.5l-1 -8q-8 -65 -85 -136l-114 -106h165l-9 -64h-256l8 56l172 174q39 39 43 74l1 9q3 26 -12.5 39t-53.5 13q-51 0 -100 -21l9 66q59 19 105 19z" />
    <glyph glyph-name="uni2083" unicode="&#x2083;" horiz-adv-x="400" 
d="M171 279q65 0 95 -31t23 -83l-1 -7q-8 -65 -74 -90q33 -13 49.5 -41t11.5 -61l-1 -7q-16 -117 -155 -117q-51 0 -103 18l8 60q52 -18 98 -18q65 0 73 59l1 8q8 69 -67 69h-58l9 58h58q37 0 55 13.5t22 46.5l1 7q8 58 -59 58q-39 0 -91 -13l9 59q58 12 96 12z" />
    <glyph glyph-name="uni2084" unicode="&#x2084;" horiz-adv-x="400" 
d="M82 2h105l1 7l18 127h76l-19 -134h56l-8 -62h-56l-13 -90h-77l13 90h-171l-15 42l145 289h76z" />
    <glyph glyph-name="uni2085" unicode="&#x2085;" horiz-adv-x="400" 
d="M286 209h-159l-22 -123q42 33 91 33q51 0 78 -34.5t19 -97.5l-2 -15q-9 -67 -46.5 -98.5t-111.5 -31.5q-60 0 -124 22l9 65q60 -22 118 -22q68 0 78 73l1 7q10 68 -54 68q-41 0 -82 -38h-56l36 256h236z" />
    <glyph glyph-name="uni2086" unicode="&#x2086;" horiz-adv-x="400" 
d="M207 278q37 0 99 -14l-8 -64q-53 15 -100 15q-39 0 -58.5 -22t-27.5 -73l-7 -46q51 48 100 48q54 0 80 -37t15 -97l-4 -22q-12 -63 -46.5 -93.5t-100.5 -30.5q-71 0 -107 42t-26 116l17 120q11 82 52 120t122 38zM179 56q-38 0 -82 -43l-5 -36q-5 -32 10.5 -51.5
t45.5 -19.5q61 0 69 57l4 28q4 28 -7.5 46.5t-34.5 18.5z" />
    <glyph glyph-name="uni2087" unicode="&#x2087;" horiz-adv-x="400" 
d="M328 218l-221 -368h-81l216 356h-197l9 64h281z" />
    <glyph glyph-name="uni2088" unicode="&#x2088;" horiz-adv-x="400" 
d="M187 279q61 0 95.5 -34t26.5 -85l-1 -6q-11 -58 -62 -80q68 -34 58 -110l-2 -10q-19 -112 -158 -112q-71 0 -111.5 34t-31.5 95l2 10q16 74 87 96q-24 14 -34 40t-5 56l1 6q8 46 44 73t91 27zM182 222q-50 0 -60 -52l-1 -5q-6 -29 8 -46t46 -17q31 0 43.5 11.5t19.5 45.5
l1 5q4 26 -11.5 42t-45.5 16zM155 46q-67 0 -77 -66l-1 -6q-6 -34 12.5 -54t60.5 -20q30 0 51.5 17t25.5 45l1 7q5 35 -14.5 56t-58.5 21z" />
    <glyph glyph-name="uni2089" unicode="&#x2089;" horiz-adv-x="400" 
d="M187 278q68 0 104.5 -41t26.5 -108l-19 -136q-11 -77 -50.5 -114t-115.5 -37q-57 0 -110 16l8 64q55 -17 106 -17q39 0 57.5 17t24.5 62l8 60q-53 -46 -95 -46q-54 0 -80.5 35.5t-17.5 99.5l3 21q18 124 150 124zM184 214q-60 0 -68 -62l-3 -25q-4 -29 8 -46t33 -17
q28 0 82 41l5 38q4 32 -11.5 51.5t-45.5 19.5z" />
    <glyph glyph-name="uni208A" unicode="&#x208a;" horiz-adv-x="400" 
d="M204 91h102l-9 -65h-102l-14 -101h-71l14 101h-102l9 65h102l14 101h71z" />
    <glyph glyph-name="uni208B" unicode="&#x208b;" horiz-adv-x="400" 
d="M296 26h-273l9 64h273z" />
    <glyph glyph-name="uni208C" unicode="&#x208c;" horiz-adv-x="400" 
d="M305 82h-274l9 65h274zM289 -31h-274l9 64h274z" />
    <glyph glyph-name="uni208D" unicode="&#x208d;" horiz-adv-x="400" 
d="M272 354l-9 -65q-34 4 -45.5 -8.5t-17.5 -49.5l-44 -322q-5 -36 3 -48.5t42 -14.5l-9 -65q-72 0 -99 29.5t-18 95.5l48 338q9 68 42.5 93.5t106.5 16.5z" />
    <glyph glyph-name="uni208E" unicode="&#x208e;" horiz-adv-x="400" 
d="M130 289l9 65q72 0 99 -29.5t18 -95.5l-48 -338q-9 -68 -42.5 -93.5t-106.5 -16.5l9 65q34 -4 45.5 8.5t17.5 49.5l44 322q5 36 -3 48.5t-42 14.5z" />
    <glyph glyph-name="Euro" unicode="&#x20ac;" horiz-adv-x="454" 
d="M317 617q64 0 146 -24l-14 -78q-76 28 -134 28q-54 0 -82.5 -29.5t-36.5 -94.5l-3 -23h188l-30 -70h-168l-8 -62h188l-30 -70h-167l-1 -8q-7 -65 14.5 -92.5t79.5 -27.5q59 0 143 33l-8 -80q-76 -31 -148 -31q-185 0 -167 197l1 9h-76l30 70h55l9 62h-76l30 70h55l3 20
q16 106 65 153.5t142 47.5z" />
    <glyph glyph-name="uni2116" unicode="&#x2116;" horiz-adv-x="1037" 
d="M190 556l-67 -556h-84l80 655h125q88 -284 155 -555l68 555h84l-80 -655h-125zM985 482l-13 -88q-13 -91 -58 -135t-132 -44q-91 0 -133 50t-29 135l14 89q14 89 58.5 133.5t133.5 44.5q90 0 130.5 -49.5t28.5 -135.5zM886 388l16 103q7 50 -14.5 77.5t-65.5 27.5
q-87 0 -102 -102l-16 -102q-8 -50 14.5 -78t66.5 -28q89 0 101 102zM580 73h342l-10 -73h-342z" />
    <glyph glyph-name="trademark" unicode="&#x2122;" horiz-adv-x="773" 
d="M388 625h-111l-38 -275h-73l38 275h-112l8 58h296zM737 350h-69l30 208l-91 -177h-70l-40 177l-33 -208h-69l53 333h79q28 -106 53 -233q63 115 115 233h86z" />
    <glyph glyph-name="Omega" unicode="&#x2126;" horiz-adv-x="576" 
d="M323 667q110 0 162.5 -59.5t39.5 -163.5l-26 -208q-7 -56 -22.5 -91t-48.5 -65h65l-7 -80h-200l6 77h9q44 0 74 34t37 95l29 249q7 66 -26 101.5t-97 35.5q-131 0 -145 -127l-26 -249q-7 -66 15.5 -102.5t64.5 -36.5h9l-6 -77h-200l8 80h66q-55 54 -41 166l26 211
q13 109 67 159.5t167 50.5z" />
    <glyph glyph-name="estimated" unicode="&#x212e;" horiz-adv-x="955" 
d="M481 703q165 0 284 -106.5t119 -269.5h-657v-218q30 -45 104.5 -71t150.5 -26q75 0 147.5 25.5t112.5 72.5h58q-118 -137 -319 -137q-172 0 -287 102.5t-115 259.5q0 156 117.5 262t284.5 106zM482 664q-172 0 -255 -101v-196h509v195q-94 102 -254 102z" />
    <glyph glyph-name="onethird" unicode="&#x2153;" horiz-adv-x="999" 
d="M252 245h79l-9 -64h-252l9 64h92l41 284l-105 -42l-6 67l135 48h66zM359 0h-83l389 601h83zM823 429q65 0 95 -31t23 -83l-1 -7q-8 -65 -74 -90q33 -13 49.5 -41t11.5 -61l-1 -7q-16 -117 -155 -117q-51 0 -103 18l8 60q52 -18 98 -18q65 0 73 59l1 8q8 69 -67 69h-58
l9 58h58q37 0 55 13.5t22 46.5l1 7q8 58 -59 58q-39 0 -91 -13l9 59q58 12 96 12z" />
    <glyph glyph-name="twothirds" unicode="&#x2154;" horiz-adv-x="1000" 
d="M222 610q74 0 104.5 -30.5t23.5 -84.5l-1 -8q-8 -65 -85 -136l-114 -106h165l-9 -64h-256l8 56l172 174q39 39 43 74l1 9q3 26 -12.5 39t-53.5 13q-51 0 -100 -21l9 66q59 19 105 19zM355 0h-83l389 601h83zM823 429q65 0 95 -31t23 -83l-1 -7q-8 -65 -74 -90
q33 -13 49.5 -41t11.5 -61l-1 -7q-16 -117 -155 -117q-51 0 -103 18l8 60q52 -18 98 -18q65 0 73 59l1 8q8 69 -67 69h-58l9 58h58q37 0 55 13.5t22 46.5l1 7q8 58 -59 58q-39 0 -91 -13l9 59q58 12 96 12z" />
    <glyph glyph-name="arrowleft" unicode="&#x2190;" horiz-adv-x="900" 
d="M430 596l-235 -237h299v-74h-299l235 -237l-53 -53l-319 327l319 327zM683 285h-135v74h135v-74zM842 285h-105v74h105v-74z" />
    <glyph glyph-name="arrowup" unicode="&#x2191;" horiz-adv-x="900" 
d="M776 376l-51 -52l-237 235v-301h-76v301l-237 -235l-51 52l326 318zM488 69h-76v135h76v-135zM488 -90h-76v105h76v-105z" />
    <glyph glyph-name="arrowright" unicode="&#x2192;" horiz-adv-x="900" 
d="M842 322l-319 -327l-53 53l235 237h-299v74h299l-235 237l53 53zM163 285h-105v74h105v-74zM352 285h-135v74h135v-74z" />
    <glyph glyph-name="arrowdown" unicode="&#x2193;" horiz-adv-x="900" 
d="M488 667h-76v105h76v-105zM488 478h-76v135h76v-135zM488 123l237 235l51 -52l-326 -318l-326 318l51 52l237 -235v301h76v-301z" />
    <glyph glyph-name="arrowboth" unicode="&#x2194;" horiz-adv-x="1289" 
d="M430 596l-235 -237h229v-74h-229l235 -237l-53 -53l-319 327l319 327zM1231 322l-319 -327l-53 53l235 237h-229v74h229l-235 237l53 53zM563 285h-85v74h85v-74zM672 285h-55v74h55v-74zM811 285h-85v74h85v-74z" />
    <glyph glyph-name="arrowupdn" unicode="&#x2195;" horiz-adv-x="900" 
d="M776 518l-51 -52l-237 235v-231h-76v231l-237 -235l-51 52l326 318zM488 331h-76v85h76v-85zM488 222h-76v55h76v-55zM488 83h-76v85h76v-85zM776 -19l-326 -318l-326 318l51 52l237 -235v231h76v-231l237 235z" />
    <glyph glyph-name="uni2196" unicode="&#x2196;" horiz-adv-x="900" 
d="M620 559l-334 -2l211 -210l-52 -52l-213 213l-2 -336h-73l6 457l457 6v-76zM631 213l-52 -52l-96 96l52 52zM743 101l-52 -52l-74 74l52 52z" />
    <glyph glyph-name="uni2197" unicode="&#x2197;" horiz-adv-x="900" 
d="M737 629l6 -457h-73l-2 336l-213 -213l-52 52l211 210l-334 2v76zM417 257l-96 -96l-52 52l96 96zM283 123l-74 -74l-52 52l74 74z" />
    <glyph glyph-name="uni2198" unicode="&#x2198;" horiz-adv-x="900" 
d="M283 561l-52 -52l-74 74l52 52zM417 427l-52 -52l-96 96l52 52zM737 55l-457 -6v76l334 2l-211 210l52 52l213 -213l2 336h73z" />
    <glyph glyph-name="uni2199" unicode="&#x2199;" horiz-adv-x="900" 
d="M743 583l-74 -74l-52 52l74 74zM631 471l-96 -96l-52 52l96 96zM232 176l213 213l52 -52l-211 -210l334 -2v-76l-457 6l-6 457h73z" />
    <glyph glyph-name="partialdiff" unicode="&#x2202;" horiz-adv-x="461" 
d="M143 631l9 64q148 0 214.5 -92t41.5 -268l-24 -170q-12 -89 -56.5 -133t-128.5 -44q-91 0 -132 46t-28 133l16 115q21 157 147 157q36 0 69.5 -19.5t54.5 -58.5l4 25q16 116 -35 180.5t-152 64.5zM213 363q-63 0 -77 -99l-16 -112q-6 -45 15.5 -69t65.5 -24q83 0 95 89
l19 133q-18 40 -46 61t-56 21z" />
    <glyph glyph-name="Delta" unicode="&#x2206;" horiz-adv-x="522" 
d="M474 57l-5 -57h-474l8 57l246 598h101zM289 577q-86 -250 -196 -501h287q-29 232 -91 501z" />
    <glyph glyph-name="product" unicode="&#x220f;" horiz-adv-x="575" 
d="M613 575h-90l-93 -760h-85l93 760h-235l-93 -760h-84l92 760h-89l11 80h584z" />
    <glyph glyph-name="summation" unicode="&#x2211;" horiz-adv-x="399" 
d="M427 578h-292l153 -322l-4 -39l-225 -325h283l-9 -77h-388l9 67l251 356l-166 350l9 67h389z" />
    <glyph glyph-name="minus" unicode="&#x2212;" horiz-adv-x="390" 
d="M369 265h-354l10 70h354z" />
    <glyph glyph-name="uni2219" unicode="&#x2219;" horiz-adv-x="221" 
d="M81 309q27 0 41.5 -13.5t11.5 -35.5l-4 -29q-6 -42 -59 -42q-27 0 -41 13.5t-11 34.5l3 23q3 26 16.5 37.5t42.5 11.5z" />
    <glyph glyph-name="radical" unicode="&#x221a;" horiz-adv-x="480" 
d="M606 613h-84l-288 -613h-110l-76 488h85q29 -195 50 -426q157 308 282 621h150z" />
    <glyph glyph-name="infinity" unicode="&#x221e;" horiz-adv-x="517" 
d="M384 432q71 0 102.5 -35.5t26.5 -98.5l-1 -11q-17 -126 -156 -126q-74 0 -104 49q-44 -49 -107 -49q-71 0 -103.5 35.5t-27.5 98.5l1 11q11 126 156 126q35 0 63.5 -13.5t42.5 -35.5q44 49 107 49zM164 362q-63 0 -68 -60l-1 -11q-5 -60 57 -60q64 0 69 60l1 11
q5 60 -58 60zM375 362q-63 0 -68 -60l-1 -11q-5 -60 57 -60q64 0 69 60l1 11q5 60 -58 60z" />
    <glyph glyph-name="integral" unicode="&#x222b;" horiz-adv-x="316" 
d="M309 695q39 0 77 -11l-9 -70q-43 12 -73 12t-47 -18.5t-24 -63.5l-80 -576q-12 -87 -46.5 -126t-99.5 -39q-44 0 -88 14l10 71q37 -13 72 -13q29 0 44 19.5t22 68.5l80 576q22 156 162 156z" />
    <glyph glyph-name="approxequal" unicode="&#x2248;" horiz-adv-x="390" 
d="M392 431l-10 -70q-46 -28 -104 -28q-36 0 -77 14t-75 14q-16 0 -41.5 -6.5t-42.5 -12.5l-17 -6l10 70q45 28 103 28q36 0 78.5 -14t74.5 -14q16 0 41.5 6t42.5 12zM371 281l-10 -70q-46 -28 -104 -28q-36 0 -77 14t-75 14q-16 0 -41.5 -6.5t-42.5 -12.5l-17 -6l9 70
q46 28 104 28q36 0 78 -14t74 -14q16 0 41.5 6t43.5 12z" />
    <glyph glyph-name="notequal" unicode="&#x2260;" horiz-adv-x="390" 
d="M327 421h64l-10 -70h-107l-77 -101h170l-10 -70h-214l-49 -65h-76l49 65h-64l10 70h108l77 101h-171l10 70h214l49 63h76z" />
    <glyph glyph-name="lessequal" unicode="&#x2264;" horiz-adv-x="390" 
d="M392 411l-292 -114l260 -115l-12 -83l-337 160l10 75l383 160zM335 0h-360l9 70h360z" />
    <glyph glyph-name="greaterequal" unicode="&#x2265;" horiz-adv-x="390" 
d="M381 334l-10 -75l-383 -160l12 83l292 115l-260 114l12 83zM335 0h-360l9 70h360z" />
    <glyph glyph-name="dotmath" unicode="&#x22c5;" horiz-adv-x="221" 
d="M81 309q27 0 41.5 -13.5t11.5 -35.5l-4 -29q-6 -42 -59 -42q-27 0 -41 13.5t-11 34.5l3 23q3 26 16.5 37.5t42.5 11.5z" />
    <glyph glyph-name="uni25AF" unicode="&#x25af;" horiz-adv-x="485" 
d="M30 0v655h425v-655h-425zM95 65h295v525h-295v-525z" />
    <glyph glyph-name="lozenge" unicode="&#x25ca;" horiz-adv-x="538" 
d="M541 342l-278 -342h-68l-182 342l277 341h68zM115 342l126 -252l198 252l-127 251z" />
    <glyph glyph-name="uniFB00" unicode="&#xfb00;" horiz-adv-x="816" 
d="M385 438h-212l-18 -142h158l-8 -72h-158l-27 -224h-81l62 511h293zM793 438h-212l-18 -142h158l-8 -72h-158l-27 -224h-81l62 511h293z" />
    <glyph glyph-name="fi" unicode="&#xfb01;" horiz-adv-x="639" 
d="M385 438h-212l-18 -142h158l-8 -72h-158l-27 -224h-81l62 511h293zM509 511h81l-62 -511h-81z" />
    <glyph glyph-name="fl" unicode="&#xfb02;" horiz-adv-x="806" 
d="M385 438h-212l-18 -142h158l-8 -72h-158l-27 -224h-81l62 511h293zM509 511h81l-54 -439h212l-8 -72h-293z" />
    <glyph glyph-name="uniFB03" unicode="&#xfb03;" horiz-adv-x="1047" 
d="M385 438h-212l-18 -142h158l-8 -72h-158l-27 -224h-81l62 511h293zM793 438h-212l-18 -142h158l-8 -72h-158l-27 -224h-81l62 511h293zM917 511h81l-62 -511h-81z" />
    <glyph glyph-name="uniFB04" unicode="&#xfb04;" horiz-adv-x="1214" 
d="M385 438h-212l-18 -142h158l-8 -72h-158l-27 -224h-81l62 511h293zM793 438h-212l-18 -142h158l-8 -72h-158l-27 -224h-81l62 511h293zM917 511h81l-54 -439h212l-8 -72h-293z" />
    <glyph glyph-name="uniFB06" unicode="&#xfb06;" horiz-adv-x="835" 
d="M222 523q56 0 124 -19l-10 -75q-29 10 -79 21q-24 2 -38 2q-41 0 -60.5 -14t-24.5 -45l-1 -7q-9 -58 53 -80l59 -23q119 -47 99 -156l-2 -11q-23 -128 -167 -128q-70 0 -152 34l11 79q57 -26 102 -37q22 -3 40 -3q76 0 87 66l1 6q9 58 -50 80l-59 22q-123 47 -104 158
l2 12q19 118 169 118zM822 438h-154l-53 -438h-81l53 438h-155l9 73h390z" />
    <glyph glyph-name="uniFEFF" unicode="&#xfeff;" horiz-adv-x="0" 
 />
    <glyph glyph-name="Ldot.latn_CAT" horiz-adv-x="450" 
d="M119 655h85l-72 -580h260l-8 -75h-345zM383 369l-4 -29q-3 -42 -56 -42q-27 0 -42.5 13.5t-12.5 34.5l4 29q6 43 56 43q27 0 42 -13t13 -36z" />
    <glyph glyph-name="parenleft.numr" horiz-adv-x="400" 
d="M320 685l-9 -65q-34 4 -45.5 -8.5t-17.5 -49.5l-44 -322q-5 -36 3 -48.5t42 -14.5l-9 -65q-72 0 -99 29.5t-18 95.5l48 338q9 68 42.5 93.5t106.5 16.5z" />
    <glyph glyph-name="parenright.numr" horiz-adv-x="400" 
d="M178 620l9 65q72 0 99 -29.5t18 -95.5l-48 -338q-9 -68 -42.5 -93.5t-106.5 -16.5l9 65q34 -4 45.5 8.5t17.5 49.5l44 322q5 36 -3 48.5t-42 14.5z" />
    <glyph glyph-name="plus.numr" horiz-adv-x="400" 
d="M252 422h102l-9 -65h-102l-14 -101h-71l14 101h-102l9 65h102l14 101h71z" />
    <glyph glyph-name="zero.numr" horiz-adv-x="400" 
d="M237 610q70 0 105 -40t25 -111l-21 -147q-10 -70 -47.5 -104.5t-108.5 -34.5q-72 0 -105.5 41.5t-23.5 109.5l21 147q10 73 48 106t107 33zM230 544q-30 0 -46.5 -16t-21.5 -54l-22 -157q-5 -37 10.5 -57.5t46.5 -20.5t47 15.5t21 54.5l22 157q10 78 -57 78z" />
    <glyph glyph-name="one.numr" horiz-adv-x="400" 
d="M252 245h79l-9 -64h-252l9 64h92l41 284l-105 -42l-6 67l135 48h66z" />
    <glyph glyph-name="two.numr" horiz-adv-x="400" 
d="M229 610q74 0 104.5 -30.5t23.5 -84.5l-1 -8q-8 -65 -85 -136l-114 -106h165l-9 -64h-256l8 56l172 174q39 39 43 74l1 9q3 26 -12.5 39t-53.5 13q-51 0 -100 -21l9 66q59 19 105 19z" />
    <glyph glyph-name="three.numr" horiz-adv-x="400" 
d="M219 610q65 0 95 -31t23 -83l-1 -7q-8 -65 -74 -90q33 -13 49.5 -41t11.5 -61l-1 -7q-16 -117 -155 -117q-51 0 -103 18l8 60q52 -18 98 -18q65 0 73 59l1 8q8 69 -67 69h-58l9 58h58q37 0 55 13.5t22 46.5l1 7q8 58 -59 58q-39 0 -91 -13l9 59q58 12 96 12z" />
    <glyph glyph-name="four.numr" horiz-adv-x="400" 
d="M132 333h105l1 7l18 127h76l-19 -134h56l-8 -62h-56l-13 -90h-77l13 90h-171l-15 42l145 289h76z" />
    <glyph glyph-name="five.numr" horiz-adv-x="400" 
d="M334 540h-159l-22 -123q42 33 91 33q51 0 78 -34.5t19 -97.5l-2 -15q-9 -67 -46.5 -98.5t-111.5 -31.5q-60 0 -124 22l9 65q60 -22 118 -22q68 0 78 73l1 7q10 68 -54 68q-41 0 -82 -38h-56l36 256h236z" />
    <glyph glyph-name="six.numr" horiz-adv-x="400" 
d="M255 609q37 0 99 -14l-8 -64q-52 15 -100 15q-39 0 -58.5 -22t-27.5 -73l-7 -46q51 48 100 48q54 0 80 -37t15 -97l-4 -22q-12 -63 -46.5 -93.5t-100.5 -30.5q-71 0 -107 42t-26 116l17 120q11 82 52 120t122 38zM227 387q-38 0 -82 -43l-5 -36q-5 -32 10.5 -51.5
t45.5 -19.5q61 0 69 57l4 28q4 28 -7.5 46.5t-34.5 18.5z" />
    <glyph glyph-name="seven.numr" horiz-adv-x="400" 
d="M376 549l-221 -368h-81l216 356h-197l9 64h281z" />
    <glyph glyph-name="eight.numr" horiz-adv-x="400" 
d="M235 610q61 0 95.5 -34t26.5 -85l-1 -6q-11 -58 -62 -80q68 -34 58 -110l-2 -10q-19 -112 -158 -112q-71 0 -111.5 34t-31.5 95l2 10q16 74 87 96q-24 14 -34 40t-5 56l1 6q8 46 44 73t91 27zM230 553q-50 0 -60 -52l-1 -5q-6 -29 8 -46t46 -17q31 0 43.5 11.5t19.5 45.5
l1 5q4 26 -11.5 42t-45.5 16zM203 377q-67 0 -77 -66l-1 -6q-6 -34 12.5 -54t60.5 -20q30 0 51.5 17t25.5 45l1 7q5 35 -14.5 56t-58.5 21z" />
    <glyph glyph-name="nine.numr" horiz-adv-x="400" 
d="M235 609q68 0 104.5 -41t26.5 -108l-19 -136q-11 -77 -50.5 -114t-115.5 -37q-57 0 -110 16l8 64q55 -17 106 -17q39 0 57.5 17t24.5 62l8 60q-53 -46 -95 -46q-54 0 -80.5 35.5t-17.5 99.5l3 21q18 124 150 124zM232 545q-60 0 -68 -62l-3 -25q-4 -29 8 -46t33 -17
q28 0 82 41l5 38q4 32 -11.5 51.5t-45.5 19.5z" />
    <glyph glyph-name="equal.numr" horiz-adv-x="400" 
d="M353 413h-274l9 65h274zM337 300h-274l9 64h274z" />
    <glyph glyph-name="minus.numr" horiz-adv-x="400" 
d="M344 357h-273l9 64h273z" />
    <glyph glyph-name="parenleft.dnom" horiz-adv-x="400" 
d="M295 504l-9 -65q-34 4 -45.5 -8.5t-17.5 -49.5l-44 -322q-5 -36 3 -48.5t42 -14.5l-9 -65q-72 0 -99 29.5t-18 95.5l48 338q9 68 42.5 93.5t106.5 16.5z" />
    <glyph glyph-name="parenright.dnom" horiz-adv-x="400" 
d="M153 439l9 65q72 0 99 -29.5t18 -95.5l-48 -338q-9 -68 -42.5 -93.5t-106.5 -16.5l9 65q34 -4 45.5 8.5t17.5 49.5l44 322q5 36 -3 48.5t-42 14.5z" />
    <glyph glyph-name="plus.dnom" horiz-adv-x="400" 
d="M227 241h102l-9 -65h-102l-14 -101h-71l14 101h-102l9 65h102l14 101h71z" />
    <glyph glyph-name="zero.dnom" horiz-adv-x="400" 
d="M212 429q70 0 105 -40t25 -111l-21 -147q-10 -70 -47.5 -104.5t-108.5 -34.5q-72 0 -105.5 41.5t-23.5 109.5l21 147q10 73 48 106t107 33zM205 363q-31 0 -47 -16t-21 -54l-22 -157q-5 -37 10.5 -57.5t46.5 -20.5t47 15.5t21 54.5l22 157q10 78 -57 78z" />
    <glyph glyph-name="one.dnom" horiz-adv-x="400" 
d="M224 64h79l-9 -64h-252l9 64h92l41 284l-105 -42l-6 67l135 48h66z" />
    <glyph glyph-name="two.dnom" horiz-adv-x="400" 
d="M203 429q74 0 104.5 -30.5t23.5 -84.5l-1 -8q-8 -65 -85 -136l-114 -106h165l-9 -64h-256l8 56l172 174q39 39 43 74l1 9q3 26 -12.5 39t-53.5 13q-51 0 -100 -21l9 66q59 19 105 19z" />
    <glyph glyph-name="three.dnom" horiz-adv-x="400" 
d="M193 429q65 0 95 -31t23 -83l-1 -7q-8 -65 -74 -90q33 -13 49.5 -41t11.5 -61l-1 -7q-16 -117 -155 -117q-51 0 -103 18l8 60q52 -18 98 -18q65 0 73 59l1 8q8 69 -67 69h-58l9 58h58q37 0 55 13.5t22 46.5l1 7q8 58 -59 58q-39 0 -91 -13l9 59q58 12 96 12z" />
    <glyph glyph-name="four.dnom" horiz-adv-x="400" 
d="M104 152h105l1 7l18 127h76l-19 -134h56l-8 -62h-56l-13 -90h-77l13 90h-171l-15 42l145 289h76z" />
    <glyph glyph-name="five.dnom" horiz-adv-x="400" 
d="M308 359h-159l-22 -123q42 33 91 33q51 0 78 -34.5t19 -97.5l-2 -15q-9 -67 -46.5 -98.5t-111.5 -31.5q-60 0 -124 22l9 65q60 -22 118 -22q68 0 78 73l1 7q10 68 -54 68q-41 0 -82 -38h-56l36 256h236z" />
    <glyph glyph-name="six.dnom" horiz-adv-x="400" 
d="M229 428q37 0 99 -14l-8 -64q-52 15 -100 15q-39 0 -58.5 -22t-27.5 -73l-7 -46q51 48 100 48q54 0 80 -37t15 -97l-4 -22q-12 -63 -46.5 -93.5t-100.5 -30.5q-71 0 -107 42t-26 116l17 120q11 82 52 120t122 38zM201 206q-38 0 -82 -43l-5 -36q-5 -32 10.5 -51.5
t45.5 -19.5q61 0 69 57l4 28q4 28 -7.5 46.5t-34.5 18.5z" />
    <glyph glyph-name="seven.dnom" horiz-adv-x="400" 
d="M350 368l-221 -368h-81l216 356h-197l9 64h281z" />
    <glyph glyph-name="eight.dnom" horiz-adv-x="400" 
d="M209 429q61 0 95.5 -34t26.5 -85l-1 -6q-11 -58 -62 -80q68 -34 58 -110l-2 -10q-19 -112 -158 -112q-71 0 -111.5 34t-31.5 95l2 10q16 74 87 96q-24 14 -34 40t-5 56l1 6q8 46 44 73t91 27zM204 372q-50 0 -60 -52l-1 -5q-6 -29 8 -46t46 -17q31 0 43.5 11.5t19.5 45.5
l1 5q4 26 -11.5 42t-45.5 16zM177 196q-67 0 -77 -66l-1 -6q-6 -34 12.5 -54t60.5 -20q30 0 51.5 17t25.5 45l1 7q5 35 -14.5 56t-58.5 21z" />
    <glyph glyph-name="nine.dnom" horiz-adv-x="400" 
d="M209 428q68 0 104.5 -41t26.5 -108l-19 -136q-11 -77 -50.5 -114t-115.5 -37q-57 0 -110 16l8 64q55 -17 106 -17q39 0 57.5 17t24.5 62l8 60q-53 -46 -95 -46q-54 0 -80.5 35.5t-17.5 99.5l3 21q18 124 150 124zM206 364q-60 0 -68 -62l-3 -25q-4 -29 8 -46t33 -17
q28 0 82 41l5 38q4 32 -11.5 51.5t-45.5 19.5z" />
    <glyph glyph-name="equal.dnom" horiz-adv-x="400" 
d="M328 232h-274l9 65h274zM312 119h-274l9 64h274z" />
    <glyph glyph-name="minus.dnom" horiz-adv-x="400" 
d="M319 176h-273l9 64h273z" />
    <glyph glyph-name="space.frac" horiz-adv-x="60" 
 />
    <glyph glyph-name="quotedbl.osf" horiz-adv-x="315" 
d="M150 429h-85l35 254h85zM290 429h-85l35 254h85z" />
    <glyph glyph-name="numbersign.osf" horiz-adv-x="546" 
d="M449 413h80l-10 -70h-80l-23 -163h80l-10 -70h-80l-15 -110h-85l15 110h-146l-15 -110h-85l15 110h-80l10 70h80l23 163h-80l10 70h80l15 110h85l-15 -110h146l15 110h85zM208 343l-23 -163h146l23 163h-146z" />
    <glyph glyph-name="dollar.osf" horiz-adv-x="387" 
d="M280 605l-13 -85q44 -6 86 -19l-12 -75q-42 16 -88 26q-20 2 -37 2q-76 0 -86 -51l-3 -16q-7 -41 50 -67l82 -38q94 -44 85 -137l-3 -29q-6 -52 -44.5 -86t-103.5 -41l-12 -83h-75l12 86q-65 10 -110 34l13 77q33 -18 106 -40q24 -3 37 -3q85 0 95 64l2 19q3 46 -45 67
l-80 37q-107 49 -90 145l5 26q19 93 142 104l12 83h75z" />
    <glyph glyph-name="percent.osf" horiz-adv-x="860" 
d="M245 625q78 0 114.5 -43t25.5 -121l-4 -30q-21 -156 -174 -156q-78 0 -116 47t-25 124l5 30q13 77 54.5 113t119.5 36zM276 0h-91l421 613h91zM237 550q-36 0 -56 -19.5t-26 -62.5l-4 -30q-12 -88 64 -88q36 0 55.5 19.5t25.5 63.5l4 30q11 87 -63 87zM676 338
q78 0 114.5 -43t25.5 -121l-4 -30q-21 -156 -174 -156q-78 0 -116 47t-25 124l5 30q13 77 54.5 113t119.5 36zM668 263q-36 0 -56 -19.5t-26 -62.5l-4 -30q-12 -88 64 -88q36 0 55.5 19.5t25.5 63.5l4 30q11 87 -63 87z" />
    <glyph glyph-name="quotesingle.osf" horiz-adv-x="175" 
d="M150 429h-85l35 254h85z" />
    <glyph glyph-name="plus.osf" horiz-adv-x="390" 
d="M234 296h140l-10 -71h-140l-21 -152h-76l21 152h-140l10 71h140l21 152h76z" />
    <glyph glyph-name="zero.osf" horiz-adv-x="490" 
d="M271 523q91 0 136.5 -53t30.5 -155l-17 -125q-28 -202 -211 -202q-93 0 -137.5 54.5t-30.5 153.5l17 125q28 202 212 202zM265 451q-103 0 -120 -122l-19 -141q-9 -63 15.5 -95.5t74.5 -32.5q102 0 119 122l19 141q9 64 -15.5 96t-73.5 32z" />
    <glyph glyph-name="one.osf" horiz-adv-x="307" 
d="M202 0h-85l60 429h-2l-141 -57l-7 73l171 66h75z" />
    <glyph glyph-name="two.osf" horiz-adv-x="384" 
d="M191 523q89 0 128.5 -41t31.5 -117l-1 -9q-11 -91 -116 -175l-139 -109h212l-10 -72h-327l9 65l226 186q30 25 42 47t17 57l1 7q7 47 -14.5 69t-73.5 22q-56 0 -132 -32l10 77q75 25 136 25z" />
    <glyph glyph-name="three.osf" horiz-adv-x="372" 
d="M182 523q82 0 121.5 -41.5t31.5 -116.5l-1 -9q-11 -102 -121 -135q49 -16 75 -55.5t19 -87.5l-3 -23q-25 -188 -343 -189l10 73q134 0 187 28.5t62 91.5l2 18q7 58 -15.5 83.5t-76.5 25.5h-89l9 66h89q95 0 109 99l2 15q6 47 -13 68.5t-65 21.5t-131 -19l10 70
q80 16 131 16z" />
    <glyph glyph-name="four.osf" horiz-adv-x="427" 
d="M326 72h71l-10 -72h-71l-17 -115h-83l17 115h-285l8 59l336 452h95zM56 72h188l44 320z" />
    <glyph glyph-name="five.osf" horiz-adv-x="421" 
d="M372 439h-226l-29 -203q65 48 142 48q137 0 116 -184l-2 -17q-13 -113 -97 -164.5t-271 -52.5l10 73q102 0 159.5 15.5t81.5 45t31 82.5l3 21q8 54 -10 82t-56 28q-66 0 -134 -65h-65l51 363h306z" />
    <glyph glyph-name="six.osf" horiz-adv-x="470" 
d="M290 612q60 0 133 -20l-10 -74q-83 24 -127 24q-59 0 -90 -38.5t-45 -138.5l-6 -43q71 67 139 67q73 0 108 -47t22 -135l-5 -34q-13 -93 -60 -139t-136 -46q-97 0 -140.5 59t-26.5 177l20 140q19 134 73 191t151 57zM263 315q-60 0 -128 -65l-8 -58q-9 -63 14.5 -97.5
t72.5 -34.5q48 0 74 25.5t35 82.5l7 42q8 49 -11 77t-56 28z" />
    <glyph glyph-name="seven.osf" horiz-adv-x="384" 
d="M397 453l-324 -567h-91l327 553v2h-293l10 70h379z" />
    <glyph glyph-name="eight.osf" horiz-adv-x="460" 
d="M263 613q79 0 123.5 -47t31.5 -122l-1 -6q-15 -85 -84 -119q88 -41 75 -149l-2 -16q-10 -79 -62.5 -122.5t-145.5 -43.5q-95 0 -144.5 49t-38.5 130l2 15q14 109 121 146q-34 20 -49.5 57.5t-7.5 80.5l1 6q24 141 181 141zM258 547q-78 0 -92 -85l-1 -6q-7 -55 11.5 -79
t65.5 -24q44 0 64 18t29 69l1 6q16 101 -78 101zM224 287q-51 0 -82.5 -28t-38.5 -78l-1 -7q-8 -53 19 -84t81 -31q103 0 117 96l3 20q8 52 -18.5 82t-79.5 30z" />
    <glyph glyph-name="nine.osf" horiz-adv-x="470" 
d="M254 523q90 0 134.5 -54t31.5 -150l-31 -231q-16 -115 -68.5 -165t-153.5 -50q-67 0 -131 23l10 75q23 -10 62.5 -18t60.5 -8q59 0 91.5 32.5t42.5 110.5l11 81q-81 -67 -146 -67q-68 0 -101 49t-21 144l7 51q12 90 60.5 133.5t140.5 43.5zM247 451q-50 0 -75.5 -24
t-33.5 -76l-9 -59q-9 -56 10.5 -86t56.5 -30q48 0 128 65l14 93q7 56 -17 86.5t-74 30.5z" />
    <glyph glyph-name="less.osf" horiz-adv-x="390" 
d="M387 371l-292 -114l260 -115l-12 -83l-337 160l10 75l383 160z" />
    <glyph glyph-name="equal.osf" horiz-adv-x="390" 
d="M375 311h-354l10 70h354zM351 140h-354l10 70h354z" />
    <glyph glyph-name="greater.osf" horiz-adv-x="390" 
d="M376 294l-10 -75l-383 -160l12 83l292 115l-260 114l12 83z" />
    <glyph glyph-name="asciitilde.osf" horiz-adv-x="390" 
d="M375 309l-10 -70q-46 -28 -104 -28q-36 0 -77 14t-75 14q-16 0 -41.5 -6.5t-43.5 -12.5l-17 -6l10 70q46 28 104 28q36 0 78 -14t74 -14q16 0 41.5 6t43.5 12z" />
    <glyph glyph-name="cent.osf" horiz-adv-x="390" 
d="M145 328l-21 -154q-15 -111 69 -111q61 0 118 33l-9 -77q-46 -21 -83 -27l-11 -80h-75l11 79q-61 11 -89 58t-17 124l21 148q23 163 156 178l11 77h75l-11 -79q29 -4 67 -15l-12 -76q-59 22 -103 22q-82 0 -97 -100z" />
    <glyph glyph-name="sterling.osf" horiz-adv-x="387" 
d="M265 522q64 0 114 -18l-10 -72q-51 20 -101 20q-40 0 -60 -18t-26 -60l-7 -53h95l-10 -70h-95l-7 -47q-7 -55 -19.5 -82.5t-39.5 -47.5h263l-10 -74h-347l8 60q47 48 56 116l11 75h-70l10 70h70l7 48q11 80 51.5 116.5t116.5 36.5z" />
    <glyph glyph-name="currency.osf" horiz-adv-x="470" 
d="M475 427l-69 -60q12 -37 5 -84l-3 -20q-7 -49 -34 -90l56 -64l-63 -56l-54 63q-43 -24 -102 -24q-57 0 -94 22l-68 -61l-49 56l71 61q-17 41 -10 93l3 20q7 51 31 87l-50 57l64 56l46 -55q47 26 107 26q62 0 101 -28l64 57zM252 381q-47 0 -73.5 -27t-32.5 -71l-3 -20
q-14 -99 78 -99q91 0 105 99l3 20q14 98 -77 98z" />
    <glyph glyph-name="yen.osf" horiz-adv-x="410" 
d="M270 246h66l-10 -70h-96l-5 -36h96l-10 -70h-96l-9 -70h-82l9 70h-96l10 70h96l5 36h-96l10 70h65l-91 265h87q46 -144 73 -260q87 148 145 260h95z" />
    <glyph glyph-name="section.osf" horiz-adv-x="418" 
d="M254 695q52 0 122 -20l-12 -77q-53 20 -81 26q-20 2 -36 2q-65 0 -72 -61l-1 -9q-6 -56 39 -76l98 -44q99 -45 87 -146l-2 -16q-5 -45 -38.5 -76.5t-86.5 -42.5q68 -45 58 -136l-2 -17q-14 -120 -167 -120q-52 0 -122 20l12 77q53 -20 81 -26q20 -2 36 -2q74 0 81 61l1 9
q6 56 -39 76l-98 44q-99 44 -87 146l2 16q7 45 40 76.5t84 42.5q-71 45 -57 136l2 17q14 120 158 120zM268 368l-28 12q-51 2 -88 -20t-43 -65l-1 -6q-8 -55 47 -80l28 -13q50 -2 87 20.5t44 65.5l1 6q8 56 -47 80z" />
    <glyph glyph-name="logicalnot.osf" horiz-adv-x="390" 
d="M345 73h-76l21 152h-285l10 70h361z" />
    <glyph glyph-name="degree.osf" horiz-adv-x="390" 
d="M240 695q80 0 119.5 -48t28.5 -129l-2 -21q-13 -83 -52.5 -120.5t-118.5 -37.5q-80 0 -120.5 48t-29.5 129l3 21q12 82 52.5 120t119.5 38zM238 626q-41 0 -63 -22t-28 -71l-3 -21q-7 -45 10.5 -74.5t61.5 -29.5q43 0 64 24t27 69l3 21q7 50 -12.5 77t-59.5 27z" />
    <glyph glyph-name="plusminus.osf" horiz-adv-x="390" 
d="M234 296h140l-10 -71h-140l-16 -112h-76l16 112h-140l10 71h140l21 152h76zM332 0h-356l9 70h356z" />
    <glyph glyph-name="mu.osf" horiz-adv-x="483" 
d="M373 0h-80l4 28l46 162l-2 2l-3 -1q-68 -203 -184 -203q-26 0 -45 13q-15 -95 -40 -186h-84q29 112 60 328l50 345h85l-46 -313q-9 -61 2 -86t42 -25q34 0 62.5 27.5t46.5 70.5t29 84t17 80l23 162h86z" />
    <glyph glyph-name="multiply.osf" horiz-adv-x="390" 
d="M363 368l-121 -106l93 -108l-61 -53l-93 107l-120 -105l-43 50l120 105l-92 108l61 54l92 -108l121 106z" />
    <glyph glyph-name="divide.osf" horiz-adv-x="390" 
d="M217 449q50 0 43 -44l-2 -17q-7 -43 -55 -43q-24 0 -34.5 11.5t-7.5 31.5l2 17q7 44 54 44zM363 225h-354l10 70h354zM179 175q24 0 35.5 -11.5t7.5 -32.5l-3 -17q-7 -43 -55 -43q-24 0 -34.5 11.5t-7.5 31.5l3 17q8 44 54 44z" />
    <glyph glyph-name="florin.osf" horiz-adv-x="313" 
d="M280 613q38 0 77 -11l-9 -70q-43 12 -73 12t-47 -18.5t-24 -63.5l-8 -56h90l-10 -70h-90l-72 -521h-86l73 521h-74l7 50l76 14l8 57q22 156 162 156z" />
    <glyph glyph-name="dagger.osf" horiz-adv-x="379" 
d="M244 377h132l-11 -80h-132l-41 -297h-85l41 297h-132l11 80h132l21 146h85z" />
    <glyph glyph-name="daggerdbl.osf" horiz-adv-x="399" 
d="M257 397h132l-11 -80h-132l-10 -70h132l-11 -80h-132l-23 -167h-85l23 167h-132l11 80h132l10 70h-132l11 80h132l18 126h85z" />
    <glyph glyph-name="perthousand.osf" horiz-adv-x="1240" 
d="M245 625q78 0 114.5 -43t25.5 -121l-4 -30q-21 -156 -174 -156q-78 0 -116 47t-25 124l5 30q13 77 54.5 113t119.5 36zM276 0h-91l421 613h91zM237 550q-36 0 -56 -19.5t-26 -62.5l-4 -30q-12 -88 64 -88q36 0 55.5 19.5t25.5 63.5l4 30q11 87 -63 87zM676 338
q78 0 114.5 -43t25.5 -121l-4 -30q-21 -156 -174 -156q-78 0 -116 47t-25 124l5 30q13 77 54.5 113t119.5 36zM1055 338q78 0 114.5 -43t25.5 -121l-4 -30q-21 -156 -174 -156q-78 0 -116 47t-25 124l5 30q13 77 54.5 113t119.5 36zM668 263q-36 0 -56 -19.5t-26 -62.5
l-4 -30q-12 -88 64 -88q36 0 55.5 19.5t25.5 63.5l4 30q11 87 -63 87zM1047 263q-36 0 -56 -19.5t-26 -62.5l-4 -30q-12 -88 64 -88q36 0 55.5 19.5t25.5 63.5l4 30q11 87 -63 87z" />
    <glyph glyph-name="Euro.osf" horiz-adv-x="391" 
d="M264 523q51 0 133 -21l-14 -77q-67 24 -124 24q-42 0 -64 -23.5t-31 -75.5l-1 -4h175l-30 -70h-154l-7 -55h151l-30 -70h-128v-1q1 -84 81 -84q59 0 128 26l-8 -80q-66 -24 -134 -24q-151 0 -152 161v2h-69l30 70h45l7 55h-64l30 70h44l1 4q33 173 185 173z" />
    <glyph glyph-name="Omega.osf" horiz-adv-x="576" 
d="M323 667q110 0 162.5 -59.5t39.5 -163.5l-26 -208q-7 -56 -22.5 -91t-48.5 -65h65l-7 -80h-200l6 77h9q44 0 74 34t37 95l29 249q7 66 -26 101.5t-97 35.5q-131 0 -145 -127l-26 -249q-7 -66 15.5 -102.5t64.5 -36.5h9l-6 -77h-200l8 80h66q-55 54 -41 166l26 211
q13 109 67 159.5t167 50.5z" />
    <glyph glyph-name="partialdiff.osf" horiz-adv-x="461" 
d="M143 631l9 64q148 0 214.5 -92t41.5 -268l-24 -170q-12 -89 -56.5 -133t-128.5 -44q-91 0 -132 46t-28 133l16 115q21 157 147 157q36 0 69.5 -19.5t54.5 -58.5l4 25q16 116 -35 180.5t-152 64.5zM213 363q-63 0 -77 -99l-16 -112q-6 -45 15.5 -69t65.5 -24q83 0 95 89
l19 133q-18 40 -46 61t-56 21z" />
    <glyph glyph-name="Delta.osf" horiz-adv-x="522" 
d="M474 57l-5 -57h-474l8 57l246 598h101zM289 577q-86 -250 -196 -501h287q-29 232 -91 501z" />
    <glyph glyph-name="product.osf" horiz-adv-x="575" 
d="M613 575h-90l-93 -760h-85l93 760h-235l-93 -760h-84l92 760h-89l11 80h584z" />
    <glyph glyph-name="summation.osf" horiz-adv-x="399" 
d="M427 578h-292l153 -322l-4 -39l-225 -325h283l-9 -77h-388l9 67l251 356l-166 350l9 67h389z" />
    <glyph glyph-name="minus.osf" horiz-adv-x="390" 
d="M363 225h-354l10 70h354z" />
    <glyph glyph-name="radical.osf" horiz-adv-x="480" 
d="M606 613h-84l-288 -613h-110l-76 488h85q29 -195 50 -426q157 308 282 621h150z" />
    <glyph glyph-name="infinity.osf" horiz-adv-x="517" 
d="M374 362q71 0 102.5 -35.5t26.5 -98.5l-1 -11q-17 -126 -156 -126q-74 0 -104 49q-44 -49 -107 -49q-71 0 -103.5 35.5t-27.5 98.5l1 11q11 126 156 126q35 0 63.5 -13.5t42.5 -35.5q44 49 107 49zM154 292q-63 0 -68 -60l-1 -11q-5 -60 57 -60q64 0 69 60l1 11
q5 60 -58 60zM365 292q-63 0 -68 -60l-1 -11q-5 -60 57 -60q64 0 69 60l1 11q5 60 -58 60z" />
    <glyph glyph-name="integral.osf" horiz-adv-x="316" 
d="M309 695q39 0 77 -11l-9 -70q-43 12 -73 12t-47 -18.5t-24 -63.5l-80 -576q-12 -87 -46.5 -126t-99.5 -39q-44 0 -88 14l10 71q37 -13 72 -13q29 0 44 19.5t22 68.5l80 576q22 156 162 156z" />
    <glyph glyph-name="approxequal.osf" horiz-adv-x="390" 
d="M386 392l-10 -70q-46 -28 -104 -28q-36 0 -77 14t-75 14q-16 0 -41.5 -6t-42.5 -12l-17 -7l10 70q45 28 103 28q36 0 78.5 -14t74.5 -14q16 0 41.5 6.5t42.5 12.5zM365 242l-10 -70q-46 -28 -104 -28q-36 0 -77 14t-75 14q-16 0 -41.5 -6t-42.5 -12l-17 -7l9 70
q46 28 104 28q36 0 78 -14t74 -14q16 0 41.5 6.5t43.5 12.5z" />
    <glyph glyph-name="notequal.osf" horiz-adv-x="390" 
d="M321 381h64l-10 -70h-107l-77 -101h170l-10 -70h-214l-49 -65h-76l49 65h-64l10 70h108l77 101h-171l10 70h214l49 63h76z" />
    <glyph glyph-name="lessequal.osf" horiz-adv-x="390" 
d="M387 371l-290 -94l263 -95l-12 -83l-340 140l11 75l379 140zM335 0h-360l9 70h360z" />
    <glyph glyph-name="greaterequal.osf" horiz-adv-x="390" 
d="M379 314l-11 -75l-380 -140l12 83l289 95l-262 94l11 83zM335 0h-360l9 70h360z" />
    <glyph glyph-name="lozenge.osf" horiz-adv-x="538" 
d="M541 342l-278 -342h-68l-182 342l277 341h68zM115 342l126 -252l198 252l-127 251z" />
    <glyph glyph-name="quotedbl.tf" 
d="M155 429h-85l35 254h85zM295 429h-85l35 254h85z" />
    <glyph glyph-name="numbersign.tf" 
d="M547 460h-80l-37 -265h80l-10 -70h-80l-17 -125h-85l17 125h-156l-17 -125h-85l17 125h-80l10 70h80l37 265h-80l10 70h80l18 125h85l-18 -125h156l18 125h85l-18 -125h80zM226 460l-37 -265h156l37 265h-156z" />
    <glyph glyph-name="dollar.tf" 
d="M381 749l-12 -86q58 -7 98 -18l-11 -81q-56 16 -109 26q-15 1 -35 1q-92 0 -104 -75l-2 -12q-14 -85 61 -116l83 -35q120 -50 98 -195l-2 -13q-23 -148 -172 -156l-12 -83h-75l13 87q-69 11 -124 37l10 85q69 -35 127 -49q20 -2 43 -2q89 0 104 88l2 11q16 89 -57 118
l-89 36q-59 24 -85 81t-10 129l2 9q28 121 171 130l12 83h75z" />
    <glyph glyph-name="percent.tf" horiz-adv-x="870" 
d="M265 667q78 0 114.5 -43t25.5 -121l-4 -30q-21 -156 -174 -156q-78 0 -116 47t-25 124l5 30q13 77 54.5 113t119.5 36zM279 0h-91l450 653h91zM257 592q-36 0 -56 -19.5t-26 -62.5l-4 -30q-12 -88 64 -88q36 0 55.5 19.5t25.5 63.5l4 30q11 87 -63 87zM679 338
q78 0 114.5 -43t25.5 -121l-4 -30q-21 -156 -174 -156q-78 0 -116 47t-25 124l5 30q13 77 54.5 113t119.5 36zM671 263q-36 0 -56 -19.5t-26 -62.5l-4 -30q-12 -88 64 -88q36 0 55.5 19.5t25.5 63.5l4 30q11 87 -63 87z" />
    <glyph glyph-name="quotesingle.tf" 
d="M150 429h-85l35 254h85z" />
    <glyph glyph-name="plus.tf" 
d="M328 356h140l-10 -71h-140l-22 -152h-76l22 152h-140l10 71h140l21 152h76z" />
    <glyph glyph-name="zero.tf" 
d="M327 667q96 0 141 -52.5t30 -155.5l-38 -269q-28 -202 -217 -202q-98 0 -140.5 53.5t-28.5 154.5l38 269q14 103 67 152.5t148 49.5zM320 595q-54 0 -83.5 -29t-38.5 -93l-40 -285q-9 -62 16.5 -95t75.5 -33q55 0 85 29t39 93l40 285q17 128 -94 128z" />
    <glyph glyph-name="one.tf" 
d="M335 73h120l-10 -73h-341l10 73h136l70 500h-2l-149 -57l-7 73l181 66h74z" />
    <glyph glyph-name="two.tf" 
d="M308 667q186 0 163 -169l-2 -15q-6 -45 -29.5 -87.5t-80.5 -107.5l-193 -215h257l-10 -73h-358l9 65l255 293q55 65 65 127l2 12q16 98 -93 98q-58 0 -144 -30l11 77q82 25 148 25z" />
    <glyph glyph-name="three.tf" 
d="M301 667q84 0 127 -43.5t34 -114.5l-4 -31q-15 -104 -107 -137q42 -17 64 -56.5t17 -88.5l-5 -40q-10 -79 -63 -123.5t-146 -44.5q-72 0 -142 26l9 71q70 -29 133 -29q108 0 122 94l7 52q7 51 -16.5 78t-74.5 27h-103l10 66h103q93 0 108 105l4 31q12 93 -87 93
q-50 0 -134 -21l10 69q76 17 134 17z" />
    <glyph glyph-name="four.tf" 
d="M148 199h183l2 14l34 242h82l-36 -256h74l-9 -70h-74l-18 -129h-83l18 129h-255l-16 45l218 481h84z" />
    <glyph glyph-name="five.tf" 
d="M475 582h-242l-29 -206q64 46 137 46q156 0 131 -206l-4 -33q-14 -97 -69 -146t-160 -49q-66 0 -158 29l10 73q100 -29 154 -29q120 0 138 122l4 28q20 140 -72 140q-74 0 -140 -65h-65l52 369h324z" />
    <glyph glyph-name="six.tf" 
d="M329 667q61 0 133 -20l-10 -74q-83 24 -127 24q-59 0 -90 -38.5t-45 -138.5l-10 -67q75 71 148 71q77 0 113 -46.5t24 -135.5l-9 -69q-24 -185 -202 -185q-209 0 -176 236l27 195q19 134 73 191t151 57zM307 350q-66 0 -137 -69l-11 -89q-8 -64 16 -98t79 -34
q100 0 116 108l11 77q7 49 -13.5 77t-60.5 28z" />
    <glyph glyph-name="seven.tf" 
d="M510 595l-326 -595h-91l321 579v2h-284l11 74h378z" />
    <glyph glyph-name="eight.tf" 
d="M322 666q83 0 128.5 -48t34.5 -129l-1 -7q-6 -43 -33.5 -79.5t-59.5 -51.5q96 -38 79 -169l-1 -8q-28 -186 -218 -186q-101 0 -150 49t-39 146l2 17q6 54 37.5 96.5t84.5 61.5q-73 46 -56 144l1 8q21 156 191 156zM317 600q-83 0 -101 -91l-1 -5q-24 -121 83 -121
q86 0 105 110l1 6q9 50 -14.5 75.5t-72.5 25.5zM278 317q-55 0 -89 -33t-40 -88l-1 -12q-7 -66 20 -95.5t87 -29.5q111 0 127 116l1 9q16 133 -105 133z" />
    <glyph glyph-name="nine.tf" 
d="M317 667q94 0 142.5 -54t35.5 -150l-37 -261q-16 -115 -68 -164.5t-153 -49.5q-66 0 -147 29l10 75q25 -11 69.5 -21.5t69.5 -10.5q59 0 90.5 32t42.5 110l14 95q-80 -66 -149 -66q-71 0 -109.5 52.5t-22.5 155.5l7 45q14 91 63.5 137t141.5 46zM315 595
q-102 0 -118 -106l-11 -68q-9 -56 11.5 -86t61.5 -30q57 0 137 65l17 108q8 56 -18.5 86.5t-79.5 30.5z" />
    <glyph glyph-name="less.tf" 
d="M480 431l-292 -114l260 -115l-12 -83l-337 160l10 75l383 160z" />
    <glyph glyph-name="equal.tf" 
d="M468 371h-354l10 70h354zM444 200h-354l10 70h354z" />
    <glyph glyph-name="greater.tf" 
d="M469 354l-10 -75l-383 -160l12 83l292 115l-260 114l12 83z" />
    <glyph glyph-name="asciitilde.tf" 
d="M469 369l-10 -70q-46 -28 -104 -28q-36 0 -77 14t-75 14q-16 0 -41.5 -6.5t-43.5 -12.5l-17 -6l10 70q46 28 104 28q36 0 78 -14t74 -14q16 0 41.5 6t43.5 12z" />
    <glyph glyph-name="cent.tf" 
d="M231 328l-21 -154q-15 -111 69 -111q61 0 118 33l-9 -77q-46 -21 -83 -27l-11 -80h-75l11 79q-61 11 -89 58t-17 124l21 148q23 163 156 178l11 77h75l-11 -79q29 -4 67 -15l-12 -76q-59 22 -103 22q-82 0 -97 -100z" />
    <glyph glyph-name="sterling.tf" 
d="M380 667q64 0 114 -18l-10 -72q-51 20 -101 20q-40 0 -60 -18t-26 -60l-17 -125h110l-10 -70h-110l-17 -120q-7 -55 -19.5 -82.5t-39.5 -47.5h273l-10 -74h-357l8 60q47 48 56 116l21 148h-70l10 70h70l17 120q11 80 51.5 116.5t116.5 36.5z" />
    <glyph glyph-name="currency.tf" 
d="M524 498l-69 -60q12 -37 5 -84l-3 -20q-7 -49 -34 -90l56 -64l-63 -56l-54 63q-44 -24 -102 -24q-57 0 -94 22l-68 -61l-49 56l71 61q-17 41 -10 93l3 20q7 51 31 87l-50 57l64 56l46 -55q47 26 107 26q62 0 101 -28l64 57zM301 452q-47 0 -73.5 -27t-32.5 -71l-3 -20
q-14 -99 78 -99q91 0 105 99l3 20q14 98 -77 98z" />
    <glyph glyph-name="yen.tf" 
d="M348 294h74l-10 -72h-101l-5 -40h100l-10 -72h-100l-14 -110h-85l14 110h-99l10 72h99l5 40h-98l10 72h72l-112 361h93q46 -162 88 -345q79 132 185 345h99z" />
    <glyph glyph-name="section.tf" 
d="M323 695q52 0 122 -20l-12 -77q-53 20 -81 26q-20 2 -36 2q-65 0 -72 -61l-1 -9q-6 -56 39 -76l98 -44q99 -45 87 -146l-2 -16q-5 -45 -38.5 -76.5t-86.5 -42.5q68 -45 58 -136l-2 -17q-14 -120 -167 -120q-52 0 -122 20l12 77q53 -20 81 -26q20 -2 36 -2q74 0 81 61l1 9
q6 56 -39 76l-98 44q-99 44 -87 146l2 16q7 45 40 76.5t84 42.5q-71 45 -57 136l2 17q14 120 158 120zM337 368l-28 12q-51 2 -88 -20t-43 -65l-1 -6q-8 -55 47 -80l28 -13q50 -2 87 20.5t44 65.5l1 6q8 56 -47 80z" />
    <glyph glyph-name="logicalnot.tf" 
d="M438 133h-76l22 152h-285l10 70h361z" />
    <glyph glyph-name="degree.tf" 
d="M240 695q80 0 119.5 -48t28.5 -129l-2 -21q-13 -83 -52.5 -120.5t-118.5 -37.5q-80 0 -120.5 48t-29.5 129l3 21q12 82 52.5 120t119.5 38zM238 626q-41 0 -63 -22t-28 -71l-3 -21q-7 -45 10.5 -74.5t61.5 -29.5q43 0 64 24t27 69l3 21q7 50 -12.5 77t-59.5 27z" />
    <glyph glyph-name="plusminus.tf" 
d="M328 356h140l-10 -71h-140l-22 -152h-76l22 152h-140l10 71h140l21 152h76zM417 0h-356l9 70h356z" />
    <glyph glyph-name="mu.tf" 
d="M413 0h-80l4 28l46 162l-2 2l-3 -1q-68 -203 -184 -203q-26 0 -45 13q-15 -95 -40 -186h-84q29 112 60 328l50 345h85l-46 -313q-9 -61 2 -86t42 -25q34 0 62.5 27.5t46.5 70.5t29 84t17 80l23 162h86z" />
    <glyph glyph-name="multiply.tf" 
d="M457 428l-121 -106l93 -108l-62 -53l-93 107l-120 -105l-43 50l120 105l-92 108l61 54l93 -108l121 106z" />
    <glyph glyph-name="divide.tf" 
d="M311 509q50 0 43 -44l-2 -17q-7 -43 -55 -43q-24 0 -34.5 11.5t-7.5 31.5l2 17q7 44 54 44zM457 285h-354l10 70h354zM273 235q24 0 35.5 -11.5t7.5 -32.5l-3 -17q-7 -43 -55 -43q-24 0 -34.5 11.5t-7.5 31.5l3 17q8 44 54 44z" />
    <glyph glyph-name="florin.tf" 
d="M400 667q38 0 77 -11l-9 -70q-43 12 -73 12t-47 -18.5t-24 -63.5l-8 -56h90l-10 -70h-90l-79 -574h-86l80 574h-74l7 50l76 14l8 57q22 156 162 156z" />
    <glyph glyph-name="uni2007.tf" 
 />
    <glyph glyph-name="dagger.tf" 
d="M350 488h152l-11 -80h-152l-57 -408h-85l57 408h-152l11 80h152l24 167h85z" />
    <glyph glyph-name="daggerdbl.tf" 
d="M349 488h152l-11 -80h-152l-20 -140h152l-11 -80h-152l-26 -188h-85l26 188h-152l11 80h152l20 140h-152l11 80h152l24 167h85z" />
    <glyph glyph-name="perthousand.tf" horiz-adv-x="1250" 
d="M250 625q78 0 114.5 -43t25.5 -121l-4 -30q-21 -156 -174 -156q-78 0 -116 47t-25 124l5 30q13 77 54.5 113t119.5 36zM281 0h-91l421 613h91zM242 550q-36 0 -56 -19.5t-26 -62.5l-4 -30q-12 -88 64 -88q36 0 55.5 19.5t25.5 63.5l4 30q11 87 -63 87zM681 338
q78 0 114.5 -43t25.5 -121l-4 -30q-21 -156 -174 -156q-78 0 -116 47t-25 124l5 30q13 77 54.5 113t119.5 36zM1060 338q78 0 114.5 -43t25.5 -121l-4 -30q-21 -156 -174 -156q-78 0 -116 47t-25 124l5 30q13 77 54.5 113t119.5 36zM673 263q-36 0 -56 -19.5t-26 -62.5
l-4 -30q-12 -88 64 -88q36 0 55.5 19.5t25.5 63.5l4 30q11 87 -63 87zM1052 263q-36 0 -56 -19.5t-26 -62.5l-4 -30q-12 -88 64 -88q36 0 55.5 19.5t25.5 63.5l4 30q11 87 -63 87z" />
    <glyph glyph-name="Euro.tf" 
d="M386 667q71 0 149 -25l-13 -79q-75 30 -139 30q-110 0 -127 -124l-5 -38h226l-25 -70h-211l-9 -67h199l-25 -70h-184l-4 -30q-10 -69 13 -98.5t83 -29.5q63 0 150 31l-9 -80q-78 -29 -156 -29q-195 0 -165 219l2 17h-83l25 70h68l10 67h-78l25 70h63l4 32q27 204 216 204
z" />
    <glyph glyph-name="partialdiff.tf" 
d="M195 631l9 64q148 0 214.5 -92t41.5 -268l-24 -170q-12 -89 -56.5 -133t-128.5 -44q-91 0 -132 46t-28 133l16 115q21 157 147 157q36 0 69.5 -19.5t54.5 -58.5l4 25q16 116 -35 180.5t-152 64.5zM265 363q-63 0 -77 -99l-16 -112q-6 -45 15.5 -69t65.5 -24q83 0 95 89
l19 133q-18 40 -46 61t-56 21z" />
    <glyph glyph-name="product.tf" 
d="M613 575h-90l-93 -760h-85l93 760h-235l-93 -760h-84l92 760h-89l11 80h584z" />
    <glyph glyph-name="summation.tf" 
d="M509 578h-292l153 -322l-4 -39l-225 -325h283l-9 -77h-388l9 67l251 356l-166 350l9 67h389z" />
    <glyph glyph-name="minus.tf" 
d="M457 285h-354l9 70h354z" />
    <glyph glyph-name="radical.tf" 
d="M656 613h-84l-288 -613h-110l-76 488h85q29 -195 50 -426q157 308 282 621h150z" />
    <glyph glyph-name="infinity.tf" 
d="M403 421q71 0 102.5 -35.5t26.5 -98.5l-1 -11q-17 -126 -156 -126q-74 0 -104 49q-44 -49 -107 -49q-71 0 -103.5 35.5t-27.5 98.5l1 11q11 126 156 126q35 0 63.5 -13.5t42.5 -35.5q44 49 107 49zM183 351q-63 0 -68 -60l-1 -11q-5 -60 57 -60q64 0 69 60l1 11
q5 60 -58 60zM394 351q-63 0 -68 -60l-1 -11q-5 -60 57 -60q64 0 69 60l1 11q5 60 -58 60z" />
    <glyph glyph-name="integral.tf" 
d="M195 -37l80 576q22 156 162 156q39 0 77 -11l-9 -70q-43 12 -73 12t-47 -18.5t-24 -63.5l-80 -576q-12 -87 -46.5 -126t-99.5 -39q-44 0 -88 14l10 71q37 -13 72 -13q29 0 44 19.5t22 68.5z" />
    <glyph glyph-name="approxequal.tf" 
d="M479 451l-10 -70q-46 -28 -104 -28q-36 0 -77 14t-75 14q-16 0 -41.5 -6.5t-42.5 -12.5l-17 -6l10 70q45 28 103 28q36 0 78.5 -14t74.5 -14q16 0 41.5 6t42.5 12zM458 301l-10 -70q-46 -28 -104 -28q-36 0 -77 14t-75 14q-16 0 -41.5 -6.5t-42.5 -12.5l-17 -6l9 70
q46 28 104 28q36 0 78 -14t74 -14q16 0 41.5 6t42.5 12z" />
    <glyph glyph-name="notequal.tf" 
d="M414 441h64l-9 -70h-107l-78 -101h170l-9 -70h-214l-50 -65h-76l50 65h-64l9 70h108l78 101h-171l9 70h214l49 63h76z" />
    <glyph glyph-name="lessequal.tf" 
d="M480 431l-292 -114l260 -115l-12 -83l-337 160l10 75l383 160zM422 20h-360l10 70h360z" />
    <glyph glyph-name="greaterequal.tf" 
d="M469 354l-10 -75l-383 -160l12 83l292 115l-260 114l12 83zM422 20h-360l10 70h360z" />
    <glyph glyph-name="lozenge.tf" 
d="M552 342l-278 -342h-68l-182 342l277 341h68zM126 342l126 -252l198 252l-127 251z" />
    <glyph glyph-name="quotedbl.tosf" 
d="M155 429h-85l35 254h85zM295 429h-85l35 254h85z" />
    <glyph glyph-name="numbersign.tosf" 
d="M526 343h-80l-23 -163h80l-10 -70h-80l-15 -110h-85l15 110h-146l-15 -110h-85l15 110h-80l10 70h80l23 163h-80l10 70h80l15 110h85l-15 -110h146l15 110h85l-15 -110h80zM215 343l-23 -163h146l23 163h-146z" />
    <glyph glyph-name="dollar.tosf" 
d="M370 605l-13 -85q44 -6 86 -19l-12 -75q-42 16 -88 26q-20 2 -37 2q-76 0 -86 -51l-3 -16q-7 -41 50 -67l82 -38q94 -44 85 -137l-3 -29q-6 -52 -44.5 -86t-103.5 -41l-12 -83h-75l12 86q-65 10 -110 34l13 77q33 -18 106 -40q24 -3 37 -3q85 0 95 64l2 19q3 46 -45 67
l-80 37q-107 49 -90 145l5 26q19 93 142 104l12 83h75z" />
    <glyph glyph-name="percent.tosf" horiz-adv-x="870" 
d="M248 625q78 0 114.5 -43t25.5 -121l-4 -30q-21 -156 -174 -156q-78 0 -116 47t-25 124l5 30q13 77 54.5 113t119.5 36zM279 0h-91l421 613h91zM240 550q-36 0 -56 -19.5t-26 -62.5l-4 -30q-12 -88 64 -88q36 0 55.5 19.5t25.5 63.5l4 30q11 87 -63 87zM679 338
q78 0 114.5 -43t25.5 -121l-4 -30q-21 -156 -174 -156q-78 0 -116 47t-25 124l5 30q13 77 54.5 113t119.5 36zM671 263q-36 0 -56 -19.5t-26 -62.5l-4 -30q-12 -88 64 -88q36 0 55.5 19.5t25.5 63.5l4 30q11 87 -63 87z" />
    <glyph glyph-name="quotesingle.tosf" 
d="M150 429h-85l35 254h85z" />
    <glyph glyph-name="plus.tosf" 
d="M319 296h140l-10 -71h-140l-21 -152h-76l21 152h-140l10 71h140l21 152h76z" />
    <glyph glyph-name="zero.tosf" 
d="M306 523q91 0 136.5 -53t30.5 -155l-17 -125q-28 -202 -211 -202q-93 0 -137.5 54.5t-30.5 153.5l17 125q28 202 212 202zM300 451q-103 0 -120 -122l-19 -141q-9 -63 15.5 -95.5t74.5 -32.5q102 0 119 122l19 141q9 64 -15.5 96t-73.5 32z" />
    <glyph glyph-name="one.tosf" 
d="M121 70h128l51 359h-2l-141 -57l-7 73l171 66h75l-62 -441h112l-9 -70h-325z" />
    <glyph glyph-name="two.tosf" 
d="M287 523q89 0 128.5 -41t31.5 -117l-1 -9q-11 -91 -116 -175l-139 -109h212l-10 -72h-327l9 65l226 186q30 25 42 47t17 57l1 7q7 47 -14.5 69t-73.5 22q-56 0 -132 -32l10 77q75 25 136 25z" />
    <glyph glyph-name="three.tosf" 
d="M285 523q82 0 121.5 -41.5t31.5 -116.5l-1 -9q-11 -102 -121 -135q49 -16 75 -55.5t19 -87.5l-3 -23q-25 -188 -343 -189l10 73q134 0 187 28.5t62 91.5l2 18q7 58 -15.5 83.5t-76.5 25.5h-89l9 66h89q95 0 109 99l2 15q6 47 -13.5 68.5t-64.5 21.5t-131 -19l10 70
q80 16 131 16z" />
    <glyph glyph-name="four.tosf" 
d="M136 68h188l27 189h82l-27 -189h74l-9 -68h-74l-17 -115h-83l17 115h-254l-16 45l223 478l68 -22z" />
    <glyph glyph-name="five.tosf" 
d="M439 439h-226l-29 -203q65 48 142 48q137 0 116 -184l-2 -17q-13 -113 -97 -164.5t-271 -52.5l10 73q102 0 159.5 15.5t81.5 45t31 82.5l3 21q8 54 -10 82t-56 28q-66 0 -134 -65h-65l51 363h306z" />
    <glyph glyph-name="six.tosf" 
d="M330 612q60 0 133 -20l-10 -74q-83 24 -127 24q-59 0 -90 -38.5t-45 -138.5l-6 -43q71 67 139 67q73 0 108 -47t22 -135l-5 -34q-13 -93 -60 -139t-136 -46q-97 0 -140.5 59t-26.5 177l20 140q19 134 73 191t151 57zM303 315q-60 0 -128 -65l-8 -58q-9 -63 14.5 -97.5
t72.5 -34.5q48 0 74 25.5t35 82.5l7 42q8 49 -11 77t-56 28z" />
    <glyph glyph-name="seven.tosf" 
d="M492 453l-324 -567h-91l327 553v2h-293l10 70h379z" />
    <glyph glyph-name="eight.tosf" 
d="M313 613q79 0 123.5 -47t31.5 -122l-1 -6q-15 -85 -84 -119q88 -41 75 -149l-2 -16q-10 -79 -62.5 -122.5t-145.5 -43.5q-95 0 -144.5 49t-38.5 130l2 15q14 109 121 146q-34 20 -49.5 57.5t-7.5 80.5l1 6q24 141 181 141zM308 547q-78 0 -92 -85l-1 -6q-7 -55 11.5 -79
t65.5 -24q44 0 64 18t29 69l1 6q16 101 -78 101zM274 287q-51 0 -82.5 -28t-38.5 -78l-1 -7q-8 -53 19 -84t81 -31q103 0 117 96l3 20q8 52 -18.5 82t-79.5 30z" />
    <glyph glyph-name="nine.tosf" 
d="M303 523q90 0 134.5 -54t31.5 -150l-31 -231q-16 -115 -68.5 -165t-153.5 -50q-67 0 -131 23l10 75q23 -10 62.5 -18t60.5 -8q59 0 91.5 32.5t42.5 110.5l11 81q-81 -67 -146 -67q-68 0 -101 49t-21 144l7 51q12 90 60.5 133.5t140.5 43.5zM296 451q-50 0 -75.5 -24
t-33.5 -76l-9 -59q-9 -56 10.5 -86t56.5 -30q48 0 128 65l14 93q7 56 -17 86.5t-74 30.5z" />
    <glyph glyph-name="less.tosf" 
d="M471 371l-292 -114l260 -115l-12 -83l-337 160l10 75l383 160z" />
    <glyph glyph-name="equal.tosf" 
d="M460 311h-354l10 70h354zM436 140h-354l10 70h354z" />
    <glyph glyph-name="greater.tosf" 
d="M461 294l-10 -75l-383 -160l12 83l292 115l-260 114l12 83z" />
    <glyph glyph-name="asciitilde.tosf" 
d="M460 309l-10 -70q-46 -28 -104 -28q-36 0 -77 14t-75 14q-16 0 -41.5 -6.5t-42.5 -12.5l-18 -6l10 70q46 28 104 28q36 0 78 -14t74 -14q16 0 41.5 6t42.5 12z" />
    <glyph glyph-name="cent.tosf" 
d="M236 328l-21 -154q-15 -111 69 -111q61 0 118 33l-9 -77q-46 -21 -83 -27l-11 -80h-75l11 79q-61 11 -89 58t-17 124l21 148q23 163 156 178l11 77h75l-11 -79q29 -4 67 -15l-12 -76q-59 22 -103 22q-82 0 -97 -100z" />
    <glyph glyph-name="sterling.tosf" 
d="M358 522q64 0 114 -18l-10 -72q-51 20 -101 20q-40 0 -60 -18t-26 -60l-7 -53h95l-10 -70h-95l-7 -47q-7 -55 -19.5 -82.5t-39.5 -47.5h263l-10 -74h-347l8 60q47 48 56 116l11 75h-70l10 70h70l7 48q11 80 51.5 116.5t116.5 36.5z" />
    <glyph glyph-name="currency.tosf" 
d="M513 427l-69 -60q12 -37 5 -84l-3 -20q-7 -49 -34 -90l56 -64l-63 -56l-54 63q-43 -24 -102 -24q-57 0 -94 22l-68 -61l-49 56l71 61q-17 41 -10 93l3 20q7 51 31 87l-50 57l64 56l46 -55q47 26 107 26q62 0 101 -28l64 57zM290 381q-47 0 -73.5 -27t-32.5 -71l-3 -20
q-14 -99 78 -99q91 0 105 99l3 20q14 98 -77 98z" />
    <glyph glyph-name="yen.tosf" 
d="M345 246h66l-10 -70h-96l-5 -36h96l-10 -70h-96l-9 -70h-82l9 70h-96l10 70h96l5 36h-96l10 70h65l-91 265h87q46 -144 73 -260q87 148 145 260h95z" />
    <glyph glyph-name="section.tosf" 
d="M324 695q52 0 122 -20l-12 -77q-53 20 -81 26q-20 2 -36 2q-65 0 -72 -61l-1 -9q-6 -56 39 -76l98 -44q99 -45 87 -146l-2 -16q-5 -45 -38.5 -76.5t-86.5 -42.5q68 -45 58 -136l-2 -17q-14 -120 -167 -120q-52 0 -122 20l12 77q53 -20 81 -26q20 -2 36 -2q74 0 81 61l1 9
q6 56 -39 76l-98 44q-99 44 -87 146l2 16q7 45 40 76.5t84 42.5q-71 45 -57 136l2 17q14 120 158 120zM338 368l-28 12q-51 2 -88 -20t-43 -65l-1 -6q-8 -55 47 -80l28 -13q50 -2 87 20.5t44 65.5l1 6q8 56 -47 80z" />
    <glyph glyph-name="logicalnot.tosf" 
d="M430 73h-76l21 152h-285l10 70h361z" />
    <glyph glyph-name="degree.tosf" 
d="M240 695q80 0 119.5 -48t28.5 -129l-2 -21q-13 -83 -52.5 -120.5t-118.5 -37.5q-80 0 -120.5 48t-29.5 129l3 21q12 82 52.5 120t119.5 38zM238 626q-41 0 -63 -22t-28 -71l-3 -21q-7 -45 10.5 -74.5t61.5 -29.5q43 0 64 24t27 69l3 21q7 50 -12.5 77t-59.5 27z" />
    <glyph glyph-name="plusminus.tosf" 
d="M319 296h140l-10 -71h-140l-16 -112h-76l16 112h-140l10 71h140l21 152h76zM417 0h-356l9 70h356z" />
    <glyph glyph-name="mu.tosf" 
d="M413 0h-80l4 28l46 162l-2 2l-3 -1q-68 -203 -184 -203q-26 0 -45 13q-15 -95 -40 -186h-84q29 112 60 328l50 345h85l-46 -313q-9 -61 2 -86t42 -25q34 0 62.5 27.5t46.5 70.5t29 84t17 80l23 162h86z" />
    <glyph glyph-name="multiply.tosf" 
d="M448 368l-121 -106l93 -108l-61 -53l-93 107l-120 -105l-43 50l120 105l-92 108l61 54l92 -108l121 106z" />
    <glyph glyph-name="divide.tosf" 
d="M303 449q50 0 43 -44l-2 -17q-7 -43 -55 -43q-24 0 -34.5 11.5t-7.5 31.5l2 17q7 44 54 44zM449 225h-354l10 70h354zM265 175q24 0 35.5 -11.5t7.5 -32.5l-3 -17q-7 -43 -55 -43q-24 0 -34.5 11.5t-7.5 31.5l3 17q8 44 54 44z" />
    <glyph glyph-name="florin.tosf" 
d="M412 613q38 0 77 -11l-9 -70q-43 12 -73 12t-47 -18.5t-24 -63.5l-8 -56h90l-10 -70h-90l-72 -521h-86l73 521h-74l7 50l76 14l8 57q22 156 162 156z" />
    <glyph glyph-name="uni2007.tosf" 
 />
    <glyph glyph-name="dagger.tosf" 
d="M334 377h132l-11 -80h-132l-41 -297h-85l41 297h-132l11 80h132l21 146h85z" />
    <glyph glyph-name="daggerdbl.tosf" 
d="M337 397h132l-11 -80h-132l-10 -70h132l-11 -80h-132l-23 -167h-85l23 167h-132l11 80h132l10 70h-132l11 80h132l18 126h85z" />
    <glyph glyph-name="perthousand.tosf" horiz-adv-x="1250" 
d="M248 625q78 0 114.5 -43t25.5 -121l-4 -30q-21 -156 -174 -156q-78 0 -116 47t-25 124l5 30q13 77 54.5 113t119.5 36zM279 0h-91l421 613h91zM240 550q-36 0 -56 -19.5t-26 -62.5l-4 -30q-12 -88 64 -88q36 0 55.5 19.5t25.5 63.5l4 30q11 87 -63 87zM679 338
q78 0 114.5 -43t25.5 -121l-4 -30q-21 -156 -174 -156q-78 0 -116 47t-25 124l5 30q13 77 54.5 113t119.5 36zM1058 338q78 0 114.5 -43t25.5 -121l-4 -30q-21 -156 -174 -156q-78 0 -116 47t-25 124l5 30q13 77 54.5 113t119.5 36zM671 263q-36 0 -56 -19.5t-26 -62.5
l-4 -30q-12 -88 64 -88q36 0 55.5 19.5t25.5 63.5l4 30q11 87 -63 87zM1050 263q-36 0 -56 -19.5t-26 -62.5l-4 -30q-12 -88 64 -88q36 0 55.5 19.5t25.5 63.5l4 30q11 87 -63 87z" />
    <glyph glyph-name="Euro.tosf" 
d="M359 523q51 0 133 -21l-14 -77q-67 24 -124 24q-42 0 -64 -23.5t-31 -75.5l-1 -4h175l-30 -70h-154l-7 -55h151l-30 -70h-128v-1q1 -84 81 -84q59 0 128 26l-8 -80q-66 -24 -134 -24q-151 0 -152 161v2h-69l30 70h45l7 55h-64l30 70h44l1 4q33 173 185 173z" />
    <glyph glyph-name="partialdiff.tosf" 
d="M195 631l9 64q148 0 214.5 -92t41.5 -268l-24 -170q-12 -89 -56.5 -133t-128.5 -44q-91 0 -132 46t-28 133l16 115q21 157 147 157q36 0 69.5 -19.5t54.5 -58.5l4 25q16 116 -35 180.5t-152 64.5zM265 363q-63 0 -77 -99l-16 -112q-6 -45 15.5 -69t65.5 -24q83 0 95 89
l19 133q-18 40 -46 61t-56 21z" />
    <glyph glyph-name="product.tosf" 
d="M613 575h-90l-93 -760h-85l93 760h-235l-93 -760h-84l92 760h-89l11 80h584z" />
    <glyph glyph-name="summation.tosf" 
d="M509 578h-292l153 -322l-4 -39l-225 -325h283l-9 -77h-388l9 67l251 356l-166 350l9 67h389z" />
    <glyph glyph-name="minus.tosf" 
d="M448 225h-354l10 70h354z" />
    <glyph glyph-name="radical.tosf" 
d="M656 613h-84l-288 -613h-110l-76 488h85q29 -195 50 -426q157 308 282 621h150z" />
    <glyph glyph-name="infinity.tosf" 
d="M396 362q71 0 102.5 -35.5t26.5 -98.5l-1 -11q-17 -126 -156 -126q-74 0 -104 49q-44 -49 -107 -49q-71 0 -103.5 35.5t-27.5 98.5l1 11q11 126 156 126q35 0 63.5 -13.5t42.5 -35.5q44 49 107 49zM176 292q-63 0 -68 -60l-1 -11q-5 -60 57 -60q64 0 69 60l1 11
q5 60 -58 60zM387 292q-63 0 -68 -60l-1 -11q-5 -60 57 -60q64 0 69 60l1 11q5 60 -58 60z" />
    </font>
</defs>
</svg>
