<?xml version="1.0" standalone="no"?>
<!DOCTYPE svg PUBLIC "-//W3C//DTD SVG 1.1//EN" "http://www.w3.org/Graphics/SVG/1.1/DTD/svg11.dtd" >
<svg>
<metadata>
Created by FontForge 20090622 at Sun Oct 23 14:47:56 2016
 By deploy user
&#194;&#169; 2014, Copyright by Botio Nikoltchev. All rights reserved.
</metadata>
<defs>
<font id="RopaSansPTT-Italic" horiz-adv-x="560" >
  <font-face 
    font-family="Ropa Sans PTT"
    font-weight="400"
    font-style="italic"
    font-stretch="normal"
    units-per-em="1000"
    panose-1="2 11 5 4 3 1 1 1 1 2"
    ascent="800"
    descent="-200"
    x-height="488"
    cap-height="655"
    bbox="-124 -337 1231 885"
    underline-thickness="50"
    underline-position="-50"
    slope="-7"
    unicode-range="U+000D-U+FEFF"
  />
<missing-glyph horiz-adv-x="485" 
d="M30 655h425v-655h-425v655zM390 65v525h-295v-525h295z" />
    <glyph glyph-name="f_f" unicode="ff" horiz-adv-x="556" 
d="M540 695q18 0 41 -3.5t36 -7.5l-9 -70q-19 5 -39 8.5t-34 3.5q-30 0 -47 -18t-24 -64l-8 -56h90l-10 -70h-90l-62 -450q-12 -88 -47 -126.5t-99 -38.5q-20 0 -45.5 4.5t-42.5 9.5l10 71q15 -5 34 -9t38 -4q28 0 43.5 18.5t22.5 69.5l63 455h-169l-51 -370
q-12 -88 -47 -126.5t-99 -38.5q-20 0 -45.5 4.5t-42.5 9.5l10 71q15 -5 34 -9t38 -4q28 0 43.5 18.5t22.5 69.5l52 375h-74l7 50l76 14l7 49q11 81 52 118.5t112 37.5q37 0 75.5 -7t70.5 -20q41 35 107 35zM289 618q-38 0 -55.5 -18t-24.5 -64l-7 -48h169l7 51q2 17 5.5 31
t8.5 28q-26 9 -53.5 14.5t-49.5 5.5z" />
    <glyph glyph-name="f_f_i" unicode="ffi" horiz-adv-x="719" 
d="M542 695q23 0 55 -5.5t60 -13.5l-11 -75q-26 11 -55.5 18t-50.5 7q-35 0 -52 -18t-24 -64l-8 -56h254l-68 -488h-85l58 418h-169l-62 -450q-12 -88 -47 -126.5t-99 -38.5q-20 0 -45.5 4.5t-42.5 9.5l10 71q15 -5 34 -9t38 -4q28 0 43.5 18.5t22.5 69.5l63 455h-169
l-51 -370q-12 -88 -47 -126.5t-99 -38.5q-20 0 -45.5 4.5t-42.5 9.5l10 71q15 -5 34 -9t38 -4q28 0 43.5 18.5t22.5 69.5l52 375h-74l7 50l76 14l7 49q11 81 52 118.5t112 37.5q37 0 75.5 -7t70.5 -20q41 35 109 35zM289 618q-38 0 -55.5 -18t-24.5 -64l-7 -48h169l7 51
q2 17 5.5 31t8.5 28q-26 9 -53.5 14.5t-49.5 5.5z" />
    <glyph glyph-name="f_f_j" unicode="ffj" horiz-adv-x="725" 
d="M542 695q23 0 55 -5.5t60 -13.5l-11 -75q-26 11 -55.5 18t-50.5 7q-35 0 -52 -18t-24 -64l-8 -56h254l-74 -539q-5 -39 -15.5 -67t-27.5 -45.5t-41.5 -25.5t-58.5 -8q-19 0 -43.5 4.5t-39.5 9.5l1 7l9 64q12 -5 33.5 -10t39.5 -5q22 0 36.5 13t20.5 55l65 477h-169
l-49 -353q-7 -50 -19 -85t-30 -56.5t-42.5 -31t-56.5 -9.5q-20 0 -45.5 4.5t-42.5 9.5l10 71q15 -5 34 -9t38 -4q14 0 25 4.5t19 17t14 33.5t11 54l49 354h-169l-51 -370q-12 -88 -47 -126.5t-99 -38.5q-20 0 -45.5 4.5t-42.5 9.5l10 71q15 -5 34 -9t38 -4q28 0 43.5 18.5
t22.5 69.5l52 375h-74l7 50l76 14l7 49q11 81 52 118.5t112 37.5q37 0 75.5 -7t70.5 -20q41 35 109 35zM289 618q-38 0 -55.5 -18t-24.5 -64l-7 -48h169l7 51q2 17 5.5 31t8.5 28q-26 9 -53.5 14.5t-49.5 5.5z" />
    <glyph glyph-name="f_f_l" unicode="ffl" horiz-adv-x="753" 
d="M542 695q23 0 55 -5.5t60 -13.5l70 4q-1 -38 -4.5 -89.5t-14.5 -126.5l-65 -464h-85l64 458q5 36 9.5 73t6.5 73q-25 11 -51.5 16.5t-46.5 5.5q-35 0 -52 -18t-24 -64l-8 -56h90l-10 -70h-90l-62 -450q-12 -88 -47 -126.5t-99 -38.5q-20 0 -45.5 4.5t-42.5 9.5l10 71
q15 -5 34 -9t38 -4q28 0 43.5 18.5t22.5 69.5l63 455h-169l-51 -370q-12 -88 -47 -126.5t-99 -38.5q-20 0 -45.5 4.5t-42.5 9.5l10 71q15 -5 34 -9t38 -4q28 0 43.5 18.5t22.5 69.5l52 375h-74l7 50l76 14l7 49q11 81 52 118.5t112 37.5q37 0 75.5 -7t70.5 -20q41 35 109 35
zM289 618q-38 0 -55.5 -18t-24.5 -64l-7 -48h169l7 51q2 17 5.5 31t8.5 28q-26 9 -53.5 14.5t-49.5 5.5z" />
    <glyph glyph-name="f_i" unicode="fi" horiz-adv-x="509" 
d="M299 695q23 0 55 -5.5t60 -13.5l-11 -75q-26 11 -55.5 18t-50.5 7q-35 0 -52 -18t-24 -64l-8 -56h254l-68 -488h-85l58 418h-169l-62 -450q-12 -88 -47 -126.5t-99 -38.5q-20 0 -45.5 4.5t-42.5 9.5l10 71q15 -5 34 -9t38 -4q28 0 43.5 18.5t22.5 69.5l63 455h-74l7 50
l76 14l8 57q11 81 52 118.5t112 37.5z" />
    <glyph glyph-name="f_j" unicode="fj" horiz-adv-x="498" 
d="M288 695q23 0 55 -5.5t60 -13.5l-11 -75q-26 11 -55.5 18t-50.5 7q-35 0 -52 -18t-24 -64l-8 -56h254l-74 -539q-5 -39 -15.5 -67t-27.5 -45.5t-41.5 -25.5t-58.5 -8q-19 0 -43.5 4.5t-39.5 9.5l1 7l9 64q12 -5 33.5 -10t39.5 -5q22 0 36.5 12.5t20.5 55.5l65 477h-169
l-49 -353q-7 -50 -19 -85t-30 -56.5t-42.5 -31t-56.5 -9.5q-20 0 -45.5 4.5t-42.5 9.5l10 71q15 -5 34 -9t38 -4q14 0 25 4.5t19 17t14 33.5t11 54l49 354h-74l7 50l76 14l8 57q11 81 52 118.5t112 37.5z" />
    <glyph glyph-name="f_l" unicode="fl" horiz-adv-x="519" 
d="M304 695q23 0 55 -5.5t60 -13.5l69 4q-1 -38 -4.5 -89.5t-14.5 -126.5l-65 -464h-85l64 458q5 36 9.5 73t6.5 74q-24 10 -51 15.5t-46 5.5q-35 0 -52 -18t-24 -64l-8 -56h90l-10 -70h-90l-62 -450q-13 -91 -48.5 -128t-97.5 -37q-20 0 -45.5 4.5t-42.5 9.5l10 71
q15 -5 34 -9t38 -4q28 0 43.5 18.5t22.5 69.5l63 455h-74l7 50l76 14l8 57q22 156 164 156z" />
    <glyph glyph-name=".notdef" horiz-adv-x="485" 
d="M30 655h425v-655h-425v655zM390 65v525h-295v-525h295z" />
    <glyph glyph-name=".null" horiz-adv-x="0" 
 />
    <glyph glyph-name=".null" horiz-adv-x="0" 
 />
    <glyph glyph-name="nonmarkingreturn" unicode="&#xd;" horiz-adv-x="180" 
 />
    <glyph glyph-name="space" unicode=" " horiz-adv-x="180" 
 />
    <glyph glyph-name="exclam" unicode="!" horiz-adv-x="211" 
d="M53 200l62 495h95l-76 -495h-81zM76 108q28 0 42 -13.5t11 -35.5l-4 -29q-3 -20 -16.5 -31t-42.5 -11q-28 0 -41.5 14t-10.5 34l3 23q3 26 16.5 37.5t42.5 11.5z" />
    <glyph glyph-name="quotedbl" unicode="&#x22;" horiz-adv-x="315" 
d="M65 429l35 254h85l-35 -254h-85zM205 429l35 254h85l-35 -254h-85z" />
    <glyph glyph-name="numbersign" unicode="#" horiz-adv-x="556" 
d="M553 488l-10 -70h-80l-31 -223h80l-10 -70h-80l-17 -125h-85l17 125h-156l-17 -125h-85l17 125h-80l10 70h80l31 223h-80l10 70h80l18 125h85l-18 -125h156l18 125h85l-18 -125h80zM191 195h156l31 223h-156z" />
    <glyph glyph-name="dollar" unicode="$" horiz-adv-x="441" 
d="M314 610q27 -4 53.5 -10t49.5 -15l-13 -76q-29 9 -57.5 17t-54.5 13q-7 1 -16 1h-14q-54 0 -80.5 -20.5t-32.5 -56.5l-1 -6q-1 -7 -1.5 -12.5t-0.5 -11.5q0 -63 66 -85l60 -21q66 -23 96.5 -61.5t30.5 -91.5q0 -16 -3 -32l-1 -7q-5 -31 -15.5 -56t-30 -43.5t-49.5 -30
t-73 -15.5l-12 -84h-75l12 83q-30 3 -62.5 11t-58.5 19l11 78q29 -12 60 -21t58 -14q6 -1 11 -1h11q67 0 94.5 19.5t32.5 57.5l2 15q1 4 1 7.5v6.5q0 29 -18 49t-59 34l-56 20q-65 23 -92.5 60t-27.5 91q0 24 4 47l1 6q10 64 51 98.5t125 39.5l11 83h75z" />
    <glyph glyph-name="percent" unicode="%" horiz-adv-x="860" 
d="M245 625q70 0 106 -34t36 -97v-16.5t-2 -16.5l-4 -30q-21 -156 -174 -156q-69 0 -106.5 36.5t-37.5 98.5q0 16 3 36l5 30q13 77 54 113t120 36zM185 0l421 613h91l-421 -613h-91zM237 550q-36 0 -56 -19t-26 -63l-4 -30q-1 -6 -1.5 -12t-0.5 -11q0 -65 66 -65
q36 0 55.5 19t25.5 64l4 30q1 6 1.5 12t0.5 11q0 34 -16.5 49t-48.5 15zM676 338q70 0 106 -34t36 -97v-16.5t-2 -16.5l-4 -30q-21 -156 -174 -156q-69 0 -106.5 36.5t-37.5 98.5q0 16 3 36l5 30q13 77 54 113t120 36zM668 263q-36 0 -56 -19t-26 -63l-4 -30q-1 -6 -1.5 -12
t-0.5 -11q0 -65 66 -65q36 0 55.5 19t25.5 64l4 30q1 6 1.5 12t0.5 11q0 34 -16.5 49t-48.5 15z" />
    <glyph glyph-name="ampersand" unicode="&#x26;" horiz-adv-x="540" 
d="M294 667q28 0 61 -4.5t65 -11.5l-12 -74q-25 8 -56.5 14t-63.5 6q-51 0 -78.5 -23.5t-31.5 -68.5l-2 -22q-5 -50 25.5 -83t92.5 -33h91l10 73h82l-10 -73h74l-10 -69h-74l-38 -275l-59 -16t-49 -11t-44.5 -6t-45.5 -2q-102 0 -152 43.5t-50 111.5q0 9 1 18.5t3 19.5l3 17
q9 51 49 88.5t112 53.5q-48 20 -71.5 56.5t-23.5 81.5v11t1 11l3 22q9 64 59 104.5t139 40.5zM278 298q-75 0 -117.5 -30.5t-50.5 -81.5l-2 -14q-7 -49 25.5 -80t104.5 -31q52 0 106 14l31 223h-97z" />
    <glyph glyph-name="quotesingle" unicode="'" horiz-adv-x="175" 
d="M65 429l35 254h85l-35 -254h-85z" />
    <glyph glyph-name="parenleft" unicode="(" horiz-adv-x="231" 
d="M298 677q-12 2 -22 3t-18 1q-29 0 -39.5 -14t-15.5 -48l-79 -549q-2 -12 -3 -22.5t-1 -18.5q0 -29 16 -39t61 -12l-10 -72q-43 0 -72 5t-47 17t-25.5 33t-7.5 53q0 16 2 35t5 41l72 500q6 46 15 77t24 50.5t37.5 28t55.5 8.5q14 0 29.5 -1.5t32.5 -3.5z" />
    <glyph glyph-name="parenright" unicode=")" horiz-adv-x="231" 
d="M55 749q43 0 72 -5t47 -17t25.5 -33t7.5 -53q0 -16 -2 -35t-5 -41l-71 -500q-6 -46 -15 -77t-24 -50.5t-37.5 -28t-55.5 -8.5q-14 0 -29.5 1.5t-32.5 3.5l10 72q12 -2 22 -3t18 -1q29 0 39.5 14t15.5 48l78 549q2 12 3 22.5t1 18.5q0 29 -16 39t-61 12z" />
    <glyph glyph-name="asterisk" unicode="*" horiz-adv-x="410" 
d="M369 627l23 -66l-111 -25l74 -84l-57 -41l-57 96l-57 -97l-56 42l74 85l-110 24l23 66l102 -43l-10 111h69l-10 -112z" />
    <glyph glyph-name="plus" unicode="+" horiz-adv-x="390" 
d="M380 336l-10 -71h-140l-22 -152h-76l22 152h-140l10 71h140l21 152h76l-21 -152h140z" />
    <glyph glyph-name="comma" unicode="," horiz-adv-x="220" 
d="M79 108q27 0 42.5 -15.5t11.5 -41.5l-3 -25q-2 -15 -5.5 -24l-8.5 -21l-64 -142h-60l57 152q-15 3 -22.5 16t-7.5 28v7l4 28q3 19 16 28.5t40 9.5z" />
    <glyph glyph-name="hyphen" unicode="-" horiz-adv-x="350" 
d="M61 263l10 65h220l-10 -65h-220z" />
    <glyph glyph-name="period" unicode="." horiz-adv-x="221" 
d="M81 108q28 0 42 -13.5t11 -35.5l-4 -29q-3 -20 -16.5 -31t-42.5 -11q-28 0 -41.5 14t-10.5 34l3 23q3 26 16.5 37.5t42.5 11.5z" />
    <glyph glyph-name="slash" unicode="/" horiz-adv-x="275" 
d="M-50 0l300 683h85l-300 -683h-85z" />
    <glyph glyph-name="zero" unicode="0" horiz-adv-x="500" 
d="M290 613q78 0 122 -40t44 -121q0 -11 -1 -22.5t-3 -24.5l-30 -215q-14 -104 -66.5 -153t-141.5 -49q-81 0 -123.5 41.5t-42.5 119.5q0 11 1 22.5t3 24.5l30 215q14 104 66.5 153t141.5 49zM283 541q-48 0 -77 -28.5t-38 -93.5l-32 -231q-2 -9 -2 -17v-16
q0 -48 22.5 -71.5t64.5 -23.5q48 0 77 28.5t38 93.5l32 231q2 9 2 17v16q0 50 -23 72.5t-64 22.5z" />
    <glyph glyph-name="one" unicode="1" horiz-adv-x="312" 
d="M112 0l72 519h-2l-141 -57l-6 73l171 66h75l-84 -601h-85z" />
    <glyph glyph-name="two" unicode="2" horiz-adv-x="387" 
d="M204 613q88 0 129.5 -41.5t30.5 -116.5l-3 -22q-3 -21 -9.5 -41.5t-19.5 -42.5t-32.5 -46.5t-48.5 -54.5l-171 -177h226l-9 -71h-327l9 62l235 256q29 31 42.5 58t18.5 56l3 20q1 6 1.5 12t0.5 11q0 36 -22.5 52t-67.5 16q-29 0 -64.5 -9t-67.5 -23l10 77q34 11 72 18
t64 7z" />
    <glyph glyph-name="three" unicode="3" horiz-adv-x="387" 
d="M202 613q40 0 70.5 -11.5t50.5 -32.5t28.5 -50t3.5 -64l-1 -7q-15 -104 -107 -137q42 -17 64 -56t17 -89l-1 -10q-8 -77 -58.5 -122.5t-142.5 -45.5q-26 0 -65 7t-71 19l9 71q25 -11 61.5 -20t65.5 -9q48 0 77.5 24t36.5 70l3 22q1 5 1 10.5v10.5q0 84 -92 84h-89l10 66
h89q49 0 74.5 26t33.5 79l1 7q1 5 1.5 10t0.5 10q0 36 -21.5 54.5t-59.5 18.5q-29 0 -65 -7t-63 -14l10 69q34 8 68 12.5t60 4.5z" />
    <glyph glyph-name="four" unicode="4" horiz-adv-x="423" 
d="M400 199l-9 -70h-61l-18 -129h-83l18 129h-272l8 59l316 413h97l-57 -402h61zM257 199l2 14l41 291l-225 -305h182z" />
    <glyph glyph-name="five" unicode="5" horiz-adv-x="441" 
d="M169 532l-33 -198q32 23 67 35.5t65 12.5q61 0 94.5 -32t33.5 -105q0 -21 -3 -46l-3 -24q-13 -94 -64.5 -140.5t-148.5 -46.5q-38 0 -81 8.5t-75 19.5l10 74q16 -6 37 -11l41.5 -9.5t39 -7t31.5 -2.5q57 0 87 29.5t38 85.5l4 27q3 18 3 32q0 41 -17.5 59t-48.5 18
q-37 0 -69 -15t-68 -50h-65l50 358h308l-10 -72h-223z" />
    <glyph glyph-name="six" unicode="6" horiz-adv-x="475" 
d="M295 612q16 0 35 -2t37 -5t34 -6.5t27 -6.5l-10 -74q-34 10 -69 17t-58 7q-29 0 -51 -8.5t-38.5 -28.5t-27.5 -54.5t-18 -85.5l-6 -43q39 37 74.5 52t64.5 15q63 0 98 -35t35 -104q0 -21 -3 -43l-5 -34q-13 -91 -59 -138t-137 -47q-83 0 -127.5 43t-44.5 132q0 14 1.5 29
t3.5 32l20 140q10 68 28 115.5t46 77t65 42.5t85 13zM268 315q-29 0 -62.5 -17t-65.5 -48l-8 -58q-2 -8 -2 -16v-16q0 -49 23.5 -74.5t65.5 -25.5q49 0 74.5 25.5t34.5 82.5l7 42q2 7 2 13.5v12.5q0 38 -19 58.5t-50 20.5z" />
    <glyph glyph-name="seven" unicode="7" horiz-adv-x="378" 
d="M101 0h-89l297 525v2h-271l10 73h361l-8 -61z" />
    <glyph glyph-name="eight" unicode="8" horiz-adv-x="460" 
d="M268 613q35 0 64 -10t50 -28t32.5 -44t11.5 -57q0 -15 -3 -30l-1 -6q-8 -43 -27 -71.5t-57 -47.5q38 -18 57 -50.5t19 -74.5v-12t-1 -12l-2 -16q-10 -78 -61.5 -122t-146.5 -44q-48 0 -84.5 13t-60 36.5t-33.5 56.5t-5 73l2 15q7 51 36 88.5t85 57.5q-29 17 -44 46.5
t-15 64.5v13.5t2 13.5l1 6q24 141 181 141zM263 547q-39 0 -61.5 -20t-30.5 -65l-1 -6q-1 -8 -1.5 -15t-0.5 -14q0 -40 19.5 -57t59.5 -17q22 0 37.5 4t26.5 13.5t17.5 26.5t11.5 43l1 6q2 7 2 13.5v12.5q0 38 -21 56.5t-59 18.5zM229 287q-52 0 -83 -28t-38 -78l-1 -7
q-1 -5 -1.5 -10.5t-0.5 -10.5q0 -44 27 -69t75 -25q54 0 82 25t35 71l3 20q1 5 1.5 10.5t0.5 10.5q0 42 -26 66.5t-74 24.5z" />
    <glyph glyph-name="nine" unicode="9" horiz-adv-x="475" 
d="M266 612q81 0 125 -42.5t44 -120.5q0 -20 -3 -41l-28 -206q-8 -58 -25 -98.5t-44 -66t-65 -37.5t-88 -12q-17 0 -36 2.5t-37 6t-33.5 7.5t-24.5 7l10 75q12 -5 28.5 -9.5t34 -8.5t33.5 -6t27 -2q29 0 51.5 7.5t39 24t27 43.5t16.5 67l11 76q-81 -67 -146 -67
q-57 0 -91 36t-34 111q0 20 3 46l4 31q12 90 60 133.5t141 43.5zM259 540q-51 0 -76 -24.5t-33 -75.5l-6 -39q-2 -8 -2 -15.5v-14.5q0 -43 19.5 -64.5t49.5 -21.5q29 0 62.5 19.5t65.5 45.5l11 73q1 7 1.5 13t0.5 12q0 45 -25 68.5t-68 23.5z" />
    <glyph glyph-name="colon" unicode=":" horiz-adv-x="221" 
d="M80 108q28 0 42 -13.5t11 -35.5l-4 -29q-3 -20 -16.5 -31t-42.5 -11q-28 0 -41.5 14t-10.5 34l3 23q3 26 16.5 37.5t42.5 11.5zM131 478q28 0 42 -13.5t11 -35.5l-4 -29q-3 -20 -16.5 -31t-42.5 -11q-28 0 -41.5 14t-10.5 34l3 23q3 26 16.5 37.5t42.5 11.5z" />
    <glyph glyph-name="semicolon" unicode=";" horiz-adv-x="221" 
d="M79 108q27 0 42.5 -15.5t11.5 -41.5l-3 -25q-2 -15 -5.5 -24l-8.5 -21l-64 -142h-60l57 152q-15 3 -22.5 16t-7.5 28v7l4 28q3 19 16 28.5t40 9.5zM131 478q28 0 42 -13.5t11 -35.5l-4 -29q-3 -20 -16.5 -31t-42.5 -11q-28 0 -41.5 14t-10.5 34l3 23q3 26 16.5 37.5
t42.5 11.5z" />
    <glyph glyph-name="less" unicode="&#x3c;" horiz-adv-x="390" 
d="M100 297l260 -115l-12 -83l-337 160l10 75l383 160l-12 -83z" />
    <glyph glyph-name="equal" unicode="=" horiz-adv-x="390" 
d="M27 351l10 70h354l-10 -70h-354zM3 180l10 70h354l-10 -70h-354z" />
    <glyph glyph-name="greater" unicode="&#x3e;" horiz-adv-x="390" 
d="M371 259l-383 -160l12 83l292 115l-260 114l12 83l337 -160z" />
    <glyph glyph-name="question" unicode="?" horiz-adv-x="395" 
d="M211 695q45 0 76.5 -9.5t51.5 -26.5t29 -40t9 -50q0 -7 -0.5 -13.5t-1.5 -13.5l-2 -15q-3 -23 -10 -43t-19.5 -40t-32 -41t-46.5 -46l-40 -36q-16 -14 -25.5 -33t-16.5 -61l-4 -27h-76l4 28q7 47 21.5 78t43.5 59l59 57q17 16 27.5 29.5t17.5 26t10 26.5t5 31l1 10
q2 18 -1.5 33t-14 26t-30 17t-49.5 6q-28 0 -64 -8.5t-63 -19.5l10 73q34 11 69.5 17t61.5 6zM125 108q28 0 42 -13.5t11 -35.5l-4 -29q-3 -20 -16.5 -31t-42.5 -11q-28 0 -41.5 14t-10.5 34l3 23q3 26 16.5 37.5t42.5 11.5z" />
    <glyph glyph-name="at" unicode="@" horiz-adv-x="930" 
d="M457 695q212 0 313.5 -95.5t101.5 -281.5v-50q0 -55 -14.5 -101.5t-42 -80t-67 -52.5t-89.5 -19q-57 0 -89.5 25.5t-36.5 70.5l32 107l-2 2l-3 -1q-36 -108 -83 -155.5t-101 -47.5q-50 0 -80 34t-30 101q0 18 3 41l16 120q6 44 20.5 77t36.5 54.5t48.5 32.5t56.5 11
q35 0 65.5 -16.5t54.5 -45.5l7 50h80l-41 -310q-1 -7 -1.5 -13t-0.5 -11q0 -24 10.5 -37.5t38.5 -13.5q26 0 49 13t40.5 37t27.5 56.5t10 71.5v50q0 149 -82 225t-248 76q-147 0 -228.5 -85t-81.5 -246v-100q0 -146 77.5 -221.5t232.5 -75.5h135v-76h-135q-203 0 -299 95.5
t-96 277.5v100q0 90 23.5 164.5t72 128.5t123 84t176.5 30zM458 414q-33 0 -56.5 -25.5t-31.5 -81.5l-14 -104q-3 -27 -3 -46q0 -37 12 -51t35 -14q29 0 52.5 19t42.5 48.5t32 65.5t21 69l8 64q-20 26 -46 41t-52 15z" />
    <glyph glyph-name="A" unicode="A" horiz-adv-x="532" 
d="M392 0l-10.5 76l-11.5 76h-239l-31 -76l-33 -76h-90l280 655h105l121 -655h-91zM299 576l-67 -174.5l-69 -173.5h195l-28.5 174.5z" />
    <glyph glyph-name="B" unicode="B" horiz-adv-x="528" 
d="M120 662q16 1 36.5 1.5t42 1.5t43.5 1.5t42 0.5q55 0 95.5 -12.5t66.5 -34.5t37.5 -52t8.5 -65l-1 -11q-5 -57 -33.5 -95.5t-84.5 -56.5q48 -13 77.5 -49.5t29.5 -88.5q0 -6 -0.5 -12t-1.5 -12l-2 -15q-11 -83 -70 -129t-174 -46q-21 0 -41 0.5t-42.5 1.5t-49.5 2.5
t-61 4.5zM271 367q60 0 93.5 30t39.5 83l1 9q6 53 -24.5 79t-107.5 26q-34 0 -77 -3l-28 -224h103zM131 68q38 -4 58.5 -5t40.5 -1q80 0 117.5 28.5t45.5 82.5l2 13q1 5 1.5 10t0.5 10q0 44 -33 68t-101 24h-104z" />
    <glyph glyph-name="C" unicode="C" horiz-adv-x="476" 
d="M303 667q33 0 73.5 -6.5t75.5 -17.5l-11 -80q-35 14 -72.5 22t-67.5 8q-54 0 -85.5 -29.5t-39.5 -94.5l-33 -275q-1 -9 -1.5 -17.5t-0.5 -16.5q0 -52 24.5 -73t75.5 -21q35 0 71.5 9.5t78.5 28.5l-8 -80q-16 -8 -36 -14.5t-41 -11.5t-41 -7.5t-37 -2.5q-86 0 -129 41
t-43 128q0 23 3 50l31 256q13 106 66 155t147 49z" />
    <glyph glyph-name="D" unicode="D" horiz-adv-x="573" 
d="M121 662q32 2 76.5 3.5t93.5 1.5q113 0 171.5 -59t58.5 -163q0 -25 -3 -50l-21 -166q-15 -119 -83 -180t-198 -61q-50 0 -90.5 2t-86.5 7zM132 68q29 -4 51 -5.5t41 -1.5q77 0 127.5 43t60.5 123l22 175q3 21 3 40q0 77 -40 115t-112 38q-15 0 -41.5 -0.5t-46.5 -1.5z
" />
    <glyph glyph-name="E" unicode="E" horiz-adv-x="485" 
d="M464 655l-10 -77h-260l-25 -207h240l-10 -76h-240l-27 -218h260l-8 -77h-345l80 655h345z" />
    <glyph glyph-name="F" unicode="F" horiz-adv-x="464" 
d="M194 578l-25 -207h196l-10 -76h-196l-35 -295h-85l80 655h345l-10 -77h-260z" />
    <glyph glyph-name="G" unicode="G" horiz-adv-x="555" 
d="M253 -12q-97 0 -147 46t-50 133q0 20 3 41l31 257q12 103 65 152.5t161 49.5q21 0 45 -2.5t48.5 -6.5t47 -9t40.5 -11l-10 -78q-41 15 -88 24.5t-87 9.5q-63 0 -96 -28.5t-41 -94.5l-34 -278q-1 -7 -1.5 -13.5t-0.5 -12.5q0 -53 30 -78.5t87 -25.5q33 0 62.5 5.5
t55.5 16.5l26 213h-126l11 80h210l-41 -333q-43 -23 -97.5 -40t-103.5 -17z" />
    <glyph glyph-name="H" unicode="H" horiz-adv-x="580" 
d="M160 300l-36 -300h-85l80 655h85l-35 -279h260l35 279h85l-80 -655h-85l36 300h-260z" />
    <glyph glyph-name="I" unicode="I" horiz-adv-x="235" 
d="M204 655l-80 -655h-85l80 655h85z" />
    <glyph glyph-name="J" unicode="J" horiz-adv-x="287" 
d="M192 137q-5 -41 -16 -69.5t-28 -46t-41.5 -25.5t-56.5 -8q-10 0 -22.5 1.5t-25.5 3.5t-25 4.5t-19 4.5l9 73q17 -6 38 -10t38 -4q29 0 44 15t20 58l64 521h85z" />
    <glyph glyph-name="K" unicode="K" horiz-adv-x="525" 
d="M204 655l-37 -303l147 156t125 147h104l-288 -317l234 -338h-108l-55.5 89l-52.5 81l-52.5 77l-56.5 78l-40 -325h-85l80 655h85z" />
    <glyph glyph-name="L" unicode="L" horiz-adv-x="450" 
d="M204 655l-72 -580h260l-8 -75h-345l80 655h85z" />
    <glyph glyph-name="M" unicode="M" horiz-adv-x="699" 
d="M509 0l59 535l-197 -467h-104l-80 465l-69 -533h-84l86 655h121q26 -128 47.5 -254t36.5 -255q60 131 111 257l98 252h133l-74 -655h-84z" />
    <glyph glyph-name="N" unicode="N" horiz-adv-x="582" 
d="M123 0h-84l80 655h125l81.5 -275.5t73.5 -279.5l68 555h84l-80 -655h-125l-156 556z" />
    <glyph glyph-name="O" unicode="O" horiz-adv-x="576" 
d="M327 667q106 0 158.5 -58t39.5 -162l-31 -249q-13 -105 -71 -157.5t-167 -52.5t-160 57.5t-38 162.5l31 249q14 109 70.5 159.5t167.5 50.5zM321 592q-132 0 -147 -127l-32 -268q-1 -7 -1.5 -13.5t-0.5 -12.5q0 -54 31.5 -81t89.5 -27q131 0 147 128l33 267q1 7 1.5 14
t0.5 13q0 107 -122 107z" />
    <glyph glyph-name="P" unicode="P" horiz-adv-x="510" 
d="M282 667q118 0 174.5 -54t42.5 -148l-2 -14q-13 -89 -72.5 -136.5t-165.5 -47.5q-14 0 -40.5 3t-61.5 10l-33 -280h-85l81 662q13 1 34 1.5t44 1.5t45 1.5t39 0.5zM279 596q-29 0 -48 -0.5t-35 -1.5l-31 -247q29 -5 51.5 -7.5t40.5 -2.5q70 0 107 29t48 90l2 11q2 7 2 14
v13q0 48 -34 75t-103 27z" />
    <glyph glyph-name="Q" unicode="Q" horiz-adv-x="576" 
d="M327 667q107 0 159 -58.5t39 -161.5l-31 -249q-8 -64 -32.5 -108.5t-68.5 -70.5l96 -25l-8 -79h-19l-186 74q-5 -1 -10 -1h-10q-100 0 -150.5 47.5t-50.5 132.5q0 19 3 40l31 249q14 108 70 159t168 51zM321 592q-132 0 -147 -127l-32 -268q-1 -7 -1.5 -13.5t-0.5 -12.5
q0 -54 31 -81t90 -27q131 0 147 128l33 267q1 7 1.5 13.5t0.5 12.5q0 56 -31.5 82t-90.5 26z" />
    <glyph glyph-name="R" unicode="R" horiz-adv-x="540" 
d="M289 667q56 0 98 -14.5t69 -40t38 -60.5t5 -75l-3 -20q-8 -57 -46 -99.5t-98 -61.5l137 -296h-97l-40 98.5l-31.5 74l-27.5 59t-28 53.5q-27 0 -51 1.5t-55 6.5l-35 -293h-85l81 662q42 2 86.5 3.5t82.5 1.5zM282 596q-15 0 -40.5 -0.5t-45.5 -1.5l-29 -236q33 -4 52 -5
t36 -1q72 0 110 29.5t47 83.5l1 6q1 7 1.5 13.5t0.5 12.5q0 48 -33 73.5t-100 25.5z" />
    <glyph glyph-name="S" unicode="S" horiz-adv-x="456" 
d="M303 354q56 -23 83.5 -60.5t27.5 -94.5q0 -19 -3 -41l-2 -13q-12 -78 -60.5 -117.5t-139.5 -39.5q-22 0 -46.5 3.5t-48.5 9.5t-46 13.5t-39 15.5l10 85q69 -35 127 -49q15 -2 24.5 -2h18.5q53 0 79.5 21.5t34.5 66.5l2 11q3 16 3 30q0 32 -17 52.5t-53 35.5l-89 36
q-54 21 -81.5 62.5t-27.5 95.5q0 25 6 52l2 9q14 64 62.5 97.5t138.5 33.5q16 0 35.5 -2t39.5 -5t39.5 -7t36.5 -8l-11 -81q-26 8 -53.5 14.5t-55.5 11.5q-11 1 -19 1h-16q-52 0 -79 -19t-33 -56l-2 -12q-1 -6 -1.5 -12t-0.5 -12q0 -63 71 -92z" />
    <glyph glyph-name="T" unicode="T" horiz-adv-x="525" 
d="M539 655l-10 -77h-190l-70 -578h-85l70 578h-190l10 77h465z" />
    <glyph glyph-name="U" unicode="U" horiz-adv-x="576" 
d="M489 201q-14 -109 -69 -161t-159 -52q-100 0 -150.5 46t-50.5 131q0 18 3 39l56 451h85l-57 -458q-8 -64 23.5 -98t96.5 -34q60 0 94 30.5t42 98.5l57 461h85z" />
    <glyph glyph-name="V" unicode="V" horiz-adv-x="526" 
d="M171 0l-114 655h85q26 -145 49 -287.5t40 -285.5q129 286 231 573h95l-274 -655h-112z" />
    <glyph glyph-name="W" unicode="W" horiz-adv-x="848" 
d="M524 0l-68 558l-203 -558h-114l-70 655h87q33 -278 51 -562q56 140 105.5 280t94.5 282h114q20 -141 37 -281t29 -281q53 141 99 281t88 281h93l-229 -655h-114z" />
    <glyph glyph-name="X" unicode="X" horiz-adv-x="519" 
d="M470 0h-100q-26 69 -53 132l-61 136l-89 -134l-91 -134h-99l233 341l-141 314h96l53 -125l52 -125l89 126.5l80 123.5h100l-220 -320z" />
    <glyph glyph-name="Y" unicode="Y" horiz-adv-x="491" 
d="M252 0h-85l27 225l-137 430h93q26 -85 49.5 -170t44.5 -170q50 85 94 170l85 170h99l-243 -430z" />
    <glyph glyph-name="Z" unicode="Z" horiz-adv-x="480" 
d="M365 578h-285l10 77h389l-9 -67l-182 -252l-173 -259h292l-8 -77h-395l7 67z" />
    <glyph glyph-name="bracketleft" unicode="[" horiz-adv-x="260" 
d="M210 677l-99 -699h120l-10 -70h-205l119 839h205l-10 -70h-120z" />
    <glyph glyph-name="backslash" unicode="\" horiz-adv-x="320" 
d="M215 0l-205 683h85l205 -683h-85z" />
    <glyph glyph-name="bracketright" unicode="]" horiz-adv-x="260" 
d="M-68 -92l10 70h119l99 699h-120l10 70h205l-119 -839h-204z" />
    <glyph glyph-name="asciicircum" unicode="^" horiz-adv-x="495" 
d="M366 403l-72 201l-127 -201h-86l184 280h75l106 -280h-80z" />
    <glyph glyph-name="underscore" unicode="_" horiz-adv-x="610" 
d="M-2 -185l10 65h480l-10 -65h-480z" />
    <glyph glyph-name="grave" unicode="`" horiz-adv-x="240" 
d="M210 546h-71l-109 139h90z" />
    <glyph glyph-name="a" unicode="a" horiz-adv-x="476" 
d="M227 500q35 0 66 -16.5t55 -45.5l6 50h80l-68 -488h-81l9 65l41 125l-2 2l-3 -1q-36 -108 -83 -155.5t-101 -47.5q-48 0 -79.5 33t-31.5 97q0 11 1 22.5t3 23.5l26 163q14 88 58 130.5t104 42.5zM238 427q-33 0 -56 -24.5t-32 -80.5l-24 -147q-2 -14 -3.5 -26t-1.5 -22
q0 -35 13 -49t36 -14q30 0 54.5 21t43.5 53t32.5 70t20.5 72l13 93q-20 25 -45 39.5t-51 14.5z" />
    <glyph glyph-name="b" unicode="b" horiz-adv-x="471" 
d="M194 683q-1 -38 -3.5 -82t-8.5 -87l-4 -29l-59 -232l2 -2l3 2q35 120 80.5 183.5t107.5 63.5q51 0 82 -33.5t31 -101.5q0 -15 -1.5 -32t-5.5 -36l-24 -120q-11 -51 -26.5 -87t-38 -58.5t-52.5 -33t-69 -10.5q-79 0 -120 39.5t-41 113.5q0 21 3 44l39 273q10 70 14 122.5
t6 102.5h85zM292 424q-26 0 -51.5 -25t-46.5 -65.5t-37 -91t-24 -101.5q-1 -40 19.5 -61t55.5 -21q39 0 63 23t35 80l27 130q4 17 5.5 32t1.5 27q0 39 -14 56t-34 17z" />
    <glyph glyph-name="c" unicode="c" horiz-adv-x="393" 
d="M186 -12q-70 0 -108 37t-38 107q0 20 3 41l21 148q14 94 60 136.5t124 42.5q26 0 53 -4t61 -14l-12 -76q-59 22 -103 22q-39 0 -64 -24.5t-33 -75.5l-21 -154q-2 -9 -2 -16.5v-15.5q0 -44 19 -61.5t52 -17.5q28 0 58.5 8t59.5 25l-9 -77q-32 -15 -63.5 -23t-57.5 -8z" />
    <glyph glyph-name="d" unicode="d" horiz-adv-x="476" 
d="M285 0l9 65l41 125l-2 2l-3 -1q-36 -108 -83 -155.5t-101 -47.5q-48 0 -79.5 33t-31.5 97q0 11 1 22.5t3 23.5l27 167q14 87 57 128t102 41q33 0 63.5 -15.5t54.5 -41.5l33 240h85l-95 -683h-81zM238 424q-34 0 -56.5 -23t-31.5 -79l-24 -147q-2 -14 -3.5 -26t-1.5 -22
q0 -35 13 -49t36 -14q30 0 54.5 20.5t43.5 52t32 68.5t20 71l13 98q-20 24 -44.5 37t-50.5 13z" />
    <glyph glyph-name="e" unicode="e" horiz-adv-x="436" 
d="M263 500q68 0 105.5 -34.5t36.5 -91.5q0 -36 -15.5 -70t-49 -61t-86 -45.5t-127.5 -24.5l-1 -11q-3 -17 -3 -30q0 -71 75 -71q32 0 70 11t72 28l-15 -77q-34 -16 -72.5 -25.5t-68.5 -9.5q-144 0 -144 145q0 13 1.5 27t3.5 30l12 78q17 117 73 174.5t133 57.5zM260 429
q-38 0 -71.5 -38.5t-45.5 -118.5l-7 -45q66 10 108 27q41 28 59 55t18 58q0 29 -16.5 45.5t-44.5 16.5z" />
    <glyph glyph-name="f" unicode="f" horiz-adv-x="294" 
d="M297 695q17 0 39 -3t38 -8l-9 -70q-19 5 -39 8.5t-34 3.5q-29 0 -46.5 -17.5t-24.5 -64.5l-8 -56h90l-10 -70h-90l-62 -450q-12 -88 -46.5 -126.5t-99.5 -38.5q-20 0 -45.5 4.5t-42.5 9.5l10 71q37 -13 72 -13q28 0 43.5 18.5t22.5 69.5l63 455h-74l7 50l76 14l8 57
q11 81 52 118.5t110 37.5z" />
    <glyph glyph-name="g" unicode="g" horiz-adv-x="478" 
d="M229 500q35 0 66 -16.5t55 -45.5l7 50h80l-74 -524q-12 -85 -55 -123t-130 -38q-31 0 -70.5 6t-72.5 16l10 75q33 -11 70 -17.5t66 -6.5q47 0 68 19.5t28 61.5l11 71l50 162l-2 2l-3 -1q-37 -108 -83.5 -155.5t-101.5 -47.5q-48 0 -79 33t-31 97q0 23 4 46l26 163
q14 88 57.5 130.5t103.5 42.5zM240 427q-33 0 -55.5 -24.5t-31.5 -80.5l-24 -147q-2 -14 -3.5 -26t-1.5 -23q0 -35 12.5 -48.5t35.5 -13.5q32 0 57.5 23t45 57.5t32.5 75t19 75.5l11 77q-20 26 -45.5 40.5t-51.5 14.5z" />
    <glyph glyph-name="h" unicode="h" horiz-adv-x="481" 
d="M199 683q-1 -38 -3.5 -82t-8.5 -87l-4 -29l-61 -245l3 -2l3 2q35 130 87 195t112 65q49 0 75.5 -27.5t26.5 -93.5q0 -14 -1 -29.5t-4 -33.5l-48 -316h-85l50 318q2 14 3 25t1 21q0 32 -11 44.5t-30 12.5q-26 0 -53.5 -28t-52.5 -76t-44.5 -113t-29.5 -139l-9 -65h-85
l64 458q10 70 14 122.5t6 102.5h85z" />
    <glyph glyph-name="i" unicode="i" horiz-adv-x="225" 
d="M183 488l-68 -488h-85l68 488h85zM209 617q-6 -42 -58 -42q-26 0 -41 12.5t-12 35.5l4 29q6 43 58 43q27 0 41.5 -13t11.5 -36z" />
    <glyph glyph-name="j" unicode="j" horiz-adv-x="225" 
d="M107 -51q-11 -77 -46 -111.5t-104 -34.5q-20 0 -43.5 3.5t-37.5 8.5l10 73q12 -5 32.5 -8.5t39.5 -3.5q28 0 43 12.5t20 52.5l77 547h85zM203 617q-6 -42 -58 -42q-26 0 -41 12.5t-12 35.5l4 29q6 43 58 43q27 0 41.5 -13t11.5 -36z" />
    <glyph glyph-name="k" unicode="k" horiz-adv-x="448" 
d="M199 683q-1 -38 -3.5 -82t-8.5 -87l-4 -29l-62 -246l3 -2l3 2q13 50 31.5 97t42 83.5t53 58.5t65.5 22q44 0 71.5 -29.5t27.5 -78.5q0 -58 -37 -106.5t-113 -76.5l110 -209h-94l-55 118.5l-55 110.5q44 7 74.5 23t49.5 37t27.5 45t8.5 47t-11 35.5t-29 12.5
q-27 0 -53.5 -30.5t-49 -79t-39.5 -108.5t-25 -119l-12 -92h-85l64 458q10 70 14 122.5t6 102.5h85z" />
    <glyph glyph-name="l" unicode="l" horiz-adv-x="225" 
d="M199 683q-1 -38 -4.5 -91t-14.5 -128l-65 -464h-85l64 458q10 70 14 122.5t6 102.5h85z" />
    <glyph glyph-name="m" unicode="m" horiz-adv-x="736" 
d="M578 500q49 0 75.5 -27.5t26.5 -93.5q0 -14 -1 -29.5t-4 -33.5l-48 -316h-85l49 313l3.5 29.5t1.5 23.5q0 32 -10.5 43.5t-29.5 11.5q-25 0 -51.5 -26.5t-51 -76t-44.5 -119.5t-32 -156l-6 -43h-85l49 313l3.5 29.5t1.5 23.5q0 32 -10.5 43.5t-29.5 11.5
q-25 0 -51.5 -26.5t-51 -76t-44.5 -119.5t-32 -156l-6 -43h-85l68 488h80l-11 -79l-45 -169l3 -2l3 2q35 130 86 195t108 65q46 0 72 -25.5t28 -82.5l-44 -152l3 -2l3 2q35 130 86 195t108 65z" />
    <glyph glyph-name="n" unicode="n" horiz-adv-x="485" 
d="M327 500q49 0 75.5 -27.5t26.5 -93.5q0 -14 -1 -29.5t-4 -33.5l-48 -316h-85l50 318q2 14 3 25t1 21q0 32 -11 44.5t-30 12.5q-26 0 -53.5 -26.5t-52.5 -77t-46 -123t-33 -164.5l-4 -30h-85l68 488h80l-11 -79l-45 -169l3 -2l3 2q35 130 87 195t112 65z" />
    <glyph glyph-name="o" unicode="o" horiz-adv-x="472" 
d="M397 176q-12 -91 -60 -139.5t-132 -48.5q-82 0 -123.5 39.5t-41.5 108.5q0 16 3 36l20 144q12 89 62 136.5t131 47.5t122 -40t41 -108q0 -18 -3 -37zM332 322q1 6 1.5 12t0.5 11q0 41 -22 62.5t-60 21.5q-42 0 -68 -24t-34 -78l-23 -162q-1 -6 -1.5 -11.5t-0.5 -10.5
q0 -41 22.5 -62.5t60.5 -21.5q44 0 69 24.5t32 77.5z" />
    <glyph glyph-name="p" unicode="p" horiz-adv-x="477" 
d="M316 500q51 0 82 -34t31 -103q0 -15 -2 -31.5t-5 -34.5l-28 -149q-30 -160 -157 -160q-30 0 -62 13.5t-56 36.5q-11 -63 -23 -120.5t-24 -102.5h-84q14 56 28.5 130t25.5 152l56 391h80l-8 -58l-46 -176l2 -2l3 2q35 120 80 183t107 63zM296 424q-26 0 -51.5 -25
t-47.5 -65.5t-39 -92.5t-25 -107l-5 -35q20 -17 44 -26.5t44 -9.5q37 0 60.5 22.5t34.5 74.5l26 132q6 33 6 57q0 40 -13.5 57.5t-33.5 17.5z" />
    <glyph glyph-name="q" unicode="q" horiz-adv-x="476" 
d="M227 500q35 0 65.5 -16.5t54.5 -44.5l7 49h80l-95 -673h-85l31 213l50 162l-2 2l-3 -1q-36 -108 -83 -155.5t-101 -47.5q-48 0 -79.5 33t-31.5 97q0 11 1 22.5t3 23.5l26 163q14 88 58 130.5t104 42.5zM238 427q-33 0 -56 -24.5t-32 -80.5l-24 -147q-2 -14 -3.5 -26
t-1.5 -22q0 -35 13 -49t36 -14q30 0 54.5 20.5t43.5 52t32 68.5t20 71l14 97q-20 26 -45 40t-51 14z" />
    <glyph glyph-name="r" unicode="r" horiz-adv-x="325" 
d="M318 500q8 0 16 -2l-16 -107q-12 3 -26 3q-30 0 -57 -27t-49 -74t-38.5 -110.5t-26.5 -137.5l-6 -45h-85l68 488h80l-11 -79l-45 -169l3 -2l3 2q35 130 85 195t105 65z" />
    <glyph glyph-name="s" unicode="s" horiz-adv-x="385" 
d="M216 500q24 0 57 -5.5t65 -14.5l-12 -77q-20 8 -42 15t-39 11q-8 1 -18.5 1.5t-17.5 0.5q-35 0 -53 -13.5t-22 -37.5l-1 -6q-1 -4 -1 -11q0 -18 10.5 -33.5t30.5 -24.5l82 -38q42 -20 62.5 -55t15.5 -80l-2 -16q-7 -57 -47 -92.5t-114 -35.5q-36 0 -77 10.5t-73 27.5
l13 77q20 -11 48 -22.5t48 -17.5q24 -3 39 -3q71 0 81 64l1 6q1 4 1 11q0 17 -10 33t-29 25l-80 37q-42 20 -62 50t-20 67v13t2 13l3 16q9 49 47 77t114 28z" />
    <glyph glyph-name="t" unicode="t" horiz-adv-x="341" 
d="M328 488l-10 -70h-130l-40 -286q-1 -5 -1 -10v-10q0 -27 12.5 -39t37.5 -12q20 0 46.5 7t43.5 15l-10 -73q-17 -8 -44 -15t-48 -7q-62 0 -93 25.5t-31 85.5q0 19 3 40l40 279h-71l7 50l80 15l46 135h50l-18 -130h130z" />
    <glyph glyph-name="u" unicode="u" horiz-adv-x="486" 
d="M296 0l4 28l46 162l-2 2l-3 -1q-36 -108 -83 -155.5t-101 -47.5q-51 0 -80.5 33t-29.5 98q0 11 1 22t3 24l47 323h85l-46 -313q-2 -14 -3 -25.5t-1 -21.5q0 -36 12.5 -50t35.5 -14q36 0 63 28t45.5 68.5t30 86t16.5 79.5l23 162h86l-69 -488h-80z" />
    <glyph glyph-name="v" unicode="v" horiz-adv-x="432" 
d="M121 0l-83 488h83q19 -113 32.5 -214.5t23.5 -206.5l2 -2l3 2l51.5 112.5l40.5 94.5l38.5 96l44.5 118h93l-220 -488h-109z" />
    <glyph glyph-name="w" unicode="w" horiz-adv-x="678" 
d="M399 0l-42 414l-160 -414h-108l-41 488h87q15 -177 15 -354v-59l3 -2l2 2q43 103 80.5 205.5l72.5 207.5h115q15 -103 23.5 -205.5t13.5 -207.5l2 -2l3 2q38 103 70 205.5t61 207.5h90l-178 -488h-109z" />
    <glyph glyph-name="x" unicode="x" horiz-adv-x="421" 
d="M376 0h-92q-20 53 -39 97t-42 92l-2 2l-3 -2l-68.5 -100.5l-62.5 -88.5h-102l186 252l-108 236h94l37.5 -86l35.5 -87l2 -2l3 2l59.5 85.5l57.5 87.5h101l-174 -236z" />
    <glyph glyph-name="y" unicode="y" horiz-adv-x="486" 
d="M371 -36q-12 -86 -55 -123.5t-130 -37.5q-31 0 -70.5 6t-72.5 16l10 75q33 -11 70 -17.5t66 -6.5q48 0 69 20t27 61l11 71l50 162l-2 2l-3 -1q-36 -108 -83 -155.5t-101 -47.5q-51 0 -80.5 33t-29.5 98q0 11 1 22t3 24l47 323h85l-46 -313q-2 -14 -3 -25.5t-1 -21.5
q0 -36 12.5 -50t35.5 -14q36 0 63 28t45.5 68.5t30 86t16.5 79.5l23 162h86z" />
    <glyph glyph-name="z" unicode="z" horiz-adv-x="401" 
d="M380 423q-76 -85 -145.5 -175.5t-124.5 -172.5h221l-10 -75h-326l9 65l264 348h-210l10 75h321z" />
    <glyph glyph-name="braceleft" unicode="{" horiz-adv-x="256" 
d="M323 677q-23 4 -42 4q-14 0 -23 -3.5t-15 -12.5t-10 -24t-7 -38l-23 -154q-8 -51 -25.5 -78t-49.5 -37q23 -8 34 -26t11 -50q0 -17 -3 -39l-22 -152q-2 -12 -3 -21.5t-1 -17.5q0 -31 16.5 -40.5t61.5 -9.5l-10 -70q-43 0 -72 4.5t-47 16.5t-26 32t-8 52q0 16 2 34.5
t5 40.5l19 131q3 16 3 30q0 28 -13.5 39t-42.5 11h-25l9 70h25q36 0 53 16.5t24 63.5l20 135q7 48 16 80.5t24 52.5t37 28.5t56 8.5q14 0 29 -1.5t33 -3.5z" />
    <glyph glyph-name="bar" unicode="|" horiz-adv-x="225" 
d="M14 -112l128 910h85l-128 -910h-85z" />
    <glyph glyph-name="braceright" unicode="}" horiz-adv-x="256" 
d="M55 747q43 0 72 -4.5t47 -16.5t26 -32.5t8 -51.5q0 -16 -2 -34.5t-5 -40.5l-18 -118q-3 -17 -3 -30q0 -28 13.5 -39t42.5 -11h25l-9 -70h-25q-36 0 -53.5 -16.5t-23.5 -63.5l-19 -148q-6 -48 -15 -80.5t-24 -52.5t-37.5 -28.5t-56.5 -8.5q-14 0 -29 1.5t-33 3.5l10 72
q23 -4 42 -4q27 0 38 16t17 62l22 167q7 51 25 78t50 37q-23 8 -34 26t-11 50q0 16 3 39l21 139q2 12 3 21.5t1 17.5q0 31 -16.5 40.5t-61.5 9.5z" />
    <glyph glyph-name="asciitilde" unicode="~" horiz-adv-x="390" 
d="M371 279q-13 -8 -30 -14q-14 -5 -33 -9.5t-41 -4.5q-27 0 -44.5 4.5t-33 9.5t-32.5 9.5t-42 4.5q-14 0 -31.5 -4t-33.5 -9q-18 -5 -37 -12l10 70q13 8 30 14q14 5 33 9.5t41 4.5q27 0 44.5 -4.5t33.5 -9.5t32.5 -9.5t41.5 -4.5q14 0 31.5 3.5t33.5 8.5q18 5 37 13z" />
    <glyph glyph-name="uni00A0" unicode="&#xa0;" horiz-adv-x="180" 
 />
    <glyph glyph-name="exclamdown" unicode="&#xa1;" horiz-adv-x="211" 
d="M125 403q-28 0 -42 13.5t-11 35.5l4 29q3 20 16.5 31t42.5 11q28 0 41.5 -14t10.5 -34l-3 -23q-3 -26 -16.5 -37.5t-42.5 -11.5zM148 311l-62 -495h-95l76 495h81z" />
    <glyph glyph-name="cent" unicode="&#xa2;" horiz-adv-x="390" 
d="M124 174q-2 -9 -2 -16.5v-15.5q0 -44 19 -61.5t52 -17.5q28 0 58.5 8t59.5 25l-9 -77q-21 -10 -42 -17t-41 -10l-11 -80h-75l11 79q-53 9 -81 45t-28 96q0 20 3 41l21 148q12 85 51.5 127.5t104.5 50.5l11 77h75l-11 -79q29 -4 67 -15l-12 -76q-59 22 -103 22
q-39 0 -64 -24.5t-33 -75.5z" />
    <glyph glyph-name="sterling" unicode="&#xa3;" horiz-adv-x="397" 
d="M277 613q12 0 27 -1.5t31 -4.5t30.5 -6.5t25.5 -7.5l-10 -72q-21 8 -50 15t-52 7q-39 0 -59 -17.5t-26 -60.5l-12 -90h95l-10 -70h-95l-14 -101q-4 -28 -8.5 -48t-11.5 -35t-16.5 -26t-22.5 -21h263l-10 -74h-347l8 60q25 26 38 54t18 62l18 129h-70l10 70h70l12 85
q11 80 51 116.5t117 36.5z" />
    <glyph glyph-name="currency" unicode="&#xa4;" horiz-adv-x="470" 
d="M406 407q4 -12 6 -24t2 -26q0 -16 -3 -34l-3 -20q-4 -28 -12 -49t-22 -41l56 -64l-63 -56l-54 63q-44 -24 -102 -24q-57 0 -94 22l-68 -61l-49 56l71 61q-12 28 -12 63q0 7 0.5 14.5t1.5 15.5l3 20q4 26 11 46.5t20 40.5l-50 57l64 56l46 -55q47 26 107 26q62 0 101 -28
l64 57l48 -56zM252 421q-50 0 -75 -28t-31 -70l-3 -20q-1 -6 -1.5 -12t-0.5 -11q0 -33 18 -54.5t62 -21.5q50 0 74.5 28.5t30.5 70.5l3 20q1 6 1.5 12t0.5 11q0 33 -18 54t-61 21z" />
    <glyph glyph-name="yen" unicode="&#xa5;" horiz-adv-x="455" 
d="M359 259l-9 -70h-95l-6 -41h95l-10 -70h-94l-10 -78h-85l10 78h-95l10 70h94l6 41h-94l10 70h71l-118 342h91q27 -81 49 -160.5t42 -160.5l95 160.5t88 160.5h100l-217 -342h72z" />
    <glyph glyph-name="brokenbar" unicode="&#xa6;" horiz-adv-x="225" 
d="M87 408l55 393h85l-55 -393h-85zM13 -115l56 393h85l-56 -393h-85z" />
    <glyph glyph-name="section" unicode="&#xa7;" horiz-adv-x="418" 
d="M254 695q24 0 57 -5.5t65 -14.5l-12 -77q-20 8 -42 15t-39 11q-8 1 -18.5 1.5t-17.5 0.5q-34 0 -51.5 -17t-20.5 -44l-1 -9q0 -4 -0.5 -7t-0.5 -6q0 -45 40 -63l98 -44q88 -40 88 -125v-10.5t-1 -10.5l-2 -16q-5 -46 -38.5 -77t-86.5 -42q32 -21 45.5 -50.5t13.5 -63.5
v-11t-1 -11l-2 -17q-6 -52 -44.5 -86t-122.5 -34q-24 0 -57 5.5t-65 14.5l12 77q20 -8 42 -15t39 -11q8 -1 18.5 -1.5t17.5 -0.5q40 0 59 17t22 44l1 9q0 4 0.5 7t0.5 6q0 45 -40 63l-98 44q-44 20 -66 52t-22 74v10t1 10l2 16q7 45 40 76.5t84 42.5q-31 20 -45 48.5
t-14 61.5q0 7 0.5 13t1.5 13l2 17q3 26 13.5 48t29.5 38t47.5 25t67.5 9zM240 380q-24 1 -46 -3.5t-40 -15t-30 -27.5t-15 -39l-1 -6q-1 -4 -1 -12q0 -46 48 -68l28 -13q48 -2 85.5 19.5t45.5 66.5l1 6q1 4 1 12q0 22 -12 39.5t-36 28.5z" />
    <glyph glyph-name="dieresis" unicode="&#xa8;" horiz-adv-x="345" 
d="M139 619q-3 -21 -16 -31.5t-40 -10.5q-26 0 -41 13t-12 34l4 28q6 43 57 43q27 0 41 -12t11 -35zM311 619q-6 -42 -56 -42q-26 0 -41 13t-12 34l4 28q6 43 57 43q26 0 40.5 -12t11.5 -35z" />
    <glyph glyph-name="copyright" unicode="&#xa9;" horiz-adv-x="646" 
d="M356 616q66 0 113 -17t76.5 -47t40.5 -71.5t5 -90.5l-27 -197q-14 -103 -78.5 -155.5t-191.5 -52.5q-68 0 -115.5 17t-76.5 47.5t-40 72t-4 89.5l27 197q14 106 80 157t191 51zM354 550q-88 0 -137.5 -34.5t-58.5 -99.5l-29 -212q-10 -71 33.5 -112t134.5 -41
q88 0 137 35t58 99l29 212q10 71 -33 112t-134 41zM355 480q19 0 40 -3.5t38 -8.5l-11 -68q-39 14 -68 14q-28 0 -45.5 -17t-22.5 -59l-7 -55q-1 -7 -1.5 -13t-0.5 -12q0 -32 12.5 -46.5t32.5 -14.5q22 0 40.5 3.5t38.5 11.5l-7 -66q-26 -10 -44 -13.5t-37 -3.5
q-57 0 -87.5 30.5t-30.5 89.5q0 18 3 38l8 56q11 74 46.5 105.5t102.5 31.5z" />
    <glyph glyph-name="ordfeminine" unicode="&#xaa;" horiz-adv-x="469" 
d="M242 667q37 0 68.5 -19t51.5 -40l7 47h80l-59 -429h-81l8 58l41 125l-2 2l-3 -1q-36 -106 -82.5 -151t-100.5 -45q-51 0 -81 35.5t-30 98.5q0 11 1 22t3 23l18 105q14 85 55.5 127t105.5 42zM256 591q-36 0 -58.5 -21t-32.5 -80l-15 -86q-2 -14 -3.5 -26t-1.5 -23
q0 -36 13 -50.5t36 -14.5q30 0 54.5 20.5t43.5 52t32 68.5t20 71l6 38q-18 23 -44 37t-50 14zM20 0l10 73h339l-10 -73h-339z" />
    <glyph glyph-name="guillemotleft" unicode="&#xab;" horiz-adv-x="488" 
d="M233 98h-88l-76 170l124 170h88l-117 -170zM403 98h-88l-76 170l124 170h88l-117 -170z" />
    <glyph glyph-name="logicalnot" unicode="&#xac;" horiz-adv-x="390" 
d="M274 113l22 152h-285l10 70h361l-32 -222h-76z" />
    <glyph glyph-name="uni00AD" unicode="&#xad;" horiz-adv-x="350" 
d="M61 263l10 65h220l-10 -65h-220z" />
    <glyph glyph-name="registered" unicode="&#xae;" horiz-adv-x="528" 
d="M304 695q95 0 139 -40.5t44 -115.5v-18.5t-2 -19.5l-4 -33q-6 -42 -19.5 -73.5t-38.5 -53t-62 -32t-89 -10.5q-92 0 -135 43t-43 112q0 18 3 38l5 34q6 42 18.5 73.5t35.5 53t59 32t89 10.5zM303 651q-77 0 -110.5 -28t-41.5 -90l-7 -52q-1 -7 -1.5 -13.5t-0.5 -13.5
q0 -51 32 -81t101 -30q77 0 112.5 28t44.5 90l7 53q1 7 1.5 13t0.5 12q0 52 -34.5 82t-103.5 30zM305 617q43 0 63.5 -19t20.5 -48q0 -8 -1 -13l-1 -6q-6 -41 -54 -58l44 -91h-49q-9 25 -18.5 46t-19.5 38q-18 0 -34 3l-12 -87h-43l33 230q20 2 39 3.5t32 1.5zM302 579
q-5 0 -15 -0.5t-16 -1.5l-9 -72q8 -1 18 -1.5t16 -0.5q23 0 33.5 9t13.5 23l1 5q0 2 0.5 4t0.5 4q0 14 -10 22.5t-33 8.5z" />
    <glyph glyph-name="macron" unicode="&#xaf;" horiz-adv-x="285" 
d="M255 681l-10 -75h-215l10 75h215z" />
    <glyph glyph-name="degree" unicode="&#xb0;" horiz-adv-x="390" 
d="M240 695q72 0 111 -38.5t39 -105.5v-16t-2 -17l-2 -21q-13 -82 -52 -120t-119 -38q-72 0 -112 39t-40 106v16t2 16l3 21q12 82 52 120t120 38zM238 626q-41 0 -63 -21.5t-28 -71.5l-3 -21q-1 -6 -1.5 -12t-0.5 -12q0 -34 17 -57t57 -23q46 0 65.5 25.5t25.5 67.5l3 21
q1 7 1.5 13t0.5 12q0 39 -20 59t-54 20z" />
    <glyph glyph-name="plusminus" unicode="&#xb1;" horiz-adv-x="390" 
d="M380 336l-10 -71h-140l-22 -152h-76l22 152h-140l10 71h140l21 152h76l-21 -152h140zM-24 0l9 70h356l-9 -70h-356z" />
    <glyph glyph-name="twosuperior" unicode="&#xb2;" horiz-adv-x="400" 
d="M249 760q77 0 106 -31.5t22 -83.5l-1 -8q-5 -35 -24 -66t-61 -70l-114 -106h165l-9 -64h-256l8 56l172 174q16 16 28 32t15 42l1 9q3 25 -12 38.5t-54 13.5q-23 0 -51 -6t-49 -15l9 66q26 8 55.5 13.5t49.5 5.5z" />
    <glyph glyph-name="threesuperior" unicode="&#xb3;" horiz-adv-x="400" 
d="M239 760q68 0 96.5 -32t21.5 -82l-1 -7q-4 -30 -22 -53.5t-52 -36.5q29 -12 45.5 -35.5t16.5 -52.5q0 -9 -1 -14l-1 -7q-8 -54 -45 -85.5t-110 -31.5q-19 0 -49 5t-54 13l8 60q20 -7 48 -12.5t50 -5.5q65 0 73 59l1 8q1 4 1 7.5v6.5q0 26 -15 40.5t-53 14.5h-58l9 58h58
q37 0 54.5 13.5t22.5 46.5l1 7q1 4 1 12q0 23 -14 34.5t-46 11.5q-22 0 -46 -4t-45 -9l9 59q26 5 51 8.5t45 3.5z" />
    <glyph glyph-name="acute" unicode="&#xb4;" horiz-adv-x="240" 
d="M120 685h90l-109 -139h-71z" />
    <glyph glyph-name="mu" unicode="&#xb5;" horiz-adv-x="483" 
d="M293 0l4 28l46 162l-2 2l-3 -1q-36 -108 -83 -155.5t-101 -47.5q-26 0 -45 13q-4 -24 -9 -49.5l-10 -50t-10.5 -46.5t-10.5 -40h-84q29 112 60 328l50 345h85l-46 -313q-2 -14 -3 -25.5t-1 -21.5q0 -36 12.5 -50t35.5 -14q36 0 63 28t45.5 68.5t30 86t16.5 79.5l23 162
h86l-69 -488h-80z" />
    <glyph glyph-name="paragraph" unicode="&#xb6;" horiz-adv-x="546" 
d="M127 -185l70 497h-42q-54 0 -85 29.5t-31 81.5q0 6 0.5 12.5t1.5 13.5l17 121q8 57 42 85t97 28h138l-122 -868h-86zM318 -185l122 868h86l-122 -868h-86zM197 610q-28 0 -41.5 -13.5t-18.5 -52.5l-11 -82q-1 -6 -1.5 -12t-0.5 -11q0 -28 11.5 -39.5t34.5 -11.5h37
l31 222h-41z" />
    <glyph glyph-name="periodcentered" unicode="&#xb7;" horiz-adv-x="221" 
d="M80 309q28 0 42 -13.5t11 -35.5l-4 -29q-3 -20 -16.5 -31t-42.5 -11q-28 0 -41.5 14t-10.5 34l3 23q3 26 16.5 37.5t42.5 11.5z" />
    <glyph glyph-name="cedilla" unicode="&#xb8;" horiz-adv-x="216" 
d="M129 -41q28 0 44 -19.5t12 -51.5l-1 -9q-5 -36 -27.5 -56t-67.5 -20q-12 0 -29 2.5t-30 6.5l7 55q23 -10 45 -10q17 0 25 6.5t10 16.5l1 7v6q0 27 -34 27h-26l3 20l41 88h55l-30 -69h2z" />
    <glyph glyph-name="onesuperior" unicode="&#xb9;" horiz-adv-x="400" 
d="M351 395l-9 -64h-252l9 64h92l41 284l-105 -42l-6 67l135 48h66l-50 -357h79z" />
    <glyph glyph-name="ordmasculine" unicode="&#xba;" horiz-adv-x="492" 
d="M437 394q-13 -89 -56.5 -134t-133.5 -45q-82 0 -123.5 39.5t-41.5 107.5q0 18 3 38l14 89q13 85 56.5 131.5t135.5 46.5q82 0 122 -39.5t40 -107.5q0 -19 -3 -38zM367 491q1 6 1.5 12t0.5 11q0 40 -22 61t-60 21q-87 0 -102 -102l-16 -102q-1 -6 -1.5 -12.5t-0.5 -11.5
q0 -40 22.5 -61t60.5 -21q43 0 69 25.5t32 76.5zM387 73l-10 -73h-342l10 73h342z" />
    <glyph glyph-name="guillemotright" unicode="&#xbb;" horiz-adv-x="488" 
d="M133 98h-88l117 170l-69 170h88l76 -170zM303 98h-88l117 170l-69 170h88l76 -170z" />
    <glyph glyph-name="onequarter" unicode="&#xbc;" horiz-adv-x="1004" 
d="M331 245l-9 -64h-252l9 64h92l41 284l-105 -42l-6 67l135 48h66l-50 -357h79zM272 0l389 601h83l-389 -601h-83zM813 152l1 7l18 127h76l-19 -134h56l-8 -62h-56l-13 -90h-77l13 90h-171l-15 42l145 289h76l-131 -269h105z" />
    <glyph glyph-name="onehalf" unicode="&#xbd;" horiz-adv-x="1022" 
d="M331 245l-9 -64h-252l9 64h92l41 284l-105 -42l-6 67l135 48h66l-50 -357h79zM276 0l389 601h83l-389 -601h-83zM825 429q77 0 106 -31.5t22 -83.5l-1 -8q-5 -35 -24 -66t-61 -70l-114 -106h165l-9 -64h-256l8 56l172 174q16 16 28 32t15 42l1 9q3 25 -12 38.5t-54 13.5
q-23 0 -51 -6t-49 -15l9 66q26 8 55.5 13.5t49.5 5.5z" />
    <glyph glyph-name="threequarters" unicode="&#xbe;" horiz-adv-x="1000" 
d="M193 610q68 0 96.5 -32t21.5 -82l-1 -7q-4 -30 -22 -53.5t-52 -36.5q29 -12 45.5 -35.5t16.5 -52.5q0 -9 -1 -14l-1 -7q-8 -54 -45 -85.5t-110 -31.5q-19 0 -49 5t-54 13l8 60q20 -7 48 -12.5t50 -5.5q65 0 73 59l1 8q1 4 1 7.5v6.5q0 26 -15 40.5t-53 14.5h-58l9 58h58
q37 0 54.5 13.5t22.5 46.5l1 7q1 4 1 12q0 23 -14 34.5t-46 11.5q-22 0 -46 -4t-45 -9l9 59q26 5 51 8.5t45 3.5zM272 0l389 601h83l-389 -601h-83zM813 152l1 7l18 127h76l-19 -134h56l-8 -62h-56l-13 -90h-77l13 90h-171l-15 42l145 289h76l-131 -269h105z" />
    <glyph glyph-name="questiondown" unicode="&#xbf;" horiz-adv-x="395" 
d="M259 390q-28 0 -42 13.5t-11 35.5l4 29q3 20 16.5 31t42.5 11q28 0 41.5 -14t10.5 -34l-3 -23q-3 -26 -16.5 -37.5t-42.5 -11.5zM173 -197q-45 0 -76.5 9.5t-51.5 26.5t-29 40t-9 50q0 7 0.5 13.5t1.5 13.5l2 15q3 22 10 42.5t19.5 40.5t32 41t46.5 46l40 36
q16 14 25.5 33t16.5 61l4 27h76l-4 -28q-7 -47 -21.5 -78t-43.5 -59l-59 -57q-17 -16 -27.5 -29.5t-17.5 -26t-10 -26.5t-5 -31l-1 -10q-2 -18 1.5 -33t14 -26t30 -17t49.5 -6q28 0 64 8.5t63 19.5l-10 -73q-34 -11 -69.5 -17t-61.5 -6z" />
    <glyph glyph-name="Agrave" unicode="&#xc0;" horiz-adv-x="532" 
d="M392 0l-10.5 76l-11.5 76h-239l-31 -76l-33 -76h-90l280 655h105l121 -655h-91zM299 576l-67 -174.5l-69 -173.5h195l-28.5 174.5zM348 710h-70l-73 119h89z" />
    <glyph glyph-name="Aacute" unicode="&#xc1;" horiz-adv-x="532" 
d="M392 0l-10.5 76l-11.5 76h-239l-31 -76l-33 -76h-90l280 655h105l121 -655h-91zM299 576l-67 -174.5l-69 -173.5h195l-28.5 174.5zM353 829h89l-97 -119h-70z" />
    <glyph glyph-name="Acircumflex" unicode="&#xc2;" horiz-adv-x="532" 
d="M392 0l-10.5 76l-11.5 76h-239l-31 -76l-33 -76h-90l280 655h105l121 -655h-91zM299 576l-67 -174.5l-69 -173.5h195l-28.5 174.5zM455 711l-135 49l-145 -49l7 68l147 61l133 -61z" />
    <glyph glyph-name="Atilde" unicode="&#xc3;" horiz-adv-x="532" 
d="M392 0l-10.5 76l-11.5 76h-239l-31 -76l-33 -76h-90l280 655h105l121 -655h-91zM299 576l-67 -174.5l-69 -173.5h195l-28.5 174.5zM458 740q-12 -9 -25 -15q-11 -6 -26.5 -10.5t-32.5 -4.5t-31.5 4t-29 8.5t-29 8.5t-29.5 4q-13 0 -27 -4t-26 -9q-14 -5 -28 -12l7 70
q11 8 24 15q11 5 26.5 10t32.5 5q20 0 36 -4t30 -8.5l27 -8.5t27 -4q12 0 26 3.5t26 8.5q14 5 28 13z" />
    <glyph glyph-name="Adieresis" unicode="&#xc4;" horiz-adv-x="532" 
d="M392 0l-10.5 76l-11.5 76h-239l-31 -76l-33 -76h-90l280 655h105l121 -655h-91zM299 576l-67 -174.5l-69 -173.5h195l-28.5 174.5zM282 752q-2 -21 -14.5 -31.5t-39.5 -10.5q-26 0 -42 13t-13 34l4 28q6 43 55 43q27 0 41.5 -12t12.5 -35zM454 752q-3 -42 -54 -42
q-26 0 -42 13t-13 34l4 28q3 23 16 33t39 10t41 -12t13 -35z" />
    <glyph glyph-name="Aring" unicode="&#xc5;" horiz-adv-x="532" 
d="M330 798q47 0 77 -24t30 -65q0 -34 -17 -60t-50 -37l113 -612h-91l-10 76t-12 76h-239l-31.5 -76l-32.5 -76h-90l267 626q-15 11 -24 28.5t-9 39.5q0 48 31 76t88 28zM328 747q-30 0 -42.5 -11.5t-12.5 -37.5q0 -20 11 -31t38 -12q30 0 42 12.5t12 39.5q0 19 -12.5 29.5
t-35.5 10.5zM299 576l-67 -174.5l-69 -173.5h195l-28.5 174.5z" />
    <glyph glyph-name="AE" unicode="&#xc6;" horiz-adv-x="761" 
d="M470 578l-25 -207h240l-10 -76h-240l-27 -218h260l-8 -77h-345l18 152h-195l-92 -152h-92l388 655h398l-10 -77h-260zM387 592l-94 -172l-110 -192h160z" />
    <glyph glyph-name="Ccedilla" unicode="&#xc7;" horiz-adv-x="476" 
d="M303 667q33 0 73.5 -6.5t75.5 -17.5l-11 -80q-35 14 -72.5 22t-67.5 8q-54 0 -85.5 -29.5t-39.5 -94.5l-33 -275q-1 -9 -1.5 -17.5t-0.5 -16.5q0 -52 24.5 -73t75.5 -21q35 0 71.5 9.5t78.5 28.5l-8 -80q-23 -11 -53 -19.5t-59 -13.5l-14 -32h2q28 0 44 -19.5t12 -51.5
l-1 -9q-5 -36 -27.5 -56t-67.5 -20q-12 0 -29 2.5t-30 6.5l7 55q23 -10 45 -10q17 0 25 6.5t10 16.5l1 7v6q0 27 -34 27h-26l3 20l23 48q-158 6 -158 170q0 23 3 49l31 256q13 106 66 155t147 49z" />
    <glyph glyph-name="Egrave" unicode="&#xc8;" horiz-adv-x="485" 
d="M464 655l-10 -77h-260l-25 -207h240l-10 -76h-240l-27 -218h260l-8 -77h-345l80 655h345zM331 710h-70l-73 119h89z" />
    <glyph glyph-name="Eacute" unicode="&#xc9;" horiz-adv-x="485" 
d="M464 655l-10 -77h-260l-25 -207h240l-10 -76h-240l-27 -218h260l-8 -77h-345l80 655h345zM336 829h89l-97 -119h-70z" />
    <glyph glyph-name="Ecircumflex" unicode="&#xca;" horiz-adv-x="485" 
d="M464 655l-10 -77h-260l-25 -207h240l-10 -76h-240l-27 -218h260l-8 -77h-345l80 655h345zM438 711l-135 49l-145 -49l7 68l147 61l133 -61z" />
    <glyph glyph-name="Edieresis" unicode="&#xcb;" horiz-adv-x="485" 
d="M464 655l-10 -77h-260l-25 -207h240l-10 -76h-240l-27 -218h260l-8 -77h-345l80 655h345zM265 752q-2 -21 -14.5 -31.5t-39.5 -10.5q-26 0 -42 13t-13 34l4 28q6 43 55 43q27 0 41.5 -12t12.5 -35zM437 752q-3 -42 -54 -42q-26 0 -42 13t-13 34l4 28q3 23 16 33t39 10
t41 -12t13 -35z" />
    <glyph glyph-name="Igrave" unicode="&#xcc;" horiz-adv-x="235" 
d="M204 655l-80 -655h-85l80 655h85zM201 710h-70l-73 119h89z" />
    <glyph glyph-name="Iacute" unicode="&#xcd;" horiz-adv-x="235" 
d="M204 655l-80 -655h-85l80 655h85zM206 829h89l-97 -119h-70z" />
    <glyph glyph-name="Icircumflex" unicode="&#xce;" horiz-adv-x="235" 
d="M204 655l-80 -655h-85l80 655h85zM309 711l-135 49l-145 -49l7 68l147 61l133 -61z" />
    <glyph glyph-name="Idieresis" unicode="&#xcf;" horiz-adv-x="235" 
d="M204 655l-80 -655h-85l80 655h85zM136 752q-2 -21 -14.5 -31.5t-39.5 -10.5q-26 0 -42 13t-13 34l4 28q6 43 55 43q27 0 41.5 -12t12.5 -35zM308 752q-3 -42 -54 -42q-26 0 -42 13t-13 34l4 28q3 23 16 33t39 10t41 -12t13 -35z" />
    <glyph glyph-name="Eth" unicode="&#xd0;" horiz-adv-x="576" 
d="M294 667q113 0 171.5 -59t58.5 -163q0 -25 -3 -50l-21 -166q-15 -117 -82.5 -179t-198.5 -62q-50 0 -90.5 2t-86.5 7l37 306h-70l10 70h69l36 289q32 2 76.5 3.5t93.5 1.5zM288 595q-15 0 -41.5 -0.5t-46.5 -1.5l-28 -220h137l-10 -70h-135l-29 -235q29 -4 51 -5.5
t41 -1.5q77 0 127.5 43t60.5 123l22 175q3 21 3 40q0 77 -40 115t-112 38z" />
    <glyph glyph-name="Ntilde" unicode="&#xd1;" horiz-adv-x="582" 
d="M123 0h-84l80 655h125l81.5 -275.5t73.5 -279.5l68 555h84l-80 -655h-125l-156 556zM495 740q-12 -9 -25 -15q-11 -6 -26.5 -10.5t-32.5 -4.5t-31.5 4t-29 8.5t-29 8.5t-29.5 4q-13 0 -27 -4t-26 -9q-14 -5 -28 -12l7 70q11 8 24 15q11 5 26.5 10t32.5 5q20 0 36 -4
t30 -8.5l27 -8.5t27 -4q12 0 26 3.5t26 8.5q14 5 28 13z" />
    <glyph glyph-name="Ograve" unicode="&#xd2;" horiz-adv-x="576" 
d="M327 667q106 0 158.5 -58t39.5 -162l-31 -249q-13 -105 -71 -157.5t-167 -52.5t-160 57.5t-38 162.5l31 249q14 109 70.5 159.5t167.5 50.5zM321 592q-132 0 -147 -127l-32 -268q-1 -7 -1.5 -13.5t-0.5 -12.5q0 -54 31.5 -81t89.5 -27q131 0 147 128l33 267q1 7 1.5 14
t0.5 13q0 107 -122 107zM363 710h-70l-73 119h89z" />
    <glyph glyph-name="Oacute" unicode="&#xd3;" horiz-adv-x="576" 
d="M327 667q106 0 158.5 -58t39.5 -162l-31 -249q-13 -105 -71 -157.5t-167 -52.5t-160 57.5t-38 162.5l31 249q14 109 70.5 159.5t167.5 50.5zM321 592q-132 0 -147 -127l-32 -268q-1 -7 -1.5 -13.5t-0.5 -12.5q0 -54 31.5 -81t89.5 -27q131 0 147 128l33 267q1 7 1.5 14
t0.5 13q0 107 -122 107zM368 829h89l-97 -119h-70z" />
    <glyph glyph-name="Ocircumflex" unicode="&#xd4;" horiz-adv-x="576" 
d="M327 667q106 0 158.5 -58t39.5 -162l-31 -249q-13 -105 -71 -157.5t-167 -52.5t-160 57.5t-38 162.5l31 249q14 109 70.5 159.5t167.5 50.5zM321 592q-132 0 -147 -127l-32 -268q-1 -7 -1.5 -13.5t-0.5 -12.5q0 -54 31.5 -81t89.5 -27q131 0 147 128l33 267q1 7 1.5 14
t0.5 13q0 107 -122 107zM470 711l-135 49l-145 -49l7 68l147 61l133 -61z" />
    <glyph glyph-name="Otilde" unicode="&#xd5;" horiz-adv-x="576" 
d="M327 667q106 0 158.5 -58t39.5 -162l-31 -249q-13 -105 -71 -157.5t-167 -52.5t-160 57.5t-38 162.5l31 249q14 109 70.5 159.5t167.5 50.5zM321 592q-132 0 -147 -127l-32 -268q-1 -7 -1.5 -13.5t-0.5 -12.5q0 -54 31.5 -81t89.5 -27q131 0 147 128l33 267q1 7 1.5 14
t0.5 13q0 107 -122 107zM473 740q-12 -9 -25 -15q-11 -6 -26.5 -10.5t-32.5 -4.5t-31.5 4t-29 8.5t-29 8.5t-29.5 4q-13 0 -27 -4t-26 -9q-14 -5 -28 -12l7 70q11 8 24 15q11 5 26.5 10t32.5 5q20 0 36 -4t30 -8.5l27 -8.5t27 -4q12 0 26 3.5t26 8.5q14 5 28 13z" />
    <glyph glyph-name="Odieresis" unicode="&#xd6;" horiz-adv-x="576" 
d="M327 667q106 0 158.5 -58t39.5 -162l-31 -249q-13 -105 -71 -157.5t-167 -52.5t-160 57.5t-38 162.5l31 249q14 109 70.5 159.5t167.5 50.5zM321 592q-132 0 -147 -127l-32 -268q-1 -7 -1.5 -13.5t-0.5 -12.5q0 -54 31.5 -81t89.5 -27q131 0 147 128l33 267q1 7 1.5 14
t0.5 13q0 107 -122 107zM297 752q-2 -21 -14.5 -31.5t-39.5 -10.5q-26 0 -42 13t-13 34l4 28q6 43 55 43q27 0 41.5 -12t12.5 -35zM469 752q-3 -42 -54 -42q-26 0 -42 13t-13 34l4 28q3 23 16 33t39 10t41 -12t13 -35z" />
    <glyph glyph-name="multiply" unicode="&#xd7;" horiz-adv-x="390" 
d="M248 302l93 -108l-62 -53l-93 107l-119 -105l-43 50l119 105l-91 108l60 54l93 -108l121 106l43 -50z" />
    <glyph glyph-name="Oslash" unicode="&#xd8;" horiz-adv-x="576" 
d="M508 575q19 -38 19 -91v-18t-2 -19l-31 -249q-13 -104 -71 -157t-167 -53q-42 0 -74 8.5t-56 23.5l-52 -70h-89l90 125q-20 38 -20 92q0 20 3 41l31 249q14 108 70 159t168 51q82 0 133 -37l53 75h89zM321 592q-132 0 -147 -127l-32 -268q-1 -8 -1.5 -15t-0.5 -14v-9
l277 401q-30 32 -96 32zM169 92q30 -29 92 -29q131 0 147 128l33 267q1 8 1 15v14z" />
    <glyph glyph-name="Ugrave" unicode="&#xd9;" horiz-adv-x="576" 
d="M489 201q-14 -109 -69 -161t-159 -52q-100 0 -150.5 46t-50.5 131q0 18 3 39l56 451h85l-57 -458q-8 -64 23.5 -98t96.5 -34q60 0 94 30.5t42 98.5l57 461h85zM369 710h-70l-73 119h89z" />
    <glyph glyph-name="Uacute" unicode="&#xda;" horiz-adv-x="576" 
d="M489 201q-14 -109 -69 -161t-159 -52q-100 0 -150.5 46t-50.5 131q0 18 3 39l56 451h85l-57 -458q-8 -64 23.5 -98t96.5 -34q60 0 94 30.5t42 98.5l57 461h85zM374 829h89l-97 -119h-70z" />
    <glyph glyph-name="Ucircumflex" unicode="&#xdb;" horiz-adv-x="576" 
d="M489 201q-14 -109 -69 -161t-159 -52q-100 0 -150.5 46t-50.5 131q0 18 3 39l56 451h85l-57 -458q-8 -64 23.5 -98t96.5 -34q60 0 94 30.5t42 98.5l57 461h85zM476 711l-135 49l-145 -49l7 68l147 61l133 -61z" />
    <glyph glyph-name="Udieresis" unicode="&#xdc;" horiz-adv-x="576" 
d="M489 201q-14 -109 -69 -161t-159 -52q-100 0 -150.5 46t-50.5 131q0 18 3 39l56 451h85l-57 -458q-8 -64 23.5 -98t96.5 -34q60 0 94 30.5t42 98.5l57 461h85zM303 752q-2 -21 -14.5 -31.5t-39.5 -10.5q-26 0 -42 13t-13 34l4 28q6 43 55 43q27 0 41.5 -12t12.5 -35z
M475 752q-3 -42 -54 -42q-26 0 -42 13t-13 34l4 28q3 23 16 33t39 10t41 -12t13 -35z" />
    <glyph glyph-name="Yacute" unicode="&#xdd;" horiz-adv-x="491" 
d="M252 0h-85l27 225l-137 430h93q26 -85 49.5 -170t44.5 -170q50 85 94 170l85 170h99l-243 -430zM329 829h89l-97 -119h-70z" />
    <glyph glyph-name="Thorn" unicode="&#xde;" horiz-adv-x="502" 
d="M199 535q22 1 43 1.5t38 0.5q119 0 171 -53.5t39 -148.5l-2 -15q-15 -88 -73 -135.5t-169 -47.5q-16 0 -42 2.5t-59 8.5l-21 -148h-85l92 655h85zM272 466q-29 0 -48 -0.5t-35 -1.5l-35 -247q32 -5 52.5 -7t38.5 -2q73 0 110.5 31t48.5 93l2 12q1 6 1.5 12t0.5 12
q0 46 -33 72t-103 26z" />
    <glyph glyph-name="germandbls" unicode="&#xdf;" horiz-adv-x="498" 
d="M304 695q37 0 66 -10.5t48.5 -28.5t28.5 -43.5t6 -55.5l-1 -9q-6 -41 -22.5 -63.5t-35 -38.5l-34 -30t-18.5 -36l-1 -7q0 -4 -0.5 -7t-0.5 -6q0 -15 5.5 -25t17.5 -18l44 -30q32 -23 47 -54.5t15 -69.5v-10.5t-1 -10.5l-1 -9q-8 -68 -43 -106.5t-101 -38.5
q-27 0 -55.5 5.5t-53.5 16.5l11 72q20 -8 37.5 -13.5t34.5 -9.5q5 -1 10 -1h10q23 0 40.5 18t22.5 53l3 22q1 4 1 12q0 40 -32 61l-45 30q-26 17 -38 40t-12 56q0 4 0.5 8t0.5 9l1 9q4 34 20 54.5t34 36.5t34 32t20 42l2 16q4 28 -14 48t-56 20q-37 0 -54.5 -18.5
t-23.5 -62.5l-76 -544h-85l58 418h-73l7 50l76 14l4 31q13 96 54 139t118 43z" />
    <glyph glyph-name="agrave" unicode="&#xe0;" horiz-adv-x="476" 
d="M227 500q35 0 66 -16.5t55 -45.5l6 50h80l-68 -488h-81l9 65l41 125l-2 2l-3 -1q-36 -108 -83 -155.5t-101 -47.5q-48 0 -79.5 33t-31.5 97q0 11 1 22.5t3 23.5l26 163q14 88 58 130.5t104 42.5zM238 427q-33 0 -56 -24.5t-32 -80.5l-24 -147q-2 -14 -3.5 -26t-1.5 -22
q0 -35 13 -49t36 -14q30 0 54.5 21t43.5 53t32.5 70t20.5 72l13 93q-20 25 -45 39.5t-51 14.5zM300 546h-71l-109 139h90z" />
    <glyph glyph-name="aacute" unicode="&#xe1;" horiz-adv-x="476" 
d="M227 500q35 0 66 -16.5t55 -45.5l6 50h80l-68 -488h-81l9 65l41 125l-2 2l-3 -1q-36 -108 -83 -155.5t-101 -47.5q-48 0 -79.5 33t-31.5 97q0 11 1 22.5t3 23.5l26 163q14 88 58 130.5t104 42.5zM238 427q-33 0 -56 -24.5t-32 -80.5l-24 -147q-2 -14 -3.5 -26t-1.5 -22
q0 -35 13 -49t36 -14q30 0 54.5 21t43.5 53t32.5 70t20.5 72l13 93q-20 25 -45 39.5t-51 14.5zM310 685h90l-109 -139h-71z" />
    <glyph glyph-name="acircumflex" unicode="&#xe2;" horiz-adv-x="476" 
d="M227 500q35 0 66 -16.5t55 -45.5l6 50h80l-68 -488h-81l9 65l41 125l-2 2l-3 -1q-36 -108 -83 -155.5t-101 -47.5q-48 0 -79.5 33t-31.5 97q0 11 1 22.5t3 23.5l26 163q14 88 58 130.5t104 42.5zM238 427q-33 0 -56 -24.5t-32 -80.5l-24 -147q-2 -14 -3.5 -26t-1.5 -22
q0 -35 13 -49t36 -14q30 0 54.5 21t43.5 53t32.5 70t20.5 72l13 93q-20 25 -45 39.5t-51 14.5zM396 546l-118 67l-142 -67l9 72l141 72l119 -77z" />
    <glyph glyph-name="atilde" unicode="&#xe3;" horiz-adv-x="476" 
d="M227 500q35 0 66 -16.5t55 -45.5l6 50h80l-68 -488h-81l9 65l41 125l-2 2l-3 -1q-36 -108 -83 -155.5t-101 -47.5q-48 0 -79.5 33t-31.5 97q0 11 1 22.5t3 23.5l26 163q14 88 58 130.5t104 42.5zM238 427q-33 0 -56 -24.5t-32 -80.5l-24 -147q-2 -14 -3.5 -26t-1.5 -22
q0 -35 13 -49t36 -14q30 0 54.5 21t43.5 53t32.5 70t20.5 72l13 93q-20 25 -45 39.5t-51 14.5zM398 613q-12 -8 -25 -14q-11 -5 -26.5 -9.5t-32.5 -4.5q-15 0 -27 4t-23.5 8.5t-23 8.5t-25.5 4q-13 0 -27 -4t-26 -9q-14 -5 -28 -12l10 68q12 9 25 16q11 6 26.5 11t32.5 5
q19 0 31.5 -4t23 -8.5l20.5 -8.5t23 -4q12 0 26.5 3.5t26.5 8.5q14 5 29 13z" />
    <glyph glyph-name="adieresis" unicode="&#xe4;" horiz-adv-x="476" 
d="M227 500q35 0 66 -16.5t55 -45.5l6 50h80l-68 -488h-81l9 65l41 125l-2 2l-3 -1q-36 -108 -83 -155.5t-101 -47.5q-48 0 -79.5 33t-31.5 97q0 11 1 22.5t3 23.5l26 163q14 88 58 130.5t104 42.5zM238 427q-33 0 -56 -24.5t-32 -80.5l-24 -147q-2 -14 -3.5 -26t-1.5 -22
q0 -35 13 -49t36 -14q30 0 54.5 21t43.5 53t32.5 70t20.5 72l13 93q-20 25 -45 39.5t-51 14.5zM234 619q-3 -21 -16 -31.5t-40 -10.5q-26 0 -41 13t-12 34l4 28q6 43 57 43q27 0 41 -12t11 -35zM406 619q-6 -42 -56 -42q-26 0 -41 13t-12 34l4 28q6 43 57 43q26 0 40.5 -12
t11.5 -35z" />
    <glyph glyph-name="aring" unicode="&#xe5;" horiz-adv-x="476" 
d="M227 500q35 0 66 -16.5t55 -45.5l6 50h80l-68 -488h-81l9 65l41 125l-2 2l-3 -1q-36 -108 -83 -155.5t-101 -47.5q-48 0 -79.5 33t-31.5 97q0 11 1 22.5t3 23.5l26 163q14 88 58 130.5t104 42.5zM238 427q-33 0 -56 -24.5t-32 -80.5l-24 -147q-2 -14 -3.5 -26t-1.5 -22
q0 -35 13 -49t36 -14q30 0 54.5 21t43.5 53t32.5 70t20.5 72l13 93q-20 25 -45 39.5t-51 14.5zM277 723q47 0 77 -24t30 -65q0 -45 -30 -75t-89 -30q-45 0 -76 24t-31 66q0 48 31 76t88 28zM275 672q-30 0 -42.5 -11.5t-12.5 -37.5q0 -19 12.5 -31t36.5 -12q30 0 42 12.5
t12 39.5q0 19 -12.5 29.5t-35.5 10.5z" />
    <glyph glyph-name="ae" unicode="&#xe6;" horiz-adv-x="700" 
d="M527 500q68 0 105 -34.5t37 -91.5q0 -36 -15.5 -70t-48.5 -61t-85.5 -45.5t-127.5 -24.5l-2 -11q-3 -17 -3 -30q0 -71 75 -71q32 0 70 11t72 28l-15 -77q-34 -16 -72.5 -25.5t-68.5 -9.5q-140 0 -144 137q-33 -72 -73 -104.5t-85 -32.5q-31 0 -52.5 11.5t-34.5 30
t-18.5 42.5t-5.5 49q0 24 4 43l27 167q14 85 55 127t103 42q21 0 42.5 -7t40.5 -19.5t35 -28.5t27 -34q29 45 69.5 67t88.5 22zM524 429q-38 0 -71.5 -38.5t-45.5 -118.5l-7 -45q66 10 108 27q41 28 59 55t18 58q0 29 -16.5 45.5t-44.5 16.5zM244 424q-38 0 -61.5 -22.5
t-32.5 -78.5l-24 -148q-2 -12 -3.5 -25t-1.5 -25q0 -26 10 -43.5t39 -17.5q32 0 59 25t47 59t31.5 68.5t13.5 53.5q2 16 8 40.5t16 50.5q-17 27 -45.5 45t-55.5 18z" />
    <glyph glyph-name="ccedilla" unicode="&#xe7;" horiz-adv-x="393" 
d="M248 500q26 0 53 -4t61 -14l-12 -76q-59 22 -103 22q-39 0 -64 -24.5t-33 -75.5l-21 -154q-2 -9 -2 -16.5v-15.5q0 -44 19 -61.5t52 -17.5q28 0 58.5 8t59.5 25l-9 -77q-30 -14 -59.5 -21.5t-55.5 -9.5l-12 -29h2q28 0 44 -19.5t12 -51.5l-1 -9q-5 -36 -27.5 -56
t-67.5 -20q-12 0 -29 2.5t-30 6.5l7 55q23 -10 45 -10q17 0 25 6.5t10 16.5l1 7v6q0 27 -34 27h-26l3 20l25 53q-48 11 -73.5 46t-25.5 92q0 19 3 42l21 148q14 94 60 136.5t124 42.5z" />
    <glyph glyph-name="egrave" unicode="&#xe8;" horiz-adv-x="436" 
d="M263 500q68 0 105.5 -34.5t36.5 -91.5q0 -36 -15.5 -70t-49 -61t-86 -45.5t-127.5 -24.5l-1 -11q-3 -17 -3 -30q0 -71 75 -71q32 0 70 11t72 28l-15 -77q-34 -16 -72.5 -25.5t-68.5 -9.5q-144 0 -144 145q0 13 1.5 27t3.5 30l12 78q17 117 73 174.5t133 57.5zM260 429
q-38 0 -71.5 -38.5t-45.5 -118.5l-7 -45q66 10 108 27q41 28 59 55t18 58q0 29 -16.5 45.5t-44.5 16.5zM300 546h-71l-109 139h90z" />
    <glyph glyph-name="eacute" unicode="&#xe9;" horiz-adv-x="436" 
d="M263 500q68 0 105.5 -34.5t36.5 -91.5q0 -36 -15.5 -70t-49 -61t-86 -45.5t-127.5 -24.5l-1 -11q-3 -17 -3 -30q0 -71 75 -71q32 0 70 11t72 28l-15 -77q-34 -16 -72.5 -25.5t-68.5 -9.5q-144 0 -144 145q0 13 1.5 27t3.5 30l12 78q17 117 73 174.5t133 57.5zM260 429
q-38 0 -71.5 -38.5t-45.5 -118.5l-7 -45q66 10 108 27q41 28 59 55t18 58q0 29 -16.5 45.5t-44.5 16.5zM310 685h90l-109 -139h-71z" />
    <glyph glyph-name="ecircumflex" unicode="&#xea;" horiz-adv-x="436" 
d="M263 500q68 0 105.5 -34.5t36.5 -91.5q0 -36 -15.5 -70t-49 -61t-86 -45.5t-127.5 -24.5l-1 -11q-3 -17 -3 -30q0 -71 75 -71q32 0 70 11t72 28l-15 -77q-34 -16 -72.5 -25.5t-68.5 -9.5q-144 0 -144 145q0 13 1.5 27t3.5 30l12 78q17 117 73 174.5t133 57.5zM260 429
q-38 0 -71.5 -38.5t-45.5 -118.5l-7 -45q66 10 108 27q41 28 59 55t18 58q0 29 -16.5 45.5t-44.5 16.5zM396 546l-118 67l-142 -67l9 72l141 72l119 -77z" />
    <glyph glyph-name="edieresis" unicode="&#xeb;" horiz-adv-x="436" 
d="M263 500q68 0 105.5 -34.5t36.5 -91.5q0 -36 -15.5 -70t-49 -61t-86 -45.5t-127.5 -24.5l-1 -11q-3 -17 -3 -30q0 -71 75 -71q32 0 70 11t72 28l-15 -77q-34 -16 -72.5 -25.5t-68.5 -9.5q-144 0 -144 145q0 13 1.5 27t3.5 30l12 78q17 117 73 174.5t133 57.5zM260 429
q-38 0 -71.5 -38.5t-45.5 -118.5l-7 -45q66 10 108 27q41 28 59 55t18 58q0 29 -16.5 45.5t-44.5 16.5zM234 619q-3 -21 -16 -31.5t-40 -10.5q-26 0 -41 13t-12 34l4 28q6 43 57 43q27 0 41 -12t11 -35zM406 619q-6 -42 -56 -42q-26 0 -41 13t-12 34l4 28q6 43 57 43
q26 0 40.5 -12t11.5 -35z" />
    <glyph glyph-name="igrave" unicode="&#xec;" horiz-adv-x="225" 
d="M183 488l-68 -488h-85l68 488h85zM189 546h-71l-109 139h90z" />
    <glyph glyph-name="iacute" unicode="&#xed;" horiz-adv-x="225" 
d="M183 488l-68 -488h-85l68 488h85zM198 685h90l-109 -139h-71z" />
    <glyph glyph-name="icircumflex" unicode="&#xee;" horiz-adv-x="225" 
d="M183 488l-68 -488h-85l68 488h85zM285 546l-118 67l-142 -67l9 72l141 72l119 -77z" />
    <glyph glyph-name="idieresis" unicode="&#xef;" horiz-adv-x="225" 
d="M183 488l-68 -488h-85l68 488h85zM123 619q-3 -21 -16 -31.5t-40 -10.5q-26 0 -41 13t-12 34l4 28q6 43 57 43q27 0 41 -12t11 -35zM295 619q-6 -42 -56 -42q-26 0 -41 13t-12 34l4 28q6 43 57 43q26 0 40.5 -12t11.5 -35z" />
    <glyph glyph-name="eth" unicode="&#xf0;" horiz-adv-x="487" 
d="M167 695q139 0 205 -80l105 30l-9 -66l-63 -18q25 -59 25 -137q0 -21 -2 -43t-5 -46l-24 -170q-12 -88 -55.5 -132.5t-129.5 -44.5q-81 0 -122 35.5t-41 104.5q0 18 3 39l16 115q11 84 48 120.5t99 36.5q34 0 67.5 -18.5t56.5 -59.5l4 25q2 14 3 26.5t1 24.5
q0 58 -22 102l-125 -34l10 66l73 20q-49 40 -127 40zM228 363q-30 0 -49.5 -22.5t-27.5 -76.5l-16 -112q-1 -5 -1 -9v-9q0 -37 22 -56t60 -19q45 0 67 22.5t28 66.5l19 133q-19 42 -47 62t-55 20z" />
    <glyph glyph-name="ntilde" unicode="&#xf1;" horiz-adv-x="485" 
d="M327 500q49 0 75.5 -27.5t26.5 -93.5q0 -14 -1 -29.5t-4 -33.5l-48 -316h-85l50 318q2 14 3 25t1 21q0 32 -11 44.5t-30 12.5q-26 0 -53.5 -26.5t-52.5 -77t-46 -123t-33 -164.5l-4 -30h-85l68 488h80l-11 -79l-45 -169l3 -2l3 2q35 130 87 195t112 65zM411 613
q-12 -8 -25 -14q-11 -5 -26.5 -9.5t-32.5 -4.5q-15 0 -27 4t-23.5 8.5t-23 8.5t-25.5 4q-13 0 -27 -4t-26 -9q-14 -5 -28 -12l10 68q12 9 25 16q11 6 26.5 11t32.5 5q19 0 31.5 -4t23 -8.5l20.5 -8.5t23 -4q12 0 26.5 3.5t26.5 8.5q14 5 29 13z" />
    <glyph glyph-name="ograve" unicode="&#xf2;" horiz-adv-x="472" 
d="M397 176q-12 -91 -60 -139.5t-132 -48.5q-82 0 -123.5 39.5t-41.5 108.5q0 16 3 36l20 144q12 89 62 136.5t131 47.5t122 -40t41 -108q0 -18 -3 -37zM332 322q1 6 1.5 12t0.5 11q0 41 -22 62.5t-60 21.5q-42 0 -68 -24t-34 -78l-23 -162q-1 -6 -1.5 -11.5t-0.5 -10.5
q0 -41 22.5 -62.5t60.5 -21.5q44 0 69 24.5t32 77.5zM296 546h-71l-109 139h90z" />
    <glyph glyph-name="oacute" unicode="&#xf3;" horiz-adv-x="472" 
d="M397 176q-12 -91 -60 -139.5t-132 -48.5q-82 0 -123.5 39.5t-41.5 108.5q0 16 3 36l20 144q12 89 62 136.5t131 47.5t122 -40t41 -108q0 -18 -3 -37zM332 322q1 6 1.5 12t0.5 11q0 41 -22 62.5t-60 21.5q-42 0 -68 -24t-34 -78l-23 -162q-1 -6 -1.5 -11.5t-0.5 -10.5
q0 -41 22.5 -62.5t60.5 -21.5q44 0 69 24.5t32 77.5zM306 685h90l-109 -139h-71z" />
    <glyph glyph-name="ocircumflex" unicode="&#xf4;" horiz-adv-x="472" 
d="M397 176q-12 -91 -60 -139.5t-132 -48.5q-82 0 -123.5 39.5t-41.5 108.5q0 16 3 36l20 144q12 89 62 136.5t131 47.5t122 -40t41 -108q0 -18 -3 -37zM332 322q1 6 1.5 12t0.5 11q0 41 -22 62.5t-60 21.5q-42 0 -68 -24t-34 -78l-23 -162q-1 -6 -1.5 -11.5t-0.5 -10.5
q0 -41 22.5 -62.5t60.5 -21.5q44 0 69 24.5t32 77.5zM392 546l-118 67l-142 -67l9 72l141 72l119 -77z" />
    <glyph glyph-name="otilde" unicode="&#xf5;" horiz-adv-x="472" 
d="M397 176q-12 -91 -60 -139.5t-132 -48.5q-82 0 -123.5 39.5t-41.5 108.5q0 16 3 36l20 144q12 89 62 136.5t131 47.5t122 -40t41 -108q0 -18 -3 -37zM332 322q1 6 1.5 12t0.5 11q0 41 -22 62.5t-60 21.5q-42 0 -68 -24t-34 -78l-23 -162q-1 -6 -1.5 -11.5t-0.5 -10.5
q0 -41 22.5 -62.5t60.5 -21.5q44 0 69 24.5t32 77.5zM394 613q-12 -8 -25 -14q-11 -5 -26.5 -9.5t-32.5 -4.5q-15 0 -27 4t-23.5 8.5t-23 8.5t-25.5 4q-13 0 -27 -4t-26 -9q-14 -5 -28 -12l10 68q12 9 25 16q11 6 26.5 11t32.5 5q19 0 31.5 -4t23 -8.5l20.5 -8.5t23 -4
q12 0 26.5 3.5t26.5 8.5q14 5 29 13z" />
    <glyph glyph-name="odieresis" unicode="&#xf6;" horiz-adv-x="472" 
d="M397 176q-12 -91 -60 -139.5t-132 -48.5q-82 0 -123.5 39.5t-41.5 108.5q0 16 3 36l20 144q12 89 62 136.5t131 47.5t122 -40t41 -108q0 -18 -3 -37zM332 322q1 6 1.5 12t0.5 11q0 41 -22 62.5t-60 21.5q-42 0 -68 -24t-34 -78l-23 -162q-1 -6 -1.5 -11.5t-0.5 -10.5
q0 -41 22.5 -62.5t60.5 -21.5q44 0 69 24.5t32 77.5zM230 619q-3 -21 -16 -31.5t-40 -10.5q-26 0 -41 13t-12 34l4 28q6 43 57 43q27 0 41 -12t11 -35zM402 619q-6 -42 -56 -42q-26 0 -41 13t-12 34l4 28q6 43 57 43q26 0 40.5 -12t11.5 -35z" />
    <glyph glyph-name="divide" unicode="&#xf7;" horiz-adv-x="390" 
d="M223 489q44 0 44 -35q0 -2 -0.5 -4.5t-0.5 -4.5l-2 -17q-3 -20 -16.5 -31.5t-38.5 -11.5q-21 0 -32 9.5t-11 25.5q0 2 0.5 4t0.5 4l2 17q3 20 16.5 32t37.5 12zM15 265l10 70h354l-10 -70h-354zM185 215q44 0 44 -34q0 -7 -1 -10l-3 -17q-3 -20 -16.5 -31.5t-38.5 -11.5
q-21 0 -32 9.5t-11 25.5q0 2 0.5 4t0.5 4l3 17q4 20 17 32t37 12z" />
    <glyph glyph-name="oslash" unicode="&#xf8;" horiz-adv-x="472" 
d="M409 411q10 -26 10 -60q0 -17 -3 -36l-19 -139q-12 -91 -60 -139.5t-132 -48.5q-36 0 -64.5 8t-48.5 22l-56 -69h-87l101 126q-10 26 -10 60q0 17 3 37l20 144q12 89 62 136.5t131 47.5q35 0 63 -8.5t48 -23.5l56 70h88zM252 429q-42 0 -68 -24t-34 -78l-22 -156l-2 -14
l193 240q-21 32 -67 32zM141 89q21 -30 67 -30q44 0 69 24.5t32 77.5l21 146l3 21z" />
    <glyph glyph-name="ugrave" unicode="&#xf9;" horiz-adv-x="486" 
d="M296 0l4 28l46 162l-2 2l-3 -1q-36 -108 -83 -155.5t-101 -47.5q-51 0 -80.5 33t-29.5 98q0 11 1 22t3 24l47 323h85l-46 -313q-2 -14 -3 -25.5t-1 -21.5q0 -36 12.5 -50t35.5 -14q36 0 63 28t45.5 68.5t30 86t16.5 79.5l23 162h86l-69 -488h-80zM311 546h-71l-109 139
h90z" />
    <glyph glyph-name="uacute" unicode="&#xfa;" horiz-adv-x="486" 
d="M296 0l4 28l46 162l-2 2l-3 -1q-36 -108 -83 -155.5t-101 -47.5q-51 0 -80.5 33t-29.5 98q0 11 1 22t3 24l47 323h85l-46 -313q-2 -14 -3 -25.5t-1 -21.5q0 -36 12.5 -50t35.5 -14q36 0 63 28t45.5 68.5t30 86t16.5 79.5l23 162h86l-69 -488h-80zM321 685h90l-109 -139
h-71z" />
    <glyph glyph-name="ucircumflex" unicode="&#xfb;" horiz-adv-x="486" 
d="M296 0l4 28l46 162l-2 2l-3 -1q-36 -108 -83 -155.5t-101 -47.5q-51 0 -80.5 33t-29.5 98q0 11 1 22t3 24l47 323h85l-46 -313q-2 -14 -3 -25.5t-1 -21.5q0 -36 12.5 -50t35.5 -14q36 0 63 28t45.5 68.5t30 86t16.5 79.5l23 162h86l-69 -488h-80zM407 546l-118 67
l-142 -67l9 72l141 72l119 -77z" />
    <glyph glyph-name="udieresis" unicode="&#xfc;" horiz-adv-x="486" 
d="M296 0l4 28l46 162l-2 2l-3 -1q-36 -108 -83 -155.5t-101 -47.5q-51 0 -80.5 33t-29.5 98q0 11 1 22t3 24l47 323h85l-46 -313q-2 -14 -3 -25.5t-1 -21.5q0 -36 12.5 -50t35.5 -14q36 0 63 28t45.5 68.5t30 86t16.5 79.5l23 162h86l-69 -488h-80zM245 619
q-3 -21 -16 -31.5t-40 -10.5q-26 0 -41 13t-12 34l4 28q6 43 57 43q27 0 41 -12t11 -35zM417 619q-6 -42 -56 -42q-26 0 -41 13t-12 34l4 28q6 43 57 43q26 0 40.5 -12t11.5 -35z" />
    <glyph glyph-name="yacute" unicode="&#xfd;" horiz-adv-x="486" 
d="M371 -36q-12 -86 -55 -123.5t-130 -37.5q-31 0 -70.5 6t-72.5 16l10 75q33 -11 70 -17.5t66 -6.5q48 0 69 20t27 61l11 71l50 162l-2 2l-3 -1q-36 -108 -83 -155.5t-101 -47.5q-51 0 -80.5 33t-29.5 98q0 11 1 22t3 24l47 323h85l-46 -313q-2 -14 -3 -25.5t-1 -21.5
q0 -36 12.5 -50t35.5 -14q36 0 63 28t45.5 68.5t30 86t16.5 79.5l23 162h86zM327 685h90l-109 -139h-71z" />
    <glyph glyph-name="thorn" unicode="&#xfe;" horiz-adv-x="477" 
d="M124 254l2 -2l3 2q35 120 80 183t107 63q51 0 82 -34t31 -103q0 -15 -2 -31.5t-5 -34.5l-28 -149q-30 -160 -157 -160q-30 0 -62 13.5t-56 35.5l-31 -222h-85l122 868h85l-31 -225zM296 424q-26 0 -51.5 -24t-47 -64t-38.5 -91.5t-25 -105.5l-6 -40q20 -17 44 -26.5
t44 -9.5q37 0 60.5 22.5t34.5 74.5l26 132q6 33 6 57q0 40 -13.5 57.5t-33.5 17.5z" />
    <glyph glyph-name="ydieresis" unicode="&#xff;" horiz-adv-x="486" 
d="M371 -36q-12 -86 -55 -123.5t-130 -37.5q-31 0 -70.5 6t-72.5 16l10 75q33 -11 70 -17.5t66 -6.5q48 0 69 20t27 61l11 71l50 162l-2 2l-3 -1q-36 -108 -83 -155.5t-101 -47.5q-51 0 -80.5 33t-29.5 98q0 11 1 22t3 24l47 323h85l-46 -313q-2 -14 -3 -25.5t-1 -21.5
q0 -36 12.5 -50t35.5 -14q36 0 63 28t45.5 68.5t30 86t16.5 79.5l23 162h86zM251 619q-3 -21 -16 -31.5t-40 -10.5q-26 0 -41 13t-12 34l4 28q6 43 57 43q27 0 41 -12t11 -35zM423 619q-6 -42 -56 -42q-26 0 -41 13t-12 34l4 28q6 43 57 43q26 0 40.5 -12t11.5 -35z" />
    <glyph glyph-name="Amacron" unicode="&#x100;" horiz-adv-x="532" 
d="M392 0l-10.5 76l-11.5 76h-239l-31 -76l-33 -76h-90l280 655h105l121 -655h-91zM299 576l-67 -174.5l-69 -173.5h195l-28.5 174.5zM441 785l-10 -75h-235l10 75h235z" />
    <glyph glyph-name="amacron" unicode="&#x101;" horiz-adv-x="476" 
d="M227 500q35 0 66 -16.5t55 -45.5l6 50h80l-68 -488h-81l9 65l41 125l-2 2l-3 -1q-36 -108 -83 -155.5t-101 -47.5q-48 0 -79.5 33t-31.5 97q0 11 1 22.5t3 23.5l26 163q14 88 58 130.5t104 42.5zM238 427q-33 0 -56 -24.5t-32 -80.5l-24 -147q-2 -14 -3.5 -26t-1.5 -22
q0 -35 13 -49t36 -14q30 0 54.5 21t43.5 53t32.5 70t20.5 72l13 93q-20 25 -45 39.5t-51 14.5zM383 681l-10 -75h-215l10 75h215z" />
    <glyph glyph-name="Abreve" unicode="&#x102;" horiz-adv-x="532" 
d="M392 0l-10.5 76l-11.5 76h-239l-31 -76l-33 -76h-90l280 655h105l121 -655h-91zM299 576l-67 -174.5l-69 -173.5h195l-28.5 174.5zM454 752q-21 -13 -45 -24q-20 -9 -46 -16t-53 -7q-29 0 -54 7t-43 16q-21 11 -39 24l9 78q19 -16 41 -27q19 -10 43.5 -18t50.5 -8t51.5 8
t46.5 18q25 11 47 27z" />
    <glyph glyph-name="abreve" unicode="&#x103;" horiz-adv-x="476" 
d="M227 500q35 0 66 -16.5t55 -45.5l6 50h80l-68 -488h-81l9 65l41 125l-2 2l-3 -1q-36 -108 -83 -155.5t-101 -47.5q-48 0 -79.5 33t-31.5 97q0 11 1 22.5t3 23.5l26 163q14 88 58 130.5t104 42.5zM238 427q-33 0 -56 -24.5t-32 -80.5l-24 -147q-2 -14 -3.5 -26t-1.5 -22
q0 -35 13 -49t36 -14q30 0 54.5 21t43.5 53t32.5 70t20.5 72l13 93q-20 25 -45 39.5t-51 14.5zM395 602q-16 -17 -36 -29q-18 -11 -43.5 -19.5t-58.5 -8.5q-32 0 -55 9.5t-38 20.5q-18 13 -29 31l12 79q13 -19 31 -33q15 -12 37.5 -22t52.5 -10q29 0 54.5 10t44.5 22
q22 14 40 33z" />
    <glyph glyph-name="Aogonek" unicode="&#x104;" horiz-adv-x="532" 
d="M460 0q-29 -14 -46.5 -37.5t-21.5 -49.5l-1 -10q-1 -3 -1 -9q0 -28 38 -28q15 0 33 3l-8 -61q-14 -3 -26 -4t-23 -1q-46 0 -67.5 18.5t-21.5 48.5q0 9 1 14l2 13q4 29 23.5 57t50.5 47q-5 38 -10.5 75.5l-11.5 75.5h-239l-31.5 -76l-32.5 -76h-90l280 655h105l121 -655
h-23zM299 576l-67 -174.5l-69 -173.5h195l-28.5 174.5z" />
    <glyph glyph-name="aogonek" unicode="&#x105;" horiz-adv-x="476" 
d="M227 500q35 0 65.5 -16.5t54.5 -45.5l7 50h80l-68 -488h-16q-29 -14 -46.5 -37.5t-21.5 -49.5l-1 -10q-1 -3 -1 -9q0 -28 38 -28q15 0 33 3l-8 -61q-14 -3 -26 -4t-23 -1q-46 0 -67.5 18.5t-21.5 48.5q0 9 1 14l2 13q4 29 24.5 58t52.5 48l9 62l41 125l-2 2l-3 -1
q-36 -108 -83 -155.5t-101 -47.5q-48 0 -79.5 33t-31.5 97q0 11 1 22.5t3 23.5l26 163q14 88 58 130.5t104 42.5zM238 427q-33 0 -56 -24.5t-32 -80.5l-24 -147q-2 -14 -3.5 -26t-1.5 -22q0 -35 13 -49t36 -14q30 0 54.5 20.5t43.5 52t32 69.5t20 72l14 95q-20 25 -45 39.5
t-51 14.5z" />
    <glyph glyph-name="Cacute" unicode="&#x106;" horiz-adv-x="476" 
d="M303 667q33 0 73.5 -6.5t75.5 -17.5l-11 -80q-35 14 -72.5 22t-67.5 8q-54 0 -85.5 -29.5t-39.5 -94.5l-33 -275q-1 -9 -1.5 -17.5t-0.5 -16.5q0 -52 24.5 -73t75.5 -21q35 0 71.5 9.5t78.5 28.5l-8 -80q-16 -8 -36 -14.5t-41 -11.5t-41 -7.5t-37 -2.5q-86 0 -129 41
t-43 128q0 23 3 50l31 256q13 106 66 155t147 49zM348 829h89l-97 -119h-70z" />
    <glyph glyph-name="cacute" unicode="&#x107;" horiz-adv-x="393" 
d="M186 -12q-70 0 -108 37t-38 107q0 20 3 41l21 148q14 94 60 136.5t124 42.5q26 0 53 -4t61 -14l-12 -76q-59 22 -103 22q-39 0 -64 -24.5t-33 -75.5l-21 -154q-2 -9 -2 -16.5v-15.5q0 -44 19 -61.5t52 -17.5q28 0 58.5 8t59.5 25l-9 -77q-32 -15 -63.5 -23t-57.5 -8z
M293 685h90l-109 -139h-71z" />
    <glyph glyph-name="Ccircumflex" unicode="&#x108;" horiz-adv-x="476" 
d="M303 667q33 0 73.5 -6.5t75.5 -17.5l-11 -80q-35 14 -72.5 22t-67.5 8q-54 0 -85.5 -29.5t-39.5 -94.5l-33 -275q-1 -9 -1.5 -17.5t-0.5 -16.5q0 -52 24.5 -73t75.5 -21q35 0 71.5 9.5t78.5 28.5l-8 -80q-16 -8 -36 -14.5t-41 -11.5t-41 -7.5t-37 -2.5q-86 0 -129 41
t-43 128q0 23 3 50l31 256q13 106 66 155t147 49zM450 711l-135 49l-145 -49l7 68l147 61l133 -61z" />
    <glyph glyph-name="ccircumflex" unicode="&#x109;" horiz-adv-x="393" 
d="M186 -12q-70 0 -108 37t-38 107q0 20 3 41l21 148q14 94 60 136.5t124 42.5q26 0 53 -4t61 -14l-12 -76q-59 22 -103 22q-39 0 -64 -24.5t-33 -75.5l-21 -154q-2 -9 -2 -16.5v-15.5q0 -44 19 -61.5t52 -17.5q28 0 58.5 8t59.5 25l-9 -77q-32 -15 -63.5 -23t-57.5 -8z
M379 546l-118 67l-142 -67l9 72l141 72l119 -77z" />
    <glyph glyph-name="Cdotaccent" unicode="&#x10a;" horiz-adv-x="476" 
d="M303 667q33 0 73.5 -6.5t75.5 -17.5l-11 -80q-35 14 -72.5 22t-67.5 8q-54 0 -85.5 -29.5t-39.5 -94.5l-33 -275q-1 -9 -1.5 -17.5t-0.5 -16.5q0 -52 24.5 -73t75.5 -21q35 0 71.5 9.5t78.5 28.5l-8 -80q-16 -8 -36 -14.5t-41 -11.5t-41 -7.5t-37 -2.5q-86 0 -129 41
t-43 128q0 23 3 50l31 256q13 106 66 155t147 49zM364 751q-3 -42 -56 -42q-26 0 -42 13t-13 35l4 29q6 43 56 43q27 0 42 -13t13 -36z" />
    <glyph glyph-name="cdotaccent" unicode="&#x10b;" horiz-adv-x="393" 
d="M186 -12q-70 0 -108 37t-38 107q0 20 3 41l21 148q14 94 60 136.5t124 42.5q26 0 53 -4t61 -14l-12 -76q-59 22 -103 22q-39 0 -64 -24.5t-33 -75.5l-21 -154q-2 -9 -2 -16.5v-15.5q0 -44 19 -61.5t52 -17.5q28 0 58.5 8t59.5 25l-9 -77q-32 -15 -63.5 -23t-57.5 -8z
M304 617q-6 -42 -58 -42q-26 0 -41 12.5t-12 35.5l4 29q6 43 58 43q27 0 41.5 -13t11.5 -36z" />
    <glyph glyph-name="Ccaron" unicode="&#x10c;" horiz-adv-x="476" 
d="M303 667q33 0 73.5 -6.5t75.5 -17.5l-11 -80q-35 14 -72.5 22t-67.5 8q-54 0 -85.5 -29.5t-39.5 -94.5l-33 -275q-1 -9 -1.5 -17.5t-0.5 -16.5q0 -52 24.5 -73t75.5 -21q35 0 71.5 9.5t78.5 28.5l-8 -80q-16 -8 -36 -14.5t-41 -11.5t-41 -7.5t-37 -2.5q-86 0 -129 41
t-43 128q0 23 3 50l31 256q13 106 66 155t147 49zM304 712l-134 61l8 68l135 -49l145 49l-8 -68z" />
    <glyph glyph-name="ccaron" unicode="&#x10d;" horiz-adv-x="393" 
d="M186 -12q-70 0 -108 37t-38 107q0 20 3 41l21 148q14 94 60 136.5t124 42.5q26 0 53 -4t61 -14l-12 -76q-59 22 -103 22q-39 0 -64 -24.5t-33 -75.5l-21 -154q-2 -9 -2 -16.5v-15.5q0 -44 19 -61.5t52 -17.5q28 0 58.5 8t59.5 25l-9 -77q-32 -15 -63.5 -23t-57.5 -8z
M238 546l-119 76l9 68l118 -67l142 67l-9 -74z" />
    <glyph glyph-name="Dcaron" unicode="&#x10e;" horiz-adv-x="573" 
d="M121 662q32 2 76.5 3.5t93.5 1.5q113 0 171.5 -59t58.5 -163q0 -25 -3 -50l-21 -166q-15 -119 -83 -180t-198 -61q-50 0 -90.5 2t-86.5 7zM132 68q29 -4 51 -5.5t41 -1.5q77 0 127.5 43t60.5 123l22 175q3 21 3 40q0 77 -40 115t-112 38q-15 0 -41.5 -0.5t-46.5 -1.5z
M305 712l-134 61l8 68l135 -49l145 49l-8 -68z" />
    <glyph glyph-name="dcaron" unicode="&#x10f;" horiz-adv-x="540" 
d="M285 0l9 65l41 125l-2 2l-3 -1q-36 -108 -83 -155.5t-101 -47.5q-48 0 -79.5 33t-31.5 97q0 11 1 22.5t3 23.5l27 167q14 87 57 128t102 41q33 0 63.5 -15.5t54.5 -41.5l33 240h85l-95 -683h-81zM238 424q-34 0 -56.5 -23t-31.5 -79l-24 -147q-2 -14 -3.5 -26t-1.5 -22
q0 -35 13 -49t36 -14q30 0 54.5 20.5t43.5 52t32 68.5t20 71l13 98q-20 24 -44.5 37t-50.5 13zM586 629q-2 -13 -5.5 -22.5t-9.5 -22.5l-28 -59h-52l26 71q-25 9 -25 33q0 2 0.5 4.5t0.5 4.5l3 20q3 19 13 28t33 9q48 0 48 -36q0 -7 -1 -10z" />
    <glyph glyph-name="Dcroat" unicode="&#x110;" horiz-adv-x="576" 
d="M294 667q113 0 171.5 -59t58.5 -163q0 -25 -3 -50l-21 -166q-15 -117 -82.5 -179t-198.5 -62q-50 0 -90.5 2t-86.5 7l37 306h-70l10 70h69l36 289q32 2 76.5 3.5t93.5 1.5zM288 595q-15 0 -41.5 -0.5t-46.5 -1.5l-28 -220h137l-10 -70h-135l-29 -235q29 -4 51 -5.5
t41 -1.5q77 0 127.5 43t60.5 123l22 175q3 21 3 40q0 77 -40 115t-112 38z" />
    <glyph glyph-name="dcroat" unicode="&#x111;" horiz-adv-x="481" 
d="M523 623l-10 -70h-70l-77 -553h-81l9 65l41 125l-2 2l-3 -1q-36 -108 -83 -155.5t-101 -47.5q-48 0 -79.5 33t-31.5 97q0 11 1 22.5t3 23.5l27 167q14 87 57 128t102 41q33 0 63.5 -15.5t54.5 -41.5l15 110h-120l10 70h119l9 60h85l-9 -60h71zM238 424q-34 0 -56.5 -23
t-31.5 -79l-24 -147q-2 -14 -3.5 -26t-1.5 -22q0 -35 13 -49t36 -14q30 0 54.5 20.5t43.5 52t32 68.5t20 71l13 98q-20 24 -44.5 37t-50.5 13z" />
    <glyph glyph-name="Emacron" unicode="&#x112;" horiz-adv-x="485" 
d="M464 655l-10 -77h-260l-25 -207h240l-10 -76h-240l-27 -218h260l-8 -77h-345l80 655h345zM424 785l-10 -75h-235l10 75h235z" />
    <glyph glyph-name="emacron" unicode="&#x113;" horiz-adv-x="436" 
d="M263 500q68 0 105.5 -34.5t36.5 -91.5q0 -36 -15.5 -70t-49 -61t-86 -45.5t-127.5 -24.5l-1 -11q-3 -17 -3 -30q0 -71 75 -71q32 0 70 11t72 28l-15 -77q-34 -16 -72.5 -25.5t-68.5 -9.5q-144 0 -144 145q0 13 1.5 27t3.5 30l12 78q17 117 73 174.5t133 57.5zM260 429
q-38 0 -71.5 -38.5t-45.5 -118.5l-7 -45q66 10 108 27q41 28 59 55t18 58q0 29 -16.5 45.5t-44.5 16.5zM383 681l-10 -75h-215l10 75h215z" />
    <glyph glyph-name="Ebreve" unicode="&#x114;" horiz-adv-x="485" 
d="M464 655l-10 -77h-260l-25 -207h240l-10 -76h-240l-27 -218h260l-8 -77h-345l80 655h345zM437 752q-21 -13 -45 -24q-20 -9 -46 -16t-53 -7q-29 0 -54 7t-43 16q-21 11 -39 24l9 78q19 -16 41 -27q19 -10 43.5 -18t50.5 -8t51.5 8t46.5 18q25 11 47 27z" />
    <glyph glyph-name="ebreve" unicode="&#x115;" horiz-adv-x="436" 
d="M263 500q68 0 105.5 -34.5t36.5 -91.5q0 -36 -15.5 -70t-49 -61t-86 -45.5t-127.5 -24.5l-1 -11q-3 -17 -3 -30q0 -71 75 -71q32 0 70 11t72 28l-15 -77q-34 -16 -72.5 -25.5t-68.5 -9.5q-144 0 -144 145q0 13 1.5 27t3.5 30l12 78q17 117 73 174.5t133 57.5zM260 429
q-38 0 -71.5 -38.5t-45.5 -118.5l-7 -45q66 10 108 27q41 28 59 55t18 58q0 29 -16.5 45.5t-44.5 16.5zM395 602q-16 -17 -36 -29q-18 -11 -43.5 -19.5t-58.5 -8.5q-32 0 -55 9.5t-38 20.5q-18 13 -29 31l12 79q13 -19 31 -33q15 -12 37.5 -22t52.5 -10q29 0 54.5 10
t44.5 22q22 14 40 33z" />
    <glyph glyph-name="Edotaccent" unicode="&#x116;" horiz-adv-x="485" 
d="M464 655l-10 -77h-260l-25 -207h240l-10 -76h-240l-27 -218h260l-8 -77h-345l80 655h345zM352 751q-3 -42 -56 -42q-26 0 -42 13t-13 35l4 29q6 43 56 43q27 0 42 -13t13 -36z" />
    <glyph glyph-name="edotaccent" unicode="&#x117;" horiz-adv-x="436" 
d="M263 500q68 0 105.5 -34.5t36.5 -91.5q0 -36 -15.5 -70t-49 -61t-86 -45.5t-127.5 -24.5l-1 -11q-3 -17 -3 -30q0 -71 75 -71q32 0 70 11t72 28l-15 -77q-34 -16 -72.5 -25.5t-68.5 -9.5q-144 0 -144 145q0 13 1.5 27t3.5 30l12 78q17 117 73 174.5t133 57.5zM260 429
q-38 0 -71.5 -38.5t-45.5 -118.5l-7 -45q66 10 108 27q41 28 59 55t18 58q0 29 -16.5 45.5t-44.5 16.5zM321 617q-6 -42 -58 -42q-26 0 -41 12.5t-12 35.5l4 29q6 43 58 43q27 0 41.5 -13t11.5 -36z" />
    <glyph glyph-name="Eogonek" unicode="&#x118;" horiz-adv-x="485" 
d="M194 578l-25 -207h240l-10 -76h-240l-27 -218h260l-8 -77h-65q-29 -14 -46.5 -37.5t-21.5 -49.5l-1 -10q-1 -3 -1 -9q0 -28 38 -28q15 0 33 3l-8 -61q-14 -3 -26 -4t-23 -1q-46 0 -67.5 18.5t-21.5 48.5q0 9 1 14l2 13q4 29 23.5 56.5t48.5 46.5h-210l80 655h345l-10 -77
h-260z" />
    <glyph glyph-name="eogonek" unicode="&#x119;" horiz-adv-x="436" 
d="M263 500q68 0 105.5 -34.5t36.5 -91.5q0 -36 -15.5 -70t-49 -61t-86 -45.5t-127.5 -24.5l-1 -11q-1 -6 -1 -11.5v-10.5q0 -42 17.5 -60.5t55.5 -18.5q32 0 70 11t72 28l-15 -77q-8 -4 -19 -8.5t-20 -7.5q-36 -13 -58 -39t-27 -55l-1 -10q-1 -3 -1 -9q0 -28 38 -28
q15 0 33 3l-8 -61q-14 -3 -26 -4t-23 -1q-46 0 -67.5 18.5t-21.5 48.5q0 9 1 14l2 13q3 24 18 48t38 43q-143 1 -143 144q0 14 1.5 28t3.5 30l12 78q17 117 73 174.5t133 57.5zM260 429q-38 0 -71.5 -38.5t-45.5 -118.5l-7 -45q66 10 108 27q41 28 59 55t18 58
q0 29 -16.5 45.5t-44.5 16.5z" />
    <glyph glyph-name="Ecaron" unicode="&#x11a;" horiz-adv-x="485" 
d="M464 655l-10 -77h-260l-25 -207h240l-10 -76h-240l-27 -218h260l-8 -77h-345l80 655h345zM292 712l-134 61l8 68l135 -49l145 49l-8 -68z" />
    <glyph glyph-name="ecaron" unicode="&#x11b;" horiz-adv-x="436" 
d="M263 500q68 0 105.5 -34.5t36.5 -91.5q0 -36 -15.5 -70t-49 -61t-86 -45.5t-127.5 -24.5l-1 -11q-3 -17 -3 -30q0 -71 75 -71q32 0 70 11t72 28l-15 -77q-34 -16 -72.5 -25.5t-68.5 -9.5q-144 0 -144 145q0 13 1.5 27t3.5 30l12 78q17 117 73 174.5t133 57.5zM260 429
q-38 0 -71.5 -38.5t-45.5 -118.5l-7 -45q66 10 108 27q41 28 59 55t18 58q0 29 -16.5 45.5t-44.5 16.5zM255 546l-119 76l9 68l118 -67l142 67l-9 -74z" />
    <glyph glyph-name="Gcircumflex" unicode="&#x11c;" horiz-adv-x="555" 
d="M253 -12q-97 0 -147 46t-50 133q0 20 3 41l31 257q12 103 65 152.5t161 49.5q21 0 45 -2.5t48.5 -6.5t47 -9t40.5 -11l-10 -78q-41 15 -88 24.5t-87 9.5q-63 0 -96 -28.5t-41 -94.5l-34 -278q-1 -7 -1.5 -13.5t-0.5 -12.5q0 -53 30 -78.5t87 -25.5q33 0 62.5 5.5
t55.5 16.5l26 213h-126l11 80h210l-41 -333q-43 -23 -97.5 -40t-103.5 -17zM462 711l-135 49l-145 -49l7 68l147 61l133 -61z" />
    <glyph glyph-name="gcircumflex" unicode="&#x11d;" horiz-adv-x="478" 
d="M229 500q35 0 66 -16.5t55 -45.5l7 50h80l-74 -524q-12 -85 -55 -123t-130 -38q-31 0 -70.5 6t-72.5 16l10 75q33 -11 70 -17.5t66 -6.5q47 0 68 19.5t28 61.5l11 71l50 162l-2 2l-3 -1q-37 -108 -83.5 -155.5t-101.5 -47.5q-48 0 -79 33t-31 97q0 23 4 46l26 163
q14 88 57.5 130.5t103.5 42.5zM240 427q-33 0 -55.5 -24.5t-31.5 -80.5l-24 -147q-2 -14 -3.5 -26t-1.5 -23q0 -35 12.5 -48.5t35.5 -13.5q32 0 57.5 23t45 57.5t32.5 75t19 75.5l11 77q-20 26 -45.5 40.5t-51.5 14.5zM393 546l-118 67l-142 -67l9 72l141 72l119 -77z" />
    <glyph glyph-name="Gbreve" unicode="&#x11e;" horiz-adv-x="555" 
d="M253 -12q-97 0 -147 46t-50 133q0 20 3 41l31 257q12 103 65 152.5t161 49.5q21 0 45 -2.5t48.5 -6.5t47 -9t40.5 -11l-10 -78q-41 15 -88 24.5t-87 9.5q-63 0 -96 -28.5t-41 -94.5l-34 -278q-1 -7 -1.5 -13.5t-0.5 -12.5q0 -53 30 -78.5t87 -25.5q33 0 62.5 5.5
t55.5 16.5l26 213h-126l11 80h210l-41 -333q-43 -23 -97.5 -40t-103.5 -17zM461 752q-21 -13 -45 -24q-20 -9 -46 -16t-53 -7q-29 0 -54 7t-43 16q-21 11 -39 24l9 78q19 -16 41 -27q19 -10 43.5 -18t50.5 -8t51.5 8t46.5 18q25 11 47 27z" />
    <glyph glyph-name="gbreve" unicode="&#x11f;" horiz-adv-x="478" 
d="M229 500q35 0 66 -16.5t55 -45.5l7 50h80l-74 -524q-12 -85 -55 -123t-130 -38q-31 0 -70.5 6t-72.5 16l10 75q33 -11 70 -17.5t66 -6.5q47 0 68 19.5t28 61.5l11 71l50 162l-2 2l-3 -1q-37 -108 -83.5 -155.5t-101.5 -47.5q-48 0 -79 33t-31 97q0 23 4 46l26 163
q14 88 57.5 130.5t103.5 42.5zM240 427q-33 0 -55.5 -24.5t-31.5 -80.5l-24 -147q-2 -14 -3.5 -26t-1.5 -23q0 -35 12.5 -48.5t35.5 -13.5q32 0 57.5 23t45 57.5t32.5 75t19 75.5l11 77q-20 26 -45.5 40.5t-51.5 14.5zM392 602q-16 -17 -36 -29q-18 -11 -43.5 -19.5
t-58.5 -8.5q-32 0 -55 9.5t-38 20.5q-18 13 -29 31l12 79q13 -19 31 -33q15 -12 37.5 -22t52.5 -10q29 0 54.5 10t44.5 22q22 14 40 33z" />
    <glyph glyph-name="Gdotaccent" unicode="&#x120;" horiz-adv-x="555" 
d="M253 -12q-97 0 -147 46t-50 133q0 20 3 41l31 257q12 103 65 152.5t161 49.5q21 0 45 -2.5t48.5 -6.5t47 -9t40.5 -11l-10 -78q-41 15 -88 24.5t-87 9.5q-63 0 -96 -28.5t-41 -94.5l-34 -278q-1 -7 -1.5 -13.5t-0.5 -12.5q0 -53 30 -78.5t87 -25.5q33 0 62.5 5.5
t55.5 16.5l26 213h-126l11 80h210l-41 -333q-43 -23 -97.5 -40t-103.5 -17zM376 751q-3 -42 -56 -42q-26 0 -42 13t-13 35l4 29q6 43 56 43q27 0 42 -13t13 -36z" />
    <glyph glyph-name="gdotaccent" unicode="&#x121;" horiz-adv-x="478" 
d="M229 500q35 0 66 -16.5t55 -45.5l7 50h80l-74 -524q-12 -85 -55 -123t-130 -38q-31 0 -70.5 6t-72.5 16l10 75q33 -11 70 -17.5t66 -6.5q47 0 68 19.5t28 61.5l11 71l50 162l-2 2l-3 -1q-37 -108 -83.5 -155.5t-101.5 -47.5q-48 0 -79 33t-31 97q0 23 4 46l26 163
q14 88 57.5 130.5t103.5 42.5zM240 427q-33 0 -55.5 -24.5t-31.5 -80.5l-24 -147q-2 -14 -3.5 -26t-1.5 -23q0 -35 12.5 -48.5t35.5 -13.5q32 0 57.5 23t45 57.5t32.5 75t19 75.5l11 77q-20 26 -45.5 40.5t-51.5 14.5zM318 617q-6 -42 -58 -42q-26 0 -41 12.5t-12 35.5l4 29
q6 43 58 43q27 0 41.5 -13t11.5 -36z" />
    <glyph glyph-name="Gcommaaccent" unicode="&#x122;" horiz-adv-x="555" 
d="M253 -12q-97 0 -147 46t-50 133q0 20 3 41l31 257q12 103 65 152.5t161 49.5q21 0 45 -2.5t48.5 -6.5t47 -9t40.5 -11l-10 -78q-41 15 -88 24.5t-87 9.5q-63 0 -96 -28.5t-41 -94.5l-34 -278q-1 -7 -1.5 -13.5t-0.5 -12.5q0 -53 30 -78.5t87 -25.5q33 0 62.5 5.5
t55.5 16.5l26 213h-126l11 80h210l-41 -333q-43 -23 -97.5 -40t-103.5 -17zM305 -122q-2 -13 -5.5 -22.5t-9.5 -22.5l-28 -59h-52l26 71q-25 9 -25 33q0 2 0.5 4.5t0.5 4.5l3 20q3 19 13 28t33 9q48 0 48 -36q0 -7 -1 -10z" />
    <glyph glyph-name="gcommaaccent" unicode="&#x123;" horiz-adv-x="478" 
d="M222 610q2 13 5.5 22.5t9.5 22.5l28 59h52l-26 -71q25 -9 25 -33q0 -2 -0.5 -4.5t-0.5 -4.5l-3 -20q-3 -19 -13 -28t-33 -9q-48 0 -48 36q0 7 1 10zM229 500q35 0 66 -16.5t55 -45.5l7 50h80l-74 -524q-12 -85 -55 -123t-130 -38q-31 0 -70.5 6t-72.5 16l10 75
q33 -11 70 -17.5t66 -6.5q47 0 68 19.5t28 61.5l11 71l50 162l-2 2l-3 -1q-37 -108 -83.5 -155.5t-101.5 -47.5q-48 0 -79 33t-31 97q0 23 4 46l26 163q14 88 57.5 130.5t103.5 42.5zM240 427q-33 0 -55.5 -24.5t-31.5 -80.5l-24 -147q-2 -14 -3.5 -26t-1.5 -23
q0 -35 12.5 -48.5t35.5 -13.5q32 0 57.5 23t45 57.5t32.5 75t19 75.5l11 77q-20 26 -45.5 40.5t-51.5 14.5z" />
    <glyph glyph-name="Hcircumflex" unicode="&#x124;" horiz-adv-x="580" 
d="M160 300l-36 -300h-85l80 655h85l-35 -279h260l35 279h85l-80 -655h-85l36 300h-260zM476 711l-135 49l-145 -49l7 68l147 61l133 -61z" />
    <glyph glyph-name="hcircumflex" unicode="&#x125;" horiz-adv-x="481" 
d="M199 683q-1 -38 -3.5 -82t-8.5 -87l-4 -29l-61 -245l3 -2l3 2q35 130 87 195t112 65q49 0 75.5 -27.5t26.5 -93.5q0 -14 -1 -29.5t-4 -33.5l-48 -316h-85l50 318q2 14 3 25t1 21q0 32 -11 44.5t-30 12.5q-26 0 -53.5 -28t-52.5 -76t-44.5 -113t-29.5 -139l-9 -65h-85
l64 458q10 70 14 122.5t6 102.5h85zM398 711l-135 49l-145 -49l7 68l147 61l133 -61z" />
    <glyph glyph-name="Hbar" unicode="&#x126;" horiz-adv-x="590" 
d="M132 655h85l-10 -68h260l10 68h85l-10 -68h50l-10 -71h-50l-72 -516h-85l42 300h-260l-42 -300h-85l72 516h-50l10 71h50zM197 516l-20 -140h260l20 140h-260z" />
    <glyph glyph-name="hbar" unicode="&#x127;" horiz-adv-x="486" 
d="M204 683q-1 -15 -1 -30t-1 -30h125l-10 -70h-120q-2 -10 -2.5 -19.5t-2.5 -19.5l-4 -29l-61 -245l3 -2l3 2q35 130 87 195t112 65q49 0 75.5 -27.5t26.5 -93.5q0 -14 -1 -29.5t-4 -33.5l-48 -316h-85l50 318q2 14 3 25t1 21q0 32 -11 44.5t-30 12.5q-26 0 -53.5 -28
t-52.5 -76t-44.5 -113t-29.5 -139l-9 -65h-85l64 458q4 26 6.5 49.5t4.5 45.5h-68l10 70h64q2 15 2 30t1 30h85z" />
    <glyph glyph-name="Itilde" unicode="&#x128;" horiz-adv-x="235" 
d="M204 655l-80 -655h-85l80 655h85zM312 740q-12 -9 -25 -15q-11 -6 -26.5 -10.5t-32.5 -4.5t-31.5 4t-29 8.5t-29 8.5t-29.5 4q-13 0 -27 -4t-26 -9q-14 -5 -28 -12l7 70q11 8 24 15q11 5 26.5 10t32.5 5q20 0 36 -4t30 -8.5l27 -8.5t27 -4q12 0 26 3.5t26 8.5q14 5 28 13
z" />
    <glyph glyph-name="itilde" unicode="&#x129;" horiz-adv-x="225" 
d="M183 488l-68 -488h-85l68 488h85zM287 613q-12 -8 -25 -14q-11 -5 -26.5 -9.5t-32.5 -4.5q-15 0 -27 4t-23.5 8.5t-23 8.5t-25.5 4q-13 0 -27 -4t-26 -9q-14 -5 -28 -12l10 68q12 9 25 16q11 6 26.5 11t32.5 5q19 0 31.5 -4t23 -8.5l20.5 -8.5t23 -4q12 0 26.5 3.5
t26.5 8.5q14 5 29 13z" />
    <glyph glyph-name="Imacron" unicode="&#x12a;" horiz-adv-x="235" 
d="M204 655l-80 -655h-85l80 655h85zM294 785l-10 -75h-235l10 75h235z" />
    <glyph glyph-name="imacron" unicode="&#x12b;" horiz-adv-x="225" 
d="M183 488l-68 -488h-85l68 488h85zM271 681l-10 -75h-215l10 75h215z" />
    <glyph glyph-name="Ibreve" unicode="&#x12c;" horiz-adv-x="235" 
d="M204 655l-80 -655h-85l80 655h85zM308 752q-21 -13 -45 -24q-20 -9 -46 -16t-53 -7q-29 0 -54 7t-43 16q-21 11 -39 24l9 78q19 -16 41 -27q19 -10 43.5 -18t50.5 -8t51.5 8t46.5 18q25 11 47 27z" />
    <glyph glyph-name="ibreve" unicode="&#x12d;" horiz-adv-x="225" 
d="M183 488l-68 -488h-85l68 488h85zM284 602q-16 -17 -36 -29q-18 -11 -43.5 -19.5t-58.5 -8.5q-32 0 -55 9.5t-38 20.5q-18 13 -29 31l12 79q13 -19 31 -33q15 -12 37.5 -22t52.5 -10q29 0 54.5 10t44.5 22q22 14 40 33z" />
    <glyph glyph-name="Iogonek" unicode="&#x12e;" horiz-adv-x="235" 
d="M103 0q-29 -14 -46.5 -37.5t-21.5 -49.5l-1 -10q-1 -3 -1 -9q0 -28 38 -28q15 0 33 3l-8 -61q-14 -3 -26 -4t-23 -1q-46 0 -67.5 18.5t-21.5 48.5q0 9 1 14l2 13q4 30 25 59t53 47l80 652h85l-80 -655h-21z" />
    <glyph glyph-name="iogonek" unicode="&#x12f;" horiz-adv-x="225" 
d="M163 695q27 0 41.5 -13t11.5 -36l-4 -29q-6 -42 -58 -42q-26 0 -41 13t-12 35l4 29q6 43 58 43zM97 0q-29 -14 -46.5 -37.5t-21.5 -49.5l-1 -10q-1 -3 -1 -9q0 -28 38 -28q15 0 33 3l-8 -61q-14 -3 -26 -4t-23 -1q-46 0 -67.5 18.5t-21.5 48.5q0 9 1 14l2 13
q4 29 24.5 57.5t50.5 47.5l68 486h85l-68 -488h-18z" />
    <glyph glyph-name="Idotaccent" unicode="&#x130;" horiz-adv-x="235" 
d="M204 655l-80 -655h-85l80 655h85zM222 751q-3 -42 -56 -42q-26 0 -42 13t-13 35l4 29q6 43 56 43q27 0 42 -13t13 -36z" />
    <glyph glyph-name="dotlessi" unicode="&#x131;" horiz-adv-x="225" 
d="M183 488l-68 -488h-85l68 488h85z" />
    <glyph glyph-name="IJ" unicode="&#x132;" horiz-adv-x="522" 
d="M204 655l-80 -655h-85l80 655h85zM427 137q-5 -41 -16 -69.5t-28 -46t-41.5 -25.5t-56.5 -8q-10 0 -22.5 1.5t-25.5 3.5t-25 4.5t-19 4.5l9 73q17 -6 38 -10t38 -4q29 0 44 15t20 58l64 521h85z" />
    <glyph glyph-name="ij" unicode="&#x133;" horiz-adv-x="450" 
d="M212 617q-6 -42 -58 -42q-26 0 -41 12.5t-12 35.5l4 29q6 43 58 43q27 0 41.5 -13t11.5 -36zM431 617q-6 -42 -58 -42q-26 0 -41 12.5t-12 35.5l4 29q6 43 58 43q27 0 41.5 -13t11.5 -36zM183 488l-68 -488h-85l68 488h85zM332 -51q-11 -77 -46 -111.5t-104 -34.5
q-20 0 -43.5 3.5t-37.5 8.5l10 73q12 -5 32.5 -8.5t39.5 -3.5q28 0 43 12.5t20 52.5l77 547h85z" />
    <glyph glyph-name="Jcircumflex" unicode="&#x134;" horiz-adv-x="287" 
d="M192 137q-5 -41 -16 -69.5t-28 -46t-41.5 -25.5t-56.5 -8q-10 0 -22.5 1.5t-25.5 3.5t-25 4.5t-19 4.5l9 73q17 -6 38 -10t38 -4q29 0 44 15t20 58l64 521h85zM359 711l-135 49l-145 -49l7 68l147 61l133 -61z" />
    <glyph glyph-name="jcircumflex" unicode="&#x135;" horiz-adv-x="225" 
d="M107 -51q-11 -77 -46 -111.5t-104 -34.5q-20 0 -43.5 3.5t-37.5 8.5l10 73q12 -5 32.5 -8.5t39.5 -3.5q28 0 43 12.5t20 52.5l77 547h85zM279 546l-118 67l-142 -67l9 72l141 72l119 -77z" />
    <glyph glyph-name="Kcommaaccent" unicode="&#x136;" horiz-adv-x="525" 
d="M204 655l-37 -303l147 156t125 147h104l-288 -317l234 -338h-108l-55.5 89l-52.5 81l-52.5 77l-56.5 78l-40 -325h-85l80 655h85zM284 -122q-2 -13 -5.5 -22.5t-9.5 -22.5l-28 -59h-52l26 71q-25 9 -25 33q0 2 0.5 4.5t0.5 4.5l3 20q3 19 13 28t33 9q48 0 48 -36
q0 -7 -1 -10z" />
    <glyph glyph-name="kcommaaccent" unicode="&#x137;" horiz-adv-x="448" 
d="M199 683q-1 -38 -3.5 -82t-8.5 -87l-4 -29l-62 -246l3 -2l3 2q13 50 31.5 97t42 83.5t53 58.5t65.5 22q44 0 71.5 -29.5t27.5 -78.5q0 -58 -37 -106.5t-113 -76.5l110 -209h-94l-55 118.5l-55 110.5q44 7 74.5 23t49.5 37t27.5 45t8.5 47t-11 35.5t-29 12.5
q-27 0 -53.5 -30.5t-49 -79t-39.5 -108.5t-25 -119l-12 -92h-85l64 458q10 70 14 122.5t6 102.5h85zM241 -122q-2 -13 -5.5 -22.5t-9.5 -22.5l-28 -59h-52l26 71q-25 9 -25 33q0 2 0.5 4.5t0.5 4.5l3 20q3 19 13 28t33 9q48 0 48 -36q0 -7 -1 -10z" />
    <glyph glyph-name="kgreenlandic" unicode="&#x138;" horiz-adv-x="426" 
d="M382 0h-102l-32.5 68.5l-25 50.5t-29 52l-44.5 74l-34 -245h-85l69 488h85l-33 -231l104.5 122l87.5 109h96l-199 -233z" />
    <glyph glyph-name="Lacute" unicode="&#x139;" horiz-adv-x="450" 
d="M204 655l-72 -580h260l-8 -75h-345l80 655h85zM210 829h89l-97 -119h-70z" />
    <glyph glyph-name="lacute" unicode="&#x13a;" horiz-adv-x="225" 
d="M199 683q-1 -38 -4.5 -91t-14.5 -128l-65 -464h-85l64 458q10 70 14 122.5t6 102.5h85zM196 829h89l-97 -119h-70z" />
    <glyph glyph-name="Lcommaaccent" unicode="&#x13b;" horiz-adv-x="450" 
d="M204 655l-72 -580h260l-8 -75h-345l80 655h85zM267 -122q-2 -13 -5.5 -22.5t-9.5 -22.5l-28 -59h-52l26 71q-25 9 -25 33q0 2 0.5 4.5t0.5 4.5l3 20q3 19 13 28t33 9q48 0 48 -36q0 -7 -1 -10z" />
    <glyph glyph-name="lcommaaccent" unicode="&#x13c;" horiz-adv-x="225" 
d="M199 683q-1 -38 -4.5 -91t-14.5 -128l-65 -464h-85l64 458q10 70 14 122.5t6 102.5h85zM107 -122q-2 -13 -5.5 -22.5t-9.5 -22.5l-28 -59h-52l26 71q-25 9 -25 33q0 2 0.5 4.5t0.5 4.5l3 20q3 19 13 28t33 9q48 0 48 -36q0 -7 -1 -10z" />
    <glyph glyph-name="Lcaron" unicode="&#x13d;" horiz-adv-x="450" 
d="M204 655l-72 -580h260l-8 -75h-345l80 655h85zM355 602q-2 -13 -5.5 -22.5t-9.5 -22.5l-28 -59h-52l26 71q-25 9 -25 33q0 2 0.5 4.5t0.5 4.5l3 20q3 19 13 28t33 9q48 0 48 -36q0 -7 -1 -10z" />
    <glyph glyph-name="lcaron" unicode="&#x13e;" horiz-adv-x="278" 
d="M199 683q-1 -38 -4.5 -91t-14.5 -128l-65 -464h-85l64 458q10 70 14 122.5t6 102.5h85zM324 629q-2 -13 -5.5 -22.5t-9.5 -22.5l-28 -59h-52l26 71q-25 9 -25 33q0 2 0.5 4.5t0.5 4.5l3 20q3 19 13 28t33 9q48 0 48 -36q0 -7 -1 -10z" />
    <glyph glyph-name="Ldot" unicode="&#x13f;" horiz-adv-x="450" 
d="M204 655l-72 -580h260l-8 -75h-345l80 655h85zM376 341q-3 -42 -56 -42q-26 0 -42 13t-13 35l4 29q6 43 56 43q27 0 42 -13t13 -36z" />
    <glyph glyph-name="ldot" unicode="&#x140;" horiz-adv-x="242" 
d="M199 683q-1 -38 -4.5 -91t-14.5 -128l-65 -464h-85l64 458q10 70 14 122.5t6 102.5h85zM305 422q-6 -42 -58 -42q-26 0 -41 12.5t-12 35.5l4 29q6 43 58 43q27 0 41.5 -13t11.5 -36z" />
    <glyph glyph-name="Lslash" unicode="&#x141;" horiz-adv-x="453" 
d="M132 655h85l-38 -268l135 37l-11 -76l-135 -37l-33 -236h260l-10 -75h-345l40 287l-73 -19l11 76l73 19z" />
    <glyph glyph-name="lslash" unicode="&#x142;" horiz-adv-x="235" 
d="M204 683q-1 -38 -4.5 -91t-14.5 -128l-2 -14l94 28l-10 -70l-94 -28l-53 -380h-85l49 355l-93 -27l9 70l94 27l5 33q10 70 14 122.5t6 102.5h85z" />
    <glyph glyph-name="Nacute" unicode="&#x143;" horiz-adv-x="582" 
d="M123 0h-84l80 655h125l81.5 -275.5t73.5 -279.5l68 555h84l-80 -655h-125l-156 556zM390 829h89l-97 -119h-70z" />
    <glyph glyph-name="nacute" unicode="&#x144;" horiz-adv-x="485" 
d="M327 500q49 0 75.5 -27.5t26.5 -93.5q0 -14 -1 -29.5t-4 -33.5l-48 -316h-85l50 318q2 14 3 25t1 21q0 32 -11 44.5t-30 12.5q-26 0 -53.5 -26.5t-52.5 -77t-46 -123t-33 -164.5l-4 -30h-85l68 488h80l-11 -79l-45 -169l3 -2l3 2q35 130 87 195t112 65zM323 685h90
l-109 -139h-71z" />
    <glyph glyph-name="Ncommaaccent" unicode="&#x145;" horiz-adv-x="582" 
d="M123 0h-84l80 655h125l81.5 -275.5t73.5 -279.5l68 555h84l-80 -655h-125l-156 556zM301 -122q-2 -13 -5.5 -22.5t-9.5 -22.5l-28 -59h-52l26 71q-25 9 -25 33q0 2 0.5 4.5t0.5 4.5l3 20q3 19 13 28t33 9q48 0 48 -36q0 -7 -1 -10z" />
    <glyph glyph-name="ncommaaccent" unicode="&#x146;" horiz-adv-x="485" 
d="M327 500q49 0 75.5 -27.5t26.5 -93.5q0 -14 -1 -29.5t-4 -33.5l-48 -316h-85l50 318q2 14 3 25t1 21q0 32 -11 44.5t-30 12.5q-26 0 -53.5 -26.5t-52.5 -77t-46 -123t-33 -164.5l-4 -30h-85l68 488h80l-11 -79l-45 -169l3 -2l3 2q35 130 87 195t112 65zM249 -122
q-2 -13 -5.5 -22.5t-9.5 -22.5l-28 -59h-52l26 71q-25 9 -25 33q0 2 0.5 4.5t0.5 4.5l3 20q3 19 13 28t33 9q48 0 48 -36q0 -7 -1 -10z" />
    <glyph glyph-name="Ncaron" unicode="&#x147;" horiz-adv-x="582" 
d="M123 0h-84l80 655h125l81.5 -275.5t73.5 -279.5l68 555h84l-80 -655h-125l-156 556zM346 712l-134 61l8 68l135 -49l145 49l-8 -68z" />
    <glyph glyph-name="ncaron" unicode="&#x148;" horiz-adv-x="485" 
d="M327 500q49 0 75.5 -27.5t26.5 -93.5q0 -14 -1 -29.5t-4 -33.5l-48 -316h-85l50 318q2 14 3 25t1 21q0 32 -11 44.5t-30 12.5q-26 0 -53.5 -26.5t-52.5 -77t-46 -123t-33 -164.5l-4 -30h-85l68 488h80l-11 -79l-45 -169l3 -2l3 2q35 130 87 195t112 65zM268 546l-119 76
l9 68l118 -67l142 67l-9 -74z" />
    <glyph glyph-name="napostrophe" unicode="&#x149;" horiz-adv-x="485" 
d="M327 500q49 0 75.5 -27.5t26.5 -93.5q0 -14 -1 -29.5t-4 -33.5l-48 -316h-85l50 318q2 14 3 25t1 21q0 32 -11 44.5t-30 12.5q-26 0 -53.5 -26.5t-52.5 -77t-46 -123t-33 -164.5l-4 -30h-85l68 488h80l-11 -79l-45 -169l3 -2l3 2q35 130 87 195t112 65zM118 629
q-2 -13 -5.5 -22.5t-9.5 -22.5l-28 -59h-52l26 71q-25 9 -25 33q0 2 0.5 4.5t0.5 4.5l3 20q3 19 13 28t33 9q48 0 48 -36q0 -7 -1 -10z" />
    <glyph glyph-name="Eng" unicode="&#x14a;" horiz-adv-x="582" 
d="M471 -7q-10 -81 -43 -115t-99 -34q-10 0 -22.5 1.5t-25.5 3.5t-25 4.5t-19 4.5l9 73q17 -6 38 -10t38 -4q29 0 44 15.5t20 57.5l1 10h-41l-156 556l-67 -556h-84l80 655h125l81.5 -275.5t73.5 -279.5l68 555h84z" />
    <glyph glyph-name="eng" unicode="&#x14b;" horiz-adv-x="485" 
d="M327 500q49 0 75.5 -27.5t26.5 -93.5q0 -14 -1 -29.5t-4 -33.5l-55 -367q-11 -77 -46 -111.5t-104 -34.5q-20 0 -43.5 3.5t-37.5 8.5l10 73q12 -5 32.5 -8.5t39.5 -3.5q29 0 43 12.5t20 52.5l58 377q2 14 3 25t1 21q0 32 -11 44.5t-30 12.5q-26 0 -53.5 -26.5t-52.5 -77
t-46 -123t-33 -164.5l-4 -30h-85l68 488h80l-11 -79l-45 -169l3 -2l3 2q35 130 87 195t112 65z" />
    <glyph glyph-name="Omacron" unicode="&#x14c;" horiz-adv-x="576" 
d="M327 667q106 0 158.5 -58t39.5 -162l-31 -249q-13 -105 -71 -157.5t-167 -52.5t-160 57.5t-38 162.5l31 249q14 109 70.5 159.5t167.5 50.5zM321 592q-132 0 -147 -127l-32 -268q-1 -7 -1.5 -13.5t-0.5 -12.5q0 -54 31.5 -81t89.5 -27q131 0 147 128l33 267q1 7 1.5 14
t0.5 13q0 107 -122 107zM456 785l-10 -75h-235l10 75h235z" />
    <glyph glyph-name="omacron" unicode="&#x14d;" horiz-adv-x="472" 
d="M397 176q-12 -91 -60 -139.5t-132 -48.5q-82 0 -123.5 39.5t-41.5 108.5q0 16 3 36l20 144q12 89 62 136.5t131 47.5t122 -40t41 -108q0 -18 -3 -37zM332 322q1 6 1.5 12t0.5 11q0 41 -22 62.5t-60 21.5q-42 0 -68 -24t-34 -78l-23 -162q-1 -6 -1.5 -11.5t-0.5 -10.5
q0 -41 22.5 -62.5t60.5 -21.5q44 0 69 24.5t32 77.5zM379 681l-10 -75h-215l10 75h215z" />
    <glyph glyph-name="Obreve" unicode="&#x14e;" horiz-adv-x="576" 
d="M327 667q106 0 158.5 -58t39.5 -162l-31 -249q-13 -105 -71 -157.5t-167 -52.5t-160 57.5t-38 162.5l31 249q14 109 70.5 159.5t167.5 50.5zM321 592q-132 0 -147 -127l-32 -268q-1 -7 -1.5 -13.5t-0.5 -12.5q0 -54 31.5 -81t89.5 -27q131 0 147 128l33 267q1 7 1.5 14
t0.5 13q0 107 -122 107zM469 752q-21 -13 -45 -24q-20 -9 -46 -16t-53 -7q-29 0 -54 7t-43 16q-21 11 -39 24l9 78q19 -16 41 -27q19 -10 43.5 -18t50.5 -8t51.5 8t46.5 18q25 11 47 27z" />
    <glyph glyph-name="obreve" unicode="&#x14f;" horiz-adv-x="472" 
d="M397 176q-12 -91 -60 -139.5t-132 -48.5q-82 0 -123.5 39.5t-41.5 108.5q0 16 3 36l20 144q12 89 62 136.5t131 47.5t122 -40t41 -108q0 -18 -3 -37zM332 322q1 6 1.5 12t0.5 11q0 41 -22 62.5t-60 21.5q-42 0 -68 -24t-34 -78l-23 -162q-1 -6 -1.5 -11.5t-0.5 -10.5
q0 -41 22.5 -62.5t60.5 -21.5q44 0 69 24.5t32 77.5zM391 602q-16 -17 -36 -29q-18 -11 -43.5 -19.5t-58.5 -8.5q-32 0 -55 9.5t-38 20.5q-18 13 -29 31l12 79q13 -19 31 -33q15 -12 37.5 -22t52.5 -10q29 0 54.5 10t44.5 22q22 14 40 33z" />
    <glyph glyph-name="Ohungarumlaut" unicode="&#x150;" horiz-adv-x="576" 
d="M327 667q106 0 158.5 -58t39.5 -162l-31 -249q-13 -105 -71 -157.5t-167 -52.5t-160 57.5t-38 162.5l31 249q14 109 70.5 159.5t167.5 50.5zM321 592q-132 0 -147 -127l-32 -268q-1 -7 -1.5 -13.5t-0.5 -12.5q0 -54 31.5 -81t89.5 -27q131 0 147 128l33 267q1 7 1.5 14
t0.5 13q0 107 -122 107zM198 710l72 119h80l-77 -119h-75zM338 710l72 119h80l-77 -119h-75z" />
    <glyph glyph-name="ohungarumlaut" unicode="&#x151;" horiz-adv-x="472" 
d="M397 176q-12 -91 -60 -139.5t-132 -48.5q-82 0 -123.5 39.5t-41.5 108.5q0 16 3 36l20 144q12 89 62 136.5t131 47.5t122 -40t41 -108q0 -18 -3 -37zM332 322q1 6 1.5 12t0.5 11q0 41 -22 62.5t-60 21.5q-42 0 -68 -24t-34 -78l-23 -162q-1 -6 -1.5 -11.5t-0.5 -10.5
q0 -41 22.5 -62.5t60.5 -21.5q44 0 69 24.5t32 77.5zM147 546l85 139h80l-92 -139h-73zM287 546l85 139h80l-92 -139h-73z" />
    <glyph glyph-name="OE" unicode="&#x152;" horiz-adv-x="772" 
d="M320 667q25 0 48 -3.5t44 -8.5h339l-10 -77h-260l-25 -207h240l-10 -76h-240l-27 -218h260l-8 -77h-345q-38 -12 -82 -12q-97 0 -143 48t-46 128q0 11 1 23t3 24l35 249q14 100 69 153.5t157 53.5zM320 593q-60 0 -95.5 -30t-44.5 -93l-37 -268q-1 -8 -1.5 -14.5
t-0.5 -13.5q0 -51 29.5 -80.5t85.5 -29.5q25 0 43.5 3.5t35.5 11.5l61 500q-17 6 -36.5 10t-39.5 4z" />
    <glyph glyph-name="oe" unicode="&#x153;" horiz-adv-x="704" 
d="M531 500q68 0 105 -34.5t37 -91.5q0 -36 -15.5 -70t-49 -61t-86 -45.5t-126.5 -24.5l-3 -18q-1 -6 -1.5 -11.5t-0.5 -10.5q0 -35 20 -53.5t57 -18.5q32 0 69 9t71 26l-15 -77q-34 -16 -66.5 -23.5t-57.5 -7.5q-39 0 -74.5 15.5t-58.5 49.5q-23 -28 -54.5 -46.5
t-77.5 -18.5q-82 0 -122.5 40t-40.5 109v17.5t2 18.5l21 149q12 84 56 131t133 47q50 0 85 -22t50 -57q26 38 63.5 58.5t79.5 20.5zM252 429q-87 0 -102 -102l-23 -162q-1 -5 -1 -10.5v-10.5q0 -42 22 -63.5t60 -21.5q87 0 101 102l23 163q1 6 1.5 12t0.5 11q0 40 -22 61
t-60 21zM528 429q-38 0 -71.5 -38.5t-45.5 -118.5l-7 -45q66 10 108 27q41 28 59 55t18 58q0 29 -16.5 45.5t-44.5 16.5z" />
    <glyph glyph-name="Racute" unicode="&#x154;" horiz-adv-x="540" 
d="M289 667q56 0 98 -14.5t69 -40t38 -60.5t5 -75l-3 -20q-8 -57 -46 -99.5t-98 -61.5l137 -296h-97l-40 98.5l-31.5 74l-27.5 59t-28 53.5q-27 0 -51 1.5t-55 6.5l-35 -293h-85l81 662q42 2 86.5 3.5t82.5 1.5zM282 596q-15 0 -40.5 -0.5t-45.5 -1.5l-29 -236q33 -4 52 -5
t36 -1q72 0 110 29.5t47 83.5l1 6q1 7 1.5 13.5t0.5 12.5q0 48 -33 73.5t-100 25.5zM337 829h89l-97 -119h-70z" />
    <glyph glyph-name="racute" unicode="&#x155;" horiz-adv-x="325" 
d="M318 500q8 0 16 -2l-16 -107q-12 3 -26 3q-30 0 -57 -27t-49 -74t-38.5 -110.5t-26.5 -137.5l-6 -45h-85l68 488h80l-11 -79l-45 -169l3 -2l3 2q35 130 85 195t105 65zM268 685h90l-109 -139h-71z" />
    <glyph glyph-name="Rcommaaccent" unicode="&#x156;" horiz-adv-x="540" 
d="M289 667q56 0 98 -14.5t69 -40t38 -60.5t5 -75l-3 -20q-8 -57 -46 -99.5t-98 -61.5l137 -296h-97l-40 98.5l-31.5 74l-27.5 59t-28 53.5q-27 0 -51 1.5t-55 6.5l-35 -293h-85l81 662q42 2 86.5 3.5t82.5 1.5zM282 596q-15 0 -40.5 -0.5t-45.5 -1.5l-29 -236q33 -4 52 -5
t36 -1q72 0 110 29.5t47 83.5l1 6q1 7 1.5 13.5t0.5 12.5q0 48 -33 73.5t-100 25.5zM295 -122q-2 -13 -5.5 -22.5t-9.5 -22.5l-28 -59h-52l26 71q-25 9 -25 33q0 2 0.5 4.5t0.5 4.5l3 20q3 19 13 28t33 9q48 0 48 -36q0 -7 -1 -10z" />
    <glyph glyph-name="rcommaaccent" unicode="&#x157;" horiz-adv-x="325" 
d="M318 500q8 0 16 -2l-16 -107q-12 3 -26 3q-30 0 -57 -27t-49 -74t-38.5 -110.5t-26.5 -137.5l-6 -45h-85l68 488h80l-11 -79l-45 -169l3 -2l3 2q35 130 85 195t105 65zM109 -122q-2 -13 -5.5 -22.5t-9.5 -22.5l-28 -59h-52l26 71q-25 9 -25 33q0 2 0.5 4.5t0.5 4.5l3 20
q3 19 13 28t33 9q48 0 48 -36q0 -7 -1 -10z" />
    <glyph glyph-name="Rcaron" unicode="&#x158;" horiz-adv-x="540" 
d="M289 667q56 0 98 -14.5t69 -40t38 -60.5t5 -75l-3 -20q-8 -57 -46 -99.5t-98 -61.5l137 -296h-97l-40 98.5l-31.5 74l-27.5 59t-28 53.5q-27 0 -51 1.5t-55 6.5l-35 -293h-85l81 662q42 2 86.5 3.5t82.5 1.5zM282 596q-15 0 -40.5 -0.5t-45.5 -1.5l-29 -236q33 -4 52 -5
t36 -1q72 0 110 29.5t47 83.5l1 6q1 7 1.5 13.5t0.5 12.5q0 48 -33 73.5t-100 25.5zM293 712l-134 61l8 68l135 -49l145 49l-8 -68z" />
    <glyph glyph-name="rcaron" unicode="&#x159;" horiz-adv-x="325" 
d="M318 500q8 0 16 -2l-16 -107q-12 3 -26 3q-30 0 -57 -27t-49 -74t-38.5 -110.5t-26.5 -137.5l-6 -45h-85l68 488h80l-11 -79l-45 -169l3 -2l3 2q35 130 85 195t105 65zM213 546l-119 76l9 68l118 -67l142 67l-9 -74z" />
    <glyph glyph-name="Sacute" unicode="&#x15a;" horiz-adv-x="456" 
d="M303 354q56 -23 83.5 -60.5t27.5 -94.5q0 -19 -3 -41l-2 -13q-12 -78 -60.5 -117.5t-139.5 -39.5q-22 0 -46.5 3.5t-48.5 9.5t-46 13.5t-39 15.5l10 85q69 -35 127 -49q15 -2 24.5 -2h18.5q53 0 79.5 21.5t34.5 66.5l2 11q3 16 3 30q0 32 -17 52.5t-53 35.5l-89 36
q-54 21 -81.5 62.5t-27.5 95.5q0 25 6 52l2 9q14 64 62.5 97.5t138.5 33.5q16 0 35.5 -2t39.5 -5t39.5 -7t36.5 -8l-11 -81q-26 8 -53.5 14.5t-55.5 11.5q-11 1 -19 1h-16q-52 0 -79 -19t-33 -56l-2 -12q-1 -6 -1.5 -12t-0.5 -12q0 -63 71 -92zM304 829h89l-97 -119h-70z
" />
    <glyph glyph-name="sacute" unicode="&#x15b;" horiz-adv-x="385" 
d="M216 500q24 0 57 -5.5t65 -14.5l-12 -77q-20 8 -42 15t-39 11q-8 1 -18.5 1.5t-17.5 0.5q-35 0 -53 -13.5t-22 -37.5l-1 -6q-1 -4 -1 -11q0 -18 10.5 -33.5t30.5 -24.5l82 -38q42 -20 62.5 -55t15.5 -80l-2 -16q-7 -57 -47 -92.5t-114 -35.5q-36 0 -77 10.5t-73 27.5
l13 77q20 -11 48 -22.5t48 -17.5q24 -3 39 -3q71 0 81 64l1 6q1 4 1 11q0 17 -10 33t-29 25l-80 37q-42 20 -62 50t-20 67v13t2 13l3 16q9 49 47 77t114 28zM259 685h90l-109 -139h-71z" />
    <glyph glyph-name="Scircumflex" unicode="&#x15c;" horiz-adv-x="456" 
d="M303 354q56 -23 83.5 -60.5t27.5 -94.5q0 -19 -3 -41l-2 -13q-12 -78 -60.5 -117.5t-139.5 -39.5q-22 0 -46.5 3.5t-48.5 9.5t-46 13.5t-39 15.5l10 85q69 -35 127 -49q15 -2 24.5 -2h18.5q53 0 79.5 21.5t34.5 66.5l2 11q3 16 3 30q0 32 -17 52.5t-53 35.5l-89 36
q-54 21 -81.5 62.5t-27.5 95.5q0 25 6 52l2 9q14 64 62.5 97.5t138.5 33.5q16 0 35.5 -2t39.5 -5t39.5 -7t36.5 -8l-11 -81q-26 8 -53.5 14.5t-55.5 11.5q-11 1 -19 1h-16q-52 0 -79 -19t-33 -56l-2 -12q-1 -6 -1.5 -12t-0.5 -12q0 -63 71 -92zM406 711l-135 49l-145 -49
l7 68l147 61l133 -61z" />
    <glyph glyph-name="scircumflex" unicode="&#x15d;" horiz-adv-x="385" 
d="M216 500q24 0 57 -5.5t65 -14.5l-12 -77q-20 8 -42 15t-39 11q-8 1 -18.5 1.5t-17.5 0.5q-35 0 -53 -13.5t-22 -37.5l-1 -6q-1 -4 -1 -11q0 -18 10.5 -33.5t30.5 -24.5l82 -38q42 -20 62.5 -55t15.5 -80l-2 -16q-7 -57 -47 -92.5t-114 -35.5q-36 0 -77 10.5t-73 27.5
l13 77q20 -11 48 -22.5t48 -17.5q24 -3 39 -3q71 0 81 64l1 6q1 4 1 11q0 17 -10 33t-29 25l-80 37q-42 20 -62 50t-20 67v13t2 13l3 16q9 49 47 77t114 28zM345 546l-118 67l-142 -67l9 72l141 72l119 -77z" />
    <glyph glyph-name="Scedilla" unicode="&#x15e;" horiz-adv-x="456" 
d="M269 667q16 0 35.5 -2t39.5 -5t39.5 -7t36.5 -8l-11 -81q-26 8 -53.5 14.5t-55.5 11.5q-11 1 -19 1h-16q-52 0 -79 -19t-33 -56l-2 -12q-1 -6 -1.5 -12t-0.5 -12q0 -63 71 -92l83 -34q56 -23 83.5 -60.5t27.5 -94.5q0 -19 -3 -41l-2 -13q-11 -74 -55 -112.5t-124 -43.5
l-13 -30h2q28 0 44 -19.5t12 -51.5l-1 -9q-5 -36 -27.5 -56t-67.5 -20q-12 0 -29 2.5t-30 6.5l7 55q23 -10 45 -10q17 0 25 6.5t10 16.5l1 7v6q0 27 -34 27h-26l3 20l23 50q-39 5 -78.5 15.5t-66.5 24.5l10 85q69 -35 127 -49q15 -2 24.5 -2h18.5q53 0 79.5 21.5t34.5 66.5
l2 11q3 16 3 30q0 32 -17 52.5t-53 35.5l-89 36q-54 21 -81.5 62.5t-27.5 95.5q0 25 6 52l2 9q14 64 62.5 97.5t138.5 33.5z" />
    <glyph glyph-name="scedilla" unicode="&#x15f;" horiz-adv-x="367" 
d="M207 500q24 0 57 -5.5t65 -14.5l-12 -77q-20 8 -42 15t-39 11q-8 1 -18.5 1.5t-17.5 0.5q-35 0 -53 -13.5t-22 -37.5l-1 -6q-1 -4 -1 -11q0 -18 10.5 -33.5t30.5 -24.5l82 -38q42 -20 62.5 -55t15.5 -80l-2 -16q-7 -54 -43.5 -88.5t-103.5 -38.5l-13 -30h2q28 0 44 -19.5
t12 -51.5l-1 -9q-5 -36 -27.5 -56t-67.5 -20q-12 0 -29 2.5t-30 6.5l7 55q23 -10 45 -10q17 0 25 6.5t10 16.5l1 7v6q0 27 -34 27h-26l3 20l24 52q-29 5 -57.5 13.5t-51.5 20.5l13 77q20 -11 48 -22.5t48 -17.5q24 -3 39 -3q71 0 81 64l1 6q1 4 1 11q0 17 -10 33t-29 25
l-80 37q-42 20 -62 50t-20 67v13t2 13l3 16q9 49 47 77t114 28z" />
    <glyph glyph-name="Scaron" unicode="&#x160;" horiz-adv-x="456" 
d="M303 354q56 -23 83.5 -60.5t27.5 -94.5q0 -19 -3 -41l-2 -13q-12 -78 -60.5 -117.5t-139.5 -39.5q-22 0 -46.5 3.5t-48.5 9.5t-46 13.5t-39 15.5l10 85q69 -35 127 -49q15 -2 24.5 -2h18.5q53 0 79.5 21.5t34.5 66.5l2 11q3 16 3 30q0 32 -17 52.5t-53 35.5l-89 36
q-54 21 -81.5 62.5t-27.5 95.5q0 25 6 52l2 9q14 64 62.5 97.5t138.5 33.5q16 0 35.5 -2t39.5 -5t39.5 -7t36.5 -8l-11 -81q-26 8 -53.5 14.5t-55.5 11.5q-11 1 -19 1h-16q-52 0 -79 -19t-33 -56l-2 -12q-1 -6 -1.5 -12t-0.5 -12q0 -63 71 -92zM260 712l-134 61l8 68
l135 -49l145 49l-8 -68z" />
    <glyph glyph-name="scaron" unicode="&#x161;" horiz-adv-x="385" 
d="M216 500q24 0 57 -5.5t65 -14.5l-12 -77q-20 8 -42 15t-39 11q-8 1 -18.5 1.5t-17.5 0.5q-35 0 -53 -13.5t-22 -37.5l-1 -6q-1 -4 -1 -11q0 -18 10.5 -33.5t30.5 -24.5l82 -38q42 -20 62.5 -55t15.5 -80l-2 -16q-7 -57 -47 -92.5t-114 -35.5q-36 0 -77 10.5t-73 27.5
l13 77q20 -11 48 -22.5t48 -17.5q24 -3 39 -3q71 0 81 64l1 6q1 4 1 11q0 17 -10 33t-29 25l-80 37q-42 20 -62 50t-20 67v13t2 13l3 16q9 49 47 77t114 28zM204 546l-119 76l9 68l118 -67l142 67l-9 -74z" />
    <glyph glyph-name="Tcedilla" unicode="&#x162;" horiz-adv-x="525" 
d="M339 578l-70 -578h-38l-18 -41h2q28 0 44 -19.5t12 -51.5l-1 -9q-5 -36 -27.5 -56t-67.5 -20q-12 0 -29 2.5t-30 6.5l7 55q23 -10 45 -10q17 0 25 6.5t10 16.5l1 7v6q0 27 -34 27h-26l3 20l40 86l67 552h-190l10 77h465l-10 -77h-190z" />
    <glyph glyph-name="tcedilla" unicode="&#x163;" horiz-adv-x="338" 
d="M328 488l-10 -70h-130l-40 -286q-1 -5 -1 -10v-10q0 -27 12.5 -39t37.5 -12q20 0 46.5 7t43.5 15l-10 -73q-17 -8 -43 -14.5t-47 -7.5l-12 -29h2q28 0 44 -19.5t12 -51.5l-1 -9q-5 -36 -27.5 -56t-67.5 -20q-12 0 -29 2.5t-30 6.5l7 55q23 -10 45 -10q17 0 25 6.5
t10 16.5l1 7v6q0 27 -34 27h-26l3 20l25 54q-36 9 -54.5 34.5t-18.5 70.5q0 19 3 40l40 279h-71l7 50l80 15l46 135h50l-18 -130h130z" />
    <glyph glyph-name="Tcaron" unicode="&#x164;" horiz-adv-x="525" 
d="M539 655l-10 -77h-190l-70 -578h-85l70 578h-190l10 77h465zM309 712l-134 61l8 68l135 -49l145 49l-8 -68z" />
    <glyph glyph-name="tcaron" unicode="&#x165;" horiz-adv-x="341" 
d="M328 488l-10 -70h-130l-40 -286q-1 -5 -1 -10v-10q0 -27 12.5 -39t37.5 -12q20 0 46.5 7t43.5 15l-10 -73q-17 -8 -44 -15t-48 -7q-62 0 -93 25.5t-31 85.5q0 19 3 40l40 279h-71l7 50l80 15l46 135h50l-18 -130h130zM391 629q-2 -13 -5.5 -22.5t-9.5 -22.5l-28 -59h-52
l26 71q-25 9 -25 33q0 2 0.5 4.5t0.5 4.5l3 20q3 19 13 28t33 9q48 0 48 -36q0 -7 -1 -10z" />
    <glyph glyph-name="Tbar" unicode="&#x166;" horiz-adv-x="525" 
d="M539 655l-10 -77h-190l-25 -207h100l-10 -76h-100l-36 -295h-85l36 295h-100l10 76h100l25 207h-190l10 77h465z" />
    <glyph glyph-name="tbar" unicode="&#x167;" horiz-adv-x="360" 
d="M350 488l-10 -70h-130l-12 -85h130l-10 -70h-130l-18 -131q-1 -5 -1 -10v-10q0 -27 12.5 -39t37.5 -12q20 0 46.5 7t43.5 15l-10 -73q-17 -8 -44 -15t-48 -7q-62 0 -93 25.5t-31 85.5q0 19 3 40l18 124h-71l10 70h71l12 85h-71l7 50l80 15l46 135h50l-18 -130h130z" />
    <glyph glyph-name="Utilde" unicode="&#x168;" horiz-adv-x="576" 
d="M489 201q-14 -109 -69 -161t-159 -52q-100 0 -150.5 46t-50.5 131q0 18 3 39l56 451h85l-57 -458q-8 -64 23.5 -98t96.5 -34q60 0 94 30.5t42 98.5l57 461h85zM479 740q-12 -9 -25 -15q-11 -6 -26.5 -10.5t-32.5 -4.5t-31.5 4t-29 8.5t-29 8.5t-29.5 4q-13 0 -27 -4
t-26 -9q-14 -5 -28 -12l7 70q11 8 24 15q11 5 26.5 10t32.5 5q20 0 36 -4t30 -8.5l27 -8.5t27 -4q12 0 26 3.5t26 8.5q14 5 28 13z" />
    <glyph glyph-name="utilde" unicode="&#x169;" horiz-adv-x="486" 
d="M296 0l4 28l46 162l-2 2l-3 -1q-36 -108 -83 -155.5t-101 -47.5q-51 0 -80.5 33t-29.5 98q0 11 1 22t3 24l47 323h85l-46 -313q-2 -14 -3 -25.5t-1 -21.5q0 -36 12.5 -50t35.5 -14q36 0 63 28t45.5 68.5t30 86t16.5 79.5l23 162h86l-69 -488h-80zM409 613q-12 -8 -25 -14
q-11 -5 -26.5 -9.5t-32.5 -4.5q-15 0 -27 4t-23.5 8.5t-23 8.5t-25.5 4q-13 0 -27 -4t-26 -9q-14 -5 -28 -12l10 68q12 9 25 16q11 6 26.5 11t32.5 5q19 0 31.5 -4t23 -8.5l20.5 -8.5t23 -4q12 0 26.5 3.5t26.5 8.5q14 5 29 13z" />
    <glyph glyph-name="Umacron" unicode="&#x16a;" horiz-adv-x="576" 
d="M489 201q-14 -109 -69 -161t-159 -52q-100 0 -150.5 46t-50.5 131q0 18 3 39l56 451h85l-57 -458q-8 -64 23.5 -98t96.5 -34q60 0 94 30.5t42 98.5l57 461h85zM462 785l-10 -75h-235l10 75h235z" />
    <glyph glyph-name="umacron" unicode="&#x16b;" horiz-adv-x="486" 
d="M296 0l4 28l46 162l-2 2l-3 -1q-36 -108 -83 -155.5t-101 -47.5q-51 0 -80.5 33t-29.5 98q0 11 1 22t3 24l47 323h85l-46 -313q-2 -14 -3 -25.5t-1 -21.5q0 -36 12.5 -50t35.5 -14q36 0 63 28t45.5 68.5t30 86t16.5 79.5l23 162h86l-69 -488h-80zM394 681l-10 -75h-215
l10 75h215z" />
    <glyph glyph-name="Ubreve" unicode="&#x16c;" horiz-adv-x="576" 
d="M489 201q-14 -109 -69 -161t-159 -52q-100 0 -150.5 46t-50.5 131q0 18 3 39l56 451h85l-57 -458q-8 -64 23.5 -98t96.5 -34q60 0 94 30.5t42 98.5l57 461h85zM475 752q-21 -13 -45 -24q-20 -9 -46 -16t-53 -7q-29 0 -54 7t-43 16q-21 11 -39 24l9 78q19 -16 41 -27
q19 -10 43.5 -18t50.5 -8t51.5 8t46.5 18q25 11 47 27z" />
    <glyph glyph-name="ubreve" unicode="&#x16d;" horiz-adv-x="486" 
d="M296 0l4 28l46 162l-2 2l-3 -1q-36 -108 -83 -155.5t-101 -47.5q-51 0 -80.5 33t-29.5 98q0 11 1 22t3 24l47 323h85l-46 -313q-2 -14 -3 -25.5t-1 -21.5q0 -36 12.5 -50t35.5 -14q36 0 63 28t45.5 68.5t30 86t16.5 79.5l23 162h86l-69 -488h-80zM406 602
q-16 -17 -36 -29q-18 -11 -43.5 -19.5t-58.5 -8.5q-32 0 -55 9.5t-38 20.5q-18 13 -29 31l12 79q13 -19 31 -33q15 -12 37.5 -22t52.5 -10q29 0 54.5 10t44.5 22q22 14 40 33z" />
    <glyph glyph-name="Uring" unicode="&#x16e;" horiz-adv-x="576" 
d="M489 201q-14 -109 -69 -161t-159 -52q-100 0 -150.5 46t-50.5 131q0 18 3 39l56 451h85l-57 -458q-8 -64 23.5 -98t96.5 -34q60 0 94 30.5t42 98.5l57 461h85zM348 885q48 0 77 -21.5t31 -63.5q2 -58 -31 -86.5t-91 -28.5q-48 0 -78 22.5t-32 65.5q-2 58 33 85t91 27z
M344 830q-54 0 -54 -50q2 -17 12 -28.5t35 -11.5q31 0 43.5 15t10.5 38q0 16 -11.5 26.5t-35.5 10.5z" />
    <glyph glyph-name="uring" unicode="&#x16f;" horiz-adv-x="486" 
d="M296 0l4 28l46 162l-2 2l-3 -1q-36 -108 -83 -155.5t-101 -47.5q-51 0 -80.5 33t-29.5 98q0 11 1 22t3 24l47 323h85l-46 -313q-2 -14 -3 -25.5t-1 -21.5q0 -36 12.5 -50t35.5 -14q36 0 63 28t45.5 68.5t30 86t16.5 79.5l23 162h86l-69 -488h-80zM288 723q47 0 77 -24
t30 -65q0 -45 -30 -75t-89 -30q-45 0 -76 24t-31 66q0 48 31 76t88 28zM286 672q-30 0 -42.5 -11.5t-12.5 -37.5q0 -19 12.5 -31t36.5 -12q30 0 42 12.5t12 39.5q0 19 -12.5 29.5t-35.5 10.5z" />
    <glyph glyph-name="Uhungarumlaut" unicode="&#x170;" horiz-adv-x="576" 
d="M489 201q-14 -109 -69 -161t-159 -52q-100 0 -150.5 46t-50.5 131q0 18 3 39l56 451h85l-57 -458q-8 -64 23.5 -98t96.5 -34q60 0 94 30.5t42 98.5l57 461h85zM204 710l72 119h80l-77 -119h-75zM344 710l72 119h80l-77 -119h-75z" />
    <glyph glyph-name="uhungarumlaut" unicode="&#x171;" horiz-adv-x="486" 
d="M296 0l4 28l46 162l-2 2l-3 -1q-36 -108 -83 -155.5t-101 -47.5q-51 0 -80.5 33t-29.5 98q0 11 1 22t3 24l47 323h85l-46 -313q-2 -14 -3 -25.5t-1 -21.5q0 -36 12.5 -50t35.5 -14q36 0 63 28t45.5 68.5t30 86t16.5 79.5l23 162h86l-69 -488h-80zM162 546l85 139h80
l-92 -139h-73zM302 546l85 139h80l-92 -139h-73z" />
    <glyph glyph-name="Uogonek" unicode="&#x172;" horiz-adv-x="576" 
d="M489 201q-11 -90 -50 -141t-111 -65q-24 -15 -39 -37t-19 -45l-1 -10q-1 -3 -1 -9q0 -28 38 -28q15 0 33 3l-8 -61q-14 -3 -26 -4t-23 -1q-46 0 -67.5 18.5t-21.5 48.5q0 9 1 14l2 13q3 24 18 48t38 43q-95 2 -143.5 48t-48.5 128q0 19 3 40l56 451h85l-57 -458
q-8 -64 23.5 -98t96.5 -34q60 0 94 30.5t42 98.5l57 461h85z" />
    <glyph glyph-name="uogonek" unicode="&#x173;" horiz-adv-x="486" 
d="M360 0q-29 -14 -46.5 -37.5t-21.5 -49.5l-1 -10q-1 -3 -1 -9q0 -28 38 -28q15 0 33 3l-8 -61q-14 -3 -26 -4t-23 -1q-46 0 -67.5 18.5t-21.5 48.5q0 9 1 14l2 13q4 30 25 59t53 47l4 25l46 162l-2 2l-3 -1q-36 -108 -83 -155.5t-101 -47.5q-51 0 -80.5 33t-29.5 98
q0 11 1 22t3 24l47 323h85l-46 -313q-2 -14 -3 -25.5t-1 -21.5q0 -36 12.5 -50t35.5 -14q36 0 63 28t45.5 68.5t30 86t16.5 79.5l23 162h86l-69 -488h-16z" />
    <glyph glyph-name="Wcircumflex" unicode="&#x174;" horiz-adv-x="848" 
d="M524 0l-68 558l-203 -558h-114l-70 655h87q33 -278 51 -562q56 140 105.5 280t94.5 282h114q20 -141 37 -281t29 -281q53 141 99 281t88 281h93l-229 -655h-114zM612 711l-135 49l-145 -49l7 68l147 61l133 -61z" />
    <glyph glyph-name="wcircumflex" unicode="&#x175;" horiz-adv-x="678" 
d="M399 0l-42 414l-160 -414h-108l-41 488h87q15 -177 15 -354v-59l3 -2l2 2q43 103 80.5 205.5l72.5 207.5h115q15 -103 23.5 -205.5t13.5 -207.5l2 -2l3 2q38 103 70 205.5t61 207.5h90l-178 -488h-109zM508 546l-118 67l-142 -67l9 72l141 72l119 -77z" />
    <glyph glyph-name="Ycircumflex" unicode="&#x176;" horiz-adv-x="491" 
d="M252 0h-85l27 225l-137 430h93q26 -85 49.5 -170t44.5 -170q50 85 94 170l85 170h99l-243 -430zM431 711l-135 49l-145 -49l7 68l147 61l133 -61z" />
    <glyph glyph-name="ycircumflex" unicode="&#x177;" horiz-adv-x="486" 
d="M371 -36q-12 -86 -55 -123.5t-130 -37.5q-31 0 -70.5 6t-72.5 16l10 75q33 -11 70 -17.5t66 -6.5q48 0 69 20t27 61l11 71l50 162l-2 2l-3 -1q-36 -108 -83 -155.5t-101 -47.5q-51 0 -80.5 33t-29.5 98q0 11 1 22t3 24l47 323h85l-46 -313q-2 -14 -3 -25.5t-1 -21.5
q0 -36 12.5 -50t35.5 -14q36 0 63 28t45.5 68.5t30 86t16.5 79.5l23 162h86zM413 546l-118 67l-142 -67l9 72l141 72l119 -77z" />
    <glyph glyph-name="Ydieresis" unicode="&#x178;" horiz-adv-x="491" 
d="M252 0h-85l27 225l-137 430h93q26 -85 49.5 -170t44.5 -170q50 85 94 170l85 170h99l-243 -430zM258 752q-2 -21 -14.5 -31.5t-39.5 -10.5q-26 0 -42 13t-13 34l4 28q6 43 55 43q27 0 41.5 -12t12.5 -35zM430 752q-3 -42 -54 -42q-26 0 -42 13t-13 34l4 28q3 23 16 33
t39 10t41 -12t13 -35z" />
    <glyph glyph-name="Zacute" unicode="&#x179;" horiz-adv-x="480" 
d="M365 578h-285l10 77h389l-9 -67l-182 -252l-173 -259h292l-8 -77h-395l7 67zM331 829h89l-97 -119h-70z" />
    <glyph glyph-name="zacute" unicode="&#x17a;" horiz-adv-x="401" 
d="M380 423q-76 -85 -145.5 -175.5t-124.5 -172.5h221l-10 -75h-326l9 65l264 348h-210l10 75h321zM285 685h90l-109 -139h-71z" />
    <glyph glyph-name="Zdotaccent" unicode="&#x17b;" horiz-adv-x="480" 
d="M365 578h-285l10 77h389l-9 -67l-182 -252l-173 -259h292l-8 -77h-395l7 67zM347 751q-3 -42 -56 -42q-26 0 -42 13t-13 35l4 29q6 43 56 43q27 0 42 -13t13 -36z" />
    <glyph glyph-name="zdotaccent" unicode="&#x17c;" horiz-adv-x="401" 
d="M380 423q-76 -85 -145.5 -175.5t-124.5 -172.5h221l-10 -75h-326l9 65l264 348h-210l10 75h321zM296 617q-6 -42 -58 -42q-26 0 -41 12.5t-12 35.5l4 29q6 43 58 43q27 0 41.5 -13t11.5 -36z" />
    <glyph glyph-name="Zcaron" unicode="&#x17d;" horiz-adv-x="480" 
d="M365 578h-285l10 77h389l-9 -67l-182 -252l-173 -259h292l-8 -77h-395l7 67zM287 712l-134 61l8 68l135 -49l145 49l-8 -68z" />
    <glyph glyph-name="zcaron" unicode="&#x17e;" horiz-adv-x="401" 
d="M380 423q-76 -85 -145.5 -175.5t-124.5 -172.5h221l-10 -75h-326l9 65l264 348h-210l10 75h321zM230 546l-119 76l9 68l118 -67l142 67l-9 -74z" />
    <glyph glyph-name="longs" unicode="&#x17f;" horiz-adv-x="268" 
d="M297 695q17 0 39 -3t38 -8l-9 -70q-19 5 -39 8.5t-34 3.5q-29 0 -46.5 -17.5t-24.5 -64.5l-76 -544h-85l58 418h-74l7 50l76 14l8 57q11 81 52 118.5t110 37.5z" />
    <glyph glyph-name="florin" unicode="&#x192;" horiz-adv-x="313" 
d="M275 613q17 0 39 -3t38 -8l-9 -70q-19 5 -38.5 8.5t-35.5 3.5q-29 0 -46 -17t-24 -65l-8 -56h90l-10 -70h-90l-72 -521h-86l73 521h-74l7 50l76 14l8 57q11 81 52 118.5t110 37.5z" />
    <glyph glyph-name="AEacute" unicode="&#x1fc;" horiz-adv-x="761" 
d="M470 578l-25 -207h240l-10 -76h-240l-27 -218h260l-8 -77h-345l18 152h-195l-92 -152h-92l388 655h398l-10 -77h-260zM387 592l-94 -172l-110 -192h160zM604 829h89l-97 -119h-70z" />
    <glyph glyph-name="aeacute" unicode="&#x1fd;" horiz-adv-x="700" 
d="M527 500q68 0 105 -34.5t37 -91.5q0 -36 -15.5 -70t-48.5 -61t-85.5 -45.5t-127.5 -24.5l-2 -11q-3 -17 -3 -30q0 -71 75 -71q32 0 70 11t72 28l-15 -77q-34 -16 -72.5 -25.5t-68.5 -9.5q-140 0 -144 137q-33 -72 -73 -104.5t-85 -32.5q-31 0 -52.5 11.5t-34.5 30
t-18.5 42.5t-5.5 49q0 24 4 43l27 167q14 85 55 127t103 42q21 0 42.5 -7t40.5 -19.5t35 -28.5t27 -34q29 45 69.5 67t88.5 22zM524 429q-38 0 -71.5 -38.5t-45.5 -118.5l-7 -45q66 10 108 27q41 28 59 55t18 58q0 29 -16.5 45.5t-44.5 16.5zM244 424q-38 0 -61.5 -22.5
t-32.5 -78.5l-24 -148q-2 -12 -3.5 -25t-1.5 -25q0 -26 10 -43.5t39 -17.5q32 0 59 25t47 59t31.5 68.5t13.5 53.5q2 16 8 40.5t16 50.5q-17 27 -45.5 45t-55.5 18zM463 685h90l-109 -139h-71z" />
    <glyph glyph-name="Oslashacute" unicode="&#x1fe;" horiz-adv-x="576" 
d="M508 575q19 -38 19 -91v-18t-2 -19l-31 -249q-13 -104 -71 -157t-167 -53q-42 0 -74 8.5t-56 23.5l-52 -70h-89l90 125q-20 38 -20 92q0 20 3 41l31 249q14 108 70 159t168 51q82 0 133 -37l53 75h89zM321 592q-132 0 -147 -127l-32 -268q-1 -8 -1.5 -15t-0.5 -14v-9
l277 401q-30 32 -96 32zM169 92q30 -29 92 -29q131 0 147 128l33 267q1 8 1 15v14zM368 829h89l-97 -119h-70z" />
    <glyph glyph-name="oslashacute" unicode="&#x1ff;" horiz-adv-x="472" 
d="M409 411q10 -26 10 -60q0 -17 -3 -36l-19 -139q-12 -91 -60 -139.5t-132 -48.5q-36 0 -64.5 8t-48.5 22l-56 -69h-87l101 126q-10 26 -10 60q0 17 3 37l20 144q12 89 62 136.5t131 47.5q35 0 63 -8.5t48 -23.5l56 70h88zM252 429q-42 0 -68 -24t-34 -78l-22 -156l-2 -14
l193 240q-21 32 -67 32zM141 89q21 -30 67 -30q44 0 69 24.5t32 77.5l21 146l3 21zM306 685h90l-109 -139h-71z" />
    <glyph glyph-name="Scommaaccent" unicode="&#x218;" horiz-adv-x="456" 
d="M303 354q56 -23 83.5 -60.5t27.5 -94.5q0 -19 -3 -41l-2 -13q-12 -78 -60.5 -117.5t-139.5 -39.5q-22 0 -46.5 3.5t-48.5 9.5t-46 13.5t-39 15.5l10 85q69 -35 127 -49q15 -2 24.5 -2h18.5q53 0 79.5 21.5t34.5 66.5l2 11q3 16 3 30q0 32 -17 52.5t-53 35.5l-89 36
q-54 21 -81.5 62.5t-27.5 95.5q0 25 6 52l2 9q14 64 62.5 97.5t138.5 33.5q16 0 35.5 -2t39.5 -5t39.5 -7t36.5 -8l-11 -81q-26 8 -53.5 14.5t-55.5 11.5q-11 1 -19 1h-16q-52 0 -79 -19t-33 -56l-2 -12q-1 -6 -1.5 -12t-0.5 -12q0 -63 71 -92zM262 -122q-2 -13 -5.5 -22.5
t-9.5 -22.5l-28 -59h-52l26 71q-25 9 -25 33q0 2 0.5 4.5t0.5 4.5l3 20q3 19 13 28t33 9q48 0 48 -36q0 -7 -1 -10z" />
    <glyph glyph-name="scommaaccent" unicode="&#x219;" horiz-adv-x="385" 
d="M216 500q24 0 57 -5.5t65 -14.5l-12 -77q-20 8 -42 15t-39 11q-8 1 -18.5 1.5t-17.5 0.5q-35 0 -53 -13.5t-22 -37.5l-1 -6q-1 -4 -1 -11q0 -18 10.5 -33.5t30.5 -24.5l82 -38q42 -20 62.5 -55t15.5 -80l-2 -16q-7 -57 -47 -92.5t-114 -35.5q-36 0 -77 10.5t-73 27.5
l13 77q20 -11 48 -22.5t48 -17.5q24 -3 39 -3q71 0 81 64l1 6q1 4 1 11q0 17 -10 33t-29 25l-80 37q-42 20 -62 50t-20 67v13t2 13l3 16q9 49 47 77t114 28zM212 -122q-2 -13 -5.5 -22.5t-9.5 -22.5l-28 -59h-52l26 71q-25 9 -25 33q0 2 0.5 4.5t0.5 4.5l3 20q3 19 13 28
t33 9q48 0 48 -36q0 -7 -1 -10z" />
    <glyph glyph-name="uni021A" unicode="&#x21a;" horiz-adv-x="525" 
d="M539 655l-10 -77h-190l-70 -578h-85l70 578h-190l10 77h465zM261 -122q-2 -13 -5.5 -22.5t-9.5 -22.5l-28 -59h-52l26 71q-25 9 -25 33q0 2 0.5 4.5t0.5 4.5l3 20q3 19 13 28t33 9q48 0 48 -36q0 -7 -1 -10z" />
    <glyph glyph-name="uni021B" unicode="&#x21b;" horiz-adv-x="341" 
d="M328 488l-10 -70h-130l-40 -286q-1 -5 -1 -10v-10q0 -27 12.5 -39t37.5 -12q20 0 46.5 7t43.5 15l-10 -73q-17 -8 -44 -15t-48 -7q-62 0 -93 25.5t-31 85.5q0 19 3 40l40 279h-71l7 50l80 15l46 135h50l-18 -130h130zM213 -122q-2 -13 -5.5 -22.5t-9.5 -22.5l-28 -59h-52
l26 71q-25 9 -25 33q0 2 0.5 4.5t0.5 4.5l3 20q3 19 13 28t33 9q48 0 48 -36q0 -7 -1 -10z" />
    <glyph glyph-name="dotlessj" unicode="&#x237;" horiz-adv-x="225" 
d="M107 -51q-11 -77 -46 -111.5t-104 -34.5q-20 0 -43.5 3.5t-37.5 8.5l10 73q12 -5 32.5 -8.5t39.5 -3.5q28 0 43 12.5t20 52.5l77 547h85z" />
    <glyph glyph-name="uni02BC" unicode="&#x2bc;" horiz-adv-x="159" 
d="M125 629q-2 -13 -5.5 -22.5t-9.5 -22.5l-28 -59h-52l26 71q-25 9 -25 33q0 2 0.5 4.5t0.5 4.5l3 20q3 19 13 28t33 9q48 0 48 -36q0 -7 -1 -10z" />
    <glyph glyph-name="circumflex" unicode="&#x2c6;" horiz-adv-x="329" 
d="M290 546l-118 67l-142 -67l9 72l141 72l119 -77z" />
    <glyph glyph-name="caron" unicode="&#x2c7;" horiz-adv-x="329" 
d="M149 546l-119 76l9 68l118 -67l142 67l-9 -74z" />
    <glyph glyph-name="uni02C9" unicode="&#x2c9;" horiz-adv-x="285" 
d="M255 681l-10 -75h-215l10 75h215z" />
    <glyph glyph-name="breve" unicode="&#x2d8;" horiz-adv-x="332" 
d="M290 602q-16 -17 -36 -29q-18 -11 -43.5 -19.5t-58.5 -8.5q-32 0 -55 9.5t-38 20.5q-18 13 -29 31l12 79q13 -19 31 -33q15 -12 37.5 -22t52.5 -10q29 0 54.5 10t44.5 22q22 14 40 33z" />
    <glyph glyph-name="dotaccent" unicode="&#x2d9;" horiz-adv-x="175" 
d="M141 617q-6 -42 -58 -42q-26 0 -41 12.5t-12 35.5l4 29q6 43 58 43q27 0 41.5 -13t11.5 -36z" />
    <glyph glyph-name="ring" unicode="&#x2da;" horiz-adv-x="286" 
d="M149 723q47 0 77 -24t30 -65q0 -45 -30 -75t-89 -30q-45 0 -76 24t-31 66q0 48 31 76t88 28zM147 672q-30 0 -42.5 -11.5t-12.5 -37.5q0 -19 12.5 -31t36.5 -12q30 0 42 12.5t12 39.5q0 19 -12.5 29.5t-35.5 10.5z" />
    <glyph glyph-name="ogonek" unicode="&#x2db;" horiz-adv-x="222" 
d="M168 -192q-14 -3 -26 -4t-23 -1q-46 0 -67.5 18.5t-21.5 48.5q0 9 1 14l2 13q3 20 13.5 40t27.5 37.5t39 30t47 17.5l32 -15q-36 -13 -58 -39t-27 -55l-1 -10q-1 -3 -1 -9q0 -28 38 -28q15 0 33 3z" />
    <glyph glyph-name="tilde" unicode="&#x2dc;" horiz-adv-x="334" 
d="M294 613q-12 -8 -25 -14q-11 -5 -26.5 -9.5t-32.5 -4.5q-15 0 -27 4t-23.5 8.5t-23 8.5t-25.5 4q-13 0 -27 -4t-26 -9q-14 -5 -28 -12l10 68q12 9 25 16q11 6 26.5 11t32.5 5q19 0 31.5 -4t23 -8.5l20.5 -8.5t23 -4q12 0 26.5 3.5t26.5 8.5q14 5 29 13z" />
    <glyph glyph-name="hungarumlaut" unicode="&#x2dd;" horiz-adv-x="361" 
d="M26 546l85 139h80l-92 -139h-73zM166 546l85 139h80l-92 -139h-73z" />
    <glyph glyph-name="uni0312" unicode="&#x312;" horiz-adv-x="0" 
d="M34 624q2 13 5.5 22.5t9.5 22.5l28 59h52l-26 -71q25 -9 25 -33q0 -2 -0.5 -4.5t-0.5 -4.5l-3 -20q-3 -19 -13 -28t-33 -9q-48 0 -48 36q0 7 1 10z" />
    <glyph glyph-name="uni0313" unicode="&#x313;" horiz-adv-x="0" 
d="M125 629q-2 -13 -5.5 -22.5t-9.5 -22.5l-28 -59h-52l26 71q-25 9 -25 33q0 2 0.5 4.5t0.5 4.5l3 20q3 19 13 28t33 9q48 0 48 -36q0 -7 -1 -10z" />
    <glyph glyph-name="uni0326" unicode="&#x326;" horiz-adv-x="0" 
d="M125 -122q-2 -13 -5.5 -22.5t-9.5 -22.5l-28 -59h-52l26 71q-25 9 -25 33q0 2 0.5 4.5t0.5 4.5l3 20q3 19 13 28t33 9q48 0 48 -36q0 -7 -1 -10z" />
    <glyph glyph-name="uni037E" unicode="&#x37e;" horiz-adv-x="221" 
d="M133 478q28 0 42 -13.5t11 -35.5l-4 -29q-3 -20 -16.5 -31t-42.5 -11q-28 0 -41.5 14t-10.5 34l3 23q3 26 16.5 37.5t42.5 11.5zM79 108q27 0 42.5 -15.5t11.5 -41.5l-3 -25q-2 -15 -5.5 -24l-8.5 -21l-64 -142h-60l57 152q-15 3 -22.5 16t-7.5 28v7l4 28q3 19 16 28.5
t40 9.5z" />
    <glyph glyph-name="tonos" unicode="&#x384;" horiz-adv-x="195" 
d="M80 683h85l-69 -139h-66z" />
    <glyph glyph-name="dieresistonos" unicode="&#x385;" horiz-adv-x="322" 
d="M187 854h85l-70 -139h-66zM127 614q-2 -20 -12.5 -29.5t-36.5 -9.5q-23 0 -36 12t-11 32l3 26q3 21 14.5 30.5t35.5 9.5q25 0 37.5 -11.5t9.5 -32.5zM287 614q-2 -20 -12.5 -29.5t-36.5 -9.5q-23 0 -36 12t-11 32l3 26q3 21 14.5 30.5t35.5 9.5q25 0 37.5 -11.5
t9.5 -32.5z" />
    <glyph glyph-name="Alphatonos" unicode="&#x386;" horiz-adv-x="532" 
d="M392 0l-10.5 76l-11.5 76h-239l-31 -76l-33 -76h-90l280 655h105l121 -655h-91zM299 576l-67 -174.5l-69 -173.5h195l-28.5 174.5zM89 516l26 139h85l-45 -139h-66z" />
    <glyph glyph-name="anoteleia" unicode="&#x387;" horiz-adv-x="221" 
d="M81 309q28 0 42 -13.5t11 -35.5l-4 -29q-3 -20 -16.5 -31t-42.5 -11q-28 0 -41.5 14t-10.5 34l3 23q3 26 16.5 37.5t42.5 11.5z" />
    <glyph glyph-name="Epsilontonos" unicode="&#x388;" horiz-adv-x="485" 
d="M464 655l-10 -77h-260l-25 -207h240l-10 -76h-240l-27 -218h260l-8 -77h-345l80 655h345zM-21 516l26 139h85l-45 -139h-66z" />
    <glyph glyph-name="Etatonos" unicode="&#x389;" horiz-adv-x="580" 
d="M160 300l-36 -300h-85l80 655h85l-35 -279h260l35 279h85l-80 -655h-85l36 300h-260zM-21 516l26 139h85l-45 -139h-66z" />
    <glyph glyph-name="Iotatonos" unicode="&#x38a;" horiz-adv-x="235" 
d="M204 655l-80 -655h-85l80 655h85zM-21 516l26 139h85l-45 -139h-66z" />
    <glyph glyph-name="Omicrontonos" unicode="&#x38c;" horiz-adv-x="576" 
d="M327 667q106 0 158.5 -58t39.5 -162l-31 -249q-13 -105 -71 -157.5t-167 -52.5t-160 57.5t-38 162.5l31 249q14 109 70.5 159.5t167.5 50.5zM321 592q-132 0 -147 -127l-32 -268q-1 -7 -1.5 -13.5t-0.5 -12.5q0 -54 31.5 -81t89.5 -27q131 0 147 128l33 267q1 7 1.5 14
t0.5 13q0 107 -122 107zM-11 516l26 139h85l-45 -139h-66z" />
    <glyph glyph-name="Upsilontonos" unicode="&#x38e;" horiz-adv-x="491" 
d="M-67 516l26 139h85l-45 -139h-66zM252 0h-85l27 225l-137 430h93q26 -85 49.5 -170t44.5 -170q50 85 94 170l85 170h99l-243 -430z" />
    <glyph glyph-name="Omegatonos" unicode="&#x38f;" horiz-adv-x="576" 
d="M323 667q112 0 163.5 -60t38.5 -163l-26 -208q-7 -55 -22 -90t-49 -66h65l-7 -80h-200l6 77h9q44 0 74 33.5t37 95.5l29 249q7 67 -27 102t-96 35q-131 0 -145 -127l-26 -249q-1 -7 -1 -13.5v-13.5q0 -55 22.5 -83.5t58.5 -28.5h9l-6 -77h-200l8 80h66q-22 21 -33 50
t-11 70q0 20 3 46l26 211q6 53 22 92.5t44 65.5t69.5 39t98.5 13zM-11 516l26 139h85l-45 -139h-66z" />
    <glyph glyph-name="iotadieresistonos" unicode="&#x390;" horiz-adv-x="225" 
d="M30 0l68 488h85l-68 -488h-85zM185 854h85l-70 -139h-66zM125 614q-2 -20 -12.5 -29.5t-36.5 -9.5q-23 0 -36 12t-11 32l3 26q3 21 14.5 30.5t35.5 9.5q25 0 37.5 -11.5t9.5 -32.5zM285 614q-2 -20 -12.5 -29.5t-36.5 -9.5q-23 0 -36 12t-11 32l3 26q3 21 14.5 30.5
t35.5 9.5q25 0 37.5 -11.5t9.5 -32.5z" />
    <glyph glyph-name="Alpha" unicode="&#x391;" horiz-adv-x="532" 
d="M392 0l-10.5 76l-11.5 76h-239l-31 -76l-33 -76h-90l280 655h105l121 -655h-91zM299 576l-67 -174.5l-69 -173.5h195l-28.5 174.5z" />
    <glyph glyph-name="Beta" unicode="&#x392;" horiz-adv-x="528" 
d="M120 662q16 1 36.5 1.5t42 1.5t43.5 1.5t42 0.5q55 0 95.5 -12.5t66.5 -34.5t37.5 -52t8.5 -65l-1 -11q-5 -57 -33.5 -95.5t-84.5 -56.5q48 -13 77.5 -49.5t29.5 -88.5q0 -6 -0.5 -12t-1.5 -12l-2 -15q-11 -83 -70 -129t-174 -46q-21 0 -41 0.5t-42.5 1.5t-49.5 2.5
t-61 4.5zM271 367q60 0 93.5 30t39.5 83l1 9q6 53 -24.5 79t-107.5 26q-34 0 -77 -3l-28 -224h103zM131 68q38 -4 58.5 -5t40.5 -1q80 0 117.5 28.5t45.5 82.5l2 13q1 5 1.5 10t0.5 10q0 44 -33 68t-101 24h-104z" />
    <glyph glyph-name="Gamma" unicode="&#x393;" horiz-adv-x="445" 
d="M194 578l-70 -578h-85l80 655h340l-10 -77h-255z" />
    <glyph glyph-name="uni0394" unicode="&#x394;" horiz-adv-x="522" 
d="M469 0h-474l8 57l246 598h101l124 -598zM289 577q-42 -121 -90.5 -246.5t-105.5 -254.5h287q-17 131 -39.5 252t-51.5 249z" />
    <glyph glyph-name="Epsilon" unicode="&#x395;" horiz-adv-x="485" 
d="M464 655l-10 -77h-260l-25 -207h240l-10 -76h-240l-27 -218h260l-8 -77h-345l80 655h345z" />
    <glyph glyph-name="Zeta" unicode="&#x396;" horiz-adv-x="480" 
d="M365 578h-285l10 77h389l-9 -67l-182 -252l-173 -259h292l-8 -77h-395l7 67z" />
    <glyph glyph-name="Eta" unicode="&#x397;" horiz-adv-x="580" 
d="M160 300l-36 -300h-85l80 655h85l-35 -279h260l35 279h85l-80 -655h-85l36 300h-260z" />
    <glyph glyph-name="Theta" unicode="&#x398;" horiz-adv-x="576" 
d="M327 667q106 0 158.5 -58t39.5 -162l-31 -249q-13 -105 -71 -157.5t-167 -52.5t-160 57.5t-38 162.5l31 249q14 109 70.5 159.5t167.5 50.5zM321 592q-132 0 -147 -127l-32 -268q-1 -7 -1.5 -13.5t-0.5 -12.5q0 -54 31.5 -81t89.5 -27q131 0 147 128l33 267q1 7 1.5 14
t0.5 13q0 107 -122 107zM204 293l10 80h166l-10 -80h-166z" />
    <glyph glyph-name="Iota" unicode="&#x399;" horiz-adv-x="235" 
d="M204 655l-80 -655h-85l80 655h85z" />
    <glyph glyph-name="Kappa" unicode="&#x39a;" horiz-adv-x="525" 
d="M204 655l-37 -303l147 156t125 147h104l-288 -317l234 -338h-108l-55.5 89l-52.5 81l-52.5 77l-56.5 78l-40 -325h-85l80 655h85z" />
    <glyph glyph-name="Lambda" unicode="&#x39b;" horiz-adv-x="527" 
d="M389 0q-20 146 -42 290t-48 287l-112 -289.5t-120 -287.5h-90l278 655h105l118 -655h-89z" />
    <glyph glyph-name="Mu" unicode="&#x39c;" horiz-adv-x="699" 
d="M509 0l59 535l-197 -467h-104l-80 465l-69 -533h-84l86 655h121q26 -128 47.5 -254t36.5 -255q60 131 111 257l98 252h133l-74 -655h-84z" />
    <glyph glyph-name="Nu" unicode="&#x39d;" horiz-adv-x="582" 
d="M123 0h-84l80 655h125l81.5 -275.5t73.5 -279.5l68 555h84l-80 -655h-125l-156 556z" />
    <glyph glyph-name="Xi" unicode="&#x39e;" horiz-adv-x="475" 
d="M78 573l11 82h385l-11 -82h-385zM111 292l10 82h250l-10 -82h-250zM9 0l9 82h385l-9 -82h-385z" />
    <glyph glyph-name="Omicron" unicode="&#x39f;" horiz-adv-x="576" 
d="M327 667q106 0 158.5 -58t39.5 -162l-31 -249q-13 -105 -71 -157.5t-167 -52.5t-160 57.5t-38 162.5l31 249q14 109 70.5 159.5t167.5 50.5zM321 592q-132 0 -147 -127l-32 -268q-1 -7 -1.5 -13.5t-0.5 -12.5q0 -54 31.5 -81t89.5 -27q131 0 147 128l33 267q1 7 1.5 14
t0.5 13q0 107 -122 107z" />
    <glyph glyph-name="Pi" unicode="&#x3a0;" horiz-adv-x="580" 
d="M384 0l70 578h-260l-70 -578h-85l80 655h430l-80 -655h-85z" />
    <glyph glyph-name="Rho" unicode="&#x3a1;" horiz-adv-x="510" 
d="M282 667q118 0 174.5 -54t42.5 -148l-2 -14q-13 -89 -72.5 -136.5t-165.5 -47.5q-14 0 -40.5 3t-61.5 10l-33 -280h-85l81 662q13 1 34 1.5t44 1.5t45 1.5t39 0.5zM279 596q-29 0 -48 -0.5t-35 -1.5l-31 -247q29 -5 51.5 -7.5t40.5 -2.5q70 0 107 29t48 90l2 11q2 7 2 14
v13q0 48 -34 75t-103 27z" />
    <glyph glyph-name="Sigma" unicode="&#x3a3;" horiz-adv-x="454" 
d="M165 578l114 -224l-5 -46l-170 -231h292l-8 -77h-389l7 67l201 268l-137 253l9 67h389l-10 -77h-293z" />
    <glyph glyph-name="Tau" unicode="&#x3a4;" horiz-adv-x="525" 
d="M539 655l-10 -77h-190l-70 -578h-85l70 578h-190l10 77h465z" />
    <glyph glyph-name="Upsilon" unicode="&#x3a5;" horiz-adv-x="491" 
d="M252 0h-85l27 225l-137 430h93q26 -85 49.5 -170t44.5 -170q50 85 94 170l85 170h99l-243 -430z" />
    <glyph glyph-name="Phi" unicode="&#x3a6;" horiz-adv-x="738" 
d="M447 611q28 6 57 6q94 0 141 -36.5t47 -123.5q0 -23 -3 -50l-18 -145q-6 -51 -22 -88t-43.5 -60.5t-69 -34.5t-99.5 -11q-14 0 -28 1.5t-28 3.5l-10 -85h-85l10 85q-14 -2 -26.5 -3.5t-25.5 -1.5q-96 0 -141 39t-45 123q0 22 3 48l18 145q6 51 21.5 87.5t42 60t66 35
t93.5 11.5q14 0 29 -2l31 -4l10 84h85zM297 547q-65 0 -95 -26.5t-37 -89.5l-20 -167q-1 -8 -1.5 -15.5t-0.5 -14.5q0 -51 26.5 -73.5t83.5 -22.5q28 0 51 4l49 400q-14 2 -28 3.5t-28 1.5zM495 546q-14 0 -28.5 -1t-28.5 -3l-48 -400q14 -2 28 -3t28 -1q34 0 59 6
t41.5 19.5t25.5 35.5t13 54l20 167q1 8 1.5 15.5t0.5 15.5q0 51 -27 73t-85 22z" />
    <glyph glyph-name="Chi" unicode="&#x3a7;" horiz-adv-x="519" 
d="M470 0h-100q-26 69 -53 132l-61 136l-89 -134l-91 -134h-99l233 341l-141 314h96l53 -125l52 -125l89 126.5l80 123.5h100l-220 -320z" />
    <glyph glyph-name="Psi" unicode="&#x3a8;" horiz-adv-x="710" 
d="M650 342q-11 -94 -55 -135t-125 -41h-88l-20 -166h-85l20 166h-62q-88 0 -131.5 49.5t-32.5 138.5l38 301h85l-39 -311q-1 -5 -1 -10.5v-10.5q0 -42 22.5 -62t57.5 -20h71l52 414h85l-52 -414h78q43 0 66.5 21t29.5 70l40 323h85z" />
    <glyph glyph-name="uni03A9" unicode="&#x3a9;" horiz-adv-x="576" 
d="M323 667q112 0 163.5 -60t38.5 -163l-26 -208q-7 -55 -22 -90t-49 -66h65l-7 -80h-200l6 77h9q44 0 74 33.5t37 95.5l29 249q7 67 -27 102t-96 35q-131 0 -145 -127l-26 -249q-1 -7 -1 -13.5v-13.5q0 -55 22.5 -83.5t58.5 -28.5h9l-6 -77h-200l8 80h66q-22 21 -33 50
t-11 70q0 20 3 46l26 211q6 53 22 92.5t44 65.5t69.5 39t98.5 13z" />
    <glyph glyph-name="Iotadieresis" unicode="&#x3aa;" horiz-adv-x="235" 
d="M204 655l-80 -655h-85l80 655h85zM136 752q-2 -21 -14.5 -31.5t-39.5 -10.5q-26 0 -42 13t-13 34l4 28q6 43 55 43q27 0 41.5 -12t12.5 -35zM308 752q-3 -42 -54 -42q-26 0 -42 13t-13 34l4 28q3 23 16 33t39 10t41 -12t13 -35z" />
    <glyph glyph-name="Upsilondieresis" unicode="&#x3ab;" horiz-adv-x="491" 
d="M261 752q-2 -21 -14.5 -31.5t-39.5 -10.5q-26 0 -42 13t-13 34l4 28q6 43 55 43q27 0 41.5 -12t12.5 -35zM433 752q-3 -42 -54 -42q-26 0 -42 13t-13 34l4 28q3 23 16 33t39 10t41 -12t13 -35zM252 0h-85l27 225l-137 430h93q26 -85 49.5 -170t44.5 -170q50 85 94 170
l85 170h99l-243 -430z" />
    <glyph glyph-name="alphatonos" unicode="&#x3ac;" horiz-adv-x="469" 
d="M227 500q35 0 67 -19t53 -48l7 55h80l-7 -51l-31 -135l-13 -178l-17 -124h-81l9 65l41 125l-2 2l-3 -1q-36 -108 -83 -155.5t-101 -47.5q-48 0 -79.5 33t-31.5 97q0 11 1 22.5t3 23.5l26 163q14 88 58 130.5t104 42.5zM238 427q-33 0 -56 -24.5t-32 -80.5l-24 -147
q-2 -14 -3.5 -26t-1.5 -22q0 -35 13 -49t36 -14q30 0 54.5 21t43.5 53t32.5 70t20.5 72l13 89q-17 26 -43 42t-53 16zM283 683h85l-69 -139h-66z" />
    <glyph glyph-name="epsilontonos" unicode="&#x3ad;" horiz-adv-x="370" 
d="M223 500q29 0 59.5 -5.5t66.5 -15.5l-12 -71q-28 11 -60.5 18t-57.5 7q-69 0 -78 -59l-1 -7q-5 -38 17 -62.5t71 -24.5h74l-9 -66h-86q-49 0 -73 -17.5t-30 -48.5l-2 -10q-1 -5 -1.5 -10.5t-0.5 -10.5q0 -28 19.5 -42.5t62.5 -14.5q28 0 61 8t61 18l-9 -72
q-35 -12 -66.5 -19t-58.5 -7q-40 0 -70.5 11.5t-51 31.5t-28.5 47t-3 58l2 12q6 34 34.5 63.5t74.5 40.5q-33 14 -51.5 42t-18.5 65v10t1 10l1 7q8 51 48 82.5t115 31.5zM253 683h85l-69 -139h-66z" />
    <glyph glyph-name="etatonos" unicode="&#x3ae;" horiz-adv-x="485" 
d="M327 500q49 0 75.5 -27.5t26.5 -93.5q0 -14 -1 -29.5t-4 -33.5l-75 -501h-85l77 503q2 14 3 25t1 21q0 33 -10.5 45t-29.5 12q-26 0 -54 -26.5t-53 -77t-46 -123t-33 -164.5l-4 -30h-85l68 488h80l-11 -79l-45 -169l3 -2l3 2q35 130 87 195t112 65zM289 683h85l-69 -139
h-66z" />
    <glyph glyph-name="iotatonos" unicode="&#x3af;" horiz-adv-x="225" 
d="M30 0l68 488h85l-68 -488h-85zM158 683h85l-69 -139h-66z" />
    <glyph glyph-name="upsilondieresistonos" unicode="&#x3b0;" horiz-adv-x="482" 
d="M395 171q-14 -97 -57.5 -140t-126.5 -43q-81 0 -122 40t-41 111q0 19 3 40l44 309h85l-46 -324q-1 -5 -1 -10v-10q0 -42 22.5 -63.5t57.5 -21.5q39 0 64 24.5t32 72.5l47 332h85zM306 854h85l-70 -139h-66zM246 614q-2 -20 -12.5 -29.5t-36.5 -9.5q-23 0 -36 12t-11 32
l3 26q3 21 14.5 30.5t35.5 9.5q25 0 37.5 -11.5t9.5 -32.5zM406 614q-2 -20 -12.5 -29.5t-36.5 -9.5q-23 0 -36 12t-11 32l3 26q3 21 14.5 30.5t35.5 9.5q25 0 37.5 -11.5t9.5 -32.5z" />
    <glyph glyph-name="alpha" unicode="&#x3b1;" horiz-adv-x="469" 
d="M227 500q35 0 67 -19t53 -48l7 55h80l-7 -51l-31 -135l-13 -178l-17 -124h-81l9 65l41 125l-2 2l-3 -1q-36 -108 -83 -155.5t-101 -47.5q-48 0 -79.5 33t-31.5 97q0 11 1 22.5t3 23.5l26 163q14 88 58 130.5t104 42.5zM238 427q-33 0 -56 -24.5t-32 -80.5l-24 -147
q-2 -14 -3.5 -26t-1.5 -22q0 -35 13 -49t36 -14q30 0 54.5 21t43.5 53t32.5 70t20.5 72l13 89q-17 26 -43 42t-53 16z" />
    <glyph glyph-name="beta" unicode="&#x3b2;" horiz-adv-x="463" 
d="M266 695q35 0 64 -12t48.5 -33.5t28.5 -51.5t4 -66l-3 -22q-5 -40 -29 -72.5t-62 -46.5q41 -9 67 -44.5t26 -92.5q0 -17 -3 -36l-8 -56q-13 -92 -53 -133t-101 -41q-31 0 -66 14t-59 38q-11 -63 -23.5 -121.5t-24.5 -103.5h-84q14 56 29 130t26 152l61 430
q13 89 51.5 128.5t110.5 39.5zM262 620q-29 0 -47 -18.5t-25 -64.5l-62 -435q20 -19 45 -28.5t47 -9.5q38 0 63 25.5t34 85.5l5 33q2 14 3 26.5t1 23.5q0 51 -21 70t-60 19h-34l10 68h10q47 0 65.5 25.5t26.5 83.5l2 14q1 5 1 9v8q0 32 -17.5 48.5t-46.5 16.5z" />
    <glyph glyph-name="gamma" unicode="&#x3b3;" horiz-adv-x="440" 
d="M198 -185h-85l26 185l-101 488h87l18.5 -107l16 -98t14 -96t12.5 -100l2 -2l3 2l38 82l28.5 64l23.5 54.5l22.5 54.5l25 64l32.5 82h97l-233 -488z" />
    <glyph glyph-name="delta" unicode="&#x3b4;" horiz-adv-x="469" 
d="M451 619q-35 -2 -69 -3t-69 -1h-20q52 -26 84.5 -83.5t32.5 -148.5q0 -17 -1.5 -34t-3.5 -36l-18 -130q-14 -97 -60 -146t-127 -49q-78 0 -119 40.5t-41 117.5q0 21 3 45l13 94q11 81 49.5 122t95.5 41q37 0 70.5 -24t56.5 -71l2 29q4 46 -6.5 85.5t-32.5 71.5t-55 55.5
t-74 36.5l7 49h133q45 0 82.5 2t75.5 6zM214 372q-27 0 -47.5 -23t-28.5 -80l-13 -91q-3 -18 -3 -34q0 -45 21.5 -65t63.5 -20q36 0 61 26.5t32 78.5l15 116q-32 92 -101 92z" />
    <glyph glyph-name="epsilon" unicode="&#x3b5;" horiz-adv-x="370" 
d="M223 500q29 0 59.5 -5.5t66.5 -15.5l-12 -71q-28 11 -60.5 18t-57.5 7q-69 0 -78 -59l-1 -7q-5 -38 17 -62.5t71 -24.5h74l-9 -66h-86q-49 0 -73 -17.5t-30 -48.5l-2 -10q-1 -5 -1.5 -10.5t-0.5 -10.5q0 -28 19.5 -42.5t62.5 -14.5q28 0 61 8t61 18l-9 -72
q-35 -12 -66.5 -19t-58.5 -7q-40 0 -70.5 11.5t-51 31.5t-28.5 47t-3 58l2 12q6 34 34.5 63.5t74.5 40.5q-33 14 -51.5 42t-18.5 65v10t1 10l1 7q8 51 48 82.5t115 31.5z" />
    <glyph glyph-name="zeta" unicode="&#x3b6;" horiz-adv-x="376" 
d="M330 539q-60 -66 -99 -115.5t-62.5 -91.5t-35 -79t-16.5 -77q-1 -7 -1.5 -13.5t-0.5 -12.5q0 -42 23 -61t68 -19q66 0 90.5 -12t24.5 -47q0 -14 -3 -32q-4 -27 -9.5 -54.5t-11.5 -54.5h-82l10 43.5t8 43.5q1 4 1 8v7q0 28 -32 28h-21q-75 0 -113 38.5t-38 109.5
q0 20 3 44q6 43 21 84.5t40 83.5t61 85.5t84 90.5l78 77h-104q-42 0 -73 -4t-51 -11l10 71q20 6 62 10t97 4h157l-8 -60z" />
    <glyph glyph-name="eta" unicode="&#x3b7;" horiz-adv-x="485" 
d="M327 500q49 0 75.5 -27.5t26.5 -93.5q0 -14 -1 -29.5t-4 -33.5l-75 -501h-85l77 503q2 14 3 25t1 21q0 33 -10.5 45t-29.5 12q-26 0 -54 -26.5t-53 -77t-46 -123t-33 -164.5l-4 -30h-85l68 488h80l-11 -79l-45 -169l3 -2l3 2q35 130 87 195t112 65z" />
    <glyph glyph-name="theta" unicode="&#x3b8;" horiz-adv-x="496" 
d="M296 694q83 0 124 -39.5t41 -108.5q0 -18 -3 -37l-46 -333q-13 -91 -61 -139.5t-130 -48.5q-83 0 -126 38t-43 115q0 11 1 22.5t3 24.5l45 322q12 89 63 136.5t132 47.5zM292 623q-42 0 -69 -24t-35 -78l-18 -129h186l18 124q1 6 1.5 11.5t0.5 10.5q0 41 -23 63t-61 22z
M139 173q-1 -7 -1.5 -13.5t-0.5 -12.5q0 -44 23 -66t61 -22q44 0 70 24.5t33 77.5l22 161h-186z" />
    <glyph glyph-name="iota" unicode="&#x3b9;" horiz-adv-x="225" 
d="M30 0l68 488h85l-68 -488h-85z" />
    <glyph glyph-name="kappa" unicode="&#x3ba;" horiz-adv-x="426" 
d="M382 0h-102l-32.5 68.5l-25 50.5t-29 52l-44.5 74l-34 -245h-85l69 488h85l-33 -231l104.5 122l87.5 109h96l-199 -233z" />
    <glyph glyph-name="lambda" unicode="&#x3bb;" horiz-adv-x="427" 
d="M246 683l11.5 -45.5t17 -74l27 -129.5l41.5 -213l42 -221h-90q-17 122 -33.5 225.5t-36.5 200.5l-2 2l-3 -2l-77.5 -211l-84.5 -215h-89l206 488h37q-11 49 -23 97.5t-26 97.5h83z" />
    <glyph glyph-name="uni03BC" unicode="&#x3bc;" horiz-adv-x="480" 
d="M296 0l4 28l46 162l-2 2l-3 -1q-36 -108 -83 -155.5t-101 -47.5q-26 0 -45 13q-4 -24 -9 -49.5l-10 -50t-10.5 -46.5t-10.5 -40h-84q29 112 60 328l50 345h85l-46 -313q-2 -14 -3 -25.5t-1 -21.5q0 -36 12.5 -50t35.5 -14q36 0 63 28t45.5 68.5t30 86t16.5 79.5l23 162
h86l-69 -488h-80z" />
    <glyph glyph-name="nu" unicode="&#x3bd;" horiz-adv-x="432" 
d="M121 0l-83 488h83q19 -113 32.5 -214.5t23.5 -206.5l2 -2l3 2l51.5 112.5l40.5 94.5l38.5 96l44.5 118h93l-220 -488h-109z" />
    <glyph glyph-name="xi" unicode="&#x3be;" horiz-adv-x="378" 
d="M381 616q-102 -2 -149 -35t-56 -91l-1 -6q-1 -5 -1 -15q0 -33 22.5 -56t65.5 -23h46l-9 -66h-51q-28 0 -48 -6t-34.5 -20.5t-23 -38t-13.5 -57.5l-3 -22q-1 -8 -1.5 -14.5t-0.5 -12.5q0 -82 92 -82q31 0 52 -2.5t33.5 -8.5t17.5 -16.5t5 -27.5q0 -14 -3 -32
q-4 -29 -9 -57t-11 -57h-82q5 23 9.5 46t7.5 46q1 4 1 7.5v6.5q0 14 -6.5 19t-22.5 5h-5q-82 0 -122 38t-40 102q0 8 0.5 15.5t1.5 15.5l4 34q8 63 43.5 103.5t86.5 51.5q-23 8 -40 22t-27.5 31t-15 36t-1.5 37l2 13q5 36 36.5 67.5t88.5 46.5h-22q-38 0 -66 -4.5t-48 -11.5
l10 71q20 6 62 10.5t97 4.5h153l-10 -67h-15z" />
    <glyph glyph-name="omicron" unicode="&#x3bf;" horiz-adv-x="472" 
d="M397 176q-12 -91 -60 -139.5t-132 -48.5q-82 0 -123.5 39.5t-41.5 108.5q0 16 3 36l20 144q12 89 62 136.5t131 47.5t122 -40t41 -108q0 -18 -3 -37zM332 322q1 6 1.5 12t0.5 11q0 41 -22 62.5t-60 21.5q-42 0 -68 -24t-34 -78l-23 -162q-1 -6 -1.5 -11.5t-0.5 -10.5
q0 -41 22.5 -62.5t60.5 -21.5q44 0 69 24.5t32 77.5z" />
    <glyph glyph-name="pi" unicode="&#x3c0;" horiz-adv-x="534" 
d="M454 418l-43 -312q-1 -5 -1 -8.5v-7.5q0 -19 8.5 -26t28.5 -7q10 0 22 2.5t23 6.5l-9 -67q-12 -4 -29 -7.5t-35 -3.5q-45 0 -69.5 24t-24.5 76q0 19 3 40l41 290h-176l-58 -418h-85l58 418h-3q-15 0 -36 -4t-38 -10l10 70q20 6 53.5 10t65.5 4h374l-10 -70h-70z" />
    <glyph glyph-name="rho" unicode="&#x3c1;" horiz-adv-x="471" 
d="M254 500q78 0 120.5 -39t42.5 -113q0 -18 -3 -39l-23 -161q-11 -81 -52 -120.5t-98 -39.5q-31 0 -66.5 14t-60.5 38q-11 -63 -23 -121.5t-24 -103.5h-84q14 56 29 130t26 152l32 231q12 88 57.5 130t126.5 42zM252 429q-38 0 -63.5 -24t-32.5 -72l-33 -232
q20 -17 44.5 -27.5t47.5 -10.5q37 0 61 21.5t32 75.5l23 155q1 7 1.5 13.5t0.5 12.5q0 45 -23 66.5t-58 21.5z" />
    <glyph glyph-name="sigma1" unicode="&#x3c2;" horiz-adv-x="385" 
d="M247 500q26 0 53 -4t61 -14l-12 -76q-59 22 -103 22q-39 0 -64.5 -24.5t-32.5 -75.5l-21 -154q-1 -6 -1.5 -12.5t-0.5 -11.5q0 -41 22 -60.5t63 -19.5q61 0 84 -13t23 -53q0 -18 -3 -40q-3 -23 -8 -47l-10 -47h-82q5 21 9.5 42.5t7.5 42.5q1 4 1 7.5v6.5q0 31 -33 31h-17
q-66 0 -104.5 37.5t-38.5 103.5v16t2 16l21 148q14 94 60 136.5t124 42.5z" />
    <glyph glyph-name="sigma" unicode="&#x3c3;" horiz-adv-x="472" 
d="M256 500q23 0 41.5 -3.5t35.5 -9.5l160 2l-10 -73l-81 2q8 -14 11.5 -30.5t3.5 -39.5q0 -11 -1 -25t-3 -30l-16 -117q-12 -91 -60 -139.5t-132 -48.5q-82 0 -123.5 39.5t-41.5 108.5q0 16 3 36l20 144q12 89 62 136.5t131 47.5zM252 429q-42 0 -68 -24t-34 -78l-23 -162
q-1 -6 -1.5 -11.5t-0.5 -10.5q0 -41 22.5 -62.5t60.5 -21.5q44 0 69 24.5t32 77.5l23 161q1 6 1.5 12t0.5 11q0 40 -22 62t-60 22z" />
    <glyph glyph-name="tau" unicode="&#x3c4;" horiz-adv-x="425" 
d="M272 408l-57 -408h-85l57 408h-140l11 80h365l-11 -80h-140z" />
    <glyph glyph-name="upsilon" unicode="&#x3c5;" horiz-adv-x="482" 
d="M395 171q-14 -97 -57.5 -140t-126.5 -43q-81 0 -122 40t-41 111q0 19 3 40l44 309h85l-46 -324q-1 -5 -1 -10v-10q0 -42 22.5 -63.5t57.5 -21.5q39 0 64 24.5t32 72.5l47 332h85z" />
    <glyph glyph-name="phi" unicode="&#x3c6;" horiz-adv-x="677" 
d="M466 500q75 0 115.5 -36.5t40.5 -114.5q0 -12 -1 -24.5t-3 -26.5l-17 -118q-14 -94 -58 -143t-104 -49q-23 0 -47 4.5t-47 11.5l-26 -189h-85l26 185q-35 -12 -63 -12q-66 0 -103.5 39t-37.5 124q0 14 1 28.5t3 30.5q7 50 22.5 118.5t41.5 159.5h82q-14 -47 -23.5 -85
t-16.5 -71.5t-12.5 -65.5t-9.5 -67q-3 -23 -3 -41q0 -55 21 -77.5t54 -22.5q14 0 27 2t26 5l60 422q36 5 74.5 9t62.5 4zM456 432q-27 0 -51 -3l-51 -364q15 -4 30.5 -6t34.5 -2q36 0 61.5 28t35.5 94l19 130q3 19 3 35q0 48 -22 68t-60 20z" />
    <glyph glyph-name="chi" unicode="&#x3c7;" horiz-adv-x="421" 
d="M376 0h-92q-20 53 -39 97t-42 92l-2 2l-3 -2l-68.5 -100.5l-62.5 -88.5h-102l186 252l-108 236h94l37.5 -86l35.5 -87l2 -2l3 2l59.5 85.5l57.5 87.5h101l-174 -236z" />
    <glyph glyph-name="psi" unicode="&#x3c8;" horiz-adv-x="694" 
d="M606 180q-13 -97 -56 -144.5t-106 -47.5q-23 0 -47 4.5t-47 11.5l-26 -189h-85l26 185q-19 -5 -36 -8.5t-32 -3.5q-66 0 -103 38.5t-37 123.5q0 14 1 28.5t3 31.5q7 50 22 118.5t41 159.5h82q-14 -47 -23.5 -85t-16 -71.5t-12 -65.5t-9.5 -67q-3 -23 -3 -42
q0 -54 21 -76.5t53 -22.5q15 0 29.5 2t28.5 5l60 423h84l-59 -423q15 -4 30.5 -6t34.5 -2q36 0 61.5 28t35.5 94l44 309h83z" />
    <glyph glyph-name="omega" unicode="&#x3c9;" horiz-adv-x="711" 
d="M622 155q-12 -85 -52 -126t-112 -41q-23 0 -44.5 7.5t-39 20t-30.5 29t-17 34.5q-8 -18 -23 -34t-34 -29t-40 -20.5t-42 -7.5q-63 0 -97 33t-34 114q0 33 6 75q8 50 22.5 118.5t40.5 159.5h82q-14 -47 -23.5 -85t-16 -71.5t-12 -65.5t-9.5 -67q-2 -14 -3 -26.5t-1 -23.5
q0 -48 17.5 -65t48.5 -17t55 24t32 76l41 291h85l-39 -279q-1 -8 -1.5 -15.5t-0.5 -14.5q0 -48 22 -65t51 -17q33 0 55 24t30 81l45 316h85z" />
    <glyph glyph-name="iotadieresis" unicode="&#x3ca;" horiz-adv-x="225" 
d="M30 0l68 488h85l-68 -488h-85zM124 619q-3 -21 -16 -31.5t-40 -10.5q-26 0 -41 13t-12 34l4 28q6 43 57 43q27 0 41 -12t11 -35zM296 619q-6 -42 -56 -42q-26 0 -41 13t-12 34l4 28q6 43 57 43q26 0 40.5 -12t11.5 -35z" />
    <glyph glyph-name="upsilondieresis" unicode="&#x3cb;" horiz-adv-x="482" 
d="M395 171q-14 -97 -57.5 -140t-126.5 -43q-81 0 -122 40t-41 111q0 19 3 40l44 309h85l-46 -324q-1 -5 -1 -10v-10q0 -42 22.5 -63.5t57.5 -21.5q39 0 64 24.5t32 72.5l47 332h85zM245 619q-3 -21 -16 -31.5t-40 -10.5q-26 0 -41 13t-12 34l4 28q6 43 57 43q27 0 41 -12
t11 -35zM417 619q-6 -42 -56 -42q-26 0 -41 13t-12 34l4 28q6 43 57 43q26 0 40.5 -12t11.5 -35z" />
    <glyph glyph-name="omicrontonos" unicode="&#x3cc;" horiz-adv-x="472" 
d="M275 683h85l-69 -139h-66zM397 176q-12 -91 -60 -139.5t-132 -48.5q-82 0 -123.5 39.5t-41.5 108.5q0 16 3 36l20 144q12 89 62 136.5t131 47.5t122 -40t41 -108q0 -18 -3 -37zM332 322q1 6 1.5 12t0.5 11q0 41 -22 62.5t-60 21.5q-42 0 -68 -24t-34 -78l-23 -162
q-1 -6 -1.5 -11.5t-0.5 -10.5q0 -41 22.5 -62.5t60.5 -21.5q44 0 69 24.5t32 77.5z" />
    <glyph glyph-name="upsilontonos" unicode="&#x3cd;" horiz-adv-x="482" 
d="M395 171q-14 -97 -57.5 -140t-126.5 -43q-81 0 -122 40t-41 111q0 19 3 40l44 309h85l-46 -324q-1 -5 -1 -10v-10q0 -42 22.5 -63.5t57.5 -21.5q39 0 64 24.5t32 72.5l47 332h85zM280 683h85l-69 -139h-66z" />
    <glyph glyph-name="omegatonos" unicode="&#x3ce;" horiz-adv-x="711" 
d="M622 155q-12 -85 -52 -126t-112 -41q-23 0 -44.5 7.5t-39 20t-30.5 29t-17 34.5q-8 -18 -23 -34t-34 -29t-40 -20.5t-42 -7.5q-63 0 -97 33t-34 114q0 33 6 75q8 50 22.5 118.5t40.5 159.5h82q-14 -47 -23.5 -85t-16 -71.5t-12 -65.5t-9.5 -67q-2 -14 -3 -26.5t-1 -23.5
q0 -48 17.5 -65t48.5 -17t55 24t32 76l41 291h85l-39 -279q-1 -8 -1.5 -15.5t-0.5 -14.5q0 -48 22 -65t51 -17q33 0 55 24t30 81l45 316h85zM409 683h85l-69 -139h-66z" />
    <glyph glyph-name="uni0401" unicode="&#x401;" horiz-adv-x="485" 
d="M464 655l-10 -77h-260l-25 -207h240l-10 -76h-240l-27 -218h260l-8 -77h-345l80 655h345zM265 752q-2 -21 -14.5 -31.5t-39.5 -10.5q-26 0 -42 13t-13 34l4 28q6 43 55 43q27 0 41.5 -12t12.5 -35zM437 752q-3 -42 -54 -42q-26 0 -42 13t-13 34l4 28q3 23 16 33t39 10
t41 -12t13 -35z" />
    <glyph glyph-name="uni0402" unicode="&#x402;" horiz-adv-x="696" 
d="M339 578l-22 -175q32 11 65 17.5t67 6.5q90 0 139 -46t49 -132q0 -22 -3 -44l-10 -75q-10 -76 -43.5 -109t-102.5 -33q-10 0 -22 1.5t-24.5 3.5t-23.5 4.5t-18 4.5l9 73q16 -5 37 -9.5t40 -4.5q29 0 43.5 14.5t19.5 52.5l11 87q1 8 1.5 14.5t0.5 13.5q0 57 -31.5 85
t-86.5 28q-30 0 -63 -6.5t-62 -17.5l-40 -332h-86l71 578h-190l10 77h465l-10 -77h-190z" />
    <glyph glyph-name="uni0403" unicode="&#x403;" horiz-adv-x="445" 
d="M194 578l-70 -578h-85l80 655h340l-10 -77h-255zM327 829h89l-97 -119h-70z" />
    <glyph glyph-name="uni0404" unicode="&#x404;" horiz-adv-x="481" 
d="M303 667q33 0 73.5 -6.5t75.5 -17.5l-11 -80q-35 14 -72.5 22t-67.5 8q-54 0 -85.5 -29.5t-39.5 -94.5l-12 -98h231l-10 -76h-230l-12 -101q-1 -9 -1.5 -17.5t-0.5 -16.5q0 -52 24.5 -73t75.5 -21q35 0 71.5 9.5t78.5 28.5l-8 -80q-16 -8 -36 -14.5t-41 -11.5t-41 -7.5
t-37 -2.5q-86 0 -129 41t-43 128q0 23 3 50l31 256q13 106 66.5 155t146.5 49z" />
    <glyph glyph-name="uni0405" unicode="&#x405;" horiz-adv-x="456" 
d="M303 354q56 -23 83.5 -60.5t27.5 -94.5q0 -19 -3 -41l-2 -13q-12 -78 -60.5 -117.5t-139.5 -39.5q-22 0 -46.5 3.5t-48.5 9.5t-46 13.5t-39 15.5l10 85q69 -35 127 -49q15 -2 24.5 -2h18.5q53 0 79.5 21.5t34.5 66.5l2 11q3 16 3 30q0 32 -17 52.5t-53 35.5l-89 36
q-54 21 -81.5 62.5t-27.5 95.5q0 25 6 52l2 9q14 64 62.5 97.5t138.5 33.5q16 0 35.5 -2t39.5 -5t39.5 -7t36.5 -8l-11 -81q-26 8 -53.5 14.5t-55.5 11.5q-11 1 -19 1h-16q-52 0 -79 -19t-33 -56l-2 -12q-1 -6 -1.5 -12t-0.5 -12q0 -63 71 -92z" />
    <glyph glyph-name="uni0406" unicode="&#x406;" horiz-adv-x="235" 
d="M204 655l-80 -655h-85l80 655h85z" />
    <glyph glyph-name="uni0407" unicode="&#x407;" horiz-adv-x="235" 
d="M204 655l-80 -655h-85l80 655h85zM136 752q-2 -21 -14.5 -31.5t-39.5 -10.5q-26 0 -42 13t-13 34l4 28q6 43 55 43q27 0 41.5 -12t12.5 -35zM308 752q-3 -42 -54 -42q-26 0 -42 13t-13 34l4 28q3 23 16 33t39 10t41 -12t13 -35z" />
    <glyph glyph-name="uni0408" unicode="&#x408;" horiz-adv-x="287" 
d="M192 137q-5 -41 -16 -69.5t-28 -46t-41.5 -25.5t-56.5 -8q-10 0 -22.5 1.5t-25.5 3.5t-25 4.5t-19 4.5l9 73q17 -6 38 -10t38 -4q29 0 44 15t20 58l64 521h85z" />
    <glyph glyph-name="uni0409" unicode="&#x409;" horiz-adv-x="845" 
d="M337 667q28 0 70 -6t119 -23l-31 -260q32 5 59.5 7.5t44.5 2.5q52 0 91.5 -15t65 -42t36 -64t4.5 -80l-3 -20q-13 -86 -71 -132.5t-177 -46.5q-19 0 -42 1t-47.5 2.5t-48.5 4l-45 4.5l72 581q-23 7 -50 11t-54 4q-59 0 -94.5 -32t-45.5 -106l-39 -293q-13 -98 -49 -137.5
t-103 -39.5q-11 0 -24 2t-21 4l7 72q17 -5 40 -5q12 0 22 4t18 15t14 29.5t10 48.5l40 299q14 109 70 159.5t162 50.5zM576 317q-17 0 -43.5 -2.5t-46.5 -5.5l-29 -242q26 -5 50.5 -7t39.5 -2q76 0 113.5 30t47.5 90l2 12q1 7 1.5 13.5t0.5 12.5q0 49 -34 75t-102 26z" />
    <glyph glyph-name="uni040A" unicode="&#x40a;" horiz-adv-x="865" 
d="M515 378q32 5 59.5 7.5t44.5 2.5q52 0 91.5 -15t65 -42t36 -64t4.5 -80l-3 -20q-13 -86 -71 -132.5t-177 -46.5q-19 0 -42 1t-47.5 2.5t-48.5 4l-45 4.5l38 300h-260l-36 -300h-85l80 655h85l-35 -279h260l35 279h85zM596 317q-17 0 -43.5 -2.5t-46.5 -5.5l-29 -242
q26 -5 50.5 -7t39.5 -2q76 0 113.5 30t47.5 90l2 12q1 7 1.5 13.5t0.5 12.5q0 49 -34 75t-102 26z" />
    <glyph glyph-name="uni040B" unicode="&#x40b;" horiz-adv-x="689" 
d="M339 578l-21 -176q33 11 66 18t68 7q87 0 133 -45t46 -132q0 -21 -3 -45l-25 -205h-85l26 215q1 9 1.5 17t0.5 16q0 108 -111 108q-30 0 -63.5 -7t-62.5 -18l-40 -331h-85l70 578h-190l10 77h465l-10 -77h-190z" />
    <glyph glyph-name="uni040C" unicode="&#x40c;" horiz-adv-x="531" 
d="M490 0h-103l-42.5 91.5l-37.5 75l-35.5 65.5l-35.5 63h-76l-36 -295h-85l80 655h85l-35 -284h66q38 46 91 117.5l120 166.5h98l-240 -316zM350 829h89l-97 -119h-70z" />
    <glyph glyph-name="uni040E" unicode="&#x40e;" horiz-adv-x="482" 
d="M191 225l-137 430h94l53.5 -189.5t39.5 -158.5q21 35 46.5 82l51 95l48 93.5l37.5 77.5h95l-370 -655h-85zM430 752q-21 -13 -45 -24q-20 -9 -46 -16t-53 -7q-29 0 -54 7t-43 16q-21 11 -39 24l9 78q19 -16 41 -27q19 -10 43.5 -18t50.5 -8t51.5 8t46.5 18q25 11 47 27z
" />
    <glyph glyph-name="uni040F" unicode="&#x40f;" horiz-adv-x="580" 
d="M287 0l-17 -130h-85l17 130h-163l80 655h85l-72 -578h260l72 578h85l-80 -655h-182z" />
    <glyph glyph-name="uni0410" unicode="&#x410;" horiz-adv-x="532" 
d="M392 0l-10.5 76l-11.5 76h-239l-31 -76l-33 -76h-90l280 655h105l121 -655h-91zM299 576l-67 -174.5l-69 -173.5h195l-28.5 174.5z" />
    <glyph glyph-name="uni0411" unicode="&#x411;" horiz-adv-x="523" 
d="M196 578l-24 -200q32 5 59.5 7.5t44.5 2.5q52 0 91.5 -15t65 -42t36 -64t4.5 -80l-3 -20q-13 -86 -71 -132.5t-177 -46.5q-19 0 -42 1t-47.5 2.5t-48.5 4l-45 4.5l82 655h340l-10 -77h-255zM253 317q-17 0 -43.5 -2.5t-46.5 -5.5l-29 -242q26 -5 50.5 -7t39.5 -2
q76 0 113.5 30t47.5 90l2 12q1 7 1.5 13.5t0.5 12.5q0 49 -34 75t-102 26z" />
    <glyph glyph-name="uni0412" unicode="&#x412;" horiz-adv-x="528" 
d="M120 662q16 1 36.5 1.5t42 1.5t43.5 1.5t42 0.5q55 0 95.5 -12.5t66.5 -34.5t37.5 -52t8.5 -65l-1 -11q-5 -57 -33.5 -95.5t-84.5 -56.5q48 -13 77.5 -49.5t29.5 -88.5q0 -6 -0.5 -12t-1.5 -12l-2 -15q-11 -83 -70 -129t-174 -46q-21 0 -41 0.5t-42.5 1.5t-49.5 2.5
t-61 4.5zM271 367q60 0 93.5 30t39.5 83l1 9q6 53 -24.5 79t-107.5 26q-34 0 -77 -3l-28 -224h103zM131 68q38 -4 58.5 -5t40.5 -1q80 0 117.5 28.5t45.5 82.5l2 13q1 5 1.5 10t0.5 10q0 44 -33 68t-101 24h-104z" />
    <glyph glyph-name="uni0413" unicode="&#x413;" horiz-adv-x="445" 
d="M194 578l-70 -578h-85l80 655h340l-10 -77h-255z" />
    <glyph glyph-name="uni0414" unicode="&#x414;" horiz-adv-x="573" 
d="M121 662q32 2 76.5 3.5t93.5 1.5q113 0 171.5 -59t58.5 -163q0 -25 -3 -50l-21 -166q-15 -119 -83 -180t-198 -61q-50 0 -90.5 2t-86.5 7zM132 68q29 -4 51 -5.5t41 -1.5q77 0 127.5 43t60.5 123l22 175q3 21 3 40q0 77 -40 115t-112 38q-15 0 -41.5 -0.5t-46.5 -1.5z
" />
    <glyph glyph-name="uni0415" unicode="&#x415;" horiz-adv-x="485" 
d="M464 655l-10 -77h-260l-25 -207h240l-10 -76h-240l-27 -218h260l-8 -77h-345l80 655h345z" />
    <glyph glyph-name="uni0416" unicode="&#x416;" horiz-adv-x="797" 
d="M736 0h-98q-26 83 -53 155.5t-55 139.5h-89l-36 -295h-85l36 295h-91l-45.5 -75l-47 -77.5l-46.5 -75l-42 -67.5h-95l213 339l-124 316h89q27 -66 53.5 -138l51.5 -146h93l35 284h85l-35 -284h87l95 148.5t81 135.5h94l-200 -318z" />
    <glyph glyph-name="uni0417" unicode="&#x417;" horiz-adv-x="473" 
d="M231 667q112 0 161 -46.5t38 -127.5l-3 -22q-3 -22 -12.5 -43t-25 -39t-36.5 -31.5t-46 -20.5q53 -16 80 -58t22 -104l-2 -22q-3 -35 -18 -65t-42 -52t-66 -35t-89 -13q-40 0 -88.5 11.5t-91.5 30.5l12 78q47 -21 91.5 -32.5t80.5 -11.5q59 0 88.5 24.5t37.5 78.5l2 19
q6 55 -26.5 84t-104.5 29h-79l9 70h79q64 0 98.5 29.5t41.5 79.5l2 15q6 47 -23.5 73.5t-96.5 26.5q-15 0 -34 -2t-38 -5t-37 -7.5t-33 -9.5l7 78q35 8 72.5 14t69.5 6z" />
    <glyph glyph-name="uni0418" unicode="&#x418;" horiz-adv-x="580" 
d="M384 0l61 496l-321 -496h-85l80 655h85l-61 -495l163 244.5t153 250.5h90l-80 -655h-85z" />
    <glyph glyph-name="uni0419" unicode="&#x419;" horiz-adv-x="580" 
d="M384 0l61 496l-321 -496h-85l80 655h85l-61 -495l163 244.5t153 250.5h90l-80 -655h-85zM485 752q-21 -13 -45 -24q-20 -9 -46 -16t-53 -7q-29 0 -54 7t-43 16q-21 11 -39 24l9 78q19 -16 41 -27q19 -10 43.5 -18t50.5 -8t51.5 8t46.5 18q25 11 47 27z" />
    <glyph glyph-name="uni041A" unicode="&#x41a;" horiz-adv-x="531" 
d="M490 0h-103l-42.5 91.5l-37.5 75l-35.5 65.5l-35.5 63h-76l-36 -295h-85l80 655h85l-35 -284h66q38 46 91 117.5l120 166.5h98l-240 -316z" />
    <glyph glyph-name="uni041B" unicode="&#x41b;" horiz-adv-x="559" 
d="M337 667q43 0 93.5 -8.5t94.5 -19.5l-77 -639h-85l71 581q-23 7 -50 11t-54 4q-59 0 -94.5 -32t-45.5 -106l-39 -293q-13 -98 -49 -137.5t-103 -39.5q-11 0 -24 2t-21 4l7 72q17 -5 40 -5q12 0 22 4t18 15t14 29.5t10 48.5l40 299q14 109 70 159.5t162 50.5z" />
    <glyph glyph-name="uni041C" unicode="&#x41c;" horiz-adv-x="699" 
d="M509 0l59 535l-197 -467h-104l-80 465l-69 -533h-84l86 655h121q26 -128 47.5 -254t36.5 -255q60 131 111 257l98 252h133l-74 -655h-84z" />
    <glyph glyph-name="uni041D" unicode="&#x41d;" horiz-adv-x="580" 
d="M160 300l-36 -300h-85l80 655h85l-35 -279h260l35 279h85l-80 -655h-85l36 300h-260z" />
    <glyph glyph-name="uni041E" unicode="&#x41e;" horiz-adv-x="576" 
d="M327 667q106 0 158.5 -58t39.5 -162l-31 -249q-13 -105 -71 -157.5t-167 -52.5t-160 57.5t-38 162.5l31 249q14 109 70.5 159.5t167.5 50.5zM321 592q-132 0 -147 -127l-32 -268q-1 -7 -1.5 -13.5t-0.5 -12.5q0 -54 31.5 -81t89.5 -27q131 0 147 128l33 267q1 7 1.5 14
t0.5 13q0 107 -122 107z" />
    <glyph glyph-name="uni041F" unicode="&#x41f;" horiz-adv-x="580" 
d="M384 0l70 578h-260l-70 -578h-85l80 655h430l-80 -655h-85z" />
    <glyph glyph-name="uni0420" unicode="&#x420;" horiz-adv-x="510" 
d="M282 667q118 0 174.5 -54t42.5 -148l-2 -14q-13 -89 -72.5 -136.5t-165.5 -47.5q-14 0 -40.5 3t-61.5 10l-33 -280h-85l81 662q13 1 34 1.5t44 1.5t45 1.5t39 0.5zM279 596q-29 0 -48 -0.5t-35 -1.5l-31 -247q29 -5 51.5 -7.5t40.5 -2.5q70 0 107 29t48 90l2 11q2 7 2 14
v13q0 48 -34 75t-103 27z" />
    <glyph glyph-name="uni0421" unicode="&#x421;" horiz-adv-x="476" 
d="M303 667q33 0 73.5 -6.5t75.5 -17.5l-11 -80q-35 14 -72.5 22t-67.5 8q-54 0 -85.5 -29.5t-39.5 -94.5l-33 -275q-1 -9 -1.5 -17.5t-0.5 -16.5q0 -52 24.5 -73t75.5 -21q35 0 71.5 9.5t78.5 28.5l-8 -80q-16 -8 -36 -14.5t-41 -11.5t-41 -7.5t-37 -2.5q-86 0 -129 41
t-43 128q0 23 3 50l31 256q13 106 66 155t147 49z" />
    <glyph glyph-name="uni0422" unicode="&#x422;" horiz-adv-x="525" 
d="M539 655l-10 -77h-190l-70 -578h-85l70 578h-190l10 77h465z" />
    <glyph glyph-name="uni0423" unicode="&#x423;" horiz-adv-x="482" 
d="M191 225l-137 430h94l53.5 -189.5t39.5 -158.5q21 35 46.5 82l51 95l48 93.5l37.5 77.5h95l-370 -655h-85z" />
    <glyph glyph-name="uni0424" unicode="&#x424;" horiz-adv-x="767" 
d="M463 636q24 3 48 3q97 0 147.5 -43.5t50.5 -147.5q0 -15 -1 -31.5t-3 -34.5l-15 -125q-8 -69 -26 -115.5t-47.5 -74.5t-71.5 -40t-99 -12q-14 0 -28.5 1t-29.5 3l-7 -61h-85l7 60q-12 -2 -23.5 -2h-23.5q-97 0 -144 43t-47 145q0 16 1 33t3 36l15 125q8 67 25 113
t45.5 74.5t70 41t98.5 12.5q13 0 27 -1t28 -3l8 60h85zM315 569q-35 0 -59.5 -7t-41.5 -25t-27.5 -49t-16.5 -79l-18 -147q-2 -14 -3 -27t-1 -24q0 -68 29.5 -96.5t87.5 -28.5q12 0 23.5 0.5t23.5 1.5l58 477q-14 2 -27.5 3t-27.5 1zM503 568q-26 0 -48 -3l-58 -476
q28 -3 58 -3q36 0 61 7t42.5 25t28 49t16.5 79l19 147q2 14 3 27t1 24q0 69 -31.5 96.5t-91.5 27.5z" />
    <glyph glyph-name="uni0425" unicode="&#x425;" horiz-adv-x="519" 
d="M470 0h-100q-26 69 -53 132l-61 136l-89 -134l-91 -134h-99l233 341l-141 314h96l53 -125l52 -125l89 126.5l80 123.5h100l-220 -320z" />
    <glyph glyph-name="uni0426" unicode="&#x426;" horiz-adv-x="580" 
d="M537 77l-25 -207h-85l17 130h-405l80 655h85l-72 -578h260l72 578h85l-72 -578h60z" />
    <glyph glyph-name="uni0427" unicode="&#x427;" horiz-adv-x="566" 
d="M370 0l30 248q-35 -9 -66.5 -14.5t-60.5 -5.5q-103 0 -153.5 53t-37.5 158l27 216h85l-27 -218q-1 -7 -1.5 -14t-0.5 -13q0 -111 126 -111q61 0 118 19l41 337h85l-80 -655h-85z" />
    <glyph glyph-name="uni0428" unicode="&#x428;" horiz-adv-x="755" 
d="M39 0l80 655h85l-72 -578h175l72 578h85l-72 -578h175l72 578h85l-80 -655h-605z" />
    <glyph glyph-name="uni0429" unicode="&#x429;" horiz-adv-x="755" 
d="M712 77l-25 -207h-85l17 130h-580l80 655h85l-72 -578h175l72 578h85l-72 -578h175l72 578h85l-72 -578h60z" />
    <glyph glyph-name="uni042A" unicode="&#x42a;" horiz-adv-x="645" 
d="M295 378q32 5 59.5 7.5t44.5 2.5q52 0 91.5 -15t65 -42t36 -64t4.5 -80l-3 -20q-13 -86 -71 -132.5t-177 -46.5q-19 0 -42 1t-47.5 2.5t-48.5 4l-45 4.5l72 575h-180l11 80h264zM376 317q-17 0 -43.5 -2.5t-46.5 -5.5l-29 -242q26 -5 50.5 -7t39.5 -2q76 0 113.5 30
t47.5 90l2 12q1 7 1.5 13.5t0.5 12.5q0 49 -34 75t-102 26z" />
    <glyph glyph-name="uni042B" unicode="&#x42b;" horiz-adv-x="716" 
d="M172 378q32 5 59.5 7.5t44.5 2.5q52 0 91.5 -15t65 -42t36 -64t4.5 -80l-3 -20q-13 -86 -71 -132.5t-177 -46.5q-19 0 -42 1t-47.5 2.5t-48.5 4l-45 4.5l82 655h85zM520 0l80 655h85l-80 -655h-85zM253 317q-17 0 -43.5 -2.5t-46.5 -5.5l-29 -242q26 -5 50.5 -7t39.5 -2
q76 0 113.5 30t47.5 90l2 12q1 7 1.5 13.5t0.5 12.5q0 49 -34 75t-102 26z" />
    <glyph glyph-name="uni042C" unicode="&#x42c;" horiz-adv-x="522" 
d="M172 378q32 5 59.5 7.5t44.5 2.5q52 0 91.5 -15t65 -42t36 -64t4.5 -80l-3 -20q-13 -86 -71 -132.5t-177 -46.5q-19 0 -42 1t-47.5 2.5t-48.5 4l-45 4.5l82 655h85zM253 317q-17 0 -43.5 -2.5t-46.5 -5.5l-29 -242q26 -5 50.5 -7t39.5 -2q76 0 113.5 30t47.5 90l2 12
q1 7 1.5 13.5t0.5 12.5q0 49 -34 75t-102 26z" />
    <glyph glyph-name="uni042D" unicode="&#x42d;" horiz-adv-x="487" 
d="M249 667q189 0 189 -168q0 -22 -3 -46l-36 -280q-13 -98 -59.5 -141.5t-137.5 -43.5q-35 0 -83 11t-88 31l12 75q34 -18 79.5 -31t82.5 -13q46 0 74 25.5t35 82.5l15 126h-237l10 76h236l12 100q1 8 1.5 15.5t0.5 14.5q0 51 -26.5 72.5t-80.5 21.5q-35 0 -74.5 -9
t-70.5 -21l8 80q34 10 70.5 16t70.5 6z" />
    <glyph glyph-name="uni042E" unicode="&#x42e;" horiz-adv-x="771" 
d="M535 667q100 0 149 -57t36 -163l-31 -249q-13 -106 -66.5 -158t-153.5 -52q-94 0 -141 47t-47 131q0 19 3 42l11 90h-136l-35 -298h-85l80 655h85l-35 -281h135l11 83q14 109 66.5 159.5t153.5 50.5zM531 594q-56 0 -89.5 -31.5t-41.5 -97.5l-32 -268q-1 -8 -1.5 -14
t-0.5 -13q0 -53 28 -80t79 -27q58 0 90 30.5t40 97.5l33 267q1 8 1.5 14.5t0.5 13.5q0 55 -28.5 81.5t-78.5 26.5z" />
    <glyph glyph-name="uni042F" unicode="&#x42f;" horiz-adv-x="534" 
d="M317 667q35 0 77.5 -2t108.5 -8l-80 -657h-85l33 285q-27 -5 -48 -6.5t-43 -1.5q-11 0 -21 0.5t-20 1.5q-52 -86 -88 -152.5t-65 -126.5h-97l175 301q-52 25 -76.5 71t-18.5 106l1 10q4 39 20.5 72t46.5 57t75 37t105 13zM307 596q-70 0 -106.5 -27t-45.5 -82l-1 -6
q-1 -6 -1.5 -11.5t-0.5 -11.5q0 -50 35.5 -81t101.5 -31q23 0 46 2.5t45 7.5l30 234q-18 2 -31 3t-24.5 2t-22.5 1h-25z" />
    <glyph glyph-name="uni0430" unicode="&#x430;" horiz-adv-x="476" 
d="M227 500q35 0 66 -16.5t55 -45.5l6 50h80l-68 -488h-81l9 65l41 125l-2 2l-3 -1q-36 -108 -83 -155.5t-101 -47.5q-48 0 -79.5 33t-31.5 97q0 11 1 22.5t3 23.5l26 163q14 88 58 130.5t104 42.5zM238 427q-33 0 -56 -24.5t-32 -80.5l-24 -147q-2 -14 -3.5 -26t-1.5 -22
q0 -35 13 -49t36 -14q30 0 54.5 21t43.5 53t32.5 70t20.5 72l13 93q-20 25 -45 39.5t-51 14.5z" />
    <glyph glyph-name="uni0431" unicode="&#x431;" horiz-adv-x="480" 
d="M427 628q-66 2 -110.5 -5t-72.5 -23t-41.5 -41.5t-18.5 -59.5l-2 -14l-58 -232l2 -2l3 2q35 118 79.5 177t106.5 59q51 0 82 -33.5t31 -101.5q0 -15 -1.5 -32t-5.5 -36l-22 -109q-11 -51 -26.5 -87t-38 -58.5t-52.5 -33t-69 -10.5q-80 0 -120.5 40t-40.5 113q0 21 3 44
l42 294q8 55 26.5 96t56 68t99 40.5t155.5 13.5zM295 413q-26 0 -51 -23.5t-46 -62t-37 -87.5t-23 -100q-1 -38 19.5 -59.5t55.5 -21.5q38 0 62 23t36 80l25 119q7 32 7 58q0 39 -14 56.5t-34 17.5z" />
    <glyph glyph-name="uni0432" unicode="&#x432;" horiz-adv-x="473" 
d="M268 695q75 0 111.5 -44t28.5 -111l-2 -16q-5 -35 -27 -65t-62 -45q42 -8 68.5 -44t26.5 -96v-17t-2 -18l-10 -75q-24 -176 -189 -176q-79 0 -119 39.5t-40 115.5q0 11 1 23.5t3 25.5l48 341q11 83 49.5 122.5t114.5 39.5zM265 625q-32 0 -50 -18.5t-24 -60.5l-27 -191
q17 22 35 35t34.5 21.5t31.5 15.5t27.5 18t21 28t12.5 47l2 15q1 5 1 8.5v7.5q0 35 -18 54.5t-46 19.5zM273 364q-26 0 -57 -20t-63 -65l-17 -126q-1 -5 -1 -9.5v-9.5q0 -35 20.5 -55t60.5 -20q42 0 66 22.5t32 73.5l11 78q2 14 3 25.5t1 22.5q0 46 -15.5 64.5t-40.5 18.5z
" />
    <glyph glyph-name="uni0433" unicode="&#x433;" horiz-adv-x="390" 
d="M217 500q76 0 111.5 -28.5t35.5 -78.5q0 -6 -0.5 -12.5t-1.5 -13.5l-2 -13q-6 -38 -27 -64.5t-75 -49.5l-105 -45q-32 -14 -44 -29t-14 -33l-1 -9q-3 -27 16.5 -43.5t68.5 -16.5q30 0 61.5 7t68.5 21l-13 -82q-37 -11 -68 -16.5t-57 -5.5q-84 0 -123 32.5t-39 88.5
q0 14 3 31l2 12q6 35 31.5 63t76.5 50l103 44q29 13 39.5 25.5t12.5 29.5l1 7q4 27 -12 42t-58 15q-24 0 -60.5 -6.5t-66.5 -14.5l8 79q32 6 66.5 10t61.5 4z" />
    <glyph glyph-name="uni0434" unicode="&#x434;" horiz-adv-x="468" 
d="M172 694q127 -47 183.5 -119.5t56.5 -173.5q0 -19 -2 -38.5t-5 -39.5l-22 -136q-16 -96 -58 -147.5t-114 -51.5q-85 0 -128 42t-43 113q0 18 3 38l18 120q14 94 54.5 137.5t92.5 43.5q39 0 74.5 -41.5t47.5 -125.5l5 37q2 15 3 29t1 27q0 42 -10.5 74.5t-33 58.5t-58 47
t-85.5 39zM223 409q-27 0 -48 -26.5t-31 -92.5l-19 -131q-1 -5 -1 -9.5v-9.5q0 -38 22.5 -59.5t60.5 -21.5q36 0 60.5 32t33.5 86l4 25q2 100 -20 153.5t-62 53.5z" />
    <glyph glyph-name="uni0435" unicode="&#x435;" horiz-adv-x="436" 
d="M263 500q68 0 105.5 -34.5t36.5 -91.5q0 -36 -15.5 -70t-49 -61t-86 -45.5t-127.5 -24.5l-1 -11q-3 -17 -3 -30q0 -71 75 -71q32 0 70 11t72 28l-15 -77q-34 -16 -72.5 -25.5t-68.5 -9.5q-144 0 -144 145q0 13 1.5 27t3.5 30l12 78q17 117 73 174.5t133 57.5zM260 429
q-38 0 -71.5 -38.5t-45.5 -118.5l-7 -45q66 10 108 27q41 28 59 55t18 58q0 29 -16.5 45.5t-44.5 16.5z" />
    <glyph glyph-name="uni0436" unicode="&#x436;" horiz-adv-x="613" 
d="M392 683q-1 -38 -4.5 -91t-14.5 -128l-24 -169h54q38 51 70 99t59 94h89l-152 -220l94 -268h-88l-35 113.5t-40 113.5h-60l-32 -227h-83l31 227h-56q-30 -54 -64.5 -110.5t-75.5 -116.5h-90l169 268l-91 220h87l36.5 -96l36.5 -97h58l23 163q10 70 13 122.5t5 102.5h85z
" />
    <glyph glyph-name="uni0437" unicode="&#x437;" horiz-adv-x="382" 
d="M191 500q72 0 109.5 -34t37.5 -94q0 -22 -4 -41l-6 -32q-7 -44 -38 -78.5t-79 -47.5q41 -13 65 -47.5t24 -88.5q0 -18 -3 -37l-7 -46q-12 -78 -51.5 -114.5t-126.5 -36.5q-14 0 -32.5 2t-39 5.5t-40.5 8.5t-35 10l10 76q14 -6 31.5 -11.5t36.5 -9t37 -6t33 -2.5
q45 0 66 19t28 67l7 49q3 18 3 34q0 48 -23 70t-65 22h-71l10 70h72q43 0 71.5 22.5t36.5 72.5l4 23q3 15 3 28q0 39 -21 58.5t-59 19.5q-29 0 -61 -6.5t-61 -16.5l7 74q29 8 64 13t67 5z" />
    <glyph glyph-name="uni0438" unicode="&#x438;" horiz-adv-x="486" 
d="M296 0l4 28l46 162l-2 2l-3 -1q-36 -108 -83 -155.5t-101 -47.5q-51 0 -80.5 33t-29.5 98q0 11 1 22t3 24l47 323h85l-46 -313q-2 -14 -3 -25.5t-1 -21.5q0 -36 12.5 -50t35.5 -14q36 0 63 28t45.5 68.5t30 86t16.5 79.5l23 162h86l-69 -488h-80z" />
    <glyph glyph-name="uni0439" unicode="&#x439;" horiz-adv-x="486" 
d="M412 602q-16 -17 -36 -29q-18 -11 -43.5 -19.5t-58.5 -8.5q-32 0 -55 9.5t-38 20.5q-18 13 -29 31l12 79q13 -19 31 -33q15 -12 37.5 -22t52.5 -10q29 0 54.5 10t44.5 22q22 14 40 33zM296 0l4 28l46 162l-2 2l-3 -1q-36 -108 -83 -155.5t-101 -47.5q-51 0 -80.5 33
t-29.5 98q0 11 1 22t3 24l47 323h85l-46 -313q-2 -14 -3 -25.5t-1 -21.5q0 -36 12.5 -50t35.5 -14q36 0 63 28t45.5 68.5t30 86t16.5 79.5l23 162h86l-69 -488h-80z" />
    <glyph glyph-name="uni043A" unicode="&#x43a;" horiz-adv-x="437" 
d="M199 683q-1 -38 -4.5 -91t-14.5 -128l-24 -169h50l36.5 49.5l40 54.5l36 51l25.5 38h94l-167 -224l111 -264h-98q-23 68 -43.5 123t-41.5 104h-52l-32 -227h-85l64 458q10 70 14 122.5t6 102.5h85z" />
    <glyph glyph-name="uni043B" unicode="&#x43b;" horiz-adv-x="476" 
d="M283 500q37 0 78 -4.5t73 -10.5l-68 -485h-85l59 423q-35 6 -68 6q-49 0 -77.5 -29t-38.5 -102l-20 -139q-7 -51 -17.5 -84t-27 -52.5t-39.5 -27t-54 -7.5q-9 0 -23 2t-22 4l10 71q8 -2 20 -3.5t18 -1.5q11 0 19 3t14 13t11 30t10 54l19 128q9 59 25 99.5t41.5 65.5
t60.5 36t82 11z" />
    <glyph glyph-name="uni043C" unicode="&#x43c;" horiz-adv-x="585" 
d="M397 0l41 324l-129 -256h-85l-67 256l-49 -324h-83l73 488h93q23 -84 43 -171t37 -171l2 -2l3 2q46 83 84.5 170l74.5 172h108l-63 -488h-83z" />
    <glyph glyph-name="uni043D" unicode="&#x43d;" horiz-adv-x="486" 
d="M291 0l30 215h-176l-30 -215h-85l68 488h85l-28 -203h176l28 203h85l-68 -488h-85z" />
    <glyph glyph-name="uni043E" unicode="&#x43e;" horiz-adv-x="472" 
d="M397 176q-12 -91 -60 -139.5t-132 -48.5q-82 0 -123.5 39.5t-41.5 108.5q0 16 3 36l20 144q12 89 62 136.5t131 47.5t122 -40t41 -108q0 -18 -3 -37zM332 322q1 6 1.5 12t0.5 11q0 41 -22 62.5t-60 21.5q-42 0 -68 -24t-34 -78l-23 -162q-1 -6 -1.5 -11.5t-0.5 -10.5
q0 -41 22.5 -62.5t60.5 -21.5q44 0 69 24.5t32 77.5z" />
    <glyph glyph-name="uni043F" unicode="&#x43f;" horiz-adv-x="485" 
d="M327 500q49 0 75.5 -27.5t26.5 -93.5q0 -14 -1 -29.5t-4 -33.5l-48 -316h-85l50 318q2 14 3 25t1 21q0 32 -11 44.5t-30 12.5q-26 0 -53.5 -26.5t-52.5 -77t-46 -123t-33 -164.5l-4 -30h-85l68 488h80l-11 -79l-45 -169l3 -2l3 2q35 130 87 195t112 65z" />
    <glyph glyph-name="uni0440" unicode="&#x440;" horiz-adv-x="477" 
d="M316 500q51 0 82 -34t31 -103q0 -15 -2 -31.5t-5 -34.5l-28 -149q-30 -160 -157 -160q-30 0 -62 13.5t-56 36.5q-11 -63 -23 -120.5t-24 -102.5h-84q14 56 28.5 130t25.5 152l56 391h80l-8 -58l-46 -176l2 -2l3 2q35 120 80 183t107 63zM296 424q-26 0 -51.5 -25
t-47.5 -65.5t-39 -92.5t-25 -107l-5 -35q20 -17 44 -26.5t44 -9.5q37 0 60.5 22.5t34.5 74.5l26 132q6 33 6 57q0 40 -13.5 57.5t-33.5 17.5z" />
    <glyph glyph-name="uni0441" unicode="&#x441;" horiz-adv-x="393" 
d="M186 -12q-70 0 -108 37t-38 107q0 20 3 41l21 148q14 94 60 136.5t124 42.5q26 0 53 -4t61 -14l-12 -76q-59 22 -103 22q-39 0 -64 -24.5t-33 -75.5l-21 -154q-2 -9 -2 -16.5v-15.5q0 -44 19 -61.5t52 -17.5q28 0 58.5 8t59.5 25l-9 -77q-32 -15 -63.5 -23t-57.5 -8z" />
    <glyph glyph-name="uni0442" unicode="&#x442;" horiz-adv-x="736" 
d="M578 500q49 0 75.5 -27.5t26.5 -93.5q0 -14 -1 -29.5t-4 -33.5l-48 -316h-85l49 313l3.5 29.5t1.5 23.5q0 32 -10.5 43.5t-29.5 11.5q-25 0 -51.5 -26.5t-51 -76t-44.5 -119.5t-32 -156l-6 -43h-85l49 313l3.5 29.5t1.5 23.5q0 32 -10.5 43.5t-29.5 11.5
q-25 0 -51.5 -26.5t-51 -76t-44.5 -119.5t-32 -156l-6 -43h-85l68 488h80l-11 -79l-45 -169l3 -2l3 2q35 130 86 195t108 65q46 0 72 -25.5t28 -82.5l-44 -152l3 -2l3 2q35 130 86 195t108 65z" />
    <glyph glyph-name="uni0443" unicode="&#x443;" horiz-adv-x="486" 
d="M371 -36q-12 -86 -55 -123.5t-130 -37.5q-31 0 -70.5 6t-72.5 16l10 75q33 -11 70 -17.5t66 -6.5q48 0 69 20t27 61l11 71l50 162l-2 2l-3 -1q-36 -108 -83 -155.5t-101 -47.5q-51 0 -80.5 33t-29.5 98q0 11 1 22t3 24l47 323h85l-46 -313q-2 -14 -3 -25.5t-1 -21.5
q0 -36 12.5 -50t35.5 -14q36 0 63 28t45.5 68.5t30 86t16.5 79.5l23 162h86z" />
    <glyph glyph-name="uni0444" unicode="&#x444;" horiz-adv-x="671" 
d="M357 295l2 -2l2 1q32 98 73 152t92 54q45 0 70.5 -30.5t25.5 -93.5q0 -17 -2 -36t-6 -40l-29 -155q-16 -84 -49.5 -120.5t-87.5 -36.5q-29 0 -57 13t-51 35l-31 -221h-85l31 213l36 121l-2 2l-3 -1q-32 -86 -71 -124t-87 -38q-43 0 -68 31.5t-25 90.5q0 12 1.5 26t3.5 28
l28 167q15 88 50 128.5t89 40.5q32 0 59 -17t47 -40l34 240h85l-36 -253zM224 424q-27 0 -44.5 -21t-27.5 -80l-25 -148l-3.5 -28.5t-1.5 -23.5q0 -32 9.5 -45.5t23.5 -13.5q27 0 49 19.5t38.5 49.5t28 66t18.5 69l15 107q-17 23 -38 36t-42 13zM500 424q-23 0 -45.5 -26.5
t-42.5 -70t-35.5 -98t-24.5 -110.5l-3 -21q37 -34 78 -34q27 0 45.5 19.5t29.5 76.5l25 128q10 50 10 81q0 32 -10 43.5t-27 11.5z" />
    <glyph glyph-name="uni0445" unicode="&#x445;" horiz-adv-x="421" 
d="M376 0h-92q-20 53 -39 97t-42 92l-2 2l-3 -2l-68.5 -100.5l-62.5 -88.5h-102l186 252l-108 236h94l37.5 -86l35.5 -87l2 -2l3 2l59.5 85.5l57.5 87.5h101l-174 -236z" />
    <glyph glyph-name="uni0446" unicode="&#x446;" horiz-adv-x="492" 
d="M447 69l-26 -189h-82l16 120h-59l4 28l46 162l-2 2l-3 -1q-36 -108 -83 -155.5t-101 -47.5q-51 0 -80.5 33t-29.5 98q0 11 1 22t3 24l47 323h85l-46 -313q-2 -14 -3 -25.5t-1 -21.5q0 -36 12.5 -50t35.5 -14q36 0 63 28t45.5 68.5t30 86t16.5 79.5l23 162h86l-59 -419h61
z" />
    <glyph glyph-name="uni0447" unicode="&#x447;" horiz-adv-x="470" 
d="M276 0l21 148l50 153l-2 2l-3 -1q-36 -102 -82 -148t-99 -46q-51 0 -80 32.5t-29 98.5q0 22 3 46l27 203h85l-26 -194q-2 -14 -3 -25.5t-1 -21.5q0 -38 12.5 -50.5t35.5 -12.5q29 0 54 21t44.5 56t33.5 81t20 96l6 50h86l-69 -488h-84z" />
    <glyph glyph-name="uni0448" unicode="&#x448;" horiz-adv-x="736" 
d="M546 0l4 28l46 162l-2 2l-3 -1q-36 -108 -81.5 -155.5t-99.5 -47.5q-38 0 -66 21t-35 66l32 115l-2 2l-3 -1q-35 -108 -80 -155.5t-101 -47.5q-50 0 -78.5 32.5t-28.5 96.5q0 25 4 48l47 323h85l-46 -313q-2 -15 -3 -27.5t-1 -23.5q0 -35 11.5 -47.5t33.5 -12.5
q30 0 54.5 22.5t44 58.5t32.5 81t20 91l24 171h85l-46 -313q-2 -15 -3 -27.5t-1 -23.5q0 -35 11.5 -47.5t33.5 -12.5q30 0 54.5 22.5t44 58.5t33 81t19.5 91l24 171h86l-69 -488h-80z" />
    <glyph glyph-name="uni0449" unicode="&#x449;" horiz-adv-x="741" 
d="M696 69l-26 -189h-82l16 120h-59l4 28l46 162l-2 2l-3 -1q-36 -108 -81.5 -155.5t-99.5 -47.5q-38 0 -66 21t-35 66l32 115l-2 2l-3 -1q-35 -108 -80 -155.5t-101 -47.5q-50 0 -78.5 32.5t-28.5 96.5q0 25 4 48l47 323h85l-46 -313q-2 -15 -3 -27.5t-1 -23.5
q0 -35 11.5 -47.5t33.5 -12.5q30 0 54.5 22.5t44 58.5t32.5 81t20 91l24 171h85l-46 -313q-2 -15 -3 -27.5t-1 -23.5q0 -35 11.5 -47.5t33.5 -12.5q30 0 54.5 22.5t44 58.5t33 81t19.5 91l24 171h86l-59 -419h61z" />
    <glyph glyph-name="uni044A" unicode="&#x44a;" 
d="M224 247l2 -2l3 2q30 72 73 109t88 37q53 0 84 -33t31 -102q0 -34 -7 -69l-5 -27q-32 -174 -183 -174q-82 0 -122 41t-40 113q0 19 3 40l32 236h-140l10 70h225l-17 -119zM357 317q-22 0 -41.5 -13.5t-35.5 -36.5t-27.5 -52.5t-16.5 -61.5q-1 -5 -1 -8.5v-7.5
q0 -35 18 -56.5t55 -21.5q38 0 62.5 22.5t35.5 71.5l4 19q4 20 6 36t2 30q0 43 -17 61t-44 18z" />
    <glyph glyph-name="uni044B" unicode="&#x44b;" horiz-adv-x="641" 
d="M129 247l2 -2l3 2q30 72 73 109t88 37q53 0 84 -33t31 -102q0 -34 -7 -69l-5 -27q-32 -174 -183 -174q-82 0 -122 41t-40 113q0 19 3 40l42 306h85l-17 -119zM446 0l68 488h85l-68 -488h-85zM262 317q-22 0 -41.5 -13.5t-35.5 -36.5t-27.5 -52.5t-16.5 -61.5
q-1 -5 -1 -8.5v-7.5q0 -35 18 -56.5t55 -21.5q38 0 62.5 22.5t35.5 71.5l4 19q4 20 6 36t2 30q0 43 -17 61t-44 18z" />
    <glyph glyph-name="uni044C" unicode="&#x44c;" horiz-adv-x="464" 
d="M129 247l2 -2l3 2q30 72 73 109t88 37q53 0 84 -33t31 -102q0 -34 -7 -69l-5 -27q-32 -174 -183 -174q-82 0 -122 41t-40 113q0 19 3 40l42 306h85l-17 -119zM262 317q-22 0 -41.5 -13.5t-35.5 -36.5t-27.5 -52.5t-16.5 -61.5q-1 -5 -1 -8.5v-7.5q0 -35 18 -56.5
t55 -21.5q38 0 62.5 22.5t35.5 71.5l4 19q4 20 6 36t2 30q0 43 -17 61t-44 18z" />
    <glyph glyph-name="uni044D" unicode="&#x44d;" horiz-adv-x="394" 
d="M192 500q66 0 106 -42.5t40 -118.5q0 -19 -3 -40l-20 -152q-11 -80 -49.5 -119.5t-110.5 -39.5q-31 0 -68.5 10t-69.5 27l9 71q34 -17 65.5 -26t61.5 -9q32 0 51.5 20t25.5 66l9 68h-178l10 70h177l4 26q1 8 1.5 15.5t0.5 14.5q0 45 -20.5 65.5t-56.5 20.5
q-49 0 -109 -19l11 76q26 7 58 11.5t55 4.5z" />
    <glyph glyph-name="uni044E" unicode="&#x44e;" horiz-adv-x="644" 
d="M199 683q-1 -38 -4.5 -91t-14.5 -128l-25 -179h93l5 37q13 90 57 134t128 44q75 0 114 -38t39 -107q0 -19 -3 -40l-21 -148q-13 -93 -56.5 -136t-125.5 -43q-76 0 -116 39.5t-40 108.5q0 17 3 37l6 42h-93l-30 -215h-85l64 458q10 70 14 122.5t6 102.5h85zM433 429
q-41 0 -63.5 -24t-30.5 -78l-23 -162q-1 -7 -1.5 -12.5t-0.5 -11.5q0 -41 20.5 -61.5t54.5 -20.5q38 0 61 24t31 78l23 163q1 8 1.5 14.5t0.5 13.5q0 77 -73 77z" />
    <glyph glyph-name="uni044F" unicode="&#x44f;" horiz-adv-x="461" 
d="M351 0h-85l27 194h-75q-35 -46 -67 -95t-61 -99h-100l142 206q-33 15 -54 47.5t-21 77.5v11t1 12l1 8q8 65 53.5 101.5t130.5 36.5h178zM245 430q-48 0 -72 -18t-29 -54l-1 -7q-5 -39 15.5 -62.5t62.5 -23.5h82l22 165h-80z" />
    <glyph glyph-name="uni0451" unicode="&#x451;" horiz-adv-x="436" 
d="M263 500q68 0 105.5 -34.5t36.5 -91.5q0 -36 -15.5 -70t-49 -61t-86 -45.5t-127.5 -24.5l-1 -11q-3 -17 -3 -30q0 -71 75 -71q32 0 70 11t72 28l-15 -77q-34 -16 -72.5 -25.5t-68.5 -9.5q-144 0 -144 145q0 13 1.5 27t3.5 30l12 78q17 117 73 174.5t133 57.5zM260 429
q-38 0 -71.5 -38.5t-45.5 -118.5l-7 -45q66 10 108 27q41 28 59 55t18 58q0 29 -16.5 45.5t-44.5 16.5zM234 619q-3 -21 -16 -31.5t-40 -10.5q-26 0 -41 13t-12 34l4 28q6 43 57 43q27 0 41 -12t11 -35zM406 619q-6 -42 -56 -42q-26 0 -41 13t-12 34l4 28q6 43 57 43
q26 0 40.5 -12t11.5 -35z" />
    <glyph glyph-name="uni0452" unicode="&#x452;" horiz-adv-x="486" 
d="M204 683q-1 -15 -1 -30t-1 -30h125l-10 -70h-120q-1 -9 -2 -19t-3 -20l-4 -29l-61 -245l3 -2l3 2q35 130 87 195t112 65q49 0 75.5 -27.5t26.5 -93.5q0 -14 -1 -29.5t-4 -33.5l-55 -367q-11 -77 -46 -111.5t-104 -34.5q-20 0 -43.5 3.5t-37.5 8.5l10 73q12 -5 32.5 -8.5
t39.5 -3.5q29 0 43 12.5t20 52.5l58 377q2 14 3 25t1 21q0 33 -10.5 45t-30.5 12q-26 0 -53.5 -28t-52.5 -76t-44.5 -113t-29.5 -139l-9 -65h-85l64 458q4 26 6.5 49.5t4.5 45.5h-68l10 70h64q2 15 2 30t1 30h85z" />
    <glyph glyph-name="uni0453" unicode="&#x453;" horiz-adv-x="390" 
d="M217 500q76 0 111.5 -28.5t35.5 -78.5q0 -6 -0.5 -12.5t-1.5 -13.5l-2 -13q-6 -38 -27 -64.5t-75 -49.5l-105 -45q-32 -14 -44 -29t-14 -33l-1 -9q-3 -27 16.5 -43.5t68.5 -16.5q30 0 61.5 7t68.5 21l-13 -82q-37 -11 -68 -16.5t-57 -5.5q-84 0 -123 32.5t-39 88.5
q0 14 3 31l2 12q6 35 31.5 63t76.5 50l103 44q29 13 39.5 25.5t12.5 29.5l1 7q4 27 -12 42t-58 15q-24 0 -60.5 -6.5t-66.5 -14.5l8 79q32 6 66.5 10t61.5 4zM266 685h90l-109 -139h-71z" />
    <glyph glyph-name="uni0454" unicode="&#x454;" horiz-adv-x="398" 
d="M248 500q26 0 53 -4t61 -14l-12 -76q-59 22 -103 22q-39 0 -64 -24.5t-33 -75.5l-6 -43h178l-10 -70h-178l-5 -41q-2 -9 -2 -16.5v-15.5q0 -44 19 -61.5t52 -17.5q28 0 58.5 8t59.5 25l-9 -77q-32 -15 -63.5 -23t-57.5 -8q-70 0 -108 37t-38 107q0 20 3 41l21 148
q14 94 60 136.5t124 42.5z" />
    <glyph glyph-name="uni0455" unicode="&#x455;" horiz-adv-x="385" 
d="M216 500q24 0 57 -5.5t65 -14.5l-12 -77q-20 8 -42 15t-39 11q-8 1 -18.5 1.5t-17.5 0.5q-35 0 -53 -13.5t-22 -37.5l-1 -6q-1 -4 -1 -11q0 -18 10.5 -33.5t30.5 -24.5l82 -38q42 -20 62.5 -55t15.5 -80l-2 -16q-7 -57 -47 -92.5t-114 -35.5q-36 0 -77 10.5t-73 27.5
l13 77q20 -11 48 -22.5t48 -17.5q24 -3 39 -3q71 0 81 64l1 6q1 4 1 11q0 17 -10 33t-29 25l-80 37q-42 20 -62 50t-20 67v13t2 13l3 16q9 49 47 77t114 28z" />
    <glyph glyph-name="uni0456" unicode="&#x456;" horiz-adv-x="225" 
d="M212 617q-6 -42 -58 -42q-26 0 -41 12.5t-12 35.5l4 29q6 43 58 43q27 0 41.5 -13t11.5 -36zM183 488l-68 -488h-85l68 488h85z" />
    <glyph glyph-name="uni0457" unicode="&#x457;" horiz-adv-x="225" 
d="M183 488l-68 -488h-85l68 488h85zM123 619q-3 -21 -16 -31.5t-40 -10.5q-26 0 -41 13t-12 34l4 28q6 43 57 43q27 0 41 -12t11 -35zM295 619q-6 -42 -56 -42q-26 0 -41 13t-12 34l4 28q6 43 57 43q26 0 40.5 -12t11.5 -35z" />
    <glyph glyph-name="uni0458" unicode="&#x458;" horiz-adv-x="225" 
d="M206 617q-6 -42 -58 -42q-26 0 -41 12.5t-12 35.5l4 29q6 43 58 43q27 0 41.5 -13t11.5 -36zM107 -51q-11 -77 -46 -111.5t-104 -34.5q-20 0 -43.5 3.5t-37.5 8.5l10 73q12 -5 32.5 -8.5t39.5 -3.5q28 0 43 12.5t20 52.5l77 547h85z" />
    <glyph glyph-name="uni0459" unicode="&#x459;" horiz-adv-x="714" 
d="M283 500q36 0 76 -3.5t73 -8.5l-17 -119l-37 -122l2 -2l3 2q30 72 73 109t88 37q53 0 84 -33t31 -102q0 -34 -7 -69l-5 -27q-32 -174 -183 -174q-82 0 -122 41t-40 113q0 19 3 40l33 241q-33 6 -66 6q-49 0 -77.5 -29t-38.5 -102l-20 -139q-7 -51 -17.5 -84t-27 -52.5
t-39.5 -27t-54 -7.5q-9 0 -23 2t-22 4l10 71q8 -2 20 -3.5t18 -1.5q11 0 19 3t14 13t11 30t10 54l19 128q9 59 25 99.5t41.5 65.5t60.5 36t82 11zM511 317q-22 0 -41.5 -13.5t-35.5 -36.5t-27.5 -52.5t-16.5 -61.5q-1 -5 -1 -8.5v-7.5q0 -35 18 -56.5t55 -21.5
q38 0 62.5 22.5t35.5 71.5l4 19q4 20 6 36t2 30q0 43 -17 61t-44 18z" />
    <glyph glyph-name="uni045A" unicode="&#x45a;" horiz-adv-x="716" 
d="M380 247l2 -2l3 2q30 72 73 109t88 37q53 0 84 -33t31 -102q0 -34 -7 -69l-5 -27q-32 -174 -183 -174q-82 0 -122 41t-40 113q0 19 3 40l4 33h-166l-30 -215h-85l68 488h85l-28 -203h166l28 203h85l-17 -119zM513 317q-22 0 -41.5 -13.5t-35.5 -36.5t-27.5 -52.5
t-16.5 -61.5q-1 -5 -1 -8.5v-7.5q0 -35 18 -56.5t55 -21.5q38 0 62.5 22.5t35.5 71.5l4 19q4 20 6 36t2 30q0 43 -17 61t-44 18z" />
    <glyph glyph-name="uni045B" unicode="&#x45b;" horiz-adv-x="486" 
d="M204 683q-1 -15 -1 -30t-1 -30h125l-10 -70h-120q-2 -10 -2.5 -19.5t-2.5 -19.5l-4 -29l-61 -245l3 -2l3 2q35 130 87 195t112 65q49 0 75.5 -27.5t26.5 -93.5q0 -14 -1 -29.5t-4 -33.5l-48 -316h-85l50 318q2 14 3 25t1 21q0 32 -11 44.5t-30 12.5q-26 0 -53.5 -28
t-52.5 -76t-44.5 -113t-29.5 -139l-9 -65h-85l64 458q4 26 6.5 49.5t4.5 45.5h-68l10 70h64q2 15 2 30t1 30h85z" />
    <glyph glyph-name="uni045C" unicode="&#x45c;" horiz-adv-x="437" 
d="M382 0h-98q-23 68 -43.5 123t-41.5 104h-52l-32 -227h-85l69 488h85l-28 -193h50l36.5 49.5l40 54.5l36 51l25.5 38h94l-167 -224zM297 685h90l-109 -139h-71z" />
    <glyph glyph-name="uni045E" unicode="&#x45e;" horiz-adv-x="486" 
d="M371 -36q-12 -86 -55 -123.5t-130 -37.5q-31 0 -70.5 6t-72.5 16l10 75q33 -11 70 -17.5t66 -6.5q48 0 69 20t27 61l11 71l50 162l-2 2l-3 -1q-36 -108 -83 -155.5t-101 -47.5q-51 0 -80.5 33t-29.5 98q0 11 1 22t3 24l47 323h85l-46 -313q-2 -14 -3 -25.5t-1 -21.5
q0 -36 12.5 -50t35.5 -14q36 0 63 28t45.5 68.5t30 86t16.5 79.5l23 162h86zM412 602q-16 -17 -36 -29q-18 -11 -43.5 -19.5t-58.5 -8.5q-32 0 -55 9.5t-38 20.5q-18 13 -29 31l12 79q13 -19 31 -33q15 -12 37.5 -22t52.5 -10q29 0 54.5 10t44.5 22q22 14 40 33z" />
    <glyph glyph-name="uni045F" unicode="&#x45f;" horiz-adv-x="485" 
d="M244 0l-17 -120h-82l17 120h-132l68 488h85l-59 -419h176l59 419h85l-68 -488h-132z" />
    <glyph glyph-name="uni0462" unicode="&#x462;" horiz-adv-x="665" 
d="M339 578l-24 -200q32 5 59.5 7.5t44.5 2.5q52 0 91.5 -15t65 -42t36 -64t4.5 -80l-3 -20q-13 -86 -71 -132.5t-177 -46.5q-19 0 -42 1t-47.5 2.5t-48.5 4l-45 4.5l72 578h-190l10 77h465l-10 -77h-190zM396 317q-17 0 -43.5 -2.5t-46.5 -5.5l-29 -242q26 -5 50.5 -7
t39.5 -2q76 0 113.5 30t47.5 90l2 12q1 7 1.5 13.5t0.5 12.5q0 49 -34 75t-102 26z" />
    <glyph glyph-name="uni0463" unicode="&#x463;" horiz-adv-x="465" 
d="M313 558l-10 -70h-120l-17 -119l-37 -122l2 -2l3 2q30 72 73 109t88 37q53 0 84 -33t31 -102q0 -34 -7 -69l-5 -27q-32 -174 -183 -174q-82 0 -122 41t-40 113q0 19 3 40l42 306h-70l10 70h70l11 78h85l-11 -78h120zM262 317q-22 0 -41.5 -13.5t-35.5 -36.5t-27.5 -52.5
t-16.5 -61.5q-1 -5 -1 -8.5v-7.5q0 -35 18 -56.5t55 -21.5q38 0 62.5 22.5t35.5 71.5l4 19q4 20 6 36t2 30q0 43 -17 61t-44 18z" />
    <glyph glyph-name="uni0472" unicode="&#x472;" horiz-adv-x="576" 
d="M327 667q107 0 159 -58.5t39 -161.5l-31 -249q-13 -104 -71 -157t-167 -53q-100 0 -150.5 47.5t-50.5 132.5q0 19 3 40l31 249q14 108 70 159t168 51zM321 592q-132 0 -147 -127l-12 -94h268l11 87q1 7 1.5 13.5t0.5 12.5q0 56 -31.5 82t-90.5 26zM142 197
q-8 -66 22.5 -100t96.5 -34q131 0 147 128l13 104h-268z" />
    <glyph glyph-name="uni0473" unicode="&#x473;" horiz-adv-x="472" 
d="M256 500q81 0 122 -40t41 -108q0 -18 -3 -37l-19 -139q-12 -91 -60 -139.5t-132 -48.5q-82 0 -123.5 39.5t-41.5 108.5q0 16 3 36l20 144q12 89 62 136.5t131 47.5zM252 429q-42 0 -68 -24t-34 -78l-7 -45h183l6 40q1 6 1.5 12t0.5 11q0 41 -22 62.5t-60 21.5zM127 165
q-1 -5 -1 -10.5v-10.5q0 -41 22 -63t60 -22q44 0 69 24.5t32 77.5l7 51h-183z" />
    <glyph glyph-name="uni0474" unicode="&#x474;" 
d="M565 667q18 0 36 -3t28 -6l-9 -69q-13 3 -26 5t-26 2q-11 0 -19 -3t-16.5 -11.5t-17 -24t-19.5 -41.5l-213 -516h-112l-114 655h86q26 -139 48 -284.5t41 -288.5l46 103l42 99t42 106.5l46 125.5q17 47 32.5 76.5t33 46t39.5 22.5t52 6z" />
    <glyph glyph-name="uni0475" unicode="&#x475;" horiz-adv-x="445" 
d="M460 500q12 0 26 -2.5t25 -5.5l-10 -71q-12 4 -25 6.5t-21 2.5q-9 0 -17 -2.5t-16 -11t-16.5 -24t-20.5 -41.5l-156 -351h-109l-82 488h83q20 -113 34 -214.5t23 -206.5l2 -2l3 2q39 85 66.5 151.5l50.5 126.5q18 49 35 79t35.5 47t40 23t49.5 6z" />
    <glyph glyph-name="uni0490" unicode="&#x490;" horiz-adv-x="440" 
d="M194 578l-70 -578h-85l80 655h255l16 130h85l-26 -207h-255z" />
    <glyph glyph-name="uni0491" unicode="&#x491;" horiz-adv-x="361" 
d="M173 418l-58 -418h-85l68 488h184l17 119h82l-27 -189h-181z" />
    <glyph glyph-name="uni0492" unicode="&#x492;" horiz-adv-x="446" 
d="M200 578l-25 -207h130l-10 -76h-130l-35 -295h-85l35 295h-70l10 76h70l35 284h340l-10 -77h-255z" />
    <glyph glyph-name="uni0493" unicode="&#x493;" horiz-adv-x="366" 
d="M178 418l-18 -130h130l-10 -70h-130l-30 -218h-85l30 218h-70l10 70h70l28 200h266l-10 -70h-181z" />
    <glyph glyph-name="uni0496" unicode="&#x496;" horiz-adv-x="797" 
d="M706 77h45l-25 -207h-85l17 130h-25l-32 102t-26.5 78.5t-23.5 61.5l-21 53h-89l-36 -295h-85l36 295h-91l-45.5 -75l-47 -77.5l-46.5 -75l-42 -67.5h-95l213 339l-124 316h89q27 -66 53.5 -138l51.5 -146h93l35 284h85l-35 -284h87l95 148.5t81 135.5h94l-200 -318z" />
    <glyph glyph-name="uni0497" unicode="&#x497;" horiz-adv-x="613" 
d="M392 683q-1 -38 -4.5 -91t-14.5 -128l-24 -169h54q38 51 70 99t59 94h89l-152 -220l70 -199h42l-26 -189h-82l16 120h-14l-35 113.5t-40 113.5h-60l-32 -227h-83l31 227h-56l-68.5 -113.5l-71.5 -113.5h-90l169 268l-91 220h87l35.5 -96t37.5 -97h58l23 163
q10 70 13 122.5t5 102.5h85z" />
    <glyph glyph-name="uni0498" unicode="&#x498;" horiz-adv-x="473" 
d="M231 667q112 0 161 -46.5t38 -127.5l-3 -22q-3 -22 -12.5 -43t-25 -39t-36.5 -31.5t-46 -20.5q53 -16 80 -58t22 -104l-2 -22q-6 -67 -57 -114t-146 -51l-12 -29h2q28 0 44 -19.5t12 -51.5l-1 -9q-5 -36 -27.5 -56t-67.5 -20q-12 0 -29 2.5t-30 6.5l7 55q23 -10 45 -10
q17 0 25 6.5t10 16.5l1 7v6q0 27 -34 27h-26l3 20l23 51q-33 5 -69 15t-68 24l12 78q47 -21 91.5 -32.5t80.5 -11.5q59 0 88.5 24.5t37.5 78.5l2 19q6 55 -26.5 84t-104.5 29h-79l9 70h79q64 0 98.5 29.5t41.5 79.5l2 15q6 47 -23.5 73.5t-96.5 26.5q-15 0 -34 -2t-38 -5
t-37 -7.5t-33 -9.5l7 78q35 8 72.5 14t69.5 6z" />
    <glyph glyph-name="uni0499" unicode="&#x499;" horiz-adv-x="343" 
d="M136 500q90 0 129.5 -38t30.5 -98l-2 -13q-5 -34 -32 -63t-70 -42q37 -11 60.5 -43t19.5 -72l-1 -11q-5 -53 -41 -88t-105 -42l-13 -31h2q28 0 44 -19.5t12 -51.5l-1 -9q-5 -36 -27.5 -56t-67.5 -20q-12 0 -29 2.5t-30 6.5l7 55q23 -10 45 -10q17 0 25 6.5t10 16.5l1 7v6
q0 27 -34 27h-26l3 20l23 50q-24 3 -52 10t-52 16l10 71q28 -12 65.5 -20.5t66.5 -8.5q37 0 55 16t23 53l1 7q1 5 1 15q0 65 -84 65h-79l9 67h71q51 0 77 18.5t31 49.5l2 15q4 31 -18 49.5t-70 18.5q-28 0 -52 -4t-51 -12l8 71q34 7 56.5 10t48.5 3z" />
    <glyph glyph-name="uni049A" unicode="&#x49a;" horiz-adv-x="531" 
d="M448 77h47l-25 -207h-85l17 130h-25l-45.5 106.5t-36 78t-30.5 59l-29 51.5h-76l-36 -295h-85l80 655h85l-35 -284h66q38 46 91 117.5l120 166.5h98l-240 -316z" />
    <glyph glyph-name="uni049B" unicode="&#x49b;" horiz-adv-x="437" 
d="M353 69h47l-26 -189h-82l16 120h-24q-23 68 -43.5 123t-41.5 104h-52l-32 -227h-85l69 488h85l-28 -193h50l36.5 49.5l40 54.5l36 51l25.5 38h94l-167 -224z" />
    <glyph glyph-name="uni049C" unicode="&#x49c;" horiz-adv-x="558" 
d="M517 0h-103l-43.5 91.5l-37.5 75l-35 65.5l-35 63h-6l-24 -195h-65l24 195h-32l-36 -295h-85l80 655h85l-35 -284h32l16 129h65l-16 -124h1q38 47 91 119l115 160h98l-240 -316z" />
    <glyph glyph-name="uni049D" unicode="&#x49d;" horiz-adv-x="482" 
d="M422 0h-96l-51 120.5t-48 103.5h-1l-16 -114h-55l16 117h-25l-31 -227h-85l68 488h85l-27 -193h25l16 115h55l-16 -115h2l75 100l67 93h98l-181 -230z" />
    <glyph glyph-name="uni04A0" unicode="&#x4a0;" horiz-adv-x="657" 
d="M616 0h-103l-42.5 91.5l-37.5 75l-35.5 65.5l-35.5 63h-76l-36 -295h-85l70 575h-181l11 80h265l-35 -284h66q38 46 91 117.5l120 166.5h98l-240 -316z" />
    <glyph glyph-name="uni04A1" unicode="&#x4a1;" horiz-adv-x="531" 
d="M476 0h-98q-23 68 -43.5 123t-41.5 104h-52l-32 -227h-85l59 418h-140l10 70h225l-28 -193h50l36.5 49.5l40 54.5l36 51l25.5 38h94l-167 -224z" />
    <glyph glyph-name="uni04A2" unicode="&#x4a2;" horiz-adv-x="580" 
d="M537 77l-25 -207h-85l17 130h-60l36 300h-260l-36 -300h-85l80 655h85l-35 -279h260l35 279h85l-72 -578h60z" />
    <glyph glyph-name="uni04A3" unicode="&#x4a3;" horiz-adv-x="491" 
d="M446 69l-26 -189h-82l17 120h-64l30 215h-176l-30 -215h-85l68 488h85l-28 -203h176l28 203h85l-59 -419h61z" />
    <glyph glyph-name="uni04AA" unicode="&#x4aa;" horiz-adv-x="476" 
d="M303 667q33 0 73.5 -6.5t75.5 -17.5l-11 -80q-35 14 -72.5 22t-67.5 8q-54 0 -85.5 -29.5t-39.5 -94.5l-33 -275q-1 -9 -1.5 -17.5t-0.5 -16.5q0 -52 24.5 -73t75.5 -21q35 0 71.5 9.5t78.5 28.5l-8 -80q-22 -12 -53 -20q-32 -14 -52.5 -39t-24.5 -52l-1 -10q-1 -3 -1 -9
q0 -28 38 -28q15 0 33 3l-8 -61q-14 -3 -26 -4t-23 -1q-46 0 -67.5 18.5t-21.5 48.5q0 9 1 14l2 13q3 24 18 48t38 43h-7q-86 0 -129 41t-43 128q0 23 3 50l31 256q13 106 66.5 155t146.5 49z" />
    <glyph glyph-name="uni04AB" unicode="&#x4ab;" horiz-adv-x="393" 
d="M248 500q26 0 53 -4t61 -14l-12 -76q-59 22 -103 22q-39 0 -64 -24.5t-33 -75.5l-21 -154q-2 -9 -2 -16.5v-15.5q0 -44 19 -61.5t52 -17.5q28 0 58.5 8t59.5 25l-9 -77q-18 -9 -36 -15q-33 -14 -53 -39t-24 -52l-1 -10q-1 -3 -1 -9q0 -28 38 -28q15 0 33 3l-8 -61
q-14 -3 -26 -4t-23 -1q-46 0 -67.5 18.5t-21.5 48.5q0 9 1 14l2 13q3 24 18 48t38 43h-2q-64 4 -99 41t-35 103q0 20 3 41l21 148q14 94 60 136.5t124 42.5z" />
    <glyph glyph-name="uni04AE" unicode="&#x4ae;" horiz-adv-x="491" 
d="M252 0h-85l27 225l-137 430h93q26 -85 49.5 -170t44.5 -170q50 85 94 170l85 170h99l-243 -430z" />
    <glyph glyph-name="uni04AF" unicode="&#x4af;" horiz-adv-x="440" 
d="M198 -185h-85l26 185l-101 488h88l18.5 -107l16 -98t14 -96t12.5 -100l2 -2l3 2l38 82l28.5 64l23.5 54.5l22.5 54.5l25.5 64l32 82h96l-234 -488z" />
    <glyph glyph-name="uni04B0" unicode="&#x4b0;" horiz-adv-x="491" 
d="M382 251l-10 -76h-99l-21 -175h-85l21 175h-101l10 76h88l-128 404h93q26 -85 49.5 -170t44.5 -170q50 85 94 170l85 170h99l-229 -404h89z" />
    <glyph glyph-name="uni04B1" unicode="&#x4b1;" horiz-adv-x="440" 
d="M312 70l-9 -70h-79l-26 -185h-85l26 185h-82l9 70h58l-86 418h88l18.5 -107l16 -98t14 -96t12.5 -100l2 -2l3 2l38 82l28.5 64l23.5 54.5l22.5 54.5l25.5 64l32 82h96l-200 -418h54z" />
    <glyph glyph-name="uni04B2" unicode="&#x4b2;" horiz-adv-x="519" 
d="M435 77h62l-25 -207h-85l17 130h-34q-26 69 -53 132l-61 136l-89 -134l-91 -134h-99l233 341l-141 314h96l53 -125l52 -125l89 126.5l80 123.5h100l-220 -320z" />
    <glyph glyph-name="uni04B3" unicode="&#x4b3;" horiz-adv-x="421" 
d="M344 69h51l-26 -189h-82l16 120h-19q-20 53 -39 97t-42 92l-2 2l-3 -2l-68.5 -100.5l-62.5 -88.5h-102l186 252l-108 236h94l37.5 -86l35.5 -87l2 -2l3 2l59.5 85.5l57.5 87.5h101l-174 -236z" />
    <glyph glyph-name="uni04B8" unicode="&#x4b8;" horiz-adv-x="566" 
d="M370 0l30 248q-50 -14 -93 -18l-16 -130h-65l16 129q-78 7 -120.5 49.5t-42.5 120.5q0 19 3 40l27 216h85l-27 -218q-1 -8 -1.5 -14.5t-0.5 -13.5q0 -90 86 -107l24 198h65l-25 -201q49 3 94 19l41 337h85l-80 -655h-85z" />
    <glyph glyph-name="uni04B9" unicode="&#x4b9;" horiz-adv-x="460" 
d="M346 0h-84l21 148l50 153l-2 2l-3 -1q-23 -66 -50.5 -108t-58.5 -63l-10 -71h-55l7 49l-14 -1q-51 0 -80 32.5t-29 98.5q0 22 3 46l27 203h85l-26 -194q-2 -14 -3 -25.5t-1 -21.5q0 -38 12.5 -50.5t35.5 -12.5l25 176h55l-22 -151q36 31 60.5 93t33.5 136l6 50h86z" />
    <glyph glyph-name="uni04BA" unicode="&#x4ba;" horiz-adv-x="544" 
d="M173 402q33 11 66 18t68 7q87 0 133 -45t46 -132q0 -21 -3 -45l-25 -205h-85l26 215q1 9 1.5 17t0.5 16q0 108 -111 108q-30 0 -63.5 -7t-62.5 -18l-40 -331h-85l80 655h85z" />
    <glyph glyph-name="uni04BB" unicode="&#x4bb;" horiz-adv-x="476" 
d="M199 683q-1 -38 -3.5 -82t-8.5 -87l-4 -29l-64 -264l3 -2l3 2q20 58 41.5 98t45.5 64.5t50 35.5t55 11q49 0 76 -27.5t27 -92.5q0 -29 -6 -65l-38 -245h-85l40 247q2 14 3 25.5t1 21.5q0 32 -11 44.5t-30 12.5q-26 0 -53 -19.5t-51 -61.5t-43.5 -107t-30.5 -155l-1 -8
h-85l64 458q10 70 14 122.5t6 102.5h85z" />
    <glyph glyph-name="uni04C0" unicode="&#x4c0;" horiz-adv-x="235" 
d="M204 655l-80 -655h-85l80 655h85z" />
    <glyph glyph-name="uni04CB" unicode="&#x4cb;" horiz-adv-x="566" 
d="M524 77l-25 -207h-85l17 130h-61l30 248q-35 -9 -66.5 -14.5t-60.5 -5.5q-103 0 -153.5 53t-37.5 158l27 216h85l-27 -218q-1 -7 -1.5 -14t-0.5 -13q0 -111 126 -111q61 0 118 19l41 337h85l-71 -578h60z" />
    <glyph glyph-name="uni04CC" unicode="&#x4cc;" horiz-adv-x="476" 
d="M431 69l-26 -189h-82l16 120h-63l21 148l50 153l-2 2l-3 -1q-36 -102 -82 -148t-99 -46q-51 0 -80 33t-29 99q0 21 3 45l27 203h85l-26 -194q-2 -14 -3 -25.5t-1 -21.5q0 -38 12.5 -50.5t35.5 -12.5q29 0 54 21t45 56t33.5 81t19.5 96l6 50h86l-59 -419h61z" />
    <glyph glyph-name="uni04CF" unicode="&#x4cf;" horiz-adv-x="225" 
d="M183 488l-68 -488h-85l68 488h85z" />
    <glyph glyph-name="uni04D8" unicode="&#x4d8;" horiz-adv-x="566" 
d="M303 667q114 0 164 -41t50 -130q0 -24 -3 -52l-30 -241q-13 -104 -69 -159.5t-165 -55.5q-97 0 -146 45t-49 130q0 19 3 40l21 168h341l10 84q3 21 3 38q0 59 -32 81t-107 22q-37 0 -79 -6t-74 -14l7 74q43 8 82 12.5t73 4.5zM142 194q-1 -7 -1.5 -13.5t-0.5 -12.5
q0 -52 29.5 -78.5t83.5 -26.5q63 0 100 32.5t45 98.5l12 101h-256z" />
    <glyph glyph-name="uni04D9" unicode="&#x4d9;" horiz-adv-x="466" 
d="M239 500q86 0 130 -38t44 -110q0 -19 -3 -38l-20 -144q-13 -93 -56.5 -137.5t-125.5 -44.5q-81 0 -123.5 38.5t-42.5 110.5q0 18 3 39l14 95h260l6 40q2 8 2 15v14q0 45 -25.5 65t-73.5 20q-14 0 -31 -2t-35.5 -5.5t-36.5 -8t-32 -8.5l8 77q13 4 30 8t35.5 7t37 5t35.5 2
zM129 167q-1 -8 -1.5 -14.5t-0.5 -12.5q0 -81 83 -81q39 0 62.5 23.5t31.5 78.5l5 40h-175z" />
    <glyph glyph-name="uni04E2" unicode="&#x4e2;" horiz-adv-x="580" 
d="M384 0l61 496l-321 -496h-85l80 655h85l-61 -495l163 244.5t153 250.5h90l-80 -655h-85zM472 785l-10 -75h-235l10 75h235z" />
    <glyph glyph-name="uni04E3" unicode="&#x4e3;" horiz-adv-x="486" 
d="M400 681l-10 -75h-215l10 75h215zM296 0l4 28l46 162l-2 2l-3 -1q-36 -108 -83 -155.5t-101 -47.5q-51 0 -80.5 33t-29.5 98q0 11 1 22t3 24l47 323h85l-46 -313q-2 -14 -3 -25.5t-1 -21.5q0 -36 12.5 -50t35.5 -14q36 0 63 28t45.5 68.5t30 86t16.5 79.5l23 162h86
l-69 -488h-80z" />
    <glyph glyph-name="uni04E8" unicode="&#x4e8;" horiz-adv-x="576" 
d="M327 667q107 0 159 -58.5t39 -161.5l-31 -249q-13 -104 -71 -157t-167 -53q-100 0 -150.5 47.5t-50.5 132.5q0 19 3 40l31 249q14 108 70 159t168 51zM321 592q-132 0 -147 -127l-12 -94h268l11 87q1 7 1.5 13.5t0.5 12.5q0 56 -31.5 82t-90.5 26zM142 197
q-8 -66 22.5 -100t96.5 -34q131 0 147 128l13 104h-268z" />
    <glyph glyph-name="uni04E9" unicode="&#x4e9;" horiz-adv-x="472" 
d="M256 500q81 0 122 -40t41 -108q0 -18 -3 -37l-19 -139q-12 -91 -60 -139.5t-132 -48.5q-82 0 -123.5 39.5t-41.5 108.5q0 16 3 36l20 144q12 89 62 136.5t131 47.5zM252 429q-42 0 -68 -24t-34 -78l-7 -45h183l6 40q1 6 1.5 12t0.5 11q0 41 -22 62.5t-60 21.5zM127 165
q-1 -5 -1 -10.5v-10.5q0 -41 22 -63t60 -22q44 0 69 24.5t32 77.5l7 51h-183z" />
    <glyph glyph-name="uni04EE" unicode="&#x4ee;" horiz-adv-x="482" 
d="M191 225l-137 430h94l53.5 -189.5t39.5 -158.5q21 35 46.5 82l51 95l48 93.5l37.5 77.5h95l-370 -655h-85zM417 785l-10 -75h-235l10 75h235z" />
    <glyph glyph-name="uni04EF" unicode="&#x4ef;" horiz-adv-x="486" 
d="M404 681l-10 -75h-215l10 75h215zM371 -36q-12 -86 -55 -123.5t-130 -37.5q-31 0 -70.5 6t-72.5 16l10 75q33 -11 70 -17.5t66 -6.5q48 0 69 20t27 61l11 71l50 162l-2 2l-3 -1q-36 -108 -83 -155.5t-101 -47.5q-51 0 -80.5 33t-29.5 98q0 11 1 22t3 24l47 323h85
l-46 -313q-2 -14 -3 -25.5t-1 -21.5q0 -36 12.5 -50t35.5 -14q36 0 63 28t45.5 68.5t30 86t16.5 79.5l23 162h86z" />
    <glyph glyph-name="Wgrave" unicode="&#x1e80;" horiz-adv-x="848" 
d="M524 0l-68 558l-203 -558h-114l-70 655h87q33 -278 51 -562q56 140 105.5 280t94.5 282h114q20 -141 37 -281t29 -281q53 141 99 281t88 281h93l-229 -655h-114zM505 710h-70l-73 119h89z" />
    <glyph glyph-name="wgrave" unicode="&#x1e81;" horiz-adv-x="678" 
d="M399 0l-42 414l-160 -414h-108l-41 488h87q15 -177 15 -354v-59l3 -2l2 2q43 103 80.5 205.5l72.5 207.5h115q15 -103 23.5 -205.5t13.5 -207.5l2 -2l3 2q38 103 70 205.5t61 207.5h90l-178 -488h-109zM412 546h-71l-109 139h90z" />
    <glyph glyph-name="Wacute" unicode="&#x1e82;" horiz-adv-x="848" 
d="M524 0l-68 558l-203 -558h-114l-70 655h87q33 -278 51 -562q56 140 105.5 280t94.5 282h114q20 -141 37 -281t29 -281q53 141 99 281t88 281h93l-229 -655h-114zM510 829h89l-97 -119h-70z" />
    <glyph glyph-name="wacute" unicode="&#x1e83;" horiz-adv-x="678" 
d="M399 0l-42 414l-160 -414h-108l-41 488h87q15 -177 15 -354v-59l3 -2l2 2q43 103 80.5 205.5l72.5 207.5h115q15 -103 23.5 -205.5t13.5 -207.5l2 -2l3 2q38 103 70 205.5t61 207.5h90l-178 -488h-109zM422 685h90l-109 -139h-71z" />
    <glyph glyph-name="Wdieresis" unicode="&#x1e84;" horiz-adv-x="848" 
d="M524 0l-68 558l-203 -558h-114l-70 655h87q33 -278 51 -562q56 140 105.5 280t94.5 282h114q20 -141 37 -281t29 -281q53 141 99 281t88 281h93l-229 -655h-114zM439 752q-2 -21 -14.5 -31.5t-39.5 -10.5q-26 0 -42 13t-13 34l4 28q6 43 55 43q27 0 41.5 -12t12.5 -35z
M611 752q-3 -42 -54 -42q-26 0 -42 13t-13 34l4 28q3 23 16 33t39 10t41 -12t13 -35z" />
    <glyph glyph-name="wdieresis" unicode="&#x1e85;" horiz-adv-x="678" 
d="M399 0l-42 414l-160 -414h-108l-41 488h87q15 -177 15 -354v-59l3 -2l2 2q43 103 80.5 205.5l72.5 207.5h115q15 -103 23.5 -205.5t13.5 -207.5l2 -2l3 2q38 103 70 205.5t61 207.5h90l-178 -488h-109zM346 619q-3 -21 -16 -31.5t-40 -10.5q-26 0 -41 13t-12 34l4 28
q6 43 57 43q27 0 41 -12t11 -35zM518 619q-6 -42 -56 -42q-26 0 -41 13t-12 34l4 28q6 43 57 43q26 0 40.5 -12t11.5 -35z" />
    <glyph glyph-name="Ygrave" unicode="&#x1ef2;" horiz-adv-x="491" 
d="M252 0h-85l27 225l-137 430h93q26 -85 49.5 -170t44.5 -170q50 85 94 170l85 170h99l-243 -430zM324 710h-70l-73 119h89z" />
    <glyph glyph-name="ygrave" unicode="&#x1ef3;" horiz-adv-x="486" 
d="M371 -36q-12 -86 -55 -123.5t-130 -37.5q-31 0 -70.5 6t-72.5 16l10 75q33 -11 70 -17.5t66 -6.5q48 0 69 20t27 61l11 71l50 162l-2 2l-3 -1q-36 -108 -83 -155.5t-101 -47.5q-51 0 -80.5 33t-29.5 98q0 11 1 22t3 24l47 323h85l-46 -313q-2 -14 -3 -25.5t-1 -21.5
q0 -36 12.5 -50t35.5 -14q36 0 63 28t45.5 68.5t30 86t16.5 79.5l23 162h86zM317 546h-71l-109 139h90z" />
    <glyph glyph-name="uni2007" unicode="&#x2007;" horiz-adv-x="510" 
 />
    <glyph glyph-name="uni2008" unicode="&#x2008;" horiz-adv-x="223" 
 />
    <glyph glyph-name="uni200B" unicode="&#x200b;" horiz-adv-x="0" 
 />
    <glyph glyph-name="endash" unicode="&#x2013;" horiz-adv-x="610" 
d="M61 263l10 65h480l-10 -65h-480z" />
    <glyph glyph-name="emdash" unicode="&#x2014;" horiz-adv-x="710" 
d="M61 263l10 65h580l-10 -65h-580z" />
    <glyph glyph-name="afii00208" unicode="&#x2015;" horiz-adv-x="610" 
d="M61 263l10 65h480l-10 -65h-480z" />
    <glyph glyph-name="quoteleft" unicode="&#x2018;" horiz-adv-x="217" 
d="M173 596q14 -4 21 -15t7 -26v-7l-4 -27q-3 -22 -17 -30.5t-40 -8.5t-39.5 13.5t-10.5 35.5l4 30q2 14 5 24t9 22l43 88h59z" />
    <glyph glyph-name="quoteright" unicode="&#x2019;" horiz-adv-x="217" 
d="M164 695q26 0 39.5 -13.5t10.5 -35.5l-4 -30q-2 -14 -5 -24t-9 -22l-43 -88h-59l37 99q-14 4 -21 15t-7 26v7l4 27q3 22 17 30.5t40 8.5z" />
    <glyph glyph-name="quotesinglbase" unicode="&#x201a;" horiz-adv-x="217" 
d="M80 105q26 0 39.5 -13.5t10.5 -35.5l-4 -30q-2 -14 -5 -24t-9 -22l-43 -88h-59l37 99q-14 4 -21 15t-7 26v7l4 27q3 22 17 30.5t40 8.5z" />
    <glyph glyph-name="quotedblleft" unicode="&#x201c;" horiz-adv-x="362" 
d="M173 596q14 -4 21 -15t7 -26v-7l-4 -27q-3 -22 -17 -30.5t-40 -8.5t-39.5 13.5t-10.5 35.5l4 30q2 14 5 24t9 22l43 88h59zM315 596q14 -4 21 -15t7 -26v-7l-4 -27q-3 -22 -17 -30.5t-40 -8.5t-39.5 13.5t-10.5 35.5l4 30q2 14 5 24t9 22l43 88h59z" />
    <glyph glyph-name="quotedblright" unicode="&#x201d;" horiz-adv-x="362" 
d="M165 695q26 0 39.5 -13.5t10.5 -35.5l-4 -30q-2 -14 -5 -24t-9 -22l-43 -88h-59l37 99q-14 4 -21 15t-7 26v7l4 27q3 22 17 30.5t40 8.5zM307 695q26 0 39.5 -13.5t10.5 -35.5l-4 -30q-2 -14 -5 -24t-9 -22l-43 -88h-59l37 99q-14 4 -21 15t-7 26v7l4 27q3 22 17 30.5
t40 8.5z" />
    <glyph glyph-name="quotedblbase" unicode="&#x201e;" horiz-adv-x="362" 
d="M81 105q26 0 39.5 -13.5t10.5 -35.5l-4 -30q-2 -14 -5 -24t-9 -22l-43 -88h-59l37 99q-14 4 -21 15t-7 26v7l4 27q3 22 17 30.5t40 8.5zM223 105q26 0 39.5 -13.5t10.5 -35.5l-4 -30q-2 -14 -5 -24t-9 -22l-43 -88h-59l37 99q-14 4 -21 15t-7 26v7l4 27q3 22 17 30.5
t40 8.5z" />
    <glyph glyph-name="dagger" unicode="&#x2020;" horiz-adv-x="419" 
d="M432 488l-11 -80h-152l-57 -408h-85l57 408h-152l11 80h152l24 167h85l-24 -167h152z" />
    <glyph glyph-name="daggerdbl" unicode="&#x2021;" horiz-adv-x="439" 
d="M442 488l-11 -80h-152l-20 -140h152l-11 -80h-152l-26 -188h-85l26 188h-152l11 80h152l20 140h-152l11 80h152l24 167h85l-24 -167h152z" />
    <glyph glyph-name="bullet" unicode="&#x2022;" horiz-adv-x="235" 
d="M118 335q32 0 48.5 -15.5t12.5 -40.5l-5 -30q-5 -27 -19 -38t-46 -11q-29 0 -47 15t-13 41l5 29q4 26 19 38t45 12z" />
    <glyph glyph-name="ellipsis" unicode="&#x2026;" horiz-adv-x="553" 
d="M245 108q28 0 42 -13.5t11 -35.5l-4 -29q-3 -20 -16.5 -31t-42.5 -11q-28 0 -41.5 14t-10.5 34l3 23q3 26 16.5 37.5t42.5 11.5zM80 108q28 0 42 -13.5t11 -35.5l-4 -29q-3 -20 -16.5 -31t-42.5 -11q-28 0 -41.5 14t-10.5 34l3 23q3 26 16.5 37.5t42.5 11.5zM411 108
q28 0 42 -13.5t11 -35.5l-4 -29q-3 -20 -16.5 -31t-42.5 -11q-28 0 -41.5 14t-10.5 34l3 23q3 26 16.5 37.5t42.5 11.5z" />
    <glyph glyph-name="perthousand" unicode="&#x2030;" horiz-adv-x="1240" 
d="M245 625q70 0 106 -34t36 -97v-16.5t-2 -16.5l-4 -30q-21 -156 -174 -156q-69 0 -106.5 36.5t-37.5 98.5q0 16 3 36l5 30q13 77 54 113t120 36zM185 0l421 613h91l-421 -613h-91zM237 550q-36 0 -56 -19t-26 -63l-4 -30q-1 -6 -1.5 -12t-0.5 -11q0 -65 66 -65
q36 0 55.5 19t25.5 64l4 30q1 6 1.5 12t0.5 11q0 34 -16.5 49t-48.5 15zM676 338q70 0 106 -34t36 -97v-16.5t-2 -16.5l-4 -30q-21 -156 -174 -156q-69 0 -106.5 36.5t-37.5 98.5q0 16 3 36l5 30q13 77 54 113t120 36zM1055 338q70 0 106 -34t36 -97v-16.5t-2 -16.5l-4 -30
q-21 -156 -174 -156q-69 0 -106.5 36.5t-37.5 98.5q0 16 3 36l5 30q13 77 54 113t120 36zM668 263q-36 0 -56 -19t-26 -63l-4 -30q-1 -6 -1.5 -12t-0.5 -11q0 -65 66 -65q36 0 55.5 19t25.5 64l4 30q1 6 1.5 12t0.5 11q0 34 -16.5 49t-48.5 15zM1047 263q-36 0 -56 -19
t-26 -63l-4 -30q-1 -6 -1.5 -12t-0.5 -11q0 -65 66 -65q36 0 55.5 19t25.5 64l4 30q1 6 1.5 12t0.5 11q0 34 -16.5 49t-48.5 15z" />
    <glyph glyph-name="guilsinglleft" unicode="&#x2039;" horiz-adv-x="318" 
d="M233 98h-88l-76 170l124 170h88l-117 -170z" />
    <glyph glyph-name="guilsinglright" unicode="&#x203a;" horiz-adv-x="318" 
d="M133 98h-88l117 170l-69 170h88l76 -170z" />
    <glyph glyph-name="fraction" unicode="&#x2044;" horiz-adv-x="380" 
d="M-44 0l389 601h83l-389 -601h-83z" />
    <glyph glyph-name="uni2070" unicode="&#x2070;" horiz-adv-x="400" 
d="M257 760q63 0 97.5 -31.5t34.5 -89.5v-14.5t-2 -15.5l-21 -147q-10 -69 -47 -104t-109 -35q-66 0 -98.5 33.5t-32.5 87.5v14.5t2 15.5l21 147q11 74 48.5 106.5t106.5 32.5zM250 694q-30 0 -46.5 -16t-21.5 -54l-22 -157q-1 -5 -1 -9v-8q0 -29 15.5 -45t42.5 -16
q31 0 47 15t21 55l22 157q1 5 1 9v9q0 31 -15.5 45.5t-42.5 14.5z" />
    <glyph glyph-name="uni2074" unicode="&#x2074;" horiz-adv-x="400" 
d="M256 483l1 7l18 127h76l-19 -134h56l-8 -62h-56l-13 -90h-77l13 90h-171l-15 42l145 289h76l-131 -269h105z" />
    <glyph glyph-name="uni2075" unicode="&#x2075;" horiz-adv-x="400" 
d="M196 690l-22 -123q22 17 45 25t46 8q45 0 72 -27t27 -79q0 -6 -0.5 -12.5t-1.5 -13.5l-2 -15q-9 -67 -46 -98.5t-112 -31.5q-33 0 -66.5 7t-57.5 15l9 65q23 -8 55 -15t63 -7q32 0 52.5 17t25.5 56l1 7q1 5 1 8.5v7.5q0 52 -55 52q-41 0 -82 -38h-56l36 256h236l-9 -64
h-159z" />
    <glyph glyph-name="uni2076" unicode="&#x2076;" horiz-adv-x="400" 
d="M276 759q27 0 54.5 -5t44.5 -9l-8 -64q-8 2 -21 4.5l-27 5t-28 4t-24 1.5q-39 0 -58.5 -22t-27.5 -73l-7 -46q27 26 52.5 37t47.5 11q47 0 72.5 -27.5t25.5 -73.5q0 -15 -3 -33l-4 -22q-11 -61 -44.5 -92.5t-102.5 -31.5q-63 0 -99 33t-36 94q0 8 0.5 15.5t1.5 15.5
l17 120q11 81 51 119.5t123 38.5zM248 537q-18 0 -38 -10t-44 -33l-5 -36q-1 -4 -1 -7.5v-6.5q0 -26 15 -41.5t42 -15.5q31 0 47.5 13t21.5 44l4 28q1 3 1 6.5v6.5q0 23 -11.5 37.5t-31.5 14.5z" />
    <glyph glyph-name="uni2077" unicode="&#x2077;" horiz-adv-x="400" 
d="M176 331h-81l216 356h-197l9 64h281l-7 -52z" />
    <glyph glyph-name="uni2078" unicode="&#x2078;" horiz-adv-x="400" 
d="M256 760q31 0 55.5 -9t40.5 -25t23 -38t3 -47l-1 -6q-5 -23 -20.5 -46t-41.5 -34q29 -14 44 -39t15 -55v-8t-1 -8l-2 -10q-9 -54 -48.5 -83t-109.5 -29q-35 0 -63 8.5t-47.5 24.5t-28.5 40t-4 56l2 10q7 32 28.5 58.5t58.5 37.5q-20 12 -30.5 32t-10.5 44q0 5 0.5 10
t1.5 10l1 6q8 46 44 73t91 27zM251 703q-50 0 -60 -52l-1 -5q-1 -5 -1.5 -8.5t-0.5 -7.5q0 -22 14 -34.5t42 -12.5q31 0 43.5 11.5t19.5 45.5l1 5q4 26 -11.5 42t-45.5 16zM224 527q-32 0 -52 -16.5t-25 -49.5l-1 -6q-1 -5 -1 -8.5v-7.5q0 -27 18 -42.5t56 -15.5
q30 0 51.5 17t25.5 45l1 7q1 4 1 7.5v6.5q0 29 -19.5 46t-54.5 17z" />
    <glyph glyph-name="uni2079" unicode="&#x2079;" horiz-adv-x="400" 
d="M256 759q62 0 97.5 -33t35.5 -90q0 -6 -0.5 -12.5t-1.5 -13.5l-19 -136q-11 -77 -50 -114t-116 -37q-14 0 -29.5 1.5t-30.5 4t-28 5t-22 5.5l8 64q10 -3 23.5 -6t28.5 -5.5t29 -4t25 -1.5q38 0 57 16.5t25 62.5l8 60q-29 -25 -51.5 -35.5t-43.5 -10.5q-47 0 -73.5 27.5
t-26.5 78.5q0 7 0.5 14t1.5 15l3 21q9 62 45 93t105 31zM253 695q-60 0 -68 -62l-3 -25q-1 -3 -1 -6.5v-6.5q0 -24 11.5 -37t30.5 -13q18 0 37.5 11t44.5 30l5 38q1 5 1 13q0 26 -15.5 42t-42.5 16z" />
    <glyph glyph-name="uni207A" unicode="&#x207a;" horiz-adv-x="400" 
d="M375 572l-9 -65h-102l-14 -101h-71l14 101h-102l9 65h102l14 101h71l-14 -101h102z" />
    <glyph glyph-name="uni207B" unicode="&#x207b;" horiz-adv-x="400" 
d="M92 507l9 64h273l-9 -64h-273z" />
    <glyph glyph-name="uni207C" unicode="&#x207c;" horiz-adv-x="400" 
d="M100 563l9 65h274l-9 -65h-274zM84 450l9 64h274l-9 -64h-274z" />
    <glyph glyph-name="uni207D" unicode="&#x207d;" horiz-adv-x="400" 
d="M332 770q-4 1 -7.5 1h-6.5q-26 0 -35 -14t-14 -45l-44 -322q-3 -17 -3 -27q0 -19 10.5 -26.5t37.5 -9.5l-9 -65q-63 0 -91 22t-28 71v16t2 16l48 338q8 58 33.5 85t79.5 27h17t19 -2z" />
    <glyph glyph-name="uni207E" unicode="&#x207e;" horiz-adv-x="400" 
d="M208 835q63 0 91 -22t28 -71v-16t-2 -16l-48 -338q-8 -58 -33.5 -85t-79.5 -27h-17t-19 2l9 65q4 -1 7.5 -1h6.5q26 0 35 14t14 45l44 322q3 16 3 27q0 19 -10.5 26.5t-37.5 9.5z" />
    <glyph glyph-name="uni2080" unicode="&#x2080;" horiz-adv-x="400" 
d="M193 280q63 0 97.5 -31.5t34.5 -89.5v-14.5t-2 -15.5l-21 -147q-10 -69 -47 -104t-109 -35q-66 0 -98.5 33.5t-32.5 87.5v14.5t2 15.5l21 147q11 74 48.5 106.5t106.5 32.5zM186 214q-30 0 -46.5 -16t-21.5 -54l-22 -157q-1 -5 -1 -9v-8q0 -29 15.5 -45t42.5 -16
q31 0 47 15t21 55l22 157q1 5 1 9v9q0 31 -15.5 45.5t-42.5 14.5z" />
    <glyph glyph-name="uni2081" unicode="&#x2081;" horiz-adv-x="400" 
d="M284 -85l-9 -64h-252l9 64h92l41 284l-105 -42l-6 67l135 48h66l-50 -357h79z" />
    </font>
</defs>
</svg>
